<svg version="1.1" xmlns="http://www.w3.org/2000/svg" xmlns:xlink="http://www.w3.org/1999/xlink" stroke-linecap="round" stroke-linejoin="round" stroke-width="0" fill-rule="evenodd" clip-rule="evenodd" fill="currentColor" stroke="currentColor" viewBox="124.968 65.674 55.999999999999986 65.5" width="55.999999999999986mm" height="65.5mm"><path stroke-width="0.2" fill="none" d="M176.698 76.584A0.5 0.5 0 0 0 175.698 76.584A0.5 0.5 0 0 0 176.698 76.584M179.238 99.444A0.5 0.5 0 0 0 178.238 99.444A0.5 0.5 0 0 0 179.238 99.444M176.698 117.224A0.5 0.5 0 0 0 175.698 117.224A0.5 0.5 0 0 0 176.698 117.224M125.968 108.174L128.968 108.174M176.698 84.204A0.5 0.5 0 0 0 175.698 84.204A0.5 0.5 0 0 0 176.698 84.204M177.968 65.674L127.968 65.674M124.968 128.174A3 3 0 0 0 127.968 131.174M176.698 122.304A0.5 0.5 0 0 0 175.698 122.304A0.5 0.5 0 0 0 176.698 122.304M176.698 99.444A0.5 0.5 0 0 0 175.698 99.444A0.5 0.5 0 0 0 176.698 99.444M179.238 84.204A0.5 0.5 0 0 0 178.238 84.204A0.5 0.5 0 0 0 179.238 84.204M179.238 122.304A0.5 0.5 0 0 0 178.238 122.304A0.5 0.5 0 0 0 179.238 122.304M179.238 94.364A0.5 0.5 0 0 0 178.238 94.364A0.5 0.5 0 0 0 179.238 94.364M127.968 65.674A3 3 0 0 0 124.968 68.674M176.698 104.524A0.5 0.5 0 0 0 175.698 104.524A0.5 0.5 0 0 0 176.698 104.524M179.238 76.584A0.5 0.5 0 0 0 178.238 76.584A0.5 0.5 0 0 0 179.238 76.584M179.238 112.144A0.5 0.5 0 0 0 178.238 112.144A0.5 0.5 0 0 0 179.238 112.144M176.698 107.064A0.5 0.5 0 0 0 175.698 107.064A0.5 0.5 0 0 0 176.698 107.064M179.238 74.044A0.5 0.5 0 0 0 178.238 74.044A0.5 0.5 0 0 0 179.238 74.044M176.698 101.984A0.5 0.5 0 0 0 175.698 101.984A0.5 0.5 0 0 0 176.698 101.984M176.698 86.744A0.5 0.5 0 0 0 175.698 86.744A0.5 0.5 0 0 0 176.698 86.744M177.968 131.174A3 3 0 0 0 180.968 128.174M179.238 114.684A0.5 0.5 0 0 0 178.238 114.684A0.5 0.5 0 0 0 179.238 114.684M176.698 114.684A0.5 0.5 0 0 0 175.698 114.684A0.5 0.5 0 0 0 176.698 114.684M176.698 112.144A0.5 0.5 0 0 0 175.698 112.144A0.5 0.5 0 0 0 176.698 112.144M176.698 79.124A0.5 0.5 0 0 0 175.698 79.124A0.5 0.5 0 0 0 176.698 79.124M176.698 96.904A0.5 0.5 0 0 0 175.698 96.904A0.5 0.5 0 0 0 176.698 96.904M176.698 81.664A0.5 0.5 0 0 0 175.698 81.664A0.5 0.5 0 0 0 176.698 81.664M179.238 109.604A0.5 0.5 0 0 0 178.238 109.604A0.5 0.5 0 0 0 179.238 109.604M179.238 119.764A0.5 0.5 0 0 0 178.238 119.764A0.5 0.5 0 0 0 179.238 119.764M179.238 91.824A0.5 0.5 0 0 0 178.238 91.824A0.5 0.5 0 0 0 179.238 91.824M179.238 107.064A0.5 0.5 0 0 0 178.238 107.064A0.5 0.5 0 0 0 179.238 107.064M180.968 68.674A3 3 0 0 0 177.968 65.674M124.968 107.174A1 1 0 0 0 125.968 108.174M129.968 109.174A1 1 0 0 0 128.968 108.174M179.238 104.524A0.5 0.5 0 0 0 178.238 104.524A0.5 0.5 0 0 0 179.238 104.524M179.238 117.224A0.5 0.5 0 0 0 178.238 117.224A0.5 0.5 0 0 0 179.238 117.224M176.698 91.824A0.5 0.5 0 0 0 175.698 91.824A0.5 0.5 0 0 0 176.698 91.824M179.238 89.284A0.5 0.5 0 0 0 178.238 89.284A0.5 0.5 0 0 0 179.238 89.284M179.238 79.124A0.5 0.5 0 0 0 178.238 79.124A0.5 0.5 0 0 0 179.238 79.124M179.238 96.904A0.5 0.5 0 0 0 178.238 96.904A0.5 0.5 0 0 0 179.238 96.904M180.968 128.174L180.968 68.674M176.698 109.604A0.5 0.5 0 0 0 175.698 109.604A0.5 0.5 0 0 0 176.698 109.604M124.968 68.674L124.968 107.174M128.968 121.174L125.968 121.174M129.968 109.174L129.968 120.174M176.698 119.764A0.5 0.5 0 0 0 175.698 119.764A0.5 0.5 0 0 0 176.698 119.764M124.968 122.174L124.968 128.174M176.698 89.284A0.5 0.5 0 0 0 175.698 89.284A0.5 0.5 0 0 0 176.698 89.284M179.238 86.744A0.5 0.5 0 0 0 178.238 86.744A0.5 0.5 0 0 0 179.238 86.744M125.968 121.174A1 1 0 0 0 124.968 122.174M179.238 81.664A0.5 0.5 0 0 0 178.238 81.664A0.5 0.5 0 0 0 179.238 81.664M129.818 127.174A1.35 1.35 0 0 0 127.11800000000002 127.174A1.35 1.35 0 0 0 129.818 127.174M128.968 121.174A1 1 0 0 0 129.968 120.174M176.698 94.364A0.5 0.5 0 0 0 175.698 94.364A0.5 0.5 0 0 0 176.698 94.364M179.238 101.984A0.5 0.5 0 0 0 178.238 101.984A0.5 0.5 0 0 0 179.238 101.984M127.968 131.174L177.968 131.174M176.698 74.044A0.5 0.5 0 0 0 175.698 74.044A0.5 0.5 0 0 0 176.698 74.044M129.818 69.174A1.35 1.35 0 0 0 127.11800000000002 69.174A1.35 1.35 0 0 0 129.818 69.174"></path></svg>