<svg version="1.1" xmlns="http://www.w3.org/2000/svg" xmlns:xlink="http://www.w3.org/1999/xlink" stroke-linecap="round" stroke-linejoin="round" stroke-width="0" fill-rule="evenodd" clip-rule="evenodd" fill="currentColor" stroke="currentColor" viewBox="124.968 65.674 55.999999999999986 65.5" width="55.999999999999986mm" height="65.5mm"><circle cx="128.468" cy="129.574" r="0.4"></circle><circle cx="126.770944" cy="125.476944" r="0.4"></circle><circle cx="126.770944" cy="128.871056" r="0.4"></circle><circle cx="126.068" cy="127.174" r="0.4"></circle><circle cx="128.468" cy="127.174" r="3.2"></circle><circle cx="128.468" cy="124.774" r="0.4"></circle><circle cx="130.165056" cy="128.871056" r="0.4"></circle><circle cx="130.165056" cy="125.476944" r="0.4"></circle><circle cx="130.868" cy="127.174" r="0.4"></circle><circle cx="128.468" cy="71.574" r="0.4"></circle><circle cx="126.770944" cy="67.476944" r="0.4"></circle><circle cx="126.770944" cy="70.871056" r="0.4"></circle><circle cx="126.068" cy="69.174" r="0.4"></circle><circle cx="128.468" cy="69.174" r="3.2"></circle><circle cx="128.468" cy="66.774" r="0.4"></circle><circle cx="130.165056" cy="70.871056" r="0.4"></circle><circle cx="130.165056" cy="67.476944" r="0.4"></circle><circle cx="130.868" cy="69.174" r="0.4"></circle><rect x="163.482999" y="127.673999" width="1.7" height="1.7"></rect><rect x="166.022999" y="127.673999" width="1.7" height="1.7" rx="0.85" ry="0.85"></rect><g><polygon points="155.13,110.00500000000001 156.88,110.00500000000001 156.88,109.705 155.13,109.705 155.13,110.00500000000001"></polygon><circle cx="155.13" cy="110.00500000000001" r="0.15"></circle><circle cx="156.88" cy="110.00500000000001" r="0.15"></circle><circle cx="156.88" cy="109.705" r="0.15"></circle><circle cx="155.13" cy="109.705" r="0.15"></circle><polygon points="155.28,110.00500000000001 157.03,110.00500000000001 156.73,110.00500000000001 154.98,110.00500000000001"></polygon><polygon points="156.88,110.155 156.88,109.855 156.88,109.555 156.88,109.855"></polygon><polygon points="156.73,109.705 154.98,109.705 155.28,109.705 157.03,109.705"></polygon><polygon points="155.13,109.555 155.13,109.855 155.13,110.155 155.13,109.855"></polygon></g><g><polygon points="155.13,111.275 156.88,111.275 156.88,110.975 155.13,110.975 155.13,111.275"></polygon><circle cx="155.13" cy="111.275" r="0.15"></circle><circle cx="156.88" cy="111.275" r="0.15"></circle><circle cx="156.88" cy="110.975" r="0.15"></circle><circle cx="155.13" cy="110.975" r="0.15"></circle><polygon points="155.28,111.275 157.03,111.275 156.73,111.275 154.98,111.275"></polygon><polygon points="156.88,111.425 156.88,111.125 156.88,110.825 156.88,111.125"></polygon><polygon points="156.73,110.975 154.98,110.975 155.28,110.975 157.03,110.975"></polygon><polygon points="155.13,110.825 155.13,111.125 155.13,111.425 155.13,111.125"></polygon></g><g><polygon points="155.13,112.545 156.88,112.545 156.88,112.24499999999999 155.13,112.24499999999999 155.13,112.545"></polygon><circle cx="155.13" cy="112.545" r="0.15"></circle><circle cx="156.88" cy="112.545" r="0.15"></circle><circle cx="156.88" cy="112.24499999999999" r="0.15"></circle><circle cx="155.13" cy="112.24499999999999" r="0.15"></circle><polygon points="155.28,112.545 157.03,112.545 156.73,112.545 154.98,112.545"></polygon><polygon points="156.88,112.695 156.88,112.395 156.88,112.095 156.88,112.395"></polygon><polygon points="156.73,112.24499999999999 154.98,112.24499999999999 155.28,112.24499999999999 157.03,112.24499999999999"></polygon><polygon points="155.13,112.095 155.13,112.395 155.13,112.695 155.13,112.395"></polygon></g><g><polygon points="155.13,113.81500000000001 156.88,113.81500000000001 156.88,113.515 155.13,113.515 155.13,113.81500000000001"></polygon><circle cx="155.13" cy="113.81500000000001" r="0.15"></circle><circle cx="156.88" cy="113.81500000000001" r="0.15"></circle><circle cx="156.88" cy="113.515" r="0.15"></circle><circle cx="155.13" cy="113.515" r="0.15"></circle><polygon points="155.28,113.81500000000001 157.03,113.81500000000001 156.73,113.81500000000001 154.98,113.81500000000001"></polygon><polygon points="156.88,113.965 156.88,113.665 156.88,113.36500000000001 156.88,113.665"></polygon><polygon points="156.73,113.515 154.98,113.515 155.28,113.515 157.03,113.515"></polygon><polygon points="155.13,113.36500000000001 155.13,113.665 155.13,113.965 155.13,113.665"></polygon></g><g><polygon points="155.13,115.08500000000001 156.88,115.08500000000001 156.88,114.785 155.13,114.785 155.13,115.08500000000001"></polygon><circle cx="155.13" cy="115.08500000000001" r="0.15"></circle><circle cx="156.88" cy="115.08500000000001" r="0.15"></circle><circle cx="156.88" cy="114.785" r="0.15"></circle><circle cx="155.13" cy="114.785" r="0.15"></circle><polygon points="155.28,115.08500000000001 157.03,115.08500000000001 156.73,115.08500000000001 154.98,115.08500000000001"></polygon><polygon points="156.88,115.235 156.88,114.935 156.88,114.635 156.88,114.935"></polygon><polygon points="156.73,114.785 154.98,114.785 155.28,114.785 157.03,114.785"></polygon><polygon points="155.13,114.635 155.13,114.935 155.13,115.235 155.13,114.935"></polygon></g><g><polygon points="155.13,116.355 156.88,116.355 156.88,116.05499999999999 155.13,116.05499999999999 155.13,116.355"></polygon><circle cx="155.13" cy="116.355" r="0.15"></circle><circle cx="156.88" cy="116.355" r="0.15"></circle><circle cx="156.88" cy="116.05499999999999" r="0.15"></circle><circle cx="155.13" cy="116.05499999999999" r="0.15"></circle><polygon points="155.28,116.355 157.03,116.355 156.73,116.355 154.98,116.355"></polygon><polygon points="156.88,116.505 156.88,116.205 156.88,115.905 156.88,116.205"></polygon><polygon points="156.73,116.05499999999999 154.98,116.05499999999999 155.28,116.05499999999999 157.03,116.05499999999999"></polygon><polygon points="155.13,115.905 155.13,116.205 155.13,116.505 155.13,116.205"></polygon></g><g><polygon points="155.13,117.625 156.88,117.625 156.88,117.32499999999999 155.13,117.32499999999999 155.13,117.625"></polygon><circle cx="155.13" cy="117.625" r="0.15"></circle><circle cx="156.88" cy="117.625" r="0.15"></circle><circle cx="156.88" cy="117.32499999999999" r="0.15"></circle><circle cx="155.13" cy="117.32499999999999" r="0.15"></circle><polygon points="155.28,117.625 157.03,117.625 156.73,117.625 154.98,117.625"></polygon><polygon points="156.88,117.77499999999999 156.88,117.475 156.88,117.175 156.88,117.475"></polygon><polygon points="156.73,117.32499999999999 154.98,117.32499999999999 155.28,117.32499999999999 157.03,117.32499999999999"></polygon><polygon points="155.13,117.175 155.13,117.475 155.13,117.77499999999999 155.13,117.475"></polygon></g><g><polygon points="155.13,118.89500000000001 156.88,118.89500000000001 156.88,118.595 155.13,118.595 155.13,118.89500000000001"></polygon><circle cx="155.13" cy="118.89500000000001" r="0.15"></circle><circle cx="156.88" cy="118.89500000000001" r="0.15"></circle><circle cx="156.88" cy="118.595" r="0.15"></circle><circle cx="155.13" cy="118.595" r="0.15"></circle><polygon points="155.28,118.89500000000001 157.03,118.89500000000001 156.73,118.89500000000001 154.98,118.89500000000001"></polygon><polygon points="156.88,119.045 156.88,118.745 156.88,118.44500000000001 156.88,118.745"></polygon><polygon points="156.73,118.595 154.98,118.595 155.28,118.595 157.03,118.595"></polygon><polygon points="155.13,118.44500000000001 155.13,118.745 155.13,119.045 155.13,118.745"></polygon></g><g><polygon points="164.43,118.89500000000001 166.18,118.89500000000001 166.18,118.595 164.43,118.595 164.43,118.89500000000001"></polygon><circle cx="164.43" cy="118.89500000000001" r="0.15"></circle><circle cx="166.18" cy="118.89500000000001" r="0.15"></circle><circle cx="166.18" cy="118.595" r="0.15"></circle><circle cx="164.43" cy="118.595" r="0.15"></circle><polygon points="164.58,118.89500000000001 166.33,118.89500000000001 166.03,118.89500000000001 164.28,118.89500000000001"></polygon><polygon points="166.18,119.045 166.18,118.745 166.18,118.44500000000001 166.18,118.745"></polygon><polygon points="166.03,118.595 164.28,118.595 164.58,118.595 166.33,118.595"></polygon><polygon points="164.43,118.44500000000001 164.43,118.745 164.43,119.045 164.43,118.745"></polygon></g><g><polygon points="164.43,117.625 166.18,117.625 166.18,117.32499999999999 164.43,117.32499999999999 164.43,117.625"></polygon><circle cx="164.43" cy="117.625" r="0.15"></circle><circle cx="166.18" cy="117.625" r="0.15"></circle><circle cx="166.18" cy="117.32499999999999" r="0.15"></circle><circle cx="164.43" cy="117.32499999999999" r="0.15"></circle><polygon points="164.58,117.625 166.33,117.625 166.03,117.625 164.28,117.625"></polygon><polygon points="166.18,117.77499999999999 166.18,117.475 166.18,117.175 166.18,117.475"></polygon><polygon points="166.03,117.32499999999999 164.28,117.32499999999999 164.58,117.32499999999999 166.33,117.32499999999999"></polygon><polygon points="164.43,117.175 164.43,117.475 164.43,117.77499999999999 164.43,117.475"></polygon></g><g><polygon points="164.43,116.355 166.18,116.355 166.18,116.05499999999999 164.43,116.05499999999999 164.43,116.355"></polygon><circle cx="164.43" cy="116.355" r="0.15"></circle><circle cx="166.18" cy="116.355" r="0.15"></circle><circle cx="166.18" cy="116.05499999999999" r="0.15"></circle><circle cx="164.43" cy="116.05499999999999" r="0.15"></circle><polygon points="164.58,116.355 166.33,116.355 166.03,116.355 164.28,116.355"></polygon><polygon points="166.18,116.505 166.18,116.205 166.18,115.905 166.18,116.205"></polygon><polygon points="166.03,116.05499999999999 164.28,116.05499999999999 164.58,116.05499999999999 166.33,116.05499999999999"></polygon><polygon points="164.43,115.905 164.43,116.205 164.43,116.505 164.43,116.205"></polygon></g><g><polygon points="164.43,115.08500000000001 166.18,115.08500000000001 166.18,114.785 164.43,114.785 164.43,115.08500000000001"></polygon><circle cx="164.43" cy="115.08500000000001" r="0.15"></circle><circle cx="166.18" cy="115.08500000000001" r="0.15"></circle><circle cx="166.18" cy="114.785" r="0.15"></circle><circle cx="164.43" cy="114.785" r="0.15"></circle><polygon points="164.58,115.08500000000001 166.33,115.08500000000001 166.03,115.08500000000001 164.28,115.08500000000001"></polygon><polygon points="166.18,115.235 166.18,114.935 166.18,114.635 166.18,114.935"></polygon><polygon points="166.03,114.785 164.28,114.785 164.58,114.785 166.33,114.785"></polygon><polygon points="164.43,114.635 164.43,114.935 164.43,115.235 164.43,114.935"></polygon></g><g><polygon points="164.43,113.81500000000001 166.18,113.81500000000001 166.18,113.515 164.43,113.515 164.43,113.81500000000001"></polygon><circle cx="164.43" cy="113.81500000000001" r="0.15"></circle><circle cx="166.18" cy="113.81500000000001" r="0.15"></circle><circle cx="166.18" cy="113.515" r="0.15"></circle><circle cx="164.43" cy="113.515" r="0.15"></circle><polygon points="164.58,113.81500000000001 166.33,113.81500000000001 166.03,113.81500000000001 164.28,113.81500000000001"></polygon><polygon points="166.18,113.965 166.18,113.665 166.18,113.36500000000001 166.18,113.665"></polygon><polygon points="166.03,113.515 164.28,113.515 164.58,113.515 166.33,113.515"></polygon><polygon points="164.43,113.36500000000001 164.43,113.665 164.43,113.965 164.43,113.665"></polygon></g><g><polygon points="164.43,112.545 166.18,112.545 166.18,112.24499999999999 164.43,112.24499999999999 164.43,112.545"></polygon><circle cx="164.43" cy="112.545" r="0.15"></circle><circle cx="166.18" cy="112.545" r="0.15"></circle><circle cx="166.18" cy="112.24499999999999" r="0.15"></circle><circle cx="164.43" cy="112.24499999999999" r="0.15"></circle><polygon points="164.58,112.545 166.33,112.545 166.03,112.545 164.28,112.545"></polygon><polygon points="166.18,112.695 166.18,112.395 166.18,112.095 166.18,112.395"></polygon><polygon points="166.03,112.24499999999999 164.28,112.24499999999999 164.58,112.24499999999999 166.33,112.24499999999999"></polygon><polygon points="164.43,112.095 164.43,112.395 164.43,112.695 164.43,112.395"></polygon></g><g><polygon points="164.43,111.275 166.18,111.275 166.18,110.975 164.43,110.975 164.43,111.275"></polygon><circle cx="164.43" cy="111.275" r="0.15"></circle><circle cx="166.18" cy="111.275" r="0.15"></circle><circle cx="166.18" cy="110.975" r="0.15"></circle><circle cx="164.43" cy="110.975" r="0.15"></circle><polygon points="164.58,111.275 166.33,111.275 166.03,111.275 164.28,111.275"></polygon><polygon points="166.18,111.425 166.18,111.125 166.18,110.825 166.18,111.125"></polygon><polygon points="166.03,110.975 164.28,110.975 164.58,110.975 166.33,110.975"></polygon><polygon points="164.43,110.825 164.43,111.125 164.43,111.425 164.43,111.125"></polygon></g><g><polygon points="164.43,110.00500000000001 166.18,110.00500000000001 166.18,109.705 164.43,109.705 164.43,110.00500000000001"></polygon><circle cx="164.43" cy="110.00500000000001" r="0.15"></circle><circle cx="166.18" cy="110.00500000000001" r="0.15"></circle><circle cx="166.18" cy="109.705" r="0.15"></circle><circle cx="164.43" cy="109.705" r="0.15"></circle><polygon points="164.58,110.00500000000001 166.33,110.00500000000001 166.03,110.00500000000001 164.28,110.00500000000001"></polygon><polygon points="166.18,110.155 166.18,109.855 166.18,109.555 166.18,109.855"></polygon><polygon points="166.03,109.705 164.28,109.705 164.58,109.705 166.33,109.705"></polygon><polygon points="164.43,109.555 164.43,109.855 164.43,110.155 164.43,109.855"></polygon></g><circle cx="132.588" cy="112.554" r="0.756"></circle><circle cx="132.588" cy="114.554" r="0.756"></circle><circle cx="132.588" cy="116.554" r="0.756"></circle><circle cx="132.588" cy="109.704" r="1.227"></circle><circle cx="132.588" cy="119.404" r="1.227"></circle><g><polygon points="139.374999,93.24600099999999 140.27500099999997,93.24600099999999 140.27500099999997,90.395999 139.374999,90.395999 139.374999,93.24600099999999"></polygon><circle cx="139.374999" cy="93.24600099999999" r="0.249999"></circle><circle cx="140.27500099999997" cy="93.24600099999999" r="0.249999"></circle><circle cx="140.27500099999997" cy="90.395999" r="0.249999"></circle><circle cx="139.374999" cy="90.395999" r="0.249999"></circle><polygon points="139.62499799999998,93.24600099999999 140.52499999999998,93.24600099999999 140.025002,93.24600099999999 139.125,93.24600099999999"></polygon><polygon points="140.27500099999997,93.496 140.27500099999997,90.64599799999999 140.27500099999997,90.146 140.27500099999997,92.996002"></polygon><polygon points="140.025002,90.395999 139.125,90.395999 139.62499799999998,90.395999 140.52499999999998,90.395999"></polygon><polygon points="139.374999,90.146 139.374999,92.996002 139.374999,93.496 139.374999,90.64599799999999"></polygon></g><g><polygon points="145.47499900000003,93.24600099999999 146.375001,93.24600099999999 146.375001,90.395999 145.47499900000003,90.395999 145.47499900000003,93.24600099999999"></polygon><circle cx="145.47499900000003" cy="93.24600099999999" r="0.249999"></circle><circle cx="146.375001" cy="93.24600099999999" r="0.249999"></circle><circle cx="146.375001" cy="90.395999" r="0.249999"></circle><circle cx="145.47499900000003" cy="90.395999" r="0.249999"></circle><polygon points="145.724998,93.24600099999999 146.625,93.24600099999999 146.12500200000002,93.24600099999999 145.22500000000002,93.24600099999999"></polygon><polygon points="146.375001,93.496 146.375001,90.64599799999999 146.375001,90.146 146.375001,92.996002"></polygon><polygon points="146.12500200000002,90.395999 145.22500000000002,90.395999 145.724998,90.395999 146.625,90.395999"></polygon><polygon points="145.47499900000003,90.146 145.47499900000003,92.996002 145.47499900000003,93.496 145.47499900000003,90.64599799999999"></polygon></g><circle cx="152.527" cy="84.963" r="1.1"></circle><g><polygon points="141.826,115.67500000000001 141.826,115 140.876,115 140.876,115.67500000000001 141.826,115.67500000000001"></polygon><circle cx="141.826" cy="115.67500000000001" r="0.25"></circle><circle cx="141.826" cy="115" r="0.25"></circle><circle cx="140.876" cy="115" r="0.25"></circle><circle cx="140.876" cy="115.67500000000001" r="0.25"></circle><polygon points="141.826,115.92500000000001 141.826,115.25 141.826,114.75 141.826,115.42500000000001"></polygon><polygon points="141.576,115 140.626,115 141.126,115 142.076,115"></polygon><polygon points="140.876,114.75 140.876,115.42500000000001 140.876,115.92500000000001 140.876,115.25"></polygon><polygon points="141.126,115.67500000000001 142.076,115.67500000000001 141.576,115.67500000000001 140.626,115.67500000000001"></polygon></g><g><polygon points="141.826,113.60000000000001 141.826,112.925 140.876,112.925 140.876,113.60000000000001 141.826,113.60000000000001"></polygon><circle cx="141.826" cy="113.60000000000001" r="0.25"></circle><circle cx="141.826" cy="112.925" r="0.25"></circle><circle cx="140.876" cy="112.925" r="0.25"></circle><circle cx="140.876" cy="113.60000000000001" r="0.25"></circle><polygon points="141.826,113.85000000000001 141.826,113.175 141.826,112.675 141.826,113.35000000000001"></polygon><polygon points="141.576,112.925 140.626,112.925 141.126,112.925 142.076,112.925"></polygon><polygon points="140.876,112.675 140.876,113.35000000000001 140.876,113.85000000000001 140.876,113.175"></polygon><polygon points="141.126,113.60000000000001 142.076,113.60000000000001 141.576,113.60000000000001 140.626,113.60000000000001"></polygon></g><g><polygon points="144.711,111.807 144.711,112.50699999999999 145.611,112.50699999999999 145.611,111.807 144.711,111.807"></polygon><circle cx="144.711" cy="111.807" r="0.25"></circle><circle cx="144.711" cy="112.50699999999999" r="0.25"></circle><circle cx="145.611" cy="112.50699999999999" r="0.25"></circle><circle cx="145.611" cy="111.807" r="0.25"></circle><polygon points="144.711,111.557 144.711,112.25699999999999 144.711,112.75699999999999 144.711,112.057"></polygon><polygon points="144.961,112.50699999999999 145.861,112.50699999999999 145.361,112.50699999999999 144.461,112.50699999999999"></polygon><polygon points="145.611,112.75699999999999 145.611,112.057 145.611,111.557 145.611,112.25699999999999"></polygon><polygon points="145.361,111.807 144.461,111.807 144.961,111.807 145.861,111.807"></polygon></g><g><polygon points="144.711,113.807 144.711,114.50699999999999 145.611,114.50699999999999 145.611,113.807 144.711,113.807"></polygon><circle cx="144.711" cy="113.807" r="0.25"></circle><circle cx="144.711" cy="114.50699999999999" r="0.25"></circle><circle cx="145.611" cy="114.50699999999999" r="0.25"></circle><circle cx="145.611" cy="113.807" r="0.25"></circle><polygon points="144.711,113.557 144.711,114.25699999999999 144.711,114.75699999999999 144.711,114.057"></polygon><polygon points="144.961,114.50699999999999 145.861,114.50699999999999 145.361,114.50699999999999 144.461,114.50699999999999"></polygon><polygon points="145.611,114.75699999999999 145.611,114.057 145.611,113.557 145.611,114.25699999999999"></polygon><polygon points="145.361,113.807 144.461,113.807 144.961,113.807 145.861,113.807"></polygon></g><g><polygon points="166.31199999999998,107.395 166.31199999999998,106.69500000000001 165.412,106.69500000000001 165.412,107.395 166.31199999999998,107.395"></polygon><circle cx="166.31199999999998" cy="107.395" r="0.25"></circle><circle cx="166.31199999999998" cy="106.69500000000001" r="0.25"></circle><circle cx="165.412" cy="106.69500000000001" r="0.25"></circle><circle cx="165.412" cy="107.395" r="0.25"></circle><polygon points="166.31199999999998,107.645 166.31199999999998,106.94500000000001 166.31199999999998,106.44500000000001 166.31199999999998,107.145"></polygon><polygon points="166.06199999999998,106.69500000000001 165.162,106.69500000000001 165.662,106.69500000000001 166.56199999999998,106.69500000000001"></polygon><polygon points="165.412,106.44500000000001 165.412,107.145 165.412,107.645 165.412,106.94500000000001"></polygon><polygon points="165.662,107.395 166.56199999999998,107.395 166.06199999999998,107.395 165.162,107.395"></polygon></g><g><polygon points="166.31199999999998,105.395 166.31199999999998,104.69500000000001 165.412,104.69500000000001 165.412,105.395 166.31199999999998,105.395"></polygon><circle cx="166.31199999999998" cy="105.395" r="0.25"></circle><circle cx="166.31199999999998" cy="104.69500000000001" r="0.25"></circle><circle cx="165.412" cy="104.69500000000001" r="0.25"></circle><circle cx="165.412" cy="105.395" r="0.25"></circle><polygon points="166.31199999999998,105.645 166.31199999999998,104.94500000000001 166.31199999999998,104.44500000000001 166.31199999999998,105.145"></polygon><polygon points="166.06199999999998,104.69500000000001 165.162,104.69500000000001 165.662,104.69500000000001 166.56199999999998,104.69500000000001"></polygon><polygon points="165.412,104.44500000000001 165.412,105.145 165.412,105.645 165.412,104.94500000000001"></polygon><polygon points="165.662,105.395 166.56199999999998,105.395 166.06199999999998,105.395 165.162,105.395"></polygon></g><rect x="134.221599" y="104.381999" width="1" height="1"></rect><rect x="134.221599" y="101.881999" width="1" height="1"></rect><rect x="145.785999" y="118.171999" width="0.65" height="1.56"></rect><rect x="143.885999" y="118.171999" width="0.65" height="1.56"></rect><rect x="143.885999" y="115.471999" width="0.65" height="1.56"></rect><rect x="144.83599900000002" y="115.471999" width="0.65" height="1.56"></rect><rect x="145.785999" y="115.471999" width="0.65" height="1.56"></rect><circle cx="168.529" cy="98.425" r="1.1"></circle><g><polygon points="149.446,103.61 149.446,102.93499999999999 148.496,102.93499999999999 148.496,103.61 149.446,103.61"></polygon><circle cx="149.446" cy="103.61" r="0.25"></circle><circle cx="149.446" cy="102.93499999999999" r="0.25"></circle><circle cx="148.496" cy="102.93499999999999" r="0.25"></circle><circle cx="148.496" cy="103.61" r="0.25"></circle><polygon points="149.446,103.86 149.446,103.18499999999999 149.446,102.68499999999999 149.446,103.36"></polygon><polygon points="149.196,102.93499999999999 148.246,102.93499999999999 148.746,102.93499999999999 149.696,102.93499999999999"></polygon><polygon points="148.496,102.68499999999999 148.496,103.36 148.496,103.86 148.496,103.18499999999999"></polygon><polygon points="148.746,103.61 149.696,103.61 149.196,103.61 148.246,103.61"></polygon></g><g><polygon points="149.446,101.53500000000001 149.446,100.86 148.496,100.86 148.496,101.53500000000001 149.446,101.53500000000001"></polygon><circle cx="149.446" cy="101.53500000000001" r="0.25"></circle><circle cx="149.446" cy="100.86" r="0.25"></circle><circle cx="148.496" cy="100.86" r="0.25"></circle><circle cx="148.496" cy="101.53500000000001" r="0.25"></circle><polygon points="149.446,101.78500000000001 149.446,101.11 149.446,100.61 149.446,101.28500000000001"></polygon><polygon points="149.196,100.86 148.246,100.86 148.746,100.86 149.696,100.86"></polygon><polygon points="148.496,100.61 148.496,101.28500000000001 148.496,101.78500000000001 148.496,101.11"></polygon><polygon points="148.746,101.53500000000001 149.696,101.53500000000001 149.196,101.53500000000001 148.246,101.53500000000001"></polygon></g><g><polygon points="152.96,74.58600000000001 151.76000000000002,74.58600000000001 151.76000000000002,76.036 152.96,76.036 152.96,74.58600000000001"></polygon><circle cx="152.96" cy="74.58600000000001" r="0.25"></circle><circle cx="151.76000000000002" cy="74.58600000000001" r="0.25"></circle><circle cx="151.76000000000002" cy="76.036" r="0.25"></circle><circle cx="152.96" cy="76.036" r="0.25"></circle><polygon points="152.71,74.58600000000001 151.51000000000002,74.58600000000001 152.01000000000002,74.58600000000001 153.21,74.58600000000001"></polygon><polygon points="151.76000000000002,74.33600000000001 151.76000000000002,75.786 151.76000000000002,76.286 151.76000000000002,74.83600000000001"></polygon><polygon points="152.01000000000002,76.036 153.21,76.036 152.71,76.036 151.51000000000002,76.036"></polygon><polygon points="152.96,76.286 152.96,74.83600000000001 152.96,74.33600000000001 152.96,75.786"></polygon></g><rect x="149.009999" y="74.33599899999999" width="1.7" height="1.95" rx="0.85" ry="0.85"></rect><rect x="146.509999" y="74.33599899999999" width="1.7" height="1.95" rx="0.85" ry="0.85"></rect><g><polygon points="134.145,87.05000000000001 134.145,88.25 135.645,88.25 135.645,87.05000000000001 134.145,87.05000000000001"></polygon><circle cx="134.145" cy="87.05000000000001" r="0.25"></circle><circle cx="134.145" cy="88.25" r="0.25"></circle><circle cx="135.645" cy="88.25" r="0.25"></circle><circle cx="135.645" cy="87.05000000000001" r="0.25"></circle><polygon points="134.145,86.80000000000001 134.145,88 134.145,88.5 134.145,87.30000000000001"></polygon><polygon points="134.395,88.25 135.895,88.25 135.395,88.25 133.895,88.25"></polygon><polygon points="135.645,88.5 135.645,87.30000000000001 135.645,86.80000000000001 135.645,88"></polygon><polygon points="135.395,87.05000000000001 133.895,87.05000000000001 134.395,87.05000000000001 135.895,87.05000000000001"></polygon></g><rect x="133.894999" y="89.29999899999999" width="2" height="1.7" rx="0.85" ry="0.85"></rect><rect x="151.000599" y="113.803999" width="1" height="1.5"></rect><rect x="149.700599" y="113.803999" width="1" height="1.5"></rect><rect x="148.485999" y="121.550999" width="1" height="1.5"></rect><rect x="147.185999" y="121.550999" width="1" height="1.5"></rect><g><polygon points="139.826,69.955 139.52599999999998,69.955 139.52599999999998,71.205 139.826,71.205 139.826,69.955"></polygon><circle cx="139.826" cy="69.955" r="0.15"></circle><circle cx="139.52599999999998" cy="69.955" r="0.15"></circle><circle cx="139.52599999999998" cy="71.205" r="0.15"></circle><circle cx="139.826" cy="71.205" r="0.15"></circle><polygon points="139.676,69.955 139.37599999999998,69.955 139.676,69.955 139.976,69.955"></polygon><polygon points="139.52599999999998,69.80499999999999 139.52599999999998,71.05499999999999 139.52599999999998,71.355 139.52599999999998,70.105"></polygon><polygon points="139.676,71.205 139.976,71.205 139.676,71.205 139.37599999999998,71.205"></polygon><polygon points="139.826,71.355 139.826,70.105 139.826,69.80499999999999 139.826,71.05499999999999"></polygon></g><g><polygon points="138.826,69.955 138.52599999999998,69.955 138.52599999999998,71.205 138.826,71.205 138.826,69.955"></polygon><circle cx="138.826" cy="69.955" r="0.15"></circle><circle cx="138.52599999999998" cy="69.955" r="0.15"></circle><circle cx="138.52599999999998" cy="71.205" r="0.15"></circle><circle cx="138.826" cy="71.205" r="0.15"></circle><polygon points="138.676,69.955 138.37599999999998,69.955 138.676,69.955 138.976,69.955"></polygon><polygon points="138.52599999999998,69.80499999999999 138.52599999999998,71.05499999999999 138.52599999999998,71.355 138.52599999999998,70.105"></polygon><polygon points="138.676,71.205 138.976,71.205 138.676,71.205 138.37599999999998,71.205"></polygon><polygon points="138.826,71.355 138.826,70.105 138.826,69.80499999999999 138.826,71.05499999999999"></polygon></g><g><polygon points="137.826,69.955 137.52599999999998,69.955 137.52599999999998,71.205 137.826,71.205 137.826,69.955"></polygon><circle cx="137.826" cy="69.955" r="0.15"></circle><circle cx="137.52599999999998" cy="69.955" r="0.15"></circle><circle cx="137.52599999999998" cy="71.205" r="0.15"></circle><circle cx="137.826" cy="71.205" r="0.15"></circle><polygon points="137.676,69.955 137.37599999999998,69.955 137.676,69.955 137.976,69.955"></polygon><polygon points="137.52599999999998,69.80499999999999 137.52599999999998,71.05499999999999 137.52599999999998,71.355 137.52599999999998,70.105"></polygon><polygon points="137.676,71.205 137.976,71.205 137.676,71.205 137.37599999999998,71.205"></polygon><polygon points="137.826,71.355 137.826,70.105 137.826,69.80499999999999 137.826,71.05499999999999"></polygon></g><g><polygon points="136.826,69.955 136.52599999999998,69.955 136.52599999999998,71.205 136.826,71.205 136.826,69.955"></polygon><circle cx="136.826" cy="69.955" r="0.15"></circle><circle cx="136.52599999999998" cy="69.955" r="0.15"></circle><circle cx="136.52599999999998" cy="71.205" r="0.15"></circle><circle cx="136.826" cy="71.205" r="0.15"></circle><polygon points="136.676,69.955 136.37599999999998,69.955 136.676,69.955 136.976,69.955"></polygon><polygon points="136.52599999999998,69.80499999999999 136.52599999999998,71.05499999999999 136.52599999999998,71.355 136.52599999999998,70.105"></polygon><polygon points="136.676,71.205 136.976,71.205 136.676,71.205 136.37599999999998,71.205"></polygon><polygon points="136.826,71.355 136.826,70.105 136.826,69.80499999999999 136.826,71.05499999999999"></polygon></g><g><polygon points="141.326,66.05499999999999 140.626,66.05499999999999 140.626,67.355 141.326,67.355 141.326,66.05499999999999"></polygon><circle cx="141.326" cy="66.05499999999999" r="0.25"></circle><circle cx="140.626" cy="66.05499999999999" r="0.25"></circle><circle cx="140.626" cy="67.355" r="0.25"></circle><circle cx="141.326" cy="67.355" r="0.25"></circle><polygon points="141.076,66.05499999999999 140.376,66.05499999999999 140.876,66.05499999999999 141.576,66.05499999999999"></polygon><polygon points="140.626,65.80499999999999 140.626,67.105 140.626,67.605 140.626,66.30499999999999"></polygon><polygon points="140.876,67.355 141.576,67.355 141.076,67.355 140.376,67.355"></polygon><polygon points="141.326,67.605 141.326,66.30499999999999 141.326,65.80499999999999 141.326,67.105"></polygon></g><g><polygon points="135.726,66.05499999999999 135.026,66.05499999999999 135.026,67.355 135.726,67.355 135.726,66.05499999999999"></polygon><circle cx="135.726" cy="66.05499999999999" r="0.25"></circle><circle cx="135.026" cy="66.05499999999999" r="0.25"></circle><circle cx="135.026" cy="67.355" r="0.25"></circle><circle cx="135.726" cy="67.355" r="0.25"></circle><polygon points="135.476,66.05499999999999 134.776,66.05499999999999 135.276,66.05499999999999 135.976,66.05499999999999"></polygon><polygon points="135.026,65.80499999999999 135.026,67.105 135.026,67.605 135.026,66.30499999999999"></polygon><polygon points="135.276,67.355 135.976,67.355 135.476,67.355 134.776,67.355"></polygon><polygon points="135.726,67.605 135.726,66.30499999999999 135.726,65.80499999999999 135.726,67.105"></polygon></g><g><polygon points="144.377,125.25500000000001 143.702,125.25500000000001 143.702,126.205 144.377,126.205 144.377,125.25500000000001"></polygon><circle cx="144.377" cy="125.25500000000001" r="0.25"></circle><circle cx="143.702" cy="125.25500000000001" r="0.25"></circle><circle cx="143.702" cy="126.205" r="0.25"></circle><circle cx="144.377" cy="126.205" r="0.25"></circle><polygon points="144.127,125.25500000000001 143.452,125.25500000000001 143.952,125.25500000000001 144.627,125.25500000000001"></polygon><polygon points="143.702,125.00500000000001 143.702,125.955 143.702,126.455 143.702,125.50500000000001"></polygon><polygon points="143.952,126.205 144.627,126.205 144.127,126.205 143.452,126.205"></polygon><polygon points="144.377,126.455 144.377,125.50500000000001 144.377,125.00500000000001 144.377,125.955"></polygon></g><g><polygon points="142.302,125.25500000000001 141.62699999999998,125.25500000000001 141.62699999999998,126.205 142.302,126.205 142.302,125.25500000000001"></polygon><circle cx="142.302" cy="125.25500000000001" r="0.25"></circle><circle cx="141.62699999999998" cy="125.25500000000001" r="0.25"></circle><circle cx="141.62699999999998" cy="126.205" r="0.25"></circle><circle cx="142.302" cy="126.205" r="0.25"></circle><polygon points="142.052,125.25500000000001 141.37699999999998,125.25500000000001 141.87699999999998,125.25500000000001 142.552,125.25500000000001"></polygon><polygon points="141.62699999999998,125.00500000000001 141.62699999999998,125.955 141.62699999999998,126.455 141.62699999999998,125.50500000000001"></polygon><polygon points="141.87699999999998,126.205 142.552,126.205 142.052,126.205 141.37699999999998,126.205"></polygon><polygon points="142.302,126.455 142.302,125.50500000000001 142.302,125.00500000000001 142.302,125.955"></polygon></g><g><polygon points="142.39000000000001,107.186 142.39000000000001,105.536 142.09,105.536 142.09,107.186 142.39000000000001,107.186"></polygon><circle cx="142.39000000000001" cy="107.186" r="0.15"></circle><circle cx="142.39000000000001" cy="105.536" r="0.15"></circle><circle cx="142.09" cy="105.536" r="0.15"></circle><circle cx="142.09" cy="107.186" r="0.15"></circle><polygon points="142.39000000000001,107.336 142.39000000000001,105.686 142.39000000000001,105.38600000000001 142.39000000000001,107.036"></polygon><polygon points="142.24,105.536 141.94,105.536 142.24,105.536 142.54000000000002,105.536"></polygon><polygon points="142.09,105.38600000000001 142.09,107.036 142.09,107.336 142.09,105.686"></polygon><polygon points="142.24,107.186 142.54000000000002,107.186 142.24,107.186 141.94,107.186"></polygon></g><g><polygon points="143.66,107.186 143.66,105.536 143.35999999999999,105.536 143.35999999999999,107.186 143.66,107.186"></polygon><circle cx="143.66" cy="107.186" r="0.15"></circle><circle cx="143.66" cy="105.536" r="0.15"></circle><circle cx="143.35999999999999" cy="105.536" r="0.15"></circle><circle cx="143.35999999999999" cy="107.186" r="0.15"></circle><polygon points="143.66,107.336 143.66,105.686 143.66,105.38600000000001 143.66,107.036"></polygon><polygon points="143.51,105.536 143.20999999999998,105.536 143.51,105.536 143.81,105.536"></polygon><polygon points="143.35999999999999,105.38600000000001 143.35999999999999,107.036 143.35999999999999,107.336 143.35999999999999,105.686"></polygon><polygon points="143.51,107.186 143.81,107.186 143.51,107.186 143.20999999999998,107.186"></polygon></g><g><polygon points="144.93,107.186 144.93,105.536 144.63,105.536 144.63,107.186 144.93,107.186"></polygon><circle cx="144.93" cy="107.186" r="0.15"></circle><circle cx="144.93" cy="105.536" r="0.15"></circle><circle cx="144.63" cy="105.536" r="0.15"></circle><circle cx="144.63" cy="107.186" r="0.15"></circle><polygon points="144.93,107.336 144.93,105.686 144.93,105.38600000000001 144.93,107.036"></polygon><polygon points="144.78,105.536 144.48,105.536 144.78,105.536 145.08,105.536"></polygon><polygon points="144.63,105.38600000000001 144.63,107.036 144.63,107.336 144.63,105.686"></polygon><polygon points="144.78,107.186 145.08,107.186 144.78,107.186 144.48,107.186"></polygon></g><g><polygon points="146.20000000000002,107.186 146.20000000000002,105.536 145.9,105.536 145.9,107.186 146.20000000000002,107.186"></polygon><circle cx="146.20000000000002" cy="107.186" r="0.15"></circle><circle cx="146.20000000000002" cy="105.536" r="0.15"></circle><circle cx="145.9" cy="105.536" r="0.15"></circle><circle cx="145.9" cy="107.186" r="0.15"></circle><polygon points="146.20000000000002,107.336 146.20000000000002,105.686 146.20000000000002,105.38600000000001 146.20000000000002,107.036"></polygon><polygon points="146.05,105.536 145.75,105.536 146.05,105.536 146.35000000000002,105.536"></polygon><polygon points="145.9,105.38600000000001 145.9,107.036 145.9,107.336 145.9,105.686"></polygon><polygon points="146.05,107.186 146.35000000000002,107.186 146.05,107.186 145.75,107.186"></polygon></g><g><polygon points="146.20000000000002,102.236 146.20000000000002,100.586 145.9,100.586 145.9,102.236 146.20000000000002,102.236"></polygon><circle cx="146.20000000000002" cy="102.236" r="0.15"></circle><circle cx="146.20000000000002" cy="100.586" r="0.15"></circle><circle cx="145.9" cy="100.586" r="0.15"></circle><circle cx="145.9" cy="102.236" r="0.15"></circle><polygon points="146.20000000000002,102.386 146.20000000000002,100.736 146.20000000000002,100.436 146.20000000000002,102.086"></polygon><polygon points="146.05,100.586 145.75,100.586 146.05,100.586 146.35000000000002,100.586"></polygon><polygon points="145.9,100.436 145.9,102.086 145.9,102.386 145.9,100.736"></polygon><polygon points="146.05,102.236 146.35000000000002,102.236 146.05,102.236 145.75,102.236"></polygon></g><g><polygon points="144.93,102.236 144.93,100.586 144.63,100.586 144.63,102.236 144.93,102.236"></polygon><circle cx="144.93" cy="102.236" r="0.15"></circle><circle cx="144.93" cy="100.586" r="0.15"></circle><circle cx="144.63" cy="100.586" r="0.15"></circle><circle cx="144.63" cy="102.236" r="0.15"></circle><polygon points="144.93,102.386 144.93,100.736 144.93,100.436 144.93,102.086"></polygon><polygon points="144.78,100.586 144.48,100.586 144.78,100.586 145.08,100.586"></polygon><polygon points="144.63,100.436 144.63,102.086 144.63,102.386 144.63,100.736"></polygon><polygon points="144.78,102.236 145.08,102.236 144.78,102.236 144.48,102.236"></polygon></g><g><polygon points="143.66,102.236 143.66,100.586 143.35999999999999,100.586 143.35999999999999,102.236 143.66,102.236"></polygon><circle cx="143.66" cy="102.236" r="0.15"></circle><circle cx="143.66" cy="100.586" r="0.15"></circle><circle cx="143.35999999999999" cy="100.586" r="0.15"></circle><circle cx="143.35999999999999" cy="102.236" r="0.15"></circle><polygon points="143.66,102.386 143.66,100.736 143.66,100.436 143.66,102.086"></polygon><polygon points="143.51,100.586 143.20999999999998,100.586 143.51,100.586 143.81,100.586"></polygon><polygon points="143.35999999999999,100.436 143.35999999999999,102.086 143.35999999999999,102.386 143.35999999999999,100.736"></polygon><polygon points="143.51,102.236 143.81,102.236 143.51,102.236 143.20999999999998,102.236"></polygon></g><g><polygon points="142.39000000000001,102.236 142.39000000000001,100.586 142.09,100.586 142.09,102.236 142.39000000000001,102.236"></polygon><circle cx="142.39000000000001" cy="102.236" r="0.15"></circle><circle cx="142.39000000000001" cy="100.586" r="0.15"></circle><circle cx="142.09" cy="100.586" r="0.15"></circle><circle cx="142.09" cy="102.236" r="0.15"></circle><polygon points="142.39000000000001,102.386 142.39000000000001,100.736 142.39000000000001,100.436 142.39000000000001,102.086"></polygon><polygon points="142.24,100.586 141.94,100.586 142.24,100.586 142.54000000000002,100.586"></polygon><polygon points="142.09,100.436 142.09,102.086 142.09,102.386 142.09,100.736"></polygon><polygon points="142.24,102.236 142.54000000000002,102.236 142.24,102.236 141.94,102.236"></polygon></g><rect x="148.485999" y="124.090999" width="1" height="1.5"></rect><rect x="147.185999" y="124.090999" width="1" height="1.5"></rect><rect x="126.657999" y="105.18999899999999" width="1.7" height="1.7"></rect><rect x="126.657999" y="102.649999" width="1.7" height="1.7" rx="0.85" ry="0.85"></rect><rect x="126.657999" y="100.10999899999999" width="1.7" height="1.7" rx="0.85" ry="0.85"></rect><rect x="126.657999" y="97.569999" width="1.7" height="1.7" rx="0.85" ry="0.85"></rect><rect x="126.657999" y="95.02999899999999" width="1.7" height="1.7" rx="0.85" ry="0.85"></rect><circle cx="169.418" cy="84.074" r="0.762"></circle><circle cx="169.418" cy="86.614" r="0.762"></circle><circle cx="169.418" cy="89.154" r="0.762"></circle><circle cx="169.418" cy="91.694" r="0.762"></circle><circle cx="169.418" cy="94.234" r="0.762"></circle><circle cx="166.878" cy="94.234" r="0.762"></circle><rect x="137.425999" y="116.735999" width="1.5" height="1"></rect><rect x="137.425999" y="115.435999" width="1.5" height="1"></rect><g><polygon points="139.377,94.53500000000001 139.377,95.235 140.277,95.235 140.277,94.53500000000001 139.377,94.53500000000001"></polygon><circle cx="139.377" cy="94.53500000000001" r="0.25"></circle><circle cx="139.377" cy="95.235" r="0.25"></circle><circle cx="140.277" cy="95.235" r="0.25"></circle><circle cx="140.277" cy="94.53500000000001" r="0.25"></circle><polygon points="139.377,94.28500000000001 139.377,94.985 139.377,95.485 139.377,94.78500000000001"></polygon><polygon points="139.627,95.235 140.527,95.235 140.027,95.235 139.127,95.235"></polygon><polygon points="140.277,95.485 140.277,94.78500000000001 140.277,94.28500000000001 140.277,94.985"></polygon><polygon points="140.027,94.53500000000001 139.127,94.53500000000001 139.627,94.53500000000001 140.527,94.53500000000001"></polygon></g><g><polygon points="139.377,96.53500000000001 139.377,97.235 140.277,97.235 140.277,96.53500000000001 139.377,96.53500000000001"></polygon><circle cx="139.377" cy="96.53500000000001" r="0.25"></circle><circle cx="139.377" cy="97.235" r="0.25"></circle><circle cx="140.277" cy="97.235" r="0.25"></circle><circle cx="140.277" cy="96.53500000000001" r="0.25"></circle><polygon points="139.377,96.28500000000001 139.377,96.985 139.377,97.485 139.377,96.78500000000001"></polygon><polygon points="139.627,97.235 140.527,97.235 140.027,97.235 139.127,97.235"></polygon><polygon points="140.277,97.485 140.277,96.78500000000001 140.277,96.28500000000001 140.277,96.985"></polygon><polygon points="140.027,96.53500000000001 139.127,96.53500000000001 139.627,96.53500000000001 140.527,96.53500000000001"></polygon></g><g><polygon points="147.734,116.22699999999999 147.734,116.902 148.684,116.902 148.684,116.22699999999999 147.734,116.22699999999999"></polygon><circle cx="147.734" cy="116.22699999999999" r="0.25"></circle><circle cx="147.734" cy="116.902" r="0.25"></circle><circle cx="148.684" cy="116.902" r="0.25"></circle><circle cx="148.684" cy="116.22699999999999" r="0.25"></circle><polygon points="147.734,115.97699999999999 147.734,116.652 147.734,117.152 147.734,116.47699999999999"></polygon><polygon points="147.984,116.902 148.934,116.902 148.434,116.902 147.484,116.902"></polygon><polygon points="148.684,117.152 148.684,116.47699999999999 148.684,115.97699999999999 148.684,116.652"></polygon><polygon points="148.434,116.22699999999999 147.484,116.22699999999999 147.984,116.22699999999999 148.934,116.22699999999999"></polygon></g><g><polygon points="147.734,118.30199999999999 147.734,118.977 148.684,118.977 148.684,118.30199999999999 147.734,118.30199999999999"></polygon><circle cx="147.734" cy="118.30199999999999" r="0.25"></circle><circle cx="147.734" cy="118.977" r="0.25"></circle><circle cx="148.684" cy="118.977" r="0.25"></circle><circle cx="148.684" cy="118.30199999999999" r="0.25"></circle><polygon points="147.734,118.05199999999999 147.734,118.727 147.734,119.227 147.734,118.55199999999999"></polygon><polygon points="147.984,118.977 148.934,118.977 148.434,118.977 147.484,118.977"></polygon><polygon points="148.684,119.227 148.684,118.55199999999999 148.684,118.05199999999999 148.684,118.727"></polygon><polygon points="148.434,118.30199999999999 147.484,118.30199999999999 147.984,118.30199999999999 148.934,118.30199999999999"></polygon></g><g><polygon points="163.391,107.395 163.391,106.69500000000001 162.491,106.69500000000001 162.491,107.395 163.391,107.395"></polygon><circle cx="163.391" cy="107.395" r="0.25"></circle><circle cx="163.391" cy="106.69500000000001" r="0.25"></circle><circle cx="162.491" cy="106.69500000000001" r="0.25"></circle><circle cx="162.491" cy="107.395" r="0.25"></circle><polygon points="163.391,107.645 163.391,106.94500000000001 163.391,106.44500000000001 163.391,107.145"></polygon><polygon points="163.141,106.69500000000001 162.241,106.69500000000001 162.741,106.69500000000001 163.641,106.69500000000001"></polygon><polygon points="162.491,106.44500000000001 162.491,107.145 162.491,107.645 162.491,106.94500000000001"></polygon><polygon points="162.741,107.395 163.641,107.395 163.141,107.395 162.241,107.395"></polygon></g><g><polygon points="163.391,105.395 163.391,104.69500000000001 162.491,104.69500000000001 162.491,105.395 163.391,105.395"></polygon><circle cx="163.391" cy="105.395" r="0.25"></circle><circle cx="163.391" cy="104.69500000000001" r="0.25"></circle><circle cx="162.491" cy="104.69500000000001" r="0.25"></circle><circle cx="162.491" cy="105.395" r="0.25"></circle><polygon points="163.391,105.645 163.391,104.94500000000001 163.391,104.44500000000001 163.391,105.145"></polygon><polygon points="163.141,104.69500000000001 162.241,104.69500000000001 162.741,104.69500000000001 163.641,104.69500000000001"></polygon><polygon points="162.491,104.44500000000001 162.491,105.145 162.491,105.645 162.491,104.94500000000001"></polygon><polygon points="162.741,105.395 163.641,105.395 163.141,105.395 162.241,105.395"></polygon></g><g><polygon points="134.145,76.89 134.145,78.08999999999999 135.645,78.08999999999999 135.645,76.89 134.145,76.89"></polygon><circle cx="134.145" cy="76.89" r="0.25"></circle><circle cx="134.145" cy="78.08999999999999" r="0.25"></circle><circle cx="135.645" cy="78.08999999999999" r="0.25"></circle><circle cx="135.645" cy="76.89" r="0.25"></circle><polygon points="134.145,76.64 134.145,77.83999999999999 134.145,78.33999999999999 134.145,77.14"></polygon><polygon points="134.395,78.08999999999999 135.895,78.08999999999999 135.395,78.08999999999999 133.895,78.08999999999999"></polygon><polygon points="135.645,78.33999999999999 135.645,77.14 135.645,76.64 135.645,77.83999999999999"></polygon><polygon points="135.395,76.89 133.895,76.89 134.395,76.89 135.895,76.89"></polygon></g><rect x="133.894999" y="79.13999899999999" width="2" height="1.7" rx="0.85" ry="0.85"></rect><rect x="137.853799" y="104.381999" width="1" height="1"></rect><rect x="137.853799" y="101.881999" width="1" height="1"></rect><rect x="135.901999" y="106.545999" width="1.5" height="1"></rect><rect x="135.901999" y="107.845999" width="1.5" height="1"></rect><g><polygon points="141.801,119.714 141.801,119.01400000000001 140.901,119.01400000000001 140.901,119.714 141.801,119.714"></polygon><circle cx="141.801" cy="119.714" r="0.25"></circle><circle cx="141.801" cy="119.01400000000001" r="0.25"></circle><circle cx="140.901" cy="119.01400000000001" r="0.25"></circle><circle cx="140.901" cy="119.714" r="0.25"></circle><polygon points="141.801,119.964 141.801,119.26400000000001 141.801,118.76400000000001 141.801,119.464"></polygon><polygon points="141.551,119.01400000000001 140.651,119.01400000000001 141.151,119.01400000000001 142.051,119.01400000000001"></polygon><polygon points="140.901,118.76400000000001 140.901,119.464 140.901,119.964 140.901,119.26400000000001"></polygon><polygon points="141.151,119.714 142.051,119.714 141.551,119.714 140.651,119.714"></polygon></g><g><polygon points="141.801,117.714 141.801,117.01400000000001 140.901,117.01400000000001 140.901,117.714 141.801,117.714"></polygon><circle cx="141.801" cy="117.714" r="0.25"></circle><circle cx="141.801" cy="117.01400000000001" r="0.25"></circle><circle cx="140.901" cy="117.01400000000001" r="0.25"></circle><circle cx="140.901" cy="117.714" r="0.25"></circle><polygon points="141.801,117.964 141.801,117.26400000000001 141.801,116.76400000000001 141.801,117.464"></polygon><polygon points="141.551,117.01400000000001 140.651,117.01400000000001 141.151,117.01400000000001 142.051,117.01400000000001"></polygon><polygon points="140.901,116.76400000000001 140.901,117.464 140.901,117.964 140.901,117.26400000000001"></polygon><polygon points="141.151,117.714 142.051,117.714 141.551,117.714 140.651,117.714"></polygon></g><g><polygon points="145.473,94.53500000000001 145.473,95.235 146.373,95.235 146.373,94.53500000000001 145.473,94.53500000000001"></polygon><circle cx="145.473" cy="94.53500000000001" r="0.25"></circle><circle cx="145.473" cy="95.235" r="0.25"></circle><circle cx="146.373" cy="95.235" r="0.25"></circle><circle cx="146.373" cy="94.53500000000001" r="0.25"></circle><polygon points="145.473,94.28500000000001 145.473,94.985 145.473,95.485 145.473,94.78500000000001"></polygon><polygon points="145.723,95.235 146.623,95.235 146.123,95.235 145.223,95.235"></polygon><polygon points="146.373,95.485 146.373,94.78500000000001 146.373,94.28500000000001 146.373,94.985"></polygon><polygon points="146.123,94.53500000000001 145.223,94.53500000000001 145.723,94.53500000000001 146.623,94.53500000000001"></polygon></g><g><polygon points="145.473,96.53500000000001 145.473,97.235 146.373,97.235 146.373,96.53500000000001 145.473,96.53500000000001"></polygon><circle cx="145.473" cy="96.53500000000001" r="0.25"></circle><circle cx="145.473" cy="97.235" r="0.25"></circle><circle cx="146.373" cy="97.235" r="0.25"></circle><circle cx="146.373" cy="96.53500000000001" r="0.25"></circle><polygon points="145.473,96.28500000000001 145.473,96.985 145.473,97.485 145.473,96.78500000000001"></polygon><polygon points="145.723,97.235 146.623,97.235 146.123,97.235 145.223,97.235"></polygon><polygon points="146.373,97.485 146.373,96.78500000000001 146.373,96.28500000000001 146.373,96.985"></polygon><polygon points="146.123,96.53500000000001 145.223,96.53500000000001 145.723,96.53500000000001 146.623,96.53500000000001"></polygon></g><g><polygon points="144.25,97.69600000000001 143.575,97.69600000000001 143.575,98.646 144.25,98.646 144.25,97.69600000000001"></polygon><circle cx="144.25" cy="97.69600000000001" r="0.25"></circle><circle cx="143.575" cy="97.69600000000001" r="0.25"></circle><circle cx="143.575" cy="98.646" r="0.25"></circle><circle cx="144.25" cy="98.646" r="0.25"></circle><polygon points="144,97.69600000000001 143.325,97.69600000000001 143.825,97.69600000000001 144.5,97.69600000000001"></polygon><polygon points="143.575,97.44600000000001 143.575,98.396 143.575,98.896 143.575,97.94600000000001"></polygon><polygon points="143.825,98.646 144.5,98.646 144,98.646 143.325,98.646"></polygon><polygon points="144.25,98.896 144.25,97.94600000000001 144.25,97.44600000000001 144.25,98.396"></polygon></g><g><polygon points="142.175,97.69600000000001 141.5,97.69600000000001 141.5,98.646 142.175,98.646 142.175,97.69600000000001"></polygon><circle cx="142.175" cy="97.69600000000001" r="0.25"></circle><circle cx="141.5" cy="97.69600000000001" r="0.25"></circle><circle cx="141.5" cy="98.646" r="0.25"></circle><circle cx="142.175" cy="98.646" r="0.25"></circle><polygon points="141.925,97.69600000000001 141.25,97.69600000000001 141.75,97.69600000000001 142.425,97.69600000000001"></polygon><polygon points="141.5,97.44600000000001 141.5,98.396 141.5,98.896 141.5,97.94600000000001"></polygon><polygon points="141.75,98.646 142.425,98.646 141.925,98.646 141.25,98.646"></polygon><polygon points="142.175,98.896 142.175,97.94600000000001 142.175,97.44600000000001 142.175,98.396"></polygon></g><g><polygon points="167.946,74.58600000000001 166.746,74.58600000000001 166.746,76.036 167.946,76.036 167.946,74.58600000000001"></polygon><circle cx="167.946" cy="74.58600000000001" r="0.25"></circle><circle cx="166.746" cy="74.58600000000001" r="0.25"></circle><circle cx="166.746" cy="76.036" r="0.25"></circle><circle cx="167.946" cy="76.036" r="0.25"></circle><polygon points="167.696,74.58600000000001 166.496,74.58600000000001 166.996,74.58600000000001 168.196,74.58600000000001"></polygon><polygon points="166.746,74.33600000000001 166.746,75.786 166.746,76.286 166.746,74.83600000000001"></polygon><polygon points="166.996,76.036 168.196,76.036 167.696,76.036 166.496,76.036"></polygon><polygon points="167.946,76.286 167.946,74.83600000000001 167.946,74.33600000000001 167.946,75.786"></polygon></g><rect x="163.995999" y="74.33599899999999" width="1.7" height="1.95" rx="0.85" ry="0.85"></rect><rect x="161.495999" y="74.33599899999999" width="1.7" height="1.95" rx="0.85" ry="0.85"></rect><rect x="158.995999" y="74.33599899999999" width="1.7" height="1.95" rx="0.85" ry="0.85"></rect><g><polygon points="158.728,106.84 158.053,106.84 158.053,107.78999999999999 158.728,107.78999999999999 158.728,106.84"></polygon><circle cx="158.728" cy="106.84" r="0.25"></circle><circle cx="158.053" cy="106.84" r="0.25"></circle><circle cx="158.053" cy="107.78999999999999" r="0.25"></circle><circle cx="158.728" cy="107.78999999999999" r="0.25"></circle><polygon points="158.478,106.84 157.803,106.84 158.303,106.84 158.978,106.84"></polygon><polygon points="158.053,106.59 158.053,107.53999999999999 158.053,108.03999999999999 158.053,107.09"></polygon><polygon points="158.303,107.78999999999999 158.978,107.78999999999999 158.478,107.78999999999999 157.803,107.78999999999999"></polygon><polygon points="158.728,108.03999999999999 158.728,107.09 158.728,106.59 158.728,107.53999999999999"></polygon></g><g><polygon points="156.653,106.84 155.97799999999998,106.84 155.97799999999998,107.78999999999999 156.653,107.78999999999999 156.653,106.84"></polygon><circle cx="156.653" cy="106.84" r="0.25"></circle><circle cx="155.97799999999998" cy="106.84" r="0.25"></circle><circle cx="155.97799999999998" cy="107.78999999999999" r="0.25"></circle><circle cx="156.653" cy="107.78999999999999" r="0.25"></circle><polygon points="156.403,106.84 155.72799999999998,106.84 156.22799999999998,106.84 156.903,106.84"></polygon><polygon points="155.97799999999998,106.59 155.97799999999998,107.53999999999999 155.97799999999998,108.03999999999999 155.97799999999998,107.09"></polygon><polygon points="156.22799999999998,107.78999999999999 156.903,107.78999999999999 156.403,107.78999999999999 155.72799999999998,107.78999999999999"></polygon><polygon points="156.653,108.03999999999999 156.653,107.09 156.653,106.59 156.653,107.53999999999999"></polygon></g><rect x="141.125999" y="123.30699899999999" width="1.56" height="0.65"></rect><rect x="141.125999" y="121.406999" width="1.56" height="0.65"></rect><rect x="143.825999" y="121.406999" width="1.56" height="0.65"></rect><rect x="143.825999" y="122.356999" width="1.56" height="0.65"></rect><rect x="143.825999" y="123.30699899999999" width="1.56" height="0.65"></rect><g><polygon points="158.728,104.427 158.053,104.427 158.053,105.377 158.728,105.377 158.728,104.427"></polygon><circle cx="158.728" cy="104.427" r="0.25"></circle><circle cx="158.053" cy="104.427" r="0.25"></circle><circle cx="158.053" cy="105.377" r="0.25"></circle><circle cx="158.728" cy="105.377" r="0.25"></circle><polygon points="158.478,104.427 157.803,104.427 158.303,104.427 158.978,104.427"></polygon><polygon points="158.053,104.177 158.053,105.127 158.053,105.627 158.053,104.677"></polygon><polygon points="158.303,105.377 158.978,105.377 158.478,105.377 157.803,105.377"></polygon><polygon points="158.728,105.627 158.728,104.677 158.728,104.177 158.728,105.127"></polygon></g><g><polygon points="156.653,104.427 155.97799999999998,104.427 155.97799999999998,105.377 156.653,105.377 156.653,104.427"></polygon><circle cx="156.653" cy="104.427" r="0.25"></circle><circle cx="155.97799999999998" cy="104.427" r="0.25"></circle><circle cx="155.97799999999998" cy="105.377" r="0.25"></circle><circle cx="156.653" cy="105.377" r="0.25"></circle><polygon points="156.403,104.427 155.72799999999998,104.427 156.22799999999998,104.427 156.903,104.427"></polygon><polygon points="155.97799999999998,104.177 155.97799999999998,105.127 155.97799999999998,105.627 155.97799999999998,104.677"></polygon><polygon points="156.22799999999998,105.377 156.903,105.377 156.403,105.377 155.72799999999998,105.377"></polygon><polygon points="156.653,105.627 156.653,104.677 156.653,104.177 156.653,105.127"></polygon></g><rect x="175.34799900000002" y="73.19399899999999" width="1.7" height="1.7"></rect><rect x="177.887999" y="73.19399899999999" width="1.7" height="1.7" rx="0.85" ry="0.85"></rect><rect x="175.34799900000002" y="75.733999" width="1.7" height="1.7" rx="0.85" ry="0.85"></rect><rect x="177.887999" y="75.733999" width="1.7" height="1.7" rx="0.85" ry="0.85"></rect><rect x="175.34799900000002" y="78.27399899999999" width="1.7" height="1.7" rx="0.85" ry="0.85"></rect><rect x="177.887999" y="78.27399899999999" width="1.7" height="1.7" rx="0.85" ry="0.85"></rect><rect x="175.34799900000002" y="80.813999" width="1.7" height="1.7" rx="0.85" ry="0.85"></rect><rect x="177.887999" y="80.813999" width="1.7" height="1.7" rx="0.85" ry="0.85"></rect><rect x="175.34799900000002" y="83.35399899999999" width="1.7" height="1.7" rx="0.85" ry="0.85"></rect><rect x="177.887999" y="83.35399899999999" width="1.7" height="1.7" rx="0.85" ry="0.85"></rect><rect x="175.34799900000002" y="85.893999" width="1.7" height="1.7" rx="0.85" ry="0.85"></rect><rect x="177.887999" y="85.893999" width="1.7" height="1.7" rx="0.85" ry="0.85"></rect><rect x="175.34799900000002" y="88.43399899999999" width="1.7" height="1.7" rx="0.85" ry="0.85"></rect><rect x="177.887999" y="88.43399899999999" width="1.7" height="1.7" rx="0.85" ry="0.85"></rect><rect x="175.34799900000002" y="90.97399899999999" width="1.7" height="1.7" rx="0.85" ry="0.85"></rect><rect x="177.887999" y="90.97399899999999" width="1.7" height="1.7" rx="0.85" ry="0.85"></rect><rect x="175.34799900000002" y="93.513999" width="1.7" height="1.7" rx="0.85" ry="0.85"></rect><rect x="177.887999" y="93.513999" width="1.7" height="1.7" rx="0.85" ry="0.85"></rect><rect x="175.34799900000002" y="96.05399899999999" width="1.7" height="1.7" rx="0.85" ry="0.85"></rect><rect x="177.887999" y="96.05399899999999" width="1.7" height="1.7" rx="0.85" ry="0.85"></rect><rect x="175.34799900000002" y="98.593999" width="1.7" height="1.7" rx="0.85" ry="0.85"></rect><rect x="177.887999" y="98.593999" width="1.7" height="1.7" rx="0.85" ry="0.85"></rect><rect x="175.34799900000002" y="101.13399899999999" width="1.7" height="1.7" rx="0.85" ry="0.85"></rect><rect x="177.887999" y="101.13399899999999" width="1.7" height="1.7" rx="0.85" ry="0.85"></rect><rect x="175.34799900000002" y="103.673999" width="1.7" height="1.7" rx="0.85" ry="0.85"></rect><rect x="177.887999" y="103.673999" width="1.7" height="1.7" rx="0.85" ry="0.85"></rect><rect x="175.34799900000002" y="106.21399899999999" width="1.7" height="1.7" rx="0.85" ry="0.85"></rect><rect x="177.887999" y="106.21399899999999" width="1.7" height="1.7" rx="0.85" ry="0.85"></rect><rect x="175.34799900000002" y="108.753999" width="1.7" height="1.7" rx="0.85" ry="0.85"></rect><rect x="177.887999" y="108.753999" width="1.7" height="1.7" rx="0.85" ry="0.85"></rect><rect x="175.34799900000002" y="111.29399899999999" width="1.7" height="1.7" rx="0.85" ry="0.85"></rect><rect x="177.887999" y="111.29399899999999" width="1.7" height="1.7" rx="0.85" ry="0.85"></rect><rect x="175.34799900000002" y="113.83399899999999" width="1.7" height="1.7" rx="0.85" ry="0.85"></rect><rect x="177.887999" y="113.83399899999999" width="1.7" height="1.7" rx="0.85" ry="0.85"></rect><rect x="175.34799900000002" y="116.373999" width="1.7" height="1.7" rx="0.85" ry="0.85"></rect><rect x="177.887999" y="116.373999" width="1.7" height="1.7" rx="0.85" ry="0.85"></rect><rect x="175.34799900000002" y="118.91399899999999" width="1.7" height="1.7" rx="0.85" ry="0.85"></rect><rect x="177.887999" y="118.91399899999999" width="1.7" height="1.7" rx="0.85" ry="0.85"></rect><rect x="175.34799900000002" y="121.453999" width="1.7" height="1.7" rx="0.85" ry="0.85"></rect><rect x="177.887999" y="121.453999" width="1.7" height="1.7" rx="0.85" ry="0.85"></rect></svg>