<svg version="1.1" xmlns="http://www.w3.org/2000/svg" xmlns:xlink="http://www.w3.org/1999/xlink" stroke-linecap="round" stroke-linejoin="round" stroke-width="0" fill-rule="evenodd" clip-rule="evenodd" fill="currentColor" stroke="currentColor" viewBox="124.968 65.674 55.999999999999986 65.5" width="55.999999999999986mm" height="65.5mm"><path stroke-width="0.15" fill="none" d="M178.277523 70.64138L178.277523 71.355666L178.325142 71.498523L178.42038 71.593761L178.563237 71.64138L178.658475 71.64138M177.277523 71.64138L177.848951 71.64138M177.563237 71.64138L177.563237 70.64138L177.658475 70.784238L177.753713 70.879476L177.848951 70.927095M176.658475 70.64138L176.563237 70.64138L176.467999 70.689L176.42038 70.736619L176.372761 70.831857L176.325142 71.022333L176.325142 71.260428L176.372761 71.450904L176.42038 71.546142L176.467999 71.593761L176.563237 71.64138L176.658475 71.64138L176.753713 71.593761L176.801332 71.546142L176.848951 71.450904L176.89657 71.260428L176.89657 71.022333L176.848951 70.831857L176.801332 70.736619L176.753713 70.689L176.658475 70.64138M147.861571 121.245785L147.90919 121.388642L147.956809 121.436261L148.052047 121.48388L148.194904 121.48388L148.290142 121.436261L148.337761 121.388642L148.38538 121.293404L148.38538 120.912452L147.38538 120.912452L147.38538 121.245785L147.433 121.341023L147.480619 121.388642L147.575857 121.436261L147.671095 121.436261L147.766333 121.388642L147.813952 121.341023L147.861571 121.245785L147.861571 120.912452M147.38538 121.769595L147.38538 122.341023M148.38538 122.055309L147.38538 122.055309M147.480619 122.626738L147.433 122.674357L147.38538 122.769595L147.38538 123.00769L147.433 123.102928L147.480619 123.150547L147.575857 123.198166L147.671095 123.198166L147.813952 123.150547L148.38538 122.579119L148.38538 123.198166"></path><path stroke-width="0.12" fill="none" d="M180.068 123.634L174.868 123.634M180.068 72.714L180.068 123.634M180.068 72.714L177.468 72.714M177.468 75.314L174.868 75.314M177.468 72.714L177.468 75.314M176.198 72.714L174.868 72.714M174.868 75.314L174.868 123.634M174.868 72.714L174.868 74.044M136.342 117.9L141.142 117.9M136.342 123.4L136.342 117.9M141.092 114.6L147.942 109.8M141.142 123.4L136.342 123.4M141.342 130.15L148.042 130.15M147.942 109.8L155.842 109.8L162.642 114.6M162.442 130.15L155.742 130.15M162.642 117.9L167.442 117.9L167.442 123.4L162.642 123.4M148.045615 130.151463A10.250486657158966 10.250486657158966 0 0 0 155.742 130.149999"></path></svg>