<svg version="1.1" xmlns="http://www.w3.org/2000/svg" xmlns:xlink="http://www.w3.org/1999/xlink" stroke-linecap="round" stroke-linejoin="round" stroke-width="0" fill-rule="evenodd" clip-rule="evenodd" fill="currentColor" stroke="currentColor" viewBox="124.968 65.674 55.999999999999986 65.5" width="55.999999999999986mm" height="65.5mm"><path stroke-width="0.15" fill="none" d="M132.873714 129.83038L133.06419 129.83038L133.159428 129.782761L133.207047 129.735142L133.302285 129.592285L133.349904 129.401809L133.349904 129.020857L133.302285 128.925619L133.254666 128.878L133.159428 128.83038L132.968952 128.83038L132.873714 128.878L132.826095 128.925619L132.778476 129.020857L132.778476 129.258952L132.826095 129.35419L132.873714 129.401809L132.968952 129.449428L133.159428 129.449428L133.254666 129.401809L133.302285 129.35419L133.349904 129.258952M134.492761 128.782761L133.635619 130.068476M135.254666 129.163714L135.254666 129.83038M135.016571 128.782761L134.778476 129.497047L135.397523 129.497047M136.492761 128.782761L135.635619 130.068476M136.778476 128.925619L136.826095 128.878L136.921333 128.83038L137.159428 128.83038L137.254666 128.878L137.302285 128.925619L137.349904 129.020857L137.349904 129.116095L137.302285 129.258952L136.730857 129.83038L137.349904 129.83038M137.683238 128.83038L138.302285 128.83038L137.968952 129.211333L138.111809 129.211333L138.207047 129.258952L138.254666 129.306571L138.302285 129.401809L138.302285 129.639904L138.254666 129.735142L138.207047 129.782761L138.111809 129.83038L137.826095 129.83038L137.730857 129.782761L137.683238 129.735142M174.02638 117.109904L173.02638 117.109904L173.02638 116.728952L173.074 116.633714L173.121619 116.586095L173.216857 116.538476L173.359714 116.538476L173.454952 116.586095L173.502571 116.633714L173.55019 116.728952L173.55019 117.109904M174.02638 115.967047L173.978761 116.062285L173.931142 116.109904L173.835904 116.157523L173.55019 116.157523L173.454952 116.109904L173.407333 116.062285L173.359714 115.967047L173.359714 115.82419L173.407333 115.728952L173.454952 115.681333L173.55019 115.633714L173.835904 115.633714L173.931142 115.681333L173.978761 115.728952L174.02638 115.82419L174.02638 115.967047M173.359714 115.30038L174.02638 115.109904L173.55019 114.919428L174.02638 114.728952L173.359714 114.538476M173.978761 113.776571L174.02638 113.871809L174.02638 114.062285L173.978761 114.157523L173.883523 114.205142L173.502571 114.205142L173.407333 114.157523L173.359714 114.062285L173.359714 113.871809L173.407333 113.776571L173.502571 113.728952L173.597809 113.728952L173.693047 114.205142M174.02638 113.30038L173.359714 113.30038M173.55019 113.30038L173.454952 113.252761L173.407333 113.205142L173.359714 113.109904L173.359714 113.014666M173.931142 111.509904L173.978761 111.557523L174.02638 111.70038L174.02638 111.795618L173.978761 111.938475L173.883523 112.033713L173.788285 112.081332L173.597809 112.128951L173.454952 112.128951L173.264476 112.081332L173.169238 112.033713L173.074 111.938475L173.02638 111.795618L173.02638 111.70038L173.074 111.557523L173.121619 111.509904M174.02638 110.938475L173.978761 111.033713L173.931142 111.081332L173.835904 111.128951L173.55019 111.128951L173.454952 111.081332L173.407333 111.033713L173.359714 110.938475L173.359714 110.795618L173.407333 110.70038L173.454952 110.652761L173.55019 110.605142L173.835904 110.605142L173.931142 110.652761L173.978761 110.70038L174.02638 110.795618L174.02638 110.938475M173.359714 110.17657L174.02638 110.17657M173.454952 110.17657L173.407333 110.128951L173.359714 110.033713L173.359714 109.890856L173.407333 109.795618L173.502571 109.747999L174.02638 109.747999M173.359714 109.414665L173.359714 109.033713M173.02638 109.271808L173.883523 109.271808L173.978761 109.224189L174.02638 109.128951L174.02638 109.033713M174.02638 108.700379L173.359714 108.700379M173.55019 108.700379L173.454952 108.65276L173.407333 108.605141L173.359714 108.509903L173.359714 108.414665M174.02638 107.938474L173.978761 108.033712L173.931142 108.081331L173.835904 108.12895L173.55019 108.12895L173.454952 108.081331L173.407333 108.033712L173.359714 107.938474L173.359714 107.795617L173.407333 107.700379L173.454952 107.65276L173.55019 107.605141L173.835904 107.605141L173.931142 107.65276L173.978761 107.700379L174.02638 107.795617L174.02638 107.938474M174.02638 107.033712L173.978761 107.12895L173.883523 107.176569L173.02638 107.176569M174.02638 106.509902L173.978761 106.60514L173.883523 106.652759L173.02638 106.652759M173.978761 105.747997L174.02638 105.843235L174.02638 106.033711L173.978761 106.128949L173.883523 106.176568L173.502571 106.176568L173.407333 106.128949L173.359714 106.033711L173.359714 105.843235L173.407333 105.747997L173.502571 105.700378L173.597809 105.700378L173.693047 106.176568M174.02638 105.271806L173.359714 105.271806M173.55019 105.271806L173.454952 105.224187L173.407333 105.176568L173.359714 105.08133L173.359714 104.986092M171.776761 122.459809L169.776761 122.459809L169.776761 121.983619L169.872 121.697904L170.062476 121.507428L170.252952 121.41219L170.633904 121.316952L170.919619 121.316952L171.300571 121.41219L171.491047 121.507428L171.681523 121.697904L171.776761 121.983619L171.776761 122.459809M171.776761 120.459809L169.776761 120.459809M170.82438 119.126476L171.776761 119.126476M169.776761 119.793142L170.82438 119.126476L169.776761 118.459809M171.205333 116.68838L171.205333 115.735999M171.776761 116.878856L169.776761 116.21219L171.776761 115.545523M170.443428 114.021713L172.443428 114.021713M171.681523 114.021713L171.776761 114.212189L171.776761 114.593142L171.681523 114.783618L171.586285 114.878856L171.395809 114.974094L170.82438 114.974094L170.633904 114.878856L170.538666 114.783618L170.443428 114.593142L170.443428 114.212189L170.538666 114.021713M170.443428 112.212189L171.776761 112.212189M170.443428 113.069332L171.491047 113.069332L171.681523 112.974094L171.776761 112.783618L171.776761 112.497903L171.681523 112.307427L171.586285 112.212189M171.776761 110.402665L170.729142 110.402665L170.538666 110.497903L170.443428 110.688379L170.443428 111.069332L170.538666 111.259808M171.681523 110.402665L171.776761 110.593141L171.776761 111.069332L171.681523 111.259808L171.491047 111.355046L171.300571 111.355046L171.110095 111.259808L171.014857 111.069332L171.014857 110.593141L170.919619 110.402665M170.443428 109.450284L171.776761 109.450284M170.633904 109.450284L170.538666 109.355046L170.443428 109.16457L170.443428 108.878855L170.538666 108.688379L170.729142 108.593141L171.776761 108.593141M171.776761 106.783617L170.729142 106.783617L170.538666 106.878855L170.443428 107.069331L170.443428 107.450284L170.538666 107.64076M171.681523 106.783617L171.776761 106.974093L171.776761 107.450284L171.681523 107.64076L171.491047 107.735998L171.300571 107.735998L171.110095 107.64076L171.014857 107.450284L171.014857 106.974093L170.919619 106.783617M170.443428 104.974093L171.776761 104.974093M170.443428 105.831236L171.491047 105.831236L171.681523 105.735998L171.776761 105.545522L171.776761 105.259807L171.681523 105.069331L171.586285 104.974093M170.443428 104.307426L170.443428 103.545522M169.776761 104.021712L171.491047 104.021712L171.681523 103.926474L171.776761 103.735998L171.776761 103.545522M171.681523 102.974093L171.776761 102.783617L171.776761 102.402665L171.681523 102.212188L171.491047 102.11695L171.395809 102.11695L171.205333 102.212188L171.110095 102.402665L171.110095 102.688379L171.014857 102.878855L170.82438 102.974093L170.729142 102.974093L170.538666 102.878855L170.443428 102.688379L170.443428 102.402665L170.538666 102.212188M169.465523 129.227142L169.417904 129.274761L169.275047 129.32238L169.179809 129.32238L169.036952 129.274761L168.941714 129.179523L168.894095 129.084285L168.846476 128.893809L168.846476 128.750952L168.894095 128.560476L168.941714 128.465238L169.036952 128.37L169.179809 128.32238L169.275047 128.32238L169.417904 128.37L169.465523 128.417619M170.465523 129.32238L170.13219 128.84619M169.894095 129.32238L169.894095 128.32238L170.275047 128.32238L170.370285 128.37L170.417904 128.417619L170.465523 128.512857L170.465523 128.655714L170.417904 128.750952L170.370285 128.798571L170.275047 128.84619L169.894095 128.84619M170.846476 128.417619L170.894095 128.37L170.989333 128.32238L171.227428 128.32238L171.322666 128.37L171.370285 128.417619L171.417904 128.512857L171.417904 128.608095L171.370285 128.750952L170.798857 129.32238L171.417904 129.32238M172.036952 128.32238L172.13219 128.32238L172.227428 128.37L172.275047 128.417619L172.322666 128.512857L172.370285 128.703333L172.370285 128.941428L172.322666 129.131904L172.275047 129.227142L172.227428 129.274761L172.13219 129.32238L172.036952 129.32238L171.941714 129.274761L171.894095 129.227142L171.846476 129.131904L171.798857 128.941428L171.798857 128.703333L171.846476 128.512857L171.894095 128.417619L171.941714 128.37L172.036952 128.32238M172.703619 128.32238L173.322666 128.32238L172.989333 128.703333L173.13219 128.703333L173.227428 128.750952L173.275047 128.798571L173.322666 128.893809L173.322666 129.131904L173.275047 129.227142L173.227428 129.274761L173.13219 129.32238L172.846476 129.32238L172.751238 129.274761L172.703619 129.227142M173.703619 128.417619L173.751238 128.37L173.846476 128.32238L174.084571 128.32238L174.179809 128.37L174.227428 128.417619L174.275047 128.512857L174.275047 128.608095L174.227428 128.750952L173.656 129.32238L174.275047 129.32238M174.703619 128.941428L175.465524 128.941428M175.084571 129.32238L175.084571 128.560476M160.273904 128.37L160.178666 128.32238L160.035809 128.32238L159.892952 128.37L159.797714 128.465238L159.750095 128.560476L159.702476 128.750952L159.702476 128.893809L159.750095 129.084285L159.797714 129.179523L159.892952 129.274761L160.035809 129.32238L160.131047 129.32238L160.273904 129.274761L160.321523 129.227142L160.321523 128.893809L160.131047 128.893809M160.750095 129.32238L160.750095 128.32238L161.321523 129.32238L161.321523 128.32238M161.797714 129.32238L161.797714 128.32238L162.035809 128.32238L162.178666 128.37L162.273904 128.465238L162.321523 128.560476L162.369142 128.750952L162.369142 128.893809L162.321523 129.084285L162.273904 129.179523L162.178666 129.274761L162.035809 129.32238L161.797714 129.32238M130.746476 122.432666L131.222666 122.432666M130.651238 122.71838L130.984571 121.71838L131.317904 122.71838M131.651238 121.71838L131.651238 122.527904L131.698857 122.623142L131.746476 122.670761L131.841714 122.71838L132.03219 122.71838L132.127428 122.670761L132.175047 122.623142L132.222666 122.527904L132.222666 121.71838M132.556 121.71838L133.127428 121.71838M132.841714 122.71838L132.841714 121.71838M133.651238 121.71838L133.841714 121.71838L133.936952 121.766L134.03219 121.861238L134.079809 122.051714L134.079809 122.385047L134.03219 122.575523L133.936952 122.670761L133.841714 122.71838L133.651238 122.71838L133.556 122.670761L133.460762 122.575523L133.413143 122.385047L133.413143 122.051714L133.460762 121.861238L133.556 121.766L133.651238 121.71838M132.000571 106.47838L132.191047 106.47838L132.286285 106.526L132.381523 106.621238L132.429142 106.811714L132.429142 107.145047L132.381523 107.335523L132.286285 107.430761L132.191047 107.47838L132.000571 107.47838L131.905333 107.430761L131.810095 107.335523L131.762476 107.145047L131.762476 106.811714L131.810095 106.621238L131.905333 106.526L132.000571 106.47838M132.857714 107.47838L132.857714 106.47838L133.429142 107.47838L133.429142 106.47838M159.893095 120.27138L159.893095 121.080904L159.940714 121.176142L159.988333 121.223761L160.083571 121.27138L160.274047 121.27138L160.369285 121.223761L160.416904 121.176142L160.464523 121.080904L160.464523 120.27138M161.083571 120.699952L160.988333 120.652333L160.940714 120.604714L160.893095 120.509476L160.893095 120.461857L160.940714 120.366619L160.988333 120.319L161.083571 120.27138L161.274047 120.27138L161.369285 120.319L161.416904 120.366619L161.464523 120.461857L161.464523 120.509476L161.416904 120.604714L161.369285 120.652333L161.274047 120.699952L161.083571 120.699952L160.988333 120.747571L160.940714 120.79519L160.893095 120.890428L160.893095 121.080904L160.940714 121.176142L160.988333 121.223761L161.083571 121.27138L161.274047 121.27138L161.369285 121.223761L161.416904 121.176142L161.464523 121.080904L161.464523 120.890428L161.416904 120.79519L161.369285 120.747571L161.274047 120.699952M132.839781 115.153925L132.877276 115.041439L132.877276 114.853963L132.839781 114.778972L132.802286 114.741477L132.727295 114.703981L132.652304 114.703981L132.577314 114.741477L132.539818 114.778972L132.502323 114.853963L132.464828 115.003944L132.427332 115.078935L132.389837 115.11643L132.314846 115.153925L132.239856 115.153925L132.164865 115.11643L132.12737 115.078935L132.089874 115.003944L132.089874 114.816467L132.12737 114.703981M132.877276 113.954074L132.877276 114.404018M132.877276 114.179046L132.089874 114.179046L132.20236 114.254037L132.277351 114.329028L132.314846 114.404018M142.232142 89.56838L141.898809 89.09219M141.660714 89.56838L141.660714 88.56838L142.041666 88.56838L142.136904 88.616L142.184523 88.663619L142.232142 88.758857L142.232142 88.901714L142.184523 88.996952L142.136904 89.044571L142.041666 89.09219L141.660714 89.09219M143.184523 89.56838L142.613095 89.56838M142.898809 89.56838L142.898809 88.56838L142.803571 88.711238L142.708333 88.806476L142.613095 88.854095M143.803571 88.56838L143.898809 88.56838L143.994047 88.616L144.041666 88.663619L144.089285 88.758857L144.136904 88.949333L144.136904 89.187428L144.089285 89.377904L144.041666 89.473142L143.994047 89.520761L143.898809 89.56838L143.803571 89.56838L143.708333 89.520761L143.660714 89.473142L143.613095 89.377904L143.565476 89.187428L143.565476 88.949333L143.613095 88.758857L143.660714 88.663619L143.708333 88.616L143.803571 88.56838M141.496142 111.418666L141.543761 111.466285L141.59138 111.609142L141.59138 111.70438L141.543761 111.847237L141.448523 111.942475L141.353285 111.990094L141.162809 112.037713L141.019952 112.037713L140.829476 111.990094L140.734238 111.942475L140.639 111.847237L140.59138 111.70438L140.59138 111.609142L140.639 111.466285L140.686619 111.418666M140.686619 111.037713L140.639 110.990094L140.59138 110.894856L140.59138 110.656761L140.639 110.561523L140.686619 110.513904L140.781857 110.466285L140.877095 110.466285L141.019952 110.513904L141.59138 111.085332L141.59138 110.466285M147.68738 114.026921L147.21119 114.360254M147.68738 114.598349L146.68738 114.598349L146.68738 114.217397L146.735 114.122159L146.782619 114.07454L146.877857 114.026921L147.020714 114.026921L147.115952 114.07454L147.163571 114.122159L147.21119 114.217397L147.21119 114.598349M147.68738 113.07454L147.68738 113.645968M147.68738 113.360254L146.68738 113.360254L146.830238 113.455492L146.925476 113.55073L146.973095 113.645968M146.68738 112.169778L146.68738 112.645968L147.163571 112.693587L147.115952 112.645968L147.068333 112.55073L147.068333 112.312635L147.115952 112.217397L147.163571 112.169778L147.258809 112.122159L147.496904 112.122159L147.592142 112.169778L147.639761 112.217397L147.68738 112.312635L147.68738 112.55073L147.639761 112.645968L147.592142 112.693587M166.48338 103.258857L166.00719 103.59219M166.48338 103.830285L165.48338 103.830285L165.48338 103.449333L165.531 103.354095L165.578619 103.306476L165.673857 103.258857L165.816714 103.258857L165.911952 103.306476L165.959571 103.354095L166.00719 103.449333L166.00719 103.830285M166.48338 102.306476L166.48338 102.877904M166.48338 102.59219L165.48338 102.59219L165.626238 102.687428L165.721476 102.782666L165.769095 102.877904M165.816714 101.449333L166.48338 101.449333M165.435761 101.687428L166.150047 101.925523L166.150047 101.306476M133.23898 104.370094L132.23898 104.370094L132.23898 104.131999L132.2866 103.989142L132.381838 103.893904L132.477076 103.846285L132.667552 103.798666L132.810409 103.798666L133.000885 103.846285L133.096123 103.893904L133.191361 103.989142L133.23898 104.131999L133.23898 104.370094M133.23898 102.846285L133.23898 103.417713M133.23898 103.131999L132.23898 103.131999L132.381838 103.227237L132.477076 103.322475L132.524695 103.417713M142.91838 115.061904L143.727904 115.061904L143.823142 115.014285L143.870761 114.966666L143.91838 114.871428L143.91838 114.680952L143.870761 114.585714L143.823142 114.538095L143.727904 114.490476L142.91838 114.490476M143.91838 113.966666L143.91838 113.77619L143.870761 113.680952L143.823142 113.633333L143.680285 113.538095L143.489809 113.490476L143.108857 113.490476L143.013619 113.538095L142.966 113.585714L142.91838 113.680952L142.91838 113.871428L142.966 113.966666L143.013619 114.014285L143.108857 114.061904L143.346952 114.061904L143.44219 114.014285L143.489809 113.966666L143.537428 113.871428L143.537428 113.680952L143.489809 113.585714L143.44219 113.538095L143.346952 113.490476M167.767095 95.59238L167.767095 94.59238M167.767095 95.068571L168.338523 95.068571M168.338523 95.59238L168.338523 94.59238M169.290904 94.59238L168.814714 94.59238L168.767095 95.068571L168.814714 95.020952L168.909952 94.973333L169.148047 94.973333L169.243285 95.020952L169.290904 95.068571L169.338523 95.163809L169.338523 95.401904L169.290904 95.497142L169.243285 95.544761L169.148047 95.59238L168.909952 95.59238L168.814714 95.544761L168.767095 95.497142M149.243142 99.353666L149.290761 99.401285L149.33838 99.544142L149.33838 99.63938L149.290761 99.782237L149.195523 99.877475L149.100285 99.925094L148.909809 99.972713L148.766952 99.972713L148.576476 99.925094L148.481238 99.877475L148.386 99.782237L148.33838 99.63938L148.33838 99.544142L148.386 99.401285L148.433619 99.353666M149.33838 98.401285L149.33838 98.972713M149.33838 98.686999L148.33838 98.686999L148.481238 98.782237L148.576476 98.877475L148.624095 98.972713M142.613142 128.288142L142.565523 128.335761L142.422666 128.38338L142.327428 128.38338L142.184571 128.335761L142.089333 128.240523L142.041714 128.145285L141.994095 127.954809L141.994095 127.811952L142.041714 127.621476L142.089333 127.526238L142.184571 127.431L142.327428 127.38338L142.422666 127.38338L142.565523 127.431L142.613142 127.478619M143.565523 128.38338L142.994095 128.38338M143.279809 128.38338L143.279809 127.38338L143.184571 127.526238L143.089333 127.621476L142.994095 127.669095M144.470285 127.38338L143.994095 127.38338L143.946476 127.859571L143.994095 127.811952L144.089333 127.764333L144.327428 127.764333L144.422666 127.811952L144.470285 127.859571L144.517904 127.954809L144.517904 128.192904L144.470285 128.288142L144.422666 128.335761L144.327428 128.38338L144.089333 128.38338L143.994095 128.335761L143.946476 128.288142M139.82938 104.647904L140.638904 104.647904L140.734142 104.600285L140.781761 104.552666L140.82938 104.457428L140.82938 104.266952L140.781761 104.171714L140.734142 104.124095L140.638904 104.076476L139.82938 104.076476M139.82938 103.695523L139.82938 103.076476L140.210333 103.409809L140.210333 103.266952L140.257952 103.171714L140.305571 103.124095L140.400809 103.076476L140.638904 103.076476L140.734142 103.124095L140.781761 103.171714L140.82938 103.266952L140.82938 103.552666L140.781761 103.647904L140.734142 103.695523M170.550619 83.740666L169.836333 83.740666L169.693476 83.693047L169.598238 83.597809L169.550619 83.454952L169.550619 83.359714M169.550619 84.740666L169.550619 84.169238M169.550619 84.454952L170.550619 84.454952L170.407761 84.359714L170.312523 84.264476L170.264904 84.169238M140.57538 100.210857L140.09919 100.54419M140.57538 100.782285L139.57538 100.782285L139.57538 100.401333L139.623 100.306095L139.670619 100.258476L139.765857 100.210857L139.908714 100.210857L140.003952 100.258476L140.051571 100.306095L140.09919 100.401333L140.09919 100.782285M140.57538 99.258476L140.57538 99.829904M140.57538 99.54419L139.57538 99.54419L139.718238 99.639428L139.813476 99.734666L139.861095 99.829904M140.57538 98.306095L140.57538 98.877523M140.57538 98.591809L139.57538 98.591809L139.718238 98.687047L139.813476 98.782285L139.861095 98.877523M150.640142 118.244857L150.687761 118.292476L150.73538 118.435333L150.73538 118.530571L150.687761 118.673428L150.592523 118.768666L150.497285 118.816285L150.306809 118.863904L150.163952 118.863904L149.973476 118.816285L149.878238 118.768666L149.783 118.673428L149.73538 118.530571L149.73538 118.435333L149.783 118.292476L149.830619 118.244857M150.73538 117.292476L150.73538 117.863904M150.73538 117.57819L149.73538 117.57819L149.878238 117.673428L149.973476 117.768666L150.021095 117.863904M149.73538 116.959142L149.73538 116.340095L150.116333 116.673428L150.116333 116.530571L150.163952 116.435333L150.211571 116.387714L150.306809 116.340095L150.544904 116.340095L150.640142 116.387714L150.687761 116.435333L150.73538 116.530571L150.73538 116.816285L150.687761 116.911523L150.640142 116.959142M163.43538 103.258857L162.95919 103.59219M163.43538 103.830285L162.43538 103.830285L162.43538 103.449333L162.483 103.354095L162.530619 103.306476L162.625857 103.258857L162.768714 103.258857L162.863952 103.306476L162.911571 103.354095L162.95919 103.449333L162.95919 103.830285M163.43538 102.306476L163.43538 102.877904M163.43538 102.59219L162.43538 102.59219L162.578238 102.687428L162.673476 102.782666L162.721095 102.877904M162.43538 101.973142L162.43538 101.354095L162.816333 101.687428L162.816333 101.544571L162.863952 101.449333L162.911571 101.401714L163.006809 101.354095L163.244904 101.354095L163.340142 101.401714L163.387761 101.449333L163.43538 101.544571L163.43538 101.830285L163.387761 101.925523L163.340142 101.973142M136.87118 104.370094L135.87118 104.370094L135.87118 104.131999L135.9188 103.989142L136.014038 103.893904L136.109276 103.846285L136.299752 103.798666L136.442609 103.798666L136.633085 103.846285L136.728323 103.893904L136.823561 103.989142L136.87118 104.131999L136.87118 104.370094M135.966419 103.417713L135.9188 103.370094L135.87118 103.274856L135.87118 103.036761L135.9188 102.941523L135.966419 102.893904L136.061657 102.846285L136.156895 102.846285L136.299752 102.893904L136.87118 103.465332L136.87118 102.846285M140.06838 119.038666L139.59219 119.371999M140.06838 119.610094L139.06838 119.610094L139.06838 119.229142L139.116 119.133904L139.163619 119.086285L139.258857 119.038666L139.401714 119.038666L139.496952 119.086285L139.544571 119.133904L139.59219 119.229142L139.59219 119.610094M140.06838 118.086285L140.06838 118.657713M140.06838 118.371999L139.06838 118.371999L139.211238 118.467237L139.306476 118.562475L139.354095 118.657713M148.19538 96.654857L147.71919 96.98819M148.19538 97.226285L147.19538 97.226285L147.19538 96.845333L147.243 96.750095L147.290619 96.702476L147.385857 96.654857L147.528714 96.654857L147.623952 96.702476L147.671571 96.750095L147.71919 96.845333L147.71919 97.226285M148.19538 95.702476L148.19538 96.273904M148.19538 95.98819L147.19538 95.98819L147.338238 96.083428L147.433476 96.178666L147.481095 96.273904M147.290619 95.321523L147.243 95.273904L147.19538 95.178666L147.19538 94.940571L147.243 94.845333L147.290619 94.797714L147.385857 94.750095L147.481095 94.750095L147.623952 94.797714L148.19538 95.369142L148.19538 94.750095M142.581333 96.792142L142.533714 96.839761L142.390857 96.88738L142.295619 96.88738L142.152762 96.839761L142.057524 96.744523L142.009905 96.649285L141.962286 96.458809L141.962286 96.315952L142.009905 96.125476L142.057524 96.030238L142.152762 95.935L142.295619 95.88738L142.390857 95.88738L142.533714 95.935L142.581333 95.982619M142.914667 95.88738L143.533714 95.88738L143.200381 96.268333L143.343238 96.268333L143.438476 96.315952L143.486095 96.363571L143.533714 96.458809L143.533714 96.696904L143.486095 96.792142L143.438476 96.839761L143.343238 96.88738L143.057524 96.88738L142.962286 96.839761L142.914667 96.792142M151.757142 107.460142L151.709523 107.507761L151.566666 107.55538L151.471428 107.55538L151.328571 107.507761L151.233333 107.412523L151.185714 107.317285L151.138095 107.126809L151.138095 106.983952L151.185714 106.793476L151.233333 106.698238L151.328571 106.603L151.471428 106.55538L151.566666 106.55538L151.709523 106.603L151.757142 106.650619M152.709523 107.55538L152.138095 107.55538M152.423809 107.55538L152.423809 106.55538L152.328571 106.698238L152.233333 106.793476L152.138095 106.841095M153.090476 106.650619L153.138095 106.603L153.233333 106.55538L153.471428 106.55538L153.566666 106.603L153.614285 106.650619L153.661904 106.745857L153.661904 106.841095L153.614285 106.983952L153.042857 107.55538L153.661904 107.55538M139.44838 123.920094L140.257904 123.920094L140.353142 123.872475L140.400761 123.824856L140.44838 123.729618L140.44838 123.539142L140.400761 123.443904L140.353142 123.396285L140.257904 123.348666L139.44838 123.348666M140.44838 122.348666L140.44838 122.920094M140.44838 122.63438L139.44838 122.63438L139.591238 122.729618L139.686476 122.824856L139.734095 122.920094M140.44838 121.396285L140.44838 121.967713M140.44838 121.681999L139.44838 121.681999L139.591238 121.777237L139.686476 121.872475L139.734095 121.967713M151.757142 105.428142L151.709523 105.475761L151.566666 105.52338L151.471428 105.52338L151.328571 105.475761L151.233333 105.380523L151.185714 105.285285L151.138095 105.094809L151.138095 104.951952L151.185714 104.761476L151.233333 104.666238L151.328571 104.571L151.471428 104.52338L151.566666 104.52338L151.709523 104.571L151.757142 104.618619M152.709523 105.52338L152.138095 105.52338M152.423809 105.52338L152.423809 104.52338L152.328571 104.666238L152.233333 104.761476L152.138095 104.809095M153.661904 105.52338L153.090476 105.52338M153.37619 105.52338L153.37619 104.52338L153.280952 104.666238L153.185714 104.761476L153.090476 104.809095"></path><path stroke-width="0.12" fill="none" d="M164.333 129.854L163.003 129.854M168.203 129.854L168.203 127.194M165.603 129.854L168.203 129.854M165.603 129.854L165.603 127.194M163.003 129.854L163.003 128.524M165.603 127.194L168.203 127.194M156.795 109.04L156.795 109.295L154.98 109.295M156.795 119.56L156.795 119.305M160.655 109.04L156.795 109.04M160.655 109.04L164.515 109.04M160.655 119.56L156.795 119.56M160.655 119.56L164.515 119.56M164.515 109.04L164.515 109.295M164.515 119.56L164.515 119.305"></path><path stroke-width="0.127" fill="none" d="M134.588 109.554L133.888 109.554M134.588 109.554L134.588 119.554M131.288 109.554L130.588 109.554M130.588 112.554L130.588 109.554M130.588 114.554L130.588 112.554M130.588 116.554L130.588 114.554M134.588 119.554L133.888 119.554M131.288 119.554L130.588 119.554L130.588 116.554"></path><path stroke-width="0.12" fill="none" d="M140.697936 90.111L145.052064 90.111M140.697936 93.531L145.052064 93.531M140.616 114.561252L140.616 114.038748M142.086 114.561252L142.086 114.038748M145.896 112.929936L145.896 113.384064M144.426 112.929936L144.426 113.384064M165.127 106.272064L165.127 105.817936M166.597 106.272064L166.597 105.817936M133.8716 105.532L135.5716 105.532M133.8716 105.532L133.8716 102.382M135.5716 105.532L135.5716 102.382M146.771 118.502L146.771 116.052M143.551 116.702L143.551 118.502M148.236 102.496252L148.236 101.973748M149.706 102.496252L149.706 101.973748M154.92 77.721L153.5 77.721M154.92 66.001L154.92 77.721M153.5 77.721L153.5 73.221L149.86 73.221M152.66 77.411L152.06 77.411M152.61 72.111L152.61 66.611L152.11 66.611M152.36 76.811L152.66 77.411M152.11 72.111L152.61 72.111M152.11 66.611L152.11 72.111M152.06 77.411L152.36 76.811M150.11 72.111L150.11 66.611L149.61 66.611M149.86 66.001L154.92 66.001M149.86 66.001L144.8 66.001M149.61 72.111L150.11 72.111M149.61 66.611L149.61 72.111M147.61 72.111L147.61 66.611L147.11 66.611M147.11 72.111L147.61 72.111M147.11 66.611L147.11 72.111M146.22 77.721L146.22 73.221L149.86 73.221M144.8 77.721L146.22 77.721M144.8 66.001L144.8 77.721M137.305 85.09L137.305 86.51M125.585 85.09L137.305 85.09M137.305 86.51L132.805 86.51L132.805 88.9M136.995 87.35L136.995 87.95M131.695 87.4L126.195 87.4L126.195 87.9M136.395 87.65L136.995 87.35M131.695 87.9L131.695 87.4M126.195 87.9L131.695 87.9M136.995 87.95L136.395 87.65M125.585 88.9L125.585 85.09M125.585 88.9L125.585 92.71M131.695 89.9L126.195 89.9L126.195 90.4M131.695 90.4L131.695 89.9M126.195 90.4L131.695 90.4M137.305 91.29L132.805 91.29L132.805 88.9M137.305 92.71L137.305 91.29M125.585 92.71L137.305 92.71M152.2506 115.554L149.4506 115.554M152.2506 113.554L152.2506 115.554M149.4506 115.554L149.4506 113.554L152.2506 113.554M149.736 123.301L146.936 123.301M149.736 121.301L149.736 123.301M146.936 123.301L146.936 121.301L149.736 121.301M141.286 70.365L140.236 70.365M141.286 67.865L141.286 70.365M140.236 70.365L140.236 71.355M140.116 65.895L136.236 65.895M135.066 70.365L136.116 70.365M135.066 67.865L135.066 70.365M143.263252 126.465L142.740748 126.465M143.263252 124.995L142.740748 124.995M141.585 103.886L141.585 107.336M141.585 103.886L141.585 101.936M146.705 103.886L146.705 105.836M146.705 103.886L146.705 101.936M149.736 125.841L146.936 125.841M149.736 123.841L149.736 125.841M146.936 125.841L146.936 123.841L149.736 123.841M128.838 107.37L127.508 107.37M128.838 106.04L128.838 107.37M128.838 104.77L128.838 94.55M128.838 104.77L126.178 104.77M128.838 94.55L126.178 94.55M126.178 104.77L126.178 94.55M137.176 117.986L137.176 115.186M139.176 117.986L137.176 117.986M137.176 115.186L139.176 115.186L139.176 117.986M140.562 95.657936L140.562 96.112064M139.092 95.657936L139.092 96.112064M148.944 117.340748L148.944 117.863252M147.474 117.340748L147.474 117.863252M162.206 106.272064L162.206 105.817936M163.676 106.272064L163.676 105.817936M137.305 74.93L137.305 76.35M125.585 74.93L137.305 74.93M137.305 76.35L132.805 76.35L132.805 78.74M136.995 77.19L136.995 77.79M131.695 77.24L126.195 77.24L126.195 77.74M136.395 77.49L136.995 77.19M131.695 77.74L131.695 77.24M126.195 77.74L131.695 77.74M136.995 77.79L136.395 77.49M125.585 78.74L125.585 74.93M125.585 78.74L125.585 82.55M131.695 79.74L126.195 79.74L126.195 80.24M131.695 80.24L131.695 79.74M126.195 80.24L131.695 80.24M137.305 81.13L132.805 81.13L132.805 78.74M137.305 82.55L137.305 81.13M125.585 82.55L137.305 82.55M137.5038 105.532L139.2038 105.532M137.5038 105.532L137.5038 102.382M139.2038 105.532L139.2038 102.382M137.652 106.296L137.652 109.096M135.652 106.296L137.652 106.296M137.652 109.096L135.652 109.096L135.652 106.296M140.616 118.591064L140.616 118.136936M142.086 118.591064L142.086 118.136936M146.658 95.657936L146.658 96.112064M145.188 95.657936L145.188 96.112064M143.136252 98.906L142.613748 98.906M143.136252 97.436L142.613748 97.436M169.906 77.721L168.486 77.721M169.906 66.001L169.906 77.721M168.486 77.721L168.486 73.221L163.596 73.221M167.646 77.411L167.046 77.411M167.596 72.111L167.596 66.611L167.096 66.611M167.346 76.811L167.646 77.411M167.096 72.111L167.596 72.111M167.096 66.611L167.096 72.111M167.046 77.411L167.346 76.811M165.096 72.111L165.096 66.611L164.596 66.611M164.596 72.111L165.096 72.111M164.596 66.611L164.596 72.111M163.596 66.001L169.906 66.001M163.596 66.001L157.286 66.001M162.596 72.111L162.596 66.611L162.096 66.611M162.096 72.111L162.596 72.111M162.096 66.611L162.096 72.111M160.096 72.111L160.096 66.611L159.596 66.611M159.596 72.111L160.096 72.111M159.596 66.611L159.596 72.111M158.706 77.721L158.706 73.221L163.596 73.221M157.286 77.721L158.706 77.721M157.286 66.001L157.286 77.721M157.614252 108.05L157.091748 108.05M157.614252 106.58L157.091748 106.58M142.356 124.292L144.806 124.292M144.156 121.072L142.356 121.072M157.614252 105.637L157.091748 105.637M157.614252 104.167L157.091748 104.167"></path></svg>