<svg version="1.1" xmlns="http://www.w3.org/2000/svg" xmlns:xlink="http://www.w3.org/1999/xlink" stroke-linecap="round" stroke-linejoin="round" stroke-width="0" fill-rule="evenodd" clip-rule="evenodd" fill="currentColor" stroke="currentColor" viewBox="124.968 65.674 55.999999999999986 65.5" width="55.999999999999986mm" height="65.5mm"><circle cx="128.468" cy="129.574" r="0.4"></circle><circle cx="126.770944" cy="125.476944" r="0.4"></circle><circle cx="126.770944" cy="128.871056" r="0.4"></circle><circle cx="126.068" cy="127.174" r="0.4"></circle><circle cx="128.468" cy="127.174" r="3.2"></circle><circle cx="128.468" cy="124.774" r="0.4"></circle><circle cx="130.165056" cy="128.871056" r="0.4"></circle><circle cx="130.165056" cy="125.476944" r="0.4"></circle><circle cx="130.868" cy="127.174" r="0.4"></circle><circle cx="128.468" cy="71.574" r="0.4"></circle><circle cx="126.770944" cy="67.476944" r="0.4"></circle><circle cx="126.770944" cy="70.871056" r="0.4"></circle><circle cx="126.068" cy="69.174" r="0.4"></circle><circle cx="128.468" cy="69.174" r="3.2"></circle><circle cx="128.468" cy="66.774" r="0.4"></circle><circle cx="130.165056" cy="70.871056" r="0.4"></circle><circle cx="130.165056" cy="67.476944" r="0.4"></circle><circle cx="130.868" cy="69.174" r="0.4"></circle><rect x="163.482999" y="127.673999" width="1.7" height="1.7"></rect><rect x="166.022999" y="127.673999" width="1.7" height="1.7" rx="0.85" ry="0.85"></rect><circle cx="132.588" cy="112.554" r="0.756"></circle><circle cx="132.588" cy="114.554" r="0.756"></circle><circle cx="132.588" cy="116.554" r="0.756"></circle><circle cx="132.588" cy="109.704" r="1.227"></circle><circle cx="132.588" cy="119.404" r="1.227"></circle><circle cx="152.527" cy="84.963" r="1.1"></circle><circle cx="168.529" cy="98.425" r="1.1"></circle><g><polygon points="152.96,74.58600000000001 151.76000000000002,74.58600000000001 151.76000000000002,76.036 152.96,76.036 152.96,74.58600000000001"></polygon><circle cx="152.96" cy="74.58600000000001" r="0.25"></circle><circle cx="151.76000000000002" cy="74.58600000000001" r="0.25"></circle><circle cx="151.76000000000002" cy="76.036" r="0.25"></circle><circle cx="152.96" cy="76.036" r="0.25"></circle><polygon points="152.71,74.58600000000001 151.51000000000002,74.58600000000001 152.01000000000002,74.58600000000001 153.21,74.58600000000001"></polygon><polygon points="151.76000000000002,74.33600000000001 151.76000000000002,75.786 151.76000000000002,76.286 151.76000000000002,74.83600000000001"></polygon><polygon points="152.01000000000002,76.036 153.21,76.036 152.71,76.036 151.51000000000002,76.036"></polygon><polygon points="152.96,76.286 152.96,74.83600000000001 152.96,74.33600000000001 152.96,75.786"></polygon></g><rect x="149.009999" y="74.33599899999999" width="1.7" height="1.95" rx="0.85" ry="0.85"></rect><rect x="146.509999" y="74.33599899999999" width="1.7" height="1.95" rx="0.85" ry="0.85"></rect><g><polygon points="134.145,87.05000000000001 134.145,88.25 135.645,88.25 135.645,87.05000000000001 134.145,87.05000000000001"></polygon><circle cx="134.145" cy="87.05000000000001" r="0.25"></circle><circle cx="134.145" cy="88.25" r="0.25"></circle><circle cx="135.645" cy="88.25" r="0.25"></circle><circle cx="135.645" cy="87.05000000000001" r="0.25"></circle><polygon points="134.145,86.80000000000001 134.145,88 134.145,88.5 134.145,87.30000000000001"></polygon><polygon points="134.395,88.25 135.895,88.25 135.395,88.25 133.895,88.25"></polygon><polygon points="135.645,88.5 135.645,87.30000000000001 135.645,86.80000000000001 135.645,88"></polygon><polygon points="135.395,87.05000000000001 133.895,87.05000000000001 134.395,87.05000000000001 135.895,87.05000000000001"></polygon></g><rect x="133.894999" y="89.29999899999999" width="2" height="1.7" rx="0.85" ry="0.85"></rect><rect x="126.657999" y="105.18999899999999" width="1.7" height="1.7"></rect><rect x="126.657999" y="102.649999" width="1.7" height="1.7" rx="0.85" ry="0.85"></rect><rect x="126.657999" y="100.10999899999999" width="1.7" height="1.7" rx="0.85" ry="0.85"></rect><rect x="126.657999" y="97.569999" width="1.7" height="1.7" rx="0.85" ry="0.85"></rect><rect x="126.657999" y="95.02999899999999" width="1.7" height="1.7" rx="0.85" ry="0.85"></rect><circle cx="169.418" cy="84.074" r="0.762"></circle><circle cx="169.418" cy="86.614" r="0.762"></circle><circle cx="169.418" cy="89.154" r="0.762"></circle><circle cx="169.418" cy="91.694" r="0.762"></circle><circle cx="169.418" cy="94.234" r="0.762"></circle><circle cx="166.878" cy="94.234" r="0.762"></circle><g><polygon points="134.145,76.89 134.145,78.08999999999999 135.645,78.08999999999999 135.645,76.89 134.145,76.89"></polygon><circle cx="134.145" cy="76.89" r="0.25"></circle><circle cx="134.145" cy="78.08999999999999" r="0.25"></circle><circle cx="135.645" cy="78.08999999999999" r="0.25"></circle><circle cx="135.645" cy="76.89" r="0.25"></circle><polygon points="134.145,76.64 134.145,77.83999999999999 134.145,78.33999999999999 134.145,77.14"></polygon><polygon points="134.395,78.08999999999999 135.895,78.08999999999999 135.395,78.08999999999999 133.895,78.08999999999999"></polygon><polygon points="135.645,78.33999999999999 135.645,77.14 135.645,76.64 135.645,77.83999999999999"></polygon><polygon points="135.395,76.89 133.895,76.89 134.395,76.89 135.895,76.89"></polygon></g><rect x="133.894999" y="79.13999899999999" width="2" height="1.7" rx="0.85" ry="0.85"></rect><g><polygon points="167.946,74.58600000000001 166.746,74.58600000000001 166.746,76.036 167.946,76.036 167.946,74.58600000000001"></polygon><circle cx="167.946" cy="74.58600000000001" r="0.25"></circle><circle cx="166.746" cy="74.58600000000001" r="0.25"></circle><circle cx="166.746" cy="76.036" r="0.25"></circle><circle cx="167.946" cy="76.036" r="0.25"></circle><polygon points="167.696,74.58600000000001 166.496,74.58600000000001 166.996,74.58600000000001 168.196,74.58600000000001"></polygon><polygon points="166.746,74.33600000000001 166.746,75.786 166.746,76.286 166.746,74.83600000000001"></polygon><polygon points="166.996,76.036 168.196,76.036 167.696,76.036 166.496,76.036"></polygon><polygon points="167.946,76.286 167.946,74.83600000000001 167.946,74.33600000000001 167.946,75.786"></polygon></g><rect x="163.995999" y="74.33599899999999" width="1.7" height="1.95" rx="0.85" ry="0.85"></rect><rect x="161.495999" y="74.33599899999999" width="1.7" height="1.95" rx="0.85" ry="0.85"></rect><rect x="158.995999" y="74.33599899999999" width="1.7" height="1.95" rx="0.85" ry="0.85"></rect><rect x="175.34799900000002" y="73.19399899999999" width="1.7" height="1.7"></rect><rect x="177.887999" y="73.19399899999999" width="1.7" height="1.7" rx="0.85" ry="0.85"></rect><rect x="175.34799900000002" y="75.733999" width="1.7" height="1.7" rx="0.85" ry="0.85"></rect><rect x="177.887999" y="75.733999" width="1.7" height="1.7" rx="0.85" ry="0.85"></rect><rect x="175.34799900000002" y="78.27399899999999" width="1.7" height="1.7" rx="0.85" ry="0.85"></rect><rect x="177.887999" y="78.27399899999999" width="1.7" height="1.7" rx="0.85" ry="0.85"></rect><rect x="175.34799900000002" y="80.813999" width="1.7" height="1.7" rx="0.85" ry="0.85"></rect><rect x="177.887999" y="80.813999" width="1.7" height="1.7" rx="0.85" ry="0.85"></rect><rect x="175.34799900000002" y="83.35399899999999" width="1.7" height="1.7" rx="0.85" ry="0.85"></rect><rect x="177.887999" y="83.35399899999999" width="1.7" height="1.7" rx="0.85" ry="0.85"></rect><rect x="175.34799900000002" y="85.893999" width="1.7" height="1.7" rx="0.85" ry="0.85"></rect><rect x="177.887999" y="85.893999" width="1.7" height="1.7" rx="0.85" ry="0.85"></rect><rect x="175.34799900000002" y="88.43399899999999" width="1.7" height="1.7" rx="0.85" ry="0.85"></rect><rect x="177.887999" y="88.43399899999999" width="1.7" height="1.7" rx="0.85" ry="0.85"></rect><rect x="175.34799900000002" y="90.97399899999999" width="1.7" height="1.7" rx="0.85" ry="0.85"></rect><rect x="177.887999" y="90.97399899999999" width="1.7" height="1.7" rx="0.85" ry="0.85"></rect><rect x="175.34799900000002" y="93.513999" width="1.7" height="1.7" rx="0.85" ry="0.85"></rect><rect x="177.887999" y="93.513999" width="1.7" height="1.7" rx="0.85" ry="0.85"></rect><rect x="175.34799900000002" y="96.05399899999999" width="1.7" height="1.7" rx="0.85" ry="0.85"></rect><rect x="177.887999" y="96.05399899999999" width="1.7" height="1.7" rx="0.85" ry="0.85"></rect><rect x="175.34799900000002" y="98.593999" width="1.7" height="1.7" rx="0.85" ry="0.85"></rect><rect x="177.887999" y="98.593999" width="1.7" height="1.7" rx="0.85" ry="0.85"></rect><rect x="175.34799900000002" y="101.13399899999999" width="1.7" height="1.7" rx="0.85" ry="0.85"></rect><rect x="177.887999" y="101.13399899999999" width="1.7" height="1.7" rx="0.85" ry="0.85"></rect><rect x="175.34799900000002" y="103.673999" width="1.7" height="1.7" rx="0.85" ry="0.85"></rect><rect x="177.887999" y="103.673999" width="1.7" height="1.7" rx="0.85" ry="0.85"></rect><rect x="175.34799900000002" y="106.21399899999999" width="1.7" height="1.7" rx="0.85" ry="0.85"></rect><rect x="177.887999" y="106.21399899999999" width="1.7" height="1.7" rx="0.85" ry="0.85"></rect><rect x="175.34799900000002" y="108.753999" width="1.7" height="1.7" rx="0.85" ry="0.85"></rect><rect x="177.887999" y="108.753999" width="1.7" height="1.7" rx="0.85" ry="0.85"></rect><rect x="175.34799900000002" y="111.29399899999999" width="1.7" height="1.7" rx="0.85" ry="0.85"></rect><rect x="177.887999" y="111.29399899999999" width="1.7" height="1.7" rx="0.85" ry="0.85"></rect><rect x="175.34799900000002" y="113.83399899999999" width="1.7" height="1.7" rx="0.85" ry="0.85"></rect><rect x="177.887999" y="113.83399899999999" width="1.7" height="1.7" rx="0.85" ry="0.85"></rect><rect x="175.34799900000002" y="116.373999" width="1.7" height="1.7" rx="0.85" ry="0.85"></rect><rect x="177.887999" y="116.373999" width="1.7" height="1.7" rx="0.85" ry="0.85"></rect><rect x="175.34799900000002" y="118.91399899999999" width="1.7" height="1.7" rx="0.85" ry="0.85"></rect><rect x="177.887999" y="118.91399899999999" width="1.7" height="1.7" rx="0.85" ry="0.85"></rect><rect x="175.34799900000002" y="121.453999" width="1.7" height="1.7" rx="0.85" ry="0.85"></rect><rect x="177.887999" y="121.453999" width="1.7" height="1.7" rx="0.85" ry="0.85"></rect><rect x="136.54199899999998" y="118.099999" width="5.1" height="5.1"></rect><rect x="162.141999" y="118.099999" width="5.1" height="5.1"></rect><circle cx="151.892" cy="120.65" r="8.9"></circle></svg>