<svg version="1.1" xmlns="http://www.w3.org/2000/svg" xmlns:xlink="http://www.w3.org/1999/xlink" stroke-linecap="round" stroke-linejoin="round" stroke-width="0" fill-rule="evenodd" clip-rule="evenodd" fill="currentColor" stroke="currentColor" viewBox="124.968 65.674 55.999999999999986 65.5" width="55.999999999999986mm" height="65.5mm"><path d="M151.1006 114.854L150.6006 114.854L150.6006 114.254L151.1006 114.254L151.1006 114.854"></path><path d="M136.952 107.946L136.352 107.946L136.352 107.446L136.952 107.446L136.952 107.946"></path><circle cx="128.468" cy="129.574" r="0.4"></circle><circle cx="126.770944" cy="125.476944" r="0.4"></circle><circle cx="126.770944" cy="128.871056" r="0.4"></circle><circle cx="126.068" cy="127.174" r="0.4"></circle><circle cx="128.468" cy="127.174" r="3.2"></circle><circle cx="128.468" cy="124.774" r="0.4"></circle><circle cx="130.165056" cy="128.871056" r="0.4"></circle><circle cx="130.165056" cy="125.476944" r="0.4"></circle><circle cx="130.868" cy="127.174" r="0.4"></circle><circle cx="128.468" cy="71.574" r="0.4"></circle><circle cx="126.770944" cy="67.476944" r="0.4"></circle><circle cx="126.770944" cy="70.871056" r="0.4"></circle><circle cx="126.068" cy="69.174" r="0.4"></circle><circle cx="128.468" cy="69.174" r="3.2"></circle><circle cx="128.468" cy="66.774" r="0.4"></circle><circle cx="130.165056" cy="70.871056" r="0.4"></circle><circle cx="130.165056" cy="67.476944" r="0.4"></circle><circle cx="130.868" cy="69.174" r="0.4"></circle><rect x="163.482999" y="127.673999" width="1.7" height="1.7"></rect><rect x="166.022999" y="127.673999" width="1.7" height="1.7" rx="0.85" ry="0.85"></rect><g><polygon points="155.13,110.00500000000001 156.88,110.00500000000001 156.88,109.705 155.13,109.705 155.13,110.00500000000001"></polygon><circle cx="155.13" cy="110.00500000000001" r="0.15"></circle><circle cx="156.88" cy="110.00500000000001" r="0.15"></circle><circle cx="156.88" cy="109.705" r="0.15"></circle><circle cx="155.13" cy="109.705" r="0.15"></circle><polygon points="155.28,110.00500000000001 157.03,110.00500000000001 156.73,110.00500000000001 154.98,110.00500000000001"></polygon><polygon points="156.88,110.155 156.88,109.855 156.88,109.555 156.88,109.855"></polygon><polygon points="156.73,109.705 154.98,109.705 155.28,109.705 157.03,109.705"></polygon><polygon points="155.13,109.555 155.13,109.855 155.13,110.155 155.13,109.855"></polygon></g><g><polygon points="155.13,111.275 156.88,111.275 156.88,110.975 155.13,110.975 155.13,111.275"></polygon><circle cx="155.13" cy="111.275" r="0.15"></circle><circle cx="156.88" cy="111.275" r="0.15"></circle><circle cx="156.88" cy="110.975" r="0.15"></circle><circle cx="155.13" cy="110.975" r="0.15"></circle><polygon points="155.28,111.275 157.03,111.275 156.73,111.275 154.98,111.275"></polygon><polygon points="156.88,111.425 156.88,111.125 156.88,110.825 156.88,111.125"></polygon><polygon points="156.73,110.975 154.98,110.975 155.28,110.975 157.03,110.975"></polygon><polygon points="155.13,110.825 155.13,111.125 155.13,111.425 155.13,111.125"></polygon></g><g><polygon points="155.13,112.545 156.88,112.545 156.88,112.24499999999999 155.13,112.24499999999999 155.13,112.545"></polygon><circle cx="155.13" cy="112.545" r="0.15"></circle><circle cx="156.88" cy="112.545" r="0.15"></circle><circle cx="156.88" cy="112.24499999999999" r="0.15"></circle><circle cx="155.13" cy="112.24499999999999" r="0.15"></circle><polygon points="155.28,112.545 157.03,112.545 156.73,112.545 154.98,112.545"></polygon><polygon points="156.88,112.695 156.88,112.395 156.88,112.095 156.88,112.395"></polygon><polygon points="156.73,112.24499999999999 154.98,112.24499999999999 155.28,112.24499999999999 157.03,112.24499999999999"></polygon><polygon points="155.13,112.095 155.13,112.395 155.13,112.695 155.13,112.395"></polygon></g><g><polygon points="155.13,113.81500000000001 156.88,113.81500000000001 156.88,113.515 155.13,113.515 155.13,113.81500000000001"></polygon><circle cx="155.13" cy="113.81500000000001" r="0.15"></circle><circle cx="156.88" cy="113.81500000000001" r="0.15"></circle><circle cx="156.88" cy="113.515" r="0.15"></circle><circle cx="155.13" cy="113.515" r="0.15"></circle><polygon points="155.28,113.81500000000001 157.03,113.81500000000001 156.73,113.81500000000001 154.98,113.81500000000001"></polygon><polygon points="156.88,113.965 156.88,113.665 156.88,113.36500000000001 156.88,113.665"></polygon><polygon points="156.73,113.515 154.98,113.515 155.28,113.515 157.03,113.515"></polygon><polygon points="155.13,113.36500000000001 155.13,113.665 155.13,113.965 155.13,113.665"></polygon></g><g><polygon points="155.13,115.08500000000001 156.88,115.08500000000001 156.88,114.785 155.13,114.785 155.13,115.08500000000001"></polygon><circle cx="155.13" cy="115.08500000000001" r="0.15"></circle><circle cx="156.88" cy="115.08500000000001" r="0.15"></circle><circle cx="156.88" cy="114.785" r="0.15"></circle><circle cx="155.13" cy="114.785" r="0.15"></circle><polygon points="155.28,115.08500000000001 157.03,115.08500000000001 156.73,115.08500000000001 154.98,115.08500000000001"></polygon><polygon points="156.88,115.235 156.88,114.935 156.88,114.635 156.88,114.935"></polygon><polygon points="156.73,114.785 154.98,114.785 155.28,114.785 157.03,114.785"></polygon><polygon points="155.13,114.635 155.13,114.935 155.13,115.235 155.13,114.935"></polygon></g><g><polygon points="155.13,116.355 156.88,116.355 156.88,116.05499999999999 155.13,116.05499999999999 155.13,116.355"></polygon><circle cx="155.13" cy="116.355" r="0.15"></circle><circle cx="156.88" cy="116.355" r="0.15"></circle><circle cx="156.88" cy="116.05499999999999" r="0.15"></circle><circle cx="155.13" cy="116.05499999999999" r="0.15"></circle><polygon points="155.28,116.355 157.03,116.355 156.73,116.355 154.98,116.355"></polygon><polygon points="156.88,116.505 156.88,116.205 156.88,115.905 156.88,116.205"></polygon><polygon points="156.73,116.05499999999999 154.98,116.05499999999999 155.28,116.05499999999999 157.03,116.05499999999999"></polygon><polygon points="155.13,115.905 155.13,116.205 155.13,116.505 155.13,116.205"></polygon></g><g><polygon points="155.13,117.625 156.88,117.625 156.88,117.32499999999999 155.13,117.32499999999999 155.13,117.625"></polygon><circle cx="155.13" cy="117.625" r="0.15"></circle><circle cx="156.88" cy="117.625" r="0.15"></circle><circle cx="156.88" cy="117.32499999999999" r="0.15"></circle><circle cx="155.13" cy="117.32499999999999" r="0.15"></circle><polygon points="155.28,117.625 157.03,117.625 156.73,117.625 154.98,117.625"></polygon><polygon points="156.88,117.77499999999999 156.88,117.475 156.88,117.175 156.88,117.475"></polygon><polygon points="156.73,117.32499999999999 154.98,117.32499999999999 155.28,117.32499999999999 157.03,117.32499999999999"></polygon><polygon points="155.13,117.175 155.13,117.475 155.13,117.77499999999999 155.13,117.475"></polygon></g><g><polygon points="155.13,118.89500000000001 156.88,118.89500000000001 156.88,118.595 155.13,118.595 155.13,118.89500000000001"></polygon><circle cx="155.13" cy="118.89500000000001" r="0.15"></circle><circle cx="156.88" cy="118.89500000000001" r="0.15"></circle><circle cx="156.88" cy="118.595" r="0.15"></circle><circle cx="155.13" cy="118.595" r="0.15"></circle><polygon points="155.28,118.89500000000001 157.03,118.89500000000001 156.73,118.89500000000001 154.98,118.89500000000001"></polygon><polygon points="156.88,119.045 156.88,118.745 156.88,118.44500000000001 156.88,118.745"></polygon><polygon points="156.73,118.595 154.98,118.595 155.28,118.595 157.03,118.595"></polygon><polygon points="155.13,118.44500000000001 155.13,118.745 155.13,119.045 155.13,118.745"></polygon></g><g><polygon points="164.43,118.89500000000001 166.18,118.89500000000001 166.18,118.595 164.43,118.595 164.43,118.89500000000001"></polygon><circle cx="164.43" cy="118.89500000000001" r="0.15"></circle><circle cx="166.18" cy="118.89500000000001" r="0.15"></circle><circle cx="166.18" cy="118.595" r="0.15"></circle><circle cx="164.43" cy="118.595" r="0.15"></circle><polygon points="164.58,118.89500000000001 166.33,118.89500000000001 166.03,118.89500000000001 164.28,118.89500000000001"></polygon><polygon points="166.18,119.045 166.18,118.745 166.18,118.44500000000001 166.18,118.745"></polygon><polygon points="166.03,118.595 164.28,118.595 164.58,118.595 166.33,118.595"></polygon><polygon points="164.43,118.44500000000001 164.43,118.745 164.43,119.045 164.43,118.745"></polygon></g><g><polygon points="164.43,117.625 166.18,117.625 166.18,117.32499999999999 164.43,117.32499999999999 164.43,117.625"></polygon><circle cx="164.43" cy="117.625" r="0.15"></circle><circle cx="166.18" cy="117.625" r="0.15"></circle><circle cx="166.18" cy="117.32499999999999" r="0.15"></circle><circle cx="164.43" cy="117.32499999999999" r="0.15"></circle><polygon points="164.58,117.625 166.33,117.625 166.03,117.625 164.28,117.625"></polygon><polygon points="166.18,117.77499999999999 166.18,117.475 166.18,117.175 166.18,117.475"></polygon><polygon points="166.03,117.32499999999999 164.28,117.32499999999999 164.58,117.32499999999999 166.33,117.32499999999999"></polygon><polygon points="164.43,117.175 164.43,117.475 164.43,117.77499999999999 164.43,117.475"></polygon></g><g><polygon points="164.43,116.355 166.18,116.355 166.18,116.05499999999999 164.43,116.05499999999999 164.43,116.355"></polygon><circle cx="164.43" cy="116.355" r="0.15"></circle><circle cx="166.18" cy="116.355" r="0.15"></circle><circle cx="166.18" cy="116.05499999999999" r="0.15"></circle><circle cx="164.43" cy="116.05499999999999" r="0.15"></circle><polygon points="164.58,116.355 166.33,116.355 166.03,116.355 164.28,116.355"></polygon><polygon points="166.18,116.505 166.18,116.205 166.18,115.905 166.18,116.205"></polygon><polygon points="166.03,116.05499999999999 164.28,116.05499999999999 164.58,116.05499999999999 166.33,116.05499999999999"></polygon><polygon points="164.43,115.905 164.43,116.205 164.43,116.505 164.43,116.205"></polygon></g><g><polygon points="164.43,115.08500000000001 166.18,115.08500000000001 166.18,114.785 164.43,114.785 164.43,115.08500000000001"></polygon><circle cx="164.43" cy="115.08500000000001" r="0.15"></circle><circle cx="166.18" cy="115.08500000000001" r="0.15"></circle><circle cx="166.18" cy="114.785" r="0.15"></circle><circle cx="164.43" cy="114.785" r="0.15"></circle><polygon points="164.58,115.08500000000001 166.33,115.08500000000001 166.03,115.08500000000001 164.28,115.08500000000001"></polygon><polygon points="166.18,115.235 166.18,114.935 166.18,114.635 166.18,114.935"></polygon><polygon points="166.03,114.785 164.28,114.785 164.58,114.785 166.33,114.785"></polygon><polygon points="164.43,114.635 164.43,114.935 164.43,115.235 164.43,114.935"></polygon></g><g><polygon points="164.43,113.81500000000001 166.18,113.81500000000001 166.18,113.515 164.43,113.515 164.43,113.81500000000001"></polygon><circle cx="164.43" cy="113.81500000000001" r="0.15"></circle><circle cx="166.18" cy="113.81500000000001" r="0.15"></circle><circle cx="166.18" cy="113.515" r="0.15"></circle><circle cx="164.43" cy="113.515" r="0.15"></circle><polygon points="164.58,113.81500000000001 166.33,113.81500000000001 166.03,113.81500000000001 164.28,113.81500000000001"></polygon><polygon points="166.18,113.965 166.18,113.665 166.18,113.36500000000001 166.18,113.665"></polygon><polygon points="166.03,113.515 164.28,113.515 164.58,113.515 166.33,113.515"></polygon><polygon points="164.43,113.36500000000001 164.43,113.665 164.43,113.965 164.43,113.665"></polygon></g><g><polygon points="164.43,112.545 166.18,112.545 166.18,112.24499999999999 164.43,112.24499999999999 164.43,112.545"></polygon><circle cx="164.43" cy="112.545" r="0.15"></circle><circle cx="166.18" cy="112.545" r="0.15"></circle><circle cx="166.18" cy="112.24499999999999" r="0.15"></circle><circle cx="164.43" cy="112.24499999999999" r="0.15"></circle><polygon points="164.58,112.545 166.33,112.545 166.03,112.545 164.28,112.545"></polygon><polygon points="166.18,112.695 166.18,112.395 166.18,112.095 166.18,112.395"></polygon><polygon points="166.03,112.24499999999999 164.28,112.24499999999999 164.58,112.24499999999999 166.33,112.24499999999999"></polygon><polygon points="164.43,112.095 164.43,112.395 164.43,112.695 164.43,112.395"></polygon></g><g><polygon points="164.43,111.275 166.18,111.275 166.18,110.975 164.43,110.975 164.43,111.275"></polygon><circle cx="164.43" cy="111.275" r="0.15"></circle><circle cx="166.18" cy="111.275" r="0.15"></circle><circle cx="166.18" cy="110.975" r="0.15"></circle><circle cx="164.43" cy="110.975" r="0.15"></circle><polygon points="164.58,111.275 166.33,111.275 166.03,111.275 164.28,111.275"></polygon><polygon points="166.18,111.425 166.18,111.125 166.18,110.825 166.18,111.125"></polygon><polygon points="166.03,110.975 164.28,110.975 164.58,110.975 166.33,110.975"></polygon><polygon points="164.43,110.825 164.43,111.125 164.43,111.425 164.43,111.125"></polygon></g><g><polygon points="164.43,110.00500000000001 166.18,110.00500000000001 166.18,109.705 164.43,109.705 164.43,110.00500000000001"></polygon><circle cx="164.43" cy="110.00500000000001" r="0.15"></circle><circle cx="166.18" cy="110.00500000000001" r="0.15"></circle><circle cx="166.18" cy="109.705" r="0.15"></circle><circle cx="164.43" cy="109.705" r="0.15"></circle><polygon points="164.58,110.00500000000001 166.33,110.00500000000001 166.03,110.00500000000001 164.28,110.00500000000001"></polygon><polygon points="166.18,110.155 166.18,109.855 166.18,109.555 166.18,109.855"></polygon><polygon points="166.03,109.705 164.28,109.705 164.58,109.705 166.33,109.705"></polygon><polygon points="164.43,109.555 164.43,109.855 164.43,110.155 164.43,109.855"></polygon></g><circle cx="132.588" cy="112.554" r="0.654"></circle><circle cx="132.588" cy="114.554" r="0.654"></circle><circle cx="132.588" cy="116.554" r="0.654"></circle><circle cx="132.588" cy="109.704" r="1.125"></circle><circle cx="132.588" cy="119.404" r="1.125"></circle><g><polygon points="139.374999,93.24600099999999 140.27500099999997,93.24600099999999 140.27500099999997,90.395999 139.374999,90.395999 139.374999,93.24600099999999"></polygon><circle cx="139.374999" cy="93.24600099999999" r="0.249999"></circle><circle cx="140.27500099999997" cy="93.24600099999999" r="0.249999"></circle><circle cx="140.27500099999997" cy="90.395999" r="0.249999"></circle><circle cx="139.374999" cy="90.395999" r="0.249999"></circle><polygon points="139.62499799999998,93.24600099999999 140.52499999999998,93.24600099999999 140.025002,93.24600099999999 139.125,93.24600099999999"></polygon><polygon points="140.27500099999997,93.496 140.27500099999997,90.64599799999999 140.27500099999997,90.146 140.27500099999997,92.996002"></polygon><polygon points="140.025002,90.395999 139.125,90.395999 139.62499799999998,90.395999 140.52499999999998,90.395999"></polygon><polygon points="139.374999,90.146 139.374999,92.996002 139.374999,93.496 139.374999,90.64599799999999"></polygon></g><g><polygon points="145.47499900000003,93.24600099999999 146.375001,93.24600099999999 146.375001,90.395999 145.47499900000003,90.395999 145.47499900000003,93.24600099999999"></polygon><circle cx="145.47499900000003" cy="93.24600099999999" r="0.249999"></circle><circle cx="146.375001" cy="93.24600099999999" r="0.249999"></circle><circle cx="146.375001" cy="90.395999" r="0.249999"></circle><circle cx="145.47499900000003" cy="90.395999" r="0.249999"></circle><polygon points="145.724998,93.24600099999999 146.625,93.24600099999999 146.12500200000002,93.24600099999999 145.22500000000002,93.24600099999999"></polygon><polygon points="146.375001,93.496 146.375001,90.64599799999999 146.375001,90.146 146.375001,92.996002"></polygon><polygon points="146.12500200000002,90.395999 145.22500000000002,90.395999 145.724998,90.395999 146.625,90.395999"></polygon><polygon points="145.47499900000003,90.146 145.47499900000003,92.996002 145.47499900000003,93.496 145.47499900000003,90.64599799999999"></polygon></g><g><polygon points="141.826,115.67500000000001 141.826,115 140.876,115 140.876,115.67500000000001 141.826,115.67500000000001"></polygon><circle cx="141.826" cy="115.67500000000001" r="0.25"></circle><circle cx="141.826" cy="115" r="0.25"></circle><circle cx="140.876" cy="115" r="0.25"></circle><circle cx="140.876" cy="115.67500000000001" r="0.25"></circle><polygon points="141.826,115.92500000000001 141.826,115.25 141.826,114.75 141.826,115.42500000000001"></polygon><polygon points="141.576,115 140.626,115 141.126,115 142.076,115"></polygon><polygon points="140.876,114.75 140.876,115.42500000000001 140.876,115.92500000000001 140.876,115.25"></polygon><polygon points="141.126,115.67500000000001 142.076,115.67500000000001 141.576,115.67500000000001 140.626,115.67500000000001"></polygon></g><g><polygon points="141.826,113.60000000000001 141.826,112.925 140.876,112.925 140.876,113.60000000000001 141.826,113.60000000000001"></polygon><circle cx="141.826" cy="113.60000000000001" r="0.25"></circle><circle cx="141.826" cy="112.925" r="0.25"></circle><circle cx="140.876" cy="112.925" r="0.25"></circle><circle cx="140.876" cy="113.60000000000001" r="0.25"></circle><polygon points="141.826,113.85000000000001 141.826,113.175 141.826,112.675 141.826,113.35000000000001"></polygon><polygon points="141.576,112.925 140.626,112.925 141.126,112.925 142.076,112.925"></polygon><polygon points="140.876,112.675 140.876,113.35000000000001 140.876,113.85000000000001 140.876,113.175"></polygon><polygon points="141.126,113.60000000000001 142.076,113.60000000000001 141.576,113.60000000000001 140.626,113.60000000000001"></polygon></g><g><polygon points="144.711,111.807 144.711,112.50699999999999 145.611,112.50699999999999 145.611,111.807 144.711,111.807"></polygon><circle cx="144.711" cy="111.807" r="0.25"></circle><circle cx="144.711" cy="112.50699999999999" r="0.25"></circle><circle cx="145.611" cy="112.50699999999999" r="0.25"></circle><circle cx="145.611" cy="111.807" r="0.25"></circle><polygon points="144.711,111.557 144.711,112.25699999999999 144.711,112.75699999999999 144.711,112.057"></polygon><polygon points="144.961,112.50699999999999 145.861,112.50699999999999 145.361,112.50699999999999 144.461,112.50699999999999"></polygon><polygon points="145.611,112.75699999999999 145.611,112.057 145.611,111.557 145.611,112.25699999999999"></polygon><polygon points="145.361,111.807 144.461,111.807 144.961,111.807 145.861,111.807"></polygon></g><g><polygon points="144.711,113.807 144.711,114.50699999999999 145.611,114.50699999999999 145.611,113.807 144.711,113.807"></polygon><circle cx="144.711" cy="113.807" r="0.25"></circle><circle cx="144.711" cy="114.50699999999999" r="0.25"></circle><circle cx="145.611" cy="114.50699999999999" r="0.25"></circle><circle cx="145.611" cy="113.807" r="0.25"></circle><polygon points="144.711,113.557 144.711,114.25699999999999 144.711,114.75699999999999 144.711,114.057"></polygon><polygon points="144.961,114.50699999999999 145.861,114.50699999999999 145.361,114.50699999999999 144.461,114.50699999999999"></polygon><polygon points="145.611,114.75699999999999 145.611,114.057 145.611,113.557 145.611,114.25699999999999"></polygon><polygon points="145.361,113.807 144.461,113.807 144.961,113.807 145.861,113.807"></polygon></g><g><polygon points="166.31199999999998,107.395 166.31199999999998,106.69500000000001 165.412,106.69500000000001 165.412,107.395 166.31199999999998,107.395"></polygon><circle cx="166.31199999999998" cy="107.395" r="0.25"></circle><circle cx="166.31199999999998" cy="106.69500000000001" r="0.25"></circle><circle cx="165.412" cy="106.69500000000001" r="0.25"></circle><circle cx="165.412" cy="107.395" r="0.25"></circle><polygon points="166.31199999999998,107.645 166.31199999999998,106.94500000000001 166.31199999999998,106.44500000000001 166.31199999999998,107.145"></polygon><polygon points="166.06199999999998,106.69500000000001 165.162,106.69500000000001 165.662,106.69500000000001 166.56199999999998,106.69500000000001"></polygon><polygon points="165.412,106.44500000000001 165.412,107.145 165.412,107.645 165.412,106.94500000000001"></polygon><polygon points="165.662,107.395 166.56199999999998,107.395 166.06199999999998,107.395 165.162,107.395"></polygon></g><g><polygon points="166.31199999999998,105.395 166.31199999999998,104.69500000000001 165.412,104.69500000000001 165.412,105.395 166.31199999999998,105.395"></polygon><circle cx="166.31199999999998" cy="105.395" r="0.25"></circle><circle cx="166.31199999999998" cy="104.69500000000001" r="0.25"></circle><circle cx="165.412" cy="104.69500000000001" r="0.25"></circle><circle cx="165.412" cy="105.395" r="0.25"></circle><polygon points="166.31199999999998,105.645 166.31199999999998,104.94500000000001 166.31199999999998,104.44500000000001 166.31199999999998,105.145"></polygon><polygon points="166.06199999999998,104.69500000000001 165.162,104.69500000000001 165.662,104.69500000000001 166.56199999999998,104.69500000000001"></polygon><polygon points="165.412,104.44500000000001 165.412,105.145 165.412,105.645 165.412,104.94500000000001"></polygon><polygon points="165.662,105.395 166.56199999999998,105.395 166.06199999999998,105.395 165.162,105.395"></polygon></g><rect x="134.221599" y="104.381999" width="1" height="1"></rect><rect x="134.221599" y="101.881999" width="1" height="1"></rect><rect x="145.785999" y="118.171999" width="0.65" height="1.56"></rect><rect x="143.885999" y="118.171999" width="0.65" height="1.56"></rect><rect x="143.885999" y="115.471999" width="0.65" height="1.56"></rect><rect x="144.83599900000002" y="115.471999" width="0.65" height="1.56"></rect><rect x="145.785999" y="115.471999" width="0.65" height="1.56"></rect><g><polygon points="149.446,103.61 149.446,102.93499999999999 148.496,102.93499999999999 148.496,103.61 149.446,103.61"></polygon><circle cx="149.446" cy="103.61" r="0.25"></circle><circle cx="149.446" cy="102.93499999999999" r="0.25"></circle><circle cx="148.496" cy="102.93499999999999" r="0.25"></circle><circle cx="148.496" cy="103.61" r="0.25"></circle><polygon points="149.446,103.86 149.446,103.18499999999999 149.446,102.68499999999999 149.446,103.36"></polygon><polygon points="149.196,102.93499999999999 148.246,102.93499999999999 148.746,102.93499999999999 149.696,102.93499999999999"></polygon><polygon points="148.496,102.68499999999999 148.496,103.36 148.496,103.86 148.496,103.18499999999999"></polygon><polygon points="148.746,103.61 149.696,103.61 149.196,103.61 148.246,103.61"></polygon></g><g><polygon points="149.446,101.53500000000001 149.446,100.86 148.496,100.86 148.496,101.53500000000001 149.446,101.53500000000001"></polygon><circle cx="149.446" cy="101.53500000000001" r="0.25"></circle><circle cx="149.446" cy="100.86" r="0.25"></circle><circle cx="148.496" cy="100.86" r="0.25"></circle><circle cx="148.496" cy="101.53500000000001" r="0.25"></circle><polygon points="149.446,101.78500000000001 149.446,101.11 149.446,100.61 149.446,101.28500000000001"></polygon><polygon points="149.196,100.86 148.246,100.86 148.746,100.86 149.696,100.86"></polygon><polygon points="148.496,100.61 148.496,101.28500000000001 148.496,101.78500000000001 148.496,101.11"></polygon><polygon points="148.746,101.53500000000001 149.696,101.53500000000001 149.196,101.53500000000001 148.246,101.53500000000001"></polygon></g><g><polygon points="152.96,74.58600000000001 151.76000000000002,74.58600000000001 151.76000000000002,76.036 152.96,76.036 152.96,74.58600000000001"></polygon><circle cx="152.96" cy="74.58600000000001" r="0.25"></circle><circle cx="151.76000000000002" cy="74.58600000000001" r="0.25"></circle><circle cx="151.76000000000002" cy="76.036" r="0.25"></circle><circle cx="152.96" cy="76.036" r="0.25"></circle><polygon points="152.71,74.58600000000001 151.51000000000002,74.58600000000001 152.01000000000002,74.58600000000001 153.21,74.58600000000001"></polygon><polygon points="151.76000000000002,74.33600000000001 151.76000000000002,75.786 151.76000000000002,76.286 151.76000000000002,74.83600000000001"></polygon><polygon points="152.01000000000002,76.036 153.21,76.036 152.71,76.036 151.51000000000002,76.036"></polygon><polygon points="152.96,76.286 152.96,74.83600000000001 152.96,74.33600000000001 152.96,75.786"></polygon></g><rect x="149.009999" y="74.33599899999999" width="1.7" height="1.95" rx="0.85" ry="0.85"></rect><rect x="146.509999" y="74.33599899999999" width="1.7" height="1.95" rx="0.85" ry="0.85"></rect><g><polygon points="134.145,87.05000000000001 134.145,88.25 135.645,88.25 135.645,87.05000000000001 134.145,87.05000000000001"></polygon><circle cx="134.145" cy="87.05000000000001" r="0.25"></circle><circle cx="134.145" cy="88.25" r="0.25"></circle><circle cx="135.645" cy="88.25" r="0.25"></circle><circle cx="135.645" cy="87.05000000000001" r="0.25"></circle><polygon points="134.145,86.80000000000001 134.145,88 134.145,88.5 134.145,87.30000000000001"></polygon><polygon points="134.395,88.25 135.895,88.25 135.395,88.25 133.895,88.25"></polygon><polygon points="135.645,88.5 135.645,87.30000000000001 135.645,86.80000000000001 135.645,88"></polygon><polygon points="135.395,87.05000000000001 133.895,87.05000000000001 134.395,87.05000000000001 135.895,87.05000000000001"></polygon></g><rect x="133.894999" y="89.29999899999999" width="2" height="1.7" rx="0.85" ry="0.85"></rect><rect x="151.000599" y="113.803999" width="1" height="1.5"></rect><rect x="149.700599" y="113.803999" width="1" height="1.5"></rect><rect x="148.485999" y="121.550999" width="1" height="1.5"></rect><rect x="147.185999" y="121.550999" width="1" height="1.5"></rect><g><polygon points="139.826,69.955 139.52599999999998,69.955 139.52599999999998,71.205 139.826,71.205 139.826,69.955"></polygon><circle cx="139.826" cy="69.955" r="0.15"></circle><circle cx="139.52599999999998" cy="69.955" r="0.15"></circle><circle cx="139.52599999999998" cy="71.205" r="0.15"></circle><circle cx="139.826" cy="71.205" r="0.15"></circle><polygon points="139.676,69.955 139.37599999999998,69.955 139.676,69.955 139.976,69.955"></polygon><polygon points="139.52599999999998,69.80499999999999 139.52599999999998,71.05499999999999 139.52599999999998,71.355 139.52599999999998,70.105"></polygon><polygon points="139.676,71.205 139.976,71.205 139.676,71.205 139.37599999999998,71.205"></polygon><polygon points="139.826,71.355 139.826,70.105 139.826,69.80499999999999 139.826,71.05499999999999"></polygon></g><g><polygon points="138.826,69.955 138.52599999999998,69.955 138.52599999999998,71.205 138.826,71.205 138.826,69.955"></polygon><circle cx="138.826" cy="69.955" r="0.15"></circle><circle cx="138.52599999999998" cy="69.955" r="0.15"></circle><circle cx="138.52599999999998" cy="71.205" r="0.15"></circle><circle cx="138.826" cy="71.205" r="0.15"></circle><polygon points="138.676,69.955 138.37599999999998,69.955 138.676,69.955 138.976,69.955"></polygon><polygon points="138.52599999999998,69.80499999999999 138.52599999999998,71.05499999999999 138.52599999999998,71.355 138.52599999999998,70.105"></polygon><polygon points="138.676,71.205 138.976,71.205 138.676,71.205 138.37599999999998,71.205"></polygon><polygon points="138.826,71.355 138.826,70.105 138.826,69.80499999999999 138.826,71.05499999999999"></polygon></g><g><polygon points="137.826,69.955 137.52599999999998,69.955 137.52599999999998,71.205 137.826,71.205 137.826,69.955"></polygon><circle cx="137.826" cy="69.955" r="0.15"></circle><circle cx="137.52599999999998" cy="69.955" r="0.15"></circle><circle cx="137.52599999999998" cy="71.205" r="0.15"></circle><circle cx="137.826" cy="71.205" r="0.15"></circle><polygon points="137.676,69.955 137.37599999999998,69.955 137.676,69.955 137.976,69.955"></polygon><polygon points="137.52599999999998,69.80499999999999 137.52599999999998,71.05499999999999 137.52599999999998,71.355 137.52599999999998,70.105"></polygon><polygon points="137.676,71.205 137.976,71.205 137.676,71.205 137.37599999999998,71.205"></polygon><polygon points="137.826,71.355 137.826,70.105 137.826,69.80499999999999 137.826,71.05499999999999"></polygon></g><g><polygon points="136.826,69.955 136.52599999999998,69.955 136.52599999999998,71.205 136.826,71.205 136.826,69.955"></polygon><circle cx="136.826" cy="69.955" r="0.15"></circle><circle cx="136.52599999999998" cy="69.955" r="0.15"></circle><circle cx="136.52599999999998" cy="71.205" r="0.15"></circle><circle cx="136.826" cy="71.205" r="0.15"></circle><polygon points="136.676,69.955 136.37599999999998,69.955 136.676,69.955 136.976,69.955"></polygon><polygon points="136.52599999999998,69.80499999999999 136.52599999999998,71.05499999999999 136.52599999999998,71.355 136.52599999999998,70.105"></polygon><polygon points="136.676,71.205 136.976,71.205 136.676,71.205 136.37599999999998,71.205"></polygon><polygon points="136.826,71.355 136.826,70.105 136.826,69.80499999999999 136.826,71.05499999999999"></polygon></g><g><polygon points="141.326,66.05499999999999 140.626,66.05499999999999 140.626,67.355 141.326,67.355 141.326,66.05499999999999"></polygon><circle cx="141.326" cy="66.05499999999999" r="0.25"></circle><circle cx="140.626" cy="66.05499999999999" r="0.25"></circle><circle cx="140.626" cy="67.355" r="0.25"></circle><circle cx="141.326" cy="67.355" r="0.25"></circle><polygon points="141.076,66.05499999999999 140.376,66.05499999999999 140.876,66.05499999999999 141.576,66.05499999999999"></polygon><polygon points="140.626,65.80499999999999 140.626,67.105 140.626,67.605 140.626,66.30499999999999"></polygon><polygon points="140.876,67.355 141.576,67.355 141.076,67.355 140.376,67.355"></polygon><polygon points="141.326,67.605 141.326,66.30499999999999 141.326,65.80499999999999 141.326,67.105"></polygon></g><g><polygon points="135.726,66.05499999999999 135.026,66.05499999999999 135.026,67.355 135.726,67.355 135.726,66.05499999999999"></polygon><circle cx="135.726" cy="66.05499999999999" r="0.25"></circle><circle cx="135.026" cy="66.05499999999999" r="0.25"></circle><circle cx="135.026" cy="67.355" r="0.25"></circle><circle cx="135.726" cy="67.355" r="0.25"></circle><polygon points="135.476,66.05499999999999 134.776,66.05499999999999 135.276,66.05499999999999 135.976,66.05499999999999"></polygon><polygon points="135.026,65.80499999999999 135.026,67.105 135.026,67.605 135.026,66.30499999999999"></polygon><polygon points="135.276,67.355 135.976,67.355 135.476,67.355 134.776,67.355"></polygon><polygon points="135.726,67.605 135.726,66.30499999999999 135.726,65.80499999999999 135.726,67.105"></polygon></g><g><polygon points="144.377,125.25500000000001 143.702,125.25500000000001 143.702,126.205 144.377,126.205 144.377,125.25500000000001"></polygon><circle cx="144.377" cy="125.25500000000001" r="0.25"></circle><circle cx="143.702" cy="125.25500000000001" r="0.25"></circle><circle cx="143.702" cy="126.205" r="0.25"></circle><circle cx="144.377" cy="126.205" r="0.25"></circle><polygon points="144.127,125.25500000000001 143.452,125.25500000000001 143.952,125.25500000000001 144.627,125.25500000000001"></polygon><polygon points="143.702,125.00500000000001 143.702,125.955 143.702,126.455 143.702,125.50500000000001"></polygon><polygon points="143.952,126.205 144.627,126.205 144.127,126.205 143.452,126.205"></polygon><polygon points="144.377,126.455 144.377,125.50500000000001 144.377,125.00500000000001 144.377,125.955"></polygon></g><g><polygon points="142.302,125.25500000000001 141.62699999999998,125.25500000000001 141.62699999999998,126.205 142.302,126.205 142.302,125.25500000000001"></polygon><circle cx="142.302" cy="125.25500000000001" r="0.25"></circle><circle cx="141.62699999999998" cy="125.25500000000001" r="0.25"></circle><circle cx="141.62699999999998" cy="126.205" r="0.25"></circle><circle cx="142.302" cy="126.205" r="0.25"></circle><polygon points="142.052,125.25500000000001 141.37699999999998,125.25500000000001 141.87699999999998,125.25500000000001 142.552,125.25500000000001"></polygon><polygon points="141.62699999999998,125.00500000000001 141.62699999999998,125.955 141.62699999999998,126.455 141.62699999999998,125.50500000000001"></polygon><polygon points="141.87699999999998,126.205 142.552,126.205 142.052,126.205 141.37699999999998,126.205"></polygon><polygon points="142.302,126.455 142.302,125.50500000000001 142.302,125.00500000000001 142.302,125.955"></polygon></g><g><polygon points="142.39000000000001,107.186 142.39000000000001,105.536 142.09,105.536 142.09,107.186 142.39000000000001,107.186"></polygon><circle cx="142.39000000000001" cy="107.186" r="0.15"></circle><circle cx="142.39000000000001" cy="105.536" r="0.15"></circle><circle cx="142.09" cy="105.536" r="0.15"></circle><circle cx="142.09" cy="107.186" r="0.15"></circle><polygon points="142.39000000000001,107.336 142.39000000000001,105.686 142.39000000000001,105.38600000000001 142.39000000000001,107.036"></polygon><polygon points="142.24,105.536 141.94,105.536 142.24,105.536 142.54000000000002,105.536"></polygon><polygon points="142.09,105.38600000000001 142.09,107.036 142.09,107.336 142.09,105.686"></polygon><polygon points="142.24,107.186 142.54000000000002,107.186 142.24,107.186 141.94,107.186"></polygon></g><g><polygon points="143.66,107.186 143.66,105.536 143.35999999999999,105.536 143.35999999999999,107.186 143.66,107.186"></polygon><circle cx="143.66" cy="107.186" r="0.15"></circle><circle cx="143.66" cy="105.536" r="0.15"></circle><circle cx="143.35999999999999" cy="105.536" r="0.15"></circle><circle cx="143.35999999999999" cy="107.186" r="0.15"></circle><polygon points="143.66,107.336 143.66,105.686 143.66,105.38600000000001 143.66,107.036"></polygon><polygon points="143.51,105.536 143.20999999999998,105.536 143.51,105.536 143.81,105.536"></polygon><polygon points="143.35999999999999,105.38600000000001 143.35999999999999,107.036 143.35999999999999,107.336 143.35999999999999,105.686"></polygon><polygon points="143.51,107.186 143.81,107.186 143.51,107.186 143.20999999999998,107.186"></polygon></g><g><polygon points="144.93,107.186 144.93,105.536 144.63,105.536 144.63,107.186 144.93,107.186"></polygon><circle cx="144.93" cy="107.186" r="0.15"></circle><circle cx="144.93" cy="105.536" r="0.15"></circle><circle cx="144.63" cy="105.536" r="0.15"></circle><circle cx="144.63" cy="107.186" r="0.15"></circle><polygon points="144.93,107.336 144.93,105.686 144.93,105.38600000000001 144.93,107.036"></polygon><polygon points="144.78,105.536 144.48,105.536 144.78,105.536 145.08,105.536"></polygon><polygon points="144.63,105.38600000000001 144.63,107.036 144.63,107.336 144.63,105.686"></polygon><polygon points="144.78,107.186 145.08,107.186 144.78,107.186 144.48,107.186"></polygon></g><g><polygon points="146.20000000000002,107.186 146.20000000000002,105.536 145.9,105.536 145.9,107.186 146.20000000000002,107.186"></polygon><circle cx="146.20000000000002" cy="107.186" r="0.15"></circle><circle cx="146.20000000000002" cy="105.536" r="0.15"></circle><circle cx="145.9" cy="105.536" r="0.15"></circle><circle cx="145.9" cy="107.186" r="0.15"></circle><polygon points="146.20000000000002,107.336 146.20000000000002,105.686 146.20000000000002,105.38600000000001 146.20000000000002,107.036"></polygon><polygon points="146.05,105.536 145.75,105.536 146.05,105.536 146.35000000000002,105.536"></polygon><polygon points="145.9,105.38600000000001 145.9,107.036 145.9,107.336 145.9,105.686"></polygon><polygon points="146.05,107.186 146.35000000000002,107.186 146.05,107.186 145.75,107.186"></polygon></g><g><polygon points="146.20000000000002,102.236 146.20000000000002,100.586 145.9,100.586 145.9,102.236 146.20000000000002,102.236"></polygon><circle cx="146.20000000000002" cy="102.236" r="0.15"></circle><circle cx="146.20000000000002" cy="100.586" r="0.15"></circle><circle cx="145.9" cy="100.586" r="0.15"></circle><circle cx="145.9" cy="102.236" r="0.15"></circle><polygon points="146.20000000000002,102.386 146.20000000000002,100.736 146.20000000000002,100.436 146.20000000000002,102.086"></polygon><polygon points="146.05,100.586 145.75,100.586 146.05,100.586 146.35000000000002,100.586"></polygon><polygon points="145.9,100.436 145.9,102.086 145.9,102.386 145.9,100.736"></polygon><polygon points="146.05,102.236 146.35000000000002,102.236 146.05,102.236 145.75,102.236"></polygon></g><g><polygon points="144.93,102.236 144.93,100.586 144.63,100.586 144.63,102.236 144.93,102.236"></polygon><circle cx="144.93" cy="102.236" r="0.15"></circle><circle cx="144.93" cy="100.586" r="0.15"></circle><circle cx="144.63" cy="100.586" r="0.15"></circle><circle cx="144.63" cy="102.236" r="0.15"></circle><polygon points="144.93,102.386 144.93,100.736 144.93,100.436 144.93,102.086"></polygon><polygon points="144.78,100.586 144.48,100.586 144.78,100.586 145.08,100.586"></polygon><polygon points="144.63,100.436 144.63,102.086 144.63,102.386 144.63,100.736"></polygon><polygon points="144.78,102.236 145.08,102.236 144.78,102.236 144.48,102.236"></polygon></g><g><polygon points="143.66,102.236 143.66,100.586 143.35999999999999,100.586 143.35999999999999,102.236 143.66,102.236"></polygon><circle cx="143.66" cy="102.236" r="0.15"></circle><circle cx="143.66" cy="100.586" r="0.15"></circle><circle cx="143.35999999999999" cy="100.586" r="0.15"></circle><circle cx="143.35999999999999" cy="102.236" r="0.15"></circle><polygon points="143.66,102.386 143.66,100.736 143.66,100.436 143.66,102.086"></polygon><polygon points="143.51,100.586 143.20999999999998,100.586 143.51,100.586 143.81,100.586"></polygon><polygon points="143.35999999999999,100.436 143.35999999999999,102.086 143.35999999999999,102.386 143.35999999999999,100.736"></polygon><polygon points="143.51,102.236 143.81,102.236 143.51,102.236 143.20999999999998,102.236"></polygon></g><g><polygon points="142.39000000000001,102.236 142.39000000000001,100.586 142.09,100.586 142.09,102.236 142.39000000000001,102.236"></polygon><circle cx="142.39000000000001" cy="102.236" r="0.15"></circle><circle cx="142.39000000000001" cy="100.586" r="0.15"></circle><circle cx="142.09" cy="100.586" r="0.15"></circle><circle cx="142.09" cy="102.236" r="0.15"></circle><polygon points="142.39000000000001,102.386 142.39000000000001,100.736 142.39000000000001,100.436 142.39000000000001,102.086"></polygon><polygon points="142.24,100.586 141.94,100.586 142.24,100.586 142.54000000000002,100.586"></polygon><polygon points="142.09,100.436 142.09,102.086 142.09,102.386 142.09,100.736"></polygon><polygon points="142.24,102.236 142.54000000000002,102.236 142.24,102.236 141.94,102.236"></polygon></g><rect x="148.485999" y="124.090999" width="1" height="1.5"></rect><rect x="147.185999" y="124.090999" width="1" height="1.5"></rect><rect x="126.657999" y="105.18999899999999" width="1.7" height="1.7"></rect><rect x="126.657999" y="102.649999" width="1.7" height="1.7" rx="0.85" ry="0.85"></rect><rect x="126.657999" y="100.10999899999999" width="1.7" height="1.7" rx="0.85" ry="0.85"></rect><rect x="126.657999" y="97.569999" width="1.7" height="1.7" rx="0.85" ry="0.85"></rect><rect x="126.657999" y="95.02999899999999" width="1.7" height="1.7" rx="0.85" ry="0.85"></rect><circle cx="169.418" cy="84.074" r="0.762"></circle><circle cx="169.418" cy="86.614" r="0.762"></circle><circle cx="169.418" cy="89.154" r="0.762"></circle><circle cx="169.418" cy="91.694" r="0.762"></circle><circle cx="169.418" cy="94.234" r="0.762"></circle><circle cx="166.878" cy="94.234" r="0.762"></circle><rect x="137.425999" y="116.735999" width="1.5" height="1"></rect><rect x="137.425999" y="115.435999" width="1.5" height="1"></rect><g><polygon points="139.377,94.53500000000001 139.377,95.235 140.277,95.235 140.277,94.53500000000001 139.377,94.53500000000001"></polygon><circle cx="139.377" cy="94.53500000000001" r="0.25"></circle><circle cx="139.377" cy="95.235" r="0.25"></circle><circle cx="140.277" cy="95.235" r="0.25"></circle><circle cx="140.277" cy="94.53500000000001" r="0.25"></circle><polygon points="139.377,94.28500000000001 139.377,94.985 139.377,95.485 139.377,94.78500000000001"></polygon><polygon points="139.627,95.235 140.527,95.235 140.027,95.235 139.127,95.235"></polygon><polygon points="140.277,95.485 140.277,94.78500000000001 140.277,94.28500000000001 140.277,94.985"></polygon><polygon points="140.027,94.53500000000001 139.127,94.53500000000001 139.627,94.53500000000001 140.527,94.53500000000001"></polygon></g><g><polygon points="139.377,96.53500000000001 139.377,97.235 140.277,97.235 140.277,96.53500000000001 139.377,96.53500000000001"></polygon><circle cx="139.377" cy="96.53500000000001" r="0.25"></circle><circle cx="139.377" cy="97.235" r="0.25"></circle><circle cx="140.277" cy="97.235" r="0.25"></circle><circle cx="140.277" cy="96.53500000000001" r="0.25"></circle><polygon points="139.377,96.28500000000001 139.377,96.985 139.377,97.485 139.377,96.78500000000001"></polygon><polygon points="139.627,97.235 140.527,97.235 140.027,97.235 139.127,97.235"></polygon><polygon points="140.277,97.485 140.277,96.78500000000001 140.277,96.28500000000001 140.277,96.985"></polygon><polygon points="140.027,96.53500000000001 139.127,96.53500000000001 139.627,96.53500000000001 140.527,96.53500000000001"></polygon></g><g><polygon points="147.734,116.22699999999999 147.734,116.902 148.684,116.902 148.684,116.22699999999999 147.734,116.22699999999999"></polygon><circle cx="147.734" cy="116.22699999999999" r="0.25"></circle><circle cx="147.734" cy="116.902" r="0.25"></circle><circle cx="148.684" cy="116.902" r="0.25"></circle><circle cx="148.684" cy="116.22699999999999" r="0.25"></circle><polygon points="147.734,115.97699999999999 147.734,116.652 147.734,117.152 147.734,116.47699999999999"></polygon><polygon points="147.984,116.902 148.934,116.902 148.434,116.902 147.484,116.902"></polygon><polygon points="148.684,117.152 148.684,116.47699999999999 148.684,115.97699999999999 148.684,116.652"></polygon><polygon points="148.434,116.22699999999999 147.484,116.22699999999999 147.984,116.22699999999999 148.934,116.22699999999999"></polygon></g><g><polygon points="147.734,118.30199999999999 147.734,118.977 148.684,118.977 148.684,118.30199999999999 147.734,118.30199999999999"></polygon><circle cx="147.734" cy="118.30199999999999" r="0.25"></circle><circle cx="147.734" cy="118.977" r="0.25"></circle><circle cx="148.684" cy="118.977" r="0.25"></circle><circle cx="148.684" cy="118.30199999999999" r="0.25"></circle><polygon points="147.734,118.05199999999999 147.734,118.727 147.734,119.227 147.734,118.55199999999999"></polygon><polygon points="147.984,118.977 148.934,118.977 148.434,118.977 147.484,118.977"></polygon><polygon points="148.684,119.227 148.684,118.55199999999999 148.684,118.05199999999999 148.684,118.727"></polygon><polygon points="148.434,118.30199999999999 147.484,118.30199999999999 147.984,118.30199999999999 148.934,118.30199999999999"></polygon></g><g><polygon points="163.391,107.395 163.391,106.69500000000001 162.491,106.69500000000001 162.491,107.395 163.391,107.395"></polygon><circle cx="163.391" cy="107.395" r="0.25"></circle><circle cx="163.391" cy="106.69500000000001" r="0.25"></circle><circle cx="162.491" cy="106.69500000000001" r="0.25"></circle><circle cx="162.491" cy="107.395" r="0.25"></circle><polygon points="163.391,107.645 163.391,106.94500000000001 163.391,106.44500000000001 163.391,107.145"></polygon><polygon points="163.141,106.69500000000001 162.241,106.69500000000001 162.741,106.69500000000001 163.641,106.69500000000001"></polygon><polygon points="162.491,106.44500000000001 162.491,107.145 162.491,107.645 162.491,106.94500000000001"></polygon><polygon points="162.741,107.395 163.641,107.395 163.141,107.395 162.241,107.395"></polygon></g><g><polygon points="163.391,105.395 163.391,104.69500000000001 162.491,104.69500000000001 162.491,105.395 163.391,105.395"></polygon><circle cx="163.391" cy="105.395" r="0.25"></circle><circle cx="163.391" cy="104.69500000000001" r="0.25"></circle><circle cx="162.491" cy="104.69500000000001" r="0.25"></circle><circle cx="162.491" cy="105.395" r="0.25"></circle><polygon points="163.391,105.645 163.391,104.94500000000001 163.391,104.44500000000001 163.391,105.145"></polygon><polygon points="163.141,104.69500000000001 162.241,104.69500000000001 162.741,104.69500000000001 163.641,104.69500000000001"></polygon><polygon points="162.491,104.44500000000001 162.491,105.145 162.491,105.645 162.491,104.94500000000001"></polygon><polygon points="162.741,105.395 163.641,105.395 163.141,105.395 162.241,105.395"></polygon></g><g><polygon points="134.145,76.89 134.145,78.08999999999999 135.645,78.08999999999999 135.645,76.89 134.145,76.89"></polygon><circle cx="134.145" cy="76.89" r="0.25"></circle><circle cx="134.145" cy="78.08999999999999" r="0.25"></circle><circle cx="135.645" cy="78.08999999999999" r="0.25"></circle><circle cx="135.645" cy="76.89" r="0.25"></circle><polygon points="134.145,76.64 134.145,77.83999999999999 134.145,78.33999999999999 134.145,77.14"></polygon><polygon points="134.395,78.08999999999999 135.895,78.08999999999999 135.395,78.08999999999999 133.895,78.08999999999999"></polygon><polygon points="135.645,78.33999999999999 135.645,77.14 135.645,76.64 135.645,77.83999999999999"></polygon><polygon points="135.395,76.89 133.895,76.89 134.395,76.89 135.895,76.89"></polygon></g><rect x="133.894999" y="79.13999899999999" width="2" height="1.7" rx="0.85" ry="0.85"></rect><rect x="137.853799" y="104.381999" width="1" height="1"></rect><rect x="137.853799" y="101.881999" width="1" height="1"></rect><rect x="135.901999" y="106.545999" width="1.5" height="1"></rect><rect x="135.901999" y="107.845999" width="1.5" height="1"></rect><g><polygon points="141.801,119.714 141.801,119.01400000000001 140.901,119.01400000000001 140.901,119.714 141.801,119.714"></polygon><circle cx="141.801" cy="119.714" r="0.25"></circle><circle cx="141.801" cy="119.01400000000001" r="0.25"></circle><circle cx="140.901" cy="119.01400000000001" r="0.25"></circle><circle cx="140.901" cy="119.714" r="0.25"></circle><polygon points="141.801,119.964 141.801,119.26400000000001 141.801,118.76400000000001 141.801,119.464"></polygon><polygon points="141.551,119.01400000000001 140.651,119.01400000000001 141.151,119.01400000000001 142.051,119.01400000000001"></polygon><polygon points="140.901,118.76400000000001 140.901,119.464 140.901,119.964 140.901,119.26400000000001"></polygon><polygon points="141.151,119.714 142.051,119.714 141.551,119.714 140.651,119.714"></polygon></g><g><polygon points="141.801,117.714 141.801,117.01400000000001 140.901,117.01400000000001 140.901,117.714 141.801,117.714"></polygon><circle cx="141.801" cy="117.714" r="0.25"></circle><circle cx="141.801" cy="117.01400000000001" r="0.25"></circle><circle cx="140.901" cy="117.01400000000001" r="0.25"></circle><circle cx="140.901" cy="117.714" r="0.25"></circle><polygon points="141.801,117.964 141.801,117.26400000000001 141.801,116.76400000000001 141.801,117.464"></polygon><polygon points="141.551,117.01400000000001 140.651,117.01400000000001 141.151,117.01400000000001 142.051,117.01400000000001"></polygon><polygon points="140.901,116.76400000000001 140.901,117.464 140.901,117.964 140.901,117.26400000000001"></polygon><polygon points="141.151,117.714 142.051,117.714 141.551,117.714 140.651,117.714"></polygon></g><g><polygon points="145.473,94.53500000000001 145.473,95.235 146.373,95.235 146.373,94.53500000000001 145.473,94.53500000000001"></polygon><circle cx="145.473" cy="94.53500000000001" r="0.25"></circle><circle cx="145.473" cy="95.235" r="0.25"></circle><circle cx="146.373" cy="95.235" r="0.25"></circle><circle cx="146.373" cy="94.53500000000001" r="0.25"></circle><polygon points="145.473,94.28500000000001 145.473,94.985 145.473,95.485 145.473,94.78500000000001"></polygon><polygon points="145.723,95.235 146.623,95.235 146.123,95.235 145.223,95.235"></polygon><polygon points="146.373,95.485 146.373,94.78500000000001 146.373,94.28500000000001 146.373,94.985"></polygon><polygon points="146.123,94.53500000000001 145.223,94.53500000000001 145.723,94.53500000000001 146.623,94.53500000000001"></polygon></g><g><polygon points="145.473,96.53500000000001 145.473,97.235 146.373,97.235 146.373,96.53500000000001 145.473,96.53500000000001"></polygon><circle cx="145.473" cy="96.53500000000001" r="0.25"></circle><circle cx="145.473" cy="97.235" r="0.25"></circle><circle cx="146.373" cy="97.235" r="0.25"></circle><circle cx="146.373" cy="96.53500000000001" r="0.25"></circle><polygon points="145.473,96.28500000000001 145.473,96.985 145.473,97.485 145.473,96.78500000000001"></polygon><polygon points="145.723,97.235 146.623,97.235 146.123,97.235 145.223,97.235"></polygon><polygon points="146.373,97.485 146.373,96.78500000000001 146.373,96.28500000000001 146.373,96.985"></polygon><polygon points="146.123,96.53500000000001 145.223,96.53500000000001 145.723,96.53500000000001 146.623,96.53500000000001"></polygon></g><g><polygon points="144.25,97.69600000000001 143.575,97.69600000000001 143.575,98.646 144.25,98.646 144.25,97.69600000000001"></polygon><circle cx="144.25" cy="97.69600000000001" r="0.25"></circle><circle cx="143.575" cy="97.69600000000001" r="0.25"></circle><circle cx="143.575" cy="98.646" r="0.25"></circle><circle cx="144.25" cy="98.646" r="0.25"></circle><polygon points="144,97.69600000000001 143.325,97.69600000000001 143.825,97.69600000000001 144.5,97.69600000000001"></polygon><polygon points="143.575,97.44600000000001 143.575,98.396 143.575,98.896 143.575,97.94600000000001"></polygon><polygon points="143.825,98.646 144.5,98.646 144,98.646 143.325,98.646"></polygon><polygon points="144.25,98.896 144.25,97.94600000000001 144.25,97.44600000000001 144.25,98.396"></polygon></g><g><polygon points="142.175,97.69600000000001 141.5,97.69600000000001 141.5,98.646 142.175,98.646 142.175,97.69600000000001"></polygon><circle cx="142.175" cy="97.69600000000001" r="0.25"></circle><circle cx="141.5" cy="97.69600000000001" r="0.25"></circle><circle cx="141.5" cy="98.646" r="0.25"></circle><circle cx="142.175" cy="98.646" r="0.25"></circle><polygon points="141.925,97.69600000000001 141.25,97.69600000000001 141.75,97.69600000000001 142.425,97.69600000000001"></polygon><polygon points="141.5,97.44600000000001 141.5,98.396 141.5,98.896 141.5,97.94600000000001"></polygon><polygon points="141.75,98.646 142.425,98.646 141.925,98.646 141.25,98.646"></polygon><polygon points="142.175,98.896 142.175,97.94600000000001 142.175,97.44600000000001 142.175,98.396"></polygon></g><g><polygon points="167.946,74.58600000000001 166.746,74.58600000000001 166.746,76.036 167.946,76.036 167.946,74.58600000000001"></polygon><circle cx="167.946" cy="74.58600000000001" r="0.25"></circle><circle cx="166.746" cy="74.58600000000001" r="0.25"></circle><circle cx="166.746" cy="76.036" r="0.25"></circle><circle cx="167.946" cy="76.036" r="0.25"></circle><polygon points="167.696,74.58600000000001 166.496,74.58600000000001 166.996,74.58600000000001 168.196,74.58600000000001"></polygon><polygon points="166.746,74.33600000000001 166.746,75.786 166.746,76.286 166.746,74.83600000000001"></polygon><polygon points="166.996,76.036 168.196,76.036 167.696,76.036 166.496,76.036"></polygon><polygon points="167.946,76.286 167.946,74.83600000000001 167.946,74.33600000000001 167.946,75.786"></polygon></g><rect x="163.995999" y="74.33599899999999" width="1.7" height="1.95" rx="0.85" ry="0.85"></rect><rect x="161.495999" y="74.33599899999999" width="1.7" height="1.95" rx="0.85" ry="0.85"></rect><rect x="158.995999" y="74.33599899999999" width="1.7" height="1.95" rx="0.85" ry="0.85"></rect><g><polygon points="158.728,106.84 158.053,106.84 158.053,107.78999999999999 158.728,107.78999999999999 158.728,106.84"></polygon><circle cx="158.728" cy="106.84" r="0.25"></circle><circle cx="158.053" cy="106.84" r="0.25"></circle><circle cx="158.053" cy="107.78999999999999" r="0.25"></circle><circle cx="158.728" cy="107.78999999999999" r="0.25"></circle><polygon points="158.478,106.84 157.803,106.84 158.303,106.84 158.978,106.84"></polygon><polygon points="158.053,106.59 158.053,107.53999999999999 158.053,108.03999999999999 158.053,107.09"></polygon><polygon points="158.303,107.78999999999999 158.978,107.78999999999999 158.478,107.78999999999999 157.803,107.78999999999999"></polygon><polygon points="158.728,108.03999999999999 158.728,107.09 158.728,106.59 158.728,107.53999999999999"></polygon></g><g><polygon points="156.653,106.84 155.97799999999998,106.84 155.97799999999998,107.78999999999999 156.653,107.78999999999999 156.653,106.84"></polygon><circle cx="156.653" cy="106.84" r="0.25"></circle><circle cx="155.97799999999998" cy="106.84" r="0.25"></circle><circle cx="155.97799999999998" cy="107.78999999999999" r="0.25"></circle><circle cx="156.653" cy="107.78999999999999" r="0.25"></circle><polygon points="156.403,106.84 155.72799999999998,106.84 156.22799999999998,106.84 156.903,106.84"></polygon><polygon points="155.97799999999998,106.59 155.97799999999998,107.53999999999999 155.97799999999998,108.03999999999999 155.97799999999998,107.09"></polygon><polygon points="156.22799999999998,107.78999999999999 156.903,107.78999999999999 156.403,107.78999999999999 155.72799999999998,107.78999999999999"></polygon><polygon points="156.653,108.03999999999999 156.653,107.09 156.653,106.59 156.653,107.53999999999999"></polygon></g><rect x="141.125999" y="123.30699899999999" width="1.56" height="0.65"></rect><rect x="141.125999" y="121.406999" width="1.56" height="0.65"></rect><rect x="143.825999" y="121.406999" width="1.56" height="0.65"></rect><rect x="143.825999" y="122.356999" width="1.56" height="0.65"></rect><rect x="143.825999" y="123.30699899999999" width="1.56" height="0.65"></rect><g><polygon points="158.728,104.427 158.053,104.427 158.053,105.377 158.728,105.377 158.728,104.427"></polygon><circle cx="158.728" cy="104.427" r="0.25"></circle><circle cx="158.053" cy="104.427" r="0.25"></circle><circle cx="158.053" cy="105.377" r="0.25"></circle><circle cx="158.728" cy="105.377" r="0.25"></circle><polygon points="158.478,104.427 157.803,104.427 158.303,104.427 158.978,104.427"></polygon><polygon points="158.053,104.177 158.053,105.127 158.053,105.627 158.053,104.677"></polygon><polygon points="158.303,105.377 158.978,105.377 158.478,105.377 157.803,105.377"></polygon><polygon points="158.728,105.627 158.728,104.677 158.728,104.177 158.728,105.127"></polygon></g><g><polygon points="156.653,104.427 155.97799999999998,104.427 155.97799999999998,105.377 156.653,105.377 156.653,104.427"></polygon><circle cx="156.653" cy="104.427" r="0.25"></circle><circle cx="155.97799999999998" cy="104.427" r="0.25"></circle><circle cx="155.97799999999998" cy="105.377" r="0.25"></circle><circle cx="156.653" cy="105.377" r="0.25"></circle><polygon points="156.403,104.427 155.72799999999998,104.427 156.22799999999998,104.427 156.903,104.427"></polygon><polygon points="155.97799999999998,104.177 155.97799999999998,105.127 155.97799999999998,105.627 155.97799999999998,104.677"></polygon><polygon points="156.22799999999998,105.377 156.903,105.377 156.403,105.377 155.72799999999998,105.377"></polygon><polygon points="156.653,105.627 156.653,104.677 156.653,104.177 156.653,105.127"></polygon></g><rect x="175.34799900000002" y="73.19399899999999" width="1.7" height="1.7"></rect><rect x="177.887999" y="73.19399899999999" width="1.7" height="1.7" rx="0.85" ry="0.85"></rect><rect x="175.34799900000002" y="75.733999" width="1.7" height="1.7" rx="0.85" ry="0.85"></rect><rect x="177.887999" y="75.733999" width="1.7" height="1.7" rx="0.85" ry="0.85"></rect><rect x="175.34799900000002" y="78.27399899999999" width="1.7" height="1.7" rx="0.85" ry="0.85"></rect><rect x="177.887999" y="78.27399899999999" width="1.7" height="1.7" rx="0.85" ry="0.85"></rect><rect x="175.34799900000002" y="80.813999" width="1.7" height="1.7" rx="0.85" ry="0.85"></rect><rect x="177.887999" y="80.813999" width="1.7" height="1.7" rx="0.85" ry="0.85"></rect><rect x="175.34799900000002" y="83.35399899999999" width="1.7" height="1.7" rx="0.85" ry="0.85"></rect><rect x="177.887999" y="83.35399899999999" width="1.7" height="1.7" rx="0.85" ry="0.85"></rect><rect x="175.34799900000002" y="85.893999" width="1.7" height="1.7" rx="0.85" ry="0.85"></rect><rect x="177.887999" y="85.893999" width="1.7" height="1.7" rx="0.85" ry="0.85"></rect><rect x="175.34799900000002" y="88.43399899999999" width="1.7" height="1.7" rx="0.85" ry="0.85"></rect><rect x="177.887999" y="88.43399899999999" width="1.7" height="1.7" rx="0.85" ry="0.85"></rect><rect x="175.34799900000002" y="90.97399899999999" width="1.7" height="1.7" rx="0.85" ry="0.85"></rect><rect x="177.887999" y="90.97399899999999" width="1.7" height="1.7" rx="0.85" ry="0.85"></rect><rect x="175.34799900000002" y="93.513999" width="1.7" height="1.7" rx="0.85" ry="0.85"></rect><rect x="177.887999" y="93.513999" width="1.7" height="1.7" rx="0.85" ry="0.85"></rect><rect x="175.34799900000002" y="96.05399899999999" width="1.7" height="1.7" rx="0.85" ry="0.85"></rect><rect x="177.887999" y="96.05399899999999" width="1.7" height="1.7" rx="0.85" ry="0.85"></rect><rect x="175.34799900000002" y="98.593999" width="1.7" height="1.7" rx="0.85" ry="0.85"></rect><rect x="177.887999" y="98.593999" width="1.7" height="1.7" rx="0.85" ry="0.85"></rect><rect x="175.34799900000002" y="101.13399899999999" width="1.7" height="1.7" rx="0.85" ry="0.85"></rect><rect x="177.887999" y="101.13399899999999" width="1.7" height="1.7" rx="0.85" ry="0.85"></rect><rect x="175.34799900000002" y="103.673999" width="1.7" height="1.7" rx="0.85" ry="0.85"></rect><rect x="177.887999" y="103.673999" width="1.7" height="1.7" rx="0.85" ry="0.85"></rect><rect x="175.34799900000002" y="106.21399899999999" width="1.7" height="1.7" rx="0.85" ry="0.85"></rect><rect x="177.887999" y="106.21399899999999" width="1.7" height="1.7" rx="0.85" ry="0.85"></rect><rect x="175.34799900000002" y="108.753999" width="1.7" height="1.7" rx="0.85" ry="0.85"></rect><rect x="177.887999" y="108.753999" width="1.7" height="1.7" rx="0.85" ry="0.85"></rect><rect x="175.34799900000002" y="111.29399899999999" width="1.7" height="1.7" rx="0.85" ry="0.85"></rect><rect x="177.887999" y="111.29399899999999" width="1.7" height="1.7" rx="0.85" ry="0.85"></rect><rect x="175.34799900000002" y="113.83399899999999" width="1.7" height="1.7" rx="0.85" ry="0.85"></rect><rect x="177.887999" y="113.83399899999999" width="1.7" height="1.7" rx="0.85" ry="0.85"></rect><rect x="175.34799900000002" y="116.373999" width="1.7" height="1.7" rx="0.85" ry="0.85"></rect><rect x="177.887999" y="116.373999" width="1.7" height="1.7" rx="0.85" ry="0.85"></rect><rect x="175.34799900000002" y="118.91399899999999" width="1.7" height="1.7" rx="0.85" ry="0.85"></rect><rect x="177.887999" y="118.91399899999999" width="1.7" height="1.7" rx="0.85" ry="0.85"></rect><rect x="175.34799900000002" y="121.453999" width="1.7" height="1.7" rx="0.85" ry="0.85"></rect><rect x="177.887999" y="121.453999" width="1.7" height="1.7" rx="0.85" ry="0.85"></rect><circle cx="146.05" cy="121.539" r="0.4"></circle><circle cx="148.336" cy="78.359" r="0.4"></circle><circle cx="167.259" cy="116.205" r="0.4"></circle><circle cx="165.735" cy="87.884" r="0.4"></circle><circle cx="158.75" cy="78.359" r="0.4"></circle><circle cx="145.542" cy="125.73" r="0.4"></circle><circle cx="154.686" cy="104.902" r="0.4"></circle><circle cx="166.751" cy="88.9" r="0.4"></circle><circle cx="153.924" cy="118.745" r="0.4"></circle><circle cx="160.782" cy="80.391" r="0.4"></circle><circle cx="168.3004" cy="118.745" r="0.4"></circle><circle cx="140.081" cy="84.582" r="0.4"></circle><circle cx="160.782" cy="78.359" r="0.4"></circle><circle cx="167.259" cy="113.665" r="0.4"></circle><circle cx="143.129" cy="108.839" r="0.4"></circle><circle cx="140.081" cy="76.474" r="0.4"></circle><circle cx="153.924" cy="116.205" r="0.4"></circle><circle cx="164.719" cy="88.9" r="0.4"></circle><circle cx="148.971" cy="105.283" r="0.4"></circle><circle cx="138.049" cy="76.474" r="0.4"></circle><circle cx="143.002" cy="116.205" r="0.4"></circle><circle cx="168.275" cy="117.5004" r="0.4"></circle><circle cx="147.574" cy="115.189" r="0.4"></circle><circle cx="140.081" cy="78.506" r="0.4"></circle><circle cx="158.75" cy="80.391" r="0.4"></circle><circle cx="153.924" cy="114.935" r="0.4"></circle><circle cx="139.0865" cy="113.2625" r="0.4"></circle><circle cx="148.336" cy="80.391" r="0.4"></circle><circle cx="166.751" cy="86.868" r="0.4"></circle><circle cx="138.049" cy="84.582" r="0.4"></circle><circle cx="139.065" cy="85.598" r="0.4"></circle><circle cx="140.081" cy="86.614" r="0.4"></circle><circle cx="164.719" cy="86.868" r="0.4"></circle><circle cx="146.304" cy="78.359" r="0.4"></circle><circle cx="147.32" cy="79.375" r="0.4"></circle><circle cx="138.049" cy="86.614" r="0.4"></circle><circle cx="139.954" cy="74.422" r="0.4"></circle><circle cx="154.686" cy="107.442" r="0.4"></circle><circle cx="167.259" cy="114.935" r="0.4"></circle><circle cx="139.065" cy="77.49" r="0.4"></circle><circle cx="146.304" cy="80.391" r="0.4"></circle><circle cx="141.478" cy="108.839" r="0.4"></circle><circle cx="138.049" cy="78.506" r="0.4"></circle><circle cx="153.924" cy="117.475" r="0.4"></circle><circle cx="159.766" cy="79.375" r="0.4"></circle><circle cx="130.81" cy="92.456" r="0.4"></circle><circle cx="137.414" cy="99.06" r="0.4"></circle><circle cx="145.288" cy="99.06" r="0.4"></circle><circle cx="135.636" cy="94.996" r="0.4"></circle><circle cx="153.67" cy="104.14" r="0.4"></circle><circle cx="137.668" cy="112.776" r="0.4"></circle><circle cx="158.496" cy="99.314" r="0.4"></circle><circle cx="140.208" cy="110.236" r="0.4"></circle><circle cx="132.334" cy="96.012" r="0.4"></circle><circle cx="171.45" cy="81.534" r="0.4"></circle><circle cx="167.64" cy="103.886" r="0.4"></circle><circle cx="155.448" cy="100.33" r="0.4"></circle><circle cx="152.146" cy="103.632" r="0.4"></circle><circle cx="164.084" cy="100.33" r="0.4"></circle><circle cx="132.334" cy="98.552" r="0.4"></circle><circle cx="137.414" cy="96.012" r="0.4"></circle><circle cx="149.098" cy="96.012" r="0.4"></circle><circle cx="160.528" cy="101.346" r="0.4"></circle><circle cx="160.528" cy="105.41" r="0.4"></circle><circle cx="150.876" cy="102.616" r="0.4"></circle><circle cx="148.844" cy="97.282" r="0.4"></circle><circle cx="137.922" cy="97.282" r="0.4"></circle><circle cx="168.148" cy="101.346" r="0.4"></circle><circle cx="152.908" cy="100.584" r="0.4"></circle><circle cx="173.482" cy="102.362" r="0.4"></circle><circle cx="162.306" cy="116.586" r="0.4"></circle><circle cx="134.62" cy="108.712" r="0.4"></circle><circle cx="138.684" cy="125.476" r="0.4"></circle><circle cx="141.732" cy="129.032" r="0.4"></circle><path stroke-width="0.4064" fill="none" d="M136.652 127.508L139.192 130.048L149.86 130.048L157.48 122.428L167.132 122.428M170.18 105.664L173.482 102.362M167.132 122.428L170.18 119.38L170.18 105.664M141.351 119.364L139.938 119.364L138.176 117.602L138.176 117.236"></path><path stroke-width="1.5" fill="none" d="M134.895 87.65L137.013 87.65M169.418 86.614L167.005 86.614"></path><path stroke-width="0.4064" fill="none" d="M143.51 108.458L143.129 108.839M168.2496 117.475L168.275 117.5004M145.161 103.378L148.8655 103.378M156.3155 104.902L154.686 104.902M156.3155 104.902L156.3155 107.315M144.78 102.997L145.161 103.378"></path><path stroke-width="1.5" fill="none" d="M159.846 75.311L159.846 79.295"></path><path stroke-width="0.4064" fill="none" d="M165.305 117.475L167.259 117.475M156.005 117.475L153.924 117.475"></path><path stroke-width="1.5" fill="none" d="M137.013 87.65L139.065 85.598"></path><path stroke-width="0.4064" fill="none" d="M165.305 114.935L167.259 114.935M144.78 101.411L144.78 102.997"></path><path stroke-width="1.5" fill="none" d="M159.846 79.295L159.766 79.375"></path><path stroke-width="0.4064" fill="none" d="M144.0395 125.73L145.542 125.73M143.049 116.252L143.002 116.205M143.51 106.361L143.51 108.458M139.7 74.168L139.954 74.422M144.211 116.252L143.049 116.252M148.971 103.2725L148.971 105.283M156.005 116.205L153.924 116.205M148.8655 103.378L148.971 103.2725M165.305 118.745L167.259 118.745M142.24 106.361L142.24 108.077"></path><path stroke-width="1.5" fill="none" d="M167.005 89.154L166.751 88.9"></path><path stroke-width="0.4064" fill="none" d="M165.305 116.205L167.259 116.205M148.209 115.824L147.574 115.189M156.005 118.745L153.924 118.745M145.857 121.732L146.05 121.539"></path><path stroke-width="1.5" fill="none" d="M167.005 86.614L166.751 86.868"></path><path stroke-width="0.4064" fill="none" d="M167.259 118.745L168.3004 118.745"></path><path stroke-width="1.5" fill="none" d="M147.36 79.335L147.32 79.375"></path><path stroke-width="0.4064" fill="none" d="M167.259 117.475L168.2496 117.475M142.24 108.077L141.478 108.839"></path><path stroke-width="1.5" fill="none" d="M169.418 89.154L167.005 89.154M134.895 77.49L139.065 77.49"></path><path stroke-width="0.4064" fill="none" d="M156.005 114.935L153.924 114.935M154.813 107.315L154.686 107.442"></path><path stroke-width="1.5" fill="none" d="M147.36 75.311L147.36 79.335"></path><path stroke-width="0.4064" fill="none" d="M148.209 116.5645L148.209 115.824M141.351 113.2625L139.0865 113.2625M144.606 121.732L145.857 121.732M139.7 71.469L139.7 74.168M165.305 113.665L167.259 113.665M156.3155 107.315L154.813 107.315"></path><path stroke-width="1.5" fill="none" d="M173.355 69.85L170.815 72.39M170.815 77.47L169.418 78.867M177.8 69.85L173.355 69.85M178.738 76.584L178.738 74.044M178.738 70.788L177.8 69.85M178.738 74.044L178.738 70.788M169.418 78.867L169.418 84.074M170.815 72.39L170.815 77.47"></path><path stroke-width="0.4064" fill="none" d="M147.955 99.06L145.288 99.06M158.3905 107.315L158.3905 110.3415"></path><path stroke-width="0.8128" fill="none" d="M151.4895 101.1975L148.971 101.1975M163.068 102.362L158.242 102.362M174.876 74.044L173.482 75.438"></path><path stroke-width="0.4064" fill="none" d="M148.336 99.441L147.955 99.06"></path><path stroke-width="0.8128" fill="none" d="M172.466 80.01L172.466 99.455851"></path><path stroke-width="0.4064" fill="none" d="M133.35 94.996L130.81 92.456M135.636 94.996L133.35 94.996M162.941 105.045L162.941 102.489M138.7 71.469L138.7 73.644M137.668 74.676L134.874 74.676M162.941 102.489L163.068 102.362"></path><path stroke-width="0.8128" fill="none" d="M173.482 75.438L173.482 78.994"></path><path stroke-width="0.4064" fill="none" d="M128.524 81.026L128.524 88.392M158.3905 104.902L158.3905 102.5105"></path><path stroke-width="0.8128" fill="none" d="M152.654 102.362L151.4895 101.1975"></path><path stroke-width="0.4064" fill="none" d="M158.3905 102.5105L158.242 102.362M138.7 73.644L137.668 74.676M138.3538 102.4582L138.3538 99.9998M128.524 90.17L130.81 92.456"></path><path stroke-width="0.8128" fill="none" d="M165.862 102.362L163.068 102.362M173.482 78.994L172.466 80.01M169.559851 102.362L165.862 102.362M176.198 74.044L174.876 74.044"></path><path stroke-width="0.4064" fill="none" d="M134.874 74.676L128.524 81.026M165.862 105.045L165.862 102.362M148.971 101.1975L148.971 100.076"></path><path stroke-width="0.8128" fill="none" d="M172.466 99.455851L169.559851 102.362"></path><path stroke-width="0.4064" fill="none" d="M148.971 101.1975L146.2635 101.1975M157.607 111.125L156.005 111.125M158.3905 110.3415L157.607 111.125M128.524 88.392L128.524 90.17M158.3905 104.902L158.3905 107.315M146.2635 101.1975L146.05 101.411M148.971 100.076L148.336 99.441M138.3538 99.9998L137.414 99.06"></path><path stroke-width="0.8128" fill="none" d="M158.242 102.362L152.654 102.362"></path><path stroke-width="0.4064" fill="none" d="M143.9125 98.171L144.637 98.171M143.51 98.5735L143.9125 98.171M143.51 101.411L143.51 98.5735M144.637 98.171L145.923 96.885M141.113 98.171L139.827 96.885M141.8375 98.171L141.113 98.171M142.24 101.411L142.24 98.5735L141.8375 98.171M156.005 112.395L154.3558 112.395M152.1968 114.554L151.5006 114.554M154.3558 112.395L152.1968 114.554M145.161 114.157L145.161 116.252M148.971 114.554L148.5646 114.1476M145.1704 114.1476L145.161 114.157M150.2006 114.554L148.971 114.554M148.5646 114.1476L145.1704 114.1476"></path><path stroke-width="1.5" fill="none" d="M146.052 91.694L145.925 91.821"></path><path stroke-width="0.4064" fill="none" d="M145.923 94.885L145.923 91.823"></path><path stroke-width="1.5" fill="none" d="M169.418 91.694L146.052 91.694"></path><path stroke-width="0.4064" fill="none" d="M138.811 115.682L139.207 115.682L139.5515 115.3375M135.414 116.554L132.588 116.554M139.5515 115.3375L141.351 115.3375M138.684 115.936L136.032 115.936M141.351 117.364L141.351 115.3375M136.032 115.936L135.414 116.554M141.798 121.732L141.351 121.285L141.351 119.364M141.906 121.732L141.798 121.732M148.986 121.1446L148.986 122.301M144.653 120.523L148.3644 120.523M144.211 120.081L144.653 120.523M148.3644 120.523L148.986 121.1446M144.211 118.952L144.211 120.081M160.782 97.028L166.116 97.028L166.878 96.266M158.496 99.314L160.782 97.028M135.89 114.554L137.668 112.776M150.368 110.236L152.908 107.696M140.208 110.236L150.368 110.236M169.418 95.504L169.418 94.234M152.908 104.902L153.67 104.14M168.656 96.266L169.418 95.504M166.878 96.266L168.656 96.266M132.588 114.554L135.89 114.554M152.908 107.696L152.908 104.902M147.686 124.841L147.193 124.841M145.984 123.632L144.606 123.632M147.193 124.841L145.984 123.632M147.305 122.682L147.686 122.301M144.606 122.682L147.305 122.682M167.64 108.823L165.862 107.045M165.305 111.125L167.259 111.125M150.622 96.012L154.94 100.33M134.366 73.914L127.762 80.518M130.81 94.488L132.334 96.012M127.508 100.96L129.926 100.96M150.368 107.442L151.13 106.68M166.878 100.33L164.084 100.33M166.513 107.045L167.64 105.918M164.084 100.33L155.448 100.33M149.098 96.012L150.622 96.012M144.78 106.361L144.78 108.712M169.418 100.33L166.878 100.33M165.862 107.045L166.513 107.045M132.334 96.012L137.414 96.012M137.7 73.374L137.16 73.914M127.762 88.392L127.762 91.44M144.78 108.712L145.542 109.474M137.16 73.914L134.366 73.914M151.13 106.68L151.13 104.648M171.45 81.534L171.45 98.298M167.64 105.918L167.64 103.886M171.45 98.298L169.418 100.33M129.926 100.96L132.334 98.552M127.762 91.44L130.81 94.488M165.846 107.061L165.862 107.045M148.336 109.474L150.368 107.442M145.542 109.474L147.574 109.474L148.336 109.474M151.13 104.648L152.146 103.632M154.94 100.33L155.448 100.33M167.259 111.125L167.64 110.744M137.7 71.469L137.7 73.374M127.762 80.518L127.762 88.392M167.64 110.744L167.64 108.823M146.558 108.458L147.574 108.458M153.67 101.346L152.908 100.584M150.114 106.172L150.114 105.156M162.941 107.491L165.305 109.855M127.762 93.218L131.826 97.282M130.688 103.5L134.62 99.568M146.115 106.426L146.05 106.361M136.7 72.596L136.144 73.152M133.858 73.152L127 80.01M127.508 103.5L130.688 103.5M162.941 107.045L162.941 107.491M160.528 101.346L153.67 101.346M131.826 97.282L134.62 97.282M146.304 108.204L146.558 108.458M168.148 101.346L160.528 101.346M149.098 107.188L150.114 106.172M136.7 71.469L136.7 72.596M134.62 97.282L137.922 97.282M127 80.01L127 88.392M162.941 107.045L162.163 107.045M146.05 107.696L146.05 107.95M136.144 73.152L133.858 73.152M162.163 107.045L160.528 105.41M127 88.392L127 92.456L127.762 93.218M134.62 99.568L134.62 97.282M150.114 105.156L150.114 103.378M147.828 108.458L149.098 107.188M149.606 97.282L152.908 100.584M147.574 108.458L147.828 108.458M146.05 106.361L146.05 107.696M148.844 97.282L149.606 97.282M146.05 107.95L146.304 108.204M150.114 103.378L150.876 102.616M147.828 127.508L136.652 127.508M130.81 107.95L128.9 106.04M130.81 121.666L130.81 107.95M148.986 124.841L148.986 126.35M136.652 127.508L130.81 121.666M128.9 106.04L127.508 106.04M148.986 126.35L147.828 127.508"></path><path stroke-width="1.5" fill="none" d="M134.895 90.15L138.154 90.15M167.346 75.311L167.346 73.366L166.37 72.39M138.154 90.15L139.825 91.821M149.86 83.312L144.018 83.312"></path><path stroke-width="0.4064" fill="none" d="M139.827 94.885L139.827 91.823"></path><path stroke-width="1.5" fill="none" d="M152.36 80.812L149.86 83.312M131.826 88.9L133.096 90.17M135.362 79.99L134.895 79.99M152.36 75.311L152.36 80.812M152.36 73.446L152.36 75.311M133.096 90.17L134.875 90.17M153.416 72.39L152.36 73.446M141.986 81.28L136.652 81.28M134.875 90.17L134.895 90.15M134.895 79.99L133.116 79.99M166.37 72.39L153.416 72.39M136.652 81.28L135.362 79.99M144.018 83.312L141.986 81.28M131.826 81.28L131.826 88.9M133.116 79.99L131.826 81.28"></path><path stroke-width="0.25" fill="none" d="M163.9824 112.395L162.306 114.0714"></path><path stroke-width="0.4064" fill="none" d="M134.62 108.712L133.096 107.188"></path><path stroke-width="0.25" fill="none" d="M165.305 112.395L163.9824 112.395"></path><path stroke-width="0.4064" fill="none" d="M133.096 104.0076L134.7216 102.382M133.096 107.188L133.096 104.0076"></path><path stroke-width="0.25" fill="none" d="M162.306 114.0714L162.306 116.586"></path><path stroke-width="0.4064" fill="none" d="M148.209 118.6395L148.6115 118.6395M150.876 126.492L148.844 128.524M146.4235 118.6395L146.111 118.952M150.876 120.904L150.876 126.492M148.6115 118.6395L150.876 120.904M141.9645 123.6905L141.906 123.632M138.176 111.252L136.652 109.728M148.336 129.032L141.732 129.032M141.9645 125.73L141.9645 123.6905M148.844 128.524L148.336 129.032M144.272 111.252L138.176 111.252M136.652 109.728L133.826 112.554M136.652 108.346L136.652 109.728M141.9645 126.2165L141.9645 125.73M148.209 118.6395L146.4235 118.6395M145.161 112.141L144.272 111.252M133.826 112.554L132.588 112.554M145.1618 112.1562L145.161 112.157L145.161 112.141M141.7105 125.476L138.684 125.476M141.9645 125.73L141.7105 125.476M136.926 104.882L138.3538 104.882M136.652 107.046L136.652 105.156M134.7216 104.882L136.926 104.882M136.652 105.156L136.926 104.882"></path><path d="M141.039121 75.712002L141.085614 75.765658L141.097 75.818L141.097 79.376L141.076998 79.444121L141.023342 79.490614L140.971 79.502L137.286 79.502L137.217879 79.481998L137.171386 79.428342L137.16 79.376L137.16 75.818L137.180002 75.749879L137.233658 75.703386L137.286 75.692L140.971 75.692L141.039121 75.712002"></path><path d="M141.039121 83.586002L141.085614 83.639658L141.097 83.692L141.097 87.25L141.076998 87.318121L141.023342 87.364614L140.971 87.376L137.286 87.376L137.217879 87.355998L137.171386 87.302342L137.16 87.25L137.16 83.692L137.180002 83.623879L137.233658 83.577386L137.286 83.566L140.971 83.566L141.039121 83.586002"></path><path d="M167.582121 85.999002L167.628614 86.052658L167.64 86.105L167.64 89.663L167.619998 89.731121L167.566342 89.777614L167.514 89.789L163.829 89.789L163.760879 89.768998L163.714386 89.715342L163.703 89.663L163.703 86.105L163.723002 86.036879L163.776658 85.990386L163.829 85.979L167.514 85.979L167.582121 85.999002"></path><path d="M149.167121 77.490002L149.213614 77.543658L149.225 77.596L149.225 81.154L149.204998 81.222121L149.151342 81.268614L149.099 81.28L145.541 81.28L145.472879 81.259998L145.426386 81.206342L145.415 81.154L145.415 77.596L145.435002 77.527879L145.488658 77.481386L145.541 77.47L149.099 77.47L149.167121 77.490002"></path><path d="M161.613121 77.490002L161.659614 77.543658L161.671 77.596L161.671 81.154L161.650998 81.222121L161.597342 81.268614L161.545 81.28L157.86 81.28L157.791879 81.259998L157.745386 81.206342L157.734 81.154L157.734 77.596L157.754002 77.527879L157.807658 77.481386L157.86 77.47L161.545 77.47L161.613121 77.490002"></path></svg>