%TF.GenerationSoftware,KiCad,Pcbnew,(6.99.0-2504-g6a9c6e8599)*%
%TF.CreationDate,2023-08-13T16:33:28-07:00*%
%TF.ProjectId,BuoyPower,42756f79-506f-4776-9572-2e6b69636164,rev?*%
%TF.SameCoordinates,Original*%
%TF.FileFunction,Legend,Top*%
%TF.FilePolarity,Positive*%
%FSLAX46Y46*%
G04 Gerber Fmt 4.6, Leading zero omitted, Abs format (unit mm)*
G04 Created by KiCad (PCBNEW (6.99.0-2504-g6a9c6e8599)) date 2023-08-13 16:33:28*
%MOMM*%
%LPD*%
G01*
G04 APERTURE LIST*
%ADD10C,0.150000*%
%ADD11C,0.120000*%
%ADD12C,0.127000*%
%ADD13C,0.200000*%
G04 APERTURE END LIST*
D10*
%TO.C,J9*%
X163416666Y-72827380D02*
X163416666Y-73541666D01*
X163416666Y-73541666D02*
X163369047Y-73684523D01*
X163369047Y-73684523D02*
X163273809Y-73779761D01*
X163273809Y-73779761D02*
X163130952Y-73827380D01*
X163130952Y-73827380D02*
X163035714Y-73827380D01*
X163940476Y-73827380D02*
X164130952Y-73827380D01*
X164130952Y-73827380D02*
X164226190Y-73779761D01*
X164226190Y-73779761D02*
X164273809Y-73732142D01*
X164273809Y-73732142D02*
X164369047Y-73589285D01*
X164369047Y-73589285D02*
X164416666Y-73398809D01*
X164416666Y-73398809D02*
X164416666Y-73017857D01*
X164416666Y-73017857D02*
X164369047Y-72922619D01*
X164369047Y-72922619D02*
X164321428Y-72875000D01*
X164321428Y-72875000D02*
X164226190Y-72827380D01*
X164226190Y-72827380D02*
X164035714Y-72827380D01*
X164035714Y-72827380D02*
X163940476Y-72875000D01*
X163940476Y-72875000D02*
X163892857Y-72922619D01*
X163892857Y-72922619D02*
X163845238Y-73017857D01*
X163845238Y-73017857D02*
X163845238Y-73255952D01*
X163845238Y-73255952D02*
X163892857Y-73351190D01*
X163892857Y-73351190D02*
X163940476Y-73398809D01*
X163940476Y-73398809D02*
X164035714Y-73446428D01*
X164035714Y-73446428D02*
X164226190Y-73446428D01*
X164226190Y-73446428D02*
X164321428Y-73398809D01*
X164321428Y-73398809D02*
X164369047Y-73351190D01*
X164369047Y-73351190D02*
X164416666Y-73255952D01*
%TO.C,JP39*%
X138690476Y-115462380D02*
X138690476Y-116176666D01*
X138690476Y-116176666D02*
X138642857Y-116319523D01*
X138642857Y-116319523D02*
X138547619Y-116414761D01*
X138547619Y-116414761D02*
X138404762Y-116462380D01*
X138404762Y-116462380D02*
X138309524Y-116462380D01*
X139166667Y-116462380D02*
X139166667Y-115462380D01*
X139166667Y-115462380D02*
X139547619Y-115462380D01*
X139547619Y-115462380D02*
X139642857Y-115510000D01*
X139642857Y-115510000D02*
X139690476Y-115557619D01*
X139690476Y-115557619D02*
X139738095Y-115652857D01*
X139738095Y-115652857D02*
X139738095Y-115795714D01*
X139738095Y-115795714D02*
X139690476Y-115890952D01*
X139690476Y-115890952D02*
X139642857Y-115938571D01*
X139642857Y-115938571D02*
X139547619Y-115986190D01*
X139547619Y-115986190D02*
X139166667Y-115986190D01*
X140071429Y-115462380D02*
X140690476Y-115462380D01*
X140690476Y-115462380D02*
X140357143Y-115843333D01*
X140357143Y-115843333D02*
X140500000Y-115843333D01*
X140500000Y-115843333D02*
X140595238Y-115890952D01*
X140595238Y-115890952D02*
X140642857Y-115938571D01*
X140642857Y-115938571D02*
X140690476Y-116033809D01*
X140690476Y-116033809D02*
X140690476Y-116271904D01*
X140690476Y-116271904D02*
X140642857Y-116367142D01*
X140642857Y-116367142D02*
X140595238Y-116414761D01*
X140595238Y-116414761D02*
X140500000Y-116462380D01*
X140500000Y-116462380D02*
X140214286Y-116462380D01*
X140214286Y-116462380D02*
X140119048Y-116414761D01*
X140119048Y-116414761D02*
X140071429Y-116367142D01*
X141166667Y-116462380D02*
X141357143Y-116462380D01*
X141357143Y-116462380D02*
X141452381Y-116414761D01*
X141452381Y-116414761D02*
X141500000Y-116367142D01*
X141500000Y-116367142D02*
X141595238Y-116224285D01*
X141595238Y-116224285D02*
X141642857Y-116033809D01*
X141642857Y-116033809D02*
X141642857Y-115652857D01*
X141642857Y-115652857D02*
X141595238Y-115557619D01*
X141595238Y-115557619D02*
X141547619Y-115510000D01*
X141547619Y-115510000D02*
X141452381Y-115462380D01*
X141452381Y-115462380D02*
X141261905Y-115462380D01*
X141261905Y-115462380D02*
X141166667Y-115510000D01*
X141166667Y-115510000D02*
X141119048Y-115557619D01*
X141119048Y-115557619D02*
X141071429Y-115652857D01*
X141071429Y-115652857D02*
X141071429Y-115890952D01*
X141071429Y-115890952D02*
X141119048Y-115986190D01*
X141119048Y-115986190D02*
X141166667Y-116033809D01*
X141166667Y-116033809D02*
X141261905Y-116081428D01*
X141261905Y-116081428D02*
X141452381Y-116081428D01*
X141452381Y-116081428D02*
X141547619Y-116033809D01*
X141547619Y-116033809D02*
X141595238Y-115986190D01*
X141595238Y-115986190D02*
X141642857Y-115890952D01*
%TO.C,R5*%
X137333333Y-85067380D02*
X137000000Y-84591190D01*
X136761905Y-85067380D02*
X136761905Y-84067380D01*
X136761905Y-84067380D02*
X137142857Y-84067380D01*
X137142857Y-84067380D02*
X137238095Y-84115000D01*
X137238095Y-84115000D02*
X137285714Y-84162619D01*
X137285714Y-84162619D02*
X137333333Y-84257857D01*
X137333333Y-84257857D02*
X137333333Y-84400714D01*
X137333333Y-84400714D02*
X137285714Y-84495952D01*
X137285714Y-84495952D02*
X137238095Y-84543571D01*
X137238095Y-84543571D02*
X137142857Y-84591190D01*
X137142857Y-84591190D02*
X136761905Y-84591190D01*
X138238095Y-84067380D02*
X137761905Y-84067380D01*
X137761905Y-84067380D02*
X137714286Y-84543571D01*
X137714286Y-84543571D02*
X137761905Y-84495952D01*
X137761905Y-84495952D02*
X137857143Y-84448333D01*
X137857143Y-84448333D02*
X138095238Y-84448333D01*
X138095238Y-84448333D02*
X138190476Y-84495952D01*
X138190476Y-84495952D02*
X138238095Y-84543571D01*
X138238095Y-84543571D02*
X138285714Y-84638809D01*
X138285714Y-84638809D02*
X138285714Y-84876904D01*
X138285714Y-84876904D02*
X138238095Y-84972142D01*
X138238095Y-84972142D02*
X138190476Y-85019761D01*
X138190476Y-85019761D02*
X138095238Y-85067380D01*
X138095238Y-85067380D02*
X137857143Y-85067380D01*
X137857143Y-85067380D02*
X137761905Y-85019761D01*
X137761905Y-85019761D02*
X137714286Y-84972142D01*
%TO.C,U6*%
X142238095Y-110267380D02*
X142238095Y-111076904D01*
X142238095Y-111076904D02*
X142285714Y-111172142D01*
X142285714Y-111172142D02*
X142333333Y-111219761D01*
X142333333Y-111219761D02*
X142428571Y-111267380D01*
X142428571Y-111267380D02*
X142619047Y-111267380D01*
X142619047Y-111267380D02*
X142714285Y-111219761D01*
X142714285Y-111219761D02*
X142761904Y-111172142D01*
X142761904Y-111172142D02*
X142809523Y-111076904D01*
X142809523Y-111076904D02*
X142809523Y-110267380D01*
X143714285Y-110267380D02*
X143523809Y-110267380D01*
X143523809Y-110267380D02*
X143428571Y-110315000D01*
X143428571Y-110315000D02*
X143380952Y-110362619D01*
X143380952Y-110362619D02*
X143285714Y-110505476D01*
X143285714Y-110505476D02*
X143238095Y-110695952D01*
X143238095Y-110695952D02*
X143238095Y-111076904D01*
X143238095Y-111076904D02*
X143285714Y-111172142D01*
X143285714Y-111172142D02*
X143333333Y-111219761D01*
X143333333Y-111219761D02*
X143428571Y-111267380D01*
X143428571Y-111267380D02*
X143619047Y-111267380D01*
X143619047Y-111267380D02*
X143714285Y-111219761D01*
X143714285Y-111219761D02*
X143761904Y-111172142D01*
X143761904Y-111172142D02*
X143809523Y-111076904D01*
X143809523Y-111076904D02*
X143809523Y-110838809D01*
X143809523Y-110838809D02*
X143761904Y-110743571D01*
X143761904Y-110743571D02*
X143714285Y-110695952D01*
X143714285Y-110695952D02*
X143619047Y-110648333D01*
X143619047Y-110648333D02*
X143428571Y-110648333D01*
X143428571Y-110648333D02*
X143333333Y-110695952D01*
X143333333Y-110695952D02*
X143285714Y-110743571D01*
X143285714Y-110743571D02*
X143238095Y-110838809D01*
%TO.C,C6*%
X144633333Y-103272142D02*
X144585714Y-103319761D01*
X144585714Y-103319761D02*
X144442857Y-103367380D01*
X144442857Y-103367380D02*
X144347619Y-103367380D01*
X144347619Y-103367380D02*
X144204762Y-103319761D01*
X144204762Y-103319761D02*
X144109524Y-103224523D01*
X144109524Y-103224523D02*
X144061905Y-103129285D01*
X144061905Y-103129285D02*
X144014286Y-102938809D01*
X144014286Y-102938809D02*
X144014286Y-102795952D01*
X144014286Y-102795952D02*
X144061905Y-102605476D01*
X144061905Y-102605476D02*
X144109524Y-102510238D01*
X144109524Y-102510238D02*
X144204762Y-102415000D01*
X144204762Y-102415000D02*
X144347619Y-102367380D01*
X144347619Y-102367380D02*
X144442857Y-102367380D01*
X144442857Y-102367380D02*
X144585714Y-102415000D01*
X144585714Y-102415000D02*
X144633333Y-102462619D01*
X145490476Y-102367380D02*
X145300000Y-102367380D01*
X145300000Y-102367380D02*
X145204762Y-102415000D01*
X145204762Y-102415000D02*
X145157143Y-102462619D01*
X145157143Y-102462619D02*
X145061905Y-102605476D01*
X145061905Y-102605476D02*
X145014286Y-102795952D01*
X145014286Y-102795952D02*
X145014286Y-103176904D01*
X145014286Y-103176904D02*
X145061905Y-103272142D01*
X145061905Y-103272142D02*
X145109524Y-103319761D01*
X145109524Y-103319761D02*
X145204762Y-103367380D01*
X145204762Y-103367380D02*
X145395238Y-103367380D01*
X145395238Y-103367380D02*
X145490476Y-103319761D01*
X145490476Y-103319761D02*
X145538095Y-103272142D01*
X145538095Y-103272142D02*
X145585714Y-103176904D01*
X145585714Y-103176904D02*
X145585714Y-102938809D01*
X145585714Y-102938809D02*
X145538095Y-102843571D01*
X145538095Y-102843571D02*
X145490476Y-102795952D01*
X145490476Y-102795952D02*
X145395238Y-102748333D01*
X145395238Y-102748333D02*
X145204762Y-102748333D01*
X145204762Y-102748333D02*
X145109524Y-102795952D01*
X145109524Y-102795952D02*
X145061905Y-102843571D01*
X145061905Y-102843571D02*
X145014286Y-102938809D01*
%TO.C,PS1*%
X162960714Y-78232380D02*
X162960714Y-77232380D01*
X162960714Y-77232380D02*
X163341666Y-77232380D01*
X163341666Y-77232380D02*
X163436904Y-77280000D01*
X163436904Y-77280000D02*
X163484523Y-77327619D01*
X163484523Y-77327619D02*
X163532142Y-77422857D01*
X163532142Y-77422857D02*
X163532142Y-77565714D01*
X163532142Y-77565714D02*
X163484523Y-77660952D01*
X163484523Y-77660952D02*
X163436904Y-77708571D01*
X163436904Y-77708571D02*
X163341666Y-77756190D01*
X163341666Y-77756190D02*
X162960714Y-77756190D01*
X163913095Y-78184761D02*
X164055952Y-78232380D01*
X164055952Y-78232380D02*
X164294047Y-78232380D01*
X164294047Y-78232380D02*
X164389285Y-78184761D01*
X164389285Y-78184761D02*
X164436904Y-78137142D01*
X164436904Y-78137142D02*
X164484523Y-78041904D01*
X164484523Y-78041904D02*
X164484523Y-77946666D01*
X164484523Y-77946666D02*
X164436904Y-77851428D01*
X164436904Y-77851428D02*
X164389285Y-77803809D01*
X164389285Y-77803809D02*
X164294047Y-77756190D01*
X164294047Y-77756190D02*
X164103571Y-77708571D01*
X164103571Y-77708571D02*
X164008333Y-77660952D01*
X164008333Y-77660952D02*
X163960714Y-77613333D01*
X163960714Y-77613333D02*
X163913095Y-77518095D01*
X163913095Y-77518095D02*
X163913095Y-77422857D01*
X163913095Y-77422857D02*
X163960714Y-77327619D01*
X163960714Y-77327619D02*
X164008333Y-77280000D01*
X164008333Y-77280000D02*
X164103571Y-77232380D01*
X164103571Y-77232380D02*
X164341666Y-77232380D01*
X164341666Y-77232380D02*
X164484523Y-77280000D01*
X165436904Y-78232380D02*
X164865476Y-78232380D01*
X165151190Y-78232380D02*
X165151190Y-77232380D01*
X165151190Y-77232380D02*
X165055952Y-77375238D01*
X165055952Y-77375238D02*
X164960714Y-77470476D01*
X164960714Y-77470476D02*
X164865476Y-77518095D01*
%TO.C,R2*%
X137433333Y-98367380D02*
X137100000Y-97891190D01*
X136861905Y-98367380D02*
X136861905Y-97367380D01*
X136861905Y-97367380D02*
X137242857Y-97367380D01*
X137242857Y-97367380D02*
X137338095Y-97415000D01*
X137338095Y-97415000D02*
X137385714Y-97462619D01*
X137385714Y-97462619D02*
X137433333Y-97557857D01*
X137433333Y-97557857D02*
X137433333Y-97700714D01*
X137433333Y-97700714D02*
X137385714Y-97795952D01*
X137385714Y-97795952D02*
X137338095Y-97843571D01*
X137338095Y-97843571D02*
X137242857Y-97891190D01*
X137242857Y-97891190D02*
X136861905Y-97891190D01*
X137814286Y-97462619D02*
X137861905Y-97415000D01*
X137861905Y-97415000D02*
X137957143Y-97367380D01*
X137957143Y-97367380D02*
X138195238Y-97367380D01*
X138195238Y-97367380D02*
X138290476Y-97415000D01*
X138290476Y-97415000D02*
X138338095Y-97462619D01*
X138338095Y-97462619D02*
X138385714Y-97557857D01*
X138385714Y-97557857D02*
X138385714Y-97653095D01*
X138385714Y-97653095D02*
X138338095Y-97795952D01*
X138338095Y-97795952D02*
X137766667Y-98367380D01*
X137766667Y-98367380D02*
X138385714Y-98367380D01*
%TO.C,R9*%
X136333333Y-103717380D02*
X136000000Y-103241190D01*
X135761905Y-103717380D02*
X135761905Y-102717380D01*
X135761905Y-102717380D02*
X136142857Y-102717380D01*
X136142857Y-102717380D02*
X136238095Y-102765000D01*
X136238095Y-102765000D02*
X136285714Y-102812619D01*
X136285714Y-102812619D02*
X136333333Y-102907857D01*
X136333333Y-102907857D02*
X136333333Y-103050714D01*
X136333333Y-103050714D02*
X136285714Y-103145952D01*
X136285714Y-103145952D02*
X136238095Y-103193571D01*
X136238095Y-103193571D02*
X136142857Y-103241190D01*
X136142857Y-103241190D02*
X135761905Y-103241190D01*
X136809524Y-103717380D02*
X137000000Y-103717380D01*
X137000000Y-103717380D02*
X137095238Y-103669761D01*
X137095238Y-103669761D02*
X137142857Y-103622142D01*
X137142857Y-103622142D02*
X137238095Y-103479285D01*
X137238095Y-103479285D02*
X137285714Y-103288809D01*
X137285714Y-103288809D02*
X137285714Y-102907857D01*
X137285714Y-102907857D02*
X137238095Y-102812619D01*
X137238095Y-102812619D02*
X137190476Y-102765000D01*
X137190476Y-102765000D02*
X137095238Y-102717380D01*
X137095238Y-102717380D02*
X136904762Y-102717380D01*
X136904762Y-102717380D02*
X136809524Y-102765000D01*
X136809524Y-102765000D02*
X136761905Y-102812619D01*
X136761905Y-102812619D02*
X136714286Y-102907857D01*
X136714286Y-102907857D02*
X136714286Y-103145952D01*
X136714286Y-103145952D02*
X136761905Y-103241190D01*
X136761905Y-103241190D02*
X136809524Y-103288809D01*
X136809524Y-103288809D02*
X136904762Y-103336428D01*
X136904762Y-103336428D02*
X137095238Y-103336428D01*
X137095238Y-103336428D02*
X137190476Y-103288809D01*
X137190476Y-103288809D02*
X137238095Y-103241190D01*
X137238095Y-103241190D02*
X137285714Y-103145952D01*
%TO.C,R8*%
X136233333Y-114967380D02*
X135900000Y-114491190D01*
X135661905Y-114967380D02*
X135661905Y-113967380D01*
X135661905Y-113967380D02*
X136042857Y-113967380D01*
X136042857Y-113967380D02*
X136138095Y-114015000D01*
X136138095Y-114015000D02*
X136185714Y-114062619D01*
X136185714Y-114062619D02*
X136233333Y-114157857D01*
X136233333Y-114157857D02*
X136233333Y-114300714D01*
X136233333Y-114300714D02*
X136185714Y-114395952D01*
X136185714Y-114395952D02*
X136138095Y-114443571D01*
X136138095Y-114443571D02*
X136042857Y-114491190D01*
X136042857Y-114491190D02*
X135661905Y-114491190D01*
X136804762Y-114395952D02*
X136709524Y-114348333D01*
X136709524Y-114348333D02*
X136661905Y-114300714D01*
X136661905Y-114300714D02*
X136614286Y-114205476D01*
X136614286Y-114205476D02*
X136614286Y-114157857D01*
X136614286Y-114157857D02*
X136661905Y-114062619D01*
X136661905Y-114062619D02*
X136709524Y-114015000D01*
X136709524Y-114015000D02*
X136804762Y-113967380D01*
X136804762Y-113967380D02*
X136995238Y-113967380D01*
X136995238Y-113967380D02*
X137090476Y-114015000D01*
X137090476Y-114015000D02*
X137138095Y-114062619D01*
X137138095Y-114062619D02*
X137185714Y-114157857D01*
X137185714Y-114157857D02*
X137185714Y-114205476D01*
X137185714Y-114205476D02*
X137138095Y-114300714D01*
X137138095Y-114300714D02*
X137090476Y-114348333D01*
X137090476Y-114348333D02*
X136995238Y-114395952D01*
X136995238Y-114395952D02*
X136804762Y-114395952D01*
X136804762Y-114395952D02*
X136709524Y-114443571D01*
X136709524Y-114443571D02*
X136661905Y-114491190D01*
X136661905Y-114491190D02*
X136614286Y-114586428D01*
X136614286Y-114586428D02*
X136614286Y-114776904D01*
X136614286Y-114776904D02*
X136661905Y-114872142D01*
X136661905Y-114872142D02*
X136709524Y-114919761D01*
X136709524Y-114919761D02*
X136804762Y-114967380D01*
X136804762Y-114967380D02*
X136995238Y-114967380D01*
X136995238Y-114967380D02*
X137090476Y-114919761D01*
X137090476Y-114919761D02*
X137138095Y-114872142D01*
X137138095Y-114872142D02*
X137185714Y-114776904D01*
X137185714Y-114776904D02*
X137185714Y-114586428D01*
X137185714Y-114586428D02*
X137138095Y-114491190D01*
X137138095Y-114491190D02*
X137090476Y-114443571D01*
X137090476Y-114443571D02*
X136995238Y-114395952D01*
%TO.C,R7*%
X131833333Y-114767380D02*
X131500000Y-114291190D01*
X131261905Y-114767380D02*
X131261905Y-113767380D01*
X131261905Y-113767380D02*
X131642857Y-113767380D01*
X131642857Y-113767380D02*
X131738095Y-113815000D01*
X131738095Y-113815000D02*
X131785714Y-113862619D01*
X131785714Y-113862619D02*
X131833333Y-113957857D01*
X131833333Y-113957857D02*
X131833333Y-114100714D01*
X131833333Y-114100714D02*
X131785714Y-114195952D01*
X131785714Y-114195952D02*
X131738095Y-114243571D01*
X131738095Y-114243571D02*
X131642857Y-114291190D01*
X131642857Y-114291190D02*
X131261905Y-114291190D01*
X132166667Y-113767380D02*
X132833333Y-113767380D01*
X132833333Y-113767380D02*
X132404762Y-114767380D01*
%TO.C,C5*%
X139333333Y-79372142D02*
X139285714Y-79419761D01*
X139285714Y-79419761D02*
X139142857Y-79467380D01*
X139142857Y-79467380D02*
X139047619Y-79467380D01*
X139047619Y-79467380D02*
X138904762Y-79419761D01*
X138904762Y-79419761D02*
X138809524Y-79324523D01*
X138809524Y-79324523D02*
X138761905Y-79229285D01*
X138761905Y-79229285D02*
X138714286Y-79038809D01*
X138714286Y-79038809D02*
X138714286Y-78895952D01*
X138714286Y-78895952D02*
X138761905Y-78705476D01*
X138761905Y-78705476D02*
X138809524Y-78610238D01*
X138809524Y-78610238D02*
X138904762Y-78515000D01*
X138904762Y-78515000D02*
X139047619Y-78467380D01*
X139047619Y-78467380D02*
X139142857Y-78467380D01*
X139142857Y-78467380D02*
X139285714Y-78515000D01*
X139285714Y-78515000D02*
X139333333Y-78562619D01*
X140238095Y-78467380D02*
X139761905Y-78467380D01*
X139761905Y-78467380D02*
X139714286Y-78943571D01*
X139714286Y-78943571D02*
X139761905Y-78895952D01*
X139761905Y-78895952D02*
X139857143Y-78848333D01*
X139857143Y-78848333D02*
X140095238Y-78848333D01*
X140095238Y-78848333D02*
X140190476Y-78895952D01*
X140190476Y-78895952D02*
X140238095Y-78943571D01*
X140238095Y-78943571D02*
X140285714Y-79038809D01*
X140285714Y-79038809D02*
X140285714Y-79276904D01*
X140285714Y-79276904D02*
X140238095Y-79372142D01*
X140238095Y-79372142D02*
X140190476Y-79419761D01*
X140190476Y-79419761D02*
X140095238Y-79467380D01*
X140095238Y-79467380D02*
X139857143Y-79467380D01*
X139857143Y-79467380D02*
X139761905Y-79419761D01*
X139761905Y-79419761D02*
X139714286Y-79372142D01*
%TO.C,R4*%
X132433333Y-84567380D02*
X132100000Y-84091190D01*
X131861905Y-84567380D02*
X131861905Y-83567380D01*
X131861905Y-83567380D02*
X132242857Y-83567380D01*
X132242857Y-83567380D02*
X132338095Y-83615000D01*
X132338095Y-83615000D02*
X132385714Y-83662619D01*
X132385714Y-83662619D02*
X132433333Y-83757857D01*
X132433333Y-83757857D02*
X132433333Y-83900714D01*
X132433333Y-83900714D02*
X132385714Y-83995952D01*
X132385714Y-83995952D02*
X132338095Y-84043571D01*
X132338095Y-84043571D02*
X132242857Y-84091190D01*
X132242857Y-84091190D02*
X131861905Y-84091190D01*
X133290476Y-83900714D02*
X133290476Y-84567380D01*
X133052381Y-83519761D02*
X132814286Y-84234047D01*
X132814286Y-84234047D02*
X133433333Y-84234047D01*
%TO.C,R3*%
X137413333Y-87139880D02*
X137080000Y-86663690D01*
X136841905Y-87139880D02*
X136841905Y-86139880D01*
X136841905Y-86139880D02*
X137222857Y-86139880D01*
X137222857Y-86139880D02*
X137318095Y-86187500D01*
X137318095Y-86187500D02*
X137365714Y-86235119D01*
X137365714Y-86235119D02*
X137413333Y-86330357D01*
X137413333Y-86330357D02*
X137413333Y-86473214D01*
X137413333Y-86473214D02*
X137365714Y-86568452D01*
X137365714Y-86568452D02*
X137318095Y-86616071D01*
X137318095Y-86616071D02*
X137222857Y-86663690D01*
X137222857Y-86663690D02*
X136841905Y-86663690D01*
X137746667Y-86139880D02*
X138365714Y-86139880D01*
X138365714Y-86139880D02*
X138032381Y-86520833D01*
X138032381Y-86520833D02*
X138175238Y-86520833D01*
X138175238Y-86520833D02*
X138270476Y-86568452D01*
X138270476Y-86568452D02*
X138318095Y-86616071D01*
X138318095Y-86616071D02*
X138365714Y-86711309D01*
X138365714Y-86711309D02*
X138365714Y-86949404D01*
X138365714Y-86949404D02*
X138318095Y-87044642D01*
X138318095Y-87044642D02*
X138270476Y-87092261D01*
X138270476Y-87092261D02*
X138175238Y-87139880D01*
X138175238Y-87139880D02*
X137889524Y-87139880D01*
X137889524Y-87139880D02*
X137794286Y-87092261D01*
X137794286Y-87092261D02*
X137746667Y-87044642D01*
%TO.C,A1*%
X241751666Y-95321785D02*
X241751666Y-94845595D01*
X242037380Y-95417023D02*
X241037380Y-95083690D01*
X241037380Y-95083690D02*
X242037380Y-94750357D01*
X242037380Y-93893214D02*
X242037380Y-94464642D01*
X242037380Y-94178928D02*
X241037380Y-94178928D01*
X241037380Y-94178928D02*
X241180238Y-94274166D01*
X241180238Y-94274166D02*
X241275476Y-94369404D01*
X241275476Y-94369404D02*
X241323095Y-94464642D01*
%TO.C,PS2*%
X149385714Y-123967380D02*
X149385714Y-122967380D01*
X149385714Y-122967380D02*
X149766666Y-122967380D01*
X149766666Y-122967380D02*
X149861904Y-123015000D01*
X149861904Y-123015000D02*
X149909523Y-123062619D01*
X149909523Y-123062619D02*
X149957142Y-123157857D01*
X149957142Y-123157857D02*
X149957142Y-123300714D01*
X149957142Y-123300714D02*
X149909523Y-123395952D01*
X149909523Y-123395952D02*
X149861904Y-123443571D01*
X149861904Y-123443571D02*
X149766666Y-123491190D01*
X149766666Y-123491190D02*
X149385714Y-123491190D01*
X150338095Y-123919761D02*
X150480952Y-123967380D01*
X150480952Y-123967380D02*
X150719047Y-123967380D01*
X150719047Y-123967380D02*
X150814285Y-123919761D01*
X150814285Y-123919761D02*
X150861904Y-123872142D01*
X150861904Y-123872142D02*
X150909523Y-123776904D01*
X150909523Y-123776904D02*
X150909523Y-123681666D01*
X150909523Y-123681666D02*
X150861904Y-123586428D01*
X150861904Y-123586428D02*
X150814285Y-123538809D01*
X150814285Y-123538809D02*
X150719047Y-123491190D01*
X150719047Y-123491190D02*
X150528571Y-123443571D01*
X150528571Y-123443571D02*
X150433333Y-123395952D01*
X150433333Y-123395952D02*
X150385714Y-123348333D01*
X150385714Y-123348333D02*
X150338095Y-123253095D01*
X150338095Y-123253095D02*
X150338095Y-123157857D01*
X150338095Y-123157857D02*
X150385714Y-123062619D01*
X150385714Y-123062619D02*
X150433333Y-123015000D01*
X150433333Y-123015000D02*
X150528571Y-122967380D01*
X150528571Y-122967380D02*
X150766666Y-122967380D01*
X150766666Y-122967380D02*
X150909523Y-123015000D01*
X151290476Y-123062619D02*
X151338095Y-123015000D01*
X151338095Y-123015000D02*
X151433333Y-122967380D01*
X151433333Y-122967380D02*
X151671428Y-122967380D01*
X151671428Y-122967380D02*
X151766666Y-123015000D01*
X151766666Y-123015000D02*
X151814285Y-123062619D01*
X151814285Y-123062619D02*
X151861904Y-123157857D01*
X151861904Y-123157857D02*
X151861904Y-123253095D01*
X151861904Y-123253095D02*
X151814285Y-123395952D01*
X151814285Y-123395952D02*
X151242857Y-123967380D01*
X151242857Y-123967380D02*
X151861904Y-123967380D01*
%TO.C,U4*%
X188038095Y-117367380D02*
X188038095Y-118176904D01*
X188038095Y-118176904D02*
X188085714Y-118272142D01*
X188085714Y-118272142D02*
X188133333Y-118319761D01*
X188133333Y-118319761D02*
X188228571Y-118367380D01*
X188228571Y-118367380D02*
X188419047Y-118367380D01*
X188419047Y-118367380D02*
X188514285Y-118319761D01*
X188514285Y-118319761D02*
X188561904Y-118272142D01*
X188561904Y-118272142D02*
X188609523Y-118176904D01*
X188609523Y-118176904D02*
X188609523Y-117367380D01*
X189514285Y-117700714D02*
X189514285Y-118367380D01*
X189276190Y-117319761D02*
X189038095Y-118034047D01*
X189038095Y-118034047D02*
X189657142Y-118034047D01*
%TO.C,C1*%
X139533333Y-92504642D02*
X139485714Y-92552261D01*
X139485714Y-92552261D02*
X139342857Y-92599880D01*
X139342857Y-92599880D02*
X139247619Y-92599880D01*
X139247619Y-92599880D02*
X139104762Y-92552261D01*
X139104762Y-92552261D02*
X139009524Y-92457023D01*
X139009524Y-92457023D02*
X138961905Y-92361785D01*
X138961905Y-92361785D02*
X138914286Y-92171309D01*
X138914286Y-92171309D02*
X138914286Y-92028452D01*
X138914286Y-92028452D02*
X138961905Y-91837976D01*
X138961905Y-91837976D02*
X139009524Y-91742738D01*
X139009524Y-91742738D02*
X139104762Y-91647500D01*
X139104762Y-91647500D02*
X139247619Y-91599880D01*
X139247619Y-91599880D02*
X139342857Y-91599880D01*
X139342857Y-91599880D02*
X139485714Y-91647500D01*
X139485714Y-91647500D02*
X139533333Y-91695119D01*
X140485714Y-92599880D02*
X139914286Y-92599880D01*
X140200000Y-92599880D02*
X140200000Y-91599880D01*
X140200000Y-91599880D02*
X140104762Y-91742738D01*
X140104762Y-91742738D02*
X140009524Y-91837976D01*
X140009524Y-91837976D02*
X139914286Y-91885595D01*
%TO.C,C3*%
X183133333Y-122372142D02*
X183085714Y-122419761D01*
X183085714Y-122419761D02*
X182942857Y-122467380D01*
X182942857Y-122467380D02*
X182847619Y-122467380D01*
X182847619Y-122467380D02*
X182704762Y-122419761D01*
X182704762Y-122419761D02*
X182609524Y-122324523D01*
X182609524Y-122324523D02*
X182561905Y-122229285D01*
X182561905Y-122229285D02*
X182514286Y-122038809D01*
X182514286Y-122038809D02*
X182514286Y-121895952D01*
X182514286Y-121895952D02*
X182561905Y-121705476D01*
X182561905Y-121705476D02*
X182609524Y-121610238D01*
X182609524Y-121610238D02*
X182704762Y-121515000D01*
X182704762Y-121515000D02*
X182847619Y-121467380D01*
X182847619Y-121467380D02*
X182942857Y-121467380D01*
X182942857Y-121467380D02*
X183085714Y-121515000D01*
X183085714Y-121515000D02*
X183133333Y-121562619D01*
X183466667Y-121467380D02*
X184085714Y-121467380D01*
X184085714Y-121467380D02*
X183752381Y-121848333D01*
X183752381Y-121848333D02*
X183895238Y-121848333D01*
X183895238Y-121848333D02*
X183990476Y-121895952D01*
X183990476Y-121895952D02*
X184038095Y-121943571D01*
X184038095Y-121943571D02*
X184085714Y-122038809D01*
X184085714Y-122038809D02*
X184085714Y-122276904D01*
X184085714Y-122276904D02*
X184038095Y-122372142D01*
X184038095Y-122372142D02*
X183990476Y-122419761D01*
X183990476Y-122419761D02*
X183895238Y-122467380D01*
X183895238Y-122467380D02*
X183609524Y-122467380D01*
X183609524Y-122467380D02*
X183514286Y-122419761D01*
X183514286Y-122419761D02*
X183466667Y-122372142D01*
%TO.C,C2*%
X137833333Y-108772142D02*
X137785714Y-108819761D01*
X137785714Y-108819761D02*
X137642857Y-108867380D01*
X137642857Y-108867380D02*
X137547619Y-108867380D01*
X137547619Y-108867380D02*
X137404762Y-108819761D01*
X137404762Y-108819761D02*
X137309524Y-108724523D01*
X137309524Y-108724523D02*
X137261905Y-108629285D01*
X137261905Y-108629285D02*
X137214286Y-108438809D01*
X137214286Y-108438809D02*
X137214286Y-108295952D01*
X137214286Y-108295952D02*
X137261905Y-108105476D01*
X137261905Y-108105476D02*
X137309524Y-108010238D01*
X137309524Y-108010238D02*
X137404762Y-107915000D01*
X137404762Y-107915000D02*
X137547619Y-107867380D01*
X137547619Y-107867380D02*
X137642857Y-107867380D01*
X137642857Y-107867380D02*
X137785714Y-107915000D01*
X137785714Y-107915000D02*
X137833333Y-107962619D01*
X138214286Y-107962619D02*
X138261905Y-107915000D01*
X138261905Y-107915000D02*
X138357143Y-107867380D01*
X138357143Y-107867380D02*
X138595238Y-107867380D01*
X138595238Y-107867380D02*
X138690476Y-107915000D01*
X138690476Y-107915000D02*
X138738095Y-107962619D01*
X138738095Y-107962619D02*
X138785714Y-108057857D01*
X138785714Y-108057857D02*
X138785714Y-108153095D01*
X138785714Y-108153095D02*
X138738095Y-108295952D01*
X138738095Y-108295952D02*
X138166667Y-108867380D01*
X138166667Y-108867380D02*
X138785714Y-108867380D01*
%TO.C,C4*%
X145833333Y-87872142D02*
X145785714Y-87919761D01*
X145785714Y-87919761D02*
X145642857Y-87967380D01*
X145642857Y-87967380D02*
X145547619Y-87967380D01*
X145547619Y-87967380D02*
X145404762Y-87919761D01*
X145404762Y-87919761D02*
X145309524Y-87824523D01*
X145309524Y-87824523D02*
X145261905Y-87729285D01*
X145261905Y-87729285D02*
X145214286Y-87538809D01*
X145214286Y-87538809D02*
X145214286Y-87395952D01*
X145214286Y-87395952D02*
X145261905Y-87205476D01*
X145261905Y-87205476D02*
X145309524Y-87110238D01*
X145309524Y-87110238D02*
X145404762Y-87015000D01*
X145404762Y-87015000D02*
X145547619Y-86967380D01*
X145547619Y-86967380D02*
X145642857Y-86967380D01*
X145642857Y-86967380D02*
X145785714Y-87015000D01*
X145785714Y-87015000D02*
X145833333Y-87062619D01*
X146690476Y-87300714D02*
X146690476Y-87967380D01*
X146452381Y-86919761D02*
X146214286Y-87634047D01*
X146214286Y-87634047D02*
X146833333Y-87634047D01*
%TO.C,C7*%
X188833333Y-109972142D02*
X188785714Y-110019761D01*
X188785714Y-110019761D02*
X188642857Y-110067380D01*
X188642857Y-110067380D02*
X188547619Y-110067380D01*
X188547619Y-110067380D02*
X188404762Y-110019761D01*
X188404762Y-110019761D02*
X188309524Y-109924523D01*
X188309524Y-109924523D02*
X188261905Y-109829285D01*
X188261905Y-109829285D02*
X188214286Y-109638809D01*
X188214286Y-109638809D02*
X188214286Y-109495952D01*
X188214286Y-109495952D02*
X188261905Y-109305476D01*
X188261905Y-109305476D02*
X188309524Y-109210238D01*
X188309524Y-109210238D02*
X188404762Y-109115000D01*
X188404762Y-109115000D02*
X188547619Y-109067380D01*
X188547619Y-109067380D02*
X188642857Y-109067380D01*
X188642857Y-109067380D02*
X188785714Y-109115000D01*
X188785714Y-109115000D02*
X188833333Y-109162619D01*
X189166667Y-109067380D02*
X189833333Y-109067380D01*
X189833333Y-109067380D02*
X189404762Y-110067380D01*
%TO.C,R1*%
X132333333Y-98367380D02*
X132000000Y-97891190D01*
X131761905Y-98367380D02*
X131761905Y-97367380D01*
X131761905Y-97367380D02*
X132142857Y-97367380D01*
X132142857Y-97367380D02*
X132238095Y-97415000D01*
X132238095Y-97415000D02*
X132285714Y-97462619D01*
X132285714Y-97462619D02*
X132333333Y-97557857D01*
X132333333Y-97557857D02*
X132333333Y-97700714D01*
X132333333Y-97700714D02*
X132285714Y-97795952D01*
X132285714Y-97795952D02*
X132238095Y-97843571D01*
X132238095Y-97843571D02*
X132142857Y-97891190D01*
X132142857Y-97891190D02*
X131761905Y-97891190D01*
X133285714Y-98367380D02*
X132714286Y-98367380D01*
X133000000Y-98367380D02*
X133000000Y-97367380D01*
X133000000Y-97367380D02*
X132904762Y-97510238D01*
X132904762Y-97510238D02*
X132809524Y-97605476D01*
X132809524Y-97605476D02*
X132714286Y-97653095D01*
%TO.C,U1*%
X144238095Y-81267380D02*
X144238095Y-82076904D01*
X144238095Y-82076904D02*
X144285714Y-82172142D01*
X144285714Y-82172142D02*
X144333333Y-82219761D01*
X144333333Y-82219761D02*
X144428571Y-82267380D01*
X144428571Y-82267380D02*
X144619047Y-82267380D01*
X144619047Y-82267380D02*
X144714285Y-82219761D01*
X144714285Y-82219761D02*
X144761904Y-82172142D01*
X144761904Y-82172142D02*
X144809523Y-82076904D01*
X144809523Y-82076904D02*
X144809523Y-81267380D01*
X145809523Y-82267380D02*
X145238095Y-82267380D01*
X145523809Y-82267380D02*
X145523809Y-81267380D01*
X145523809Y-81267380D02*
X145428571Y-81410238D01*
X145428571Y-81410238D02*
X145333333Y-81505476D01*
X145333333Y-81505476D02*
X145238095Y-81553095D01*
%TO.C,C1*%
X180633333Y-122372142D02*
X180585714Y-122419761D01*
X180585714Y-122419761D02*
X180442857Y-122467380D01*
X180442857Y-122467380D02*
X180347619Y-122467380D01*
X180347619Y-122467380D02*
X180204762Y-122419761D01*
X180204762Y-122419761D02*
X180109524Y-122324523D01*
X180109524Y-122324523D02*
X180061905Y-122229285D01*
X180061905Y-122229285D02*
X180014286Y-122038809D01*
X180014286Y-122038809D02*
X180014286Y-121895952D01*
X180014286Y-121895952D02*
X180061905Y-121705476D01*
X180061905Y-121705476D02*
X180109524Y-121610238D01*
X180109524Y-121610238D02*
X180204762Y-121515000D01*
X180204762Y-121515000D02*
X180347619Y-121467380D01*
X180347619Y-121467380D02*
X180442857Y-121467380D01*
X180442857Y-121467380D02*
X180585714Y-121515000D01*
X180585714Y-121515000D02*
X180633333Y-121562619D01*
X181585714Y-122467380D02*
X181014286Y-122467380D01*
X181300000Y-122467380D02*
X181300000Y-121467380D01*
X181300000Y-121467380D02*
X181204762Y-121610238D01*
X181204762Y-121610238D02*
X181109524Y-121705476D01*
X181109524Y-121705476D02*
X181014286Y-121753095D01*
%TO.C,U2*%
X143738095Y-94767380D02*
X143738095Y-95576904D01*
X143738095Y-95576904D02*
X143785714Y-95672142D01*
X143785714Y-95672142D02*
X143833333Y-95719761D01*
X143833333Y-95719761D02*
X143928571Y-95767380D01*
X143928571Y-95767380D02*
X144119047Y-95767380D01*
X144119047Y-95767380D02*
X144214285Y-95719761D01*
X144214285Y-95719761D02*
X144261904Y-95672142D01*
X144261904Y-95672142D02*
X144309523Y-95576904D01*
X144309523Y-95576904D02*
X144309523Y-94767380D01*
X144738095Y-94862619D02*
X144785714Y-94815000D01*
X144785714Y-94815000D02*
X144880952Y-94767380D01*
X144880952Y-94767380D02*
X145119047Y-94767380D01*
X145119047Y-94767380D02*
X145214285Y-94815000D01*
X145214285Y-94815000D02*
X145261904Y-94862619D01*
X145261904Y-94862619D02*
X145309523Y-94957857D01*
X145309523Y-94957857D02*
X145309523Y-95053095D01*
X145309523Y-95053095D02*
X145261904Y-95195952D01*
X145261904Y-95195952D02*
X144690476Y-95767380D01*
X144690476Y-95767380D02*
X145309523Y-95767380D01*
%TO.C,C8*%
X146533333Y-74272142D02*
X146485714Y-74319761D01*
X146485714Y-74319761D02*
X146342857Y-74367380D01*
X146342857Y-74367380D02*
X146247619Y-74367380D01*
X146247619Y-74367380D02*
X146104762Y-74319761D01*
X146104762Y-74319761D02*
X146009524Y-74224523D01*
X146009524Y-74224523D02*
X145961905Y-74129285D01*
X145961905Y-74129285D02*
X145914286Y-73938809D01*
X145914286Y-73938809D02*
X145914286Y-73795952D01*
X145914286Y-73795952D02*
X145961905Y-73605476D01*
X145961905Y-73605476D02*
X146009524Y-73510238D01*
X146009524Y-73510238D02*
X146104762Y-73415000D01*
X146104762Y-73415000D02*
X146247619Y-73367380D01*
X146247619Y-73367380D02*
X146342857Y-73367380D01*
X146342857Y-73367380D02*
X146485714Y-73415000D01*
X146485714Y-73415000D02*
X146533333Y-73462619D01*
X147104762Y-73795952D02*
X147009524Y-73748333D01*
X147009524Y-73748333D02*
X146961905Y-73700714D01*
X146961905Y-73700714D02*
X146914286Y-73605476D01*
X146914286Y-73605476D02*
X146914286Y-73557857D01*
X146914286Y-73557857D02*
X146961905Y-73462619D01*
X146961905Y-73462619D02*
X147009524Y-73415000D01*
X147009524Y-73415000D02*
X147104762Y-73367380D01*
X147104762Y-73367380D02*
X147295238Y-73367380D01*
X147295238Y-73367380D02*
X147390476Y-73415000D01*
X147390476Y-73415000D02*
X147438095Y-73462619D01*
X147438095Y-73462619D02*
X147485714Y-73557857D01*
X147485714Y-73557857D02*
X147485714Y-73605476D01*
X147485714Y-73605476D02*
X147438095Y-73700714D01*
X147438095Y-73700714D02*
X147390476Y-73748333D01*
X147390476Y-73748333D02*
X147295238Y-73795952D01*
X147295238Y-73795952D02*
X147104762Y-73795952D01*
X147104762Y-73795952D02*
X147009524Y-73843571D01*
X147009524Y-73843571D02*
X146961905Y-73891190D01*
X146961905Y-73891190D02*
X146914286Y-73986428D01*
X146914286Y-73986428D02*
X146914286Y-74176904D01*
X146914286Y-74176904D02*
X146961905Y-74272142D01*
X146961905Y-74272142D02*
X147009524Y-74319761D01*
X147009524Y-74319761D02*
X147104762Y-74367380D01*
X147104762Y-74367380D02*
X147295238Y-74367380D01*
X147295238Y-74367380D02*
X147390476Y-74319761D01*
X147390476Y-74319761D02*
X147438095Y-74272142D01*
X147438095Y-74272142D02*
X147485714Y-74176904D01*
X147485714Y-74176904D02*
X147485714Y-73986428D01*
X147485714Y-73986428D02*
X147438095Y-73891190D01*
X147438095Y-73891190D02*
X147390476Y-73843571D01*
X147390476Y-73843571D02*
X147295238Y-73795952D01*
%TO.C,R11*%
X158657142Y-117567380D02*
X158323809Y-117091190D01*
X158085714Y-117567380D02*
X158085714Y-116567380D01*
X158085714Y-116567380D02*
X158466666Y-116567380D01*
X158466666Y-116567380D02*
X158561904Y-116615000D01*
X158561904Y-116615000D02*
X158609523Y-116662619D01*
X158609523Y-116662619D02*
X158657142Y-116757857D01*
X158657142Y-116757857D02*
X158657142Y-116900714D01*
X158657142Y-116900714D02*
X158609523Y-116995952D01*
X158609523Y-116995952D02*
X158561904Y-117043571D01*
X158561904Y-117043571D02*
X158466666Y-117091190D01*
X158466666Y-117091190D02*
X158085714Y-117091190D01*
X159609523Y-117567380D02*
X159038095Y-117567380D01*
X159323809Y-117567380D02*
X159323809Y-116567380D01*
X159323809Y-116567380D02*
X159228571Y-116710238D01*
X159228571Y-116710238D02*
X159133333Y-116805476D01*
X159133333Y-116805476D02*
X159038095Y-116853095D01*
X160561904Y-117567380D02*
X159990476Y-117567380D01*
X160276190Y-117567380D02*
X160276190Y-116567380D01*
X160276190Y-116567380D02*
X160180952Y-116710238D01*
X160180952Y-116710238D02*
X160085714Y-116805476D01*
X160085714Y-116805476D02*
X159990476Y-116853095D01*
%TO.C,U3*%
X171138095Y-120867380D02*
X171138095Y-121676904D01*
X171138095Y-121676904D02*
X171185714Y-121772142D01*
X171185714Y-121772142D02*
X171233333Y-121819761D01*
X171233333Y-121819761D02*
X171328571Y-121867380D01*
X171328571Y-121867380D02*
X171519047Y-121867380D01*
X171519047Y-121867380D02*
X171614285Y-121819761D01*
X171614285Y-121819761D02*
X171661904Y-121772142D01*
X171661904Y-121772142D02*
X171709523Y-121676904D01*
X171709523Y-121676904D02*
X171709523Y-120867380D01*
X172090476Y-120867380D02*
X172709523Y-120867380D01*
X172709523Y-120867380D02*
X172376190Y-121248333D01*
X172376190Y-121248333D02*
X172519047Y-121248333D01*
X172519047Y-121248333D02*
X172614285Y-121295952D01*
X172614285Y-121295952D02*
X172661904Y-121343571D01*
X172661904Y-121343571D02*
X172709523Y-121438809D01*
X172709523Y-121438809D02*
X172709523Y-121676904D01*
X172709523Y-121676904D02*
X172661904Y-121772142D01*
X172661904Y-121772142D02*
X172614285Y-121819761D01*
X172614285Y-121819761D02*
X172519047Y-121867380D01*
X172519047Y-121867380D02*
X172233333Y-121867380D01*
X172233333Y-121867380D02*
X172138095Y-121819761D01*
X172138095Y-121819761D02*
X172090476Y-121772142D01*
%TO.C,R10*%
X158557142Y-120567380D02*
X158223809Y-120091190D01*
X157985714Y-120567380D02*
X157985714Y-119567380D01*
X157985714Y-119567380D02*
X158366666Y-119567380D01*
X158366666Y-119567380D02*
X158461904Y-119615000D01*
X158461904Y-119615000D02*
X158509523Y-119662619D01*
X158509523Y-119662619D02*
X158557142Y-119757857D01*
X158557142Y-119757857D02*
X158557142Y-119900714D01*
X158557142Y-119900714D02*
X158509523Y-119995952D01*
X158509523Y-119995952D02*
X158461904Y-120043571D01*
X158461904Y-120043571D02*
X158366666Y-120091190D01*
X158366666Y-120091190D02*
X157985714Y-120091190D01*
X159509523Y-120567380D02*
X158938095Y-120567380D01*
X159223809Y-120567380D02*
X159223809Y-119567380D01*
X159223809Y-119567380D02*
X159128571Y-119710238D01*
X159128571Y-119710238D02*
X159033333Y-119805476D01*
X159033333Y-119805476D02*
X158938095Y-119853095D01*
X160128571Y-119567380D02*
X160223809Y-119567380D01*
X160223809Y-119567380D02*
X160319047Y-119615000D01*
X160319047Y-119615000D02*
X160366666Y-119662619D01*
X160366666Y-119662619D02*
X160414285Y-119757857D01*
X160414285Y-119757857D02*
X160461904Y-119948333D01*
X160461904Y-119948333D02*
X160461904Y-120186428D01*
X160461904Y-120186428D02*
X160414285Y-120376904D01*
X160414285Y-120376904D02*
X160366666Y-120472142D01*
X160366666Y-120472142D02*
X160319047Y-120519761D01*
X160319047Y-120519761D02*
X160223809Y-120567380D01*
X160223809Y-120567380D02*
X160128571Y-120567380D01*
X160128571Y-120567380D02*
X160033333Y-120519761D01*
X160033333Y-120519761D02*
X159985714Y-120472142D01*
X159985714Y-120472142D02*
X159938095Y-120376904D01*
X159938095Y-120376904D02*
X159890476Y-120186428D01*
X159890476Y-120186428D02*
X159890476Y-119948333D01*
X159890476Y-119948333D02*
X159938095Y-119757857D01*
X159938095Y-119757857D02*
X159985714Y-119662619D01*
X159985714Y-119662619D02*
X160033333Y-119615000D01*
X160033333Y-119615000D02*
X160128571Y-119567380D01*
%TO.C,R6*%
X137333333Y-73907380D02*
X137000000Y-73431190D01*
X136761905Y-73907380D02*
X136761905Y-72907380D01*
X136761905Y-72907380D02*
X137142857Y-72907380D01*
X137142857Y-72907380D02*
X137238095Y-72955000D01*
X137238095Y-72955000D02*
X137285714Y-73002619D01*
X137285714Y-73002619D02*
X137333333Y-73097857D01*
X137333333Y-73097857D02*
X137333333Y-73240714D01*
X137333333Y-73240714D02*
X137285714Y-73335952D01*
X137285714Y-73335952D02*
X137238095Y-73383571D01*
X137238095Y-73383571D02*
X137142857Y-73431190D01*
X137142857Y-73431190D02*
X136761905Y-73431190D01*
X138190476Y-72907380D02*
X138000000Y-72907380D01*
X138000000Y-72907380D02*
X137904762Y-72955000D01*
X137904762Y-72955000D02*
X137857143Y-73002619D01*
X137857143Y-73002619D02*
X137761905Y-73145476D01*
X137761905Y-73145476D02*
X137714286Y-73335952D01*
X137714286Y-73335952D02*
X137714286Y-73716904D01*
X137714286Y-73716904D02*
X137761905Y-73812142D01*
X137761905Y-73812142D02*
X137809524Y-73859761D01*
X137809524Y-73859761D02*
X137904762Y-73907380D01*
X137904762Y-73907380D02*
X138095238Y-73907380D01*
X138095238Y-73907380D02*
X138190476Y-73859761D01*
X138190476Y-73859761D02*
X138238095Y-73812142D01*
X138238095Y-73812142D02*
X138285714Y-73716904D01*
X138285714Y-73716904D02*
X138285714Y-73478809D01*
X138285714Y-73478809D02*
X138238095Y-73383571D01*
X138238095Y-73383571D02*
X138190476Y-73335952D01*
X138190476Y-73335952D02*
X138095238Y-73288333D01*
X138095238Y-73288333D02*
X137904762Y-73288333D01*
X137904762Y-73288333D02*
X137809524Y-73335952D01*
X137809524Y-73335952D02*
X137761905Y-73383571D01*
X137761905Y-73383571D02*
X137714286Y-73478809D01*
D11*
%TO.C,JP40*%
X182585000Y-76630000D02*
X182585000Y-73970000D01*
X177445000Y-76630000D02*
X182585000Y-76630000D01*
X176175000Y-76630000D02*
X174845000Y-76630000D01*
X177445000Y-73970000D02*
X182585000Y-73970000D01*
X174845000Y-76630000D02*
X174845000Y-75300000D01*
X177445000Y-76630000D02*
X177445000Y-73970000D01*
%TO.C,JP39*%
X138670000Y-118425000D02*
X138670000Y-117095000D01*
X138670000Y-122295000D02*
X141330000Y-122295000D01*
X138670000Y-119695000D02*
X138670000Y-122295000D01*
X138670000Y-119695000D02*
X141330000Y-119695000D01*
X138670000Y-117095000D02*
X140000000Y-117095000D01*
X141330000Y-119695000D02*
X141330000Y-122295000D01*
%TO.C,JP34*%
X227450000Y-77317500D02*
X227450000Y-80117500D01*
X225450000Y-77317500D02*
X227450000Y-77317500D01*
X227450000Y-80117500D02*
X225450000Y-80117500D01*
X225450000Y-80117500D02*
X225450000Y-77317500D01*
%TO.C,JP23*%
X217810000Y-111247500D02*
X217810000Y-108447500D01*
X219810000Y-111247500D02*
X217810000Y-111247500D01*
X217810000Y-108447500D02*
X219810000Y-108447500D01*
X219810000Y-108447500D02*
X219810000Y-111247500D01*
%TO.C,R5*%
X137272936Y-82075000D02*
X137727064Y-82075000D01*
X137272936Y-83545000D02*
X137727064Y-83545000D01*
%TO.C,JP9*%
X204570000Y-77317500D02*
X204570000Y-80117500D01*
X202570000Y-77317500D02*
X204570000Y-77317500D01*
X204570000Y-80117500D02*
X202570000Y-80117500D01*
X202570000Y-80117500D02*
X202570000Y-77317500D01*
%TO.C,JP6*%
X212730000Y-111247500D02*
X212730000Y-108447500D01*
X214730000Y-111247500D02*
X212730000Y-111247500D01*
X212730000Y-108447500D02*
X214730000Y-108447500D01*
X214730000Y-108447500D02*
X214730000Y-111247500D01*
%TO.C,JP37*%
X182100000Y-113900000D02*
X184900000Y-113900000D01*
X182100000Y-115900000D02*
X182100000Y-113900000D01*
X184900000Y-113900000D02*
X184900000Y-115900000D01*
X184900000Y-115900000D02*
X182100000Y-115900000D01*
%TO.C,U6*%
X143000000Y-110060000D02*
X146450000Y-110060000D01*
X143000000Y-110060000D02*
X141050000Y-110060000D01*
X143000000Y-104940000D02*
X144950000Y-104940000D01*
X143000000Y-104940000D02*
X141050000Y-104940000D01*
%TO.C,C6*%
X141991252Y-103735000D02*
X141468748Y-103735000D01*
X141991252Y-102265000D02*
X141468748Y-102265000D01*
%TO.C,JP14*%
X220350000Y-80117500D02*
X220350000Y-77317500D01*
X222350000Y-80117500D02*
X220350000Y-80117500D01*
X220350000Y-77317500D02*
X222350000Y-77317500D01*
X222350000Y-77317500D02*
X222350000Y-80117500D01*
%TO.C,JP33*%
X196950000Y-77317500D02*
X196950000Y-80117500D01*
X194950000Y-77317500D02*
X196950000Y-77317500D01*
X196950000Y-80117500D02*
X194950000Y-80117500D01*
X194950000Y-80117500D02*
X194950000Y-77317500D01*
D12*
%TO.C,PS1*%
X161300000Y-78800000D02*
X186700000Y-78800000D01*
X161300000Y-104200000D02*
X161300000Y-78800000D01*
X186700000Y-78800000D02*
X186700000Y-104200000D01*
X186700000Y-104200000D02*
X161300000Y-104200000D01*
D13*
X160600000Y-81340000D02*
G75*
G03*
X160600000Y-81340000I-100000J0D01*
G01*
D11*
%TO.C,R2*%
X137352936Y-95307500D02*
X137807064Y-95307500D01*
X137352936Y-96777500D02*
X137807064Y-96777500D01*
%TO.C,R9*%
X136272936Y-104265000D02*
X136727064Y-104265000D01*
X136272936Y-105735000D02*
X136727064Y-105735000D01*
%TO.C,JP30*%
X149250000Y-94000000D02*
X152050000Y-94000000D01*
X149250000Y-96000000D02*
X149250000Y-94000000D01*
X152050000Y-94000000D02*
X152050000Y-96000000D01*
X152050000Y-96000000D02*
X149250000Y-96000000D01*
%TO.C,JP13*%
X222890000Y-80117500D02*
X222890000Y-77317500D01*
X224890000Y-80117500D02*
X222890000Y-80117500D01*
X222890000Y-77317500D02*
X224890000Y-77317500D01*
X224890000Y-77317500D02*
X224890000Y-80117500D01*
%TO.C,R8*%
X136272936Y-111765000D02*
X136727064Y-111765000D01*
X136272936Y-113235000D02*
X136727064Y-113235000D01*
%TO.C,R7*%
X130290000Y-110677064D02*
X130290000Y-106322936D01*
X133710000Y-110677064D02*
X133710000Y-106322936D01*
%TO.C,C5*%
X138235000Y-78738748D02*
X138235000Y-79261252D01*
X136765000Y-78738748D02*
X136765000Y-79261252D01*
%TO.C,R4*%
X130790000Y-81177064D02*
X130790000Y-76822936D01*
X134210000Y-81177064D02*
X134210000Y-76822936D01*
%TO.C,R3*%
X137352936Y-87687500D02*
X137807064Y-87687500D01*
X137352936Y-89157500D02*
X137807064Y-89157500D01*
%TO.C,JP27*%
X150100000Y-77500000D02*
X152900000Y-77500000D01*
X150100000Y-79500000D02*
X150100000Y-77500000D01*
X152900000Y-77500000D02*
X152900000Y-79500000D01*
X152900000Y-79500000D02*
X150100000Y-79500000D01*
%TO.C,JP36*%
X175900000Y-120500000D02*
X178700000Y-120500000D01*
X175900000Y-122500000D02*
X175900000Y-120500000D01*
X178700000Y-120500000D02*
X178700000Y-122500000D01*
X178700000Y-122500000D02*
X175900000Y-122500000D01*
%TO.C,A1*%
X189490000Y-103497500D02*
G75*
G03*
X192140000Y-106147500I2650000J0D01*
G01*
X237860000Y-106147500D02*
G75*
G03*
X240510000Y-103497500I0J2650000D01*
G01*
X192140000Y-83067500D02*
G75*
G03*
X189490000Y-85717500I0J-2650000D01*
G01*
X240510000Y-85717500D02*
G75*
G03*
X237860000Y-83067500I-2650000J0D01*
G01*
X237860000Y-106147500D02*
X192140000Y-106147500D01*
X189490000Y-103497500D02*
X189490000Y-85717500D01*
X240510000Y-103497500D02*
X240510000Y-85717500D01*
X237860000Y-83067500D02*
X192140000Y-83067500D01*
X233050000Y-82747500D02*
X235050000Y-82747500D01*
%TO.C,JP3*%
X205110000Y-111247500D02*
X205110000Y-108447500D01*
X207110000Y-111247500D02*
X205110000Y-111247500D01*
X205110000Y-108447500D02*
X207110000Y-108447500D01*
X207110000Y-108447500D02*
X207110000Y-111247500D01*
%TO.C,JP28*%
X147750000Y-106500000D02*
X150550000Y-106500000D01*
X147750000Y-108500000D02*
X147750000Y-106500000D01*
X150550000Y-106500000D02*
X150550000Y-108500000D01*
X150550000Y-108500000D02*
X147750000Y-108500000D01*
D12*
%TO.C,PS2*%
X156300000Y-122275000D02*
X144700000Y-122275000D01*
X156300000Y-114725000D02*
X156300000Y-122275000D01*
X144700000Y-122275000D02*
X144700000Y-114725000D01*
X144700000Y-114725000D02*
X156300000Y-114725000D01*
D13*
X157100000Y-116875000D02*
G75*
G03*
X157100000Y-116875000I-100000J0D01*
G01*
D11*
%TO.C,JP19*%
X197490000Y-111247500D02*
X197490000Y-108447500D01*
X199490000Y-111247500D02*
X197490000Y-111247500D01*
X197490000Y-108447500D02*
X199490000Y-108447500D01*
X199490000Y-108447500D02*
X199490000Y-111247500D01*
%TO.C,JP35*%
X227900000Y-113950000D02*
X227900000Y-111150000D01*
X229900000Y-113950000D02*
X227900000Y-113950000D01*
X227900000Y-111150000D02*
X229900000Y-111150000D01*
X229900000Y-111150000D02*
X229900000Y-113950000D01*
%TO.C,JP4*%
X207650000Y-111247500D02*
X207650000Y-108447500D01*
X209650000Y-111247500D02*
X207650000Y-111247500D01*
X207650000Y-108447500D02*
X209650000Y-108447500D01*
X209650000Y-108447500D02*
X209650000Y-111247500D01*
%TO.C,JP7*%
X209650000Y-77317500D02*
X209650000Y-80117500D01*
X207650000Y-77317500D02*
X209650000Y-77317500D01*
X209650000Y-80117500D02*
X207650000Y-80117500D01*
X207650000Y-80117500D02*
X207650000Y-77317500D01*
%TO.C,JP25*%
X232510000Y-77317500D02*
X232510000Y-80117500D01*
X230510000Y-77317500D02*
X232510000Y-77317500D01*
X232510000Y-80117500D02*
X230510000Y-80117500D01*
X230510000Y-80117500D02*
X230510000Y-77317500D01*
%TO.C,U4*%
X187900000Y-116510000D02*
X189700000Y-116510000D01*
X189700000Y-113290000D02*
X187250000Y-113290000D01*
%TO.C,C1*%
X138315000Y-91971248D02*
X138315000Y-92493752D01*
X136845000Y-91971248D02*
X136845000Y-92493752D01*
%TO.C,C3*%
X183975000Y-118938748D02*
X183975000Y-119461252D01*
X182505000Y-118938748D02*
X182505000Y-119461252D01*
%TO.C,JP22*%
X233050000Y-80117500D02*
X233050000Y-77317500D01*
X235050000Y-80117500D02*
X233050000Y-80117500D01*
X233050000Y-77317500D02*
X235050000Y-77317500D01*
X235050000Y-77317500D02*
X235050000Y-80117500D01*
%TO.C,JP18*%
X194950000Y-111247500D02*
X194950000Y-108447500D01*
X196950000Y-111247500D02*
X194950000Y-111247500D01*
X194950000Y-108447500D02*
X196950000Y-108447500D01*
X196950000Y-108447500D02*
X196950000Y-111247500D01*
%TO.C,JP15*%
X217810000Y-80117500D02*
X217810000Y-77317500D01*
X219810000Y-80117500D02*
X217810000Y-80117500D01*
X217810000Y-77317500D02*
X219810000Y-77317500D01*
X219810000Y-77317500D02*
X219810000Y-80117500D01*
%TO.C,JP11*%
X212730000Y-80117500D02*
X212730000Y-77317500D01*
X214730000Y-80117500D02*
X212730000Y-80117500D01*
X212730000Y-77317500D02*
X214730000Y-77317500D01*
X214730000Y-77317500D02*
X214730000Y-80117500D01*
%TO.C,JP26*%
X150100000Y-80500000D02*
X152900000Y-80500000D01*
X150100000Y-82500000D02*
X150100000Y-80500000D01*
X152900000Y-80500000D02*
X152900000Y-82500000D01*
X152900000Y-82500000D02*
X150100000Y-82500000D01*
%TO.C,JP20*%
X222350000Y-108447500D02*
X222350000Y-111247500D01*
X220350000Y-108447500D02*
X222350000Y-108447500D01*
X222350000Y-111247500D02*
X220350000Y-111247500D01*
X220350000Y-111247500D02*
X220350000Y-108447500D01*
%TO.C,JP31*%
X149250000Y-91000000D02*
X152050000Y-91000000D01*
X149250000Y-93000000D02*
X149250000Y-91000000D01*
X152050000Y-91000000D02*
X152050000Y-93000000D01*
X152050000Y-93000000D02*
X149250000Y-93000000D01*
%TO.C,C2*%
X136545000Y-108238748D02*
X136545000Y-108761252D01*
X135075000Y-108238748D02*
X135075000Y-108761252D01*
%TO.C,JP10*%
X215270000Y-80117500D02*
X215270000Y-77317500D01*
X217270000Y-80117500D02*
X215270000Y-80117500D01*
X215270000Y-77317500D02*
X217270000Y-77317500D01*
X217270000Y-77317500D02*
X217270000Y-80117500D01*
%TO.C,C4*%
X143261252Y-88235000D02*
X142738748Y-88235000D01*
X143261252Y-86765000D02*
X142738748Y-86765000D01*
%TO.C,JP24*%
X224890000Y-108447500D02*
X224890000Y-111247500D01*
X222890000Y-108447500D02*
X224890000Y-108447500D01*
X224890000Y-111247500D02*
X222890000Y-111247500D01*
X222890000Y-111247500D02*
X222890000Y-108447500D01*
%TO.C,C7*%
X188738748Y-110965000D02*
X189261252Y-110965000D01*
X188738748Y-112435000D02*
X189261252Y-112435000D01*
%TO.C,JP12*%
X210190000Y-80117500D02*
X210190000Y-77317500D01*
X212190000Y-80117500D02*
X210190000Y-80117500D01*
X210190000Y-77317500D02*
X212190000Y-77317500D01*
X212190000Y-77317500D02*
X212190000Y-80117500D01*
%TO.C,JP32*%
X215450000Y-111247500D02*
X215450000Y-108447500D01*
X217450000Y-111247500D02*
X215450000Y-111247500D01*
X215450000Y-108447500D02*
X217450000Y-108447500D01*
X217450000Y-108447500D02*
X217450000Y-111247500D01*
%TO.C,JP5*%
X210190000Y-111247500D02*
X210190000Y-108447500D01*
X212190000Y-111247500D02*
X210190000Y-111247500D01*
X210190000Y-108447500D02*
X212190000Y-108447500D01*
X212190000Y-108447500D02*
X212190000Y-111247500D01*
%TO.C,R1*%
X130790000Y-94177064D02*
X130790000Y-89822936D01*
X134210000Y-94177064D02*
X134210000Y-89822936D01*
%TO.C,JP1*%
X200030000Y-111247500D02*
X200030000Y-108447500D01*
X202030000Y-111247500D02*
X200030000Y-111247500D01*
X200030000Y-108447500D02*
X202030000Y-108447500D01*
X202030000Y-108447500D02*
X202030000Y-111247500D01*
%TO.C,U1*%
X145000000Y-81060000D02*
X148450000Y-81060000D01*
X145000000Y-81060000D02*
X143050000Y-81060000D01*
X145000000Y-75940000D02*
X146950000Y-75940000D01*
X145000000Y-75940000D02*
X143050000Y-75940000D01*
%TO.C,JP8*%
X207110000Y-77317500D02*
X207110000Y-80117500D01*
X205110000Y-77317500D02*
X207110000Y-77317500D01*
X207110000Y-80117500D02*
X205110000Y-80117500D01*
X205110000Y-80117500D02*
X205110000Y-77317500D01*
%TO.C,C1*%
X181475000Y-118938748D02*
X181475000Y-119461252D01*
X180005000Y-118938748D02*
X180005000Y-119461252D01*
%TO.C,U2*%
X144500000Y-94560000D02*
X147950000Y-94560000D01*
X144500000Y-94560000D02*
X142550000Y-94560000D01*
X144500000Y-89440000D02*
X146450000Y-89440000D01*
X144500000Y-89440000D02*
X142550000Y-89440000D01*
%TO.C,C8*%
X143761252Y-74735000D02*
X143238748Y-74735000D01*
X143761252Y-73265000D02*
X143238748Y-73265000D01*
%TO.C,R11*%
X162967064Y-117935000D02*
X162512936Y-117935000D01*
X162967064Y-116465000D02*
X162512936Y-116465000D01*
%TO.C,U3*%
X175860000Y-120260000D02*
X175860000Y-120005000D01*
X175860000Y-120005000D02*
X177675000Y-120005000D01*
X175860000Y-109740000D02*
X175860000Y-109995000D01*
X172000000Y-120260000D02*
X175860000Y-120260000D01*
X172000000Y-120260000D02*
X168140000Y-120260000D01*
X172000000Y-109740000D02*
X175860000Y-109740000D01*
X172000000Y-109740000D02*
X168140000Y-109740000D01*
X168140000Y-120260000D02*
X168140000Y-120005000D01*
X168140000Y-109740000D02*
X168140000Y-109995000D01*
%TO.C,JP29*%
X147600000Y-109500000D02*
X150400000Y-109500000D01*
X147600000Y-111500000D02*
X147600000Y-109500000D01*
X150400000Y-109500000D02*
X150400000Y-111500000D01*
X150400000Y-111500000D02*
X147600000Y-111500000D01*
%TO.C,JP38*%
X232500000Y-113900000D02*
X231900000Y-113900000D01*
X231200000Y-113200000D02*
X231200000Y-111800000D01*
X233200000Y-111800000D02*
X233200000Y-113200000D01*
X231900000Y-111100000D02*
X232500000Y-111100000D01*
X231200000Y-113200000D02*
G75*
G03*
X231900000Y-113900000I699999J-1D01*
G01*
X232500000Y-113900000D02*
G75*
G03*
X233200000Y-113200000I1J699999D01*
G01*
X231900000Y-111100000D02*
G75*
G03*
X231200000Y-111800000I0J-700000D01*
G01*
X233200000Y-111800000D02*
G75*
G03*
X232500000Y-111100000I-700000J0D01*
G01*
%TO.C,JP17*%
X199490000Y-77317500D02*
X199490000Y-80117500D01*
X197490000Y-77317500D02*
X199490000Y-77317500D01*
X199490000Y-80117500D02*
X197490000Y-80117500D01*
X197490000Y-80117500D02*
X197490000Y-77317500D01*
%TO.C,R10*%
X162967064Y-120935000D02*
X162512936Y-120935000D01*
X162967064Y-119465000D02*
X162512936Y-119465000D01*
%TO.C,JP16*%
X202030000Y-77317500D02*
X202030000Y-80117500D01*
X200030000Y-77317500D02*
X202030000Y-77317500D01*
X202030000Y-80117500D02*
X200030000Y-80117500D01*
X200030000Y-80117500D02*
X200030000Y-77317500D01*
%TO.C,R6*%
X137272936Y-74455000D02*
X137727064Y-74455000D01*
X137272936Y-75925000D02*
X137727064Y-75925000D01*
%TO.C,JP2*%
X202570000Y-111247500D02*
X202570000Y-108447500D01*
X204570000Y-111247500D02*
X202570000Y-111247500D01*
X202570000Y-108447500D02*
X204570000Y-108447500D01*
X204570000Y-108447500D02*
X204570000Y-111247500D01*
%TO.C,JP21*%
X227970000Y-80117500D02*
X227970000Y-77317500D01*
X229970000Y-80117500D02*
X227970000Y-80117500D01*
X227970000Y-77317500D02*
X229970000Y-77317500D01*
X229970000Y-77317500D02*
X229970000Y-80117500D01*
%TD*%
M02*
