%TF.GenerationSoftware,KiCad,Pcbnew,(6.99.0-2504-g6a9c6e8599)*%
%TF.CreationDate,2023-09-25T00:56:31-07:00*%
%TF.ProjectId,BuoyPower,42756f79-506f-4776-9572-2e6b69636164,rev?*%
%TF.SameCoordinates,Original*%
%TF.FileFunction,Profile,NP*%
%FSLAX46Y46*%
G04 Gerber Fmt 4.6, Leading zero omitted, Abs format (unit mm)*
G04 Created by KiCad (PCBNEW (6.99.0-2504-g6a9c6e8599)) date 2023-09-25 00:56:31*
%MOMM*%
%LPD*%
G01*
G04 APERTURE LIST*
%TA.AperFunction,Profile*%
%ADD10C,0.200000*%
%TD*%
%TA.AperFunction,Profile*%
%ADD11C,0.100000*%
%TD*%
G04 APERTURE END LIST*
D10*
X176698000Y-76584000D02*
G75*
G03*
X176698000Y-76584000I-500000J0D01*
G01*
D11*
X124968000Y-122174000D02*
X124968000Y-128174000D01*
D10*
X179238000Y-99444000D02*
G75*
G03*
X179238000Y-99444000I-500000J0D01*
G01*
X176698000Y-117224000D02*
G75*
G03*
X176698000Y-117224000I-500000J0D01*
G01*
X176698000Y-84204000D02*
G75*
G03*
X176698000Y-84204000I-500000J0D01*
G01*
X177968000Y-65674000D02*
X127968000Y-65674000D01*
X124968000Y-128174000D02*
G75*
G03*
X127968000Y-131174000I3000000J0D01*
G01*
X176698000Y-122304000D02*
G75*
G03*
X176698000Y-122304000I-500000J0D01*
G01*
X176698000Y-99444000D02*
G75*
G03*
X176698000Y-99444000I-500000J0D01*
G01*
X179238000Y-84204000D02*
G75*
G03*
X179238000Y-84204000I-500000J0D01*
G01*
X179238000Y-122304000D02*
G75*
G03*
X179238000Y-122304000I-500000J0D01*
G01*
X179238000Y-94364000D02*
G75*
G03*
X179238000Y-94364000I-500000J0D01*
G01*
X127968000Y-65674000D02*
G75*
G03*
X124968000Y-68674000I0J-3000000D01*
G01*
X176698000Y-104524000D02*
G75*
G03*
X176698000Y-104524000I-500000J0D01*
G01*
X179238000Y-76584000D02*
G75*
G03*
X179238000Y-76584000I-500000J0D01*
G01*
X179238000Y-112144000D02*
G75*
G03*
X179238000Y-112144000I-500000J0D01*
G01*
X176698000Y-107064000D02*
G75*
G03*
X176698000Y-107064000I-500000J0D01*
G01*
X179238000Y-74044000D02*
G75*
G03*
X179238000Y-74044000I-500000J0D01*
G01*
X176698000Y-101984000D02*
G75*
G03*
X176698000Y-101984000I-500000J0D01*
G01*
X176698000Y-86744000D02*
G75*
G03*
X176698000Y-86744000I-500000J0D01*
G01*
X177968000Y-131174000D02*
G75*
G03*
X180968000Y-128174000I0J3000000D01*
G01*
X179238000Y-114684000D02*
G75*
G03*
X179238000Y-114684000I-500000J0D01*
G01*
X176698000Y-114684000D02*
G75*
G03*
X176698000Y-114684000I-500000J0D01*
G01*
X176698000Y-112144000D02*
G75*
G03*
X176698000Y-112144000I-500000J0D01*
G01*
X176698000Y-79124000D02*
G75*
G03*
X176698000Y-79124000I-500000J0D01*
G01*
X176698000Y-96904000D02*
G75*
G03*
X176698000Y-96904000I-500000J0D01*
G01*
X176698000Y-81664000D02*
G75*
G03*
X176698000Y-81664000I-500000J0D01*
G01*
X179238000Y-109604000D02*
G75*
G03*
X179238000Y-109604000I-500000J0D01*
G01*
X179238000Y-119764000D02*
G75*
G03*
X179238000Y-119764000I-500000J0D01*
G01*
X179238000Y-91824000D02*
G75*
G03*
X179238000Y-91824000I-500000J0D01*
G01*
X179238000Y-107064000D02*
G75*
G03*
X179238000Y-107064000I-500000J0D01*
G01*
X180968000Y-68674000D02*
G75*
G03*
X177968000Y-65674000I-3000000J0D01*
G01*
X179238000Y-104524000D02*
G75*
G03*
X179238000Y-104524000I-500000J0D01*
G01*
D11*
X124968000Y-107174000D02*
X124968000Y-122174000D01*
D10*
X179238000Y-117224000D02*
G75*
G03*
X179238000Y-117224000I-500000J0D01*
G01*
X176698000Y-91824000D02*
G75*
G03*
X176698000Y-91824000I-500000J0D01*
G01*
X179238000Y-89284000D02*
G75*
G03*
X179238000Y-89284000I-500000J0D01*
G01*
X179238000Y-79124000D02*
G75*
G03*
X179238000Y-79124000I-500000J0D01*
G01*
X179238000Y-96904000D02*
G75*
G03*
X179238000Y-96904000I-500000J0D01*
G01*
X180968000Y-128174000D02*
X180968000Y-68674000D01*
X176698000Y-109604000D02*
G75*
G03*
X176698000Y-109604000I-500000J0D01*
G01*
X124968000Y-68674000D02*
X124968000Y-107174000D01*
X176698000Y-119764000D02*
G75*
G03*
X176698000Y-119764000I-500000J0D01*
G01*
X176698000Y-89284000D02*
G75*
G03*
X176698000Y-89284000I-500000J0D01*
G01*
X179238000Y-86744000D02*
G75*
G03*
X179238000Y-86744000I-500000J0D01*
G01*
X179238000Y-81664000D02*
G75*
G03*
X179238000Y-81664000I-500000J0D01*
G01*
X129818000Y-127174000D02*
G75*
G03*
X129818000Y-127174000I-1350000J0D01*
G01*
X176698000Y-94364000D02*
G75*
G03*
X176698000Y-94364000I-500000J0D01*
G01*
X179238000Y-101984000D02*
G75*
G03*
X179238000Y-101984000I-500000J0D01*
G01*
X127968000Y-131174000D02*
X177968000Y-131174000D01*
X176698000Y-74044000D02*
G75*
G03*
X176698000Y-74044000I-500000J0D01*
G01*
X129818000Y-69174000D02*
G75*
G03*
X129818000Y-69174000I-1350000J0D01*
G01*
M02*
