%TF.GenerationSoftware,KiCad,Pcbnew,(6.99.0-2504-g6a9c6e8599)*%
%TF.CreationDate,2023-09-25T00:56:31-07:00*%
%TF.ProjectId,BuoyPower,42756f79-506f-4776-9572-2e6b69636164,rev?*%
%TF.SameCoordinates,Original*%
%TF.FileFunction,Paste,Top*%
%TF.FilePolarity,Positive*%
%FSLAX46Y46*%
G04 Gerber Fmt 4.6, Leading zero omitted, Abs format (unit mm)*
G04 Created by KiCad (PCBNEW (6.99.0-2504-g6a9c6e8599)) date 2023-09-25 00:56:31*
%MOMM*%
%LPD*%
G01*
G04 APERTURE LIST*
G04 Aperture macros list*
%AMRoundRect*
0 Rectangle with rounded corners*
0 $1 Rounding radius*
0 $2 $3 $4 $5 $6 $7 $8 $9 X,Y pos of 4 corners*
0 Add a 4 corners polygon primitive as box body*
4,1,4,$2,$3,$4,$5,$6,$7,$8,$9,$2,$3,0*
0 Add four circle primitives for the rounded corners*
1,1,$1+$1,$2,$3*
1,1,$1+$1,$4,$5*
1,1,$1+$1,$6,$7*
1,1,$1+$1,$8,$9*
0 Add four rect primitives between the rounded corners*
20,1,$1+$1,$2,$3,$4,$5,0*
20,1,$1+$1,$4,$5,$6,$7,0*
20,1,$1+$1,$6,$7,$8,$9,0*
20,1,$1+$1,$8,$9,$2,$3,0*%
G04 Aperture macros list end*
%ADD10C,0.010000*%
%ADD11RoundRect,0.012800X-0.332200X-0.147200X0.332200X-0.147200X0.332200X0.147200X-0.332200X0.147200X0*%
%ADD12RoundRect,0.250000X0.350000X0.450000X-0.350000X0.450000X-0.350000X-0.450000X0.350000X-0.450000X0*%
%ADD13RoundRect,0.250000X0.475000X-0.337500X0.475000X0.337500X-0.475000X0.337500X-0.475000X-0.337500X0*%
%ADD14RoundRect,0.150000X-0.875000X-0.150000X0.875000X-0.150000X0.875000X0.150000X-0.875000X0.150000X0*%
%ADD15RoundRect,0.150000X-0.587500X-0.150000X0.587500X-0.150000X0.587500X0.150000X-0.587500X0.150000X0*%
%ADD16RoundRect,0.250000X0.450000X-0.350000X0.450000X0.350000X-0.450000X0.350000X-0.450000X-0.350000X0*%
%ADD17RoundRect,0.150000X0.150000X-0.825000X0.150000X0.825000X-0.150000X0.825000X-0.150000X-0.825000X0*%
%ADD18R,1.000000X1.000000*%
%ADD19R,1.560000X0.650000*%
%ADD20RoundRect,0.250000X-0.450000X0.350000X-0.450000X-0.350000X0.450000X-0.350000X0.450000X0.350000X0*%
%ADD21RoundRect,0.250000X-0.350000X-0.450000X0.350000X-0.450000X0.350000X0.450000X-0.350000X0.450000X0*%
%ADD22R,2.500000X1.200000*%
%ADD23RoundRect,0.249999X-0.450001X-1.425001X0.450001X-1.425001X0.450001X1.425001X-0.450001X1.425001X0*%
%ADD24RoundRect,0.250000X0.337500X0.475000X-0.337500X0.475000X-0.337500X-0.475000X0.337500X-0.475000X0*%
%ADD25R,0.650000X1.560000*%
%ADD26RoundRect,0.150000X0.150000X0.625000X-0.150000X0.625000X-0.150000X-0.625000X0.150000X-0.625000X0*%
%ADD27RoundRect,0.250000X0.350000X0.650000X-0.350000X0.650000X-0.350000X-0.650000X0.350000X-0.650000X0*%
%ADD28RoundRect,0.243750X0.243750X0.456250X-0.243750X0.456250X-0.243750X-0.456250X0.243750X-0.456250X0*%
G04 APERTURE END LIST*
%TO.C,U2*%
G36*
X146366000Y-106424000D02*
G01*
X145734000Y-106424000D01*
X145734000Y-105412000D01*
X146366000Y-105412000D01*
X146366000Y-106424000D01*
G37*
D10*
X146366000Y-106424000D02*
X145734000Y-106424000D01*
X145734000Y-105412000D01*
X146366000Y-105412000D01*
X146366000Y-106424000D01*
%TD*%
D11*
%TO.C,U2*%
X145030000Y-105268000D03*
X145030000Y-105918000D03*
X145030000Y-106568000D03*
X147070000Y-106568000D03*
X147070000Y-105918000D03*
X147070000Y-105268000D03*
%TD*%
D12*
%TO.C,R2*%
X149549000Y-108796000D03*
X147549000Y-108796000D03*
%TD*%
D13*
%TO.C,C2*%
X149565000Y-103948500D03*
X149565000Y-106023500D03*
%TD*%
D14*
%TO.C,U8*%
X156005000Y-109855000D03*
X156005000Y-111125000D03*
X156005000Y-112395000D03*
X156005000Y-113665000D03*
X156005000Y-114935000D03*
X156005000Y-116205000D03*
X156005000Y-117475000D03*
X156005000Y-118745000D03*
X165305000Y-118745000D03*
X165305000Y-117475000D03*
X165305000Y-116205000D03*
X165305000Y-114935000D03*
X165305000Y-113665000D03*
X165305000Y-112395000D03*
X165305000Y-111125000D03*
X165305000Y-109855000D03*
%TD*%
D15*
%TO.C,Q1*%
X138762500Y-115255000D03*
X138762500Y-117155000D03*
X140637500Y-116205000D03*
%TD*%
D12*
%TO.C,R15*%
X160258000Y-123698000D03*
X158258000Y-123698000D03*
%TD*%
D16*
%TO.C,R14*%
X165862000Y-107045000D03*
X165862000Y-105045000D03*
%TD*%
D17*
%TO.C,U3*%
X142367000Y-97090000D03*
X143637000Y-97090000D03*
X144907000Y-97090000D03*
X146177000Y-97090000D03*
X146177000Y-92140000D03*
X144907000Y-92140000D03*
X143637000Y-92140000D03*
X142367000Y-92140000D03*
%TD*%
D18*
%TO.C,D1*%
X138277599Y-105023999D03*
X138277599Y-102523999D03*
%TD*%
D19*
%TO.C,U9*%
X156162999Y-124647999D03*
X156162999Y-123697999D03*
X156162999Y-122747999D03*
X153462999Y-122747999D03*
X153462999Y-124647999D03*
%TD*%
D20*
%TO.C,R11*%
X139954000Y-85614000D03*
X139954000Y-87614000D03*
%TD*%
D21*
%TO.C,R1*%
X132858000Y-123571000D03*
X134858000Y-123571000D03*
%TD*%
D22*
%TO.C,SW1*%
X127678999Y-112688999D03*
X127678999Y-115188999D03*
X127678999Y-117688999D03*
X133178999Y-112688999D03*
X133178999Y-115188999D03*
X133178999Y-117688999D03*
%TD*%
D23*
%TO.C,R10*%
X139952000Y-82550000D03*
X146052000Y-82550000D03*
%TD*%
D24*
%TO.C,C3*%
X144039500Y-88900000D03*
X141964500Y-88900000D03*
%TD*%
D25*
%TO.C,U1*%
X147893999Y-118697999D03*
X148843999Y-118697999D03*
X149793999Y-118697999D03*
X149793999Y-115997999D03*
X147893999Y-115997999D03*
%TD*%
D26*
%TO.C,J6*%
X139676000Y-70580000D03*
X138676000Y-70580000D03*
X137676000Y-70580000D03*
X136676000Y-70580000D03*
D27*
X140976000Y-66705000D03*
X135376000Y-66705000D03*
%TD*%
D13*
%TO.C,C15*%
X145796000Y-118131500D03*
X145796000Y-116056500D03*
%TD*%
D24*
%TO.C,*%
X141964500Y-88900000D03*
%TD*%
D13*
%TO.C,C1*%
X149098000Y-94001500D03*
X149098000Y-91926500D03*
%TD*%
D28*
%TO.C,D3*%
X134795500Y-121285000D03*
X132920500Y-121285000D03*
%TD*%
D24*
%TO.C,C13*%
X155850500Y-126746000D03*
X153775500Y-126746000D03*
%TD*%
D16*
%TO.C,R13*%
X162941000Y-107045000D03*
X162941000Y-105045000D03*
%TD*%
D18*
%TO.C,D2*%
X141909799Y-105023999D03*
X141909799Y-102523999D03*
%TD*%
D20*
%TO.C,R12*%
X146050000Y-85614000D03*
X146050000Y-87614000D03*
%TD*%
D24*
%TO.C,C12*%
X158390500Y-107315000D03*
X156315500Y-107315000D03*
%TD*%
%TO.C,C11*%
X158390500Y-104902000D03*
X156315500Y-104902000D03*
%TD*%
M02*
