%TF.GenerationSoftware,KiCad,Pcbnew,(6.99.0-2504-g6a9c6e8599)*%
%TF.CreationDate,2023-09-25T00:56:31-07:00*%
%TF.ProjectId,BuoyPower,42756f79-506f-4776-9572-2e6b69636164,rev?*%
%TF.SameCoordinates,Original*%
%TF.FileFunction,Legend,Bot*%
%TF.FilePolarity,Positive*%
%FSLAX46Y46*%
G04 Gerber Fmt 4.6, Leading zero omitted, Abs format (unit mm)*
G04 Created by KiCad (PCBNEW (6.99.0-2504-g6a9c6e8599)) date 2023-09-25 00:56:31*
%MOMM*%
%LPD*%
G01*
G04 APERTURE LIST*
%ADD10C,0.150000*%
%ADD11C,0.120000*%
G04 APERTURE END LIST*
D10*
%TO.C,J10*%
X178277523Y-70641380D02*
X178277523Y-71355666D01*
X178277523Y-71355666D02*
X178325142Y-71498523D01*
X178325142Y-71498523D02*
X178420380Y-71593761D01*
X178420380Y-71593761D02*
X178563237Y-71641380D01*
X178563237Y-71641380D02*
X178658475Y-71641380D01*
X177277523Y-71641380D02*
X177848951Y-71641380D01*
X177563237Y-71641380D02*
X177563237Y-70641380D01*
X177563237Y-70641380D02*
X177658475Y-70784238D01*
X177658475Y-70784238D02*
X177753713Y-70879476D01*
X177753713Y-70879476D02*
X177848951Y-70927095D01*
X176658475Y-70641380D02*
X176563237Y-70641380D01*
X176563237Y-70641380D02*
X176467999Y-70689000D01*
X176467999Y-70689000D02*
X176420380Y-70736619D01*
X176420380Y-70736619D02*
X176372761Y-70831857D01*
X176372761Y-70831857D02*
X176325142Y-71022333D01*
X176325142Y-71022333D02*
X176325142Y-71260428D01*
X176325142Y-71260428D02*
X176372761Y-71450904D01*
X176372761Y-71450904D02*
X176420380Y-71546142D01*
X176420380Y-71546142D02*
X176467999Y-71593761D01*
X176467999Y-71593761D02*
X176563237Y-71641380D01*
X176563237Y-71641380D02*
X176658475Y-71641380D01*
X176658475Y-71641380D02*
X176753713Y-71593761D01*
X176753713Y-71593761D02*
X176801332Y-71546142D01*
X176801332Y-71546142D02*
X176848951Y-71450904D01*
X176848951Y-71450904D02*
X176896570Y-71260428D01*
X176896570Y-71260428D02*
X176896570Y-71022333D01*
X176896570Y-71022333D02*
X176848951Y-70831857D01*
X176848951Y-70831857D02*
X176801332Y-70736619D01*
X176801332Y-70736619D02*
X176753713Y-70689000D01*
X176753713Y-70689000D02*
X176658475Y-70641380D01*
%TO.C,BT2*%
X147861571Y-121245785D02*
X147909190Y-121388642D01*
X147909190Y-121388642D02*
X147956809Y-121436261D01*
X147956809Y-121436261D02*
X148052047Y-121483880D01*
X148052047Y-121483880D02*
X148194904Y-121483880D01*
X148194904Y-121483880D02*
X148290142Y-121436261D01*
X148290142Y-121436261D02*
X148337761Y-121388642D01*
X148337761Y-121388642D02*
X148385380Y-121293404D01*
X148385380Y-121293404D02*
X148385380Y-120912452D01*
X148385380Y-120912452D02*
X147385380Y-120912452D01*
X147385380Y-120912452D02*
X147385380Y-121245785D01*
X147385380Y-121245785D02*
X147433000Y-121341023D01*
X147433000Y-121341023D02*
X147480619Y-121388642D01*
X147480619Y-121388642D02*
X147575857Y-121436261D01*
X147575857Y-121436261D02*
X147671095Y-121436261D01*
X147671095Y-121436261D02*
X147766333Y-121388642D01*
X147766333Y-121388642D02*
X147813952Y-121341023D01*
X147813952Y-121341023D02*
X147861571Y-121245785D01*
X147861571Y-121245785D02*
X147861571Y-120912452D01*
X147385380Y-121769595D02*
X147385380Y-122341023D01*
X148385380Y-122055309D02*
X147385380Y-122055309D01*
X147480619Y-122626738D02*
X147433000Y-122674357D01*
X147433000Y-122674357D02*
X147385380Y-122769595D01*
X147385380Y-122769595D02*
X147385380Y-123007690D01*
X147385380Y-123007690D02*
X147433000Y-123102928D01*
X147433000Y-123102928D02*
X147480619Y-123150547D01*
X147480619Y-123150547D02*
X147575857Y-123198166D01*
X147575857Y-123198166D02*
X147671095Y-123198166D01*
X147671095Y-123198166D02*
X147813952Y-123150547D01*
X147813952Y-123150547D02*
X148385380Y-122579119D01*
X148385380Y-122579119D02*
X148385380Y-123198166D01*
D11*
%TO.C,J10*%
X180068000Y-123634000D02*
X174868000Y-123634000D01*
X180068000Y-72714000D02*
X180068000Y-123634000D01*
X180068000Y-72714000D02*
X177468000Y-72714000D01*
X177468000Y-75314000D02*
X174868000Y-75314000D01*
X177468000Y-72714000D02*
X177468000Y-75314000D01*
X176198000Y-72714000D02*
X174868000Y-72714000D01*
X174868000Y-75314000D02*
X174868000Y-123634000D01*
X174868000Y-72714000D02*
X174868000Y-74044000D01*
%TO.C,BT2*%
X136342000Y-117900000D02*
X141142000Y-117900000D01*
X136342000Y-123400000D02*
X136342000Y-117900000D01*
X141092000Y-114600000D02*
X147942000Y-109800000D01*
X141142000Y-123400000D02*
X136342000Y-123400000D01*
X141342000Y-130150000D02*
X148042000Y-130150000D01*
X147942000Y-109800000D02*
X155842000Y-109800000D01*
X155842000Y-109800000D02*
X162642000Y-114600000D01*
X162442000Y-130150000D02*
X155742000Y-130150000D01*
X162642000Y-117900000D02*
X167442000Y-117900000D01*
X167442000Y-117900000D02*
X167442000Y-123400000D01*
X167442000Y-123400000D02*
X162642000Y-123400000D01*
X148045615Y-130151463D02*
G75*
G03*
X155742000Y-130149999I3846385J9501463D01*
G01*
%TD*%
M02*
