M48
; DRILL file {KiCad (6.99.0-2504-g6a9c6e8599)} date Friday, September 22, 2023 at 12:12:27 AM
; FORMAT={-:-/ absolute / inch / decimal}
; #@! TF.CreationDate,2023-09-22T00:12:27-07:00
; #@! TF.GenerationSoftware,Kicad,Pcbnew,(6.99.0-2504-g6a9c6e8599)
; #@! TF.FileFunction,Plated,1,2,PTH
FMAT,2
INCH
; #@! TA.AperFunction,Plated,PTH,ViaDrill
T1C0.0157
; #@! TA.AperFunction,Plated,PTH,ComponentDrill
T2C0.0197
; #@! TA.AperFunction,Plated,PTH,ComponentDrill
T3C0.0315
; #@! TA.AperFunction,Plated,PTH,ComponentDrill
T4C0.0374
; #@! TA.AperFunction,Plated,PTH,ComponentDrill
T5C0.0394
; #@! TA.AperFunction,Plated,PTH,ComponentDrill
T6C0.0591
; #@! TA.AperFunction,Plated,PTH,ComponentDrill
T7C0.1260
%
G90
G05
T1
X5.15Y-3.64
X5.21Y-3.78
X5.21Y-3.88
X5.3Y-4.28
X5.34Y-3.74
X5.41Y-3.78
X5.41Y-3.9
X5.43Y-3.83
X5.435Y-3.0108
X5.435Y-3.0908
X5.435Y-3.33
X5.435Y-3.41
X5.46Y-4.94
X5.475Y-3.0508
X5.475Y-3.37
X5.495Y-4.425
X5.51Y-2.93
X5.515Y-3.0108
X5.515Y-3.0908
X5.515Y-3.33
X5.515Y-3.41
X5.52Y-4.34
X5.57Y-4.285
X5.58Y-5.08
X5.595Y-4.51
X5.63Y-4.575
X5.635Y-4.285
X5.72Y-3.9
X5.73Y-4.95
X5.75Y-4.785
X5.76Y-3.085
X5.76Y-3.165
X5.8Y-3.125
X5.81Y-4.535
X5.84Y-3.085
X5.84Y-3.165
X5.86Y-3.83
X5.865Y-4.145
X5.87Y-3.78
X5.94Y-4.04
X5.99Y-4.08
X6.02Y-3.96
X6.05Y-4.1
X6.06Y-4.525
X6.06Y-4.575
X6.06Y-4.625
X6.06Y-4.675
X6.09Y-4.13
X6.09Y-4.23
X6.12Y-3.95
X6.24Y-3.91
X6.25Y-3.085
X6.25Y-3.165
X6.29Y-3.125
X6.32Y-3.99
X6.32Y-4.15
X6.33Y-3.085
X6.33Y-3.165
X6.39Y-4.59
X6.46Y-3.95
X6.485Y-3.42
X6.485Y-3.5
X6.525Y-3.46
X6.565Y-3.42
X6.565Y-3.5
X6.585Y-4.475
X6.585Y-4.525
X6.585Y-4.575
X6.6Y-4.09
X6.62Y-3.99
X6.625Y-4.626
X6.626Y-4.675
X6.75Y-3.21
X6.83Y-4.03
T2
X4.9633Y-2.7234
X4.9633Y-5.0069
X4.991Y-2.6566
X4.991Y-2.7902
X4.991Y-4.94
X4.991Y-5.0737
X5.0578Y-2.6289
X5.0578Y-2.8179
X5.0578Y-4.9124
X5.0578Y-5.1013
X5.1246Y-2.6566
X5.1246Y-2.7902
X5.1246Y-4.94
X5.1246Y-5.0737
X5.1523Y-2.7234
X5.1523Y-5.0069
T3
X5.22Y-4.4313
X5.22Y-4.51
X5.22Y-4.5887
T4
X5.8016Y-2.965
X5.9Y-2.965
X5.9984Y-2.965
X6.2931Y-2.965
X6.3916Y-2.965
X6.49Y-2.965
X6.5884Y-2.965
T5
X5.02Y-3.7748
X5.02Y-3.8748
X5.02Y-3.9748
X5.02Y-4.0748
X5.02Y-4.1748
X5.3108Y-3.0508
X5.3108Y-3.1492
X5.3108Y-3.4508
X5.3108Y-3.5492
X6.4698Y-5.06
X6.5698Y-5.06
X6.57Y-3.71
X6.67Y-3.31
X6.67Y-3.41
X6.67Y-3.51
X6.67Y-3.61
X6.67Y-3.71
X6.9369Y-2.9151
X6.9369Y-3.0151
X6.9369Y-3.1151
X6.9369Y-3.2151
X6.9369Y-3.3151
X6.9369Y-3.4151
X6.9369Y-3.5151
X6.9369Y-3.6151
X6.9369Y-3.7151
X6.9369Y-3.8151
X6.9369Y-3.9151
X6.9369Y-4.0151
X6.9369Y-4.1151
X6.9369Y-4.2151
X6.9369Y-4.3151
X6.9369Y-4.4151
X6.9369Y-4.5151
X6.9369Y-4.6151
X6.9369Y-4.7151
X6.9369Y-4.8151
X7.0369Y-2.9151
X7.0369Y-3.0151
X7.0369Y-3.1151
X7.0369Y-3.2151
X7.0369Y-3.3151
X7.0369Y-3.4151
X7.0369Y-3.5151
X7.0369Y-3.6151
X7.0369Y-3.7151
X7.0369Y-3.8151
X7.0369Y-3.9151
X7.0369Y-4.0151
X7.0369Y-4.1151
X7.0369Y-4.2151
X7.0369Y-4.3151
X7.0369Y-4.4151
X7.0369Y-4.5151
X7.0369Y-4.6151
X7.0369Y-4.7151
X7.0369Y-4.8151
T6
X5.22Y-4.3191
X5.22Y-4.7009
T7
X5.0578Y-2.7234
X5.0578Y-5.0069
T0
M30
