M48
; DRILL file {KiCad (6.99.0-2504-g6a9c6e8599)} date Sunday, August 13, 2023 at 04:33:24 PM
; FORMAT={-:-/ absolute / inch / decimal}
; #@! TF.CreationDate,2023-08-13T16:33:24-07:00
; #@! TF.GenerationSoftware,Kicad,Pcbnew,(6.99.0-2504-g6a9c6e8599)
; #@! TF.FileFunction,Plated,1,2,PTH
FMAT,2
INCH
; #@! TA.AperFunction,Plated,PTH,ViaDrill
T1C0.0157
; #@! TA.AperFunction,Plated,PTH,ComponentDrill
T2C0.0197
; #@! TA.AperFunction,Plated,PTH,ComponentDrill
T3C0.0315
; #@! TA.AperFunction,Plated,PTH,ComponentDrill
T4C0.0394
; #@! TA.AperFunction,Plated,PTH,ComponentDrill
T5C0.0472
; #@! TA.AperFunction,Plated,PTH,ComponentDrill
T6C0.0591
; #@! TA.AperFunction,Plated,PTH,ComponentDrill
T7C0.1260
%
G90
G05
T1
X5.6339Y-3.9803
X5.7047Y-3.3937
X5.7717Y-2.9134
X5.8937Y-2.9449
X5.937Y-2.9882
X5.9488Y-4.311
X5.9567Y-4.2283
X6.0157Y-3.622
X6.0197Y-3.4567
X6.0197Y-3.5236
X6.0276Y-2.811
X6.0276Y-2.8976
X6.0315Y-4.0591
X6.0315Y-4.126
X6.0591Y-3.0079
X6.1024Y-3.0512
X6.1654Y-3.5276
X6.1654Y-4.126
X6.1654Y-4.3701
X6.1654Y-4.4528
X6.2402Y-3.4606
X6.2402Y-4.0591
X6.3642Y-4.5492
X6.4449Y-4.8071
X6.4961Y-4.5197
X6.6614Y-4.3504
X6.6614Y-4.4016
X6.6614Y-4.4528
X6.9567Y-4.3071
X7.0591Y-4.3425
X7.1142Y-4.7835
X7.126Y-4.3465
X7.1496Y-4.3976
X7.2165Y-4.7835
X7.3346Y-4.3976
X7.3898Y-4.6102
X7.7047Y-3.8858
X7.7047Y-4.0079
X9.0118Y-4.5157
T2
X4.7874Y-2.7165
X4.7874Y-4.7638
X4.8151Y-2.6497
X4.8151Y-2.7833
X4.8151Y-4.697
X4.8151Y-4.8306
X4.8819Y-2.622
X4.8819Y-2.811
X4.8819Y-4.6693
X4.8819Y-4.8583
X4.9487Y-2.6497
X4.9487Y-2.7833
X4.9487Y-4.697
X4.9487Y-4.8306
X4.9764Y-2.7165
X4.9764Y-4.7638
X9.315Y-2.7205
X9.315Y-4.7638
X9.3426Y-2.6537
X9.3426Y-2.7873
X9.3426Y-4.697
X9.3426Y-4.8306
X9.4094Y-2.626
X9.4094Y-2.815
X9.4094Y-4.6693
X9.4094Y-4.8583
X9.4763Y-2.6537
X9.4763Y-2.7873
X9.4763Y-4.697
X9.4763Y-4.8306
X9.5039Y-2.7205
X9.5039Y-4.7638
T3
X7.7146Y-3.3247
X7.7146Y-4.1247
X7.8146Y-3.3247
X7.8146Y-4.1247
X7.9146Y-3.3247
X7.9146Y-4.1247
X8.0146Y-3.3247
X8.0146Y-4.1247
X8.1146Y-3.3247
X8.1146Y-4.1247
X8.2146Y-3.3247
X8.2146Y-4.1247
X8.3146Y-3.3247
X8.3146Y-4.1247
X8.4146Y-3.3247
X8.4146Y-4.1247
X8.5146Y-3.3247
X8.5146Y-4.1247
X8.6146Y-3.3247
X8.6146Y-4.1247
X8.7146Y-3.3247
X8.7146Y-4.1247
X8.8146Y-3.3247
X8.8146Y-4.1247
X8.9146Y-3.3247
X9.0146Y-3.3247
X9.1146Y-3.3247
X9.2146Y-3.3247
T4
X5.5118Y-4.6624
X5.5118Y-4.7624
X5.8252Y-4.6014
X5.9252Y-4.6014
X6.0252Y-4.6014
X6.936Y-2.9646
X7.036Y-2.9646
X7.136Y-2.9646
T5
X4.9016Y-3.0413
X4.9016Y-3.1791
X4.9016Y-3.4154
X4.9016Y-3.5531
X4.9016Y-3.6874
X4.9016Y-3.8252
X4.9016Y-4.0748
X4.9016Y-4.2126
X4.9016Y-4.3504
X4.9016Y-4.4882
X6.2402Y-2.7165
X6.378Y-2.7165
X6.5157Y-2.7165
X6.6535Y-2.7165
X7.0866Y-2.7205
X7.2244Y-2.7205
X7.3622Y-2.7205
X7.5Y-2.7205
X7.6378Y-2.7205
X7.6378Y-4.7598
X7.7756Y-2.7205
X7.7756Y-4.7598
X7.9134Y-2.7205
X7.9134Y-4.7598
X8.0512Y-2.7205
X8.0512Y-4.7598
X8.189Y-2.7205
X8.189Y-4.7598
X8.3268Y-2.7205
X8.3268Y-4.7598
X8.4646Y-2.7205
X8.4646Y-4.7598
X8.6024Y-2.7205
X8.6024Y-4.7598
X8.7402Y-2.7205
X8.7402Y-4.7598
X8.878Y-2.7205
X8.878Y-4.7598
X9.0157Y-2.7205
X9.0157Y-4.7598
X9.1535Y-2.7205
X9.1535Y-4.7598
T6
X6.4504Y-3.2024
X6.4504Y-3.5024
X6.4504Y-3.7024
X7.2504Y-3.2024
X7.2504Y-3.6024
X7.2504Y-4.0024
T7
X4.8819Y-2.7165
X4.8819Y-4.7638
X9.4094Y-2.7205
X9.4094Y-4.7638
T0
M30
