%TF.GenerationSoftware,KiCad,Pcbnew,(6.99.0-2504-g6a9c6e8599)*%
%TF.CreationDate,2023-08-13T16:33:27-07:00*%
%TF.ProjectId,BuoyPower,42756f79-506f-4776-9572-2e6b69636164,rev?*%
%TF.SameCoordinates,Original*%
%TF.FileFunction,Copper,L1,Top*%
%TF.FilePolarity,Positive*%
%FSLAX46Y46*%
G04 Gerber Fmt 4.6, Leading zero omitted, Abs format (unit mm)*
G04 Created by KiCad (PCBNEW (6.99.0-2504-g6a9c6e8599)) date 2023-08-13 16:33:27*
%MOMM*%
%LPD*%
G01*
G04 APERTURE LIST*
G04 Aperture macros list*
%AMRoundRect*
0 Rectangle with rounded corners*
0 $1 Rounding radius*
0 $2 $3 $4 $5 $6 $7 $8 $9 X,Y pos of 4 corners*
0 Add a 4 corners polygon primitive as box body*
4,1,4,$2,$3,$4,$5,$6,$7,$8,$9,$2,$3,0*
0 Add four circle primitives for the rounded corners*
1,1,$1+$1,$2,$3*
1,1,$1+$1,$4,$5*
1,1,$1+$1,$6,$7*
1,1,$1+$1,$8,$9*
0 Add four rect primitives between the rounded corners*
20,1,$1+$1,$2,$3,$4,$5,0*
20,1,$1+$1,$4,$5,$6,$7,0*
20,1,$1+$1,$6,$7,$8,$9,0*
20,1,$1+$1,$8,$9,$2,$3,0*%
%AMFreePoly0*
4,1,19,0.500000,-0.750000,0.000000,-0.750000,0.000000,-0.744911,-0.071157,-0.744911,-0.207708,-0.704816,-0.327430,-0.627875,-0.420627,-0.520320,-0.479746,-0.390866,-0.500000,-0.250000,-0.500000,0.250000,-0.479746,0.390866,-0.420627,0.520320,-0.327430,0.627875,-0.207708,0.704816,-0.071157,0.744911,0.000000,0.744911,0.000000,0.750000,0.500000,0.750000,0.500000,-0.750000,0.500000,-0.750000,
$1*%
%AMFreePoly1*
4,1,19,0.000000,0.744911,0.071157,0.744911,0.207708,0.704816,0.327430,0.627875,0.420627,0.520320,0.479746,0.390866,0.500000,0.250000,0.500000,-0.250000,0.479746,-0.390866,0.420627,-0.520320,0.327430,-0.627875,0.207708,-0.704816,0.071157,-0.744911,0.000000,-0.744911,0.000000,-0.750000,-0.500000,-0.750000,-0.500000,0.750000,0.000000,0.750000,0.000000,0.744911,0.000000,0.744911,
$1*%
G04 Aperture macros list end*
%ADD10C,0.300000*%
%TA.AperFunction,NonConductor*%
%ADD11C,0.300000*%
%TD*%
%TA.AperFunction,ComponentPad*%
%ADD12R,1.700000X1.700000*%
%TD*%
%TA.AperFunction,ComponentPad*%
%ADD13O,1.700000X1.700000*%
%TD*%
%TA.AperFunction,ComponentPad*%
%ADD14R,2.400000X2.400000*%
%TD*%
%TA.AperFunction,ComponentPad*%
%ADD15C,2.400000*%
%TD*%
%TA.AperFunction,SMDPad,CuDef*%
%ADD16R,1.500000X1.000000*%
%TD*%
%TA.AperFunction,SMDPad,CuDef*%
%ADD17RoundRect,0.250000X-0.350000X-0.450000X0.350000X-0.450000X0.350000X0.450000X-0.350000X0.450000X0*%
%TD*%
%TA.AperFunction,SMDPad,CuDef*%
%ADD18R,1.000000X1.500000*%
%TD*%
%TA.AperFunction,SMDPad,CuDef*%
%ADD19RoundRect,0.150000X0.825000X0.150000X-0.825000X0.150000X-0.825000X-0.150000X0.825000X-0.150000X0*%
%TD*%
%TA.AperFunction,SMDPad,CuDef*%
%ADD20RoundRect,0.250000X0.337500X0.475000X-0.337500X0.475000X-0.337500X-0.475000X0.337500X-0.475000X0*%
%TD*%
%TA.AperFunction,ComponentPad*%
%ADD21R,2.250000X2.250000*%
%TD*%
%TA.AperFunction,ComponentPad*%
%ADD22C,2.250000*%
%TD*%
%TA.AperFunction,ComponentPad*%
%ADD23C,0.800000*%
%TD*%
%TA.AperFunction,ComponentPad*%
%ADD24C,6.400000*%
%TD*%
%TA.AperFunction,SMDPad,CuDef*%
%ADD25RoundRect,0.249999X1.425001X-0.450001X1.425001X0.450001X-1.425001X0.450001X-1.425001X-0.450001X0*%
%TD*%
%TA.AperFunction,SMDPad,CuDef*%
%ADD26RoundRect,0.250000X-0.475000X0.337500X-0.475000X-0.337500X0.475000X-0.337500X0.475000X0.337500X0*%
%TD*%
%TA.AperFunction,ComponentPad*%
%ADD27C,1.600000*%
%TD*%
%TA.AperFunction,ComponentPad*%
%ADD28R,1.600000X1.600000*%
%TD*%
%TA.AperFunction,ComponentPad*%
%ADD29R,1.508000X1.508000*%
%TD*%
%TA.AperFunction,ComponentPad*%
%ADD30C,1.508000*%
%TD*%
%TA.AperFunction,SMDPad,CuDef*%
%ADD31R,1.560000X0.650000*%
%TD*%
%TA.AperFunction,SMDPad,CuDef*%
%ADD32RoundRect,0.250000X-0.337500X-0.475000X0.337500X-0.475000X0.337500X0.475000X-0.337500X0.475000X0*%
%TD*%
%TA.AperFunction,SMDPad,CuDef*%
%ADD33RoundRect,0.250000X0.350000X0.450000X-0.350000X0.450000X-0.350000X-0.450000X0.350000X-0.450000X0*%
%TD*%
%TA.AperFunction,SMDPad,CuDef*%
%ADD34RoundRect,0.150000X0.875000X0.150000X-0.875000X0.150000X-0.875000X-0.150000X0.875000X-0.150000X0*%
%TD*%
%TA.AperFunction,SMDPad,CuDef*%
%ADD35FreePoly0,90.000000*%
%TD*%
%TA.AperFunction,SMDPad,CuDef*%
%ADD36FreePoly1,90.000000*%
%TD*%
%TA.AperFunction,ViaPad*%
%ADD37C,0.800000*%
%TD*%
%TA.AperFunction,Conductor*%
%ADD38C,0.406400*%
%TD*%
%TA.AperFunction,Conductor*%
%ADD39C,1.500000*%
%TD*%
%TA.AperFunction,Conductor*%
%ADD40C,0.812800*%
%TD*%
%TA.AperFunction,Conductor*%
%ADD41C,0.250000*%
%TD*%
%TA.AperFunction,Conductor*%
%ADD42C,2.000000*%
%TD*%
G04 APERTURE END LIST*
D10*
D11*
X120857142Y-103602142D02*
X122000000Y-103602142D01*
D10*
D11*
X120857142Y-86902142D02*
X122000000Y-86902142D01*
D10*
D11*
X120957142Y-80802142D02*
X122100000Y-80802142D01*
X121528571Y-81373571D02*
X121528571Y-80230714D01*
D10*
D11*
X120857142Y-114002142D02*
X122000000Y-114002142D01*
X121428571Y-114573571D02*
X121428571Y-113430714D01*
D10*
D11*
X120857142Y-97302142D02*
X122000000Y-97302142D01*
X121428571Y-97873571D02*
X121428571Y-96730714D01*
D10*
D11*
X202414285Y-88473571D02*
X202700000Y-89473571D01*
X202700000Y-89473571D02*
X202985714Y-88759285D01*
X202985714Y-88759285D02*
X203271428Y-89473571D01*
X203271428Y-89473571D02*
X203557142Y-88473571D01*
X203985714Y-88473571D02*
X204271429Y-89473571D01*
X204271429Y-89473571D02*
X204557143Y-88759285D01*
X204557143Y-88759285D02*
X204842857Y-89473571D01*
X204842857Y-89473571D02*
X205128571Y-88473571D01*
X205557143Y-88473571D02*
X205842858Y-89473571D01*
X205842858Y-89473571D02*
X206128572Y-88759285D01*
X206128572Y-88759285D02*
X206414286Y-89473571D01*
X206414286Y-89473571D02*
X206700000Y-88473571D01*
X207271429Y-89330714D02*
X207342858Y-89402142D01*
X207342858Y-89402142D02*
X207271429Y-89473571D01*
X207271429Y-89473571D02*
X207200001Y-89402142D01*
X207200001Y-89402142D02*
X207271429Y-89330714D01*
X207271429Y-89330714D02*
X207271429Y-89473571D01*
X208628573Y-89473571D02*
X208628573Y-87973571D01*
X208628573Y-89402142D02*
X208485715Y-89473571D01*
X208485715Y-89473571D02*
X208200001Y-89473571D01*
X208200001Y-89473571D02*
X208057144Y-89402142D01*
X208057144Y-89402142D02*
X207985715Y-89330714D01*
X207985715Y-89330714D02*
X207914287Y-89187857D01*
X207914287Y-89187857D02*
X207914287Y-88759285D01*
X207914287Y-88759285D02*
X207985715Y-88616428D01*
X207985715Y-88616428D02*
X208057144Y-88545000D01*
X208057144Y-88545000D02*
X208200001Y-88473571D01*
X208200001Y-88473571D02*
X208485715Y-88473571D01*
X208485715Y-88473571D02*
X208628573Y-88545000D01*
X209342858Y-89473571D02*
X209342858Y-88473571D01*
X209342858Y-87973571D02*
X209271430Y-88045000D01*
X209271430Y-88045000D02*
X209342858Y-88116428D01*
X209342858Y-88116428D02*
X209414287Y-88045000D01*
X209414287Y-88045000D02*
X209342858Y-87973571D01*
X209342858Y-87973571D02*
X209342858Y-88116428D01*
X209914287Y-88473571D02*
X210271430Y-89473571D01*
X210628573Y-88473571D02*
X210271430Y-89473571D01*
X210271430Y-89473571D02*
X210128573Y-89830714D01*
X210128573Y-89830714D02*
X210057144Y-89902142D01*
X210057144Y-89902142D02*
X209914287Y-89973571D01*
X211842859Y-89473571D02*
X211842859Y-88687857D01*
X211842859Y-88687857D02*
X211771430Y-88545000D01*
X211771430Y-88545000D02*
X211628573Y-88473571D01*
X211628573Y-88473571D02*
X211342859Y-88473571D01*
X211342859Y-88473571D02*
X211200001Y-88545000D01*
X211842859Y-89402142D02*
X211700001Y-89473571D01*
X211700001Y-89473571D02*
X211342859Y-89473571D01*
X211342859Y-89473571D02*
X211200001Y-89402142D01*
X211200001Y-89402142D02*
X211128573Y-89259285D01*
X211128573Y-89259285D02*
X211128573Y-89116428D01*
X211128573Y-89116428D02*
X211200001Y-88973571D01*
X211200001Y-88973571D02*
X211342859Y-88902142D01*
X211342859Y-88902142D02*
X211700001Y-88902142D01*
X211700001Y-88902142D02*
X211842859Y-88830714D01*
X213200002Y-88473571D02*
X213200002Y-89973571D01*
X213200002Y-89402142D02*
X213057144Y-89473571D01*
X213057144Y-89473571D02*
X212771430Y-89473571D01*
X212771430Y-89473571D02*
X212628573Y-89402142D01*
X212628573Y-89402142D02*
X212557144Y-89330714D01*
X212557144Y-89330714D02*
X212485716Y-89187857D01*
X212485716Y-89187857D02*
X212485716Y-88759285D01*
X212485716Y-88759285D02*
X212557144Y-88616428D01*
X212557144Y-88616428D02*
X212628573Y-88545000D01*
X212628573Y-88545000D02*
X212771430Y-88473571D01*
X212771430Y-88473571D02*
X213057144Y-88473571D01*
X213057144Y-88473571D02*
X213200002Y-88545000D01*
X214557145Y-88473571D02*
X214557145Y-89473571D01*
X213914287Y-88473571D02*
X213914287Y-89259285D01*
X213914287Y-89259285D02*
X213985716Y-89402142D01*
X213985716Y-89402142D02*
X214128573Y-89473571D01*
X214128573Y-89473571D02*
X214342859Y-89473571D01*
X214342859Y-89473571D02*
X214485716Y-89402142D01*
X214485716Y-89402142D02*
X214557145Y-89330714D01*
X215914288Y-89473571D02*
X215914288Y-88687857D01*
X215914288Y-88687857D02*
X215842859Y-88545000D01*
X215842859Y-88545000D02*
X215700002Y-88473571D01*
X215700002Y-88473571D02*
X215414288Y-88473571D01*
X215414288Y-88473571D02*
X215271430Y-88545000D01*
X215914288Y-89402142D02*
X215771430Y-89473571D01*
X215771430Y-89473571D02*
X215414288Y-89473571D01*
X215414288Y-89473571D02*
X215271430Y-89402142D01*
X215271430Y-89402142D02*
X215200002Y-89259285D01*
X215200002Y-89259285D02*
X215200002Y-89116428D01*
X215200002Y-89116428D02*
X215271430Y-88973571D01*
X215271430Y-88973571D02*
X215414288Y-88902142D01*
X215414288Y-88902142D02*
X215771430Y-88902142D01*
X215771430Y-88902142D02*
X215914288Y-88830714D01*
X216628573Y-88473571D02*
X216628573Y-89473571D01*
X216628573Y-88616428D02*
X216700002Y-88545000D01*
X216700002Y-88545000D02*
X216842859Y-88473571D01*
X216842859Y-88473571D02*
X217057145Y-88473571D01*
X217057145Y-88473571D02*
X217200002Y-88545000D01*
X217200002Y-88545000D02*
X217271431Y-88687857D01*
X217271431Y-88687857D02*
X217271431Y-89473571D01*
X218628574Y-89473571D02*
X218628574Y-88687857D01*
X218628574Y-88687857D02*
X218557145Y-88545000D01*
X218557145Y-88545000D02*
X218414288Y-88473571D01*
X218414288Y-88473571D02*
X218128574Y-88473571D01*
X218128574Y-88473571D02*
X217985716Y-88545000D01*
X218628574Y-89402142D02*
X218485716Y-89473571D01*
X218485716Y-89473571D02*
X218128574Y-89473571D01*
X218128574Y-89473571D02*
X217985716Y-89402142D01*
X217985716Y-89402142D02*
X217914288Y-89259285D01*
X217914288Y-89259285D02*
X217914288Y-89116428D01*
X217914288Y-89116428D02*
X217985716Y-88973571D01*
X217985716Y-88973571D02*
X218128574Y-88902142D01*
X218128574Y-88902142D02*
X218485716Y-88902142D01*
X218485716Y-88902142D02*
X218628574Y-88830714D01*
X219985717Y-88473571D02*
X219985717Y-89473571D01*
X219342859Y-88473571D02*
X219342859Y-89259285D01*
X219342859Y-89259285D02*
X219414288Y-89402142D01*
X219414288Y-89402142D02*
X219557145Y-89473571D01*
X219557145Y-89473571D02*
X219771431Y-89473571D01*
X219771431Y-89473571D02*
X219914288Y-89402142D01*
X219914288Y-89402142D02*
X219985717Y-89330714D01*
X220485717Y-88473571D02*
X221057145Y-88473571D01*
X220700002Y-87973571D02*
X220700002Y-89259285D01*
X220700002Y-89259285D02*
X220771431Y-89402142D01*
X220771431Y-89402142D02*
X220914288Y-89473571D01*
X220914288Y-89473571D02*
X221057145Y-89473571D01*
X221485717Y-89402142D02*
X221628574Y-89473571D01*
X221628574Y-89473571D02*
X221914288Y-89473571D01*
X221914288Y-89473571D02*
X222057145Y-89402142D01*
X222057145Y-89402142D02*
X222128574Y-89259285D01*
X222128574Y-89259285D02*
X222128574Y-89187857D01*
X222128574Y-89187857D02*
X222057145Y-89045000D01*
X222057145Y-89045000D02*
X221914288Y-88973571D01*
X221914288Y-88973571D02*
X221700003Y-88973571D01*
X221700003Y-88973571D02*
X221557145Y-88902142D01*
X221557145Y-88902142D02*
X221485717Y-88759285D01*
X221485717Y-88759285D02*
X221485717Y-88687857D01*
X221485717Y-88687857D02*
X221557145Y-88545000D01*
X221557145Y-88545000D02*
X221700003Y-88473571D01*
X221700003Y-88473571D02*
X221914288Y-88473571D01*
X221914288Y-88473571D02*
X222057145Y-88545000D01*
X222771431Y-89330714D02*
X222842860Y-89402142D01*
X222842860Y-89402142D02*
X222771431Y-89473571D01*
X222771431Y-89473571D02*
X222700003Y-89402142D01*
X222700003Y-89402142D02*
X222771431Y-89330714D01*
X222771431Y-89330714D02*
X222771431Y-89473571D01*
X224128575Y-89402142D02*
X223985717Y-89473571D01*
X223985717Y-89473571D02*
X223700003Y-89473571D01*
X223700003Y-89473571D02*
X223557146Y-89402142D01*
X223557146Y-89402142D02*
X223485717Y-89330714D01*
X223485717Y-89330714D02*
X223414289Y-89187857D01*
X223414289Y-89187857D02*
X223414289Y-88759285D01*
X223414289Y-88759285D02*
X223485717Y-88616428D01*
X223485717Y-88616428D02*
X223557146Y-88545000D01*
X223557146Y-88545000D02*
X223700003Y-88473571D01*
X223700003Y-88473571D02*
X223985717Y-88473571D01*
X223985717Y-88473571D02*
X224128575Y-88545000D01*
X224985717Y-89473571D02*
X224842860Y-89402142D01*
X224842860Y-89402142D02*
X224771431Y-89330714D01*
X224771431Y-89330714D02*
X224700003Y-89187857D01*
X224700003Y-89187857D02*
X224700003Y-88759285D01*
X224700003Y-88759285D02*
X224771431Y-88616428D01*
X224771431Y-88616428D02*
X224842860Y-88545000D01*
X224842860Y-88545000D02*
X224985717Y-88473571D01*
X224985717Y-88473571D02*
X225200003Y-88473571D01*
X225200003Y-88473571D02*
X225342860Y-88545000D01*
X225342860Y-88545000D02*
X225414289Y-88616428D01*
X225414289Y-88616428D02*
X225485717Y-88759285D01*
X225485717Y-88759285D02*
X225485717Y-89187857D01*
X225485717Y-89187857D02*
X225414289Y-89330714D01*
X225414289Y-89330714D02*
X225342860Y-89402142D01*
X225342860Y-89402142D02*
X225200003Y-89473571D01*
X225200003Y-89473571D02*
X224985717Y-89473571D01*
X226128574Y-89473571D02*
X226128574Y-88473571D01*
X226128574Y-88616428D02*
X226200003Y-88545000D01*
X226200003Y-88545000D02*
X226342860Y-88473571D01*
X226342860Y-88473571D02*
X226557146Y-88473571D01*
X226557146Y-88473571D02*
X226700003Y-88545000D01*
X226700003Y-88545000D02*
X226771432Y-88687857D01*
X226771432Y-88687857D02*
X226771432Y-89473571D01*
X226771432Y-88687857D02*
X226842860Y-88545000D01*
X226842860Y-88545000D02*
X226985717Y-88473571D01*
X226985717Y-88473571D02*
X227200003Y-88473571D01*
X227200003Y-88473571D02*
X227342860Y-88545000D01*
X227342860Y-88545000D02*
X227414289Y-88687857D01*
X227414289Y-88687857D02*
X227414289Y-89473571D01*
D10*
D11*
X208657142Y-93173571D02*
X208657142Y-91673571D01*
X208657142Y-91673571D02*
X209228571Y-91673571D01*
X209228571Y-91673571D02*
X209371428Y-91745000D01*
X209371428Y-91745000D02*
X209442857Y-91816428D01*
X209442857Y-91816428D02*
X209514285Y-91959285D01*
X209514285Y-91959285D02*
X209514285Y-92173571D01*
X209514285Y-92173571D02*
X209442857Y-92316428D01*
X209442857Y-92316428D02*
X209371428Y-92387857D01*
X209371428Y-92387857D02*
X209228571Y-92459285D01*
X209228571Y-92459285D02*
X208657142Y-92459285D01*
X210371428Y-93173571D02*
X210228571Y-93102142D01*
X210228571Y-93102142D02*
X210157142Y-93030714D01*
X210157142Y-93030714D02*
X210085714Y-92887857D01*
X210085714Y-92887857D02*
X210085714Y-92459285D01*
X210085714Y-92459285D02*
X210157142Y-92316428D01*
X210157142Y-92316428D02*
X210228571Y-92245000D01*
X210228571Y-92245000D02*
X210371428Y-92173571D01*
X210371428Y-92173571D02*
X210585714Y-92173571D01*
X210585714Y-92173571D02*
X210728571Y-92245000D01*
X210728571Y-92245000D02*
X210800000Y-92316428D01*
X210800000Y-92316428D02*
X210871428Y-92459285D01*
X210871428Y-92459285D02*
X210871428Y-92887857D01*
X210871428Y-92887857D02*
X210800000Y-93030714D01*
X210800000Y-93030714D02*
X210728571Y-93102142D01*
X210728571Y-93102142D02*
X210585714Y-93173571D01*
X210585714Y-93173571D02*
X210371428Y-93173571D01*
X211371428Y-92173571D02*
X211657143Y-93173571D01*
X211657143Y-93173571D02*
X211942857Y-92459285D01*
X211942857Y-92459285D02*
X212228571Y-93173571D01*
X212228571Y-93173571D02*
X212514285Y-92173571D01*
X213657143Y-93102142D02*
X213514286Y-93173571D01*
X213514286Y-93173571D02*
X213228572Y-93173571D01*
X213228572Y-93173571D02*
X213085714Y-93102142D01*
X213085714Y-93102142D02*
X213014286Y-92959285D01*
X213014286Y-92959285D02*
X213014286Y-92387857D01*
X213014286Y-92387857D02*
X213085714Y-92245000D01*
X213085714Y-92245000D02*
X213228572Y-92173571D01*
X213228572Y-92173571D02*
X213514286Y-92173571D01*
X213514286Y-92173571D02*
X213657143Y-92245000D01*
X213657143Y-92245000D02*
X213728572Y-92387857D01*
X213728572Y-92387857D02*
X213728572Y-92530714D01*
X213728572Y-92530714D02*
X213014286Y-92673571D01*
X214371428Y-93173571D02*
X214371428Y-92173571D01*
X214371428Y-92459285D02*
X214442857Y-92316428D01*
X214442857Y-92316428D02*
X214514286Y-92245000D01*
X214514286Y-92245000D02*
X214657143Y-92173571D01*
X214657143Y-92173571D02*
X214800000Y-92173571D01*
X215985714Y-91673571D02*
X216842857Y-91673571D01*
X216414285Y-93173571D02*
X216414285Y-91673571D01*
X217342856Y-93173571D02*
X217342856Y-92173571D01*
X217342856Y-91673571D02*
X217271428Y-91745000D01*
X217271428Y-91745000D02*
X217342856Y-91816428D01*
X217342856Y-91816428D02*
X217414285Y-91745000D01*
X217414285Y-91745000D02*
X217342856Y-91673571D01*
X217342856Y-91673571D02*
X217342856Y-91816428D01*
X218057142Y-93173571D02*
X218057142Y-92173571D01*
X218057142Y-92316428D02*
X218128571Y-92245000D01*
X218128571Y-92245000D02*
X218271428Y-92173571D01*
X218271428Y-92173571D02*
X218485714Y-92173571D01*
X218485714Y-92173571D02*
X218628571Y-92245000D01*
X218628571Y-92245000D02*
X218700000Y-92387857D01*
X218700000Y-92387857D02*
X218700000Y-93173571D01*
X218700000Y-92387857D02*
X218771428Y-92245000D01*
X218771428Y-92245000D02*
X218914285Y-92173571D01*
X218914285Y-92173571D02*
X219128571Y-92173571D01*
X219128571Y-92173571D02*
X219271428Y-92245000D01*
X219271428Y-92245000D02*
X219342857Y-92387857D01*
X219342857Y-92387857D02*
X219342857Y-93173571D01*
X220628571Y-93102142D02*
X220485714Y-93173571D01*
X220485714Y-93173571D02*
X220200000Y-93173571D01*
X220200000Y-93173571D02*
X220057142Y-93102142D01*
X220057142Y-93102142D02*
X219985714Y-92959285D01*
X219985714Y-92959285D02*
X219985714Y-92387857D01*
X219985714Y-92387857D02*
X220057142Y-92245000D01*
X220057142Y-92245000D02*
X220200000Y-92173571D01*
X220200000Y-92173571D02*
X220485714Y-92173571D01*
X220485714Y-92173571D02*
X220628571Y-92245000D01*
X220628571Y-92245000D02*
X220700000Y-92387857D01*
X220700000Y-92387857D02*
X220700000Y-92530714D01*
X220700000Y-92530714D02*
X219985714Y-92673571D01*
X221342856Y-93173571D02*
X221342856Y-92173571D01*
X221342856Y-92459285D02*
X221414285Y-92316428D01*
X221414285Y-92316428D02*
X221485714Y-92245000D01*
X221485714Y-92245000D02*
X221628571Y-92173571D01*
X221628571Y-92173571D02*
X221771428Y-92173571D01*
%TO.C,JP34*%
G36*
X226750000Y-78967500D02*
G01*
X226150000Y-78967500D01*
X226150000Y-78467500D01*
X226750000Y-78467500D01*
X226750000Y-78967500D01*
G37*
%TO.C,JP23*%
G36*
X219110000Y-110097500D02*
G01*
X218510000Y-110097500D01*
X218510000Y-109597500D01*
X219110000Y-109597500D01*
X219110000Y-110097500D01*
G37*
%TO.C,JP9*%
G36*
X203870000Y-78967500D02*
G01*
X203270000Y-78967500D01*
X203270000Y-78467500D01*
X203870000Y-78467500D01*
X203870000Y-78967500D01*
G37*
%TO.C,JP6*%
G36*
X214030000Y-110097500D02*
G01*
X213430000Y-110097500D01*
X213430000Y-109597500D01*
X214030000Y-109597500D01*
X214030000Y-110097500D01*
G37*
%TO.C,JP37*%
G36*
X183750000Y-115200000D02*
G01*
X183250000Y-115200000D01*
X183250000Y-114600000D01*
X183750000Y-114600000D01*
X183750000Y-115200000D01*
G37*
%TO.C,JP14*%
G36*
X221650000Y-78967500D02*
G01*
X221050000Y-78967500D01*
X221050000Y-78467500D01*
X221650000Y-78467500D01*
X221650000Y-78967500D01*
G37*
%TO.C,JP33*%
G36*
X196250000Y-78967500D02*
G01*
X195650000Y-78967500D01*
X195650000Y-78467500D01*
X196250000Y-78467500D01*
X196250000Y-78967500D01*
G37*
%TO.C,JP30*%
G36*
X150900000Y-95300000D02*
G01*
X150400000Y-95300000D01*
X150400000Y-94700000D01*
X150900000Y-94700000D01*
X150900000Y-95300000D01*
G37*
%TO.C,JP13*%
G36*
X224190000Y-78967500D02*
G01*
X223590000Y-78967500D01*
X223590000Y-78467500D01*
X224190000Y-78467500D01*
X224190000Y-78967500D01*
G37*
%TO.C,JP27*%
G36*
X151750000Y-78800000D02*
G01*
X151250000Y-78800000D01*
X151250000Y-78200000D01*
X151750000Y-78200000D01*
X151750000Y-78800000D01*
G37*
%TO.C,JP36*%
G36*
X177550000Y-121800000D02*
G01*
X177050000Y-121800000D01*
X177050000Y-121200000D01*
X177550000Y-121200000D01*
X177550000Y-121800000D01*
G37*
%TO.C,JP3*%
G36*
X206410000Y-110097500D02*
G01*
X205810000Y-110097500D01*
X205810000Y-109597500D01*
X206410000Y-109597500D01*
X206410000Y-110097500D01*
G37*
%TO.C,JP28*%
G36*
X149400000Y-107800000D02*
G01*
X148900000Y-107800000D01*
X148900000Y-107200000D01*
X149400000Y-107200000D01*
X149400000Y-107800000D01*
G37*
%TO.C,JP19*%
G36*
X198790000Y-110097500D02*
G01*
X198190000Y-110097500D01*
X198190000Y-109597500D01*
X198790000Y-109597500D01*
X198790000Y-110097500D01*
G37*
%TO.C,JP35*%
G36*
X229200000Y-112800000D02*
G01*
X228600000Y-112800000D01*
X228600000Y-112300000D01*
X229200000Y-112300000D01*
X229200000Y-112800000D01*
G37*
%TO.C,JP4*%
G36*
X208950000Y-110097500D02*
G01*
X208350000Y-110097500D01*
X208350000Y-109597500D01*
X208950000Y-109597500D01*
X208950000Y-110097500D01*
G37*
%TO.C,JP7*%
G36*
X208950000Y-78967500D02*
G01*
X208350000Y-78967500D01*
X208350000Y-78467500D01*
X208950000Y-78467500D01*
X208950000Y-78967500D01*
G37*
%TO.C,JP25*%
G36*
X231810000Y-78967500D02*
G01*
X231210000Y-78967500D01*
X231210000Y-78467500D01*
X231810000Y-78467500D01*
X231810000Y-78967500D01*
G37*
%TO.C,JP22*%
G36*
X234350000Y-78967500D02*
G01*
X233750000Y-78967500D01*
X233750000Y-78467500D01*
X234350000Y-78467500D01*
X234350000Y-78967500D01*
G37*
%TO.C,JP18*%
G36*
X196250000Y-110097500D02*
G01*
X195650000Y-110097500D01*
X195650000Y-109597500D01*
X196250000Y-109597500D01*
X196250000Y-110097500D01*
G37*
%TO.C,JP15*%
G36*
X219110000Y-78967500D02*
G01*
X218510000Y-78967500D01*
X218510000Y-78467500D01*
X219110000Y-78467500D01*
X219110000Y-78967500D01*
G37*
%TO.C,JP11*%
G36*
X214030000Y-78967500D02*
G01*
X213430000Y-78967500D01*
X213430000Y-78467500D01*
X214030000Y-78467500D01*
X214030000Y-78967500D01*
G37*
%TO.C,JP26*%
G36*
X151750000Y-81800000D02*
G01*
X151250000Y-81800000D01*
X151250000Y-81200000D01*
X151750000Y-81200000D01*
X151750000Y-81800000D01*
G37*
%TO.C,JP20*%
G36*
X221650000Y-110097500D02*
G01*
X221050000Y-110097500D01*
X221050000Y-109597500D01*
X221650000Y-109597500D01*
X221650000Y-110097500D01*
G37*
%TO.C,JP31*%
G36*
X150900000Y-92300000D02*
G01*
X150400000Y-92300000D01*
X150400000Y-91700000D01*
X150900000Y-91700000D01*
X150900000Y-92300000D01*
G37*
%TO.C,JP10*%
G36*
X216570000Y-78967500D02*
G01*
X215970000Y-78967500D01*
X215970000Y-78467500D01*
X216570000Y-78467500D01*
X216570000Y-78967500D01*
G37*
%TO.C,JP24*%
G36*
X224190000Y-110097500D02*
G01*
X223590000Y-110097500D01*
X223590000Y-109597500D01*
X224190000Y-109597500D01*
X224190000Y-110097500D01*
G37*
%TO.C,JP12*%
G36*
X211490000Y-78967500D02*
G01*
X210890000Y-78967500D01*
X210890000Y-78467500D01*
X211490000Y-78467500D01*
X211490000Y-78967500D01*
G37*
%TO.C,JP32*%
G36*
X216750000Y-110097500D02*
G01*
X216150000Y-110097500D01*
X216150000Y-109597500D01*
X216750000Y-109597500D01*
X216750000Y-110097500D01*
G37*
%TO.C,JP5*%
G36*
X211490000Y-110097500D02*
G01*
X210890000Y-110097500D01*
X210890000Y-109597500D01*
X211490000Y-109597500D01*
X211490000Y-110097500D01*
G37*
%TO.C,JP1*%
G36*
X201330000Y-110097500D02*
G01*
X200730000Y-110097500D01*
X200730000Y-109597500D01*
X201330000Y-109597500D01*
X201330000Y-110097500D01*
G37*
%TO.C,JP8*%
G36*
X206410000Y-78967500D02*
G01*
X205810000Y-78967500D01*
X205810000Y-78467500D01*
X206410000Y-78467500D01*
X206410000Y-78967500D01*
G37*
%TO.C,JP29*%
G36*
X149250000Y-110800000D02*
G01*
X148750000Y-110800000D01*
X148750000Y-110200000D01*
X149250000Y-110200000D01*
X149250000Y-110800000D01*
G37*
%TO.C,JP17*%
G36*
X198790000Y-78967500D02*
G01*
X198190000Y-78967500D01*
X198190000Y-78467500D01*
X198790000Y-78467500D01*
X198790000Y-78967500D01*
G37*
%TO.C,JP16*%
G36*
X201330000Y-78967500D02*
G01*
X200730000Y-78967500D01*
X200730000Y-78467500D01*
X201330000Y-78467500D01*
X201330000Y-78967500D01*
G37*
%TO.C,JP2*%
G36*
X203870000Y-110097500D02*
G01*
X203270000Y-110097500D01*
X203270000Y-109597500D01*
X203870000Y-109597500D01*
X203870000Y-110097500D01*
G37*
%TO.C,JP21*%
G36*
X229270000Y-78967500D02*
G01*
X228670000Y-78967500D01*
X228670000Y-78467500D01*
X229270000Y-78467500D01*
X229270000Y-78967500D01*
G37*
%TD*%
D12*
%TO.P,JP40,1,A*%
%TO.N,/A5*%
X176174999Y-75299999D03*
D13*
%TO.P,JP40,2,C*%
%TO.N,Net-(PS1-CTRL)*%
X178714999Y-75299999D03*
%TO.P,JP40,3,B*%
%TO.N,/NINT*%
X181254999Y-75299999D03*
%TD*%
D14*
%TO.P,J4,1,Pin_1*%
%TO.N,GND*%
X124499999Y-77249999D03*
D15*
%TO.P,J4,2,Pin_2*%
%TO.N,Net-(J4-Pin_2)*%
X124500000Y-80750000D03*
%TD*%
D14*
%TO.P,J9,1,Pin_1*%
%TO.N,+5V*%
X168999999Y-68999999D03*
D15*
%TO.P,J9,2,Pin_2*%
%TO.N,GND1*%
X165500000Y-69000000D03*
%TO.P,J9,3,Pin_3*%
%TO.N,VBUS*%
X162000000Y-69000000D03*
%TO.P,J9,4,Pin_4*%
%TO.N,GND*%
X158500000Y-69000000D03*
%TD*%
D14*
%TO.P,J6,1,Pin_1*%
%TO.N,GND*%
X124499999Y-110499999D03*
D15*
%TO.P,J6,2,Pin_2*%
%TO.N,Net-(J6-Pin_2)*%
X124500000Y-114000000D03*
%TD*%
D14*
%TO.P,J7,1,Pin_1*%
%TO.N,Net-(J7-Pin_1)*%
X124499999Y-103499999D03*
D15*
%TO.P,J7,2,Pin_2*%
%TO.N,GND*%
X124500000Y-107000000D03*
%TD*%
D14*
%TO.P,J1,1,Pin_1*%
%TO.N,GND*%
X124499999Y-93659999D03*
D15*
%TO.P,J1,2,Pin_2*%
%TO.N,Net-(J1-Pin_2)*%
X124500000Y-97160000D03*
%TD*%
D14*
%TO.P,J2,1,Pin_1*%
%TO.N,Net-(J2-Pin_1)*%
X124499999Y-86749999D03*
D15*
%TO.P,J2,2,Pin_2*%
%TO.N,GND*%
X124500000Y-90250000D03*
%TD*%
D14*
%TO.P,J8,1,Pin_1*%
%TO.N,/RESET*%
X232499999Y-69099999D03*
D15*
%TO.P,J8,2,Pin_2*%
%TO.N,/3V3*%
X229000000Y-69100000D03*
%TO.P,J8,3,Pin_3*%
%TO.N,/AREF*%
X225500000Y-69100000D03*
%TO.P,J8,4,Pin_4*%
%TO.N,GND*%
X222000000Y-69100000D03*
%TO.P,J8,5,Pin_5*%
%TO.N,/A0*%
X218500000Y-69100000D03*
%TO.P,J8,6,Pin_6*%
%TO.N,/A1*%
X215000000Y-69100000D03*
%TO.P,J8,7,Pin_7*%
%TO.N,/A2*%
X211500000Y-69100000D03*
%TO.P,J8,8,Pin_8*%
%TO.N,/A3*%
X208000000Y-69100000D03*
%TD*%
D14*
%TO.P,J3,1,Pin_1*%
%TO.N,/A4*%
X204499999Y-69099999D03*
D15*
%TO.P,J3,2,Pin_2*%
%TO.N,/A5*%
X201000000Y-69100000D03*
%TO.P,J3,3,Pin_3*%
%TO.N,/SCK*%
X197500000Y-69100000D03*
%TO.P,J3,4,Pin_4*%
%TO.N,/MOSI*%
X194000000Y-69100000D03*
%TO.P,J3,5,Pin_5*%
%TO.N,/MISO*%
X190500000Y-69100000D03*
%TO.P,J3,6,Pin_6*%
%TO.N,/RX*%
X187000000Y-69100000D03*
%TO.P,J3,7,Pin_7*%
%TO.N,/TX*%
X183500000Y-69100000D03*
%TO.P,J3,8,Pin_8*%
%TO.N,/SPARE*%
X180000000Y-69100000D03*
%TD*%
D14*
%TO.P,J5,1,Pin_1*%
%TO.N,/SDA*%
X193999999Y-120899999D03*
D15*
%TO.P,J5,2,Pin_2*%
%TO.N,/SCL*%
X197500000Y-120900000D03*
%TO.P,J5,3,Pin_3*%
%TO.N,/D0*%
X201000000Y-120900000D03*
%TO.P,J5,4,Pin_4*%
%TO.N,/D1*%
X204500000Y-120900000D03*
%TO.P,J5,5,Pin_5*%
%TO.N,/D2*%
X208000000Y-120900000D03*
%TO.P,J5,6,Pin_6*%
%TO.N,/D3*%
X211500000Y-120900000D03*
%TO.P,J5,7,Pin_7*%
%TO.N,/D4*%
X215000000Y-120900000D03*
%TO.P,J5,8,Pin_8*%
%TO.N,/D5*%
X218500000Y-120900000D03*
%TO.P,J5,9,Pin_9*%
%TO.N,/D6*%
X222000000Y-120900000D03*
%TO.P,J5,10,Pin_10*%
%TO.N,/USB*%
X225500000Y-120900000D03*
%TO.P,J5,11,Pin_11*%
%TO.N,/EN*%
X229000000Y-120900000D03*
%TO.P,J5,12,Pin_12*%
%TO.N,/VBAT*%
X232500000Y-120900000D03*
%TD*%
D12*
%TO.P,JP39,1,A*%
%TO.N,Net-(PS2-+VO{slash}GND)*%
X139999999Y-118424999D03*
D13*
%TO.P,JP39,2,B*%
%TO.N,VBUS*%
X139999999Y-120964999D03*
%TD*%
D16*
%TO.P,JP34,1,A*%
%TO.N,GND*%
X226449999Y-78067499D03*
%TO.P,JP34,2,B*%
%TO.N,Net-(A1-GND)*%
X226449999Y-79367499D03*
%TD*%
%TO.P,JP23,1,A*%
%TO.N,/USB*%
X218809999Y-110497499D03*
%TO.P,JP23,2,B*%
%TO.N,Net-(A1-USB)*%
X218809999Y-109197499D03*
%TD*%
D17*
%TO.P,R5,1*%
%TO.N,Net-(J4-Pin_2)*%
X136500000Y-82810000D03*
%TO.P,R5,2*%
%TO.N,Net-(U1-IN+)*%
X138500000Y-82810000D03*
%TD*%
D16*
%TO.P,JP9,1,A*%
%TO.N,/MISO*%
X203569999Y-78067499D03*
%TO.P,JP9,2,B*%
%TO.N,Net-(A1-MISO)*%
X203569999Y-79367499D03*
%TD*%
%TO.P,JP6,1,A*%
%TO.N,/D5*%
X213729999Y-110497499D03*
%TO.P,JP6,2,B*%
%TO.N,Net-(A1-D5)*%
X213729999Y-109197499D03*
%TD*%
D18*
%TO.P,JP37,1,A*%
%TO.N,Net-(JP37-A)*%
X182849999Y-114899999D03*
%TO.P,JP37,2,B*%
%TO.N,/INT*%
X184149999Y-114899999D03*
%TD*%
D19*
%TO.P,U6,1,A1*%
%TO.N,Net-(JP29-A)*%
X145475000Y-109405000D03*
%TO.P,U6,2,A0*%
%TO.N,Net-(JP28-A)*%
X145475000Y-108135000D03*
%TO.P,U6,3,SDA*%
%TO.N,/SDA*%
X145475000Y-106865000D03*
%TO.P,U6,4,SCL*%
%TO.N,/SCL*%
X145475000Y-105595000D03*
%TO.P,U6,5,VS*%
%TO.N,VBUS*%
X140525000Y-105595000D03*
%TO.P,U6,6,GND*%
%TO.N,GND*%
X140525000Y-106865000D03*
%TO.P,U6,7,IN-*%
%TO.N,Net-(U6-IN-)*%
X140525000Y-108135000D03*
%TO.P,U6,8,IN+*%
%TO.N,Net-(U6-IN+)*%
X140525000Y-109405000D03*
%TD*%
D20*
%TO.P,C6,1*%
%TO.N,GND*%
X142767500Y-103000000D03*
%TO.P,C6,2*%
%TO.N,VBUS*%
X140692500Y-103000000D03*
%TD*%
D16*
%TO.P,JP14,1,A*%
%TO.N,Net-(A1-A1)*%
X221349999Y-79367499D03*
%TO.P,JP14,2,B*%
%TO.N,/A1*%
X221349999Y-78067499D03*
%TD*%
%TO.P,JP33,1,A*%
%TO.N,/SPARE*%
X195949999Y-78067499D03*
%TO.P,JP33,2,B*%
%TO.N,Net-(A1-SPARE)*%
X195949999Y-79367499D03*
%TD*%
D21*
%TO.P,PS1,1,CTRL*%
%TO.N,Net-(PS1-CTRL)*%
X163839999Y-81339999D03*
D22*
%TO.P,PS1,2,GND*%
%TO.N,GND*%
X163840000Y-88960000D03*
%TO.P,PS1,3,VIN*%
%TO.N,Net-(PS2-VIN)*%
X163840000Y-94040000D03*
%TO.P,PS1,4,+VO*%
%TO.N,+5V*%
X184160000Y-101660000D03*
%TO.P,PS1,5,TRIM*%
%TO.N,unconnected-(PS1-TRIM)*%
X184160000Y-91500000D03*
%TO.P,PS1,6,0V*%
%TO.N,GND1*%
X184160000Y-81340000D03*
%TD*%
D17*
%TO.P,R2,1*%
%TO.N,Net-(J1-Pin_2)*%
X136580000Y-96042500D03*
%TO.P,R2,2*%
%TO.N,Net-(U2-IN+)*%
X138580000Y-96042500D03*
%TD*%
%TO.P,R9,1*%
%TO.N,Net-(J7-Pin_1)*%
X135500000Y-105000000D03*
%TO.P,R9,2*%
%TO.N,Net-(U6-IN-)*%
X137500000Y-105000000D03*
%TD*%
D18*
%TO.P,JP30,1,A*%
%TO.N,Net-(JP30-A)*%
X149999999Y-94999999D03*
%TO.P,JP30,2,B*%
%TO.N,VBUS*%
X151299999Y-94999999D03*
%TD*%
D16*
%TO.P,JP13,1,A*%
%TO.N,Net-(A1-A0)*%
X223889999Y-79367499D03*
%TO.P,JP13,2,B*%
%TO.N,/A0*%
X223889999Y-78067499D03*
%TD*%
D23*
%TO.P,H1,1*%
%TO.N,N/C*%
X236600000Y-69100000D03*
X237302944Y-67402944D03*
X237302944Y-70797056D03*
X239000000Y-66700000D03*
D24*
X239000000Y-69100000D03*
D23*
X239000000Y-71500000D03*
X240697056Y-67402944D03*
X240697056Y-70797056D03*
X241400000Y-69100000D03*
%TD*%
D17*
%TO.P,R8,1*%
%TO.N,Net-(J6-Pin_2)*%
X135500000Y-112500000D03*
%TO.P,R8,2*%
%TO.N,Net-(U6-IN+)*%
X137500000Y-112500000D03*
%TD*%
D23*
%TO.P,H2,1*%
%TO.N,N/C*%
X236600000Y-121000000D03*
X237302944Y-119302944D03*
X237302944Y-122697056D03*
X239000000Y-118600000D03*
D24*
X239000000Y-121000000D03*
D23*
X239000000Y-123400000D03*
X240697056Y-119302944D03*
X240697056Y-122697056D03*
X241400000Y-121000000D03*
%TD*%
D25*
%TO.P,R7,1*%
%TO.N,Net-(J6-Pin_2)*%
X132000000Y-111550000D03*
%TO.P,R7,2*%
%TO.N,Net-(J7-Pin_1)*%
X132000000Y-105450000D03*
%TD*%
D26*
%TO.P,C5,1*%
%TO.N,Net-(U1-IN-)*%
X137500000Y-77962500D03*
%TO.P,C5,2*%
%TO.N,Net-(U1-IN+)*%
X137500000Y-80037500D03*
%TD*%
D25*
%TO.P,R4,1*%
%TO.N,Net-(J4-Pin_2)*%
X132500000Y-82050000D03*
%TO.P,R4,2*%
%TO.N,Net-(PS2-VIN)*%
X132500000Y-75950000D03*
%TD*%
D17*
%TO.P,R3,1*%
%TO.N,Net-(J2-Pin_1)*%
X136580000Y-88422500D03*
%TO.P,R3,2*%
%TO.N,Net-(U2-IN-)*%
X138580000Y-88422500D03*
%TD*%
D18*
%TO.P,JP27,1,A*%
%TO.N,Net-(JP27-A)*%
X150849999Y-78499999D03*
%TO.P,JP27,2,B*%
%TO.N,VBUS*%
X152149999Y-78499999D03*
%TD*%
%TO.P,JP36,1,A*%
%TO.N,Net-(JP36-A)*%
X176649999Y-121499999D03*
%TO.P,JP36,2,B*%
%TO.N,/32KHZ*%
X177949999Y-121499999D03*
%TD*%
D27*
%TO.P,A1,28,VBAT*%
%TO.N,Net-(A1-VBAT)*%
X223890000Y-104767500D03*
%TO.P,A1,27,EN*%
%TO.N,Net-(A1-EN)*%
X221350000Y-104767500D03*
%TO.P,A1,26,USB*%
%TO.N,Net-(A1-USB)*%
X218810000Y-104767500D03*
%TO.P,A1,25,D6*%
%TO.N,Net-(A1-D6)*%
X216270000Y-104767500D03*
%TO.P,A1,24,D5*%
%TO.N,Net-(A1-D5)*%
X213730000Y-104767500D03*
%TO.P,A1,23,D4*%
%TO.N,Net-(A1-D4)*%
X211190000Y-104767500D03*
%TO.P,A1,22,D3*%
%TO.N,Net-(A1-D3)*%
X208650000Y-104767500D03*
%TO.P,A1,21,D2*%
%TO.N,Net-(A1-D2)*%
X206110000Y-104767500D03*
%TO.P,A1,20,D1*%
%TO.N,Net-(A1-D1)*%
X203570000Y-104767500D03*
%TO.P,A1,19,D0*%
%TO.N,Net-(A1-D0)*%
X201030000Y-104767500D03*
%TO.P,A1,18,SCL*%
%TO.N,Net-(A1-SCL)*%
X198490000Y-104767500D03*
%TO.P,A1,17,SDA*%
%TO.N,Net-(A1-SDA)*%
X195950000Y-104767500D03*
%TO.P,A1,16,SPARE*%
%TO.N,Net-(A1-SPARE)*%
X195950000Y-84447500D03*
%TO.P,A1,15,TX*%
%TO.N,Net-(A1-TX)*%
X198490000Y-84447500D03*
%TO.P,A1,14,RX*%
%TO.N,Net-(A1-RX)*%
X201030000Y-84447500D03*
%TO.P,A1,13,MISO*%
%TO.N,Net-(A1-MISO)*%
X203570000Y-84447500D03*
%TO.P,A1,12,MOSI*%
%TO.N,Net-(A1-MOSI)*%
X206110000Y-84447500D03*
%TO.P,A1,11,SCK*%
%TO.N,Net-(A1-SCK)*%
X208650000Y-84447500D03*
%TO.P,A1,10,A5*%
%TO.N,Net-(A1-A5)*%
X211190000Y-84447500D03*
%TO.P,A1,9,A4*%
%TO.N,Net-(A1-A4)*%
X213730000Y-84447500D03*
%TO.P,A1,8,A3*%
%TO.N,Net-(A1-A3)*%
X216270000Y-84447500D03*
%TO.P,A1,7,A2*%
%TO.N,Net-(A1-A2)*%
X218810000Y-84447500D03*
%TO.P,A1,6,A1*%
%TO.N,Net-(A1-A1)*%
X221350000Y-84447500D03*
%TO.P,A1,5,A0*%
%TO.N,Net-(A1-A0)*%
X223890000Y-84447500D03*
%TO.P,A1,4,GND*%
%TO.N,Net-(A1-GND)*%
X226430000Y-84447500D03*
%TO.P,A1,3,AREF*%
%TO.N,Net-(A1-AREF)*%
X228970000Y-84447500D03*
%TO.P,A1,2,3V3*%
%TO.N,Net-(A1-3V3)*%
X231510000Y-84447500D03*
D28*
%TO.P,A1,1,~{RESET}*%
%TO.N,Net-(A1-~{RESET})*%
X234049999Y-84447499D03*
%TD*%
D16*
%TO.P,JP3,1,A*%
%TO.N,/D2*%
X206109999Y-110497499D03*
%TO.P,JP3,2,B*%
%TO.N,Net-(A1-D2)*%
X206109999Y-109197499D03*
%TD*%
D18*
%TO.P,JP28,1,A*%
%TO.N,Net-(JP28-A)*%
X148499999Y-107499999D03*
%TO.P,JP28,2,B*%
%TO.N,GND*%
X149799999Y-107499999D03*
%TD*%
D29*
%TO.P,PS2,1,VIN*%
%TO.N,Net-(PS2-VIN)*%
X153039999Y-116874999D03*
D30*
%TO.P,PS2,2,GND/-VO*%
%TO.N,GND*%
X150500000Y-116875000D03*
%TO.P,PS2,3,+VO/GND*%
%TO.N,Net-(PS2-+VO{slash}GND)*%
X147960000Y-116875000D03*
%TD*%
D16*
%TO.P,JP19,1,A*%
%TO.N,/SCL*%
X198489999Y-110497499D03*
%TO.P,JP19,2,B*%
%TO.N,Net-(A1-SCL)*%
X198489999Y-109197499D03*
%TD*%
%TO.P,JP35,1,A*%
%TO.N,/EN*%
X228899999Y-113199999D03*
%TO.P,JP35,2,B*%
%TO.N,/NINT*%
X228899999Y-111899999D03*
%TD*%
%TO.P,JP4,1,A*%
%TO.N,/D3*%
X208649999Y-110497499D03*
%TO.P,JP4,2,B*%
%TO.N,Net-(A1-D3)*%
X208649999Y-109197499D03*
%TD*%
%TO.P,JP7,1,A*%
%TO.N,/SCK*%
X208649999Y-78067499D03*
%TO.P,JP7,2,B*%
%TO.N,Net-(A1-SCK)*%
X208649999Y-79367499D03*
%TD*%
%TO.P,JP25,1,A*%
%TO.N,/3V3*%
X231509999Y-78067499D03*
%TO.P,JP25,2,B*%
%TO.N,Net-(A1-3V3)*%
X231509999Y-79367499D03*
%TD*%
D31*
%TO.P,U4,1,NC*%
%TO.N,unconnected-(U4-NC)*%
X187449999Y-113949999D03*
%TO.P,U4,2*%
%TO.N,/INT*%
X187449999Y-114899999D03*
%TO.P,U4,3,GND*%
%TO.N,GND*%
X187449999Y-115849999D03*
%TO.P,U4,4*%
%TO.N,/NINT*%
X190149999Y-115849999D03*
%TO.P,U4,5,VCC*%
%TO.N,VBUS*%
X190149999Y-113949999D03*
%TD*%
D26*
%TO.P,C1,1*%
%TO.N,Net-(U2-IN-)*%
X137580000Y-91195000D03*
%TO.P,C1,2*%
%TO.N,Net-(U2-IN+)*%
X137580000Y-93270000D03*
%TD*%
%TO.P,C3,1*%
%TO.N,VBUS*%
X183240000Y-118162500D03*
%TO.P,C3,2*%
%TO.N,GND*%
X183240000Y-120237500D03*
%TD*%
D16*
%TO.P,JP22,1,A*%
%TO.N,Net-(A1-~{RESET})*%
X234049999Y-79367499D03*
%TO.P,JP22,2,B*%
%TO.N,/RESET*%
X234049999Y-78067499D03*
%TD*%
%TO.P,JP18,1,A*%
%TO.N,/SDA*%
X195949999Y-110497499D03*
%TO.P,JP18,2,B*%
%TO.N,Net-(A1-SDA)*%
X195949999Y-109197499D03*
%TD*%
%TO.P,JP15,1,A*%
%TO.N,Net-(A1-A2)*%
X218809999Y-79367499D03*
%TO.P,JP15,2,B*%
%TO.N,/A2*%
X218809999Y-78067499D03*
%TD*%
%TO.P,JP11,1,A*%
%TO.N,Net-(A1-A4)*%
X213729999Y-79367499D03*
%TO.P,JP11,2,B*%
%TO.N,/A4*%
X213729999Y-78067499D03*
%TD*%
D18*
%TO.P,JP26,1,A*%
%TO.N,Net-(JP26-A)*%
X150849999Y-81499999D03*
%TO.P,JP26,2,B*%
%TO.N,VBUS*%
X152149999Y-81499999D03*
%TD*%
D16*
%TO.P,JP20,1,A*%
%TO.N,Net-(A1-EN)*%
X221349999Y-109197499D03*
%TO.P,JP20,2,B*%
%TO.N,/EN*%
X221349999Y-110497499D03*
%TD*%
D18*
%TO.P,JP31,1,A*%
%TO.N,Net-(JP31-A)*%
X149999999Y-91999999D03*
%TO.P,JP31,2,B*%
%TO.N,GND*%
X151299999Y-91999999D03*
%TD*%
D26*
%TO.P,C2,1*%
%TO.N,Net-(U6-IN-)*%
X135810000Y-107462500D03*
%TO.P,C2,2*%
%TO.N,Net-(U6-IN+)*%
X135810000Y-109537500D03*
%TD*%
D16*
%TO.P,JP10,1,A*%
%TO.N,Net-(A1-A3)*%
X216269999Y-79367499D03*
%TO.P,JP10,2,B*%
%TO.N,/A3*%
X216269999Y-78067499D03*
%TD*%
D20*
%TO.P,C4,1*%
%TO.N,GND*%
X144037500Y-87500000D03*
%TO.P,C4,2*%
%TO.N,VBUS*%
X141962500Y-87500000D03*
%TD*%
D16*
%TO.P,JP24,1,A*%
%TO.N,Net-(A1-VBAT)*%
X223889999Y-109197499D03*
%TO.P,JP24,2,B*%
%TO.N,/VBAT*%
X223889999Y-110497499D03*
%TD*%
D32*
%TO.P,C7,1*%
%TO.N,GND*%
X187962500Y-111700000D03*
%TO.P,C7,2*%
%TO.N,VBUS*%
X190037500Y-111700000D03*
%TD*%
D16*
%TO.P,JP12,1,A*%
%TO.N,Net-(A1-A5)*%
X211189999Y-79367499D03*
%TO.P,JP12,2,B*%
%TO.N,/A5*%
X211189999Y-78067499D03*
%TD*%
%TO.P,JP32,1,A*%
%TO.N,/D6*%
X216449999Y-110497499D03*
%TO.P,JP32,2,B*%
%TO.N,Net-(A1-D6)*%
X216449999Y-109197499D03*
%TD*%
%TO.P,JP5,1,A*%
%TO.N,/D4*%
X211189999Y-110497499D03*
%TO.P,JP5,2,B*%
%TO.N,Net-(A1-D4)*%
X211189999Y-109197499D03*
%TD*%
D25*
%TO.P,R1,1*%
%TO.N,Net-(J1-Pin_2)*%
X132500000Y-95050000D03*
%TO.P,R1,2*%
%TO.N,Net-(J2-Pin_1)*%
X132500000Y-88950000D03*
%TD*%
D16*
%TO.P,JP1,1,A*%
%TO.N,/D0*%
X201029999Y-110497499D03*
%TO.P,JP1,2,B*%
%TO.N,Net-(A1-D0)*%
X201029999Y-109197499D03*
%TD*%
D19*
%TO.P,U1,1,A1*%
%TO.N,Net-(JP26-A)*%
X147475000Y-80405000D03*
%TO.P,U1,2,A0*%
%TO.N,Net-(JP27-A)*%
X147475000Y-79135000D03*
%TO.P,U1,3,SDA*%
%TO.N,/SDA*%
X147475000Y-77865000D03*
%TO.P,U1,4,SCL*%
%TO.N,/SCL*%
X147475000Y-76595000D03*
%TO.P,U1,5,VS*%
%TO.N,VBUS*%
X142525000Y-76595000D03*
%TO.P,U1,6,GND*%
%TO.N,GND*%
X142525000Y-77865000D03*
%TO.P,U1,7,IN-*%
%TO.N,Net-(U1-IN-)*%
X142525000Y-79135000D03*
%TO.P,U1,8,IN+*%
%TO.N,Net-(U1-IN+)*%
X142525000Y-80405000D03*
%TD*%
D16*
%TO.P,JP8,1,A*%
%TO.N,/MOSI*%
X206109999Y-78067499D03*
%TO.P,JP8,2,B*%
%TO.N,Net-(A1-MOSI)*%
X206109999Y-79367499D03*
%TD*%
D26*
%TO.P,C1,1*%
%TO.N,VBUS*%
X180740000Y-118162500D03*
%TO.P,C1,2*%
%TO.N,GND*%
X180740000Y-120237500D03*
%TD*%
D19*
%TO.P,U2,1,A1*%
%TO.N,Net-(JP30-A)*%
X146975000Y-93905000D03*
%TO.P,U2,2,A0*%
%TO.N,Net-(JP31-A)*%
X146975000Y-92635000D03*
%TO.P,U2,3,SDA*%
%TO.N,/SDA*%
X146975000Y-91365000D03*
%TO.P,U2,4,SCL*%
%TO.N,/SCL*%
X146975000Y-90095000D03*
%TO.P,U2,5,VS*%
%TO.N,VBUS*%
X142025000Y-90095000D03*
%TO.P,U2,6,GND*%
%TO.N,GND*%
X142025000Y-91365000D03*
%TO.P,U2,7,IN-*%
%TO.N,Net-(U2-IN-)*%
X142025000Y-92635000D03*
%TO.P,U2,8,IN+*%
%TO.N,Net-(U2-IN+)*%
X142025000Y-93905000D03*
%TD*%
D23*
%TO.P,H3,1*%
%TO.N,N/C*%
X121600000Y-121000000D03*
X122302944Y-119302944D03*
X122302944Y-122697056D03*
X124000000Y-118600000D03*
D24*
X124000000Y-121000000D03*
D23*
X124000000Y-123400000D03*
X125697056Y-119302944D03*
X125697056Y-122697056D03*
X126400000Y-121000000D03*
%TD*%
D20*
%TO.P,C8,1*%
%TO.N,GND*%
X144537500Y-74000000D03*
%TO.P,C8,2*%
%TO.N,VBUS*%
X142462500Y-74000000D03*
%TD*%
D33*
%TO.P,R11,1*%
%TO.N,/SDA*%
X163740000Y-117200000D03*
%TO.P,R11,2*%
%TO.N,VBUS*%
X161740000Y-117200000D03*
%TD*%
D34*
%TO.P,U3,1,32KHZ*%
%TO.N,Net-(JP36-A)*%
X176650000Y-119445000D03*
%TO.P,U3,2,VCC*%
%TO.N,VBUS*%
X176650000Y-118175000D03*
%TO.P,U3,3,~{INT}/SQW*%
%TO.N,Net-(JP37-A)*%
X176650000Y-116905000D03*
%TO.P,U3,4,~{RST}*%
%TO.N,unconnected-(U3-~{RST})*%
X176650000Y-115635000D03*
%TO.P,U3,5,GND*%
%TO.N,GND*%
X176650000Y-114365000D03*
%TO.P,U3,6,GND*%
X176650000Y-113095000D03*
%TO.P,U3,7,GND*%
X176650000Y-111825000D03*
%TO.P,U3,8,GND*%
X176650000Y-110555000D03*
%TO.P,U3,9,GND*%
X167350000Y-110555000D03*
%TO.P,U3,10,GND*%
X167350000Y-111825000D03*
%TO.P,U3,11,GND*%
X167350000Y-113095000D03*
%TO.P,U3,12,GND*%
X167350000Y-114365000D03*
%TO.P,U3,13,GND*%
X167350000Y-115635000D03*
%TO.P,U3,14,VBAT*%
%TO.N,Net-(BT1-+)*%
X167350000Y-116905000D03*
%TO.P,U3,15,SDA*%
%TO.N,/SDA*%
X167350000Y-118175000D03*
%TO.P,U3,16,SCL*%
%TO.N,/SCL*%
X167350000Y-119445000D03*
%TD*%
D18*
%TO.P,JP29,1,A*%
%TO.N,Net-(JP29-A)*%
X148349999Y-110499999D03*
%TO.P,JP29,2,B*%
%TO.N,GND*%
X149649999Y-110499999D03*
%TD*%
D35*
%TO.P,JP38,1,A*%
%TO.N,/EN*%
X232200000Y-113150000D03*
D36*
%TO.P,JP38,2,B*%
%TO.N,/INT*%
X232200000Y-111850000D03*
%TD*%
D16*
%TO.P,JP17,1,A*%
%TO.N,/TX*%
X198489999Y-78067499D03*
%TO.P,JP17,2,B*%
%TO.N,Net-(A1-TX)*%
X198489999Y-79367499D03*
%TD*%
D33*
%TO.P,R10,1*%
%TO.N,/SCL*%
X163740000Y-120200000D03*
%TO.P,R10,2*%
%TO.N,VBUS*%
X161740000Y-120200000D03*
%TD*%
D23*
%TO.P,H4,1*%
%TO.N,N/C*%
X121600000Y-69000000D03*
X122302944Y-67302944D03*
X122302944Y-70697056D03*
X124000000Y-66600000D03*
D24*
X124000000Y-69000000D03*
D23*
X124000000Y-71400000D03*
X125697056Y-67302944D03*
X125697056Y-70697056D03*
X126400000Y-69000000D03*
%TD*%
D16*
%TO.P,JP16,1,A*%
%TO.N,/RX*%
X201029999Y-78067499D03*
%TO.P,JP16,2,B*%
%TO.N,Net-(A1-RX)*%
X201029999Y-79367499D03*
%TD*%
D17*
%TO.P,R6,1*%
%TO.N,Net-(PS2-VIN)*%
X136500000Y-75190000D03*
%TO.P,R6,2*%
%TO.N,Net-(U1-IN-)*%
X138500000Y-75190000D03*
%TD*%
D16*
%TO.P,JP2,1,A*%
%TO.N,/D1*%
X203569999Y-110497499D03*
%TO.P,JP2,2,B*%
%TO.N,Net-(A1-D1)*%
X203569999Y-109197499D03*
%TD*%
%TO.P,JP21,1,A*%
%TO.N,Net-(A1-AREF)*%
X228969999Y-79367499D03*
%TO.P,JP21,2,B*%
%TO.N,/AREF*%
X228969999Y-78067499D03*
%TD*%
D37*
%TO.N,/NINT*%
X195700000Y-98700000D03*
X195700000Y-101800000D03*
%TO.N,GND*%
X186300000Y-111700000D03*
%TO.N,/SDA*%
X161650000Y-115550000D03*
%TO.N,Net-(BT1-+)*%
X165000000Y-114800000D03*
%TO.N,GND*%
X187700000Y-117100000D03*
X176700000Y-109400000D03*
X169200000Y-113100000D03*
X169200000Y-110500000D03*
X181000000Y-110400000D03*
X183300000Y-121500000D03*
X152800000Y-92000000D03*
X143100000Y-101100000D03*
X146600000Y-74000000D03*
X169200000Y-111800000D03*
X180700000Y-121500000D03*
X179300000Y-110300000D03*
X151300000Y-107400000D03*
X144900000Y-86200000D03*
X181600000Y-111700000D03*
X151100000Y-109500000D03*
%TO.N,VBUS*%
X155000000Y-77500000D03*
X153900000Y-76400000D03*
%TO.N,/SCL*%
X156600000Y-113100000D03*
X163700000Y-122100000D03*
X149700000Y-74800000D03*
X158500000Y-103100000D03*
X152900000Y-87800000D03*
X158500000Y-87900000D03*
X153200000Y-103100000D03*
X153100000Y-71400000D03*
%TO.N,/SDA*%
X150800000Y-75900000D03*
X153200000Y-104800000D03*
X152900000Y-89500000D03*
X156600000Y-89600000D03*
X156600000Y-111000000D03*
X156600000Y-104800000D03*
X153100000Y-73600000D03*
%TO.N,/EN*%
X228900000Y-114700000D03*
%TD*%
D38*
%TO.N,/NINT*%
X195700000Y-88200000D02*
X195700000Y-98700000D01*
X186100000Y-78600000D02*
X189300000Y-81800000D01*
X184555000Y-78600000D02*
X185000000Y-78600000D01*
X181255000Y-75300000D02*
X184555000Y-78600000D01*
X189300000Y-81800000D02*
X195700000Y-88200000D01*
X185000000Y-78600000D02*
X186100000Y-78600000D01*
X195600000Y-101800000D02*
X195700000Y-101800000D01*
X195700000Y-101800000D02*
X225000000Y-101800000D01*
%TO.N,/INT*%
X187450000Y-114900000D02*
X191400000Y-114900000D01*
X191400000Y-114900000D02*
X191800000Y-114500000D01*
X191800000Y-114500000D02*
X191800000Y-103100000D01*
X191800000Y-103100000D02*
X194600000Y-100300000D01*
X194600000Y-100300000D02*
X226800000Y-100300000D01*
X226800000Y-100300000D02*
X232200000Y-105700000D01*
X232200000Y-105700000D02*
X232200000Y-111850000D01*
%TO.N,/NINT*%
X190150000Y-115850000D02*
X192150000Y-115850000D01*
X192150000Y-115850000D02*
X193100000Y-114900000D01*
X193100000Y-114900000D02*
X193100000Y-104300000D01*
X193100000Y-104300000D02*
X195600000Y-101800000D01*
X225000000Y-101800000D02*
X228900000Y-105700000D01*
X228900000Y-105700000D02*
X228900000Y-111900000D01*
%TO.N,Net-(PS1-CTRL)*%
X178715000Y-75300000D02*
X178715000Y-91515000D01*
X182200000Y-104600000D02*
X168800000Y-91200000D01*
X178715000Y-91515000D02*
X186800000Y-99600000D01*
X163840000Y-83940000D02*
X163840000Y-81340000D01*
X186800000Y-99600000D02*
X186800000Y-102800000D01*
X168800000Y-88900000D02*
X163840000Y-83940000D01*
X186800000Y-102800000D02*
X185000000Y-104600000D01*
X185000000Y-104600000D02*
X182200000Y-104600000D01*
X168800000Y-91200000D02*
X168800000Y-88900000D01*
%TO.N,/A5*%
X201000000Y-69100000D02*
X198200000Y-66300000D01*
X178400000Y-66300000D02*
X176175000Y-68525000D01*
X198200000Y-66300000D02*
X178400000Y-66300000D01*
X176175000Y-68525000D02*
X176175000Y-75300000D01*
%TO.N,GND*%
X187962500Y-111700000D02*
X186300000Y-111700000D01*
%TO.N,VBUS*%
X190037500Y-111700000D02*
X190037500Y-109137500D01*
X190037500Y-109137500D02*
X187800000Y-106900000D01*
%TO.N,/SDA*%
X163740000Y-116240000D02*
X163000000Y-115500000D01*
X163740000Y-117200000D02*
X163740000Y-116240000D01*
X161700000Y-115500000D02*
X161650000Y-115550000D01*
X163000000Y-115500000D02*
X161700000Y-115500000D01*
%TO.N,VBUS*%
X141565000Y-119400000D02*
X140000000Y-120965000D01*
X155100000Y-119400000D02*
X141565000Y-119400000D01*
X167600000Y-106900000D02*
X155100000Y-119400000D01*
X187800000Y-106900000D02*
X167600000Y-106900000D01*
X183240000Y-118162500D02*
X185662500Y-118162500D01*
X186800000Y-119300000D02*
X186800000Y-121700000D01*
X185662500Y-118162500D02*
X186800000Y-119300000D01*
X183800000Y-122900000D02*
X183796800Y-122903200D01*
X186800000Y-121700000D02*
X185600000Y-122900000D01*
X185600000Y-122900000D02*
X183800000Y-122900000D01*
X183796800Y-122903200D02*
X141938200Y-122903200D01*
X141938200Y-122903200D02*
X140000000Y-120965000D01*
X161740000Y-120200000D02*
X157000000Y-120200000D01*
X156235000Y-120965000D02*
X140000000Y-120965000D01*
X157000000Y-120200000D02*
X156235000Y-120965000D01*
D39*
X148700000Y-114300000D02*
X155000000Y-108000000D01*
X139000000Y-114300000D02*
X148700000Y-114300000D01*
X136100000Y-117200000D02*
X139000000Y-114300000D01*
X137665000Y-120965000D02*
X136100000Y-119400000D01*
X136100000Y-119400000D02*
X136100000Y-117200000D01*
X155000000Y-108000000D02*
X155000000Y-99900000D01*
X140000000Y-120965000D02*
X137665000Y-120965000D01*
%TO.N,Net-(PS2-+VO{slash}GND)*%
X147960000Y-116875000D02*
X141550000Y-116875000D01*
X141550000Y-116875000D02*
X140000000Y-118425000D01*
D40*
%TO.N,GND*%
X226450000Y-74650000D02*
X226450000Y-78067500D01*
D41*
%TO.N,Net-(A1-GND)*%
X226450000Y-79367500D02*
X226450000Y-84427500D01*
%TO.N,/USB*%
X218810000Y-113210000D02*
X225500000Y-119900000D01*
X218810000Y-110497500D02*
X218810000Y-113210000D01*
D38*
%TO.N,Net-(A1-USB)*%
X218810000Y-109197500D02*
X218810000Y-104767500D01*
%TO.N,Net-(A1-~{RESET})*%
X234050000Y-79367500D02*
X234050000Y-84447500D01*
%TO.N,Net-(A1-3V3)*%
X231510000Y-79367500D02*
X231510000Y-84447500D01*
%TO.N,Net-(A1-AREF)*%
X228970000Y-79367500D02*
X228970000Y-84447500D01*
%TO.N,Net-(A1-A0)*%
X223890000Y-79367500D02*
X223890000Y-84447500D01*
%TO.N,Net-(A1-A1)*%
X221350000Y-79367500D02*
X221350000Y-84447500D01*
%TO.N,Net-(A1-A2)*%
X218810000Y-79367500D02*
X218810000Y-84447500D01*
%TO.N,Net-(A1-A3)*%
X216270000Y-79367500D02*
X216270000Y-84447500D01*
%TO.N,Net-(A1-A4)*%
X213730000Y-79367500D02*
X213730000Y-84447500D01*
%TO.N,Net-(A1-A5)*%
X211190000Y-79367500D02*
X211190000Y-84447500D01*
%TO.N,Net-(A1-SCK)*%
X208650000Y-79367500D02*
X208650000Y-84447500D01*
%TO.N,Net-(A1-MOSI)*%
X206110000Y-79367500D02*
X206110000Y-84447500D01*
%TO.N,Net-(A1-MISO)*%
X203570000Y-79367500D02*
X203570000Y-84447500D01*
%TO.N,Net-(A1-RX)*%
X201030000Y-84447500D02*
X201030000Y-79367500D01*
%TO.N,Net-(A1-TX)*%
X198490000Y-79367500D02*
X198490000Y-84447500D01*
%TO.N,Net-(A1-SDA)*%
X195950000Y-109197500D02*
X195950000Y-104767500D01*
%TO.N,Net-(A1-SCL)*%
X198490000Y-109197500D02*
X198490000Y-104767500D01*
%TO.N,Net-(A1-D0)*%
X201030000Y-109197500D02*
X201030000Y-104767500D01*
%TO.N,Net-(A1-D1)*%
X203570000Y-109197500D02*
X203570000Y-104767500D01*
%TO.N,Net-(A1-D2)*%
X206110000Y-109197500D02*
X206110000Y-104767500D01*
%TO.N,Net-(A1-D3)*%
X208650000Y-104767500D02*
X208650000Y-109197500D01*
%TO.N,Net-(A1-D4)*%
X211190000Y-109197500D02*
X211190000Y-104767500D01*
%TO.N,Net-(A1-D5)*%
X213730000Y-104767500D02*
X213730000Y-109197500D01*
%TO.N,Net-(A1-EN)*%
X221350000Y-109197500D02*
X221350000Y-104767500D01*
%TO.N,Net-(A1-VBAT)*%
X223890000Y-109197500D02*
X223890000Y-104767500D01*
D41*
%TO.N,Net-(BT1-+)*%
X165000000Y-116100000D02*
X165000000Y-114800000D01*
X167350000Y-116905000D02*
X165805000Y-116905000D01*
X165805000Y-116905000D02*
X165400000Y-116500000D01*
X165400000Y-116500000D02*
X165000000Y-116100000D01*
%TO.N,Net-(A1-GND)*%
X226450000Y-84427500D02*
X226430000Y-84447500D01*
%TO.N,Net-(A1-SPARE)*%
X195950000Y-79367500D02*
X195950000Y-84447500D01*
%TO.N,Net-(A1-D6)*%
X216270000Y-109017500D02*
X216450000Y-109197500D01*
X216270000Y-104767500D02*
X216270000Y-109017500D01*
D38*
%TO.N,Net-(U1-IN-)*%
X137500000Y-76190000D02*
X138500000Y-75190000D01*
X142525000Y-79135000D02*
X141135000Y-79135000D01*
X141135000Y-79135000D02*
X139500000Y-77500000D01*
X138690000Y-75190000D02*
X138500000Y-75190000D01*
X139500000Y-77500000D02*
X139500000Y-76000000D01*
X137500000Y-77962500D02*
X137500000Y-76190000D01*
X139500000Y-76000000D02*
X138690000Y-75190000D01*
%TO.N,Net-(U1-IN+)*%
X137500000Y-80037500D02*
X137500000Y-81810000D01*
X137500000Y-81810000D02*
X138500000Y-82810000D01*
X142525000Y-80405000D02*
X140905000Y-80405000D01*
X140905000Y-80405000D02*
X138500000Y-82810000D01*
%TO.N,GND*%
X167350000Y-111825000D02*
X169175000Y-111825000D01*
X178305000Y-113095000D02*
X181000000Y-110400000D01*
X167350000Y-114365000D02*
X167350000Y-113095000D01*
D40*
X222000000Y-69100000D02*
X222000000Y-70200000D01*
D38*
X143835000Y-77865000D02*
X144537500Y-77162500D01*
X149800000Y-107500000D02*
X151200000Y-107500000D01*
X149650000Y-110500000D02*
X150100000Y-110500000D01*
X180740000Y-120237500D02*
X180740000Y-121460000D01*
X167350000Y-113095000D02*
X169195000Y-113095000D01*
X169175000Y-111825000D02*
X169200000Y-111800000D01*
X167350000Y-110555000D02*
X169145000Y-110555000D01*
X144037500Y-87500000D02*
X144037500Y-87062500D01*
X176650000Y-111825000D02*
X177775000Y-111825000D01*
X142035000Y-106865000D02*
X142767500Y-106132500D01*
X169195000Y-113095000D02*
X169200000Y-113100000D01*
X140525000Y-106865000D02*
X142035000Y-106865000D01*
X151200000Y-107500000D02*
X151300000Y-107400000D01*
X150100000Y-110500000D02*
X151100000Y-109500000D01*
X167350000Y-115635000D02*
X167350000Y-114365000D01*
X176650000Y-110555000D02*
X176650000Y-109450000D01*
X176650000Y-109450000D02*
X176700000Y-109400000D01*
X142525000Y-77865000D02*
X143835000Y-77865000D01*
X144537500Y-77162500D02*
X144537500Y-74000000D01*
X176650000Y-114365000D02*
X178935000Y-114365000D01*
X180740000Y-121460000D02*
X180700000Y-121500000D01*
X144537500Y-74000000D02*
X146600000Y-74000000D01*
X187450000Y-115850000D02*
X187450000Y-116850000D01*
X178935000Y-114365000D02*
X181600000Y-111700000D01*
X183240000Y-120237500D02*
X183240000Y-121440000D01*
X142767500Y-103000000D02*
X142767500Y-101432500D01*
X177775000Y-111825000D02*
X179300000Y-110300000D01*
X151300000Y-92000000D02*
X152800000Y-92000000D01*
X187450000Y-116850000D02*
X187700000Y-117100000D01*
X142767500Y-106132500D02*
X142767500Y-103000000D01*
X144200000Y-87662500D02*
X144037500Y-87500000D01*
X176650000Y-113095000D02*
X178305000Y-113095000D01*
D40*
X222000000Y-70200000D02*
X226450000Y-74650000D01*
D38*
X144037500Y-87062500D02*
X144900000Y-86200000D01*
X169145000Y-110555000D02*
X169200000Y-110500000D01*
X142025000Y-91365000D02*
X143435000Y-91365000D01*
X144200000Y-90600000D02*
X144200000Y-87662500D01*
X183240000Y-121440000D02*
X183300000Y-121500000D01*
X143435000Y-91365000D02*
X144200000Y-90600000D01*
X142767500Y-101432500D02*
X143100000Y-101100000D01*
%TO.N,/INT*%
X184150000Y-114900000D02*
X187700000Y-114900000D01*
%TO.N,Net-(JP36-A)*%
X176650000Y-121500000D02*
X176650000Y-119445000D01*
%TO.N,Net-(U2-IN-)*%
X137580000Y-91195000D02*
X137580000Y-89422500D01*
X142025000Y-92635000D02*
X141135000Y-92635000D01*
X138580000Y-90080000D02*
X138580000Y-88422500D01*
X141135000Y-92635000D02*
X138580000Y-90080000D01*
X137580000Y-89422500D02*
X138580000Y-88422500D01*
%TO.N,Net-(U2-IN+)*%
X142025000Y-93905000D02*
X141095000Y-93905000D01*
X141095000Y-93905000D02*
X138957500Y-96042500D01*
X138957500Y-96042500D02*
X138580000Y-96042500D01*
X137580000Y-93270000D02*
X137580000Y-95042500D01*
X137580000Y-95042500D02*
X138580000Y-96042500D01*
D42*
%TO.N,+5V*%
X171500000Y-71500000D02*
X169000000Y-69000000D01*
X171500000Y-89000000D02*
X171500000Y-71500000D01*
X184160000Y-101660000D02*
X171500000Y-89000000D01*
D39*
%TO.N,VBUS*%
X155000000Y-99900000D02*
X155000000Y-94700000D01*
D38*
X151300000Y-95000000D02*
X154700000Y-95000000D01*
X152150000Y-81500000D02*
X155000000Y-81500000D01*
X140692500Y-101307500D02*
X142500000Y-99500000D01*
X141962500Y-90032500D02*
X142025000Y-90095000D01*
D39*
X155000000Y-81500000D02*
X155000000Y-77500000D01*
D38*
X183240000Y-118162500D02*
X180740000Y-118162500D01*
X142462500Y-74000000D02*
X142462500Y-76532500D01*
X142462500Y-71037500D02*
X142500000Y-71000000D01*
X180740000Y-118162500D02*
X176662500Y-118162500D01*
D39*
X155000000Y-77500000D02*
X153900000Y-76400000D01*
X153000000Y-75500000D02*
X151000000Y-73500000D01*
D38*
X143000000Y-85000000D02*
X155000000Y-85000000D01*
X141962500Y-87500000D02*
X141962500Y-90032500D01*
X142462500Y-74000000D02*
X142462500Y-71037500D01*
D39*
X155000000Y-85000000D02*
X155000000Y-81500000D01*
X151000000Y-73500000D02*
X150500000Y-73000000D01*
D38*
X140692500Y-105427500D02*
X140525000Y-105595000D01*
D39*
X155000000Y-94700000D02*
X155000000Y-85000000D01*
D38*
X142462500Y-76532500D02*
X142525000Y-76595000D01*
X152150000Y-78500000D02*
X154000000Y-78500000D01*
X140692500Y-103000000D02*
X140692500Y-105427500D01*
X154600000Y-99500000D02*
X155000000Y-99900000D01*
X142500000Y-99500000D02*
X154600000Y-99500000D01*
X161740000Y-117200000D02*
X161740000Y-120200000D01*
X154700000Y-95000000D02*
X155000000Y-94700000D01*
X141962500Y-86037500D02*
X143000000Y-85000000D01*
D39*
X148500000Y-71000000D02*
X142500000Y-71000000D01*
D38*
X154000000Y-78500000D02*
X155000000Y-77500000D01*
D39*
X153900000Y-76400000D02*
X153000000Y-75500000D01*
D38*
X141962500Y-87500000D02*
X141962500Y-86037500D01*
X190150000Y-112012500D02*
X190262500Y-111900000D01*
X140692500Y-103000000D02*
X140692500Y-101307500D01*
X190150000Y-113950000D02*
X190150000Y-112012500D01*
D39*
X151000000Y-73500000D02*
X148500000Y-71000000D01*
D38*
X176662500Y-118162500D02*
X176650000Y-118175000D01*
D41*
%TO.N,/D0*%
X201030000Y-119870000D02*
X201000000Y-119900000D01*
X201030000Y-110497500D02*
X201030000Y-119870000D01*
D39*
%TO.N,Net-(J2-Pin_1)*%
X124500000Y-86750000D02*
X130300000Y-86750000D01*
X136580000Y-88422500D02*
X133027500Y-88422500D01*
X133027500Y-88422500D02*
X132500000Y-88950000D01*
X130300000Y-86750000D02*
X132500000Y-88950000D01*
%TO.N,Net-(PS2-VIN)*%
X160400000Y-92400000D02*
X160400000Y-75500000D01*
X153400000Y-68500000D02*
X141500000Y-68500000D01*
X153040000Y-116875000D02*
X155625000Y-116875000D01*
X136500000Y-73500000D02*
X136500000Y-75190000D01*
X155625000Y-116875000D02*
X163840000Y-108660000D01*
X135740000Y-75950000D02*
X136500000Y-75190000D01*
X141500000Y-68500000D02*
X136500000Y-73500000D01*
X163840000Y-94040000D02*
X162040000Y-94040000D01*
X132500000Y-75950000D02*
X135740000Y-75950000D01*
X160400000Y-75500000D02*
X153400000Y-68500000D01*
X162040000Y-94040000D02*
X160400000Y-92400000D01*
X163840000Y-108660000D02*
X163840000Y-94040000D01*
%TO.N,Net-(J1-Pin_2)*%
X124500000Y-97160000D02*
X130390000Y-97160000D01*
X136580000Y-96042500D02*
X133492500Y-96042500D01*
X133492500Y-96042500D02*
X132500000Y-95050000D01*
X130390000Y-97160000D02*
X132500000Y-95050000D01*
D38*
%TO.N,Net-(U6-IN-)*%
X140525000Y-108135000D02*
X139635000Y-108135000D01*
X135810000Y-106690000D02*
X137500000Y-105000000D01*
X137500000Y-106000000D02*
X137500000Y-105000000D01*
X135810000Y-107462500D02*
X135810000Y-106690000D01*
X139635000Y-108135000D02*
X137500000Y-106000000D01*
%TO.N,Net-(U6-IN+)*%
X140525000Y-109405000D02*
X139595000Y-109405000D01*
X137500000Y-111500000D02*
X137500000Y-112500000D01*
X135810000Y-109537500D02*
X135810000Y-110810000D01*
X139595000Y-109405000D02*
X137500000Y-111500000D01*
X135810000Y-110810000D02*
X137500000Y-112500000D01*
D41*
%TO.N,/D1*%
X203570000Y-110497500D02*
X203570000Y-118970000D01*
X203570000Y-118970000D02*
X204500000Y-119900000D01*
D39*
%TO.N,Net-(J6-Pin_2)*%
X135500000Y-112500000D02*
X132950000Y-112500000D01*
X132950000Y-112500000D02*
X132000000Y-111550000D01*
X124500000Y-114000000D02*
X129550000Y-114000000D01*
X129550000Y-114000000D02*
X132000000Y-111550000D01*
%TO.N,Net-(J7-Pin_1)*%
X124500000Y-103500000D02*
X130050000Y-103500000D01*
X130050000Y-103500000D02*
X132000000Y-105450000D01*
X132450000Y-105000000D02*
X132000000Y-105450000D01*
X135500000Y-105000000D02*
X132450000Y-105000000D01*
%TO.N,Net-(J4-Pin_2)*%
X135740000Y-82050000D02*
X136500000Y-82810000D01*
X124500000Y-80750000D02*
X131200000Y-80750000D01*
X132500000Y-82050000D02*
X135740000Y-82050000D01*
X131200000Y-80750000D02*
X132500000Y-82050000D01*
D41*
%TO.N,/D2*%
X206110000Y-112610000D02*
X208000000Y-114500000D01*
X208000000Y-114500000D02*
X208000000Y-119900000D01*
X206110000Y-110497500D02*
X206110000Y-112610000D01*
%TO.N,/SCL*%
X198490000Y-110497500D02*
X198490000Y-110510000D01*
D38*
X149400000Y-76000000D02*
X149700000Y-75700000D01*
X147105000Y-90095000D02*
X149400000Y-87800000D01*
X163700000Y-120240000D02*
X163740000Y-120200000D01*
X146700000Y-103100000D02*
X149400000Y-103100000D01*
X163700000Y-122100000D02*
X163700000Y-120240000D01*
X146975000Y-90095000D02*
X147105000Y-90095000D01*
X158500000Y-87900000D02*
X158500000Y-103100000D01*
X158500000Y-103100000D02*
X158500000Y-110300000D01*
X145475000Y-104325000D02*
X146700000Y-103100000D01*
X153100000Y-71400000D02*
X158500000Y-76800000D01*
X158500000Y-76800000D02*
X158500000Y-87900000D01*
X149400000Y-103100000D02*
X153200000Y-103100000D01*
X148805000Y-76595000D02*
X149400000Y-76000000D01*
X149700000Y-75700000D02*
X149700000Y-74800000D01*
X145475000Y-105595000D02*
X145475000Y-104325000D01*
D41*
X197500000Y-111500000D02*
X197500000Y-119900000D01*
D38*
X158500000Y-111200000D02*
X156600000Y-113100000D01*
X147475000Y-76595000D02*
X148805000Y-76595000D01*
X167350000Y-119445000D02*
X164495000Y-119445000D01*
X149400000Y-87800000D02*
X152900000Y-87800000D01*
D41*
X198490000Y-110510000D02*
X197500000Y-111500000D01*
D38*
X164495000Y-119445000D02*
X163740000Y-120200000D01*
X158500000Y-110300000D02*
X158500000Y-111200000D01*
%TO.N,/SDA*%
X156400000Y-76700000D02*
X156600000Y-76900000D01*
X156600000Y-89600000D02*
X156600000Y-104800000D01*
X150700000Y-104800000D02*
X153200000Y-104800000D01*
X148800000Y-104800000D02*
X150700000Y-104800000D01*
X156600000Y-76900000D02*
X156600000Y-89600000D01*
X164715000Y-118175000D02*
X163740000Y-117200000D01*
X148835000Y-77865000D02*
X150700000Y-76000000D01*
X163800000Y-117140000D02*
X163740000Y-117200000D01*
X150700000Y-76000000D02*
X150800000Y-75900000D01*
D41*
X194000000Y-112447500D02*
X195950000Y-110497500D01*
D38*
X146975000Y-91365000D02*
X147735000Y-91365000D01*
X150700000Y-89500000D02*
X152900000Y-89500000D01*
D41*
X194000000Y-119900000D02*
X194000000Y-112447500D01*
D38*
X153300000Y-73600000D02*
X156400000Y-76700000D01*
X149600000Y-89500000D02*
X150700000Y-89500000D01*
X156600000Y-104800000D02*
X156600000Y-111000000D01*
X167350000Y-118175000D02*
X164715000Y-118175000D01*
X147735000Y-91365000D02*
X149600000Y-89500000D01*
X147475000Y-77865000D02*
X148835000Y-77865000D01*
X153100000Y-73600000D02*
X153300000Y-73600000D01*
X145475000Y-106865000D02*
X146735000Y-106865000D01*
X146735000Y-106865000D02*
X148800000Y-104800000D01*
%TO.N,Net-(JP26-A)*%
X147475000Y-80405000D02*
X149755000Y-80405000D01*
X149755000Y-80405000D02*
X150850000Y-81500000D01*
%TO.N,Net-(JP27-A)*%
X147475000Y-79135000D02*
X150215000Y-79135000D01*
X150215000Y-79135000D02*
X150850000Y-78500000D01*
D41*
%TO.N,/D4*%
X215000000Y-115500000D02*
X215000000Y-119900000D01*
X211190000Y-111690000D02*
X215000000Y-115500000D01*
X211190000Y-110497500D02*
X211190000Y-111690000D01*
%TO.N,/D5*%
X213730000Y-112230000D02*
X218500000Y-117000000D01*
X218500000Y-117000000D02*
X218500000Y-119900000D01*
X213730000Y-110497500D02*
X213730000Y-112230000D01*
%TO.N,/SCK*%
X202400000Y-74000000D02*
X197500000Y-69100000D01*
X208650000Y-78067500D02*
X204582500Y-74000000D01*
X204582500Y-74000000D02*
X202400000Y-74000000D01*
%TO.N,/MOSI*%
X206110000Y-78067500D02*
X206110000Y-77110000D01*
X203500000Y-74500000D02*
X199400000Y-74500000D01*
X206110000Y-77110000D02*
X203500000Y-74500000D01*
X199400000Y-74500000D02*
X194000000Y-69100000D01*
%TO.N,/MISO*%
X203570000Y-77070000D02*
X201500000Y-75000000D01*
X201500000Y-75000000D02*
X196400000Y-75000000D01*
X203570000Y-78067500D02*
X203570000Y-77070000D01*
X196400000Y-75000000D02*
X190500000Y-69100000D01*
%TO.N,/A3*%
X216270000Y-77370000D02*
X208000000Y-69100000D01*
X216270000Y-78067500D02*
X216270000Y-77370000D01*
%TO.N,/A4*%
X206000000Y-72000000D02*
X204500000Y-70500000D01*
X213730000Y-78067500D02*
X207662500Y-72000000D01*
X207662500Y-72000000D02*
X206000000Y-72000000D01*
X204500000Y-70500000D02*
X204500000Y-69100000D01*
%TO.N,/A5*%
X204900000Y-73000000D02*
X201000000Y-69100000D01*
X211190000Y-78067500D02*
X206122500Y-73000000D01*
X206122500Y-73000000D02*
X204900000Y-73000000D01*
%TO.N,/A0*%
X223890000Y-78067500D02*
X223890000Y-74490000D01*
X223890000Y-74490000D02*
X218500000Y-69100000D01*
%TO.N,/A1*%
X221350000Y-75450000D02*
X215000000Y-69100000D01*
X221350000Y-78067500D02*
X221350000Y-75450000D01*
%TO.N,/A2*%
X218810000Y-76410000D02*
X211500000Y-69100000D01*
X218810000Y-78067500D02*
X218810000Y-76410000D01*
%TO.N,/RX*%
X201030000Y-76530000D02*
X200000000Y-75500000D01*
X200000000Y-75500000D02*
X193400000Y-75500000D01*
X201030000Y-78067500D02*
X201030000Y-76530000D01*
X193400000Y-75500000D02*
X187000000Y-69100000D01*
%TO.N,/TX*%
X197500000Y-76000000D02*
X190400000Y-76000000D01*
X198490000Y-76990000D02*
X197500000Y-76000000D01*
X198490000Y-78067500D02*
X198490000Y-76990000D01*
X190400000Y-76000000D02*
X183500000Y-69100000D01*
D38*
%TO.N,/EN*%
X232200000Y-113150000D02*
X232200000Y-113600000D01*
X228900000Y-113200000D02*
X228900000Y-114700000D01*
X231100000Y-114700000D02*
X228900000Y-114700000D01*
D41*
X221350000Y-112250000D02*
X229000000Y-119900000D01*
D38*
X232200000Y-113600000D02*
X231100000Y-114700000D01*
D41*
X221350000Y-110497500D02*
X221350000Y-112250000D01*
%TO.N,/AREF*%
X228970000Y-72570000D02*
X225500000Y-69100000D01*
X228970000Y-78067500D02*
X228970000Y-72570000D01*
%TO.N,/RESET*%
X234050000Y-78067500D02*
X234050000Y-70650000D01*
X234050000Y-70650000D02*
X232500000Y-69100000D01*
D38*
%TO.N,Net-(JP28-A)*%
X145475000Y-108135000D02*
X147865000Y-108135000D01*
X147865000Y-108135000D02*
X148500000Y-107500000D01*
%TO.N,Net-(JP29-A)*%
X147255000Y-109405000D02*
X148350000Y-110500000D01*
X145475000Y-109405000D02*
X147255000Y-109405000D01*
%TO.N,Net-(JP30-A)*%
X146975000Y-93905000D02*
X148905000Y-93905000D01*
X148905000Y-93905000D02*
X150000000Y-95000000D01*
%TO.N,Net-(JP31-A)*%
X146975000Y-92635000D02*
X149365000Y-92635000D01*
X149365000Y-92635000D02*
X150000000Y-92000000D01*
D41*
%TO.N,/D6*%
X222000000Y-118500000D02*
X222000000Y-119900000D01*
X216450000Y-112950000D02*
X222000000Y-118500000D01*
X216450000Y-110497500D02*
X216450000Y-112950000D01*
%TO.N,/SPARE*%
X195950000Y-78067500D02*
X188967500Y-78067500D01*
X188967500Y-78067500D02*
X180000000Y-69100000D01*
%TO.N,/3V3*%
X231510000Y-71610000D02*
X229000000Y-69100000D01*
X231510000Y-78067500D02*
X231510000Y-71610000D01*
%TO.N,/VBAT*%
X223890000Y-110497500D02*
X223890000Y-111290000D01*
X223890000Y-111290000D02*
X232500000Y-119900000D01*
D38*
%TO.N,Net-(JP37-A)*%
X176650000Y-116905000D02*
X178595000Y-116905000D01*
X180600000Y-114900000D02*
X182850000Y-114900000D01*
X178595000Y-116905000D02*
X180600000Y-114900000D01*
%TO.N,/NINT*%
X229150000Y-111650000D02*
X228900000Y-111900000D01*
D41*
%TO.N,/D3*%
X211500000Y-115000000D02*
X211500000Y-120900000D01*
X208650000Y-110497500D02*
X208650000Y-112150000D01*
X208650000Y-112150000D02*
X211500000Y-115000000D01*
%TD*%
M02*
