%TF.GenerationSoftware,KiCad,Pcbnew,(6.99.0-2504-g6a9c6e8599)*%
%TF.CreationDate,2023-09-25T00:56:31-07:00*%
%TF.ProjectId,BuoyPower,42756f79-506f-4776-9572-2e6b69636164,rev?*%
%TF.SameCoordinates,Original*%
%TF.FileFunction,Copper,L3,Inr*%
%TF.FilePolarity,Positive*%
%FSLAX46Y46*%
G04 Gerber Fmt 4.6, Leading zero omitted, Abs format (unit mm)*
G04 Created by KiCad (PCBNEW (6.99.0-2504-g6a9c6e8599)) date 2023-09-25 00:56:31*
%MOMM*%
%LPD*%
G01*
G04 APERTURE LIST*
G04 Aperture macros list*
%AMRoundRect*
0 Rectangle with rounded corners*
0 $1 Rounding radius*
0 $2 $3 $4 $5 $6 $7 $8 $9 X,Y pos of 4 corners*
0 Add a 4 corners polygon primitive as box body*
4,1,4,$2,$3,$4,$5,$6,$7,$8,$9,$2,$3,0*
0 Add four circle primitives for the rounded corners*
1,1,$1+$1,$2,$3*
1,1,$1+$1,$4,$5*
1,1,$1+$1,$6,$7*
1,1,$1+$1,$8,$9*
0 Add four rect primitives between the rounded corners*
20,1,$1+$1,$2,$3,$4,$5,0*
20,1,$1+$1,$4,$5,$6,$7,0*
20,1,$1+$1,$6,$7,$8,$9,0*
20,1,$1+$1,$8,$9,$2,$3,0*%
G04 Aperture macros list end*
%TA.AperFunction,ComponentPad*%
%ADD10R,1.700000X1.700000*%
%TD*%
%TA.AperFunction,ComponentPad*%
%ADD11O,1.700000X1.700000*%
%TD*%
%TA.AperFunction,ComponentPad*%
%ADD12RoundRect,0.250000X0.600000X0.725000X-0.600000X0.725000X-0.600000X-0.725000X0.600000X-0.725000X0*%
%TD*%
%TA.AperFunction,ComponentPad*%
%ADD13O,1.700000X1.950000*%
%TD*%
%TA.AperFunction,ComponentPad*%
%ADD14RoundRect,0.250000X-0.750000X0.600000X-0.750000X-0.600000X0.750000X-0.600000X0.750000X0.600000X0*%
%TD*%
%TA.AperFunction,ComponentPad*%
%ADD15O,2.000000X1.700000*%
%TD*%
%TA.AperFunction,ComponentPad*%
%ADD16C,0.800000*%
%TD*%
%TA.AperFunction,ComponentPad*%
%ADD17C,6.400000*%
%TD*%
%TA.AperFunction,ComponentPad*%
%ADD18C,1.700000*%
%TD*%
%TA.AperFunction,ViaPad*%
%ADD19C,0.800000*%
%TD*%
%TA.AperFunction,Conductor*%
%ADD20C,0.406400*%
%TD*%
G04 APERTURE END LIST*
D10*
%TO.N,GND*%
%TO.C,J9*%
X164332999Y-128523999D03*
D11*
%TO.N,Net-(BT2-+)*%
X166872999Y-128523999D03*
%TD*%
D10*
%TO.N,BATT_IN*%
%TO.C,J8*%
X160029999Y-75437999D03*
D11*
%TO.N,GND*%
X162569999Y-75437999D03*
%TO.N,+5V*%
X165109999Y-75437999D03*
%TO.N,GND*%
X167649999Y-75437999D03*
%TD*%
D12*
%TO.N,BATT_IN*%
%TO.C,J5*%
X152360000Y-75311000D03*
D13*
%TO.N,unconnected-(J5-Pin_2)*%
X149859999Y-75310999D03*
%TO.N,GND*%
X147359999Y-75310999D03*
%TD*%
D14*
%TO.N,GND*%
%TO.C,J4*%
X134895000Y-87650000D03*
D15*
%TO.N,BATT_IN*%
X134894999Y-90149999D03*
%TD*%
D16*
%TO.N,N/C*%
%TO.C,H3*%
X130868000Y-127174000D03*
X130165056Y-128871056D03*
X130165056Y-125476944D03*
X128468000Y-129574000D03*
D17*
X128468000Y-127174000D03*
D16*
X128468000Y-124774000D03*
X126770944Y-128871056D03*
X126770944Y-125476944D03*
X126068000Y-127174000D03*
%TD*%
%TO.N,N/C*%
%TO.C,H2*%
X130868000Y-69174000D03*
X130165056Y-70871056D03*
X130165056Y-67476944D03*
X128468000Y-71574000D03*
D17*
X128468000Y-69174000D03*
D16*
X128468000Y-66774000D03*
X126770944Y-70871056D03*
X126770944Y-67476944D03*
X126068000Y-69174000D03*
%TD*%
D10*
%TO.N,/HOLD*%
%TO.C,J2*%
X128269999Y-106039999D03*
D11*
%TO.N,/SCL*%
X128269999Y-103499999D03*
%TO.N,/SDA*%
X128269999Y-100959999D03*
%TO.N,GND*%
X128269999Y-98419999D03*
%TO.N,VBUS*%
X128269999Y-95879999D03*
%TD*%
D18*
%TO.N,+5V*%
%TO.C,J1*%
X169418000Y-84074000D03*
%TO.N,GND*%
X169418000Y-86614000D03*
X169418000Y-89154000D03*
%TO.N,/PowerMonitor/VOUT*%
X169418000Y-91694000D03*
%TO.N,/REG_EN*%
X169418000Y-94234000D03*
%TO.N,N/C*%
X166878000Y-94234000D03*
%TD*%
D14*
%TO.N,GND*%
%TO.C,J7*%
X134895000Y-77490000D03*
D15*
%TO.N,BATT_IN*%
X134894999Y-79989999D03*
%TD*%
D10*
%TO.N,VBUS*%
%TO.C,J10*%
X176197999Y-74043999D03*
D11*
%TO.N,+5V*%
X178737999Y-74043999D03*
%TO.N,/SDA*%
X176197999Y-76583999D03*
%TO.N,+5V*%
X178737999Y-76583999D03*
%TO.N,/SCL*%
X176197999Y-79123999D03*
%TO.N,GND*%
X178737999Y-79123999D03*
%TO.N,unconnected-(J10-Pin_7)*%
X176197999Y-81663999D03*
%TO.N,unconnected-(J10-Pin_8)*%
X178737999Y-81663999D03*
%TO.N,unconnected-(J10-Pin_9)*%
X176197999Y-84203999D03*
%TO.N,unconnected-(J10-Pin_10)*%
X178737999Y-84203999D03*
%TO.N,/HOLD*%
X176197999Y-86743999D03*
%TO.N,unconnected-(J10-Pin_12)*%
X178737999Y-86743999D03*
%TO.N,/TEST*%
X176197999Y-89283999D03*
%TO.N,unconnected-(J10-Pin_14)*%
X178737999Y-89283999D03*
%TO.N,unconnected-(J10-Pin_15)*%
X176197999Y-91823999D03*
%TO.N,unconnected-(J10-Pin_16)*%
X178737999Y-91823999D03*
%TO.N,unconnected-(J10-Pin_17)*%
X176197999Y-94363999D03*
%TO.N,unconnected-(J10-Pin_18)*%
X178737999Y-94363999D03*
%TO.N,unconnected-(J10-Pin_19)*%
X176197999Y-96903999D03*
%TO.N,unconnected-(J10-Pin_20)*%
X178737999Y-96903999D03*
%TO.N,unconnected-(J10-Pin_21)*%
X176197999Y-99443999D03*
%TO.N,unconnected-(J10-Pin_22)*%
X178737999Y-99443999D03*
%TO.N,unconnected-(J10-Pin_23)*%
X176197999Y-101983999D03*
%TO.N,unconnected-(J10-Pin_24)*%
X178737999Y-101983999D03*
%TO.N,unconnected-(J10-Pin_25)*%
X176197999Y-104523999D03*
%TO.N,unconnected-(J10-Pin_26)*%
X178737999Y-104523999D03*
%TO.N,unconnected-(J10-Pin_27)*%
X176197999Y-107063999D03*
%TO.N,unconnected-(J10-Pin_28)*%
X178737999Y-107063999D03*
%TO.N,unconnected-(J10-Pin_29)*%
X176197999Y-109603999D03*
%TO.N,unconnected-(J10-Pin_30)*%
X178737999Y-109603999D03*
%TO.N,unconnected-(J10-Pin_31)*%
X176197999Y-112143999D03*
%TO.N,unconnected-(J10-Pin_32)*%
X178737999Y-112143999D03*
%TO.N,unconnected-(J10-Pin_33)*%
X176197999Y-114683999D03*
%TO.N,unconnected-(J10-Pin_34)*%
X178737999Y-114683999D03*
%TO.N,unconnected-(J10-Pin_35)*%
X176197999Y-117223999D03*
%TO.N,unconnected-(J10-Pin_36)*%
X178737999Y-117223999D03*
%TO.N,unconnected-(J10-Pin_37)*%
X176197999Y-119763999D03*
%TO.N,unconnected-(J10-Pin_38)*%
X178737999Y-119763999D03*
%TO.N,GND*%
X176197999Y-122303999D03*
%TO.N,unconnected-(J10-Pin_40)*%
X178737999Y-122303999D03*
%TD*%
D19*
%TO.N,VBUS*%
X152908000Y-103124000D03*
%TO.N,GND*%
X143764000Y-106172000D03*
%TO.N,/SDA*%
X148336000Y-98044000D03*
X147574000Y-100838000D03*
%TO.N,GND*%
X149987000Y-120142000D03*
X167259000Y-116205000D03*
X165735000Y-87884000D03*
X145796000Y-119634000D03*
X154686000Y-104902000D03*
X166751000Y-88900000D03*
X153924000Y-118745000D03*
X168300400Y-118745000D03*
X167259000Y-113665000D03*
X153924000Y-116205000D03*
X164719000Y-88900000D03*
X156210000Y-121539000D03*
X168275000Y-117500400D03*
X157226000Y-126111000D03*
X153924000Y-114935000D03*
X166751000Y-86868000D03*
X149098000Y-96012000D03*
X130810000Y-122809000D03*
X127508000Y-119888000D03*
X143256000Y-99568000D03*
X136144000Y-116332000D03*
X164719000Y-86868000D03*
X145415000Y-90170000D03*
X139954000Y-74422000D03*
X154686000Y-107442000D03*
X167259000Y-114935000D03*
X153924000Y-117475000D03*
X141605000Y-99568000D03*
%TO.N,VBUS*%
X138684000Y-72644000D03*
X164449000Y-105045000D03*
X144195800Y-102433000D03*
X158496000Y-103124000D03*
X151892000Y-96520000D03*
%TO.N,/REG_EN*%
X140716000Y-114808000D03*
%TO.N,/SDA*%
X167640000Y-103886000D03*
X164084000Y-100330000D03*
%TO.N,/SCL*%
X160528000Y-101346000D03*
X160528000Y-105410000D03*
%TO.N,/HOLD*%
X138430000Y-127254000D03*
%TO.N,/TEST*%
X138684000Y-124968000D03*
%TO.N,BATT_IN*%
X140081000Y-78486000D03*
X141097000Y-79502000D03*
X139065000Y-77470000D03*
X139065000Y-79502000D03*
X141097000Y-77470000D03*
%TO.N,Net-(BT2-+)*%
X162306000Y-116586000D03*
X138176000Y-111760000D03*
%TO.N,VCC*%
X142240000Y-109870000D03*
X140208000Y-109870000D03*
X143256000Y-113792000D03*
X135382000Y-118618000D03*
X137922000Y-109870000D03*
X157734000Y-129286000D03*
X161798000Y-125222000D03*
%TD*%
D20*
%TO.N,/REG_EN*%
X140716000Y-114046000D02*
X140716000Y-114808000D01*
X159258000Y-99060000D02*
X155194000Y-103124000D01*
X154432000Y-103124000D02*
X152146000Y-105410000D01*
X141478000Y-113284000D02*
X140716000Y-114046000D01*
X169418000Y-95504000D02*
X168910000Y-96012000D01*
X161798000Y-96520000D02*
X159258000Y-99060000D01*
X168910000Y-96012000D02*
X168402000Y-96520000D01*
X154686000Y-103124000D02*
X154432000Y-103124000D01*
X166116000Y-96520000D02*
X161798000Y-96520000D01*
X169418000Y-94234000D02*
X169418000Y-95504000D01*
X155194000Y-103124000D02*
X154686000Y-103124000D01*
X168402000Y-96520000D02*
X166116000Y-96520000D01*
X143256000Y-111506000D02*
X141478000Y-113284000D01*
X146050000Y-111506000D02*
X143256000Y-111506000D01*
X152146000Y-105410000D02*
X146050000Y-111506000D01*
%TO.N,/HOLD*%
X127508000Y-106040000D02*
X127508000Y-116586000D01*
X130556000Y-119634000D02*
X138176000Y-127254000D01*
X138176000Y-127254000D02*
X138430000Y-127254000D01*
X127508000Y-116586000D02*
X130556000Y-119634000D01*
%TO.N,/TEST*%
X174622000Y-89284000D02*
X173990000Y-89916000D01*
X138684000Y-121158000D02*
X138684000Y-124968000D01*
X171704000Y-103124000D02*
X163322000Y-111506000D01*
X176198000Y-89284000D02*
X174622000Y-89284000D01*
X171704000Y-98806000D02*
X171704000Y-103124000D01*
X152908000Y-111760000D02*
X148082000Y-111760000D01*
X163068000Y-111760000D02*
X152908000Y-111760000D01*
X148082000Y-111760000D02*
X139446000Y-120396000D01*
X139446000Y-120396000D02*
X138684000Y-121158000D01*
X171704000Y-92202000D02*
X171704000Y-98806000D01*
X173990000Y-89916000D02*
X171704000Y-92202000D01*
X163322000Y-111506000D02*
X163068000Y-111760000D01*
%TD*%
%TA.AperFunction,Conductor*%
%TO.N,GND*%
G36*
X177971301Y-65674673D02*
G01*
X178101487Y-65681496D01*
X178281790Y-65691622D01*
X178294421Y-65692973D01*
X178443061Y-65716515D01*
X178444150Y-65716694D01*
X178532176Y-65731650D01*
X178603217Y-65743721D01*
X178614721Y-65746234D01*
X178763562Y-65786115D01*
X178765832Y-65786746D01*
X178917080Y-65830320D01*
X178927346Y-65833762D01*
X178999017Y-65861274D01*
X179072618Y-65889527D01*
X179075681Y-65890749D01*
X179219685Y-65950397D01*
X179228671Y-65954539D01*
X179368063Y-66025564D01*
X179371759Y-66027526D01*
X179507476Y-66102534D01*
X179515152Y-66107140D01*
X179646698Y-66192567D01*
X179650952Y-66195455D01*
X179777123Y-66284978D01*
X179783477Y-66289799D01*
X179905529Y-66388635D01*
X179910195Y-66392604D01*
X180025387Y-66495546D01*
X180030522Y-66500402D01*
X180141598Y-66611478D01*
X180146454Y-66616613D01*
X180249396Y-66731805D01*
X180253365Y-66736471D01*
X180352201Y-66858523D01*
X180357022Y-66864877D01*
X180446545Y-66991048D01*
X180449433Y-66995302D01*
X180534860Y-67126848D01*
X180539466Y-67134524D01*
X180614467Y-67270228D01*
X180616436Y-67273937D01*
X180639982Y-67320147D01*
X180687461Y-67413330D01*
X180691603Y-67422315D01*
X180751251Y-67566319D01*
X180752473Y-67569382D01*
X180808235Y-67714646D01*
X180811680Y-67724920D01*
X180855254Y-67876168D01*
X180855885Y-67878438D01*
X180895766Y-68027279D01*
X180898279Y-68038783D01*
X180910350Y-68109824D01*
X180925306Y-68197850D01*
X180925485Y-68198939D01*
X180949026Y-68347572D01*
X180950378Y-68360210D01*
X180958173Y-68499000D01*
X180960503Y-68540486D01*
X180967327Y-68670699D01*
X180967500Y-68677293D01*
X180967500Y-128170707D01*
X180967327Y-128177301D01*
X180960518Y-128307224D01*
X180952917Y-128442585D01*
X180950379Y-128487783D01*
X180949027Y-128500421D01*
X180925485Y-128649061D01*
X180925306Y-128650150D01*
X180918979Y-128687393D01*
X180898279Y-128809217D01*
X180895766Y-128820721D01*
X180855885Y-128969562D01*
X180855254Y-128971832D01*
X180811680Y-129123080D01*
X180808238Y-129133346D01*
X180793096Y-129172791D01*
X180752473Y-129278618D01*
X180751251Y-129281681D01*
X180691603Y-129425685D01*
X180687461Y-129434670D01*
X180616436Y-129574063D01*
X180614474Y-129577759D01*
X180539466Y-129713476D01*
X180534863Y-129721147D01*
X180453587Y-129846302D01*
X180449433Y-129852698D01*
X180446545Y-129856952D01*
X180357022Y-129983123D01*
X180352201Y-129989477D01*
X180253365Y-130111529D01*
X180249396Y-130116195D01*
X180146454Y-130231387D01*
X180141598Y-130236522D01*
X180030522Y-130347598D01*
X180025387Y-130352454D01*
X179910195Y-130455396D01*
X179905529Y-130459365D01*
X179783477Y-130558201D01*
X179777123Y-130563022D01*
X179650952Y-130652545D01*
X179646709Y-130655426D01*
X179567772Y-130706688D01*
X179515152Y-130740860D01*
X179507481Y-130745463D01*
X179371759Y-130820474D01*
X179368063Y-130822436D01*
X179236507Y-130889468D01*
X179228670Y-130893461D01*
X179219685Y-130897603D01*
X179075681Y-130957251D01*
X179072618Y-130958473D01*
X179019006Y-130979053D01*
X178927346Y-131014238D01*
X178917080Y-131017680D01*
X178765832Y-131061254D01*
X178763562Y-131061885D01*
X178614721Y-131101766D01*
X178603217Y-131104279D01*
X178532176Y-131116350D01*
X178444150Y-131131306D01*
X178443061Y-131131485D01*
X178294421Y-131155027D01*
X178281790Y-131156378D01*
X178101487Y-131166504D01*
X177971301Y-131173327D01*
X177964707Y-131173500D01*
X127971293Y-131173500D01*
X127964699Y-131173327D01*
X127834513Y-131166504D01*
X127654210Y-131156378D01*
X127641579Y-131155027D01*
X127492939Y-131131485D01*
X127491850Y-131131306D01*
X127403824Y-131116350D01*
X127332783Y-131104279D01*
X127321279Y-131101766D01*
X127172438Y-131061885D01*
X127170168Y-131061254D01*
X127018920Y-131017680D01*
X127008654Y-131014238D01*
X126916994Y-130979053D01*
X126863382Y-130958473D01*
X126860319Y-130957251D01*
X126716315Y-130897603D01*
X126707330Y-130893461D01*
X126699493Y-130889468D01*
X126567937Y-130822436D01*
X126564241Y-130820474D01*
X126428519Y-130745463D01*
X126420848Y-130740860D01*
X126368228Y-130706688D01*
X126289291Y-130655426D01*
X126285048Y-130652545D01*
X126158877Y-130563022D01*
X126152523Y-130558201D01*
X126030471Y-130459365D01*
X126025805Y-130455396D01*
X125910613Y-130352454D01*
X125905478Y-130347598D01*
X125794403Y-130236523D01*
X125789547Y-130231388D01*
X125686604Y-130116195D01*
X125682635Y-130111529D01*
X125583799Y-129989477D01*
X125578978Y-129983123D01*
X125489455Y-129856952D01*
X125486567Y-129852698D01*
X125482414Y-129846302D01*
X125401137Y-129721147D01*
X125396534Y-129713475D01*
X125323059Y-129580531D01*
X125307614Y-129511235D01*
X125332085Y-129444589D01*
X125388703Y-129401753D01*
X125459492Y-129396328D01*
X125521977Y-129430035D01*
X125531257Y-129440289D01*
X125706183Y-129656305D01*
X125706191Y-129656314D01*
X125708266Y-129658876D01*
X125983124Y-129933734D01*
X125985682Y-129935806D01*
X125985686Y-129935809D01*
X126134165Y-130056045D01*
X126285207Y-130178357D01*
X126287970Y-130180152D01*
X126287971Y-130180152D01*
X126553294Y-130352454D01*
X126611205Y-130390062D01*
X126614139Y-130391557D01*
X126614146Y-130391561D01*
X126844687Y-130509027D01*
X126957547Y-130566532D01*
X127320438Y-130705833D01*
X127695901Y-130806438D01*
X127899793Y-130838732D01*
X128076576Y-130866732D01*
X128076584Y-130866733D01*
X128079824Y-130867246D01*
X128468000Y-130887589D01*
X128856176Y-130867246D01*
X128859416Y-130866733D01*
X128859424Y-130866732D01*
X129036207Y-130838732D01*
X129240099Y-130806438D01*
X129615562Y-130705833D01*
X129978453Y-130566532D01*
X130091313Y-130509027D01*
X130321854Y-130391561D01*
X130321861Y-130391557D01*
X130324795Y-130390062D01*
X130382707Y-130352454D01*
X130648029Y-130180152D01*
X130648030Y-130180152D01*
X130650793Y-130178357D01*
X130801835Y-130056045D01*
X130950314Y-129935809D01*
X130950318Y-129935806D01*
X130952876Y-129933734D01*
X131227734Y-129658876D01*
X131233893Y-129651271D01*
X131409293Y-129434670D01*
X131472357Y-129356793D01*
X131518330Y-129286000D01*
X156820496Y-129286000D01*
X156821186Y-129292565D01*
X156838808Y-129460225D01*
X156840458Y-129475928D01*
X156899473Y-129657556D01*
X156902776Y-129663278D01*
X156902777Y-129663279D01*
X156931758Y-129713475D01*
X156994960Y-129822944D01*
X156999378Y-129827851D01*
X156999379Y-129827852D01*
X157047810Y-129881640D01*
X157122747Y-129964866D01*
X157277248Y-130077118D01*
X157283276Y-130079802D01*
X157283278Y-130079803D01*
X157445681Y-130152109D01*
X157451712Y-130154794D01*
X157545113Y-130174647D01*
X157632056Y-130193128D01*
X157632061Y-130193128D01*
X157638513Y-130194500D01*
X157829487Y-130194500D01*
X157835939Y-130193128D01*
X157835944Y-130193128D01*
X157922887Y-130174647D01*
X158016288Y-130154794D01*
X158022319Y-130152109D01*
X158184722Y-130079803D01*
X158184724Y-130079802D01*
X158190752Y-130077118D01*
X158345253Y-129964866D01*
X158420190Y-129881640D01*
X158468621Y-129827852D01*
X158468622Y-129827851D01*
X158473040Y-129822944D01*
X158536242Y-129713475D01*
X158565223Y-129663279D01*
X158565224Y-129663278D01*
X158568527Y-129657556D01*
X158627542Y-129475928D01*
X158629193Y-129460225D01*
X158633502Y-129419223D01*
X162975000Y-129419223D01*
X162975360Y-129425938D01*
X162980662Y-129475257D01*
X162984259Y-129490478D01*
X163029405Y-129611520D01*
X163037954Y-129627176D01*
X163114698Y-129729693D01*
X163127307Y-129742302D01*
X163229824Y-129819046D01*
X163245480Y-129827595D01*
X163366522Y-129872741D01*
X163381743Y-129876338D01*
X163431062Y-129881640D01*
X163437777Y-129882000D01*
X164060885Y-129882000D01*
X164076124Y-129877525D01*
X164077329Y-129876135D01*
X164079000Y-129868452D01*
X164079000Y-129863885D01*
X164587000Y-129863885D01*
X164591475Y-129879124D01*
X164592865Y-129880329D01*
X164600548Y-129882000D01*
X165228223Y-129882000D01*
X165234938Y-129881640D01*
X165284257Y-129876338D01*
X165299478Y-129872741D01*
X165420520Y-129827595D01*
X165436176Y-129819046D01*
X165538693Y-129742302D01*
X165551302Y-129729693D01*
X165628046Y-129627176D01*
X165636595Y-129611520D01*
X165677618Y-129501531D01*
X165720165Y-129444695D01*
X165786685Y-129419884D01*
X165856059Y-129434975D01*
X165888375Y-129460225D01*
X165949760Y-129526906D01*
X165953879Y-129530112D01*
X166122316Y-129661213D01*
X166127424Y-129665189D01*
X166185085Y-129696393D01*
X166269917Y-129742302D01*
X166325426Y-129772342D01*
X166538365Y-129845444D01*
X166543499Y-129846301D01*
X166543504Y-129846302D01*
X166755294Y-129881643D01*
X166755296Y-129881643D01*
X166760431Y-129882500D01*
X166985569Y-129882500D01*
X166990704Y-129881643D01*
X166990706Y-129881643D01*
X167202496Y-129846302D01*
X167202501Y-129846301D01*
X167207635Y-129845444D01*
X167420574Y-129772342D01*
X167476084Y-129742302D01*
X167560915Y-129696393D01*
X167618576Y-129665189D01*
X167623685Y-129661213D01*
X167792121Y-129530112D01*
X167796240Y-129526906D01*
X167872019Y-129444589D01*
X167945194Y-129365101D01*
X167945197Y-129365097D01*
X167948722Y-129361268D01*
X168071860Y-129172791D01*
X168162296Y-128966616D01*
X168166086Y-128951652D01*
X168216283Y-128753427D01*
X168216283Y-128753426D01*
X168217564Y-128748368D01*
X168222861Y-128684453D01*
X168235726Y-128529189D01*
X168236156Y-128524000D01*
X168229398Y-128442443D01*
X168217995Y-128304828D01*
X168217994Y-128304823D01*
X168217564Y-128299632D01*
X168184916Y-128170707D01*
X168163578Y-128086446D01*
X168163578Y-128086445D01*
X168162296Y-128081384D01*
X168098854Y-127936749D01*
X168073954Y-127879982D01*
X168073952Y-127879978D01*
X168071860Y-127875209D01*
X167948722Y-127686732D01*
X167945197Y-127682903D01*
X167945194Y-127682899D01*
X167829775Y-127557522D01*
X167796240Y-127521094D01*
X167618576Y-127382811D01*
X167499383Y-127318307D01*
X167425159Y-127278139D01*
X167425156Y-127278138D01*
X167420574Y-127275658D01*
X167207635Y-127202556D01*
X167202501Y-127201699D01*
X167202496Y-127201698D01*
X166990706Y-127166357D01*
X166990704Y-127166357D01*
X166985569Y-127165500D01*
X166760431Y-127165500D01*
X166755296Y-127166357D01*
X166755294Y-127166357D01*
X166543504Y-127201698D01*
X166543499Y-127201699D01*
X166538365Y-127202556D01*
X166325426Y-127275658D01*
X166320844Y-127278138D01*
X166320841Y-127278139D01*
X166246617Y-127318307D01*
X166127424Y-127382811D01*
X165949760Y-127521094D01*
X165916225Y-127557522D01*
X165888375Y-127587775D01*
X165827521Y-127624346D01*
X165756557Y-127622211D01*
X165698012Y-127582049D01*
X165677618Y-127546469D01*
X165636595Y-127436480D01*
X165628046Y-127420824D01*
X165551302Y-127318307D01*
X165538693Y-127305698D01*
X165436176Y-127228954D01*
X165420520Y-127220405D01*
X165299478Y-127175259D01*
X165284257Y-127171662D01*
X165234938Y-127166360D01*
X165228223Y-127166000D01*
X164605115Y-127166000D01*
X164589876Y-127170475D01*
X164588671Y-127171865D01*
X164587000Y-127179548D01*
X164587000Y-129863885D01*
X164079000Y-129863885D01*
X164079000Y-128796115D01*
X164074525Y-128780876D01*
X164073135Y-128779671D01*
X164065452Y-128778000D01*
X162993115Y-128778000D01*
X162977876Y-128782475D01*
X162976671Y-128783865D01*
X162975000Y-128791548D01*
X162975000Y-129419223D01*
X158633502Y-129419223D01*
X158646814Y-129292565D01*
X158647504Y-129286000D01*
X158636064Y-129177157D01*
X158628232Y-129102635D01*
X158628232Y-129102633D01*
X158627542Y-129096072D01*
X158568527Y-128914444D01*
X158473040Y-128749056D01*
X158417519Y-128687393D01*
X158349675Y-128612045D01*
X158349674Y-128612044D01*
X158345253Y-128607134D01*
X158223687Y-128518811D01*
X158196094Y-128498763D01*
X158196093Y-128498762D01*
X158190752Y-128494882D01*
X158184724Y-128492198D01*
X158184722Y-128492197D01*
X158022319Y-128419891D01*
X158022318Y-128419891D01*
X158016288Y-128417206D01*
X157922888Y-128397353D01*
X157835944Y-128378872D01*
X157835939Y-128378872D01*
X157829487Y-128377500D01*
X157638513Y-128377500D01*
X157632061Y-128378872D01*
X157632056Y-128378872D01*
X157545112Y-128397353D01*
X157451712Y-128417206D01*
X157445682Y-128419891D01*
X157445681Y-128419891D01*
X157283278Y-128492197D01*
X157283276Y-128492198D01*
X157277248Y-128494882D01*
X157271907Y-128498762D01*
X157271906Y-128498763D01*
X157244313Y-128518811D01*
X157122747Y-128607134D01*
X157118326Y-128612044D01*
X157118325Y-128612045D01*
X157050482Y-128687393D01*
X156994960Y-128749056D01*
X156899473Y-128914444D01*
X156840458Y-129096072D01*
X156839768Y-129102633D01*
X156839768Y-129102635D01*
X156831936Y-129177157D01*
X156820496Y-129286000D01*
X131518330Y-129286000D01*
X131684062Y-129030795D01*
X131714106Y-128971832D01*
X131859034Y-128687393D01*
X131860532Y-128684453D01*
X131953431Y-128442443D01*
X131998647Y-128324652D01*
X131998648Y-128324650D01*
X131999833Y-128321562D01*
X132018503Y-128251885D01*
X162975000Y-128251885D01*
X162979475Y-128267124D01*
X162980865Y-128268329D01*
X162988548Y-128270000D01*
X164060885Y-128270000D01*
X164076124Y-128265525D01*
X164077329Y-128264135D01*
X164079000Y-128256452D01*
X164079000Y-127184115D01*
X164074525Y-127168876D01*
X164073135Y-127167671D01*
X164065452Y-127166000D01*
X163437777Y-127166000D01*
X163431062Y-127166360D01*
X163381743Y-127171662D01*
X163366522Y-127175259D01*
X163245480Y-127220405D01*
X163229824Y-127228954D01*
X163127307Y-127305698D01*
X163114698Y-127318307D01*
X163037954Y-127420824D01*
X163029405Y-127436480D01*
X162984259Y-127557522D01*
X162980662Y-127572743D01*
X162975360Y-127622062D01*
X162975000Y-127628777D01*
X162975000Y-128251885D01*
X132018503Y-128251885D01*
X132100438Y-127946099D01*
X132150301Y-127631279D01*
X132160732Y-127565424D01*
X132160733Y-127565416D01*
X132161246Y-127562176D01*
X132181589Y-127174000D01*
X132161246Y-126785824D01*
X132100438Y-126401901D01*
X131999833Y-126026438D01*
X131860532Y-125663547D01*
X131821667Y-125587271D01*
X131685561Y-125320147D01*
X131685557Y-125320140D01*
X131684062Y-125317206D01*
X131472357Y-124991207D01*
X131227734Y-124689124D01*
X130952876Y-124414266D01*
X130877474Y-124353206D01*
X130653355Y-124171718D01*
X130650793Y-124169643D01*
X130324795Y-123957938D01*
X130321861Y-123956443D01*
X130321854Y-123956439D01*
X129981393Y-123782966D01*
X129978453Y-123781468D01*
X129615562Y-123642167D01*
X129240099Y-123541562D01*
X129036207Y-123509268D01*
X128859424Y-123481268D01*
X128859416Y-123481267D01*
X128856176Y-123480754D01*
X128468000Y-123460411D01*
X128079824Y-123480754D01*
X128076584Y-123481267D01*
X128076576Y-123481268D01*
X127899793Y-123509268D01*
X127695901Y-123541562D01*
X127320438Y-123642167D01*
X126957547Y-123781468D01*
X126954607Y-123782966D01*
X126614147Y-123956439D01*
X126614140Y-123956443D01*
X126611206Y-123957938D01*
X126285207Y-124169643D01*
X126282645Y-124171718D01*
X126058527Y-124353206D01*
X125983124Y-124414266D01*
X125708266Y-124689124D01*
X125463643Y-124991207D01*
X125251938Y-125317206D01*
X125250443Y-125320140D01*
X125250439Y-125320147D01*
X125206767Y-125405859D01*
X125158019Y-125457474D01*
X125089104Y-125474540D01*
X125021902Y-125451639D01*
X124977750Y-125396042D01*
X124968500Y-125348656D01*
X124968500Y-116629287D01*
X126792380Y-116629287D01*
X126793754Y-116636783D01*
X126803398Y-116689407D01*
X126804541Y-116696919D01*
X126811906Y-116757572D01*
X126814607Y-116764693D01*
X126814607Y-116764694D01*
X126815556Y-116767195D01*
X126821680Y-116789163D01*
X126823535Y-116799287D01*
X126826663Y-116806238D01*
X126826664Y-116806240D01*
X126848611Y-116855003D01*
X126851524Y-116862035D01*
X126873193Y-116919173D01*
X126877518Y-116925439D01*
X126877519Y-116925441D01*
X126879042Y-116927647D01*
X126890242Y-116947505D01*
X126894467Y-116956893D01*
X126923988Y-116994573D01*
X126932149Y-117004990D01*
X126936650Y-117011107D01*
X126971372Y-117061411D01*
X126977073Y-117066462D01*
X126977077Y-117066466D01*
X127017118Y-117101938D01*
X127022660Y-117107156D01*
X130022313Y-120106809D01*
X137654842Y-127739337D01*
X137660064Y-127744884D01*
X137663982Y-127749307D01*
X137678779Y-127769846D01*
X137690960Y-127790944D01*
X137818747Y-127932866D01*
X137973248Y-128045118D01*
X137979276Y-128047802D01*
X137979278Y-128047803D01*
X138141681Y-128120109D01*
X138147712Y-128122794D01*
X138241113Y-128142647D01*
X138328056Y-128161128D01*
X138328061Y-128161128D01*
X138334513Y-128162500D01*
X138525487Y-128162500D01*
X138531939Y-128161128D01*
X138531944Y-128161128D01*
X138618887Y-128142647D01*
X138712288Y-128122794D01*
X138718319Y-128120109D01*
X138880722Y-128047803D01*
X138880724Y-128047802D01*
X138886752Y-128045118D01*
X139041253Y-127932866D01*
X139169040Y-127790944D01*
X139264527Y-127625556D01*
X139323542Y-127443928D01*
X139343504Y-127254000D01*
X139334293Y-127166360D01*
X139324232Y-127070635D01*
X139324232Y-127070633D01*
X139323542Y-127064072D01*
X139264527Y-126882444D01*
X139169040Y-126717056D01*
X139041253Y-126575134D01*
X138886752Y-126462882D01*
X138880724Y-126460198D01*
X138880722Y-126460197D01*
X138718319Y-126387891D01*
X138718318Y-126387891D01*
X138712288Y-126385206D01*
X138618887Y-126365353D01*
X138531944Y-126346872D01*
X138531939Y-126346872D01*
X138525487Y-126345500D01*
X138334513Y-126345500D01*
X138334513Y-126344572D01*
X138270308Y-126332829D01*
X138237882Y-126309387D01*
X136896495Y-124968000D01*
X137770496Y-124968000D01*
X137790458Y-125157928D01*
X137849473Y-125339556D01*
X137944960Y-125504944D01*
X137949378Y-125509851D01*
X137949379Y-125509852D01*
X138068325Y-125641955D01*
X138072747Y-125646866D01*
X138227248Y-125759118D01*
X138233276Y-125761802D01*
X138233278Y-125761803D01*
X138395681Y-125834109D01*
X138401712Y-125836794D01*
X138495112Y-125856647D01*
X138582056Y-125875128D01*
X138582061Y-125875128D01*
X138588513Y-125876500D01*
X138779487Y-125876500D01*
X138785939Y-125875128D01*
X138785944Y-125875128D01*
X138872888Y-125856647D01*
X138966288Y-125836794D01*
X138972319Y-125834109D01*
X139134722Y-125761803D01*
X139134724Y-125761802D01*
X139140752Y-125759118D01*
X139295253Y-125646866D01*
X139299675Y-125641955D01*
X139418621Y-125509852D01*
X139418622Y-125509851D01*
X139423040Y-125504944D01*
X139518527Y-125339556D01*
X139556724Y-125222000D01*
X160884496Y-125222000D01*
X160885186Y-125228565D01*
X160894812Y-125320147D01*
X160904458Y-125411928D01*
X160963473Y-125593556D01*
X161058960Y-125758944D01*
X161186747Y-125900866D01*
X161341248Y-126013118D01*
X161347276Y-126015802D01*
X161347278Y-126015803D01*
X161509681Y-126088109D01*
X161515712Y-126090794D01*
X161609113Y-126110647D01*
X161696056Y-126129128D01*
X161696061Y-126129128D01*
X161702513Y-126130500D01*
X161893487Y-126130500D01*
X161899939Y-126129128D01*
X161899944Y-126129128D01*
X161986887Y-126110647D01*
X162080288Y-126090794D01*
X162086319Y-126088109D01*
X162248722Y-126015803D01*
X162248724Y-126015802D01*
X162254752Y-126013118D01*
X162409253Y-125900866D01*
X162537040Y-125758944D01*
X162632527Y-125593556D01*
X162691542Y-125411928D01*
X162701189Y-125320147D01*
X162710814Y-125228565D01*
X162711504Y-125222000D01*
X162691542Y-125032072D01*
X162632527Y-124850444D01*
X162537040Y-124685056D01*
X162457254Y-124596444D01*
X162413675Y-124548045D01*
X162413674Y-124548044D01*
X162409253Y-124543134D01*
X162310157Y-124471136D01*
X162260094Y-124434763D01*
X162260093Y-124434762D01*
X162254752Y-124430882D01*
X162248724Y-124428198D01*
X162248722Y-124428197D01*
X162086319Y-124355891D01*
X162086318Y-124355891D01*
X162080288Y-124353206D01*
X161986887Y-124333353D01*
X161899944Y-124314872D01*
X161899939Y-124314872D01*
X161893487Y-124313500D01*
X161702513Y-124313500D01*
X161696061Y-124314872D01*
X161696056Y-124314872D01*
X161609113Y-124333353D01*
X161515712Y-124353206D01*
X161509682Y-124355891D01*
X161509681Y-124355891D01*
X161347278Y-124428197D01*
X161347276Y-124428198D01*
X161341248Y-124430882D01*
X161335907Y-124434762D01*
X161335906Y-124434763D01*
X161285843Y-124471136D01*
X161186747Y-124543134D01*
X161182326Y-124548044D01*
X161182325Y-124548045D01*
X161138747Y-124596444D01*
X161058960Y-124685056D01*
X160963473Y-124850444D01*
X160904458Y-125032072D01*
X160884496Y-125222000D01*
X139556724Y-125222000D01*
X139577542Y-125157928D01*
X139597504Y-124968000D01*
X139577542Y-124778072D01*
X139518527Y-124596444D01*
X139490584Y-124548045D01*
X139426343Y-124436776D01*
X139426340Y-124436772D01*
X139423040Y-124431056D01*
X139419609Y-124427245D01*
X139395700Y-124353660D01*
X139395700Y-121504986D01*
X139415702Y-121436865D01*
X139432605Y-121415891D01*
X139979687Y-120868809D01*
X144262495Y-116586000D01*
X161392496Y-116586000D01*
X161393186Y-116592565D01*
X161409734Y-116750006D01*
X161412458Y-116775928D01*
X161471473Y-116957556D01*
X161566960Y-117122944D01*
X161694747Y-117264866D01*
X161849248Y-117377118D01*
X161855276Y-117379802D01*
X161855278Y-117379803D01*
X161997608Y-117443172D01*
X162023712Y-117454794D01*
X162117113Y-117474647D01*
X162204056Y-117493128D01*
X162204061Y-117493128D01*
X162210513Y-117494500D01*
X162401487Y-117494500D01*
X162407939Y-117493128D01*
X162407944Y-117493128D01*
X162494887Y-117474647D01*
X162588288Y-117454794D01*
X162614392Y-117443172D01*
X162756722Y-117379803D01*
X162756724Y-117379802D01*
X162762752Y-117377118D01*
X162917253Y-117264866D01*
X163045040Y-117122944D01*
X163140527Y-116957556D01*
X163199542Y-116775928D01*
X163202267Y-116750006D01*
X163218814Y-116592565D01*
X163219504Y-116586000D01*
X163199542Y-116396072D01*
X163140527Y-116214444D01*
X163045040Y-116049056D01*
X162951784Y-115945484D01*
X162921675Y-115912045D01*
X162921674Y-115912044D01*
X162917253Y-115907134D01*
X162762752Y-115794882D01*
X162756724Y-115792198D01*
X162756722Y-115792197D01*
X162594319Y-115719891D01*
X162594318Y-115719891D01*
X162588288Y-115717206D01*
X162494887Y-115697353D01*
X162407944Y-115678872D01*
X162407939Y-115678872D01*
X162401487Y-115677500D01*
X162210513Y-115677500D01*
X162204061Y-115678872D01*
X162204056Y-115678872D01*
X162117113Y-115697353D01*
X162023712Y-115717206D01*
X162017682Y-115719891D01*
X162017681Y-115719891D01*
X161855278Y-115792197D01*
X161855276Y-115792198D01*
X161849248Y-115794882D01*
X161694747Y-115907134D01*
X161690326Y-115912044D01*
X161690325Y-115912045D01*
X161660217Y-115945484D01*
X161566960Y-116049056D01*
X161471473Y-116214444D01*
X161412458Y-116396072D01*
X161392496Y-116586000D01*
X144262495Y-116586000D01*
X148339890Y-112508605D01*
X148402202Y-112474579D01*
X148428985Y-112471700D01*
X163042685Y-112471700D01*
X163050294Y-112471930D01*
X163103680Y-112475160D01*
X163103682Y-112475160D01*
X163111287Y-112475620D01*
X163171420Y-112464600D01*
X163178919Y-112463459D01*
X163210191Y-112459662D01*
X163232006Y-112457013D01*
X163232008Y-112457012D01*
X163239572Y-112456094D01*
X163249199Y-112452443D01*
X163271163Y-112446320D01*
X163281287Y-112444465D01*
X163288238Y-112441337D01*
X163288240Y-112441336D01*
X163307685Y-112432584D01*
X163337014Y-112419384D01*
X163344036Y-112416476D01*
X163394048Y-112397509D01*
X163394047Y-112397509D01*
X163401173Y-112394807D01*
X163407439Y-112390482D01*
X163407441Y-112390481D01*
X163409647Y-112388958D01*
X163429505Y-112377758D01*
X163438893Y-112373533D01*
X163486999Y-112335844D01*
X163493107Y-112331350D01*
X163543411Y-112296628D01*
X163548462Y-112290927D01*
X163548466Y-112290923D01*
X163583938Y-112250882D01*
X163589156Y-112245340D01*
X172189340Y-103645156D01*
X172194882Y-103639938D01*
X172234923Y-103604466D01*
X172234927Y-103604462D01*
X172240628Y-103599411D01*
X172246348Y-103591124D01*
X172275350Y-103549109D01*
X172279850Y-103542991D01*
X172317532Y-103494893D01*
X172321756Y-103485508D01*
X172332958Y-103465647D01*
X172334481Y-103463441D01*
X172334482Y-103463439D01*
X172338807Y-103457173D01*
X172360477Y-103400034D01*
X172363390Y-103393002D01*
X172385338Y-103344236D01*
X172388465Y-103337288D01*
X172389839Y-103329793D01*
X172390323Y-103327154D01*
X172396444Y-103305198D01*
X172397392Y-103302699D01*
X172397393Y-103302693D01*
X172400094Y-103295572D01*
X172401885Y-103280828D01*
X172407458Y-103234928D01*
X172408603Y-103227404D01*
X172409205Y-103224118D01*
X172419620Y-103167287D01*
X172417399Y-103130565D01*
X172415930Y-103106294D01*
X172415700Y-103098685D01*
X172415700Y-92548986D01*
X172435702Y-92480865D01*
X172452605Y-92459891D01*
X174879891Y-90032605D01*
X174942203Y-89998579D01*
X174968986Y-89995700D01*
X174972052Y-89995700D01*
X175040173Y-90015702D01*
X175077535Y-90052784D01*
X175122278Y-90121268D01*
X175125804Y-90125099D01*
X175125807Y-90125101D01*
X175274760Y-90286906D01*
X175278879Y-90290112D01*
X175439588Y-90415198D01*
X175452424Y-90425189D01*
X175457005Y-90427668D01*
X175485680Y-90443186D01*
X175536071Y-90493199D01*
X175551423Y-90562516D01*
X175526863Y-90629129D01*
X175485681Y-90664813D01*
X175452424Y-90682811D01*
X175274760Y-90821094D01*
X175271228Y-90824931D01*
X175125806Y-90982899D01*
X175125803Y-90982903D01*
X175122278Y-90986732D01*
X175119427Y-90991096D01*
X175003372Y-91168732D01*
X174999140Y-91175209D01*
X174997048Y-91179978D01*
X174997046Y-91179982D01*
X174965727Y-91251384D01*
X174908704Y-91381384D01*
X174907422Y-91386445D01*
X174907422Y-91386446D01*
X174885041Y-91474828D01*
X174853436Y-91599632D01*
X174853006Y-91604823D01*
X174853005Y-91604828D01*
X174846274Y-91686062D01*
X174834844Y-91824000D01*
X174835274Y-91829189D01*
X174849114Y-91996208D01*
X174853436Y-92048368D01*
X174854717Y-92053426D01*
X174854717Y-92053427D01*
X174898752Y-92227315D01*
X174908704Y-92266616D01*
X174910800Y-92271394D01*
X174993482Y-92459891D01*
X174999140Y-92472791D01*
X175001990Y-92477153D01*
X175001992Y-92477157D01*
X175091448Y-92614079D01*
X175122278Y-92661268D01*
X175125803Y-92665097D01*
X175125806Y-92665101D01*
X175227360Y-92775417D01*
X175274760Y-92826906D01*
X175278879Y-92830112D01*
X175423071Y-92942342D01*
X175452424Y-92965189D01*
X175457005Y-92967668D01*
X175485680Y-92983186D01*
X175536071Y-93033199D01*
X175551423Y-93102516D01*
X175526863Y-93169129D01*
X175485681Y-93204813D01*
X175452424Y-93222811D01*
X175274760Y-93361094D01*
X175271228Y-93364931D01*
X175125806Y-93522899D01*
X175125803Y-93522903D01*
X175122278Y-93526732D01*
X175119427Y-93531096D01*
X175003372Y-93708732D01*
X174999140Y-93715209D01*
X174997048Y-93719978D01*
X174997046Y-93719982D01*
X174965727Y-93791384D01*
X174908704Y-93921384D01*
X174907422Y-93926445D01*
X174907422Y-93926446D01*
X174885041Y-94014828D01*
X174853436Y-94139632D01*
X174834844Y-94364000D01*
X174835274Y-94369189D01*
X174850966Y-94558556D01*
X174853436Y-94588368D01*
X174854717Y-94593426D01*
X174854717Y-94593427D01*
X174886924Y-94720607D01*
X174908704Y-94806616D01*
X174910800Y-94811394D01*
X174965175Y-94935357D01*
X174999140Y-95012791D01*
X175001990Y-95017153D01*
X175001992Y-95017157D01*
X175037345Y-95071268D01*
X175122278Y-95201268D01*
X175125803Y-95205097D01*
X175125806Y-95205101D01*
X175210060Y-95296624D01*
X175274760Y-95366906D01*
X175278879Y-95370112D01*
X175425246Y-95484035D01*
X175452424Y-95505189D01*
X175457005Y-95507668D01*
X175485680Y-95523186D01*
X175536071Y-95573199D01*
X175551423Y-95642516D01*
X175526863Y-95709129D01*
X175485681Y-95744813D01*
X175452424Y-95762811D01*
X175448313Y-95766010D01*
X175448311Y-95766012D01*
X175295189Y-95885193D01*
X175274760Y-95901094D01*
X175230980Y-95948651D01*
X175125806Y-96062899D01*
X175125803Y-96062903D01*
X175122278Y-96066732D01*
X175119427Y-96071096D01*
X175003372Y-96248732D01*
X174999140Y-96255209D01*
X174997048Y-96259978D01*
X174997046Y-96259982D01*
X174939491Y-96391196D01*
X174908704Y-96461384D01*
X174907422Y-96466445D01*
X174907422Y-96466446D01*
X174887355Y-96545690D01*
X174853436Y-96679632D01*
X174853006Y-96684823D01*
X174853005Y-96684828D01*
X174836910Y-96879069D01*
X174834844Y-96904000D01*
X174835274Y-96909189D01*
X174852061Y-97111772D01*
X174853436Y-97128368D01*
X174854717Y-97133426D01*
X174854717Y-97133427D01*
X174900395Y-97313803D01*
X174908704Y-97346616D01*
X174999140Y-97552791D01*
X175001990Y-97557153D01*
X175001992Y-97557157D01*
X175033483Y-97605357D01*
X175122278Y-97741268D01*
X175125803Y-97745097D01*
X175125806Y-97745101D01*
X175220343Y-97847794D01*
X175274760Y-97906906D01*
X175278879Y-97910112D01*
X175442462Y-98037435D01*
X175452424Y-98045189D01*
X175457005Y-98047668D01*
X175485680Y-98063186D01*
X175536071Y-98113199D01*
X175551423Y-98182516D01*
X175526863Y-98249129D01*
X175485681Y-98284813D01*
X175452424Y-98302811D01*
X175448313Y-98306010D01*
X175448311Y-98306012D01*
X175300218Y-98421279D01*
X175274760Y-98441094D01*
X175271228Y-98444931D01*
X175125806Y-98602899D01*
X175125803Y-98602903D01*
X175122278Y-98606732D01*
X175119427Y-98611096D01*
X175003372Y-98788732D01*
X174999140Y-98795209D01*
X174997048Y-98799978D01*
X174997046Y-98799982D01*
X174955962Y-98893645D01*
X174908704Y-99001384D01*
X174907422Y-99006445D01*
X174907422Y-99006446D01*
X174854717Y-99214573D01*
X174853436Y-99219632D01*
X174853006Y-99224823D01*
X174853005Y-99224828D01*
X174836940Y-99418700D01*
X174834844Y-99444000D01*
X174835274Y-99449189D01*
X174852415Y-99656045D01*
X174853436Y-99668368D01*
X174854717Y-99673426D01*
X174854717Y-99673427D01*
X174880566Y-99775500D01*
X174908704Y-99886616D01*
X174910800Y-99891394D01*
X174979003Y-100046882D01*
X174999140Y-100092791D01*
X175001990Y-100097153D01*
X175001992Y-100097157D01*
X175030030Y-100140072D01*
X175122278Y-100281268D01*
X175125803Y-100285097D01*
X175125806Y-100285101D01*
X175167139Y-100330000D01*
X175274760Y-100446906D01*
X175278879Y-100450112D01*
X175371813Y-100522446D01*
X175452424Y-100585189D01*
X175457005Y-100587668D01*
X175485680Y-100603186D01*
X175536071Y-100653199D01*
X175551423Y-100722516D01*
X175526863Y-100789129D01*
X175485681Y-100824813D01*
X175452424Y-100842811D01*
X175448313Y-100846010D01*
X175448311Y-100846012D01*
X175290657Y-100968721D01*
X175274760Y-100981094D01*
X175271228Y-100984931D01*
X175125806Y-101142899D01*
X175125803Y-101142903D01*
X175122278Y-101146732D01*
X175119427Y-101151096D01*
X175003372Y-101328732D01*
X174999140Y-101335209D01*
X174997048Y-101339978D01*
X174997046Y-101339982D01*
X174979558Y-101379852D01*
X174908704Y-101541384D01*
X174907422Y-101546445D01*
X174907422Y-101546446D01*
X174854828Y-101754134D01*
X174853436Y-101759632D01*
X174853006Y-101764823D01*
X174853005Y-101764828D01*
X174836910Y-101959069D01*
X174834844Y-101984000D01*
X174853436Y-102208368D01*
X174854717Y-102213426D01*
X174854717Y-102213427D01*
X174907166Y-102420541D01*
X174908704Y-102426616D01*
X174915743Y-102442664D01*
X174994814Y-102622928D01*
X174999140Y-102632791D01*
X175001990Y-102637153D01*
X175001992Y-102637157D01*
X175024041Y-102670905D01*
X175122278Y-102821268D01*
X175125803Y-102825097D01*
X175125806Y-102825101D01*
X175163557Y-102866109D01*
X175274760Y-102986906D01*
X175278879Y-102990112D01*
X175442462Y-103117435D01*
X175452424Y-103125189D01*
X175457005Y-103127668D01*
X175485680Y-103143186D01*
X175536071Y-103193199D01*
X175551423Y-103262516D01*
X175526863Y-103329129D01*
X175485681Y-103364813D01*
X175452424Y-103382811D01*
X175448313Y-103386010D01*
X175448311Y-103386012D01*
X175290657Y-103508721D01*
X175274760Y-103521094D01*
X175251851Y-103545980D01*
X175125806Y-103682899D01*
X175125803Y-103682903D01*
X175122278Y-103686732D01*
X175119427Y-103691096D01*
X175003372Y-103868732D01*
X174999140Y-103875209D01*
X174997048Y-103879978D01*
X174997046Y-103879982D01*
X174971793Y-103937554D01*
X174908704Y-104081384D01*
X174907422Y-104086445D01*
X174907422Y-104086446D01*
X174885039Y-104174834D01*
X174853436Y-104299632D01*
X174853006Y-104304823D01*
X174853005Y-104304828D01*
X174848247Y-104362251D01*
X174834844Y-104524000D01*
X174835274Y-104529189D01*
X174852669Y-104739111D01*
X174853436Y-104748368D01*
X174908704Y-104966616D01*
X174910800Y-104971394D01*
X174983885Y-105138012D01*
X174999140Y-105172791D01*
X175001990Y-105177153D01*
X175001992Y-105177157D01*
X175091448Y-105314079D01*
X175122278Y-105361268D01*
X175125803Y-105365097D01*
X175125806Y-105365101D01*
X175173183Y-105416565D01*
X175274760Y-105526906D01*
X175278879Y-105530112D01*
X175368578Y-105599928D01*
X175452424Y-105665189D01*
X175457005Y-105667668D01*
X175485680Y-105683186D01*
X175536071Y-105733199D01*
X175551423Y-105802516D01*
X175526863Y-105869129D01*
X175485681Y-105904813D01*
X175452424Y-105922811D01*
X175448313Y-105926010D01*
X175448311Y-105926012D01*
X175278879Y-106057888D01*
X175274760Y-106061094D01*
X175271228Y-106064931D01*
X175125806Y-106222899D01*
X175125803Y-106222903D01*
X175122278Y-106226732D01*
X175119427Y-106231096D01*
X175003372Y-106408732D01*
X174999140Y-106415209D01*
X174908704Y-106621384D01*
X174853436Y-106839632D01*
X174834844Y-107064000D01*
X174853436Y-107288368D01*
X174854717Y-107293426D01*
X174854717Y-107293427D01*
X174884209Y-107409886D01*
X174908704Y-107506616D01*
X174999140Y-107712791D01*
X175001990Y-107717153D01*
X175001992Y-107717157D01*
X175016701Y-107739670D01*
X175122278Y-107901268D01*
X175125803Y-107905097D01*
X175125806Y-107905101D01*
X175227360Y-108015417D01*
X175274760Y-108066906D01*
X175452424Y-108205189D01*
X175457005Y-108207668D01*
X175485680Y-108223186D01*
X175536071Y-108273199D01*
X175551423Y-108342516D01*
X175526863Y-108409129D01*
X175485681Y-108444813D01*
X175452424Y-108462811D01*
X175274760Y-108601094D01*
X175271228Y-108604931D01*
X175125806Y-108762899D01*
X175125803Y-108762903D01*
X175122278Y-108766732D01*
X175119427Y-108771096D01*
X175003372Y-108948732D01*
X174999140Y-108955209D01*
X174997048Y-108959978D01*
X174997046Y-108959982D01*
X174979566Y-108999834D01*
X174908704Y-109161384D01*
X174907422Y-109166445D01*
X174907422Y-109166446D01*
X174865231Y-109333056D01*
X174853436Y-109379632D01*
X174834844Y-109604000D01*
X174835274Y-109609189D01*
X174841148Y-109680072D01*
X174853436Y-109828368D01*
X174854717Y-109833426D01*
X174854717Y-109833427D01*
X174888860Y-109968252D01*
X174908704Y-110046616D01*
X174999140Y-110252791D01*
X175001990Y-110257153D01*
X175001992Y-110257157D01*
X175016701Y-110279670D01*
X175122278Y-110441268D01*
X175125803Y-110445097D01*
X175125806Y-110445101D01*
X175216809Y-110543955D01*
X175274760Y-110606906D01*
X175278879Y-110610112D01*
X175445971Y-110740166D01*
X175452424Y-110745189D01*
X175457005Y-110747668D01*
X175485680Y-110763186D01*
X175536071Y-110813199D01*
X175551423Y-110882516D01*
X175526863Y-110949129D01*
X175485681Y-110984813D01*
X175452424Y-111002811D01*
X175448313Y-111006010D01*
X175448311Y-111006012D01*
X175354969Y-111078664D01*
X175274760Y-111141094D01*
X175227360Y-111192583D01*
X175125806Y-111302899D01*
X175125803Y-111302903D01*
X175122278Y-111306732D01*
X175119427Y-111311096D01*
X175003372Y-111488732D01*
X174999140Y-111495209D01*
X174997048Y-111499978D01*
X174997046Y-111499982D01*
X174939491Y-111631196D01*
X174908704Y-111701384D01*
X174853436Y-111919632D01*
X174853006Y-111924823D01*
X174853005Y-111924828D01*
X174850405Y-111956206D01*
X174834844Y-112144000D01*
X174835274Y-112149189D01*
X174850742Y-112335851D01*
X174853436Y-112368368D01*
X174854717Y-112373426D01*
X174854717Y-112373427D01*
X174900395Y-112553803D01*
X174908704Y-112586616D01*
X174999140Y-112792791D01*
X175001990Y-112797153D01*
X175001992Y-112797157D01*
X175010280Y-112809842D01*
X175122278Y-112981268D01*
X175125803Y-112985097D01*
X175125806Y-112985101D01*
X175217707Y-113084931D01*
X175274760Y-113146906D01*
X175278879Y-113150112D01*
X175413710Y-113255056D01*
X175452424Y-113285189D01*
X175457005Y-113287668D01*
X175485680Y-113303186D01*
X175536071Y-113353199D01*
X175551423Y-113422516D01*
X175526863Y-113489129D01*
X175485681Y-113524813D01*
X175452424Y-113542811D01*
X175448313Y-113546010D01*
X175448311Y-113546012D01*
X175290157Y-113669110D01*
X175274760Y-113681094D01*
X175243808Y-113714717D01*
X175125806Y-113842899D01*
X175125803Y-113842903D01*
X175122278Y-113846732D01*
X175119427Y-113851096D01*
X175003372Y-114028732D01*
X174999140Y-114035209D01*
X174997048Y-114039978D01*
X174997046Y-114039982D01*
X174945599Y-114157271D01*
X174908704Y-114241384D01*
X174907422Y-114246445D01*
X174907422Y-114246446D01*
X174894383Y-114297937D01*
X174853436Y-114459632D01*
X174834844Y-114684000D01*
X174853436Y-114908368D01*
X174854717Y-114913426D01*
X174854717Y-114913427D01*
X174877706Y-115004206D01*
X174908704Y-115126616D01*
X174999140Y-115332791D01*
X175001990Y-115337153D01*
X175001992Y-115337157D01*
X175007080Y-115344944D01*
X175122278Y-115521268D01*
X175125803Y-115525097D01*
X175125806Y-115525101D01*
X175196416Y-115601803D01*
X175274760Y-115686906D01*
X175452424Y-115825189D01*
X175457005Y-115827668D01*
X175485680Y-115843186D01*
X175536071Y-115893199D01*
X175551423Y-115962516D01*
X175526863Y-116029129D01*
X175485681Y-116064813D01*
X175452424Y-116082811D01*
X175274760Y-116221094D01*
X175271228Y-116224931D01*
X175125806Y-116382899D01*
X175125803Y-116382903D01*
X175122278Y-116386732D01*
X175119427Y-116391096D01*
X175003372Y-116568732D01*
X174999140Y-116575209D01*
X174997048Y-116579978D01*
X174997046Y-116579982D01*
X174947408Y-116693147D01*
X174908704Y-116781384D01*
X174907422Y-116786445D01*
X174907422Y-116786446D01*
X174890061Y-116855003D01*
X174853436Y-116999632D01*
X174853006Y-117004823D01*
X174853005Y-117004828D01*
X174844750Y-117104454D01*
X174834844Y-117224000D01*
X174853436Y-117448368D01*
X174908704Y-117666616D01*
X174910800Y-117671394D01*
X174979003Y-117826882D01*
X174999140Y-117872791D01*
X175001990Y-117877153D01*
X175001992Y-117877157D01*
X175016701Y-117899670D01*
X175122278Y-118061268D01*
X175125803Y-118065097D01*
X175125806Y-118065101D01*
X175135976Y-118076148D01*
X175274760Y-118226906D01*
X175452424Y-118365189D01*
X175457005Y-118367668D01*
X175485680Y-118383186D01*
X175536071Y-118433199D01*
X175551423Y-118502516D01*
X175526863Y-118569129D01*
X175485681Y-118604813D01*
X175452424Y-118622811D01*
X175274760Y-118761094D01*
X175271228Y-118764931D01*
X175125806Y-118922899D01*
X175125803Y-118922903D01*
X175122278Y-118926732D01*
X175119427Y-118931096D01*
X175003372Y-119108732D01*
X174999140Y-119115209D01*
X174997048Y-119119978D01*
X174997046Y-119119982D01*
X174979558Y-119159852D01*
X174908704Y-119321384D01*
X174853436Y-119539632D01*
X174834844Y-119764000D01*
X174835274Y-119769189D01*
X174842991Y-119862313D01*
X174853436Y-119988368D01*
X174908704Y-120206616D01*
X174999140Y-120412791D01*
X175001990Y-120417153D01*
X175001992Y-120417157D01*
X175016701Y-120439670D01*
X175122278Y-120601268D01*
X175125803Y-120605097D01*
X175125806Y-120605101D01*
X175159832Y-120642062D01*
X175274760Y-120766906D01*
X175278879Y-120770112D01*
X175431621Y-120888997D01*
X175452424Y-120905189D01*
X175486208Y-120923472D01*
X175536597Y-120973485D01*
X175551949Y-121042802D01*
X175527388Y-121109415D01*
X175486206Y-121145099D01*
X175457281Y-121160752D01*
X175448589Y-121166431D01*
X175279211Y-121298263D01*
X175271568Y-121305300D01*
X175126210Y-121463201D01*
X175119823Y-121471407D01*
X175002431Y-121651087D01*
X174997488Y-121660222D01*
X174911270Y-121856777D01*
X174907900Y-121866592D01*
X174865903Y-122032439D01*
X174866433Y-122046530D01*
X174874855Y-122050000D01*
X175583460Y-122050000D01*
X175651581Y-122070002D01*
X175698074Y-122123658D01*
X175708178Y-122193931D01*
X175692353Y-122304000D01*
X175693635Y-122312917D01*
X175708178Y-122414069D01*
X175698073Y-122484343D01*
X175651580Y-122537998D01*
X175583460Y-122558000D01*
X174879571Y-122558000D01*
X174866040Y-122561973D01*
X174864744Y-122570986D01*
X174907900Y-122741408D01*
X174911270Y-122751223D01*
X174997488Y-122947778D01*
X175002431Y-122956913D01*
X175119823Y-123136593D01*
X175126210Y-123144799D01*
X175271568Y-123302700D01*
X175279211Y-123309737D01*
X175448589Y-123441569D01*
X175457282Y-123447248D01*
X175646043Y-123549401D01*
X175655560Y-123553575D01*
X175858557Y-123623264D01*
X175868627Y-123625815D01*
X175926133Y-123635411D01*
X175939648Y-123633777D01*
X175944000Y-123619551D01*
X175944000Y-122919365D01*
X175964002Y-122851244D01*
X176017658Y-122804751D01*
X176087932Y-122794647D01*
X176105495Y-122798468D01*
X176126039Y-122804500D01*
X176269961Y-122804500D01*
X176290504Y-122798468D01*
X176361500Y-122798469D01*
X176421226Y-122836854D01*
X176450718Y-122901435D01*
X176452000Y-122919365D01*
X176452000Y-123620277D01*
X176455836Y-123633340D01*
X176470584Y-123635291D01*
X176527373Y-123625815D01*
X176537443Y-123623264D01*
X176740440Y-123553575D01*
X176749957Y-123549401D01*
X176938718Y-123447248D01*
X176947411Y-123441569D01*
X177116789Y-123309737D01*
X177124432Y-123302700D01*
X177269790Y-123144799D01*
X177276177Y-123136593D01*
X177362218Y-123004899D01*
X177416222Y-122958811D01*
X177486570Y-122949236D01*
X177550927Y-122979214D01*
X177573183Y-123004898D01*
X177662278Y-123141268D01*
X177665803Y-123145097D01*
X177665806Y-123145101D01*
X177767360Y-123255417D01*
X177814760Y-123306906D01*
X177992424Y-123445189D01*
X177997005Y-123447668D01*
X178169553Y-123541046D01*
X178190426Y-123552342D01*
X178403365Y-123625444D01*
X178408499Y-123626301D01*
X178408504Y-123626302D01*
X178620294Y-123661643D01*
X178620296Y-123661643D01*
X178625431Y-123662500D01*
X178850569Y-123662500D01*
X178855704Y-123661643D01*
X178855706Y-123661643D01*
X179067496Y-123626302D01*
X179067501Y-123626301D01*
X179072635Y-123625444D01*
X179285574Y-123552342D01*
X179306448Y-123541046D01*
X179478995Y-123447668D01*
X179483576Y-123445189D01*
X179661240Y-123306906D01*
X179708640Y-123255417D01*
X179810194Y-123145101D01*
X179810197Y-123145097D01*
X179813722Y-123141268D01*
X179936860Y-122952791D01*
X180027296Y-122746616D01*
X180043787Y-122681497D01*
X180081283Y-122533427D01*
X180081283Y-122533426D01*
X180082564Y-122528368D01*
X180089352Y-122446457D01*
X180100726Y-122309189D01*
X180101156Y-122304000D01*
X180089495Y-122163275D01*
X180082995Y-122084828D01*
X180082994Y-122084823D01*
X180082564Y-122079632D01*
X180075060Y-122050000D01*
X180028578Y-121866446D01*
X180028578Y-121866445D01*
X180027296Y-121861384D01*
X179936860Y-121655209D01*
X179813722Y-121466732D01*
X179810197Y-121462903D01*
X179810194Y-121462899D01*
X179664772Y-121304931D01*
X179661240Y-121301094D01*
X179657121Y-121297888D01*
X179487689Y-121166012D01*
X179487687Y-121166010D01*
X179483576Y-121162811D01*
X179450320Y-121144814D01*
X179399929Y-121094801D01*
X179384577Y-121025484D01*
X179409137Y-120958871D01*
X179450320Y-120923186D01*
X179478995Y-120907668D01*
X179483576Y-120905189D01*
X179504380Y-120888997D01*
X179657121Y-120770112D01*
X179661240Y-120766906D01*
X179776168Y-120642062D01*
X179810194Y-120605101D01*
X179810197Y-120605097D01*
X179813722Y-120601268D01*
X179919299Y-120439670D01*
X179934008Y-120417157D01*
X179934010Y-120417153D01*
X179936860Y-120412791D01*
X180027296Y-120206616D01*
X180082564Y-119988368D01*
X180093010Y-119862313D01*
X180100726Y-119769189D01*
X180101156Y-119764000D01*
X180082564Y-119539632D01*
X180027296Y-119321384D01*
X179956442Y-119159852D01*
X179938954Y-119119982D01*
X179938952Y-119119978D01*
X179936860Y-119115209D01*
X179932629Y-119108732D01*
X179816573Y-118931096D01*
X179813722Y-118926732D01*
X179810197Y-118922903D01*
X179810194Y-118922899D01*
X179664772Y-118764931D01*
X179661240Y-118761094D01*
X179483576Y-118622811D01*
X179450320Y-118604814D01*
X179399929Y-118554801D01*
X179384577Y-118485484D01*
X179409137Y-118418871D01*
X179450320Y-118383186D01*
X179478995Y-118367668D01*
X179483576Y-118365189D01*
X179661240Y-118226906D01*
X179800024Y-118076148D01*
X179810194Y-118065101D01*
X179810197Y-118065097D01*
X179813722Y-118061268D01*
X179919299Y-117899670D01*
X179934008Y-117877157D01*
X179934010Y-117877153D01*
X179936860Y-117872791D01*
X179956998Y-117826882D01*
X180025200Y-117671394D01*
X180027296Y-117666616D01*
X180082564Y-117448368D01*
X180101156Y-117224000D01*
X180091250Y-117104454D01*
X180082995Y-117004828D01*
X180082994Y-117004823D01*
X180082564Y-116999632D01*
X180045939Y-116855003D01*
X180028578Y-116786446D01*
X180028578Y-116786445D01*
X180027296Y-116781384D01*
X179988592Y-116693147D01*
X179938954Y-116579982D01*
X179938952Y-116579978D01*
X179936860Y-116575209D01*
X179932629Y-116568732D01*
X179816573Y-116391096D01*
X179813722Y-116386732D01*
X179810197Y-116382903D01*
X179810194Y-116382899D01*
X179664772Y-116224931D01*
X179661240Y-116221094D01*
X179483576Y-116082811D01*
X179450320Y-116064814D01*
X179399929Y-116014801D01*
X179384577Y-115945484D01*
X179409137Y-115878871D01*
X179450320Y-115843186D01*
X179478995Y-115827668D01*
X179483576Y-115825189D01*
X179661240Y-115686906D01*
X179739584Y-115601803D01*
X179810194Y-115525101D01*
X179810197Y-115525097D01*
X179813722Y-115521268D01*
X179928920Y-115344944D01*
X179934008Y-115337157D01*
X179934010Y-115337153D01*
X179936860Y-115332791D01*
X180027296Y-115126616D01*
X180058295Y-115004206D01*
X180081283Y-114913427D01*
X180081283Y-114913426D01*
X180082564Y-114908368D01*
X180101156Y-114684000D01*
X180082564Y-114459632D01*
X180041617Y-114297937D01*
X180028578Y-114246446D01*
X180028578Y-114246445D01*
X180027296Y-114241384D01*
X179990401Y-114157271D01*
X179938954Y-114039982D01*
X179938952Y-114039978D01*
X179936860Y-114035209D01*
X179932629Y-114028732D01*
X179816573Y-113851096D01*
X179813722Y-113846732D01*
X179810197Y-113842903D01*
X179810194Y-113842899D01*
X179692192Y-113714717D01*
X179661240Y-113681094D01*
X179645843Y-113669110D01*
X179487689Y-113546012D01*
X179487687Y-113546010D01*
X179483576Y-113542811D01*
X179450320Y-113524814D01*
X179399929Y-113474801D01*
X179384577Y-113405484D01*
X179409137Y-113338871D01*
X179450320Y-113303186D01*
X179478995Y-113287668D01*
X179483576Y-113285189D01*
X179522291Y-113255056D01*
X179657121Y-113150112D01*
X179661240Y-113146906D01*
X179718293Y-113084931D01*
X179810194Y-112985101D01*
X179810197Y-112985097D01*
X179813722Y-112981268D01*
X179925720Y-112809842D01*
X179934008Y-112797157D01*
X179934010Y-112797153D01*
X179936860Y-112792791D01*
X180027296Y-112586616D01*
X180035606Y-112553803D01*
X180081283Y-112373427D01*
X180081283Y-112373426D01*
X180082564Y-112368368D01*
X180085259Y-112335851D01*
X180100726Y-112149189D01*
X180101156Y-112144000D01*
X180085595Y-111956206D01*
X180082995Y-111924828D01*
X180082994Y-111924823D01*
X180082564Y-111919632D01*
X180027296Y-111701384D01*
X179996509Y-111631196D01*
X179938954Y-111499982D01*
X179938952Y-111499978D01*
X179936860Y-111495209D01*
X179932629Y-111488732D01*
X179816573Y-111311096D01*
X179813722Y-111306732D01*
X179810197Y-111302903D01*
X179810194Y-111302899D01*
X179708640Y-111192583D01*
X179661240Y-111141094D01*
X179581031Y-111078664D01*
X179487689Y-111006012D01*
X179487687Y-111006010D01*
X179483576Y-111002811D01*
X179450320Y-110984814D01*
X179399929Y-110934801D01*
X179384577Y-110865484D01*
X179409137Y-110798871D01*
X179450320Y-110763186D01*
X179478995Y-110747668D01*
X179483576Y-110745189D01*
X179490030Y-110740166D01*
X179657121Y-110610112D01*
X179661240Y-110606906D01*
X179719191Y-110543955D01*
X179810194Y-110445101D01*
X179810197Y-110445097D01*
X179813722Y-110441268D01*
X179919299Y-110279670D01*
X179934008Y-110257157D01*
X179934010Y-110257153D01*
X179936860Y-110252791D01*
X180027296Y-110046616D01*
X180047141Y-109968252D01*
X180081283Y-109833427D01*
X180081283Y-109833426D01*
X180082564Y-109828368D01*
X180094853Y-109680072D01*
X180100726Y-109609189D01*
X180101156Y-109604000D01*
X180082564Y-109379632D01*
X180070769Y-109333056D01*
X180028578Y-109166446D01*
X180028578Y-109166445D01*
X180027296Y-109161384D01*
X179956434Y-108999834D01*
X179938954Y-108959982D01*
X179938952Y-108959978D01*
X179936860Y-108955209D01*
X179932629Y-108948732D01*
X179816573Y-108771096D01*
X179813722Y-108766732D01*
X179810197Y-108762903D01*
X179810194Y-108762899D01*
X179664772Y-108604931D01*
X179661240Y-108601094D01*
X179483576Y-108462811D01*
X179450320Y-108444814D01*
X179399929Y-108394801D01*
X179384577Y-108325484D01*
X179409137Y-108258871D01*
X179450320Y-108223186D01*
X179478995Y-108207668D01*
X179483576Y-108205189D01*
X179661240Y-108066906D01*
X179708640Y-108015417D01*
X179810194Y-107905101D01*
X179810197Y-107905097D01*
X179813722Y-107901268D01*
X179919299Y-107739670D01*
X179934008Y-107717157D01*
X179934010Y-107717153D01*
X179936860Y-107712791D01*
X180027296Y-107506616D01*
X180051792Y-107409886D01*
X180081283Y-107293427D01*
X180081283Y-107293426D01*
X180082564Y-107288368D01*
X180101156Y-107064000D01*
X180082564Y-106839632D01*
X180027296Y-106621384D01*
X179936860Y-106415209D01*
X179932629Y-106408732D01*
X179816573Y-106231096D01*
X179813722Y-106226732D01*
X179810197Y-106222903D01*
X179810194Y-106222899D01*
X179664772Y-106064931D01*
X179661240Y-106061094D01*
X179657121Y-106057888D01*
X179487689Y-105926012D01*
X179487687Y-105926010D01*
X179483576Y-105922811D01*
X179450320Y-105904814D01*
X179399929Y-105854801D01*
X179384577Y-105785484D01*
X179409137Y-105718871D01*
X179450320Y-105683186D01*
X179478995Y-105667668D01*
X179483576Y-105665189D01*
X179567423Y-105599928D01*
X179657121Y-105530112D01*
X179661240Y-105526906D01*
X179762817Y-105416565D01*
X179810194Y-105365101D01*
X179810197Y-105365097D01*
X179813722Y-105361268D01*
X179844552Y-105314079D01*
X179934008Y-105177157D01*
X179934010Y-105177153D01*
X179936860Y-105172791D01*
X179952116Y-105138012D01*
X180025200Y-104971394D01*
X180027296Y-104966616D01*
X180082564Y-104748368D01*
X180083332Y-104739111D01*
X180100726Y-104529189D01*
X180101156Y-104524000D01*
X180087753Y-104362251D01*
X180082995Y-104304828D01*
X180082994Y-104304823D01*
X180082564Y-104299632D01*
X180050961Y-104174834D01*
X180028578Y-104086446D01*
X180028578Y-104086445D01*
X180027296Y-104081384D01*
X179964207Y-103937554D01*
X179938954Y-103879982D01*
X179938952Y-103879978D01*
X179936860Y-103875209D01*
X179932629Y-103868732D01*
X179816573Y-103691096D01*
X179813722Y-103686732D01*
X179810197Y-103682903D01*
X179810194Y-103682899D01*
X179684149Y-103545980D01*
X179661240Y-103521094D01*
X179645343Y-103508721D01*
X179487689Y-103386012D01*
X179487687Y-103386010D01*
X179483576Y-103382811D01*
X179450320Y-103364814D01*
X179399929Y-103314801D01*
X179384577Y-103245484D01*
X179409137Y-103178871D01*
X179450320Y-103143186D01*
X179478995Y-103127668D01*
X179483576Y-103125189D01*
X179493539Y-103117435D01*
X179657121Y-102990112D01*
X179661240Y-102986906D01*
X179772443Y-102866109D01*
X179810194Y-102825101D01*
X179810197Y-102825097D01*
X179813722Y-102821268D01*
X179911959Y-102670905D01*
X179934008Y-102637157D01*
X179934010Y-102637153D01*
X179936860Y-102632791D01*
X179941187Y-102622928D01*
X180020257Y-102442664D01*
X180027296Y-102426616D01*
X180028835Y-102420541D01*
X180081283Y-102213427D01*
X180081283Y-102213426D01*
X180082564Y-102208368D01*
X180101156Y-101984000D01*
X180099090Y-101959069D01*
X180082995Y-101764828D01*
X180082994Y-101764823D01*
X180082564Y-101759632D01*
X180081172Y-101754134D01*
X180028578Y-101546446D01*
X180028578Y-101546445D01*
X180027296Y-101541384D01*
X179956442Y-101379852D01*
X179938954Y-101339982D01*
X179938952Y-101339978D01*
X179936860Y-101335209D01*
X179932629Y-101328732D01*
X179816573Y-101151096D01*
X179813722Y-101146732D01*
X179810197Y-101142903D01*
X179810194Y-101142899D01*
X179664772Y-100984931D01*
X179661240Y-100981094D01*
X179645343Y-100968721D01*
X179487689Y-100846012D01*
X179487687Y-100846010D01*
X179483576Y-100842811D01*
X179450320Y-100824814D01*
X179399929Y-100774801D01*
X179384577Y-100705484D01*
X179409137Y-100638871D01*
X179450320Y-100603186D01*
X179478995Y-100587668D01*
X179483576Y-100585189D01*
X179564188Y-100522446D01*
X179657121Y-100450112D01*
X179661240Y-100446906D01*
X179768861Y-100330000D01*
X179810194Y-100285101D01*
X179810197Y-100285097D01*
X179813722Y-100281268D01*
X179905970Y-100140072D01*
X179934008Y-100097157D01*
X179934010Y-100097153D01*
X179936860Y-100092791D01*
X179956998Y-100046882D01*
X180025200Y-99891394D01*
X180027296Y-99886616D01*
X180055435Y-99775500D01*
X180081283Y-99673427D01*
X180081283Y-99673426D01*
X180082564Y-99668368D01*
X180083586Y-99656045D01*
X180100726Y-99449189D01*
X180101156Y-99444000D01*
X180099060Y-99418700D01*
X180082995Y-99224828D01*
X180082994Y-99224823D01*
X180082564Y-99219632D01*
X180081283Y-99214573D01*
X180028578Y-99006446D01*
X180028578Y-99006445D01*
X180027296Y-99001384D01*
X179980038Y-98893645D01*
X179938954Y-98799982D01*
X179938952Y-98799978D01*
X179936860Y-98795209D01*
X179932629Y-98788732D01*
X179816573Y-98611096D01*
X179813722Y-98606732D01*
X179810197Y-98602903D01*
X179810194Y-98602899D01*
X179664772Y-98444931D01*
X179661240Y-98441094D01*
X179635782Y-98421279D01*
X179487689Y-98306012D01*
X179487687Y-98306010D01*
X179483576Y-98302811D01*
X179450320Y-98284814D01*
X179399929Y-98234801D01*
X179384577Y-98165484D01*
X179409137Y-98098871D01*
X179450320Y-98063186D01*
X179478995Y-98047668D01*
X179483576Y-98045189D01*
X179493539Y-98037435D01*
X179657121Y-97910112D01*
X179661240Y-97906906D01*
X179715657Y-97847794D01*
X179810194Y-97745101D01*
X179810197Y-97745097D01*
X179813722Y-97741268D01*
X179902517Y-97605357D01*
X179934008Y-97557157D01*
X179934010Y-97557153D01*
X179936860Y-97552791D01*
X180027296Y-97346616D01*
X180035606Y-97313803D01*
X180081283Y-97133427D01*
X180081283Y-97133426D01*
X180082564Y-97128368D01*
X180083940Y-97111772D01*
X180100726Y-96909189D01*
X180101156Y-96904000D01*
X180099090Y-96879069D01*
X180082995Y-96684828D01*
X180082994Y-96684823D01*
X180082564Y-96679632D01*
X180048645Y-96545690D01*
X180028578Y-96466446D01*
X180028578Y-96466445D01*
X180027296Y-96461384D01*
X179996509Y-96391196D01*
X179938954Y-96259982D01*
X179938952Y-96259978D01*
X179936860Y-96255209D01*
X179932629Y-96248732D01*
X179816573Y-96071096D01*
X179813722Y-96066732D01*
X179810197Y-96062903D01*
X179810194Y-96062899D01*
X179705020Y-95948651D01*
X179661240Y-95901094D01*
X179640811Y-95885193D01*
X179487689Y-95766012D01*
X179487687Y-95766010D01*
X179483576Y-95762811D01*
X179450320Y-95744814D01*
X179399929Y-95694801D01*
X179384577Y-95625484D01*
X179409137Y-95558871D01*
X179450320Y-95523186D01*
X179478995Y-95507668D01*
X179483576Y-95505189D01*
X179510755Y-95484035D01*
X179657121Y-95370112D01*
X179661240Y-95366906D01*
X179725940Y-95296624D01*
X179810194Y-95205101D01*
X179810197Y-95205097D01*
X179813722Y-95201268D01*
X179898655Y-95071268D01*
X179934008Y-95017157D01*
X179934010Y-95017153D01*
X179936860Y-95012791D01*
X179970826Y-94935357D01*
X180025200Y-94811394D01*
X180027296Y-94806616D01*
X180049077Y-94720607D01*
X180081283Y-94593427D01*
X180081283Y-94593426D01*
X180082564Y-94588368D01*
X180085035Y-94558556D01*
X180100726Y-94369189D01*
X180101156Y-94364000D01*
X180082564Y-94139632D01*
X180050959Y-94014828D01*
X180028578Y-93926446D01*
X180028578Y-93926445D01*
X180027296Y-93921384D01*
X179970273Y-93791384D01*
X179938954Y-93719982D01*
X179938952Y-93719978D01*
X179936860Y-93715209D01*
X179932629Y-93708732D01*
X179816573Y-93531096D01*
X179813722Y-93526732D01*
X179810197Y-93522903D01*
X179810194Y-93522899D01*
X179664772Y-93364931D01*
X179661240Y-93361094D01*
X179483576Y-93222811D01*
X179450320Y-93204814D01*
X179399929Y-93154801D01*
X179384577Y-93085484D01*
X179409137Y-93018871D01*
X179450320Y-92983186D01*
X179478995Y-92967668D01*
X179483576Y-92965189D01*
X179512930Y-92942342D01*
X179657121Y-92830112D01*
X179661240Y-92826906D01*
X179708640Y-92775417D01*
X179810194Y-92665101D01*
X179810197Y-92665097D01*
X179813722Y-92661268D01*
X179844552Y-92614079D01*
X179934008Y-92477157D01*
X179934010Y-92477153D01*
X179936860Y-92472791D01*
X179942519Y-92459891D01*
X180025200Y-92271394D01*
X180027296Y-92266616D01*
X180037249Y-92227315D01*
X180081283Y-92053427D01*
X180081283Y-92053426D01*
X180082564Y-92048368D01*
X180086887Y-91996208D01*
X180100726Y-91829189D01*
X180101156Y-91824000D01*
X180089726Y-91686062D01*
X180082995Y-91604828D01*
X180082994Y-91604823D01*
X180082564Y-91599632D01*
X180050959Y-91474828D01*
X180028578Y-91386446D01*
X180028578Y-91386445D01*
X180027296Y-91381384D01*
X179970273Y-91251384D01*
X179938954Y-91179982D01*
X179938952Y-91179978D01*
X179936860Y-91175209D01*
X179932629Y-91168732D01*
X179816573Y-90991096D01*
X179813722Y-90986732D01*
X179810197Y-90982903D01*
X179810194Y-90982899D01*
X179664772Y-90824931D01*
X179661240Y-90821094D01*
X179483576Y-90682811D01*
X179450320Y-90664814D01*
X179399929Y-90614801D01*
X179384577Y-90545484D01*
X179409137Y-90478871D01*
X179450320Y-90443186D01*
X179478995Y-90427668D01*
X179483576Y-90425189D01*
X179496413Y-90415198D01*
X179657121Y-90290112D01*
X179661240Y-90286906D01*
X179810193Y-90125102D01*
X179810194Y-90125101D01*
X179810197Y-90125097D01*
X179813722Y-90121268D01*
X179919299Y-89959670D01*
X179934008Y-89937157D01*
X179934010Y-89937153D01*
X179936860Y-89932791D01*
X179946061Y-89911816D01*
X180025200Y-89731394D01*
X180027296Y-89726616D01*
X180078094Y-89526022D01*
X180081283Y-89513427D01*
X180081283Y-89513426D01*
X180082564Y-89508368D01*
X180088988Y-89430850D01*
X180100726Y-89289189D01*
X180101156Y-89284000D01*
X180091684Y-89169695D01*
X180082995Y-89064828D01*
X180082994Y-89064823D01*
X180082564Y-89059632D01*
X180027296Y-88841384D01*
X179968854Y-88708149D01*
X179938954Y-88639982D01*
X179938952Y-88639978D01*
X179936860Y-88635209D01*
X179932629Y-88628732D01*
X179816573Y-88451096D01*
X179813722Y-88446732D01*
X179810197Y-88442903D01*
X179810194Y-88442899D01*
X179682044Y-88303693D01*
X179661240Y-88281094D01*
X179483576Y-88142811D01*
X179450320Y-88124814D01*
X179399929Y-88074801D01*
X179384577Y-88005484D01*
X179409137Y-87938871D01*
X179450320Y-87903186D01*
X179478995Y-87887668D01*
X179483576Y-87885189D01*
X179496047Y-87875483D01*
X179657121Y-87750112D01*
X179661240Y-87746906D01*
X179708640Y-87695417D01*
X179810194Y-87585101D01*
X179810197Y-87585097D01*
X179813722Y-87581268D01*
X179919299Y-87419670D01*
X179934008Y-87397157D01*
X179934010Y-87397153D01*
X179936860Y-87392791D01*
X179943399Y-87377885D01*
X180025200Y-87191394D01*
X180027296Y-87186616D01*
X180073871Y-87002698D01*
X180081283Y-86973427D01*
X180081283Y-86973426D01*
X180082564Y-86968368D01*
X180093774Y-86833092D01*
X180100726Y-86749189D01*
X180101156Y-86744000D01*
X180099269Y-86721233D01*
X180082995Y-86524828D01*
X180082994Y-86524823D01*
X180082564Y-86519632D01*
X180081283Y-86514573D01*
X180028578Y-86306446D01*
X180028578Y-86306445D01*
X180027296Y-86301384D01*
X179972558Y-86176592D01*
X179938954Y-86099982D01*
X179938952Y-86099978D01*
X179936860Y-86095209D01*
X179932629Y-86088732D01*
X179816573Y-85911096D01*
X179813722Y-85906732D01*
X179810197Y-85902903D01*
X179810194Y-85902899D01*
X179664772Y-85744931D01*
X179661240Y-85741094D01*
X179657121Y-85737888D01*
X179487689Y-85606012D01*
X179487687Y-85606010D01*
X179483576Y-85602811D01*
X179450320Y-85584814D01*
X179399929Y-85534801D01*
X179384577Y-85465484D01*
X179409137Y-85398871D01*
X179450320Y-85363186D01*
X179478995Y-85347668D01*
X179483576Y-85345189D01*
X179512930Y-85322342D01*
X179657121Y-85210112D01*
X179661240Y-85206906D01*
X179708640Y-85155417D01*
X179810194Y-85045101D01*
X179810197Y-85045097D01*
X179813722Y-85041268D01*
X179898655Y-84911268D01*
X179934008Y-84857157D01*
X179934010Y-84857153D01*
X179936860Y-84852791D01*
X180027296Y-84646616D01*
X180061499Y-84511554D01*
X180081283Y-84433427D01*
X180081283Y-84433426D01*
X180082564Y-84428368D01*
X180101156Y-84204000D01*
X180082564Y-83979632D01*
X180050959Y-83854828D01*
X180028578Y-83766446D01*
X180028578Y-83766445D01*
X180027296Y-83761384D01*
X179968551Y-83627458D01*
X179938954Y-83559982D01*
X179938952Y-83559978D01*
X179936860Y-83555209D01*
X179932629Y-83548732D01*
X179816573Y-83371096D01*
X179813722Y-83366732D01*
X179810197Y-83362903D01*
X179810194Y-83362899D01*
X179664772Y-83204931D01*
X179661240Y-83201094D01*
X179483576Y-83062811D01*
X179450320Y-83044814D01*
X179399929Y-82994801D01*
X179384577Y-82925484D01*
X179409137Y-82858871D01*
X179450320Y-82823186D01*
X179478995Y-82807668D01*
X179483576Y-82805189D01*
X179552301Y-82751698D01*
X179657121Y-82670112D01*
X179661240Y-82666906D01*
X179708640Y-82615417D01*
X179810194Y-82505101D01*
X179810197Y-82505097D01*
X179813722Y-82501268D01*
X179919299Y-82339670D01*
X179934008Y-82317157D01*
X179934010Y-82317153D01*
X179936860Y-82312791D01*
X180027296Y-82106616D01*
X180082564Y-81888368D01*
X180101156Y-81664000D01*
X180082564Y-81439632D01*
X180055422Y-81332451D01*
X180028578Y-81226446D01*
X180028578Y-81226445D01*
X180027296Y-81221384D01*
X179936860Y-81015209D01*
X179932629Y-81008732D01*
X179816573Y-80831096D01*
X179813722Y-80826732D01*
X179810197Y-80822903D01*
X179810194Y-80822899D01*
X179664772Y-80664931D01*
X179661240Y-80661094D01*
X179483576Y-80522811D01*
X179449792Y-80504528D01*
X179399403Y-80454515D01*
X179384051Y-80385198D01*
X179408612Y-80318585D01*
X179449794Y-80282901D01*
X179478719Y-80267248D01*
X179487411Y-80261569D01*
X179656789Y-80129737D01*
X179664432Y-80122700D01*
X179809790Y-79964799D01*
X179816177Y-79956593D01*
X179933569Y-79776913D01*
X179938512Y-79767778D01*
X180024730Y-79571223D01*
X180028100Y-79561408D01*
X180070097Y-79395561D01*
X180069567Y-79381470D01*
X180061145Y-79378000D01*
X179352540Y-79378000D01*
X179284419Y-79357998D01*
X179237926Y-79304342D01*
X179227822Y-79234069D01*
X179242365Y-79132917D01*
X179243647Y-79124000D01*
X179227822Y-79013931D01*
X179237927Y-78943657D01*
X179284420Y-78890002D01*
X179352540Y-78870000D01*
X180056429Y-78870000D01*
X180069960Y-78866027D01*
X180071256Y-78857014D01*
X180028100Y-78686592D01*
X180024730Y-78676777D01*
X179938512Y-78480222D01*
X179933569Y-78471087D01*
X179816177Y-78291407D01*
X179809790Y-78283201D01*
X179664432Y-78125300D01*
X179656789Y-78118263D01*
X179487411Y-77986431D01*
X179478719Y-77980752D01*
X179449794Y-77965099D01*
X179399403Y-77915086D01*
X179384051Y-77845769D01*
X179408612Y-77779156D01*
X179449792Y-77743472D01*
X179483576Y-77725189D01*
X179567423Y-77659928D01*
X179657121Y-77590112D01*
X179661240Y-77586906D01*
X179768861Y-77470000D01*
X179810194Y-77425101D01*
X179810197Y-77425097D01*
X179813722Y-77421268D01*
X179906224Y-77279683D01*
X179934008Y-77237157D01*
X179934010Y-77237153D01*
X179936860Y-77232791D01*
X179943399Y-77217885D01*
X180025200Y-77031394D01*
X180027296Y-77026616D01*
X180073871Y-76842698D01*
X180081283Y-76813427D01*
X180081283Y-76813426D01*
X180082564Y-76808368D01*
X180083465Y-76797504D01*
X180100726Y-76589189D01*
X180101156Y-76584000D01*
X180099269Y-76561233D01*
X180082995Y-76364828D01*
X180082994Y-76364823D01*
X180082564Y-76359632D01*
X180078950Y-76345361D01*
X180028578Y-76146446D01*
X180028578Y-76146445D01*
X180027296Y-76141384D01*
X179936860Y-75935209D01*
X179932629Y-75928732D01*
X179816573Y-75751096D01*
X179813722Y-75746732D01*
X179810197Y-75742903D01*
X179810194Y-75742899D01*
X179664772Y-75584931D01*
X179661240Y-75581094D01*
X179640563Y-75565000D01*
X179487689Y-75446012D01*
X179487687Y-75446010D01*
X179483576Y-75442811D01*
X179450320Y-75424814D01*
X179399929Y-75374801D01*
X179384577Y-75305484D01*
X179409137Y-75238871D01*
X179450320Y-75203186D01*
X179478995Y-75187668D01*
X179483576Y-75185189D01*
X179661240Y-75046906D01*
X179745489Y-74955388D01*
X179810194Y-74885101D01*
X179810197Y-74885097D01*
X179813722Y-74881268D01*
X179870592Y-74794222D01*
X179934008Y-74697157D01*
X179934010Y-74697153D01*
X179936860Y-74692791D01*
X179968817Y-74619937D01*
X180023108Y-74496164D01*
X180027296Y-74486616D01*
X180031145Y-74471419D01*
X180081283Y-74273427D01*
X180081283Y-74273426D01*
X180082564Y-74268368D01*
X180083505Y-74257019D01*
X180100726Y-74049189D01*
X180101156Y-74044000D01*
X180094778Y-73967025D01*
X180082995Y-73824828D01*
X180082994Y-73824823D01*
X180082564Y-73819632D01*
X180027296Y-73601384D01*
X179987259Y-73510109D01*
X179938954Y-73399982D01*
X179938952Y-73399978D01*
X179936860Y-73395209D01*
X179919501Y-73368638D01*
X179816573Y-73211096D01*
X179813722Y-73206732D01*
X179810197Y-73202903D01*
X179810194Y-73202899D01*
X179664772Y-73044931D01*
X179661240Y-73041094D01*
X179483576Y-72902811D01*
X179340424Y-72825341D01*
X179290159Y-72798139D01*
X179290156Y-72798138D01*
X179285574Y-72795658D01*
X179072635Y-72722556D01*
X179067501Y-72721699D01*
X179067496Y-72721698D01*
X178855706Y-72686357D01*
X178855704Y-72686357D01*
X178850569Y-72685500D01*
X178625431Y-72685500D01*
X178620296Y-72686357D01*
X178620294Y-72686357D01*
X178408504Y-72721698D01*
X178408499Y-72721699D01*
X178403365Y-72722556D01*
X178190426Y-72795658D01*
X178185844Y-72798138D01*
X178185841Y-72798139D01*
X178135576Y-72825341D01*
X177992424Y-72902811D01*
X177814760Y-73041094D01*
X177811228Y-73044931D01*
X177753755Y-73107362D01*
X177692901Y-73143933D01*
X177621937Y-73141798D01*
X177563392Y-73101636D01*
X177542998Y-73066056D01*
X177502038Y-72956239D01*
X177502037Y-72956237D01*
X177498889Y-72947796D01*
X177453819Y-72887589D01*
X177416659Y-72837950D01*
X177411261Y-72830739D01*
X177294204Y-72743111D01*
X177157201Y-72692011D01*
X177120295Y-72688043D01*
X177099988Y-72685860D01*
X177099985Y-72685860D01*
X177096638Y-72685500D01*
X175299362Y-72685500D01*
X175296015Y-72685860D01*
X175296012Y-72685860D01*
X175275705Y-72688043D01*
X175238799Y-72692011D01*
X175101796Y-72743111D01*
X174984739Y-72830739D01*
X174979341Y-72837950D01*
X174942182Y-72887589D01*
X174897111Y-72947796D01*
X174846011Y-73084799D01*
X174839500Y-73145362D01*
X174839500Y-74942638D01*
X174846011Y-75003201D01*
X174897111Y-75140204D01*
X174902510Y-75147416D01*
X174902511Y-75147418D01*
X174920175Y-75171014D01*
X174984739Y-75257261D01*
X174991950Y-75262659D01*
X175089465Y-75335658D01*
X175101796Y-75344889D01*
X175216808Y-75387787D01*
X175273642Y-75430333D01*
X175298453Y-75496853D01*
X175283361Y-75566227D01*
X175265475Y-75591180D01*
X175125806Y-75742899D01*
X175125803Y-75742903D01*
X175122278Y-75746732D01*
X175119427Y-75751096D01*
X175003372Y-75928732D01*
X174999140Y-75935209D01*
X174908704Y-76141384D01*
X174907422Y-76146445D01*
X174907422Y-76146446D01*
X174857050Y-76345361D01*
X174853436Y-76359632D01*
X174853006Y-76364823D01*
X174853005Y-76364828D01*
X174836731Y-76561233D01*
X174834844Y-76584000D01*
X174835274Y-76589189D01*
X174852536Y-76797504D01*
X174853436Y-76808368D01*
X174854717Y-76813426D01*
X174854717Y-76813427D01*
X174862130Y-76842698D01*
X174908704Y-77026616D01*
X174910800Y-77031394D01*
X174992602Y-77217885D01*
X174999140Y-77232791D01*
X175001990Y-77237153D01*
X175001992Y-77237157D01*
X175029776Y-77279683D01*
X175122278Y-77421268D01*
X175125803Y-77425097D01*
X175125806Y-77425101D01*
X175167139Y-77470000D01*
X175274760Y-77586906D01*
X175278879Y-77590112D01*
X175368578Y-77659928D01*
X175452424Y-77725189D01*
X175457005Y-77727668D01*
X175485680Y-77743186D01*
X175536071Y-77793199D01*
X175551423Y-77862516D01*
X175526863Y-77929129D01*
X175485681Y-77964813D01*
X175452424Y-77982811D01*
X175448313Y-77986010D01*
X175448311Y-77986012D01*
X175278879Y-78117888D01*
X175274760Y-78121094D01*
X175253956Y-78143693D01*
X175125806Y-78282899D01*
X175125803Y-78282903D01*
X175122278Y-78286732D01*
X175119427Y-78291096D01*
X175044641Y-78405565D01*
X174999140Y-78475209D01*
X174997048Y-78479978D01*
X174997046Y-78479982D01*
X174975339Y-78529470D01*
X174908704Y-78681384D01*
X174907422Y-78686445D01*
X174907422Y-78686446D01*
X174891931Y-78747620D01*
X174853436Y-78899632D01*
X174853006Y-78904823D01*
X174853005Y-78904828D01*
X174844649Y-79005676D01*
X174834844Y-79124000D01*
X174835274Y-79129189D01*
X174849788Y-79304342D01*
X174853436Y-79348368D01*
X174854717Y-79353426D01*
X174854717Y-79353427D01*
X174892214Y-79501497D01*
X174908704Y-79566616D01*
X174999140Y-79772791D01*
X175122278Y-79961268D01*
X175125803Y-79965097D01*
X175125806Y-79965101D01*
X175193784Y-80038944D01*
X175274760Y-80126906D01*
X175452424Y-80265189D01*
X175457005Y-80267668D01*
X175485680Y-80283186D01*
X175536071Y-80333199D01*
X175551423Y-80402516D01*
X175526863Y-80469129D01*
X175485681Y-80504813D01*
X175452424Y-80522811D01*
X175274760Y-80661094D01*
X175271228Y-80664931D01*
X175125806Y-80822899D01*
X175125803Y-80822903D01*
X175122278Y-80826732D01*
X175119427Y-80831096D01*
X175003372Y-81008732D01*
X174999140Y-81015209D01*
X174908704Y-81221384D01*
X174907422Y-81226445D01*
X174907422Y-81226446D01*
X174880578Y-81332451D01*
X174853436Y-81439632D01*
X174834844Y-81664000D01*
X174853436Y-81888368D01*
X174908704Y-82106616D01*
X174999140Y-82312791D01*
X175001990Y-82317153D01*
X175001992Y-82317157D01*
X175016701Y-82339670D01*
X175122278Y-82501268D01*
X175125803Y-82505097D01*
X175125806Y-82505101D01*
X175227360Y-82615417D01*
X175274760Y-82666906D01*
X175278879Y-82670112D01*
X175383700Y-82751698D01*
X175452424Y-82805189D01*
X175457005Y-82807668D01*
X175485680Y-82823186D01*
X175536071Y-82873199D01*
X175551423Y-82942516D01*
X175526863Y-83009129D01*
X175485681Y-83044813D01*
X175452424Y-83062811D01*
X175274760Y-83201094D01*
X175271228Y-83204931D01*
X175125806Y-83362899D01*
X175125803Y-83362903D01*
X175122278Y-83366732D01*
X175119427Y-83371096D01*
X175003372Y-83548732D01*
X174999140Y-83555209D01*
X174997048Y-83559978D01*
X174997046Y-83559982D01*
X174967449Y-83627458D01*
X174908704Y-83761384D01*
X174907422Y-83766445D01*
X174907422Y-83766446D01*
X174885041Y-83854828D01*
X174853436Y-83979632D01*
X174834844Y-84204000D01*
X174853436Y-84428368D01*
X174854717Y-84433426D01*
X174854717Y-84433427D01*
X174874502Y-84511554D01*
X174908704Y-84646616D01*
X174999140Y-84852791D01*
X175001990Y-84857153D01*
X175001992Y-84857157D01*
X175037345Y-84911268D01*
X175122278Y-85041268D01*
X175125803Y-85045097D01*
X175125806Y-85045101D01*
X175227360Y-85155417D01*
X175274760Y-85206906D01*
X175278879Y-85210112D01*
X175423071Y-85322342D01*
X175452424Y-85345189D01*
X175457005Y-85347668D01*
X175485680Y-85363186D01*
X175536071Y-85413199D01*
X175551423Y-85482516D01*
X175526863Y-85549129D01*
X175485681Y-85584813D01*
X175452424Y-85602811D01*
X175448313Y-85606010D01*
X175448311Y-85606012D01*
X175278879Y-85737888D01*
X175274760Y-85741094D01*
X175271228Y-85744931D01*
X175125806Y-85902899D01*
X175125803Y-85902903D01*
X175122278Y-85906732D01*
X175119427Y-85911096D01*
X175003372Y-86088732D01*
X174999140Y-86095209D01*
X174997048Y-86099978D01*
X174997046Y-86099982D01*
X174963442Y-86176592D01*
X174908704Y-86301384D01*
X174907422Y-86306445D01*
X174907422Y-86306446D01*
X174854717Y-86514573D01*
X174853436Y-86519632D01*
X174853006Y-86524823D01*
X174853005Y-86524828D01*
X174836731Y-86721233D01*
X174834844Y-86744000D01*
X174835274Y-86749189D01*
X174842227Y-86833092D01*
X174853436Y-86968368D01*
X174854717Y-86973426D01*
X174854717Y-86973427D01*
X174862130Y-87002698D01*
X174908704Y-87186616D01*
X174910800Y-87191394D01*
X174992602Y-87377885D01*
X174999140Y-87392791D01*
X175001990Y-87397153D01*
X175001992Y-87397157D01*
X175016701Y-87419670D01*
X175122278Y-87581268D01*
X175125803Y-87585097D01*
X175125806Y-87585101D01*
X175227360Y-87695417D01*
X175274760Y-87746906D01*
X175278879Y-87750112D01*
X175439954Y-87875483D01*
X175452424Y-87885189D01*
X175457005Y-87887668D01*
X175485680Y-87903186D01*
X175536071Y-87953199D01*
X175551423Y-88022516D01*
X175526863Y-88089129D01*
X175485681Y-88124813D01*
X175452424Y-88142811D01*
X175274760Y-88281094D01*
X175253956Y-88303693D01*
X175125807Y-88442898D01*
X175125804Y-88442901D01*
X175122278Y-88446732D01*
X175119429Y-88451093D01*
X175119428Y-88451094D01*
X175077535Y-88515216D01*
X175023531Y-88561304D01*
X174972052Y-88572300D01*
X174647315Y-88572300D01*
X174639706Y-88572070D01*
X174586320Y-88568840D01*
X174586318Y-88568840D01*
X174578713Y-88568380D01*
X174518580Y-88579400D01*
X174511081Y-88580541D01*
X174479809Y-88584338D01*
X174457994Y-88586987D01*
X174457992Y-88586988D01*
X174450428Y-88587906D01*
X174440801Y-88591557D01*
X174418837Y-88597680D01*
X174408713Y-88599535D01*
X174401762Y-88602663D01*
X174401760Y-88602664D01*
X174389171Y-88608330D01*
X174352986Y-88624616D01*
X174345965Y-88627524D01*
X174288827Y-88649193D01*
X174282561Y-88653518D01*
X174282559Y-88653519D01*
X174280353Y-88655042D01*
X174260495Y-88666242D01*
X174251107Y-88670467D01*
X174203001Y-88708156D01*
X174196893Y-88712650D01*
X174146589Y-88747372D01*
X174141538Y-88753073D01*
X174141534Y-88753077D01*
X174106062Y-88793118D01*
X174100844Y-88798660D01*
X171218660Y-91680844D01*
X171213118Y-91686062D01*
X171173077Y-91721534D01*
X171173073Y-91721538D01*
X171167372Y-91726589D01*
X171132650Y-91776893D01*
X171128156Y-91783001D01*
X171090467Y-91831107D01*
X171086244Y-91840491D01*
X171075042Y-91860353D01*
X171069193Y-91868827D01*
X171066491Y-91875952D01*
X171047524Y-91925964D01*
X171044616Y-91932986D01*
X171019535Y-91988713D01*
X171017680Y-91998837D01*
X171011557Y-92020801D01*
X171007906Y-92030428D01*
X171006988Y-92037992D01*
X171006987Y-92037994D01*
X171000543Y-92091068D01*
X170999400Y-92098580D01*
X170988380Y-92158713D01*
X170988840Y-92166318D01*
X170988840Y-92166320D01*
X170992070Y-92219706D01*
X170992300Y-92227315D01*
X170992300Y-93906010D01*
X170972298Y-93974131D01*
X170918642Y-94020624D01*
X170848368Y-94030728D01*
X170783788Y-94001234D01*
X170744156Y-93936941D01*
X170740217Y-93921384D01*
X170707296Y-93791384D01*
X170662093Y-93688330D01*
X170618954Y-93589982D01*
X170618952Y-93589978D01*
X170616860Y-93585209D01*
X170612629Y-93578732D01*
X170496573Y-93401096D01*
X170493722Y-93396732D01*
X170490197Y-93392903D01*
X170490194Y-93392899D01*
X170344772Y-93234931D01*
X170341240Y-93231094D01*
X170243220Y-93154801D01*
X170167689Y-93096012D01*
X170167687Y-93096010D01*
X170163576Y-93092811D01*
X170130320Y-93074814D01*
X170079929Y-93024801D01*
X170064577Y-92955484D01*
X170089137Y-92888871D01*
X170130320Y-92853186D01*
X170158995Y-92837668D01*
X170163576Y-92835189D01*
X170341240Y-92696906D01*
X170388640Y-92645417D01*
X170490194Y-92535101D01*
X170490197Y-92535097D01*
X170493722Y-92531268D01*
X170616860Y-92342791D01*
X170648178Y-92271394D01*
X170705200Y-92141394D01*
X170707296Y-92136616D01*
X170729644Y-92048368D01*
X170761283Y-91923427D01*
X170761283Y-91923426D01*
X170762564Y-91918368D01*
X170766670Y-91868827D01*
X170780726Y-91699189D01*
X170781156Y-91694000D01*
X170765710Y-91507597D01*
X170762995Y-91474828D01*
X170762994Y-91474823D01*
X170762564Y-91469632D01*
X170742341Y-91389773D01*
X170708578Y-91256446D01*
X170708578Y-91256445D01*
X170707296Y-91251384D01*
X170654186Y-91130305D01*
X170618954Y-91049982D01*
X170618952Y-91049978D01*
X170616860Y-91045209D01*
X170581507Y-90991096D01*
X170496573Y-90861096D01*
X170493722Y-90856732D01*
X170490197Y-90852903D01*
X170490194Y-90852899D01*
X170344772Y-90694931D01*
X170341240Y-90691094D01*
X170299180Y-90658357D01*
X170167689Y-90556012D01*
X170167687Y-90556010D01*
X170163576Y-90552811D01*
X170129792Y-90534528D01*
X170079403Y-90484515D01*
X170064051Y-90415198D01*
X170088612Y-90348585D01*
X170129794Y-90312901D01*
X170158721Y-90297247D01*
X170167410Y-90291570D01*
X170169394Y-90290026D01*
X170177862Y-90278259D01*
X170171304Y-90266514D01*
X169430812Y-89526022D01*
X169416868Y-89518408D01*
X169415035Y-89518539D01*
X169408420Y-89522790D01*
X168665123Y-90266087D01*
X168658173Y-90278814D01*
X168666130Y-90289655D01*
X168668590Y-90291570D01*
X168677279Y-90297247D01*
X168706206Y-90312901D01*
X168756597Y-90362914D01*
X168771949Y-90432231D01*
X168747388Y-90498844D01*
X168706208Y-90534528D01*
X168672424Y-90552811D01*
X168668313Y-90556010D01*
X168668311Y-90556012D01*
X168536820Y-90658357D01*
X168494760Y-90691094D01*
X168491228Y-90694931D01*
X168345806Y-90852899D01*
X168345803Y-90852903D01*
X168342278Y-90856732D01*
X168339427Y-90861096D01*
X168254494Y-90991096D01*
X168219140Y-91045209D01*
X168217048Y-91049978D01*
X168217046Y-91049982D01*
X168181814Y-91130305D01*
X168128704Y-91251384D01*
X168127422Y-91256445D01*
X168127422Y-91256446D01*
X168093659Y-91389773D01*
X168073436Y-91469632D01*
X168073006Y-91474823D01*
X168073005Y-91474828D01*
X168070290Y-91507597D01*
X168054844Y-91694000D01*
X168055274Y-91699189D01*
X168069331Y-91868827D01*
X168073436Y-91918368D01*
X168074717Y-91923426D01*
X168074717Y-91923427D01*
X168106357Y-92048368D01*
X168128704Y-92136616D01*
X168130800Y-92141394D01*
X168187823Y-92271394D01*
X168219140Y-92342791D01*
X168342278Y-92531268D01*
X168345803Y-92535097D01*
X168345806Y-92535101D01*
X168447360Y-92645417D01*
X168494760Y-92696906D01*
X168672424Y-92835189D01*
X168677005Y-92837668D01*
X168705680Y-92853186D01*
X168756071Y-92903199D01*
X168771423Y-92972516D01*
X168746863Y-93039129D01*
X168705681Y-93074813D01*
X168672424Y-93092811D01*
X168668313Y-93096010D01*
X168668311Y-93096012D01*
X168592780Y-93154801D01*
X168494760Y-93231094D01*
X168491228Y-93234931D01*
X168345806Y-93392899D01*
X168345803Y-93392903D01*
X168342278Y-93396732D01*
X168339427Y-93401096D01*
X168253483Y-93532643D01*
X168199479Y-93578732D01*
X168129132Y-93588307D01*
X168064774Y-93558330D01*
X168042517Y-93532643D01*
X167956573Y-93401096D01*
X167953722Y-93396732D01*
X167950197Y-93392903D01*
X167950194Y-93392899D01*
X167804772Y-93234931D01*
X167801240Y-93231094D01*
X167703220Y-93154801D01*
X167627689Y-93096012D01*
X167627687Y-93096010D01*
X167623576Y-93092811D01*
X167524380Y-93039129D01*
X167430159Y-92988139D01*
X167430156Y-92988138D01*
X167425574Y-92985658D01*
X167212635Y-92912556D01*
X167207501Y-92911699D01*
X167207496Y-92911698D01*
X166995706Y-92876357D01*
X166995704Y-92876357D01*
X166990569Y-92875500D01*
X166765431Y-92875500D01*
X166760296Y-92876357D01*
X166760294Y-92876357D01*
X166548504Y-92911698D01*
X166548499Y-92911699D01*
X166543365Y-92912556D01*
X166330426Y-92985658D01*
X166325844Y-92988138D01*
X166325841Y-92988139D01*
X166231620Y-93039129D01*
X166132424Y-93092811D01*
X166128313Y-93096010D01*
X166128311Y-93096012D01*
X166052780Y-93154801D01*
X165954760Y-93231094D01*
X165951228Y-93234931D01*
X165805806Y-93392899D01*
X165805803Y-93392903D01*
X165802278Y-93396732D01*
X165799427Y-93401096D01*
X165683372Y-93578732D01*
X165679140Y-93585209D01*
X165677048Y-93589978D01*
X165677046Y-93589982D01*
X165633907Y-93688330D01*
X165588704Y-93791384D01*
X165587422Y-93796445D01*
X165587422Y-93796446D01*
X165551844Y-93936941D01*
X165533436Y-94009632D01*
X165533006Y-94014823D01*
X165533005Y-94014828D01*
X165523083Y-94134573D01*
X165514844Y-94234000D01*
X165533436Y-94458368D01*
X165534717Y-94463426D01*
X165534717Y-94463427D01*
X165566357Y-94588368D01*
X165588704Y-94676616D01*
X165590800Y-94681394D01*
X165675235Y-94873888D01*
X165679140Y-94882791D01*
X165681990Y-94887153D01*
X165681992Y-94887157D01*
X165696701Y-94909670D01*
X165802278Y-95071268D01*
X165805803Y-95075097D01*
X165805806Y-95075101D01*
X165907360Y-95185417D01*
X165954760Y-95236906D01*
X166132424Y-95375189D01*
X166137005Y-95377668D01*
X166323691Y-95478697D01*
X166330426Y-95482342D01*
X166543365Y-95555444D01*
X166548499Y-95556301D01*
X166548516Y-95556305D01*
X166558790Y-95558019D01*
X166622689Y-95588960D01*
X166659717Y-95649537D01*
X166658116Y-95720515D01*
X166618395Y-95779361D01*
X166553166Y-95807390D01*
X166538051Y-95808300D01*
X161823303Y-95808300D01*
X161815695Y-95808070D01*
X161762321Y-95804841D01*
X161762319Y-95804841D01*
X161754713Y-95804381D01*
X161747216Y-95805755D01*
X161747214Y-95805755D01*
X161694603Y-95815396D01*
X161687081Y-95816541D01*
X161633994Y-95822987D01*
X161633992Y-95822988D01*
X161626428Y-95823906D01*
X161616801Y-95827557D01*
X161594838Y-95833679D01*
X161584712Y-95835535D01*
X161577759Y-95838664D01*
X161577760Y-95838664D01*
X161528998Y-95860610D01*
X161521966Y-95863523D01*
X161464827Y-95885193D01*
X161458561Y-95889518D01*
X161458559Y-95889519D01*
X161456353Y-95891042D01*
X161436492Y-95902244D01*
X161434054Y-95903341D01*
X161434052Y-95903342D01*
X161427107Y-95906468D01*
X161421110Y-95911166D01*
X161421109Y-95911167D01*
X161379024Y-95944139D01*
X161372892Y-95948651D01*
X161322589Y-95983372D01*
X161317535Y-95989077D01*
X161282054Y-96029127D01*
X161276836Y-96034669D01*
X158785191Y-98526313D01*
X154936109Y-102375395D01*
X154873797Y-102409421D01*
X154847014Y-102412300D01*
X154457303Y-102412300D01*
X154449695Y-102412070D01*
X154396321Y-102408841D01*
X154396319Y-102408841D01*
X154388713Y-102408381D01*
X154381216Y-102409755D01*
X154381214Y-102409755D01*
X154328603Y-102419396D01*
X154321081Y-102420541D01*
X154267994Y-102426987D01*
X154267992Y-102426988D01*
X154260428Y-102427906D01*
X154250801Y-102431557D01*
X154228838Y-102437679D01*
X154218712Y-102439535D01*
X154211759Y-102442664D01*
X154211760Y-102442664D01*
X154162998Y-102464610D01*
X154155966Y-102467523D01*
X154098827Y-102489193D01*
X154092561Y-102493518D01*
X154092559Y-102493519D01*
X154090353Y-102495042D01*
X154070492Y-102506244D01*
X154068054Y-102507341D01*
X154068052Y-102507342D01*
X154061107Y-102510468D01*
X154013009Y-102548150D01*
X154006891Y-102552650D01*
X153964876Y-102581652D01*
X153956589Y-102587372D01*
X153951538Y-102593073D01*
X153951534Y-102593077D01*
X153916062Y-102633118D01*
X153910844Y-102638660D01*
X153878599Y-102670905D01*
X153816287Y-102704931D01*
X153745472Y-102699866D01*
X153688636Y-102657319D01*
X153680385Y-102644811D01*
X153673445Y-102632791D01*
X153647040Y-102587056D01*
X153575265Y-102507341D01*
X153523675Y-102450045D01*
X153523674Y-102450044D01*
X153519253Y-102445134D01*
X153397028Y-102356332D01*
X153370094Y-102336763D01*
X153370093Y-102336762D01*
X153364752Y-102332882D01*
X153358724Y-102330198D01*
X153358722Y-102330197D01*
X153196319Y-102257891D01*
X153196318Y-102257891D01*
X153190288Y-102255206D01*
X153071704Y-102230000D01*
X153009944Y-102216872D01*
X153009939Y-102216872D01*
X153003487Y-102215500D01*
X152812513Y-102215500D01*
X152806061Y-102216872D01*
X152806056Y-102216872D01*
X152744296Y-102230000D01*
X152625712Y-102255206D01*
X152619682Y-102257891D01*
X152619681Y-102257891D01*
X152457278Y-102330197D01*
X152457276Y-102330198D01*
X152451248Y-102332882D01*
X152445907Y-102336762D01*
X152445906Y-102336763D01*
X152418972Y-102356332D01*
X152296747Y-102445134D01*
X152292326Y-102450044D01*
X152292325Y-102450045D01*
X152240736Y-102507341D01*
X152168960Y-102587056D01*
X152073473Y-102752444D01*
X152014458Y-102934072D01*
X152013768Y-102940633D01*
X152013768Y-102940635D01*
X151997839Y-103092197D01*
X151994496Y-103124000D01*
X151995186Y-103130565D01*
X152013183Y-103301794D01*
X152014458Y-103313928D01*
X152073473Y-103495556D01*
X152076776Y-103501278D01*
X152076777Y-103501279D01*
X152081074Y-103508721D01*
X152168960Y-103660944D01*
X152173378Y-103665851D01*
X152173379Y-103665852D01*
X152279210Y-103783389D01*
X152296747Y-103802866D01*
X152302089Y-103806747D01*
X152302091Y-103806749D01*
X152437969Y-103905470D01*
X152481323Y-103961692D01*
X152487398Y-104032429D01*
X152453003Y-104096501D01*
X145792109Y-110757395D01*
X145729797Y-110791421D01*
X145703014Y-110794300D01*
X143281320Y-110794300D01*
X143273712Y-110794070D01*
X143220320Y-110790840D01*
X143220319Y-110790840D01*
X143212713Y-110790380D01*
X143152580Y-110801400D01*
X143145081Y-110802541D01*
X143113809Y-110806338D01*
X143091994Y-110808987D01*
X143091992Y-110808988D01*
X143084428Y-110809906D01*
X143074801Y-110813557D01*
X143052837Y-110819680D01*
X143042713Y-110821535D01*
X143035762Y-110824663D01*
X143035760Y-110824664D01*
X143016315Y-110833416D01*
X142986986Y-110846616D01*
X142979965Y-110849524D01*
X142922827Y-110871193D01*
X142916561Y-110875518D01*
X142916559Y-110875519D01*
X142914353Y-110877042D01*
X142894495Y-110888242D01*
X142885107Y-110892467D01*
X142837001Y-110930156D01*
X142830893Y-110934650D01*
X142780589Y-110969372D01*
X142775538Y-110975073D01*
X142775534Y-110975077D01*
X142740062Y-111015118D01*
X142734844Y-111020660D01*
X140230660Y-113524844D01*
X140225118Y-113530062D01*
X140185077Y-113565534D01*
X140185073Y-113565538D01*
X140179372Y-113570589D01*
X140144650Y-113620893D01*
X140140156Y-113627001D01*
X140102467Y-113675107D01*
X140098244Y-113684491D01*
X140087042Y-113704353D01*
X140081193Y-113712827D01*
X140078491Y-113719952D01*
X140059524Y-113769964D01*
X140056616Y-113776986D01*
X140031535Y-113832713D01*
X140029680Y-113842837D01*
X140023557Y-113864801D01*
X140019906Y-113874428D01*
X140018988Y-113881992D01*
X140018987Y-113881994D01*
X140012543Y-113935068D01*
X140011400Y-113942580D01*
X140000380Y-114002713D01*
X140000840Y-114010318D01*
X140000840Y-114010320D01*
X140004070Y-114063706D01*
X140004300Y-114071315D01*
X140004300Y-114193660D01*
X139980391Y-114267245D01*
X139976960Y-114271056D01*
X139973660Y-114276772D01*
X139973657Y-114276776D01*
X139884777Y-114430721D01*
X139881473Y-114436444D01*
X139822458Y-114618072D01*
X139821768Y-114624633D01*
X139821768Y-114624635D01*
X139803186Y-114801435D01*
X139802496Y-114808000D01*
X139822458Y-114997928D01*
X139881473Y-115179556D01*
X139976960Y-115344944D01*
X140104747Y-115486866D01*
X140259248Y-115599118D01*
X140265276Y-115601802D01*
X140265278Y-115601803D01*
X140427681Y-115674109D01*
X140433712Y-115676794D01*
X140527113Y-115696647D01*
X140614056Y-115715128D01*
X140614061Y-115715128D01*
X140620513Y-115716500D01*
X140811487Y-115716500D01*
X140817939Y-115715128D01*
X140817944Y-115715128D01*
X140904887Y-115696647D01*
X140998288Y-115676794D01*
X141004319Y-115674109D01*
X141166722Y-115601803D01*
X141166724Y-115601802D01*
X141172752Y-115599118D01*
X141327253Y-115486866D01*
X141455040Y-115344944D01*
X141550527Y-115179556D01*
X141609542Y-114997928D01*
X141629504Y-114808000D01*
X141628814Y-114801435D01*
X141610232Y-114624635D01*
X141610232Y-114624633D01*
X141609542Y-114618072D01*
X141550527Y-114436444D01*
X141518901Y-114381667D01*
X141502163Y-114312672D01*
X141525383Y-114245580D01*
X141538925Y-114229571D01*
X142133885Y-113634611D01*
X142196197Y-113600585D01*
X142267012Y-113605650D01*
X142323848Y-113648197D01*
X142348659Y-113714717D01*
X142348290Y-113736872D01*
X142342496Y-113792000D01*
X142362458Y-113981928D01*
X142421473Y-114163556D01*
X142424776Y-114169278D01*
X142424777Y-114169279D01*
X142441009Y-114197393D01*
X142516960Y-114328944D01*
X142644747Y-114470866D01*
X142799248Y-114583118D01*
X142805276Y-114585802D01*
X142805278Y-114585803D01*
X142877756Y-114618072D01*
X142973712Y-114660794D01*
X143058475Y-114678811D01*
X143154056Y-114699128D01*
X143154061Y-114699128D01*
X143160513Y-114700500D01*
X143351487Y-114700500D01*
X143357939Y-114699128D01*
X143357944Y-114699128D01*
X143453525Y-114678811D01*
X143538288Y-114660794D01*
X143634244Y-114618072D01*
X143706722Y-114585803D01*
X143706724Y-114585802D01*
X143712752Y-114583118D01*
X143867253Y-114470866D01*
X143995040Y-114328944D01*
X144070991Y-114197393D01*
X144087223Y-114169279D01*
X144087224Y-114169278D01*
X144090527Y-114163556D01*
X144149542Y-113981928D01*
X144169504Y-113792000D01*
X144158251Y-113684931D01*
X144150232Y-113608635D01*
X144150232Y-113608633D01*
X144149542Y-113602072D01*
X144090527Y-113420444D01*
X143995040Y-113255056D01*
X143897662Y-113146906D01*
X143871675Y-113118045D01*
X143871674Y-113118044D01*
X143867253Y-113113134D01*
X143712752Y-113000882D01*
X143706724Y-112998198D01*
X143706722Y-112998197D01*
X143544319Y-112925891D01*
X143544318Y-112925891D01*
X143538288Y-112923206D01*
X143444887Y-112903353D01*
X143357944Y-112884872D01*
X143357939Y-112884872D01*
X143351487Y-112883500D01*
X143189186Y-112883500D01*
X143121065Y-112863498D01*
X143074572Y-112809842D01*
X143064468Y-112739568D01*
X143093962Y-112674988D01*
X143100091Y-112668405D01*
X143513891Y-112254605D01*
X143576203Y-112220579D01*
X143602986Y-112217700D01*
X146024685Y-112217700D01*
X146032294Y-112217930D01*
X146085680Y-112221160D01*
X146085682Y-112221160D01*
X146093287Y-112221620D01*
X146153420Y-112210600D01*
X146160919Y-112209459D01*
X146192191Y-112205662D01*
X146214006Y-112203013D01*
X146214008Y-112203012D01*
X146221572Y-112202094D01*
X146231199Y-112198443D01*
X146253163Y-112192320D01*
X146263287Y-112190465D01*
X146270238Y-112187337D01*
X146270240Y-112187336D01*
X146289685Y-112178584D01*
X146319014Y-112165384D01*
X146326033Y-112162477D01*
X146336201Y-112158621D01*
X146406987Y-112153166D01*
X146469485Y-112186847D01*
X146503853Y-112248971D01*
X146499178Y-112319814D01*
X146469977Y-112365527D01*
X138198660Y-120636844D01*
X138193118Y-120642062D01*
X138153077Y-120677534D01*
X138153073Y-120677538D01*
X138147372Y-120682589D01*
X138112650Y-120732893D01*
X138108156Y-120739001D01*
X138070467Y-120787107D01*
X138066244Y-120796491D01*
X138055042Y-120816353D01*
X138049193Y-120824827D01*
X138046491Y-120831952D01*
X138027524Y-120881964D01*
X138024616Y-120888986D01*
X137999535Y-120944713D01*
X137997680Y-120954837D01*
X137991557Y-120976801D01*
X137987906Y-120986428D01*
X137981096Y-121042516D01*
X137980543Y-121047068D01*
X137979400Y-121054580D01*
X137968380Y-121114713D01*
X137968840Y-121122318D01*
X137968840Y-121122320D01*
X137972070Y-121175706D01*
X137972300Y-121183315D01*
X137972300Y-124353660D01*
X137948391Y-124427245D01*
X137944960Y-124431056D01*
X137941660Y-124436772D01*
X137941657Y-124436776D01*
X137877416Y-124548045D01*
X137849473Y-124596444D01*
X137790458Y-124778072D01*
X137770496Y-124968000D01*
X136896495Y-124968000D01*
X131028809Y-119100313D01*
X130546496Y-118618000D01*
X134468496Y-118618000D01*
X134469186Y-118624565D01*
X134483536Y-118761094D01*
X134488458Y-118807928D01*
X134547473Y-118989556D01*
X134642960Y-119154944D01*
X134770747Y-119296866D01*
X134925248Y-119409118D01*
X134931276Y-119411802D01*
X134931278Y-119411803D01*
X135093681Y-119484109D01*
X135099712Y-119486794D01*
X135193113Y-119506647D01*
X135280056Y-119525128D01*
X135280061Y-119525128D01*
X135286513Y-119526500D01*
X135477487Y-119526500D01*
X135483939Y-119525128D01*
X135483944Y-119525128D01*
X135570887Y-119506647D01*
X135664288Y-119486794D01*
X135670319Y-119484109D01*
X135832722Y-119411803D01*
X135832724Y-119411802D01*
X135838752Y-119409118D01*
X135993253Y-119296866D01*
X136121040Y-119154944D01*
X136216527Y-118989556D01*
X136275542Y-118807928D01*
X136280465Y-118761094D01*
X136294814Y-118624565D01*
X136295504Y-118618000D01*
X136275542Y-118428072D01*
X136216527Y-118246444D01*
X136203032Y-118223069D01*
X136124341Y-118086774D01*
X136121040Y-118081056D01*
X136099294Y-118056904D01*
X135997675Y-117944045D01*
X135997674Y-117944044D01*
X135993253Y-117939134D01*
X135838752Y-117826882D01*
X135832724Y-117824198D01*
X135832722Y-117824197D01*
X135670319Y-117751891D01*
X135670318Y-117751891D01*
X135664288Y-117749206D01*
X135570887Y-117729353D01*
X135483944Y-117710872D01*
X135483939Y-117710872D01*
X135477487Y-117709500D01*
X135286513Y-117709500D01*
X135280061Y-117710872D01*
X135280056Y-117710872D01*
X135193113Y-117729353D01*
X135099712Y-117749206D01*
X135093682Y-117751891D01*
X135093681Y-117751891D01*
X134931278Y-117824197D01*
X134931276Y-117824198D01*
X134925248Y-117826882D01*
X134770747Y-117939134D01*
X134766326Y-117944044D01*
X134766325Y-117944045D01*
X134664707Y-118056904D01*
X134642960Y-118081056D01*
X134639659Y-118086774D01*
X134560969Y-118223069D01*
X134547473Y-118246444D01*
X134488458Y-118428072D01*
X134468496Y-118618000D01*
X130546496Y-118618000D01*
X128256605Y-116328109D01*
X128222579Y-116265797D01*
X128219700Y-116239014D01*
X128219700Y-109870000D01*
X137008496Y-109870000D01*
X137009186Y-109876565D01*
X137018823Y-109968252D01*
X137028458Y-110059928D01*
X137087473Y-110241556D01*
X137090776Y-110247278D01*
X137090777Y-110247279D01*
X137096480Y-110257157D01*
X137182960Y-110406944D01*
X137310747Y-110548866D01*
X137465248Y-110661118D01*
X137471276Y-110663802D01*
X137471278Y-110663803D01*
X137593385Y-110718168D01*
X137639712Y-110738794D01*
X137646173Y-110740167D01*
X137646175Y-110740168D01*
X137669440Y-110745114D01*
X137731913Y-110778843D01*
X137766233Y-110840993D01*
X137761504Y-110911832D01*
X137717302Y-110970296D01*
X137697320Y-110984814D01*
X137574342Y-111074163D01*
X137564747Y-111081134D01*
X137560326Y-111086044D01*
X137560325Y-111086045D01*
X137513646Y-111137888D01*
X137436960Y-111223056D01*
X137341473Y-111388444D01*
X137282458Y-111570072D01*
X137262496Y-111760000D01*
X137282458Y-111949928D01*
X137341473Y-112131556D01*
X137344776Y-112137278D01*
X137344777Y-112137279D01*
X137373395Y-112186847D01*
X137436960Y-112296944D01*
X137441378Y-112301851D01*
X137441379Y-112301852D01*
X137547210Y-112419389D01*
X137564747Y-112438866D01*
X137719248Y-112551118D01*
X137725276Y-112553802D01*
X137725278Y-112553803D01*
X137887681Y-112626109D01*
X137893712Y-112628794D01*
X137987112Y-112648647D01*
X138074056Y-112667128D01*
X138074061Y-112667128D01*
X138080513Y-112668500D01*
X138271487Y-112668500D01*
X138277939Y-112667128D01*
X138277944Y-112667128D01*
X138364888Y-112648647D01*
X138458288Y-112628794D01*
X138464319Y-112626109D01*
X138626722Y-112553803D01*
X138626724Y-112553802D01*
X138632752Y-112551118D01*
X138787253Y-112438866D01*
X138804790Y-112419389D01*
X138910621Y-112301852D01*
X138910622Y-112301851D01*
X138915040Y-112296944D01*
X138978605Y-112186847D01*
X139007223Y-112137279D01*
X139007224Y-112137278D01*
X139010527Y-112131556D01*
X139069542Y-111949928D01*
X139089504Y-111760000D01*
X139069542Y-111570072D01*
X139010527Y-111388444D01*
X138915040Y-111223056D01*
X138838355Y-111137888D01*
X138791675Y-111086045D01*
X138791674Y-111086044D01*
X138787253Y-111081134D01*
X138676039Y-111000332D01*
X138638094Y-110972763D01*
X138638093Y-110972762D01*
X138632752Y-110968882D01*
X138626724Y-110966198D01*
X138626722Y-110966197D01*
X138464319Y-110893891D01*
X138464318Y-110893891D01*
X138458288Y-110891206D01*
X138451827Y-110889833D01*
X138451825Y-110889832D01*
X138428560Y-110884886D01*
X138366087Y-110851157D01*
X138331767Y-110789007D01*
X138336496Y-110718168D01*
X138380698Y-110659704D01*
X138527909Y-110552749D01*
X138527911Y-110552747D01*
X138533253Y-110548866D01*
X138661040Y-110406944D01*
X138747520Y-110257157D01*
X138753223Y-110247279D01*
X138753224Y-110247278D01*
X138756527Y-110241556D01*
X138815542Y-110059928D01*
X138825178Y-109968252D01*
X138834814Y-109876565D01*
X138835504Y-109870000D01*
X139294496Y-109870000D01*
X139295186Y-109876565D01*
X139304823Y-109968252D01*
X139314458Y-110059928D01*
X139373473Y-110241556D01*
X139376776Y-110247278D01*
X139376777Y-110247279D01*
X139382480Y-110257157D01*
X139468960Y-110406944D01*
X139596747Y-110548866D01*
X139751248Y-110661118D01*
X139757276Y-110663802D01*
X139757278Y-110663803D01*
X139879385Y-110718168D01*
X139925712Y-110738794D01*
X140013222Y-110757395D01*
X140106056Y-110777128D01*
X140106061Y-110777128D01*
X140112513Y-110778500D01*
X140303487Y-110778500D01*
X140309939Y-110777128D01*
X140309944Y-110777128D01*
X140402778Y-110757395D01*
X140490288Y-110738794D01*
X140536615Y-110718168D01*
X140658722Y-110663803D01*
X140658724Y-110663802D01*
X140664752Y-110661118D01*
X140819253Y-110548866D01*
X140947040Y-110406944D01*
X141033520Y-110257157D01*
X141039223Y-110247279D01*
X141039224Y-110247278D01*
X141042527Y-110241556D01*
X141101542Y-110059928D01*
X141101682Y-110058599D01*
X141134482Y-109997844D01*
X141196632Y-109963523D01*
X141267471Y-109968252D01*
X141324508Y-110010528D01*
X141346276Y-110058192D01*
X141346458Y-110059928D01*
X141405473Y-110241556D01*
X141408776Y-110247278D01*
X141408777Y-110247279D01*
X141414480Y-110257157D01*
X141500960Y-110406944D01*
X141628747Y-110548866D01*
X141783248Y-110661118D01*
X141789276Y-110663802D01*
X141789278Y-110663803D01*
X141911385Y-110718168D01*
X141957712Y-110738794D01*
X142045222Y-110757395D01*
X142138056Y-110777128D01*
X142138061Y-110777128D01*
X142144513Y-110778500D01*
X142335487Y-110778500D01*
X142341939Y-110777128D01*
X142341944Y-110777128D01*
X142434778Y-110757395D01*
X142522288Y-110738794D01*
X142568615Y-110718168D01*
X142690722Y-110663803D01*
X142690724Y-110663802D01*
X142696752Y-110661118D01*
X142851253Y-110548866D01*
X142979040Y-110406944D01*
X143065520Y-110257157D01*
X143071223Y-110247279D01*
X143071224Y-110247278D01*
X143074527Y-110241556D01*
X143133542Y-110059928D01*
X143143178Y-109968252D01*
X143152814Y-109876565D01*
X143153504Y-109870000D01*
X143148582Y-109823172D01*
X143134232Y-109686635D01*
X143134232Y-109686633D01*
X143133542Y-109680072D01*
X143074527Y-109498444D01*
X142979040Y-109333056D01*
X142851253Y-109191134D01*
X142696752Y-109078882D01*
X142690724Y-109076198D01*
X142690722Y-109076197D01*
X142528319Y-109003891D01*
X142528318Y-109003891D01*
X142522288Y-109001206D01*
X142428888Y-108981353D01*
X142341944Y-108962872D01*
X142341939Y-108962872D01*
X142335487Y-108961500D01*
X142144513Y-108961500D01*
X142138061Y-108962872D01*
X142138056Y-108962872D01*
X142051112Y-108981353D01*
X141957712Y-109001206D01*
X141951682Y-109003891D01*
X141951681Y-109003891D01*
X141789278Y-109076197D01*
X141789276Y-109076198D01*
X141783248Y-109078882D01*
X141628747Y-109191134D01*
X141500960Y-109333056D01*
X141405473Y-109498444D01*
X141346458Y-109680072D01*
X141346318Y-109681401D01*
X141313518Y-109742156D01*
X141251368Y-109776477D01*
X141180529Y-109771748D01*
X141123492Y-109729472D01*
X141101724Y-109681808D01*
X141101542Y-109680072D01*
X141042527Y-109498444D01*
X140947040Y-109333056D01*
X140819253Y-109191134D01*
X140664752Y-109078882D01*
X140658724Y-109076198D01*
X140658722Y-109076197D01*
X140496319Y-109003891D01*
X140496318Y-109003891D01*
X140490288Y-109001206D01*
X140396888Y-108981353D01*
X140309944Y-108962872D01*
X140309939Y-108962872D01*
X140303487Y-108961500D01*
X140112513Y-108961500D01*
X140106061Y-108962872D01*
X140106056Y-108962872D01*
X140019112Y-108981353D01*
X139925712Y-109001206D01*
X139919682Y-109003891D01*
X139919681Y-109003891D01*
X139757278Y-109076197D01*
X139757276Y-109076198D01*
X139751248Y-109078882D01*
X139596747Y-109191134D01*
X139468960Y-109333056D01*
X139373473Y-109498444D01*
X139314458Y-109680072D01*
X139313768Y-109686633D01*
X139313768Y-109686635D01*
X139299418Y-109823172D01*
X139294496Y-109870000D01*
X138835504Y-109870000D01*
X138830582Y-109823172D01*
X138816232Y-109686635D01*
X138816232Y-109686633D01*
X138815542Y-109680072D01*
X138756527Y-109498444D01*
X138661040Y-109333056D01*
X138533253Y-109191134D01*
X138378752Y-109078882D01*
X138372724Y-109076198D01*
X138372722Y-109076197D01*
X138210319Y-109003891D01*
X138210318Y-109003891D01*
X138204288Y-109001206D01*
X138110888Y-108981353D01*
X138023944Y-108962872D01*
X138023939Y-108962872D01*
X138017487Y-108961500D01*
X137826513Y-108961500D01*
X137820061Y-108962872D01*
X137820056Y-108962872D01*
X137733112Y-108981353D01*
X137639712Y-109001206D01*
X137633682Y-109003891D01*
X137633681Y-109003891D01*
X137471278Y-109076197D01*
X137471276Y-109076198D01*
X137465248Y-109078882D01*
X137310747Y-109191134D01*
X137182960Y-109333056D01*
X137087473Y-109498444D01*
X137028458Y-109680072D01*
X137027768Y-109686633D01*
X137027768Y-109686635D01*
X137013418Y-109823172D01*
X137008496Y-109870000D01*
X128219700Y-109870000D01*
X128219700Y-107524500D01*
X128239702Y-107456379D01*
X128293358Y-107409886D01*
X128345700Y-107398500D01*
X129168638Y-107398500D01*
X129171985Y-107398140D01*
X129171988Y-107398140D01*
X129192295Y-107395957D01*
X129229201Y-107391989D01*
X129366204Y-107340889D01*
X129483261Y-107253261D01*
X129570889Y-107136204D01*
X129621989Y-106999201D01*
X129628500Y-106938638D01*
X129628500Y-105141362D01*
X129621989Y-105080799D01*
X129570889Y-104943796D01*
X129514260Y-104868148D01*
X129488659Y-104833950D01*
X129483261Y-104826739D01*
X129385328Y-104753427D01*
X129373418Y-104744511D01*
X129373416Y-104744510D01*
X129366204Y-104739111D01*
X129251192Y-104696213D01*
X129194358Y-104653667D01*
X129169547Y-104587147D01*
X129184639Y-104517773D01*
X129202525Y-104492820D01*
X129342194Y-104341101D01*
X129342197Y-104341097D01*
X129345722Y-104337268D01*
X129450949Y-104176206D01*
X129466008Y-104153157D01*
X129466010Y-104153153D01*
X129468860Y-104148791D01*
X129473650Y-104137872D01*
X129546610Y-103971537D01*
X129559296Y-103942616D01*
X129566260Y-103915118D01*
X129613283Y-103729427D01*
X129613283Y-103729426D01*
X129614564Y-103724368D01*
X129616970Y-103695339D01*
X129632726Y-103505189D01*
X129633156Y-103500000D01*
X129629017Y-103450050D01*
X129614995Y-103280828D01*
X129614994Y-103280823D01*
X129614564Y-103275632D01*
X129609086Y-103254000D01*
X129560578Y-103062446D01*
X129560578Y-103062445D01*
X129559296Y-103057384D01*
X129520942Y-102969944D01*
X129470954Y-102855982D01*
X129470952Y-102855978D01*
X129468860Y-102851209D01*
X129454484Y-102829204D01*
X129348573Y-102667096D01*
X129345722Y-102662732D01*
X129342197Y-102658903D01*
X129342194Y-102658899D01*
X129196772Y-102500931D01*
X129193240Y-102497094D01*
X129155248Y-102467523D01*
X129110893Y-102433000D01*
X143282296Y-102433000D01*
X143282986Y-102439565D01*
X143299121Y-102593077D01*
X143302258Y-102622928D01*
X143361273Y-102804556D01*
X143364576Y-102810278D01*
X143364577Y-102810279D01*
X143384701Y-102845135D01*
X143456760Y-102969944D01*
X143461178Y-102974851D01*
X143461179Y-102974852D01*
X143579530Y-103106294D01*
X143584547Y-103111866D01*
X143676771Y-103178871D01*
X143715672Y-103207134D01*
X143739048Y-103224118D01*
X143745076Y-103226802D01*
X143745078Y-103226803D01*
X143854809Y-103275658D01*
X143913512Y-103301794D01*
X144000133Y-103320206D01*
X144093856Y-103340128D01*
X144093861Y-103340128D01*
X144100313Y-103341500D01*
X144291287Y-103341500D01*
X144297739Y-103340128D01*
X144297744Y-103340128D01*
X144391467Y-103320206D01*
X144478088Y-103301794D01*
X144536791Y-103275658D01*
X144646522Y-103226803D01*
X144646524Y-103226802D01*
X144652552Y-103224118D01*
X144675929Y-103207134D01*
X144714829Y-103178871D01*
X144807053Y-103111866D01*
X144812070Y-103106294D01*
X144930421Y-102974852D01*
X144930422Y-102974851D01*
X144934840Y-102969944D01*
X145006899Y-102845135D01*
X145027023Y-102810279D01*
X145027024Y-102810278D01*
X145030327Y-102804556D01*
X145089342Y-102622928D01*
X145092480Y-102593077D01*
X145108614Y-102439565D01*
X145109304Y-102433000D01*
X145098499Y-102330197D01*
X145090032Y-102249635D01*
X145090032Y-102249633D01*
X145089342Y-102243072D01*
X145030327Y-102061444D01*
X145011451Y-102028749D01*
X144938141Y-101901774D01*
X144934840Y-101896056D01*
X144917886Y-101877226D01*
X144811475Y-101759045D01*
X144811474Y-101759044D01*
X144807053Y-101754134D01*
X144652552Y-101641882D01*
X144646524Y-101639198D01*
X144646522Y-101639197D01*
X144484119Y-101566891D01*
X144484118Y-101566891D01*
X144478088Y-101564206D01*
X144370720Y-101541384D01*
X144297744Y-101525872D01*
X144297739Y-101525872D01*
X144291287Y-101524500D01*
X144100313Y-101524500D01*
X144093861Y-101525872D01*
X144093856Y-101525872D01*
X144020880Y-101541384D01*
X143913512Y-101564206D01*
X143907482Y-101566891D01*
X143907481Y-101566891D01*
X143745078Y-101639197D01*
X143745076Y-101639198D01*
X143739048Y-101641882D01*
X143584547Y-101754134D01*
X143580126Y-101759044D01*
X143580125Y-101759045D01*
X143473715Y-101877226D01*
X143456760Y-101896056D01*
X143453459Y-101901774D01*
X143380150Y-102028749D01*
X143361273Y-102061444D01*
X143302258Y-102243072D01*
X143301568Y-102249633D01*
X143301568Y-102249635D01*
X143293101Y-102330197D01*
X143282296Y-102433000D01*
X129110893Y-102433000D01*
X129019689Y-102362012D01*
X129019687Y-102362010D01*
X129015576Y-102358811D01*
X128982320Y-102340814D01*
X128931929Y-102290801D01*
X128916577Y-102221484D01*
X128941137Y-102154871D01*
X128982320Y-102119186D01*
X129010995Y-102103668D01*
X129015576Y-102101189D01*
X129172806Y-101978811D01*
X129189121Y-101966112D01*
X129193240Y-101962906D01*
X129272115Y-101877226D01*
X129342194Y-101801101D01*
X129342197Y-101801097D01*
X129345722Y-101797268D01*
X129455580Y-101629118D01*
X129466008Y-101613157D01*
X129466010Y-101613153D01*
X129468860Y-101608791D01*
X129489019Y-101562834D01*
X129557200Y-101407394D01*
X129559296Y-101402616D01*
X129577472Y-101330843D01*
X129613283Y-101189427D01*
X129613283Y-101189426D01*
X129614564Y-101184368D01*
X129618001Y-101142899D01*
X129632726Y-100965189D01*
X129633156Y-100960000D01*
X129623047Y-100838000D01*
X146660496Y-100838000D01*
X146661186Y-100844565D01*
X146678863Y-101012749D01*
X146680458Y-101027928D01*
X146739473Y-101209556D01*
X146834960Y-101374944D01*
X146962747Y-101516866D01*
X147026016Y-101562834D01*
X147095280Y-101613157D01*
X147117248Y-101629118D01*
X147123276Y-101631802D01*
X147123278Y-101631803D01*
X147154633Y-101645763D01*
X147291712Y-101706794D01*
X147385112Y-101726647D01*
X147472056Y-101745128D01*
X147472061Y-101745128D01*
X147478513Y-101746500D01*
X147669487Y-101746500D01*
X147675939Y-101745128D01*
X147675944Y-101745128D01*
X147762887Y-101726647D01*
X147856288Y-101706794D01*
X147993367Y-101645763D01*
X148024722Y-101631803D01*
X148024724Y-101631802D01*
X148030752Y-101629118D01*
X148052721Y-101613157D01*
X148121984Y-101562834D01*
X148185253Y-101516866D01*
X148313040Y-101374944D01*
X148408527Y-101209556D01*
X148467542Y-101027928D01*
X148469138Y-101012749D01*
X148486814Y-100844565D01*
X148487504Y-100838000D01*
X148470062Y-100672045D01*
X148468232Y-100654635D01*
X148468232Y-100654633D01*
X148467542Y-100648072D01*
X148408527Y-100466444D01*
X148395032Y-100443069D01*
X148329751Y-100330000D01*
X148313040Y-100301056D01*
X148291294Y-100276904D01*
X148189675Y-100164045D01*
X148189674Y-100164044D01*
X148185253Y-100159134D01*
X148030752Y-100046882D01*
X148024724Y-100044198D01*
X148024722Y-100044197D01*
X147862319Y-99971891D01*
X147862318Y-99971891D01*
X147856288Y-99969206D01*
X147762888Y-99949353D01*
X147675944Y-99930872D01*
X147675939Y-99930872D01*
X147669487Y-99929500D01*
X147478513Y-99929500D01*
X147472061Y-99930872D01*
X147472056Y-99930872D01*
X147385112Y-99949353D01*
X147291712Y-99969206D01*
X147285682Y-99971891D01*
X147285681Y-99971891D01*
X147123278Y-100044197D01*
X147123276Y-100044198D01*
X147117248Y-100046882D01*
X146962747Y-100159134D01*
X146958326Y-100164044D01*
X146958325Y-100164045D01*
X146856707Y-100276904D01*
X146834960Y-100301056D01*
X146818249Y-100330000D01*
X146752969Y-100443069D01*
X146739473Y-100466444D01*
X146680458Y-100648072D01*
X146679768Y-100654633D01*
X146679768Y-100654635D01*
X146677938Y-100672045D01*
X146660496Y-100838000D01*
X129623047Y-100838000D01*
X129614564Y-100735632D01*
X129607384Y-100707279D01*
X129560578Y-100522446D01*
X129560578Y-100522445D01*
X129559296Y-100517384D01*
X129479982Y-100336565D01*
X129470954Y-100315982D01*
X129470952Y-100315978D01*
X129468860Y-100311209D01*
X129465963Y-100306774D01*
X129348573Y-100127096D01*
X129345722Y-100122732D01*
X129342197Y-100118903D01*
X129342194Y-100118899D01*
X129203127Y-99967834D01*
X129193240Y-99957094D01*
X129102691Y-99886616D01*
X129019689Y-99822012D01*
X129019687Y-99822010D01*
X129015576Y-99818811D01*
X128981792Y-99800528D01*
X128931403Y-99750515D01*
X128916051Y-99681198D01*
X128940612Y-99614585D01*
X128981794Y-99578901D01*
X129010719Y-99563248D01*
X129019411Y-99557569D01*
X129188789Y-99425737D01*
X129196432Y-99418700D01*
X129341790Y-99260799D01*
X129348177Y-99252593D01*
X129465569Y-99072913D01*
X129470512Y-99063778D01*
X129556730Y-98867223D01*
X129560100Y-98857408D01*
X129602097Y-98691561D01*
X129601567Y-98677470D01*
X129593145Y-98674000D01*
X126951571Y-98674000D01*
X126938040Y-98677973D01*
X126936744Y-98686986D01*
X126979900Y-98857408D01*
X126983270Y-98867223D01*
X127069488Y-99063778D01*
X127074431Y-99072913D01*
X127191823Y-99252593D01*
X127198210Y-99260799D01*
X127343568Y-99418700D01*
X127351211Y-99425737D01*
X127520589Y-99557569D01*
X127529281Y-99563248D01*
X127558206Y-99578901D01*
X127608597Y-99628914D01*
X127623949Y-99698231D01*
X127599388Y-99764844D01*
X127558208Y-99800528D01*
X127524424Y-99818811D01*
X127520313Y-99822010D01*
X127520311Y-99822012D01*
X127437309Y-99886616D01*
X127346760Y-99957094D01*
X127336873Y-99967834D01*
X127197806Y-100118899D01*
X127197803Y-100118903D01*
X127194278Y-100122732D01*
X127191427Y-100127096D01*
X127074038Y-100306774D01*
X127071140Y-100311209D01*
X127069048Y-100315978D01*
X127069046Y-100315982D01*
X127060018Y-100336565D01*
X126980704Y-100517384D01*
X126979422Y-100522445D01*
X126979422Y-100522446D01*
X126932616Y-100707279D01*
X126925436Y-100735632D01*
X126906844Y-100960000D01*
X126907274Y-100965189D01*
X126922000Y-101142899D01*
X126925436Y-101184368D01*
X126926717Y-101189426D01*
X126926717Y-101189427D01*
X126962529Y-101330843D01*
X126980704Y-101402616D01*
X126982800Y-101407394D01*
X127050982Y-101562834D01*
X127071140Y-101608791D01*
X127073990Y-101613153D01*
X127073992Y-101613157D01*
X127084420Y-101629118D01*
X127194278Y-101797268D01*
X127197803Y-101801097D01*
X127197806Y-101801101D01*
X127267885Y-101877226D01*
X127346760Y-101962906D01*
X127350879Y-101966112D01*
X127367195Y-101978811D01*
X127524424Y-102101189D01*
X127529005Y-102103668D01*
X127557680Y-102119186D01*
X127608071Y-102169199D01*
X127623423Y-102238516D01*
X127598863Y-102305129D01*
X127557681Y-102340813D01*
X127524424Y-102358811D01*
X127520313Y-102362010D01*
X127520311Y-102362012D01*
X127384752Y-102467523D01*
X127346760Y-102497094D01*
X127343228Y-102500931D01*
X127197806Y-102658899D01*
X127197803Y-102658903D01*
X127194278Y-102662732D01*
X127191427Y-102667096D01*
X127085517Y-102829204D01*
X127071140Y-102851209D01*
X127069048Y-102855978D01*
X127069046Y-102855982D01*
X127019058Y-102969944D01*
X126980704Y-103057384D01*
X126979422Y-103062445D01*
X126979422Y-103062446D01*
X126930914Y-103254000D01*
X126925436Y-103275632D01*
X126925006Y-103280823D01*
X126925005Y-103280828D01*
X126910983Y-103450050D01*
X126906844Y-103500000D01*
X126907274Y-103505189D01*
X126923031Y-103695339D01*
X126925436Y-103724368D01*
X126926717Y-103729426D01*
X126926717Y-103729427D01*
X126973741Y-103915118D01*
X126980704Y-103942616D01*
X126993390Y-103971537D01*
X127066351Y-104137872D01*
X127071140Y-104148791D01*
X127073990Y-104153153D01*
X127073992Y-104153157D01*
X127089051Y-104176206D01*
X127194278Y-104337268D01*
X127197803Y-104341097D01*
X127197806Y-104341101D01*
X127337475Y-104492820D01*
X127368896Y-104556485D01*
X127360909Y-104627031D01*
X127316051Y-104682060D01*
X127288809Y-104696213D01*
X127173796Y-104739111D01*
X127166584Y-104744510D01*
X127166582Y-104744511D01*
X127154672Y-104753427D01*
X127056739Y-104826739D01*
X127051341Y-104833950D01*
X127025741Y-104868148D01*
X126969111Y-104943796D01*
X126918011Y-105080799D01*
X126911500Y-105141362D01*
X126911500Y-105612066D01*
X126889197Y-105683641D01*
X126873193Y-105706827D01*
X126866731Y-105723866D01*
X126824160Y-105836118D01*
X126811906Y-105868428D01*
X126810987Y-105875997D01*
X126803067Y-105941226D01*
X126796300Y-105996953D01*
X126796300Y-116560685D01*
X126796070Y-116568294D01*
X126794602Y-116592565D01*
X126792380Y-116629287D01*
X124968500Y-116629287D01*
X124968500Y-95880000D01*
X126906844Y-95880000D01*
X126907274Y-95885189D01*
X126922000Y-96062899D01*
X126925436Y-96104368D01*
X126926717Y-96109426D01*
X126926717Y-96109427D01*
X126962529Y-96250843D01*
X126980704Y-96322616D01*
X127071140Y-96528791D01*
X127073990Y-96533153D01*
X127073992Y-96533157D01*
X127082183Y-96545694D01*
X127194278Y-96717268D01*
X127197803Y-96721097D01*
X127197806Y-96721101D01*
X127299360Y-96831417D01*
X127346760Y-96882906D01*
X127350879Y-96886112D01*
X127507532Y-97008041D01*
X127524424Y-97021189D01*
X127558208Y-97039472D01*
X127608597Y-97089485D01*
X127623949Y-97158802D01*
X127599388Y-97225415D01*
X127558206Y-97261099D01*
X127529281Y-97276752D01*
X127520589Y-97282431D01*
X127351211Y-97414263D01*
X127343568Y-97421300D01*
X127198210Y-97579201D01*
X127191823Y-97587407D01*
X127074431Y-97767087D01*
X127069488Y-97776222D01*
X126983270Y-97972777D01*
X126979900Y-97982592D01*
X126937903Y-98148439D01*
X126938433Y-98162530D01*
X126946855Y-98166000D01*
X129588429Y-98166000D01*
X129601960Y-98162027D01*
X129603256Y-98153014D01*
X129575650Y-98044000D01*
X147422496Y-98044000D01*
X147423186Y-98050565D01*
X147437240Y-98184277D01*
X147442458Y-98233928D01*
X147501473Y-98415556D01*
X147504776Y-98421278D01*
X147504777Y-98421279D01*
X147514366Y-98437888D01*
X147596960Y-98580944D01*
X147601378Y-98585851D01*
X147601379Y-98585852D01*
X147696560Y-98691561D01*
X147724747Y-98722866D01*
X147879248Y-98835118D01*
X147885276Y-98837802D01*
X147885278Y-98837803D01*
X148010702Y-98893645D01*
X148053712Y-98912794D01*
X148147112Y-98932647D01*
X148234056Y-98951128D01*
X148234061Y-98951128D01*
X148240513Y-98952500D01*
X148431487Y-98952500D01*
X148437939Y-98951128D01*
X148437944Y-98951128D01*
X148524888Y-98932647D01*
X148618288Y-98912794D01*
X148661298Y-98893645D01*
X148786722Y-98837803D01*
X148786724Y-98837802D01*
X148792752Y-98835118D01*
X148947253Y-98722866D01*
X148975440Y-98691561D01*
X149070621Y-98585852D01*
X149070622Y-98585851D01*
X149075040Y-98580944D01*
X149157634Y-98437888D01*
X149167223Y-98421279D01*
X149167224Y-98421278D01*
X149170527Y-98415556D01*
X149229542Y-98233928D01*
X149234761Y-98184277D01*
X149248814Y-98050565D01*
X149249504Y-98044000D01*
X149229542Y-97854072D01*
X149170527Y-97672444D01*
X149075040Y-97507056D01*
X149014854Y-97440212D01*
X148951675Y-97370045D01*
X148951674Y-97370044D01*
X148947253Y-97365134D01*
X148792752Y-97252882D01*
X148786724Y-97250198D01*
X148786722Y-97250197D01*
X148624319Y-97177891D01*
X148624318Y-97177891D01*
X148618288Y-97175206D01*
X148504865Y-97151097D01*
X148437944Y-97136872D01*
X148437939Y-97136872D01*
X148431487Y-97135500D01*
X148240513Y-97135500D01*
X148234061Y-97136872D01*
X148234056Y-97136872D01*
X148167135Y-97151097D01*
X148053712Y-97175206D01*
X148047682Y-97177891D01*
X148047681Y-97177891D01*
X147885278Y-97250197D01*
X147885276Y-97250198D01*
X147879248Y-97252882D01*
X147724747Y-97365134D01*
X147720326Y-97370044D01*
X147720325Y-97370045D01*
X147657147Y-97440212D01*
X147596960Y-97507056D01*
X147501473Y-97672444D01*
X147442458Y-97854072D01*
X147422496Y-98044000D01*
X129575650Y-98044000D01*
X129560100Y-97982592D01*
X129556730Y-97972777D01*
X129470512Y-97776222D01*
X129465569Y-97767087D01*
X129348177Y-97587407D01*
X129341790Y-97579201D01*
X129196432Y-97421300D01*
X129188789Y-97414263D01*
X129019411Y-97282431D01*
X129010719Y-97276752D01*
X128981794Y-97261099D01*
X128931403Y-97211086D01*
X128916051Y-97141769D01*
X128940612Y-97075156D01*
X128981792Y-97039472D01*
X129015576Y-97021189D01*
X129032469Y-97008041D01*
X129189121Y-96886112D01*
X129193240Y-96882906D01*
X129240640Y-96831417D01*
X129342194Y-96721101D01*
X129342197Y-96721097D01*
X129345722Y-96717268D01*
X129457817Y-96545694D01*
X129466008Y-96533157D01*
X129466010Y-96533153D01*
X129468860Y-96528791D01*
X129472716Y-96520000D01*
X150978496Y-96520000D01*
X150979186Y-96526565D01*
X150981197Y-96545694D01*
X150998458Y-96709928D01*
X151057473Y-96891556D01*
X151060776Y-96897278D01*
X151060777Y-96897279D01*
X151067653Y-96909189D01*
X151152960Y-97056944D01*
X151157378Y-97061851D01*
X151157379Y-97061852D01*
X151244673Y-97158802D01*
X151280747Y-97198866D01*
X151435248Y-97311118D01*
X151441276Y-97313802D01*
X151441278Y-97313803D01*
X151603681Y-97386109D01*
X151609712Y-97388794D01*
X151703112Y-97408647D01*
X151790056Y-97427128D01*
X151790061Y-97427128D01*
X151796513Y-97428500D01*
X151987487Y-97428500D01*
X151993939Y-97427128D01*
X151993944Y-97427128D01*
X152080888Y-97408647D01*
X152174288Y-97388794D01*
X152180319Y-97386109D01*
X152342722Y-97313803D01*
X152342724Y-97313802D01*
X152348752Y-97311118D01*
X152503253Y-97198866D01*
X152539327Y-97158802D01*
X152626621Y-97061852D01*
X152626622Y-97061851D01*
X152631040Y-97056944D01*
X152716347Y-96909189D01*
X152723223Y-96897279D01*
X152723224Y-96897278D01*
X152726527Y-96891556D01*
X152785542Y-96709928D01*
X152802804Y-96545694D01*
X152804814Y-96526565D01*
X152805504Y-96520000D01*
X152785542Y-96330072D01*
X152726527Y-96148444D01*
X152704001Y-96109427D01*
X152655346Y-96025155D01*
X152631040Y-95983056D01*
X152559265Y-95903341D01*
X152507675Y-95846045D01*
X152507674Y-95846044D01*
X152503253Y-95841134D01*
X152392039Y-95760332D01*
X152354094Y-95732763D01*
X152354093Y-95732762D01*
X152348752Y-95728882D01*
X152342724Y-95726198D01*
X152342722Y-95726197D01*
X152180319Y-95653891D01*
X152180318Y-95653891D01*
X152174288Y-95651206D01*
X152080888Y-95631353D01*
X151993944Y-95612872D01*
X151993939Y-95612872D01*
X151987487Y-95611500D01*
X151796513Y-95611500D01*
X151790061Y-95612872D01*
X151790056Y-95612872D01*
X151703112Y-95631353D01*
X151609712Y-95651206D01*
X151603682Y-95653891D01*
X151603681Y-95653891D01*
X151441278Y-95726197D01*
X151441276Y-95726198D01*
X151435248Y-95728882D01*
X151429907Y-95732762D01*
X151429906Y-95732763D01*
X151391961Y-95760332D01*
X151280747Y-95841134D01*
X151276326Y-95846044D01*
X151276325Y-95846045D01*
X151224736Y-95903341D01*
X151152960Y-95983056D01*
X151128654Y-96025155D01*
X151080000Y-96109427D01*
X151057473Y-96148444D01*
X150998458Y-96330072D01*
X150978496Y-96520000D01*
X129472716Y-96520000D01*
X129559296Y-96322616D01*
X129577472Y-96250843D01*
X129613283Y-96109427D01*
X129613283Y-96109426D01*
X129614564Y-96104368D01*
X129618001Y-96062899D01*
X129632726Y-95885189D01*
X129633156Y-95880000D01*
X129629607Y-95837173D01*
X129614995Y-95660828D01*
X129614994Y-95660823D01*
X129614564Y-95655632D01*
X129609086Y-95634000D01*
X129560578Y-95442446D01*
X129560578Y-95442445D01*
X129559296Y-95437384D01*
X129506653Y-95317368D01*
X129470954Y-95235982D01*
X129470952Y-95235978D01*
X129468860Y-95231209D01*
X129446448Y-95196904D01*
X129348573Y-95047096D01*
X129345722Y-95042732D01*
X129342197Y-95038903D01*
X129342194Y-95038899D01*
X129202504Y-94887157D01*
X129193240Y-94877094D01*
X129102691Y-94806616D01*
X129019689Y-94742012D01*
X129019687Y-94742010D01*
X129015576Y-94738811D01*
X128957915Y-94707607D01*
X128822159Y-94634139D01*
X128822156Y-94634138D01*
X128817574Y-94631658D01*
X128604635Y-94558556D01*
X128599501Y-94557699D01*
X128599496Y-94557698D01*
X128387706Y-94522357D01*
X128387704Y-94522357D01*
X128382569Y-94521500D01*
X128157431Y-94521500D01*
X128152296Y-94522357D01*
X128152294Y-94522357D01*
X127940504Y-94557698D01*
X127940499Y-94557699D01*
X127935365Y-94558556D01*
X127722426Y-94631658D01*
X127717844Y-94634138D01*
X127717841Y-94634139D01*
X127582085Y-94707607D01*
X127524424Y-94738811D01*
X127520313Y-94742010D01*
X127520311Y-94742012D01*
X127437309Y-94806616D01*
X127346760Y-94877094D01*
X127337496Y-94887157D01*
X127197806Y-95038899D01*
X127197803Y-95038903D01*
X127194278Y-95042732D01*
X127191427Y-95047096D01*
X127093553Y-95196904D01*
X127071140Y-95231209D01*
X127069048Y-95235978D01*
X127069046Y-95235982D01*
X127033347Y-95317368D01*
X126980704Y-95437384D01*
X126979422Y-95442445D01*
X126979422Y-95442446D01*
X126930914Y-95634000D01*
X126925436Y-95655632D01*
X126925006Y-95660823D01*
X126925005Y-95660828D01*
X126910393Y-95837173D01*
X126906844Y-95880000D01*
X124968500Y-95880000D01*
X124968500Y-90092135D01*
X133382816Y-90092135D01*
X133392631Y-90323178D01*
X133441351Y-90549238D01*
X133443348Y-90554207D01*
X133443348Y-90554208D01*
X133451967Y-90575658D01*
X133527574Y-90763813D01*
X133648821Y-90960730D01*
X133801602Y-91134324D01*
X133981524Y-91279600D01*
X133986196Y-91282210D01*
X134172787Y-91386446D01*
X134183409Y-91392380D01*
X134188446Y-91394160D01*
X134188449Y-91394161D01*
X134396405Y-91467637D01*
X134396411Y-91467638D01*
X134401450Y-91469419D01*
X134494685Y-91485405D01*
X134624106Y-91507597D01*
X134624111Y-91507597D01*
X134629375Y-91508500D01*
X135102713Y-91508500D01*
X135105366Y-91508274D01*
X135105371Y-91508274D01*
X135156991Y-91503880D01*
X135275418Y-91493801D01*
X135280600Y-91492452D01*
X135280604Y-91492451D01*
X135494024Y-91436880D01*
X135494029Y-91436878D01*
X135499207Y-91435530D01*
X135709929Y-91340278D01*
X135848521Y-91246606D01*
X135897088Y-91213781D01*
X135897092Y-91213778D01*
X135901523Y-91210783D01*
X135905387Y-91207080D01*
X136064613Y-91054475D01*
X136064617Y-91054471D01*
X136068476Y-91050772D01*
X136205985Y-90864847D01*
X136210077Y-90856732D01*
X136307686Y-90663135D01*
X136310095Y-90658357D01*
X136363334Y-90484515D01*
X136376243Y-90442364D01*
X136376244Y-90442361D01*
X136377811Y-90437243D01*
X136379765Y-90421988D01*
X136406504Y-90213174D01*
X136407184Y-90207865D01*
X136397369Y-89976822D01*
X136348649Y-89750762D01*
X136262426Y-89536187D01*
X136141179Y-89339270D01*
X135988398Y-89165676D01*
X135980364Y-89159189D01*
X168055776Y-89159189D01*
X168073501Y-89373092D01*
X168075210Y-89383335D01*
X168127900Y-89591408D01*
X168131270Y-89601223D01*
X168217488Y-89797778D01*
X168222431Y-89806913D01*
X168285014Y-89902703D01*
X168295739Y-89911856D01*
X168305463Y-89907327D01*
X169045978Y-89166812D01*
X169052356Y-89155132D01*
X169782408Y-89155132D01*
X169782539Y-89156965D01*
X169786790Y-89163580D01*
X170528266Y-89905056D01*
X170540646Y-89911816D01*
X170549231Y-89905390D01*
X170613569Y-89806913D01*
X170618512Y-89797778D01*
X170704730Y-89601223D01*
X170708100Y-89591408D01*
X170760790Y-89383335D01*
X170762499Y-89373092D01*
X170780224Y-89159189D01*
X170780224Y-89148811D01*
X170762499Y-88934908D01*
X170760790Y-88924665D01*
X170708100Y-88716592D01*
X170704730Y-88706777D01*
X170618512Y-88510222D01*
X170613569Y-88501087D01*
X170550986Y-88405297D01*
X170540261Y-88396144D01*
X170530537Y-88400673D01*
X169790022Y-89141188D01*
X169782408Y-89155132D01*
X169052356Y-89155132D01*
X169053592Y-89152868D01*
X169053461Y-89151035D01*
X169049210Y-89144420D01*
X168307734Y-88402944D01*
X168295354Y-88396184D01*
X168286769Y-88402610D01*
X168222431Y-88501087D01*
X168217488Y-88510222D01*
X168131270Y-88706777D01*
X168127900Y-88716592D01*
X168075210Y-88924665D01*
X168073501Y-88934908D01*
X168055776Y-89148811D01*
X168055776Y-89159189D01*
X135980364Y-89159189D01*
X135960564Y-89143201D01*
X135920129Y-89084845D01*
X135917663Y-89013892D01*
X135953949Y-88952868D01*
X135973572Y-88937928D01*
X136112092Y-88852488D01*
X136123532Y-88843442D01*
X136238442Y-88728532D01*
X136247488Y-88717092D01*
X136332808Y-88578767D01*
X136338964Y-88565565D01*
X136390233Y-88410846D01*
X136393092Y-88397488D01*
X136402675Y-88303693D01*
X136403000Y-88297303D01*
X136403000Y-88029741D01*
X168658138Y-88029741D01*
X168664696Y-88041486D01*
X169405188Y-88781978D01*
X169419132Y-88789592D01*
X169420965Y-88789461D01*
X169427580Y-88785210D01*
X170170877Y-88041913D01*
X170177827Y-88029186D01*
X170169870Y-88018345D01*
X170167410Y-88016430D01*
X170158716Y-88010750D01*
X170129267Y-87994813D01*
X170078877Y-87944800D01*
X170063525Y-87875483D01*
X170088086Y-87808870D01*
X170129267Y-87773187D01*
X170158716Y-87757250D01*
X170167410Y-87751570D01*
X170169394Y-87750026D01*
X170177862Y-87738259D01*
X170171304Y-87726514D01*
X169430812Y-86986022D01*
X169416868Y-86978408D01*
X169415035Y-86978539D01*
X169408420Y-86982790D01*
X168665123Y-87726087D01*
X168658173Y-87738814D01*
X168666130Y-87749655D01*
X168668590Y-87751570D01*
X168677284Y-87757250D01*
X168706733Y-87773187D01*
X168757123Y-87823200D01*
X168772475Y-87892517D01*
X168747914Y-87959130D01*
X168706733Y-87994813D01*
X168677284Y-88010750D01*
X168668590Y-88016430D01*
X168666606Y-88017974D01*
X168658138Y-88029741D01*
X136403000Y-88029741D01*
X136403000Y-87922115D01*
X136398525Y-87906876D01*
X136397135Y-87905671D01*
X136389452Y-87904000D01*
X133405115Y-87904000D01*
X133389876Y-87908475D01*
X133388671Y-87909865D01*
X133387000Y-87917548D01*
X133387000Y-88297303D01*
X133387325Y-88303693D01*
X133396908Y-88397488D01*
X133399767Y-88410846D01*
X133451036Y-88565565D01*
X133457192Y-88578767D01*
X133542512Y-88717092D01*
X133551558Y-88728532D01*
X133666468Y-88843442D01*
X133677908Y-88852488D01*
X133817680Y-88938700D01*
X133865158Y-88991486D01*
X133876561Y-89061561D01*
X133848269Y-89126676D01*
X133838717Y-89136908D01*
X133725387Y-89245525D01*
X133725383Y-89245529D01*
X133721524Y-89249228D01*
X133584015Y-89435153D01*
X133581608Y-89439928D01*
X133581605Y-89439932D01*
X133539829Y-89522790D01*
X133479905Y-89641643D01*
X133412189Y-89862757D01*
X133411509Y-89868070D01*
X133411508Y-89868073D01*
X133403221Y-89932791D01*
X133382816Y-90092135D01*
X124968500Y-90092135D01*
X124968500Y-87377885D01*
X133387000Y-87377885D01*
X133391475Y-87393124D01*
X133392865Y-87394329D01*
X133400548Y-87396000D01*
X134622885Y-87396000D01*
X134638124Y-87391525D01*
X134639329Y-87390135D01*
X134641000Y-87382452D01*
X134641000Y-87377885D01*
X135149000Y-87377885D01*
X135153475Y-87393124D01*
X135154865Y-87394329D01*
X135162548Y-87396000D01*
X136384885Y-87396000D01*
X136400124Y-87391525D01*
X136401329Y-87390135D01*
X136403000Y-87382452D01*
X136403000Y-87002698D01*
X136402675Y-86996307D01*
X136393092Y-86902512D01*
X136390233Y-86889154D01*
X136338964Y-86734435D01*
X136332808Y-86721233D01*
X136269866Y-86619189D01*
X168055776Y-86619189D01*
X168073501Y-86833092D01*
X168075210Y-86843335D01*
X168127900Y-87051408D01*
X168131270Y-87061223D01*
X168217488Y-87257778D01*
X168222431Y-87266913D01*
X168285014Y-87362703D01*
X168295739Y-87371856D01*
X168305463Y-87367327D01*
X169045978Y-86626812D01*
X169052356Y-86615132D01*
X169782408Y-86615132D01*
X169782539Y-86616965D01*
X169786790Y-86623580D01*
X170528266Y-87365056D01*
X170540646Y-87371816D01*
X170549231Y-87365390D01*
X170613569Y-87266913D01*
X170618512Y-87257778D01*
X170704730Y-87061223D01*
X170708100Y-87051408D01*
X170760790Y-86843335D01*
X170762499Y-86833092D01*
X170780224Y-86619189D01*
X170780224Y-86608811D01*
X170762499Y-86394908D01*
X170760790Y-86384665D01*
X170708100Y-86176592D01*
X170704730Y-86166777D01*
X170618512Y-85970222D01*
X170613569Y-85961087D01*
X170550986Y-85865297D01*
X170540261Y-85856144D01*
X170530537Y-85860673D01*
X169790022Y-86601188D01*
X169782408Y-86615132D01*
X169052356Y-86615132D01*
X169053592Y-86612868D01*
X169053461Y-86611035D01*
X169049210Y-86604420D01*
X168307734Y-85862944D01*
X168295354Y-85856184D01*
X168286769Y-85862610D01*
X168222431Y-85961087D01*
X168217488Y-85970222D01*
X168131270Y-86166777D01*
X168127900Y-86176592D01*
X168075210Y-86384665D01*
X168073501Y-86394908D01*
X168055776Y-86608811D01*
X168055776Y-86619189D01*
X136269866Y-86619189D01*
X136247488Y-86582908D01*
X136238442Y-86571468D01*
X136123532Y-86456558D01*
X136112092Y-86447512D01*
X135973767Y-86362192D01*
X135960565Y-86356036D01*
X135805846Y-86304767D01*
X135792488Y-86301908D01*
X135698693Y-86292325D01*
X135692302Y-86292000D01*
X135167115Y-86292000D01*
X135151876Y-86296475D01*
X135150671Y-86297865D01*
X135149000Y-86305548D01*
X135149000Y-87377885D01*
X134641000Y-87377885D01*
X134641000Y-86310115D01*
X134636525Y-86294876D01*
X134635135Y-86293671D01*
X134627452Y-86292000D01*
X134097698Y-86292000D01*
X134091307Y-86292325D01*
X133997512Y-86301908D01*
X133984154Y-86304767D01*
X133829435Y-86356036D01*
X133816233Y-86362192D01*
X133677908Y-86447512D01*
X133666468Y-86456558D01*
X133551558Y-86571468D01*
X133542512Y-86582908D01*
X133457192Y-86721233D01*
X133451036Y-86734435D01*
X133399767Y-86889154D01*
X133396908Y-86902512D01*
X133387325Y-86996307D01*
X133387000Y-87002698D01*
X133387000Y-87377885D01*
X124968500Y-87377885D01*
X124968500Y-84963000D01*
X151171341Y-84963000D01*
X151191937Y-85198408D01*
X151193361Y-85203722D01*
X151193361Y-85203723D01*
X151247316Y-85405086D01*
X151253097Y-85426663D01*
X151255419Y-85431643D01*
X151255420Y-85431645D01*
X151326845Y-85584814D01*
X151352965Y-85640829D01*
X151488505Y-85834401D01*
X151655599Y-86001495D01*
X151849171Y-86137035D01*
X151854149Y-86139356D01*
X151854152Y-86139358D01*
X152058355Y-86234580D01*
X152063337Y-86236903D01*
X152068645Y-86238325D01*
X152068647Y-86238326D01*
X152285665Y-86296475D01*
X152291592Y-86298063D01*
X152387408Y-86306446D01*
X152465310Y-86313262D01*
X152465317Y-86313262D01*
X152468034Y-86313500D01*
X152585966Y-86313500D01*
X152588683Y-86313262D01*
X152588690Y-86313262D01*
X152666592Y-86306446D01*
X152762408Y-86298063D01*
X152768335Y-86296475D01*
X152985353Y-86238326D01*
X152985355Y-86238325D01*
X152990663Y-86236903D01*
X152995645Y-86234580D01*
X153199848Y-86139358D01*
X153199851Y-86139356D01*
X153204829Y-86137035D01*
X153398401Y-86001495D01*
X153565495Y-85834401D01*
X153568655Y-85829889D01*
X153697878Y-85645339D01*
X153697881Y-85645334D01*
X153701035Y-85640830D01*
X153703358Y-85635848D01*
X153703361Y-85635843D01*
X153798580Y-85431645D01*
X153798581Y-85431644D01*
X153800903Y-85426663D01*
X153806685Y-85405086D01*
X153860639Y-85203723D01*
X153860639Y-85203722D01*
X153862063Y-85198408D01*
X153882659Y-84963000D01*
X153862063Y-84727592D01*
X153840366Y-84646616D01*
X153802326Y-84504647D01*
X153802325Y-84504645D01*
X153800903Y-84499337D01*
X153798580Y-84494355D01*
X153703358Y-84290152D01*
X153703356Y-84290149D01*
X153701035Y-84285171D01*
X153565495Y-84091599D01*
X153547896Y-84074000D01*
X168054844Y-84074000D01*
X168055274Y-84079189D01*
X168072756Y-84290157D01*
X168073436Y-84298368D01*
X168074717Y-84303426D01*
X168074717Y-84303427D01*
X168106357Y-84428368D01*
X168128704Y-84516616D01*
X168130800Y-84521394D01*
X168187823Y-84651394D01*
X168219140Y-84722791D01*
X168221990Y-84727153D01*
X168221992Y-84727157D01*
X168300955Y-84848018D01*
X168342278Y-84911268D01*
X168345803Y-84915097D01*
X168345806Y-84915101D01*
X168384861Y-84957525D01*
X168494760Y-85076906D01*
X168498879Y-85080112D01*
X168657693Y-85203723D01*
X168672424Y-85215189D01*
X168706208Y-85233472D01*
X168756597Y-85283485D01*
X168771949Y-85352802D01*
X168747388Y-85419415D01*
X168706206Y-85455099D01*
X168677279Y-85470753D01*
X168668590Y-85476430D01*
X168666606Y-85477974D01*
X168658138Y-85489741D01*
X168664696Y-85501486D01*
X169405188Y-86241978D01*
X169419132Y-86249592D01*
X169420965Y-86249461D01*
X169427580Y-86245210D01*
X170170877Y-85501913D01*
X170177827Y-85489186D01*
X170169870Y-85478345D01*
X170167410Y-85476430D01*
X170158721Y-85470753D01*
X170129794Y-85455099D01*
X170079403Y-85405086D01*
X170064051Y-85335769D01*
X170088612Y-85269156D01*
X170129792Y-85233472D01*
X170163576Y-85215189D01*
X170178308Y-85203723D01*
X170337121Y-85080112D01*
X170341240Y-85076906D01*
X170451139Y-84957525D01*
X170490194Y-84915101D01*
X170490197Y-84915097D01*
X170493722Y-84911268D01*
X170535045Y-84848018D01*
X170614008Y-84727157D01*
X170614010Y-84727153D01*
X170616860Y-84722791D01*
X170648178Y-84651394D01*
X170705200Y-84521394D01*
X170707296Y-84516616D01*
X170729644Y-84428368D01*
X170761283Y-84303427D01*
X170761283Y-84303426D01*
X170762564Y-84298368D01*
X170763245Y-84290157D01*
X170780726Y-84079189D01*
X170781156Y-84074000D01*
X170769091Y-83928400D01*
X170762995Y-83854828D01*
X170762994Y-83854823D01*
X170762564Y-83849632D01*
X170746613Y-83786642D01*
X170708578Y-83636446D01*
X170708578Y-83636445D01*
X170707296Y-83631384D01*
X170662093Y-83528330D01*
X170618954Y-83429982D01*
X170618952Y-83429978D01*
X170616860Y-83425209D01*
X170581507Y-83371096D01*
X170496573Y-83241096D01*
X170493722Y-83236732D01*
X170490197Y-83232903D01*
X170490194Y-83232899D01*
X170344772Y-83074931D01*
X170341240Y-83071094D01*
X170243220Y-82994801D01*
X170167689Y-82936012D01*
X170167687Y-82936010D01*
X170163576Y-82932811D01*
X170105915Y-82901607D01*
X169970159Y-82828139D01*
X169970156Y-82828138D01*
X169965574Y-82825658D01*
X169752635Y-82752556D01*
X169747501Y-82751699D01*
X169747496Y-82751698D01*
X169535706Y-82716357D01*
X169535704Y-82716357D01*
X169530569Y-82715500D01*
X169305431Y-82715500D01*
X169300296Y-82716357D01*
X169300294Y-82716357D01*
X169088504Y-82751698D01*
X169088499Y-82751699D01*
X169083365Y-82752556D01*
X168870426Y-82825658D01*
X168865844Y-82828138D01*
X168865841Y-82828139D01*
X168730085Y-82901607D01*
X168672424Y-82932811D01*
X168668313Y-82936010D01*
X168668311Y-82936012D01*
X168592780Y-82994801D01*
X168494760Y-83071094D01*
X168491228Y-83074931D01*
X168345806Y-83232899D01*
X168345803Y-83232903D01*
X168342278Y-83236732D01*
X168339427Y-83241096D01*
X168254494Y-83371096D01*
X168219140Y-83425209D01*
X168217048Y-83429978D01*
X168217046Y-83429982D01*
X168173907Y-83528330D01*
X168128704Y-83631384D01*
X168127422Y-83636445D01*
X168127422Y-83636446D01*
X168089387Y-83786642D01*
X168073436Y-83849632D01*
X168073006Y-83854823D01*
X168073005Y-83854828D01*
X168066909Y-83928400D01*
X168054844Y-84074000D01*
X153547896Y-84074000D01*
X153398401Y-83924505D01*
X153204829Y-83788965D01*
X153199851Y-83786644D01*
X153199848Y-83786642D01*
X152995645Y-83691420D01*
X152995643Y-83691419D01*
X152990663Y-83689097D01*
X152985355Y-83687675D01*
X152985353Y-83687674D01*
X152767723Y-83629361D01*
X152767722Y-83629361D01*
X152762408Y-83627937D01*
X152659318Y-83618918D01*
X152588690Y-83612738D01*
X152588683Y-83612738D01*
X152585966Y-83612500D01*
X152468034Y-83612500D01*
X152465317Y-83612738D01*
X152465310Y-83612738D01*
X152394682Y-83618918D01*
X152291592Y-83627937D01*
X152286278Y-83629361D01*
X152286277Y-83629361D01*
X152068647Y-83687674D01*
X152068645Y-83687675D01*
X152063337Y-83689097D01*
X152058357Y-83691419D01*
X152058355Y-83691420D01*
X151854152Y-83786642D01*
X151854149Y-83786644D01*
X151849171Y-83788965D01*
X151655599Y-83924505D01*
X151488505Y-84091599D01*
X151485348Y-84096107D01*
X151485346Y-84096110D01*
X151356122Y-84280661D01*
X151352965Y-84285170D01*
X151350642Y-84290152D01*
X151350639Y-84290157D01*
X151288613Y-84423172D01*
X151253097Y-84499337D01*
X151251675Y-84504645D01*
X151251674Y-84504647D01*
X151213634Y-84646616D01*
X151191937Y-84727592D01*
X151171341Y-84963000D01*
X124968500Y-84963000D01*
X124968500Y-79932135D01*
X133382816Y-79932135D01*
X133392631Y-80163178D01*
X133441351Y-80389238D01*
X133443348Y-80394207D01*
X133443348Y-80394208D01*
X133449343Y-80409128D01*
X133527574Y-80603813D01*
X133648821Y-80800730D01*
X133801602Y-80974324D01*
X133981524Y-81119600D01*
X133986196Y-81122210D01*
X134172787Y-81226446D01*
X134183409Y-81232380D01*
X134188446Y-81234160D01*
X134188449Y-81234161D01*
X134396405Y-81307637D01*
X134396411Y-81307638D01*
X134401450Y-81309419D01*
X134494685Y-81325405D01*
X134624106Y-81347597D01*
X134624111Y-81347597D01*
X134629375Y-81348500D01*
X135102713Y-81348500D01*
X135105366Y-81348274D01*
X135105371Y-81348274D01*
X135156991Y-81343880D01*
X135275418Y-81333801D01*
X135280600Y-81332452D01*
X135280604Y-81332451D01*
X135494024Y-81276880D01*
X135494029Y-81276878D01*
X135499207Y-81275530D01*
X135709929Y-81180278D01*
X135827926Y-81100526D01*
X135897088Y-81053781D01*
X135897092Y-81053778D01*
X135901523Y-81050783D01*
X135905387Y-81047080D01*
X136064613Y-80894475D01*
X136064617Y-80894471D01*
X136068476Y-80890772D01*
X136205985Y-80704847D01*
X136226111Y-80664931D01*
X136307686Y-80503135D01*
X136310095Y-80498357D01*
X136360762Y-80332914D01*
X136376243Y-80282364D01*
X136376244Y-80282361D01*
X136377811Y-80277243D01*
X136379765Y-80261988D01*
X136406504Y-80053174D01*
X136407184Y-80047865D01*
X136397369Y-79816822D01*
X136348649Y-79590762D01*
X136312982Y-79502000D01*
X138151496Y-79502000D01*
X138152186Y-79508565D01*
X138161823Y-79600252D01*
X138171458Y-79691928D01*
X138230473Y-79873556D01*
X138233776Y-79879278D01*
X138233777Y-79879279D01*
X138264294Y-79932135D01*
X138325960Y-80038944D01*
X138453747Y-80180866D01*
X138552843Y-80252864D01*
X138594186Y-80282901D01*
X138608248Y-80293118D01*
X138614276Y-80295802D01*
X138614278Y-80295803D01*
X138719288Y-80342556D01*
X138782712Y-80370794D01*
X138851823Y-80385484D01*
X138963056Y-80409128D01*
X138963061Y-80409128D01*
X138969513Y-80410500D01*
X139160487Y-80410500D01*
X139166939Y-80409128D01*
X139166944Y-80409128D01*
X139278177Y-80385484D01*
X139347288Y-80370794D01*
X139410712Y-80342556D01*
X139515722Y-80295803D01*
X139515724Y-80295802D01*
X139521752Y-80293118D01*
X139535815Y-80282901D01*
X139577157Y-80252864D01*
X139676253Y-80180866D01*
X139804040Y-80038944D01*
X139865706Y-79932135D01*
X139896223Y-79879279D01*
X139896224Y-79879278D01*
X139899527Y-79873556D01*
X139958542Y-79691928D01*
X139958682Y-79690599D01*
X139991482Y-79629844D01*
X140053632Y-79595523D01*
X140124471Y-79600252D01*
X140181508Y-79642528D01*
X140203276Y-79690192D01*
X140203458Y-79691928D01*
X140262473Y-79873556D01*
X140265776Y-79879278D01*
X140265777Y-79879279D01*
X140296294Y-79932135D01*
X140357960Y-80038944D01*
X140485747Y-80180866D01*
X140584843Y-80252864D01*
X140626186Y-80282901D01*
X140640248Y-80293118D01*
X140646276Y-80295802D01*
X140646278Y-80295803D01*
X140751288Y-80342556D01*
X140814712Y-80370794D01*
X140883823Y-80385484D01*
X140995056Y-80409128D01*
X140995061Y-80409128D01*
X141001513Y-80410500D01*
X141192487Y-80410500D01*
X141198939Y-80409128D01*
X141198944Y-80409128D01*
X141310177Y-80385484D01*
X141379288Y-80370794D01*
X141442712Y-80342556D01*
X141547722Y-80295803D01*
X141547724Y-80295802D01*
X141553752Y-80293118D01*
X141567815Y-80282901D01*
X141609157Y-80252864D01*
X141708253Y-80180866D01*
X141836040Y-80038944D01*
X141897706Y-79932135D01*
X141928223Y-79879279D01*
X141928224Y-79879278D01*
X141931527Y-79873556D01*
X141990542Y-79691928D01*
X142000178Y-79600252D01*
X142009814Y-79508565D01*
X142010504Y-79502000D01*
X142007862Y-79476865D01*
X141991232Y-79318635D01*
X141991232Y-79318633D01*
X141990542Y-79312072D01*
X141931527Y-79130444D01*
X141836040Y-78965056D01*
X141803771Y-78929217D01*
X141712675Y-78828045D01*
X141712674Y-78828044D01*
X141708253Y-78823134D01*
X141553752Y-78710882D01*
X141547724Y-78708198D01*
X141547722Y-78708197D01*
X141385319Y-78635891D01*
X141385318Y-78635891D01*
X141379288Y-78633206D01*
X141266570Y-78609247D01*
X141204097Y-78575518D01*
X141169775Y-78513369D01*
X141174503Y-78442530D01*
X141216779Y-78385492D01*
X141266570Y-78362753D01*
X141379288Y-78338794D01*
X141385319Y-78336109D01*
X141547722Y-78263803D01*
X141547724Y-78263802D01*
X141553752Y-78261118D01*
X141708253Y-78148866D01*
X141836040Y-78006944D01*
X141919426Y-77862516D01*
X141928223Y-77847279D01*
X141928224Y-77847278D01*
X141931527Y-77841556D01*
X141990542Y-77659928D01*
X141999206Y-77577500D01*
X142009814Y-77476565D01*
X142010504Y-77470000D01*
X142005382Y-77421268D01*
X141991232Y-77286635D01*
X141991232Y-77286633D01*
X141990542Y-77280072D01*
X141931527Y-77098444D01*
X141836040Y-76933056D01*
X141754682Y-76842698D01*
X141712675Y-76796045D01*
X141712674Y-76796044D01*
X141708253Y-76791134D01*
X141585841Y-76702196D01*
X141559094Y-76682763D01*
X141559093Y-76682762D01*
X141553752Y-76678882D01*
X141547724Y-76676198D01*
X141547722Y-76676197D01*
X141385319Y-76603891D01*
X141385318Y-76603891D01*
X141379288Y-76601206D01*
X141275707Y-76579189D01*
X141198944Y-76562872D01*
X141198939Y-76562872D01*
X141192487Y-76561500D01*
X141001513Y-76561500D01*
X140995061Y-76562872D01*
X140995056Y-76562872D01*
X140918293Y-76579189D01*
X140814712Y-76601206D01*
X140808682Y-76603891D01*
X140808681Y-76603891D01*
X140646278Y-76676197D01*
X140646276Y-76676198D01*
X140640248Y-76678882D01*
X140634907Y-76682762D01*
X140634906Y-76682763D01*
X140608159Y-76702196D01*
X140485747Y-76791134D01*
X140481326Y-76796044D01*
X140481325Y-76796045D01*
X140439319Y-76842698D01*
X140357960Y-76933056D01*
X140262473Y-77098444D01*
X140203458Y-77280072D01*
X140203318Y-77281401D01*
X140170518Y-77342156D01*
X140108368Y-77376477D01*
X140037529Y-77371748D01*
X139980492Y-77329472D01*
X139958724Y-77281808D01*
X139958542Y-77280072D01*
X139899527Y-77098444D01*
X139804040Y-76933056D01*
X139722682Y-76842698D01*
X139680675Y-76796045D01*
X139680674Y-76796044D01*
X139676253Y-76791134D01*
X139553841Y-76702196D01*
X139527094Y-76682763D01*
X139527093Y-76682762D01*
X139521752Y-76678882D01*
X139515724Y-76676198D01*
X139515722Y-76676197D01*
X139353319Y-76603891D01*
X139353318Y-76603891D01*
X139347288Y-76601206D01*
X139243707Y-76579189D01*
X139166944Y-76562872D01*
X139166939Y-76562872D01*
X139160487Y-76561500D01*
X138969513Y-76561500D01*
X138963061Y-76562872D01*
X138963056Y-76562872D01*
X138886293Y-76579189D01*
X138782712Y-76601206D01*
X138776682Y-76603891D01*
X138776681Y-76603891D01*
X138614278Y-76676197D01*
X138614276Y-76676198D01*
X138608248Y-76678882D01*
X138602907Y-76682762D01*
X138602906Y-76682763D01*
X138576159Y-76702196D01*
X138453747Y-76791134D01*
X138449326Y-76796044D01*
X138449325Y-76796045D01*
X138407319Y-76842698D01*
X138325960Y-76933056D01*
X138230473Y-77098444D01*
X138171458Y-77280072D01*
X138170768Y-77286633D01*
X138170768Y-77286635D01*
X138156618Y-77421268D01*
X138151496Y-77470000D01*
X138152186Y-77476565D01*
X138162795Y-77577500D01*
X138171458Y-77659928D01*
X138230473Y-77841556D01*
X138233776Y-77847278D01*
X138233777Y-77847279D01*
X138242574Y-77862516D01*
X138325960Y-78006944D01*
X138453747Y-78148866D01*
X138608248Y-78261118D01*
X138614276Y-78263802D01*
X138614278Y-78263803D01*
X138776681Y-78336109D01*
X138782712Y-78338794D01*
X138895430Y-78362753D01*
X138957903Y-78396482D01*
X138992225Y-78458631D01*
X138987497Y-78529470D01*
X138945221Y-78586508D01*
X138895430Y-78609247D01*
X138782712Y-78633206D01*
X138776682Y-78635891D01*
X138776681Y-78635891D01*
X138614278Y-78708197D01*
X138614276Y-78708198D01*
X138608248Y-78710882D01*
X138453747Y-78823134D01*
X138449326Y-78828044D01*
X138449325Y-78828045D01*
X138358230Y-78929217D01*
X138325960Y-78965056D01*
X138230473Y-79130444D01*
X138171458Y-79312072D01*
X138170768Y-79318633D01*
X138170768Y-79318635D01*
X138154138Y-79476865D01*
X138151496Y-79502000D01*
X136312982Y-79502000D01*
X136262426Y-79376187D01*
X136141179Y-79179270D01*
X135988398Y-79005676D01*
X135960564Y-78983201D01*
X135920129Y-78924845D01*
X135917663Y-78853892D01*
X135953949Y-78792868D01*
X135973572Y-78777928D01*
X136112092Y-78692488D01*
X136123532Y-78683442D01*
X136238442Y-78568532D01*
X136247488Y-78557092D01*
X136332808Y-78418767D01*
X136338964Y-78405565D01*
X136390233Y-78250846D01*
X136393092Y-78237488D01*
X136402675Y-78143693D01*
X136403000Y-78137303D01*
X136403000Y-77762115D01*
X136398525Y-77746876D01*
X136397135Y-77745671D01*
X136389452Y-77744000D01*
X133405115Y-77744000D01*
X133389876Y-77748475D01*
X133388671Y-77749865D01*
X133387000Y-77757548D01*
X133387000Y-78137303D01*
X133387325Y-78143693D01*
X133396908Y-78237488D01*
X133399767Y-78250846D01*
X133451036Y-78405565D01*
X133457192Y-78418767D01*
X133542512Y-78557092D01*
X133551558Y-78568532D01*
X133666468Y-78683442D01*
X133677908Y-78692488D01*
X133817680Y-78778700D01*
X133865158Y-78831486D01*
X133876561Y-78901561D01*
X133848269Y-78966676D01*
X133838717Y-78976908D01*
X133725387Y-79085525D01*
X133725383Y-79085529D01*
X133721524Y-79089228D01*
X133584015Y-79275153D01*
X133581608Y-79279928D01*
X133581605Y-79279932D01*
X133522393Y-79397373D01*
X133479905Y-79481643D01*
X133446487Y-79590762D01*
X133434519Y-79629844D01*
X133412189Y-79702757D01*
X133382816Y-79932135D01*
X124968500Y-79932135D01*
X124968500Y-77217885D01*
X133387000Y-77217885D01*
X133391475Y-77233124D01*
X133392865Y-77234329D01*
X133400548Y-77236000D01*
X134622885Y-77236000D01*
X134638124Y-77231525D01*
X134639329Y-77230135D01*
X134641000Y-77222452D01*
X134641000Y-77217885D01*
X135149000Y-77217885D01*
X135153475Y-77233124D01*
X135154865Y-77234329D01*
X135162548Y-77236000D01*
X136384885Y-77236000D01*
X136400124Y-77231525D01*
X136401329Y-77230135D01*
X136403000Y-77222452D01*
X136403000Y-76842698D01*
X136402675Y-76836307D01*
X136393092Y-76742512D01*
X136390233Y-76729154D01*
X136338964Y-76574435D01*
X136332808Y-76561233D01*
X136247488Y-76422908D01*
X136238442Y-76411468D01*
X136123532Y-76296558D01*
X136112092Y-76287512D01*
X135973767Y-76202192D01*
X135960565Y-76196036D01*
X135805846Y-76144767D01*
X135792488Y-76141908D01*
X135698693Y-76132325D01*
X135692302Y-76132000D01*
X135167115Y-76132000D01*
X135151876Y-76136475D01*
X135150671Y-76137865D01*
X135149000Y-76145548D01*
X135149000Y-77217885D01*
X134641000Y-77217885D01*
X134641000Y-76150115D01*
X134636525Y-76134876D01*
X134635135Y-76133671D01*
X134627452Y-76132000D01*
X134097698Y-76132000D01*
X134091307Y-76132325D01*
X133997512Y-76141908D01*
X133984154Y-76144767D01*
X133829435Y-76196036D01*
X133816233Y-76202192D01*
X133677908Y-76287512D01*
X133666468Y-76296558D01*
X133551558Y-76411468D01*
X133542512Y-76422908D01*
X133457192Y-76561233D01*
X133451036Y-76574435D01*
X133399767Y-76729154D01*
X133396908Y-76742512D01*
X133387325Y-76836307D01*
X133387000Y-76842698D01*
X133387000Y-77217885D01*
X124968500Y-77217885D01*
X124968500Y-75581198D01*
X146009448Y-75581198D01*
X146016240Y-75661002D01*
X146018043Y-75671513D01*
X146073594Y-75884860D01*
X146077146Y-75894914D01*
X146167958Y-76095814D01*
X146173155Y-76105115D01*
X146296607Y-76287768D01*
X146303316Y-76296077D01*
X146455852Y-76455230D01*
X146463868Y-76462285D01*
X146641104Y-76593369D01*
X146650203Y-76598972D01*
X146847051Y-76698220D01*
X146856947Y-76702196D01*
X147067743Y-76766752D01*
X147078173Y-76769000D01*
X147088033Y-76770262D01*
X147102279Y-76767989D01*
X147106000Y-76754943D01*
X147106000Y-76752324D01*
X147614000Y-76752324D01*
X147617973Y-76765855D01*
X147628349Y-76767347D01*
X147753856Y-76740297D01*
X147764061Y-76737172D01*
X147968617Y-76654975D01*
X147978146Y-76650171D01*
X148165874Y-76534582D01*
X148174454Y-76528236D01*
X148339938Y-76382591D01*
X148347326Y-76374882D01*
X148485820Y-76203361D01*
X148491795Y-76194522D01*
X148501133Y-76177805D01*
X148551817Y-76128089D01*
X148621333Y-76113668D01*
X148687611Y-76139119D01*
X148715525Y-76168697D01*
X148787555Y-76275268D01*
X148799217Y-76292523D01*
X148802918Y-76296385D01*
X148802920Y-76296387D01*
X148955525Y-76455613D01*
X148955529Y-76455617D01*
X148959228Y-76459476D01*
X149145153Y-76596985D01*
X149149928Y-76599392D01*
X149149932Y-76599395D01*
X149316549Y-76683401D01*
X149351643Y-76701095D01*
X149447405Y-76730422D01*
X149567636Y-76767243D01*
X149567639Y-76767244D01*
X149572757Y-76768811D01*
X149578070Y-76769491D01*
X149578073Y-76769492D01*
X149695938Y-76784585D01*
X149802135Y-76798184D01*
X149807480Y-76797957D01*
X149807482Y-76797957D01*
X149866558Y-76795447D01*
X150033178Y-76788369D01*
X150259238Y-76739649D01*
X150265403Y-76737172D01*
X150468843Y-76655423D01*
X150473813Y-76653426D01*
X150479100Y-76650171D01*
X150578140Y-76589189D01*
X150670730Y-76532179D01*
X150844324Y-76379398D01*
X150866465Y-76351976D01*
X150924819Y-76311542D01*
X150995773Y-76309075D01*
X151056797Y-76345361D01*
X151071738Y-76364985D01*
X151131983Y-76462657D01*
X151160970Y-76509652D01*
X151286348Y-76635030D01*
X151292595Y-76638883D01*
X151292596Y-76638884D01*
X151318684Y-76654975D01*
X151437262Y-76728115D01*
X151472070Y-76739649D01*
X151599048Y-76781725D01*
X151599052Y-76781726D01*
X151605574Y-76783887D01*
X151612408Y-76784585D01*
X151612412Y-76784586D01*
X151706271Y-76794175D01*
X151706277Y-76794175D01*
X151709455Y-76794500D01*
X152359898Y-76794500D01*
X153010544Y-76794499D01*
X153013721Y-76794174D01*
X153013730Y-76794174D01*
X153068329Y-76788596D01*
X153114426Y-76783887D01*
X153282738Y-76728115D01*
X153401316Y-76654975D01*
X153427404Y-76638884D01*
X153427405Y-76638883D01*
X153433652Y-76635030D01*
X153559030Y-76509652D01*
X153652115Y-76358738D01*
X153659438Y-76336638D01*
X158671500Y-76336638D01*
X158678011Y-76397201D01*
X158729111Y-76534204D01*
X158734510Y-76541416D01*
X158734511Y-76541418D01*
X158760390Y-76575988D01*
X158816739Y-76651261D01*
X158823950Y-76656659D01*
X158920792Y-76729154D01*
X158933796Y-76738889D01*
X159070799Y-76789989D01*
X159107705Y-76793957D01*
X159128012Y-76796140D01*
X159128015Y-76796140D01*
X159131362Y-76796500D01*
X160928638Y-76796500D01*
X160931985Y-76796140D01*
X160931988Y-76796140D01*
X160952295Y-76793957D01*
X160989201Y-76789989D01*
X161126204Y-76738889D01*
X161139209Y-76729154D01*
X161236050Y-76656659D01*
X161243261Y-76651261D01*
X161299610Y-76575988D01*
X161325489Y-76541418D01*
X161325490Y-76541416D01*
X161330889Y-76534204D01*
X161375195Y-76415416D01*
X161417742Y-76358581D01*
X161484263Y-76333770D01*
X161553637Y-76348862D01*
X161585953Y-76374112D01*
X161643575Y-76436706D01*
X161651211Y-76443737D01*
X161820589Y-76575569D01*
X161829282Y-76581248D01*
X162018043Y-76683401D01*
X162027560Y-76687575D01*
X162230557Y-76757264D01*
X162240627Y-76759815D01*
X162298133Y-76769411D01*
X162311648Y-76767777D01*
X162315778Y-76754277D01*
X162824000Y-76754277D01*
X162827836Y-76767340D01*
X162842584Y-76769291D01*
X162899373Y-76759815D01*
X162909443Y-76757264D01*
X163112440Y-76687575D01*
X163121957Y-76683401D01*
X163310718Y-76581248D01*
X163319411Y-76575569D01*
X163488789Y-76443737D01*
X163496432Y-76436700D01*
X163641790Y-76278799D01*
X163648177Y-76270593D01*
X163734218Y-76138899D01*
X163788222Y-76092811D01*
X163858570Y-76083236D01*
X163922927Y-76113214D01*
X163945183Y-76138898D01*
X164034278Y-76275268D01*
X164037803Y-76279097D01*
X164037806Y-76279101D01*
X164116865Y-76364981D01*
X164186760Y-76440906D01*
X164190879Y-76444112D01*
X164307114Y-76534582D01*
X164364424Y-76579189D01*
X164391427Y-76593802D01*
X164555813Y-76682763D01*
X164562426Y-76686342D01*
X164775365Y-76759444D01*
X164780499Y-76760301D01*
X164780504Y-76760302D01*
X164992294Y-76795643D01*
X164992296Y-76795643D01*
X164997431Y-76796500D01*
X165222569Y-76796500D01*
X165227704Y-76795643D01*
X165227706Y-76795643D01*
X165439496Y-76760302D01*
X165439501Y-76760301D01*
X165444635Y-76759444D01*
X165657574Y-76686342D01*
X165664188Y-76682763D01*
X165828573Y-76593802D01*
X165855576Y-76579189D01*
X165912887Y-76534582D01*
X166029121Y-76444112D01*
X166033240Y-76440906D01*
X166103135Y-76364981D01*
X166182194Y-76279101D01*
X166182197Y-76279097D01*
X166185722Y-76275268D01*
X166274816Y-76138899D01*
X166328820Y-76092811D01*
X166399168Y-76083236D01*
X166463525Y-76113214D01*
X166485782Y-76138899D01*
X166571823Y-76270593D01*
X166578210Y-76278799D01*
X166723568Y-76436700D01*
X166731211Y-76443737D01*
X166900589Y-76575569D01*
X166909282Y-76581248D01*
X167098043Y-76683401D01*
X167107560Y-76687575D01*
X167310557Y-76757264D01*
X167320627Y-76759815D01*
X167378133Y-76769411D01*
X167391648Y-76767777D01*
X167395778Y-76754277D01*
X167904000Y-76754277D01*
X167907836Y-76767340D01*
X167922584Y-76769291D01*
X167979373Y-76759815D01*
X167989443Y-76757264D01*
X168192440Y-76687575D01*
X168201957Y-76683401D01*
X168390718Y-76581248D01*
X168399411Y-76575569D01*
X168568789Y-76443737D01*
X168576432Y-76436700D01*
X168721790Y-76278799D01*
X168728177Y-76270593D01*
X168845569Y-76090913D01*
X168850512Y-76081778D01*
X168936730Y-75885223D01*
X168940100Y-75875408D01*
X168982097Y-75709561D01*
X168981567Y-75695470D01*
X168973145Y-75692000D01*
X167922115Y-75692000D01*
X167906876Y-75696475D01*
X167905671Y-75697865D01*
X167904000Y-75705548D01*
X167904000Y-76754277D01*
X167395778Y-76754277D01*
X167396000Y-76753551D01*
X167396000Y-75165885D01*
X167904000Y-75165885D01*
X167908475Y-75181124D01*
X167909865Y-75182329D01*
X167917548Y-75184000D01*
X168968429Y-75184000D01*
X168981960Y-75180027D01*
X168983256Y-75171014D01*
X168940100Y-75000592D01*
X168936730Y-74990777D01*
X168850512Y-74794222D01*
X168845569Y-74785087D01*
X168728177Y-74605407D01*
X168721790Y-74597201D01*
X168576432Y-74439300D01*
X168568789Y-74432263D01*
X168399411Y-74300431D01*
X168390718Y-74294752D01*
X168201957Y-74192599D01*
X168192440Y-74188425D01*
X167989443Y-74118736D01*
X167979373Y-74116185D01*
X167921867Y-74106589D01*
X167908352Y-74108223D01*
X167904000Y-74122449D01*
X167904000Y-75165885D01*
X167396000Y-75165885D01*
X167396000Y-74121723D01*
X167392164Y-74108660D01*
X167377416Y-74106709D01*
X167320627Y-74116185D01*
X167310557Y-74118736D01*
X167107560Y-74188425D01*
X167098043Y-74192599D01*
X166909282Y-74294752D01*
X166900589Y-74300431D01*
X166731211Y-74432263D01*
X166723568Y-74439300D01*
X166578210Y-74597201D01*
X166571823Y-74605407D01*
X166485782Y-74737101D01*
X166431778Y-74783189D01*
X166361430Y-74792764D01*
X166297073Y-74762786D01*
X166274816Y-74737101D01*
X166263227Y-74719362D01*
X166185722Y-74600732D01*
X166182197Y-74596903D01*
X166182194Y-74596899D01*
X166056705Y-74460584D01*
X166033240Y-74435094D01*
X165881755Y-74317187D01*
X165859689Y-74300012D01*
X165859687Y-74300010D01*
X165855576Y-74296811D01*
X165749506Y-74239409D01*
X165662159Y-74192139D01*
X165662156Y-74192138D01*
X165657574Y-74189658D01*
X165444635Y-74116556D01*
X165439501Y-74115699D01*
X165439496Y-74115698D01*
X165227706Y-74080357D01*
X165227704Y-74080357D01*
X165222569Y-74079500D01*
X164997431Y-74079500D01*
X164992296Y-74080357D01*
X164992294Y-74080357D01*
X164780504Y-74115698D01*
X164780499Y-74115699D01*
X164775365Y-74116556D01*
X164562426Y-74189658D01*
X164557844Y-74192138D01*
X164557841Y-74192139D01*
X164470494Y-74239409D01*
X164364424Y-74296811D01*
X164360313Y-74300010D01*
X164360311Y-74300012D01*
X164338245Y-74317187D01*
X164186760Y-74435094D01*
X164163295Y-74460584D01*
X164037806Y-74596899D01*
X164037803Y-74596903D01*
X164034278Y-74600732D01*
X163956773Y-74719362D01*
X163945184Y-74737101D01*
X163891180Y-74783189D01*
X163820832Y-74792764D01*
X163756475Y-74762786D01*
X163734218Y-74737101D01*
X163648177Y-74605407D01*
X163641790Y-74597201D01*
X163496432Y-74439300D01*
X163488789Y-74432263D01*
X163319411Y-74300431D01*
X163310718Y-74294752D01*
X163121957Y-74192599D01*
X163112440Y-74188425D01*
X162909443Y-74118736D01*
X162899373Y-74116185D01*
X162841867Y-74106589D01*
X162828352Y-74108223D01*
X162824000Y-74122449D01*
X162824000Y-76754277D01*
X162315778Y-76754277D01*
X162316000Y-76753551D01*
X162316000Y-74121723D01*
X162312164Y-74108660D01*
X162297416Y-74106709D01*
X162240627Y-74116185D01*
X162230557Y-74118736D01*
X162027560Y-74188425D01*
X162018043Y-74192599D01*
X161829282Y-74294752D01*
X161820589Y-74300431D01*
X161651211Y-74432263D01*
X161643575Y-74439294D01*
X161585953Y-74501888D01*
X161525100Y-74538459D01*
X161454135Y-74536326D01*
X161395590Y-74496164D01*
X161375195Y-74460584D01*
X161334037Y-74350237D01*
X161330889Y-74341796D01*
X161299924Y-74300431D01*
X161248659Y-74231950D01*
X161243261Y-74224739D01*
X161160152Y-74162524D01*
X161133418Y-74142511D01*
X161133416Y-74142510D01*
X161126204Y-74137111D01*
X160989201Y-74086011D01*
X160952295Y-74082043D01*
X160931988Y-74079860D01*
X160931985Y-74079860D01*
X160928638Y-74079500D01*
X159131362Y-74079500D01*
X159128015Y-74079860D01*
X159128012Y-74079860D01*
X159107705Y-74082043D01*
X159070799Y-74086011D01*
X158933796Y-74137111D01*
X158926584Y-74142510D01*
X158926582Y-74142511D01*
X158899848Y-74162524D01*
X158816739Y-74224739D01*
X158811341Y-74231950D01*
X158760077Y-74300431D01*
X158729111Y-74341796D01*
X158678011Y-74478799D01*
X158671500Y-74539362D01*
X158671500Y-76336638D01*
X153659438Y-76336638D01*
X153703601Y-76203361D01*
X153705725Y-76196952D01*
X153705726Y-76196948D01*
X153707887Y-76190426D01*
X153709177Y-76177805D01*
X153718175Y-76089729D01*
X153718175Y-76089723D01*
X153718500Y-76086545D01*
X153718499Y-74535456D01*
X153714258Y-74493935D01*
X153710109Y-74453327D01*
X153707887Y-74431574D01*
X153652115Y-74263262D01*
X153572362Y-74133963D01*
X153562884Y-74118596D01*
X153562883Y-74118595D01*
X153559030Y-74112348D01*
X153433652Y-73986970D01*
X153408379Y-73971381D01*
X153324759Y-73919804D01*
X153282738Y-73893885D01*
X153201775Y-73867057D01*
X153120952Y-73840275D01*
X153120948Y-73840274D01*
X153114426Y-73838113D01*
X153107592Y-73837415D01*
X153107588Y-73837414D01*
X153013729Y-73827825D01*
X153013723Y-73827825D01*
X153010545Y-73827500D01*
X152360102Y-73827500D01*
X151709456Y-73827501D01*
X151706279Y-73827826D01*
X151706270Y-73827826D01*
X151657533Y-73832805D01*
X151605574Y-73838113D01*
X151437262Y-73893885D01*
X151395241Y-73919804D01*
X151311622Y-73971381D01*
X151286348Y-73986970D01*
X151160970Y-74112348D01*
X151157117Y-74118595D01*
X151157116Y-74118596D01*
X151101160Y-74209315D01*
X151087199Y-74231950D01*
X151070942Y-74258306D01*
X151018156Y-74305784D01*
X150948081Y-74317187D01*
X150882965Y-74288895D01*
X150872735Y-74279343D01*
X150764481Y-74166393D01*
X150764475Y-74166388D01*
X150760772Y-74162524D01*
X150574847Y-74025015D01*
X150570072Y-74022608D01*
X150570068Y-74022605D01*
X150373135Y-73923314D01*
X150368357Y-73920905D01*
X150238783Y-73881223D01*
X150152364Y-73854757D01*
X150152361Y-73854756D01*
X150147243Y-73853189D01*
X150141930Y-73852509D01*
X150141927Y-73852508D01*
X149992739Y-73833404D01*
X149917865Y-73823816D01*
X149912520Y-73824043D01*
X149912518Y-73824043D01*
X149853442Y-73826553D01*
X149686822Y-73833631D01*
X149460762Y-73882351D01*
X149455793Y-73884348D01*
X149455792Y-73884348D01*
X149432058Y-73893885D01*
X149246187Y-73968574D01*
X149241629Y-73971381D01*
X149241628Y-73971381D01*
X149222569Y-73983116D01*
X149049270Y-74089821D01*
X148875676Y-74242602D01*
X148730400Y-74422524D01*
X148727792Y-74427193D01*
X148727787Y-74427200D01*
X148718280Y-74444219D01*
X148667596Y-74493935D01*
X148598080Y-74508356D01*
X148531802Y-74482905D01*
X148503888Y-74453327D01*
X148423393Y-74334232D01*
X148416684Y-74325923D01*
X148264148Y-74166770D01*
X148256132Y-74159715D01*
X148078896Y-74028631D01*
X148069797Y-74023028D01*
X147872949Y-73923780D01*
X147863053Y-73919804D01*
X147652257Y-73855248D01*
X147641827Y-73853000D01*
X147631967Y-73851738D01*
X147617721Y-73854011D01*
X147614000Y-73867057D01*
X147614000Y-76752324D01*
X147106000Y-76752324D01*
X147106000Y-75583115D01*
X147101525Y-75567876D01*
X147100135Y-75566671D01*
X147092452Y-75565000D01*
X146026184Y-75565000D01*
X146011510Y-75569309D01*
X146009448Y-75581198D01*
X124968500Y-75581198D01*
X124968500Y-75039147D01*
X146007362Y-75039147D01*
X146008924Y-75052572D01*
X146023285Y-75057000D01*
X147087885Y-75057000D01*
X147103124Y-75052525D01*
X147104329Y-75051135D01*
X147106000Y-75043452D01*
X147106000Y-73869676D01*
X147102027Y-73856145D01*
X147091651Y-73854653D01*
X146966144Y-73881703D01*
X146955939Y-73884828D01*
X146751383Y-73967025D01*
X146741854Y-73971829D01*
X146554126Y-74087418D01*
X146545546Y-74093764D01*
X146380062Y-74239409D01*
X146372674Y-74247118D01*
X146234180Y-74418639D01*
X146228205Y-74427479D01*
X146120692Y-74619937D01*
X146116292Y-74629671D01*
X146042851Y-74837529D01*
X146040163Y-74847849D01*
X146007362Y-75039147D01*
X124968500Y-75039147D01*
X124968500Y-70999345D01*
X124988502Y-70931224D01*
X125042158Y-70884731D01*
X125112432Y-70874627D01*
X125177012Y-70904121D01*
X125206767Y-70942142D01*
X125251938Y-71030795D01*
X125463643Y-71356793D01*
X125708266Y-71658876D01*
X125983124Y-71933734D01*
X125985682Y-71935806D01*
X125985686Y-71935809D01*
X126027964Y-71970045D01*
X126285207Y-72178357D01*
X126287970Y-72180152D01*
X126287971Y-72180152D01*
X126430089Y-72272444D01*
X126611205Y-72390062D01*
X126614139Y-72391557D01*
X126614146Y-72391561D01*
X126749712Y-72460635D01*
X126957547Y-72566532D01*
X127142255Y-72637435D01*
X127284431Y-72692011D01*
X127320438Y-72705833D01*
X127695901Y-72806438D01*
X127894858Y-72837950D01*
X128076576Y-72866732D01*
X128076584Y-72866733D01*
X128079824Y-72867246D01*
X128468000Y-72887589D01*
X128856176Y-72867246D01*
X128859416Y-72866733D01*
X128859424Y-72866732D01*
X129041142Y-72837950D01*
X129240099Y-72806438D01*
X129615562Y-72705833D01*
X129651570Y-72692011D01*
X129776643Y-72644000D01*
X137770496Y-72644000D01*
X137790458Y-72833928D01*
X137849473Y-73015556D01*
X137944960Y-73180944D01*
X137949378Y-73185851D01*
X137949379Y-73185852D01*
X137972109Y-73211096D01*
X138072747Y-73322866D01*
X138227248Y-73435118D01*
X138233276Y-73437802D01*
X138233278Y-73437803D01*
X138395681Y-73510109D01*
X138401712Y-73512794D01*
X138495112Y-73532647D01*
X138582056Y-73551128D01*
X138582061Y-73551128D01*
X138588513Y-73552500D01*
X138779487Y-73552500D01*
X138785939Y-73551128D01*
X138785944Y-73551128D01*
X138872888Y-73532647D01*
X138966288Y-73512794D01*
X138972319Y-73510109D01*
X139134722Y-73437803D01*
X139134724Y-73437802D01*
X139140752Y-73435118D01*
X139295253Y-73322866D01*
X139395891Y-73211096D01*
X139418621Y-73185852D01*
X139418622Y-73185851D01*
X139423040Y-73180944D01*
X139518527Y-73015556D01*
X139577542Y-72833928D01*
X139597504Y-72644000D01*
X139589362Y-72566532D01*
X139578232Y-72460635D01*
X139578232Y-72460633D01*
X139577542Y-72454072D01*
X139518527Y-72272444D01*
X139423040Y-72107056D01*
X139295253Y-71965134D01*
X139140752Y-71852882D01*
X139134724Y-71850198D01*
X139134722Y-71850197D01*
X138972319Y-71777891D01*
X138972318Y-71777891D01*
X138966288Y-71775206D01*
X138872887Y-71755353D01*
X138785944Y-71736872D01*
X138785939Y-71736872D01*
X138779487Y-71735500D01*
X138588513Y-71735500D01*
X138582061Y-71736872D01*
X138582056Y-71736872D01*
X138495113Y-71755353D01*
X138401712Y-71775206D01*
X138395682Y-71777891D01*
X138395681Y-71777891D01*
X138233278Y-71850197D01*
X138233276Y-71850198D01*
X138227248Y-71852882D01*
X138072747Y-71965134D01*
X137944960Y-72107056D01*
X137849473Y-72272444D01*
X137790458Y-72454072D01*
X137789768Y-72460633D01*
X137789768Y-72460635D01*
X137778638Y-72566532D01*
X137770496Y-72644000D01*
X129776643Y-72644000D01*
X129793745Y-72637435D01*
X129978453Y-72566532D01*
X130186288Y-72460635D01*
X130321854Y-72391561D01*
X130321861Y-72391557D01*
X130324795Y-72390062D01*
X130505912Y-72272444D01*
X130648029Y-72180152D01*
X130648030Y-72180152D01*
X130650793Y-72178357D01*
X130908036Y-71970045D01*
X130950314Y-71935809D01*
X130950318Y-71935806D01*
X130952876Y-71933734D01*
X131227734Y-71658876D01*
X131472357Y-71356793D01*
X131684062Y-71030795D01*
X131758486Y-70884731D01*
X131859034Y-70687393D01*
X131860532Y-70684453D01*
X131999833Y-70321562D01*
X132100438Y-69946099D01*
X132161246Y-69562176D01*
X132181589Y-69174000D01*
X132161246Y-68785824D01*
X132100438Y-68401901D01*
X131999833Y-68026438D01*
X131860532Y-67663547D01*
X131826747Y-67597241D01*
X131685561Y-67320147D01*
X131685557Y-67320140D01*
X131684062Y-67317206D01*
X131472357Y-66991207D01*
X131227734Y-66689124D01*
X130952876Y-66414266D01*
X130921225Y-66388635D01*
X130682668Y-66195455D01*
X130650793Y-66169643D01*
X130507145Y-66076357D01*
X130327564Y-65959736D01*
X130327561Y-65959734D01*
X130324795Y-65957938D01*
X130321861Y-65956443D01*
X130321854Y-65956439D01*
X130236142Y-65912767D01*
X130184527Y-65864019D01*
X130167461Y-65795104D01*
X130190362Y-65727902D01*
X130245959Y-65683750D01*
X130293345Y-65674500D01*
X177964707Y-65674500D01*
X177971301Y-65674673D01*
G37*
%TD.AperFunction*%
%TA.AperFunction,Conductor*%
G36*
X170914299Y-94445491D02*
G01*
X170969664Y-94489935D01*
X170992300Y-94561990D01*
X170992300Y-102777014D01*
X170972298Y-102845135D01*
X170955395Y-102866109D01*
X162810109Y-111011395D01*
X162747797Y-111045421D01*
X162721014Y-111048300D01*
X148107303Y-111048300D01*
X148099695Y-111048070D01*
X148046321Y-111044841D01*
X148046319Y-111044841D01*
X148038713Y-111044381D01*
X148031216Y-111045755D01*
X148031214Y-111045755D01*
X147978603Y-111055396D01*
X147971081Y-111056541D01*
X147917994Y-111062987D01*
X147917992Y-111062988D01*
X147910428Y-111063906D01*
X147900801Y-111067557D01*
X147878838Y-111073679D01*
X147868712Y-111075535D01*
X147856272Y-111081134D01*
X147812998Y-111100610D01*
X147805968Y-111103522D01*
X147795801Y-111107378D01*
X147725014Y-111112833D01*
X147662516Y-111079152D01*
X147628148Y-111017028D01*
X147632823Y-110946185D01*
X147662024Y-110900472D01*
X153152496Y-105410000D01*
X159614496Y-105410000D01*
X159615186Y-105416565D01*
X159633084Y-105586852D01*
X159634458Y-105599928D01*
X159693473Y-105781556D01*
X159696776Y-105787278D01*
X159696777Y-105787279D01*
X159705574Y-105802516D01*
X159788960Y-105946944D01*
X159916747Y-106088866D01*
X160071248Y-106201118D01*
X160077276Y-106203802D01*
X160077278Y-106203803D01*
X160239681Y-106276109D01*
X160245712Y-106278794D01*
X160339112Y-106298647D01*
X160426056Y-106317128D01*
X160426061Y-106317128D01*
X160432513Y-106318500D01*
X160623487Y-106318500D01*
X160629939Y-106317128D01*
X160629944Y-106317128D01*
X160716887Y-106298647D01*
X160810288Y-106278794D01*
X160816319Y-106276109D01*
X160978722Y-106203803D01*
X160978724Y-106203802D01*
X160984752Y-106201118D01*
X161139253Y-106088866D01*
X161267040Y-105946944D01*
X161350426Y-105802516D01*
X161359223Y-105787279D01*
X161359224Y-105787278D01*
X161362527Y-105781556D01*
X161421542Y-105599928D01*
X161422917Y-105586852D01*
X161440814Y-105416565D01*
X161441504Y-105410000D01*
X161436382Y-105361268D01*
X161422232Y-105226635D01*
X161422232Y-105226633D01*
X161421542Y-105220072D01*
X161364657Y-105045000D01*
X163535496Y-105045000D01*
X163536186Y-105051565D01*
X163553897Y-105220072D01*
X163555458Y-105234928D01*
X163614473Y-105416556D01*
X163709960Y-105581944D01*
X163714378Y-105586851D01*
X163714379Y-105586852D01*
X163801528Y-105683641D01*
X163837747Y-105723866D01*
X163992248Y-105836118D01*
X163998276Y-105838802D01*
X163998278Y-105838803D01*
X164066392Y-105869129D01*
X164166712Y-105913794D01*
X164260112Y-105933647D01*
X164347056Y-105952128D01*
X164347061Y-105952128D01*
X164353513Y-105953500D01*
X164544487Y-105953500D01*
X164550939Y-105952128D01*
X164550944Y-105952128D01*
X164637887Y-105933647D01*
X164731288Y-105913794D01*
X164831608Y-105869129D01*
X164899722Y-105838803D01*
X164899724Y-105838802D01*
X164905752Y-105836118D01*
X165060253Y-105723866D01*
X165096472Y-105683641D01*
X165183621Y-105586852D01*
X165183622Y-105586851D01*
X165188040Y-105581944D01*
X165283527Y-105416556D01*
X165342542Y-105234928D01*
X165344104Y-105220072D01*
X165361814Y-105051565D01*
X165362504Y-105045000D01*
X165344432Y-104873056D01*
X165343232Y-104861635D01*
X165343232Y-104861633D01*
X165342542Y-104855072D01*
X165283527Y-104673444D01*
X165188040Y-104508056D01*
X165174322Y-104492820D01*
X165064675Y-104371045D01*
X165064674Y-104371044D01*
X165060253Y-104366134D01*
X164905752Y-104253882D01*
X164899724Y-104251198D01*
X164899722Y-104251197D01*
X164737319Y-104178891D01*
X164737318Y-104178891D01*
X164731288Y-104176206D01*
X164622852Y-104153157D01*
X164550944Y-104137872D01*
X164550939Y-104137872D01*
X164544487Y-104136500D01*
X164353513Y-104136500D01*
X164347061Y-104137872D01*
X164347056Y-104137872D01*
X164275148Y-104153157D01*
X164166712Y-104176206D01*
X164160682Y-104178891D01*
X164160681Y-104178891D01*
X163998278Y-104251197D01*
X163998276Y-104251198D01*
X163992248Y-104253882D01*
X163837747Y-104366134D01*
X163833326Y-104371044D01*
X163833325Y-104371045D01*
X163723679Y-104492820D01*
X163709960Y-104508056D01*
X163614473Y-104673444D01*
X163555458Y-104855072D01*
X163554768Y-104861633D01*
X163554768Y-104861635D01*
X163553568Y-104873056D01*
X163535496Y-105045000D01*
X161364657Y-105045000D01*
X161362527Y-105038444D01*
X161267040Y-104873056D01*
X161256757Y-104861635D01*
X161143675Y-104736045D01*
X161143674Y-104736044D01*
X161139253Y-104731134D01*
X160984752Y-104618882D01*
X160978724Y-104616198D01*
X160978722Y-104616197D01*
X160816319Y-104543891D01*
X160816318Y-104543891D01*
X160810288Y-104541206D01*
X160716887Y-104521353D01*
X160629944Y-104502872D01*
X160629939Y-104502872D01*
X160623487Y-104501500D01*
X160432513Y-104501500D01*
X160426061Y-104502872D01*
X160426056Y-104502872D01*
X160339112Y-104521353D01*
X160245712Y-104541206D01*
X160239682Y-104543891D01*
X160239681Y-104543891D01*
X160077278Y-104616197D01*
X160077276Y-104616198D01*
X160071248Y-104618882D01*
X159916747Y-104731134D01*
X159912326Y-104736044D01*
X159912325Y-104736045D01*
X159799244Y-104861635D01*
X159788960Y-104873056D01*
X159693473Y-105038444D01*
X159634458Y-105220072D01*
X159633768Y-105226633D01*
X159633768Y-105226635D01*
X159619618Y-105361268D01*
X159614496Y-105410000D01*
X153152496Y-105410000D01*
X154689891Y-103872605D01*
X154752203Y-103838579D01*
X154778986Y-103835700D01*
X155168685Y-103835700D01*
X155176294Y-103835930D01*
X155229680Y-103839160D01*
X155229682Y-103839160D01*
X155237287Y-103839620D01*
X155297420Y-103828600D01*
X155304919Y-103827459D01*
X155336191Y-103823662D01*
X155358006Y-103821013D01*
X155358008Y-103821012D01*
X155365572Y-103820094D01*
X155375199Y-103816443D01*
X155397163Y-103810320D01*
X155407287Y-103808465D01*
X155414238Y-103805337D01*
X155414240Y-103805336D01*
X155433685Y-103796584D01*
X155463014Y-103783384D01*
X155470036Y-103780476D01*
X155520048Y-103761509D01*
X155520047Y-103761509D01*
X155527173Y-103758807D01*
X155533439Y-103754482D01*
X155533441Y-103754481D01*
X155535647Y-103752958D01*
X155555505Y-103741758D01*
X155564893Y-103737533D01*
X155612999Y-103699844D01*
X155619107Y-103695350D01*
X155669411Y-103660628D01*
X155674462Y-103654927D01*
X155674466Y-103654923D01*
X155709938Y-103614882D01*
X155715156Y-103609340D01*
X156200496Y-103124000D01*
X157582496Y-103124000D01*
X157583186Y-103130565D01*
X157601183Y-103301794D01*
X157602458Y-103313928D01*
X157661473Y-103495556D01*
X157664776Y-103501278D01*
X157664777Y-103501279D01*
X157669074Y-103508721D01*
X157756960Y-103660944D01*
X157761378Y-103665851D01*
X157761379Y-103665852D01*
X157867210Y-103783389D01*
X157884747Y-103802866D01*
X157947323Y-103848330D01*
X158025969Y-103905470D01*
X158039248Y-103915118D01*
X158045276Y-103917802D01*
X158045278Y-103917803D01*
X158207681Y-103990109D01*
X158213712Y-103992794D01*
X158307113Y-104012647D01*
X158394056Y-104031128D01*
X158394061Y-104031128D01*
X158400513Y-104032500D01*
X158591487Y-104032500D01*
X158597939Y-104031128D01*
X158597944Y-104031128D01*
X158684887Y-104012647D01*
X158778288Y-103992794D01*
X158784319Y-103990109D01*
X158946722Y-103917803D01*
X158946724Y-103917802D01*
X158952752Y-103915118D01*
X158966032Y-103905470D01*
X158992830Y-103886000D01*
X166726496Y-103886000D01*
X166727186Y-103892565D01*
X166741894Y-104032500D01*
X166746458Y-104075928D01*
X166805473Y-104257556D01*
X166900960Y-104422944D01*
X166905378Y-104427851D01*
X166905379Y-104427852D01*
X166986344Y-104517773D01*
X167028747Y-104564866D01*
X167127843Y-104636864D01*
X167150971Y-104653667D01*
X167183248Y-104677118D01*
X167189276Y-104679802D01*
X167189278Y-104679803D01*
X167322487Y-104739111D01*
X167357712Y-104754794D01*
X167451112Y-104774647D01*
X167538056Y-104793128D01*
X167538061Y-104793128D01*
X167544513Y-104794500D01*
X167735487Y-104794500D01*
X167741939Y-104793128D01*
X167741944Y-104793128D01*
X167828888Y-104774647D01*
X167922288Y-104754794D01*
X167957513Y-104739111D01*
X168090722Y-104679803D01*
X168090724Y-104679802D01*
X168096752Y-104677118D01*
X168129030Y-104653667D01*
X168152157Y-104636864D01*
X168251253Y-104564866D01*
X168293656Y-104517773D01*
X168374621Y-104427852D01*
X168374622Y-104427851D01*
X168379040Y-104422944D01*
X168474527Y-104257556D01*
X168533542Y-104075928D01*
X168538107Y-104032500D01*
X168552814Y-103892565D01*
X168553504Y-103886000D01*
X168548485Y-103838246D01*
X168534232Y-103702635D01*
X168534232Y-103702633D01*
X168533542Y-103696072D01*
X168474527Y-103514444D01*
X168379040Y-103349056D01*
X168359320Y-103327154D01*
X168255675Y-103212045D01*
X168255674Y-103212044D01*
X168251253Y-103207134D01*
X168134060Y-103121988D01*
X168102094Y-103098763D01*
X168102093Y-103098762D01*
X168096752Y-103094882D01*
X168090724Y-103092198D01*
X168090722Y-103092197D01*
X167928319Y-103019891D01*
X167928318Y-103019891D01*
X167922288Y-103017206D01*
X167828887Y-102997353D01*
X167741944Y-102978872D01*
X167741939Y-102978872D01*
X167735487Y-102977500D01*
X167544513Y-102977500D01*
X167538061Y-102978872D01*
X167538056Y-102978872D01*
X167451113Y-102997353D01*
X167357712Y-103017206D01*
X167351682Y-103019891D01*
X167351681Y-103019891D01*
X167189278Y-103092197D01*
X167189276Y-103092198D01*
X167183248Y-103094882D01*
X167177907Y-103098762D01*
X167177906Y-103098763D01*
X167145940Y-103121988D01*
X167028747Y-103207134D01*
X167024326Y-103212044D01*
X167024325Y-103212045D01*
X166920681Y-103327154D01*
X166900960Y-103349056D01*
X166805473Y-103514444D01*
X166746458Y-103696072D01*
X166745768Y-103702633D01*
X166745768Y-103702635D01*
X166731515Y-103838246D01*
X166726496Y-103886000D01*
X158992830Y-103886000D01*
X159044677Y-103848330D01*
X159107253Y-103802866D01*
X159124790Y-103783389D01*
X159230621Y-103665852D01*
X159230622Y-103665851D01*
X159235040Y-103660944D01*
X159322926Y-103508721D01*
X159327223Y-103501279D01*
X159327224Y-103501278D01*
X159330527Y-103495556D01*
X159389542Y-103313928D01*
X159390818Y-103301794D01*
X159408814Y-103130565D01*
X159409504Y-103124000D01*
X159406161Y-103092197D01*
X159390232Y-102940635D01*
X159390232Y-102940633D01*
X159389542Y-102934072D01*
X159330527Y-102752444D01*
X159235040Y-102587056D01*
X159163265Y-102507341D01*
X159111675Y-102450045D01*
X159111674Y-102450044D01*
X159107253Y-102445134D01*
X158985028Y-102356332D01*
X158958094Y-102336763D01*
X158958093Y-102336762D01*
X158952752Y-102332882D01*
X158946724Y-102330198D01*
X158946722Y-102330197D01*
X158784319Y-102257891D01*
X158784318Y-102257891D01*
X158778288Y-102255206D01*
X158659704Y-102230000D01*
X158597944Y-102216872D01*
X158597939Y-102216872D01*
X158591487Y-102215500D01*
X158400513Y-102215500D01*
X158394061Y-102216872D01*
X158394056Y-102216872D01*
X158332296Y-102230000D01*
X158213712Y-102255206D01*
X158207682Y-102257891D01*
X158207681Y-102257891D01*
X158045278Y-102330197D01*
X158045276Y-102330198D01*
X158039248Y-102332882D01*
X158033907Y-102336762D01*
X158033906Y-102336763D01*
X158006972Y-102356332D01*
X157884747Y-102445134D01*
X157880326Y-102450044D01*
X157880325Y-102450045D01*
X157828736Y-102507341D01*
X157756960Y-102587056D01*
X157661473Y-102752444D01*
X157602458Y-102934072D01*
X157601768Y-102940633D01*
X157601768Y-102940635D01*
X157585839Y-103092197D01*
X157582496Y-103124000D01*
X156200496Y-103124000D01*
X157978496Y-101346000D01*
X159614496Y-101346000D01*
X159615186Y-101352565D01*
X159632863Y-101520749D01*
X159634458Y-101535928D01*
X159693473Y-101717556D01*
X159696776Y-101723278D01*
X159696777Y-101723279D01*
X159714591Y-101754134D01*
X159788960Y-101882944D01*
X159793378Y-101887851D01*
X159793379Y-101887852D01*
X159857503Y-101959069D01*
X159916747Y-102024866D01*
X160071248Y-102137118D01*
X160077276Y-102139802D01*
X160077278Y-102139803D01*
X160231279Y-102208368D01*
X160245712Y-102214794D01*
X160339112Y-102234647D01*
X160426056Y-102253128D01*
X160426061Y-102253128D01*
X160432513Y-102254500D01*
X160623487Y-102254500D01*
X160629939Y-102253128D01*
X160629944Y-102253128D01*
X160716887Y-102234647D01*
X160810288Y-102214794D01*
X160824721Y-102208368D01*
X160978722Y-102139803D01*
X160978724Y-102139802D01*
X160984752Y-102137118D01*
X161139253Y-102024866D01*
X161198497Y-101959069D01*
X161262621Y-101887852D01*
X161262622Y-101887851D01*
X161267040Y-101882944D01*
X161341409Y-101754134D01*
X161359223Y-101723279D01*
X161359224Y-101723278D01*
X161362527Y-101717556D01*
X161421542Y-101535928D01*
X161423138Y-101520749D01*
X161440814Y-101352565D01*
X161441504Y-101346000D01*
X161434845Y-101282643D01*
X161422232Y-101162635D01*
X161422232Y-101162633D01*
X161421542Y-101156072D01*
X161362527Y-100974444D01*
X161267040Y-100809056D01*
X161173784Y-100705484D01*
X161143675Y-100672045D01*
X161143674Y-100672044D01*
X161139253Y-100667134D01*
X160984752Y-100554882D01*
X160978724Y-100552198D01*
X160978722Y-100552197D01*
X160816319Y-100479891D01*
X160816318Y-100479891D01*
X160810288Y-100477206D01*
X160716888Y-100457353D01*
X160629944Y-100438872D01*
X160629939Y-100438872D01*
X160623487Y-100437500D01*
X160432513Y-100437500D01*
X160426061Y-100438872D01*
X160426056Y-100438872D01*
X160339112Y-100457353D01*
X160245712Y-100477206D01*
X160239682Y-100479891D01*
X160239681Y-100479891D01*
X160077278Y-100552197D01*
X160077276Y-100552198D01*
X160071248Y-100554882D01*
X159916747Y-100667134D01*
X159912326Y-100672044D01*
X159912325Y-100672045D01*
X159882217Y-100705484D01*
X159788960Y-100809056D01*
X159693473Y-100974444D01*
X159634458Y-101156072D01*
X159633768Y-101162633D01*
X159633768Y-101162635D01*
X159621155Y-101282643D01*
X159614496Y-101346000D01*
X157978496Y-101346000D01*
X158994496Y-100330000D01*
X163170496Y-100330000D01*
X163171186Y-100336565D01*
X163185824Y-100475834D01*
X163190458Y-100519928D01*
X163249473Y-100701556D01*
X163252776Y-100707278D01*
X163252777Y-100707279D01*
X163261574Y-100722516D01*
X163344960Y-100866944D01*
X163472747Y-101008866D01*
X163627248Y-101121118D01*
X163633276Y-101123802D01*
X163633278Y-101123803D01*
X163780673Y-101189427D01*
X163801712Y-101198794D01*
X163895112Y-101218647D01*
X163982056Y-101237128D01*
X163982061Y-101237128D01*
X163988513Y-101238500D01*
X164179487Y-101238500D01*
X164185939Y-101237128D01*
X164185944Y-101237128D01*
X164272887Y-101218647D01*
X164366288Y-101198794D01*
X164387327Y-101189427D01*
X164534722Y-101123803D01*
X164534724Y-101123802D01*
X164540752Y-101121118D01*
X164695253Y-101008866D01*
X164823040Y-100866944D01*
X164906426Y-100722516D01*
X164915223Y-100707279D01*
X164915224Y-100707278D01*
X164918527Y-100701556D01*
X164977542Y-100519928D01*
X164982177Y-100475834D01*
X164996814Y-100336565D01*
X164997504Y-100330000D01*
X164992382Y-100281268D01*
X164978232Y-100146635D01*
X164978232Y-100146633D01*
X164977542Y-100140072D01*
X164918527Y-99958444D01*
X164823040Y-99793056D01*
X164695253Y-99651134D01*
X164574289Y-99563248D01*
X164546094Y-99542763D01*
X164546093Y-99542762D01*
X164540752Y-99538882D01*
X164534724Y-99536198D01*
X164534722Y-99536197D01*
X164372319Y-99463891D01*
X164372318Y-99463891D01*
X164366288Y-99461206D01*
X164272887Y-99441353D01*
X164185944Y-99422872D01*
X164185939Y-99422872D01*
X164179487Y-99421500D01*
X163988513Y-99421500D01*
X163982061Y-99422872D01*
X163982056Y-99422872D01*
X163895113Y-99441353D01*
X163801712Y-99461206D01*
X163795682Y-99463891D01*
X163795681Y-99463891D01*
X163633278Y-99536197D01*
X163633276Y-99536198D01*
X163627248Y-99538882D01*
X163621907Y-99542762D01*
X163621906Y-99542763D01*
X163593711Y-99563248D01*
X163472747Y-99651134D01*
X163344960Y-99793056D01*
X163249473Y-99958444D01*
X163190458Y-100140072D01*
X163189768Y-100146633D01*
X163189768Y-100146635D01*
X163175618Y-100281268D01*
X163170496Y-100330000D01*
X158994496Y-100330000D01*
X159791687Y-99532809D01*
X162055890Y-97268605D01*
X162118202Y-97234579D01*
X162144985Y-97231700D01*
X167508214Y-97231700D01*
X167576335Y-97251702D01*
X167622828Y-97305358D01*
X167632932Y-97375632D01*
X167603438Y-97440212D01*
X167597309Y-97446795D01*
X167490505Y-97553599D01*
X167487348Y-97558107D01*
X167487346Y-97558110D01*
X167358122Y-97742661D01*
X167354965Y-97747170D01*
X167352642Y-97752152D01*
X167352639Y-97752157D01*
X167257420Y-97956355D01*
X167255097Y-97961337D01*
X167253675Y-97966645D01*
X167253674Y-97966647D01*
X167249402Y-97982592D01*
X167193937Y-98189592D01*
X167173341Y-98425000D01*
X167193937Y-98660408D01*
X167195361Y-98665722D01*
X167195361Y-98665723D01*
X167228887Y-98790843D01*
X167255097Y-98888663D01*
X167257419Y-98893643D01*
X167257420Y-98893645D01*
X167310021Y-99006446D01*
X167354965Y-99102829D01*
X167490505Y-99296401D01*
X167657599Y-99463495D01*
X167851171Y-99599035D01*
X167856149Y-99601356D01*
X167856152Y-99601358D01*
X168060355Y-99696580D01*
X168065337Y-99698903D01*
X168070645Y-99700325D01*
X168070647Y-99700326D01*
X168288277Y-99758639D01*
X168293592Y-99760063D01*
X168396682Y-99769082D01*
X168467310Y-99775262D01*
X168467317Y-99775262D01*
X168470034Y-99775500D01*
X168587966Y-99775500D01*
X168590683Y-99775262D01*
X168590690Y-99775262D01*
X168661318Y-99769082D01*
X168764408Y-99760063D01*
X168769723Y-99758639D01*
X168987353Y-99700326D01*
X168987355Y-99700325D01*
X168992663Y-99698903D01*
X168997645Y-99696580D01*
X169201848Y-99601358D01*
X169201851Y-99601356D01*
X169206829Y-99599035D01*
X169400401Y-99463495D01*
X169567495Y-99296401D01*
X169570655Y-99291889D01*
X169699878Y-99107339D01*
X169699881Y-99107334D01*
X169703035Y-99102830D01*
X169705358Y-99097848D01*
X169705361Y-99097843D01*
X169800580Y-98893645D01*
X169800581Y-98893644D01*
X169802903Y-98888663D01*
X169829114Y-98790843D01*
X169862639Y-98665723D01*
X169862639Y-98665722D01*
X169864063Y-98660408D01*
X169884659Y-98425000D01*
X169864063Y-98189592D01*
X169808598Y-97982592D01*
X169804326Y-97966647D01*
X169804325Y-97966645D01*
X169802903Y-97961337D01*
X169703035Y-97747171D01*
X169567495Y-97553599D01*
X169400401Y-97386505D01*
X169206829Y-97250965D01*
X169201851Y-97248644D01*
X169201848Y-97248642D01*
X169103430Y-97202749D01*
X169008942Y-97158688D01*
X168955658Y-97111772D01*
X168936197Y-97043494D01*
X168956739Y-96975534D01*
X168973097Y-96955399D01*
X169382801Y-96545694D01*
X169382806Y-96545689D01*
X169382809Y-96545687D01*
X169903340Y-96025155D01*
X169908883Y-96019937D01*
X169948923Y-95984465D01*
X169954628Y-95979411D01*
X169989349Y-95929108D01*
X169993861Y-95922976D01*
X170026833Y-95880891D01*
X170026834Y-95880890D01*
X170031532Y-95874893D01*
X170035756Y-95865508D01*
X170046958Y-95845647D01*
X170048481Y-95843441D01*
X170048482Y-95843439D01*
X170052807Y-95837173D01*
X170074477Y-95780034D01*
X170077390Y-95773002D01*
X170090076Y-95744814D01*
X170102465Y-95717288D01*
X170104321Y-95707162D01*
X170110444Y-95685195D01*
X170111393Y-95682694D01*
X170111393Y-95682693D01*
X170114094Y-95675572D01*
X170115455Y-95664368D01*
X170121459Y-95614919D01*
X170122604Y-95607397D01*
X170132245Y-95554786D01*
X170132245Y-95554784D01*
X170133619Y-95547287D01*
X170133130Y-95539195D01*
X170129930Y-95486305D01*
X170129700Y-95478697D01*
X170129700Y-95463153D01*
X170149702Y-95395032D01*
X170178309Y-95363722D01*
X170337121Y-95240112D01*
X170341240Y-95236906D01*
X170388640Y-95185417D01*
X170490194Y-95075101D01*
X170490197Y-95075097D01*
X170493722Y-95071268D01*
X170599299Y-94909670D01*
X170614008Y-94887157D01*
X170614010Y-94887153D01*
X170616860Y-94882791D01*
X170620766Y-94873888D01*
X170705200Y-94681394D01*
X170707296Y-94676616D01*
X170744156Y-94531059D01*
X170780268Y-94469933D01*
X170843695Y-94438034D01*
X170914299Y-94445491D01*
G37*
%TD.AperFunction*%
%TD*%
M02*
