M48
; DRILL file {KiCad (6.99.0-2504-g6a9c6e8599)} date Monday, September 25, 2023 at 12:56:28 AM
; FORMAT={-:-/ absolute / inch / decimal}
; #@! TF.CreationDate,2023-09-25T00:56:28-07:00
; #@! TF.GenerationSoftware,Kicad,Pcbnew,(6.99.0-2504-g6a9c6e8599)
; #@! TF.FileFunction,Plated,1,4,PTH
FMAT,2
INCH
; #@! TA.AperFunction,Plated,PTH,ViaDrill
T1C0.0157
; #@! TA.AperFunction,Plated,PTH,ComponentDrill
T2C0.0197
; #@! TA.AperFunction,Plated,PTH,ComponentDrill
T3C0.0374
; #@! TA.AperFunction,Plated,PTH,ComponentDrill
T4C0.0394
; #@! TA.AperFunction,Plated,PTH,ComponentDrill
T5C0.1260
%
G90
G05
T1
X5.02Y-4.72
X5.15Y-4.835
X5.33Y-4.67
X5.36Y-4.58
X5.43Y-4.3256
X5.44Y-4.4
X5.45Y-5.01
X5.46Y-2.86
X5.46Y-4.92
X5.475Y-3.05
X5.475Y-3.13
X5.51Y-2.93
X5.515Y-3.09
X5.52Y-4.3256
X5.54Y-4.52
X5.555Y-3.05
X5.555Y-3.13
X5.575Y-3.92
X5.6Y-4.3256
X5.64Y-3.92
X5.64Y-4.48
X5.66Y-4.18
X5.677Y-4.0328
X5.725Y-3.55
X5.74Y-4.71
X5.81Y-3.97
X5.84Y-3.86
X5.87Y-3.78
X5.905Y-4.73
X5.98Y-3.8
X6.02Y-4.06
X6.06Y-4.525
X6.06Y-4.575
X6.06Y-4.625
X6.06Y-4.675
X6.09Y-4.13
X6.09Y-4.23
X6.15Y-4.785
X6.19Y-4.965
X6.21Y-5.09
X6.24Y-4.06
X6.32Y-3.99
X6.32Y-4.15
X6.37Y-4.93
X6.39Y-4.59
X6.46Y-3.95
X6.4744Y-4.1356
X6.485Y-3.42
X6.485Y-3.5
X6.525Y-3.46
X6.565Y-3.42
X6.565Y-3.5
X6.585Y-4.475
X6.585Y-4.525
X6.585Y-4.575
X6.6Y-4.09
X6.625Y-4.626
X6.626Y-4.675
T2
X4.9633Y-2.7234
X4.9633Y-5.0069
X4.991Y-2.6566
X4.991Y-2.7902
X4.991Y-4.94
X4.991Y-5.0737
X5.0578Y-2.6289
X5.0578Y-2.8179
X5.0578Y-4.9124
X5.0578Y-5.1013
X5.1246Y-2.6566
X5.1246Y-2.7902
X5.1246Y-4.94
X5.1246Y-5.0737
X5.1523Y-2.7234
X5.1523Y-5.0069
T3
X5.8016Y-2.965
X5.9Y-2.965
X5.9984Y-2.965
T4
X5.05Y-3.7748
X5.05Y-3.8748
X5.05Y-3.9748
X5.05Y-4.0748
X5.05Y-4.1748
X5.3108Y-3.0508
X5.3108Y-3.1492
X5.3108Y-3.4508
X5.3108Y-3.5492
X6.3004Y-2.97
X6.4004Y-2.97
X6.4698Y-5.06
X6.5004Y-2.97
X6.5698Y-5.06
X6.57Y-3.71
X6.6004Y-2.97
X6.67Y-3.31
X6.67Y-3.41
X6.67Y-3.51
X6.67Y-3.61
X6.67Y-3.71
X6.9369Y-2.9151
X6.9369Y-3.0151
X6.9369Y-3.1151
X6.9369Y-3.2151
X6.9369Y-3.3151
X6.9369Y-3.4151
X6.9369Y-3.5151
X6.9369Y-3.6151
X6.9369Y-3.7151
X6.9369Y-3.8151
X6.9369Y-3.9151
X6.9369Y-4.0151
X6.9369Y-4.1151
X6.9369Y-4.2151
X6.9369Y-4.3151
X6.9369Y-4.4151
X6.9369Y-4.5151
X6.9369Y-4.6151
X6.9369Y-4.7151
X6.9369Y-4.8151
X7.0369Y-2.9151
X7.0369Y-3.0151
X7.0369Y-3.1151
X7.0369Y-3.2151
X7.0369Y-3.3151
X7.0369Y-3.4151
X7.0369Y-3.5151
X7.0369Y-3.6151
X7.0369Y-3.7151
X7.0369Y-3.8151
X7.0369Y-3.9151
X7.0369Y-4.0151
X7.0369Y-4.1151
X7.0369Y-4.2151
X7.0369Y-4.3151
X7.0369Y-4.4151
X7.0369Y-4.5151
X7.0369Y-4.6151
X7.0369Y-4.7151
X7.0369Y-4.8151
T5
X5.0578Y-2.7234
X5.0578Y-5.0069
T0
M30
