%TF.GenerationSoftware,KiCad,Pcbnew,(6.99.0-2504-g6a9c6e8599)*%
%TF.CreationDate,2023-09-25T00:56:30-07:00*%
%TF.ProjectId,BuoyPower,42756f79-506f-4776-9572-2e6b69636164,rev?*%
%TF.SameCoordinates,Original*%
%TF.FileFunction,Copper,L2,Inr*%
%TF.FilePolarity,Positive*%
%FSLAX46Y46*%
G04 Gerber Fmt 4.6, Leading zero omitted, Abs format (unit mm)*
G04 Created by KiCad (PCBNEW (6.99.0-2504-g6a9c6e8599)) date 2023-09-25 00:56:30*
%MOMM*%
%LPD*%
G01*
G04 APERTURE LIST*
G04 Aperture macros list*
%AMRoundRect*
0 Rectangle with rounded corners*
0 $1 Rounding radius*
0 $2 $3 $4 $5 $6 $7 $8 $9 X,Y pos of 4 corners*
0 Add a 4 corners polygon primitive as box body*
4,1,4,$2,$3,$4,$5,$6,$7,$8,$9,$2,$3,0*
0 Add four circle primitives for the rounded corners*
1,1,$1+$1,$2,$3*
1,1,$1+$1,$4,$5*
1,1,$1+$1,$6,$7*
1,1,$1+$1,$8,$9*
0 Add four rect primitives between the rounded corners*
20,1,$1+$1,$2,$3,$4,$5,0*
20,1,$1+$1,$4,$5,$6,$7,0*
20,1,$1+$1,$6,$7,$8,$9,0*
20,1,$1+$1,$8,$9,$2,$3,0*%
G04 Aperture macros list end*
%TA.AperFunction,ComponentPad*%
%ADD10R,1.700000X1.700000*%
%TD*%
%TA.AperFunction,ComponentPad*%
%ADD11O,1.700000X1.700000*%
%TD*%
%TA.AperFunction,ComponentPad*%
%ADD12RoundRect,0.250000X0.600000X0.725000X-0.600000X0.725000X-0.600000X-0.725000X0.600000X-0.725000X0*%
%TD*%
%TA.AperFunction,ComponentPad*%
%ADD13O,1.700000X1.950000*%
%TD*%
%TA.AperFunction,ComponentPad*%
%ADD14RoundRect,0.250000X-0.750000X0.600000X-0.750000X-0.600000X0.750000X-0.600000X0.750000X0.600000X0*%
%TD*%
%TA.AperFunction,ComponentPad*%
%ADD15O,2.000000X1.700000*%
%TD*%
%TA.AperFunction,ComponentPad*%
%ADD16C,0.800000*%
%TD*%
%TA.AperFunction,ComponentPad*%
%ADD17C,6.400000*%
%TD*%
%TA.AperFunction,ComponentPad*%
%ADD18C,1.700000*%
%TD*%
%TA.AperFunction,ViaPad*%
%ADD19C,0.800000*%
%TD*%
%TA.AperFunction,Conductor*%
%ADD20C,1.500000*%
%TD*%
%TA.AperFunction,Conductor*%
%ADD21C,2.000000*%
%TD*%
G04 APERTURE END LIST*
D10*
%TO.N,GND*%
%TO.C,J9*%
X164332999Y-128523999D03*
D11*
%TO.N,Net-(BT2-+)*%
X166872999Y-128523999D03*
%TD*%
D10*
%TO.N,BATT_IN*%
%TO.C,J8*%
X160029999Y-75437999D03*
D11*
%TO.N,GND*%
X162569999Y-75437999D03*
%TO.N,+5V*%
X165109999Y-75437999D03*
%TO.N,GND*%
X167649999Y-75437999D03*
%TD*%
D12*
%TO.N,BATT_IN*%
%TO.C,J5*%
X152360000Y-75311000D03*
D13*
%TO.N,unconnected-(J5-Pin_2)*%
X149859999Y-75310999D03*
%TO.N,GND*%
X147359999Y-75310999D03*
%TD*%
D14*
%TO.N,GND*%
%TO.C,J4*%
X134895000Y-87650000D03*
D15*
%TO.N,BATT_IN*%
X134894999Y-90149999D03*
%TD*%
D16*
%TO.N,N/C*%
%TO.C,H3*%
X130868000Y-127174000D03*
X130165056Y-128871056D03*
X130165056Y-125476944D03*
X128468000Y-129574000D03*
D17*
X128468000Y-127174000D03*
D16*
X128468000Y-124774000D03*
X126770944Y-128871056D03*
X126770944Y-125476944D03*
X126068000Y-127174000D03*
%TD*%
%TO.N,N/C*%
%TO.C,H2*%
X130868000Y-69174000D03*
X130165056Y-70871056D03*
X130165056Y-67476944D03*
X128468000Y-71574000D03*
D17*
X128468000Y-69174000D03*
D16*
X128468000Y-66774000D03*
X126770944Y-70871056D03*
X126770944Y-67476944D03*
X126068000Y-69174000D03*
%TD*%
D10*
%TO.N,/HOLD*%
%TO.C,J2*%
X128269999Y-106039999D03*
D11*
%TO.N,/SCL*%
X128269999Y-103499999D03*
%TO.N,/SDA*%
X128269999Y-100959999D03*
%TO.N,GND*%
X128269999Y-98419999D03*
%TO.N,VBUS*%
X128269999Y-95879999D03*
%TD*%
D18*
%TO.N,+5V*%
%TO.C,J1*%
X169418000Y-84074000D03*
%TO.N,GND*%
X169418000Y-86614000D03*
X169418000Y-89154000D03*
%TO.N,/PowerMonitor/VOUT*%
X169418000Y-91694000D03*
%TO.N,/REG_EN*%
X169418000Y-94234000D03*
%TO.N,N/C*%
X166878000Y-94234000D03*
%TD*%
D14*
%TO.N,GND*%
%TO.C,J7*%
X134895000Y-77490000D03*
D15*
%TO.N,BATT_IN*%
X134894999Y-79989999D03*
%TD*%
D10*
%TO.N,VBUS*%
%TO.C,J10*%
X176197999Y-74043999D03*
D11*
%TO.N,+5V*%
X178737999Y-74043999D03*
%TO.N,/SDA*%
X176197999Y-76583999D03*
%TO.N,+5V*%
X178737999Y-76583999D03*
%TO.N,/SCL*%
X176197999Y-79123999D03*
%TO.N,GND*%
X178737999Y-79123999D03*
%TO.N,unconnected-(J10-Pin_7)*%
X176197999Y-81663999D03*
%TO.N,unconnected-(J10-Pin_8)*%
X178737999Y-81663999D03*
%TO.N,unconnected-(J10-Pin_9)*%
X176197999Y-84203999D03*
%TO.N,unconnected-(J10-Pin_10)*%
X178737999Y-84203999D03*
%TO.N,/HOLD*%
X176197999Y-86743999D03*
%TO.N,unconnected-(J10-Pin_12)*%
X178737999Y-86743999D03*
%TO.N,/TEST*%
X176197999Y-89283999D03*
%TO.N,unconnected-(J10-Pin_14)*%
X178737999Y-89283999D03*
%TO.N,unconnected-(J10-Pin_15)*%
X176197999Y-91823999D03*
%TO.N,unconnected-(J10-Pin_16)*%
X178737999Y-91823999D03*
%TO.N,unconnected-(J10-Pin_17)*%
X176197999Y-94363999D03*
%TO.N,unconnected-(J10-Pin_18)*%
X178737999Y-94363999D03*
%TO.N,unconnected-(J10-Pin_19)*%
X176197999Y-96903999D03*
%TO.N,unconnected-(J10-Pin_20)*%
X178737999Y-96903999D03*
%TO.N,unconnected-(J10-Pin_21)*%
X176197999Y-99443999D03*
%TO.N,unconnected-(J10-Pin_22)*%
X178737999Y-99443999D03*
%TO.N,unconnected-(J10-Pin_23)*%
X176197999Y-101983999D03*
%TO.N,unconnected-(J10-Pin_24)*%
X178737999Y-101983999D03*
%TO.N,unconnected-(J10-Pin_25)*%
X176197999Y-104523999D03*
%TO.N,unconnected-(J10-Pin_26)*%
X178737999Y-104523999D03*
%TO.N,unconnected-(J10-Pin_27)*%
X176197999Y-107063999D03*
%TO.N,unconnected-(J10-Pin_28)*%
X178737999Y-107063999D03*
%TO.N,unconnected-(J10-Pin_29)*%
X176197999Y-109603999D03*
%TO.N,unconnected-(J10-Pin_30)*%
X178737999Y-109603999D03*
%TO.N,unconnected-(J10-Pin_31)*%
X176197999Y-112143999D03*
%TO.N,unconnected-(J10-Pin_32)*%
X178737999Y-112143999D03*
%TO.N,unconnected-(J10-Pin_33)*%
X176197999Y-114683999D03*
%TO.N,unconnected-(J10-Pin_34)*%
X178737999Y-114683999D03*
%TO.N,unconnected-(J10-Pin_35)*%
X176197999Y-117223999D03*
%TO.N,unconnected-(J10-Pin_36)*%
X178737999Y-117223999D03*
%TO.N,unconnected-(J10-Pin_37)*%
X176197999Y-119763999D03*
%TO.N,unconnected-(J10-Pin_38)*%
X178737999Y-119763999D03*
%TO.N,GND*%
X176197999Y-122303999D03*
%TO.N,unconnected-(J10-Pin_40)*%
X178737999Y-122303999D03*
%TD*%
D19*
%TO.N,VBUS*%
X152908000Y-103124000D03*
%TO.N,GND*%
X143764000Y-106172000D03*
%TO.N,/SDA*%
X148336000Y-98044000D03*
X147574000Y-100838000D03*
%TO.N,GND*%
X149987000Y-120142000D03*
X167259000Y-116205000D03*
X165735000Y-87884000D03*
X145796000Y-119634000D03*
X154686000Y-104902000D03*
X166751000Y-88900000D03*
X153924000Y-118745000D03*
X168300400Y-118745000D03*
X167259000Y-113665000D03*
X153924000Y-116205000D03*
X164719000Y-88900000D03*
X156210000Y-121539000D03*
X168275000Y-117500400D03*
X157226000Y-126111000D03*
X153924000Y-114935000D03*
X166751000Y-86868000D03*
X149098000Y-96012000D03*
X130810000Y-122809000D03*
X127508000Y-119888000D03*
X143256000Y-99568000D03*
X136144000Y-116332000D03*
X164719000Y-86868000D03*
X145415000Y-90170000D03*
X139954000Y-74422000D03*
X154686000Y-107442000D03*
X167259000Y-114935000D03*
X153924000Y-117475000D03*
X141605000Y-99568000D03*
%TO.N,VBUS*%
X138684000Y-72644000D03*
X164449000Y-105045000D03*
X144195800Y-102433000D03*
X158496000Y-103124000D03*
X151892000Y-96520000D03*
%TO.N,/REG_EN*%
X140716000Y-114808000D03*
%TO.N,/SDA*%
X167640000Y-103886000D03*
X164084000Y-100330000D03*
%TO.N,/SCL*%
X160528000Y-101346000D03*
X160528000Y-105410000D03*
%TO.N,/HOLD*%
X138430000Y-127254000D03*
%TO.N,/TEST*%
X138684000Y-124968000D03*
%TO.N,BATT_IN*%
X140081000Y-78486000D03*
X141097000Y-79502000D03*
X139065000Y-77470000D03*
X139065000Y-79502000D03*
X141097000Y-77470000D03*
%TO.N,Net-(BT2-+)*%
X162306000Y-116586000D03*
X138176000Y-111760000D03*
%TO.N,VCC*%
X142240000Y-109870000D03*
X140208000Y-109870000D03*
X143256000Y-113792000D03*
X135382000Y-118618000D03*
X137922000Y-109870000D03*
X157734000Y-129286000D03*
X161798000Y-125222000D03*
%TD*%
D20*
%TO.N,+5V*%
X178738000Y-74044000D02*
X178738000Y-72058000D01*
X177800000Y-71120000D02*
X172466000Y-71120000D01*
X170180000Y-80264000D02*
X169418000Y-81026000D01*
X178738000Y-72058000D02*
X177800000Y-71120000D01*
X169418000Y-81026000D02*
X169418000Y-84074000D01*
X170180000Y-73406000D02*
X170180000Y-80264000D01*
X172466000Y-71120000D02*
X170180000Y-73406000D01*
X178738000Y-76584000D02*
X178738000Y-74044000D01*
D21*
%TO.N,VBUS*%
X173352000Y-74044000D02*
X173228000Y-74168000D01*
X176198000Y-74044000D02*
X173352000Y-74044000D01*
%TD*%
%TA.AperFunction,Conductor*%
%TO.N,VCC*%
G36*
X180909145Y-107716868D02*
G01*
X180955878Y-107770314D01*
X180967500Y-107823170D01*
X180967500Y-120779053D01*
X180961034Y-120818898D01*
X180848000Y-121158000D01*
X180848000Y-128979222D01*
X180843075Y-129014104D01*
X180811679Y-129123080D01*
X180808235Y-129133352D01*
X180752473Y-129278617D01*
X180751251Y-129281681D01*
X180691603Y-129425685D01*
X180687461Y-129434670D01*
X180616436Y-129574063D01*
X180614474Y-129577759D01*
X180539466Y-129713476D01*
X180534863Y-129721147D01*
X180453587Y-129846302D01*
X180449433Y-129852698D01*
X180446545Y-129856952D01*
X180357022Y-129983123D01*
X180352201Y-129989477D01*
X180253365Y-130111529D01*
X180249396Y-130116195D01*
X180146454Y-130231387D01*
X180141598Y-130236522D01*
X180030522Y-130347598D01*
X180025387Y-130352454D01*
X179910195Y-130455396D01*
X179905529Y-130459365D01*
X179783477Y-130558201D01*
X179777123Y-130563022D01*
X179650952Y-130652545D01*
X179646709Y-130655426D01*
X179556639Y-130713918D01*
X179515152Y-130740860D01*
X179507481Y-130745463D01*
X179371759Y-130820474D01*
X179368063Y-130822436D01*
X179236507Y-130889468D01*
X179228670Y-130893461D01*
X179219685Y-130897603D01*
X179075681Y-130957251D01*
X179072618Y-130958473D01*
X179019006Y-130979053D01*
X178927346Y-131014238D01*
X178917080Y-131017680D01*
X178765832Y-131061254D01*
X178763562Y-131061885D01*
X178614721Y-131101766D01*
X178603217Y-131104279D01*
X178532176Y-131116350D01*
X178444150Y-131131306D01*
X178443061Y-131131485D01*
X178294421Y-131155027D01*
X178281790Y-131156378D01*
X178101487Y-131166504D01*
X177971301Y-131173327D01*
X177964707Y-131173500D01*
X164809080Y-131173500D01*
X164807945Y-131173495D01*
X129895320Y-130858967D01*
X129827382Y-130838352D01*
X129781374Y-130784280D01*
X129771904Y-130713918D01*
X129801978Y-130649605D01*
X129851301Y-130615341D01*
X129919961Y-130588985D01*
X129978453Y-130566532D01*
X130091313Y-130509027D01*
X130321854Y-130391561D01*
X130321861Y-130391557D01*
X130324795Y-130390062D01*
X130382707Y-130352454D01*
X130648029Y-130180152D01*
X130648030Y-130180152D01*
X130650793Y-130178357D01*
X130801835Y-130056045D01*
X130950314Y-129935809D01*
X130950318Y-129935806D01*
X130952876Y-129933734D01*
X131227734Y-129658876D01*
X131253209Y-129627418D01*
X131388265Y-129460638D01*
X131419037Y-129422638D01*
X162974500Y-129422638D01*
X162974860Y-129425985D01*
X162974860Y-129425988D01*
X162975871Y-129435388D01*
X162981011Y-129483201D01*
X163032111Y-129620204D01*
X163037510Y-129627416D01*
X163037511Y-129627418D01*
X163062810Y-129661213D01*
X163119739Y-129737261D01*
X163126950Y-129742659D01*
X163217484Y-129810432D01*
X163236796Y-129824889D01*
X163373799Y-129875989D01*
X163410705Y-129879957D01*
X163431012Y-129882140D01*
X163431015Y-129882140D01*
X163434362Y-129882500D01*
X165231638Y-129882500D01*
X165234985Y-129882140D01*
X165234988Y-129882140D01*
X165255295Y-129879957D01*
X165292201Y-129875989D01*
X165429204Y-129824889D01*
X165448517Y-129810432D01*
X165539050Y-129742659D01*
X165546261Y-129737261D01*
X165603190Y-129661213D01*
X165628489Y-129627418D01*
X165628490Y-129627416D01*
X165633889Y-129620204D01*
X165677998Y-129501944D01*
X165720545Y-129445108D01*
X165787065Y-129420297D01*
X165856439Y-129435388D01*
X165888755Y-129460638D01*
X165909526Y-129483201D01*
X165949760Y-129526906D01*
X165953879Y-129530112D01*
X166122316Y-129661213D01*
X166127424Y-129665189D01*
X166325426Y-129772342D01*
X166538365Y-129845444D01*
X166543499Y-129846301D01*
X166543504Y-129846302D01*
X166755294Y-129881643D01*
X166755296Y-129881643D01*
X166760431Y-129882500D01*
X166985569Y-129882500D01*
X166990704Y-129881643D01*
X166990706Y-129881643D01*
X167202496Y-129846302D01*
X167202501Y-129846301D01*
X167207635Y-129845444D01*
X167420574Y-129772342D01*
X167618576Y-129665189D01*
X167623685Y-129661213D01*
X167792121Y-129530112D01*
X167796240Y-129526906D01*
X167872019Y-129444589D01*
X167945194Y-129365101D01*
X167945197Y-129365097D01*
X167948722Y-129361268D01*
X168020921Y-129250759D01*
X168069008Y-129177157D01*
X168069010Y-129177153D01*
X168071860Y-129172791D01*
X168089160Y-129133352D01*
X168141466Y-129014104D01*
X168162296Y-128966616D01*
X168166086Y-128951652D01*
X168216283Y-128753427D01*
X168216283Y-128753426D01*
X168217564Y-128748368D01*
X168222861Y-128684453D01*
X168235726Y-128529189D01*
X168236156Y-128524000D01*
X168229398Y-128442443D01*
X168217995Y-128304828D01*
X168217994Y-128304823D01*
X168217564Y-128299632D01*
X168185750Y-128174000D01*
X168163578Y-128086446D01*
X168163578Y-128086445D01*
X168162296Y-128081384D01*
X168098854Y-127936749D01*
X168073954Y-127879982D01*
X168073952Y-127879978D01*
X168071860Y-127875209D01*
X168054501Y-127848638D01*
X167951573Y-127691096D01*
X167948722Y-127686732D01*
X167945197Y-127682903D01*
X167945194Y-127682899D01*
X167799772Y-127524931D01*
X167796240Y-127521094D01*
X167618576Y-127382811D01*
X167420574Y-127275658D01*
X167207635Y-127202556D01*
X167202501Y-127201699D01*
X167202496Y-127201698D01*
X166990706Y-127166357D01*
X166990704Y-127166357D01*
X166985569Y-127165500D01*
X166760431Y-127165500D01*
X166755296Y-127166357D01*
X166755294Y-127166357D01*
X166543504Y-127201698D01*
X166543499Y-127201699D01*
X166538365Y-127202556D01*
X166325426Y-127275658D01*
X166127424Y-127382811D01*
X165949760Y-127521094D01*
X165946228Y-127524931D01*
X165888755Y-127587362D01*
X165827901Y-127623933D01*
X165756937Y-127621798D01*
X165698392Y-127581636D01*
X165677998Y-127546056D01*
X165642248Y-127450206D01*
X165633889Y-127427796D01*
X165546261Y-127310739D01*
X165429204Y-127223111D01*
X165292201Y-127172011D01*
X165255295Y-127168043D01*
X165234988Y-127165860D01*
X165234985Y-127165860D01*
X165231638Y-127165500D01*
X163434362Y-127165500D01*
X163431015Y-127165860D01*
X163431012Y-127165860D01*
X163410705Y-127168043D01*
X163373799Y-127172011D01*
X163236796Y-127223111D01*
X163119739Y-127310739D01*
X163032111Y-127427796D01*
X162981011Y-127564799D01*
X162974500Y-127625362D01*
X162974500Y-129422638D01*
X131419037Y-129422638D01*
X131472357Y-129356793D01*
X131684062Y-129030795D01*
X131692567Y-129014104D01*
X131859034Y-128687393D01*
X131860532Y-128684453D01*
X131953431Y-128442443D01*
X131998647Y-128324652D01*
X131998648Y-128324650D01*
X131999833Y-128321562D01*
X132100438Y-127946099D01*
X132150705Y-127628731D01*
X132160732Y-127565424D01*
X132160733Y-127565416D01*
X132161246Y-127562176D01*
X132177396Y-127254000D01*
X137516496Y-127254000D01*
X137517186Y-127260565D01*
X137535650Y-127436237D01*
X137536458Y-127443928D01*
X137595473Y-127625556D01*
X137690960Y-127790944D01*
X137818747Y-127932866D01*
X137973248Y-128045118D01*
X137979276Y-128047802D01*
X137979278Y-128047803D01*
X138141681Y-128120109D01*
X138147712Y-128122794D01*
X138241113Y-128142647D01*
X138328056Y-128161128D01*
X138328061Y-128161128D01*
X138334513Y-128162500D01*
X138525487Y-128162500D01*
X138531939Y-128161128D01*
X138531944Y-128161128D01*
X138618887Y-128142647D01*
X138712288Y-128122794D01*
X138718319Y-128120109D01*
X138880722Y-128047803D01*
X138880724Y-128047802D01*
X138886752Y-128045118D01*
X139041253Y-127932866D01*
X139169040Y-127790944D01*
X139264527Y-127625556D01*
X139323542Y-127443928D01*
X139324351Y-127436237D01*
X139342814Y-127260565D01*
X139343504Y-127254000D01*
X139340825Y-127228511D01*
X139324232Y-127070635D01*
X139324232Y-127070633D01*
X139323542Y-127064072D01*
X139264527Y-126882444D01*
X139169040Y-126717056D01*
X139041253Y-126575134D01*
X138913831Y-126482556D01*
X138892094Y-126466763D01*
X138892093Y-126466762D01*
X138886752Y-126462882D01*
X138880724Y-126460198D01*
X138880722Y-126460197D01*
X138718319Y-126387891D01*
X138718318Y-126387891D01*
X138712288Y-126385206D01*
X138618887Y-126365353D01*
X138531944Y-126346872D01*
X138531939Y-126346872D01*
X138525487Y-126345500D01*
X138334513Y-126345500D01*
X138328061Y-126346872D01*
X138328056Y-126346872D01*
X138241113Y-126365353D01*
X138147712Y-126385206D01*
X138141682Y-126387891D01*
X138141681Y-126387891D01*
X137979278Y-126460197D01*
X137979276Y-126460198D01*
X137973248Y-126462882D01*
X137967907Y-126466762D01*
X137967906Y-126466763D01*
X137946169Y-126482556D01*
X137818747Y-126575134D01*
X137690960Y-126717056D01*
X137595473Y-126882444D01*
X137536458Y-127064072D01*
X137535768Y-127070633D01*
X137535768Y-127070635D01*
X137519175Y-127228511D01*
X137516496Y-127254000D01*
X132177396Y-127254000D01*
X132181589Y-127174000D01*
X132161246Y-126785824D01*
X132100438Y-126401901D01*
X132022491Y-126111000D01*
X156312496Y-126111000D01*
X156332458Y-126300928D01*
X156391473Y-126482556D01*
X156486960Y-126647944D01*
X156614747Y-126789866D01*
X156713843Y-126861864D01*
X156750820Y-126888729D01*
X156769248Y-126902118D01*
X156775276Y-126904802D01*
X156775278Y-126904803D01*
X156937681Y-126977109D01*
X156943712Y-126979794D01*
X157037112Y-126999647D01*
X157124056Y-127018128D01*
X157124061Y-127018128D01*
X157130513Y-127019500D01*
X157321487Y-127019500D01*
X157327939Y-127018128D01*
X157327944Y-127018128D01*
X157414888Y-126999647D01*
X157508288Y-126979794D01*
X157514319Y-126977109D01*
X157676722Y-126904803D01*
X157676724Y-126904802D01*
X157682752Y-126902118D01*
X157701181Y-126888729D01*
X157738157Y-126861864D01*
X157837253Y-126789866D01*
X157965040Y-126647944D01*
X158060527Y-126482556D01*
X158119542Y-126300928D01*
X158139504Y-126111000D01*
X158122037Y-125944813D01*
X158120232Y-125927635D01*
X158120232Y-125927633D01*
X158119542Y-125921072D01*
X158060527Y-125739444D01*
X157965040Y-125574056D01*
X157875436Y-125474540D01*
X157841675Y-125437045D01*
X157841674Y-125437044D01*
X157837253Y-125432134D01*
X157709831Y-125339556D01*
X157688094Y-125323763D01*
X157688093Y-125323762D01*
X157682752Y-125319882D01*
X157676724Y-125317198D01*
X157676722Y-125317197D01*
X157514319Y-125244891D01*
X157514318Y-125244891D01*
X157508288Y-125242206D01*
X157414887Y-125222353D01*
X157327944Y-125203872D01*
X157327939Y-125203872D01*
X157321487Y-125202500D01*
X157130513Y-125202500D01*
X157124061Y-125203872D01*
X157124056Y-125203872D01*
X157037113Y-125222353D01*
X156943712Y-125242206D01*
X156937682Y-125244891D01*
X156937681Y-125244891D01*
X156775278Y-125317197D01*
X156775276Y-125317198D01*
X156769248Y-125319882D01*
X156763907Y-125323762D01*
X156763906Y-125323763D01*
X156742169Y-125339556D01*
X156614747Y-125432134D01*
X156610326Y-125437044D01*
X156610325Y-125437045D01*
X156576565Y-125474540D01*
X156486960Y-125574056D01*
X156391473Y-125739444D01*
X156332458Y-125921072D01*
X156331768Y-125927633D01*
X156331768Y-125927635D01*
X156329963Y-125944813D01*
X156312496Y-126111000D01*
X132022491Y-126111000D01*
X131999833Y-126026438D01*
X131860532Y-125663547D01*
X131849530Y-125641955D01*
X131685561Y-125320147D01*
X131685557Y-125320140D01*
X131684062Y-125317206D01*
X131637101Y-125244891D01*
X131474152Y-124993971D01*
X131474152Y-124993970D01*
X131472357Y-124991207D01*
X131453564Y-124968000D01*
X137770496Y-124968000D01*
X137790458Y-125157928D01*
X137849473Y-125339556D01*
X137944960Y-125504944D01*
X138072747Y-125646866D01*
X138171843Y-125718864D01*
X138208820Y-125745729D01*
X138227248Y-125759118D01*
X138233276Y-125761802D01*
X138233278Y-125761803D01*
X138395681Y-125834109D01*
X138401712Y-125836794D01*
X138495112Y-125856647D01*
X138582056Y-125875128D01*
X138582061Y-125875128D01*
X138588513Y-125876500D01*
X138779487Y-125876500D01*
X138785939Y-125875128D01*
X138785944Y-125875128D01*
X138872888Y-125856647D01*
X138966288Y-125836794D01*
X138972319Y-125834109D01*
X139134722Y-125761803D01*
X139134724Y-125761802D01*
X139140752Y-125759118D01*
X139159181Y-125745729D01*
X139196157Y-125718864D01*
X139295253Y-125646866D01*
X139423040Y-125504944D01*
X139518527Y-125339556D01*
X139577542Y-125157928D01*
X139597504Y-124968000D01*
X139577542Y-124778072D01*
X139518527Y-124596444D01*
X139423040Y-124431056D01*
X139410027Y-124416603D01*
X139299675Y-124294045D01*
X139299674Y-124294044D01*
X139295253Y-124289134D01*
X139140752Y-124176882D01*
X139134724Y-124174198D01*
X139134722Y-124174197D01*
X138972319Y-124101891D01*
X138972318Y-124101891D01*
X138966288Y-124099206D01*
X138872887Y-124079353D01*
X138785944Y-124060872D01*
X138785939Y-124060872D01*
X138779487Y-124059500D01*
X138588513Y-124059500D01*
X138582061Y-124060872D01*
X138582056Y-124060872D01*
X138495113Y-124079353D01*
X138401712Y-124099206D01*
X138395682Y-124101891D01*
X138395681Y-124101891D01*
X138233278Y-124174197D01*
X138233276Y-124174198D01*
X138227248Y-124176882D01*
X138072747Y-124289134D01*
X138068326Y-124294044D01*
X138068325Y-124294045D01*
X137957974Y-124416603D01*
X137944960Y-124431056D01*
X137849473Y-124596444D01*
X137790458Y-124778072D01*
X137770496Y-124968000D01*
X131453564Y-124968000D01*
X131227734Y-124689124D01*
X130952876Y-124414266D01*
X130650793Y-124169643D01*
X130324795Y-123957938D01*
X130321861Y-123956443D01*
X130321854Y-123956439D01*
X129981393Y-123782966D01*
X129978453Y-123781468D01*
X129711948Y-123679166D01*
X129618652Y-123643353D01*
X129618650Y-123643352D01*
X129615562Y-123642167D01*
X129240099Y-123541562D01*
X129036207Y-123509268D01*
X128859424Y-123481268D01*
X128859416Y-123481267D01*
X128856176Y-123480754D01*
X128468000Y-123460411D01*
X128079824Y-123480754D01*
X128076584Y-123481267D01*
X128076576Y-123481268D01*
X127899793Y-123509268D01*
X127695901Y-123541562D01*
X127320438Y-123642167D01*
X127317350Y-123643352D01*
X127317348Y-123643353D01*
X127224052Y-123679166D01*
X126957547Y-123781468D01*
X126954607Y-123782966D01*
X126614147Y-123956439D01*
X126614140Y-123956443D01*
X126611206Y-123957938D01*
X126608440Y-123959734D01*
X126608437Y-123959736D01*
X126287971Y-124167848D01*
X126285207Y-124169643D01*
X125983124Y-124414266D01*
X125708266Y-124689124D01*
X125463643Y-124991207D01*
X125461848Y-124993970D01*
X125461848Y-124993971D01*
X125298900Y-125244891D01*
X125251938Y-125317206D01*
X125250443Y-125320140D01*
X125250439Y-125320147D01*
X125206767Y-125405859D01*
X125158019Y-125457474D01*
X125089104Y-125474540D01*
X125021902Y-125451639D01*
X124977750Y-125396042D01*
X124968500Y-125348656D01*
X124968500Y-122809000D01*
X129896496Y-122809000D01*
X129897186Y-122815565D01*
X129912290Y-122959268D01*
X129916458Y-122998928D01*
X129975473Y-123180556D01*
X130070960Y-123345944D01*
X130075378Y-123350851D01*
X130075379Y-123350852D01*
X130174026Y-123460411D01*
X130198747Y-123487866D01*
X130353248Y-123600118D01*
X130359276Y-123602802D01*
X130359278Y-123602803D01*
X130491436Y-123661643D01*
X130527712Y-123677794D01*
X130621113Y-123697647D01*
X130708056Y-123716128D01*
X130708061Y-123716128D01*
X130714513Y-123717500D01*
X130905487Y-123717500D01*
X130911939Y-123716128D01*
X130911944Y-123716128D01*
X130998887Y-123697647D01*
X131092288Y-123677794D01*
X131128564Y-123661643D01*
X131260722Y-123602803D01*
X131260724Y-123602802D01*
X131266752Y-123600118D01*
X131421253Y-123487866D01*
X131445974Y-123460411D01*
X131544621Y-123350852D01*
X131544622Y-123350851D01*
X131549040Y-123345944D01*
X131644527Y-123180556D01*
X131703542Y-122998928D01*
X131707711Y-122959268D01*
X131722814Y-122815565D01*
X131723504Y-122809000D01*
X131703542Y-122619072D01*
X131644527Y-122437444D01*
X131549040Y-122272056D01*
X131503744Y-122221749D01*
X131425675Y-122135045D01*
X131425674Y-122135044D01*
X131421253Y-122130134D01*
X131266752Y-122017882D01*
X131260724Y-122015198D01*
X131260722Y-122015197D01*
X131098319Y-121942891D01*
X131098318Y-121942891D01*
X131092288Y-121940206D01*
X130979721Y-121916279D01*
X130911944Y-121901872D01*
X130911939Y-121901872D01*
X130905487Y-121900500D01*
X130714513Y-121900500D01*
X130708061Y-121901872D01*
X130708056Y-121901872D01*
X130640279Y-121916279D01*
X130527712Y-121940206D01*
X130521682Y-121942891D01*
X130521681Y-121942891D01*
X130359278Y-122015197D01*
X130359276Y-122015198D01*
X130353248Y-122017882D01*
X130198747Y-122130134D01*
X130194326Y-122135044D01*
X130194325Y-122135045D01*
X130116257Y-122221749D01*
X130070960Y-122272056D01*
X129975473Y-122437444D01*
X129916458Y-122619072D01*
X129896496Y-122809000D01*
X124968500Y-122809000D01*
X124968500Y-121539000D01*
X155296496Y-121539000D01*
X155297186Y-121545565D01*
X155309212Y-121659982D01*
X155316458Y-121728928D01*
X155375473Y-121910556D01*
X155470960Y-122075944D01*
X155475378Y-122080851D01*
X155475379Y-122080852D01*
X155519753Y-122130134D01*
X155598747Y-122217866D01*
X155753248Y-122330118D01*
X155759276Y-122332802D01*
X155759278Y-122332803D01*
X155921681Y-122405109D01*
X155927712Y-122407794D01*
X156021112Y-122427647D01*
X156108056Y-122446128D01*
X156108061Y-122446128D01*
X156114513Y-122447500D01*
X156305487Y-122447500D01*
X156311939Y-122446128D01*
X156311944Y-122446128D01*
X156398888Y-122427647D01*
X156492288Y-122407794D01*
X156498319Y-122405109D01*
X156660722Y-122332803D01*
X156660724Y-122332802D01*
X156666752Y-122330118D01*
X156821253Y-122217866D01*
X156900247Y-122130134D01*
X156944621Y-122080852D01*
X156944622Y-122080851D01*
X156949040Y-122075944D01*
X157044527Y-121910556D01*
X157103542Y-121728928D01*
X157110789Y-121659982D01*
X157122814Y-121545565D01*
X157123504Y-121539000D01*
X157103542Y-121349072D01*
X157044527Y-121167444D01*
X157039075Y-121158000D01*
X156976217Y-121049128D01*
X156949040Y-121002056D01*
X156858939Y-120901988D01*
X156825675Y-120865045D01*
X156825674Y-120865044D01*
X156821253Y-120860134D01*
X156680907Y-120758166D01*
X156672094Y-120751763D01*
X156672093Y-120751762D01*
X156666752Y-120747882D01*
X156660724Y-120745198D01*
X156660722Y-120745197D01*
X156498319Y-120672891D01*
X156498318Y-120672891D01*
X156492288Y-120670206D01*
X156398888Y-120650353D01*
X156311944Y-120631872D01*
X156311939Y-120631872D01*
X156305487Y-120630500D01*
X156114513Y-120630500D01*
X156108061Y-120631872D01*
X156108056Y-120631872D01*
X156021112Y-120650353D01*
X155927712Y-120670206D01*
X155921682Y-120672891D01*
X155921681Y-120672891D01*
X155759278Y-120745197D01*
X155759276Y-120745198D01*
X155753248Y-120747882D01*
X155747907Y-120751762D01*
X155747906Y-120751763D01*
X155739093Y-120758166D01*
X155598747Y-120860134D01*
X155594326Y-120865044D01*
X155594325Y-120865045D01*
X155561062Y-120901988D01*
X155470960Y-121002056D01*
X155443783Y-121049128D01*
X155380926Y-121158000D01*
X155375473Y-121167444D01*
X155316458Y-121349072D01*
X155296496Y-121539000D01*
X124968500Y-121539000D01*
X124968500Y-119888000D01*
X126594496Y-119888000D01*
X126614458Y-120077928D01*
X126673473Y-120259556D01*
X126768960Y-120424944D01*
X126773378Y-120429851D01*
X126773379Y-120429852D01*
X126873572Y-120541128D01*
X126896747Y-120566866D01*
X126938091Y-120596904D01*
X127038982Y-120670206D01*
X127051248Y-120679118D01*
X127057276Y-120681802D01*
X127057278Y-120681803D01*
X127205695Y-120747882D01*
X127225712Y-120756794D01*
X127319113Y-120776647D01*
X127406056Y-120795128D01*
X127406061Y-120795128D01*
X127412513Y-120796500D01*
X127603487Y-120796500D01*
X127609939Y-120795128D01*
X127609944Y-120795128D01*
X127696887Y-120776647D01*
X127790288Y-120756794D01*
X127810305Y-120747882D01*
X127958722Y-120681803D01*
X127958724Y-120681802D01*
X127964752Y-120679118D01*
X127977019Y-120670206D01*
X128077909Y-120596904D01*
X128119253Y-120566866D01*
X128142428Y-120541128D01*
X128242621Y-120429852D01*
X128242622Y-120429851D01*
X128247040Y-120424944D01*
X128342527Y-120259556D01*
X128401542Y-120077928D01*
X128421504Y-119888000D01*
X128401542Y-119698072D01*
X128380724Y-119634000D01*
X144882496Y-119634000D01*
X144883186Y-119640565D01*
X144884546Y-119653500D01*
X144902458Y-119823928D01*
X144961473Y-120005556D01*
X145056960Y-120170944D01*
X145061378Y-120175851D01*
X145061379Y-120175852D01*
X145180325Y-120307955D01*
X145184747Y-120312866D01*
X145283843Y-120384864D01*
X145328291Y-120417157D01*
X145339248Y-120425118D01*
X145345276Y-120427802D01*
X145345278Y-120427803D01*
X145507681Y-120500109D01*
X145513712Y-120502794D01*
X145607113Y-120522647D01*
X145694056Y-120541128D01*
X145694061Y-120541128D01*
X145700513Y-120542500D01*
X145891487Y-120542500D01*
X145897939Y-120541128D01*
X145897944Y-120541128D01*
X145984887Y-120522647D01*
X146078288Y-120502794D01*
X146084319Y-120500109D01*
X146246722Y-120427803D01*
X146246724Y-120427802D01*
X146252752Y-120425118D01*
X146263710Y-120417157D01*
X146308157Y-120384864D01*
X146407253Y-120312866D01*
X146411675Y-120307955D01*
X146530621Y-120175852D01*
X146530622Y-120175851D01*
X146535040Y-120170944D01*
X146551751Y-120142000D01*
X149073496Y-120142000D01*
X149074186Y-120148565D01*
X149091863Y-120316749D01*
X149093458Y-120331928D01*
X149152473Y-120513556D01*
X149247960Y-120678944D01*
X149375747Y-120820866D01*
X149530248Y-120933118D01*
X149536276Y-120935802D01*
X149536278Y-120935803D01*
X149674062Y-120997148D01*
X149704712Y-121010794D01*
X149773823Y-121025484D01*
X149885056Y-121049128D01*
X149885061Y-121049128D01*
X149891513Y-121050500D01*
X150082487Y-121050500D01*
X150088939Y-121049128D01*
X150088944Y-121049128D01*
X150200177Y-121025484D01*
X150269288Y-121010794D01*
X150299938Y-120997148D01*
X150437722Y-120935803D01*
X150437724Y-120935802D01*
X150443752Y-120933118D01*
X150598253Y-120820866D01*
X150726040Y-120678944D01*
X150821527Y-120513556D01*
X150880542Y-120331928D01*
X150882138Y-120316749D01*
X150899814Y-120148565D01*
X150900504Y-120142000D01*
X150880542Y-119952072D01*
X150821527Y-119770444D01*
X150726040Y-119605056D01*
X150646254Y-119516444D01*
X150602675Y-119468045D01*
X150602674Y-119468044D01*
X150598253Y-119463134D01*
X150443752Y-119350882D01*
X150437724Y-119348198D01*
X150437722Y-119348197D01*
X150275319Y-119275891D01*
X150275318Y-119275891D01*
X150269288Y-119273206D01*
X150175887Y-119253353D01*
X150088944Y-119234872D01*
X150088939Y-119234872D01*
X150082487Y-119233500D01*
X149891513Y-119233500D01*
X149885061Y-119234872D01*
X149885056Y-119234872D01*
X149798113Y-119253353D01*
X149704712Y-119273206D01*
X149698682Y-119275891D01*
X149698681Y-119275891D01*
X149536278Y-119348197D01*
X149536276Y-119348198D01*
X149530248Y-119350882D01*
X149375747Y-119463134D01*
X149371326Y-119468044D01*
X149371325Y-119468045D01*
X149327747Y-119516444D01*
X149247960Y-119605056D01*
X149152473Y-119770444D01*
X149093458Y-119952072D01*
X149073496Y-120142000D01*
X146551751Y-120142000D01*
X146630527Y-120005556D01*
X146689542Y-119823928D01*
X146707455Y-119653500D01*
X146708814Y-119640565D01*
X146709504Y-119634000D01*
X146708814Y-119627435D01*
X146690232Y-119450635D01*
X146690232Y-119450633D01*
X146689542Y-119444072D01*
X146630527Y-119262444D01*
X146535040Y-119097056D01*
X146504055Y-119062643D01*
X146411675Y-118960045D01*
X146411674Y-118960044D01*
X146407253Y-118955134D01*
X146252752Y-118842882D01*
X146246724Y-118840198D01*
X146246722Y-118840197D01*
X146084319Y-118767891D01*
X146084318Y-118767891D01*
X146078288Y-118765206D01*
X145983227Y-118745000D01*
X153010496Y-118745000D01*
X153011186Y-118751565D01*
X153029597Y-118926732D01*
X153030458Y-118934928D01*
X153089473Y-119116556D01*
X153184960Y-119281944D01*
X153312747Y-119423866D01*
X153361450Y-119459251D01*
X153448820Y-119522729D01*
X153467248Y-119536118D01*
X153473276Y-119538802D01*
X153473278Y-119538803D01*
X153611062Y-119600148D01*
X153641712Y-119613794D01*
X153705888Y-119627435D01*
X153822056Y-119652128D01*
X153822061Y-119652128D01*
X153828513Y-119653500D01*
X154019487Y-119653500D01*
X154025939Y-119652128D01*
X154025944Y-119652128D01*
X154142112Y-119627435D01*
X154206288Y-119613794D01*
X154236938Y-119600148D01*
X154374722Y-119538803D01*
X154374724Y-119538802D01*
X154380752Y-119536118D01*
X154399181Y-119522729D01*
X154486550Y-119459251D01*
X154535253Y-119423866D01*
X154663040Y-119281944D01*
X154758527Y-119116556D01*
X154817542Y-118934928D01*
X154818404Y-118926732D01*
X154836814Y-118751565D01*
X154837504Y-118745000D01*
X154835599Y-118726872D01*
X154818232Y-118561635D01*
X154818232Y-118561633D01*
X154817542Y-118555072D01*
X154758527Y-118373444D01*
X154663040Y-118208056D01*
X154650662Y-118194309D01*
X154619946Y-118130303D01*
X154628710Y-118059850D01*
X154650661Y-118025693D01*
X154663040Y-118011944D01*
X154740558Y-117877679D01*
X154755223Y-117852279D01*
X154755224Y-117852278D01*
X154758527Y-117846556D01*
X154817542Y-117664928D01*
X154835455Y-117494500D01*
X154836814Y-117481565D01*
X154837504Y-117475000D01*
X154836814Y-117468435D01*
X154818232Y-117291635D01*
X154818232Y-117291633D01*
X154817542Y-117285072D01*
X154758527Y-117103444D01*
X154663040Y-116938056D01*
X154650662Y-116924309D01*
X154619946Y-116860303D01*
X154628710Y-116789850D01*
X154650661Y-116755693D01*
X154663040Y-116741944D01*
X154749668Y-116591900D01*
X154753075Y-116586000D01*
X161392496Y-116586000D01*
X161393186Y-116592565D01*
X161409402Y-116746847D01*
X161412458Y-116775928D01*
X161471473Y-116957556D01*
X161566960Y-117122944D01*
X161694747Y-117264866D01*
X161849248Y-117377118D01*
X161855276Y-117379802D01*
X161855278Y-117379803D01*
X161997608Y-117443172D01*
X162023712Y-117454794D01*
X162087888Y-117468435D01*
X162204056Y-117493128D01*
X162204061Y-117493128D01*
X162210513Y-117494500D01*
X162401487Y-117494500D01*
X162407939Y-117493128D01*
X162407944Y-117493128D01*
X162524112Y-117468435D01*
X162588288Y-117454794D01*
X162614392Y-117443172D01*
X162756722Y-117379803D01*
X162756724Y-117379802D01*
X162762752Y-117377118D01*
X162917253Y-117264866D01*
X163045040Y-117122944D01*
X163140527Y-116957556D01*
X163199542Y-116775928D01*
X163202599Y-116746847D01*
X163218814Y-116592565D01*
X163219504Y-116586000D01*
X163212770Y-116521928D01*
X163200232Y-116402635D01*
X163200232Y-116402633D01*
X163199542Y-116396072D01*
X163140527Y-116214444D01*
X163135075Y-116205000D01*
X166345496Y-116205000D01*
X166346186Y-116211565D01*
X166364597Y-116386732D01*
X166365458Y-116394928D01*
X166424473Y-116576556D01*
X166427776Y-116582278D01*
X166427777Y-116582279D01*
X166433332Y-116591900D01*
X166519960Y-116741944D01*
X166647747Y-116883866D01*
X166802248Y-116996118D01*
X166808276Y-116998802D01*
X166808278Y-116998803D01*
X166844094Y-117014749D01*
X166976712Y-117073794D01*
X167070113Y-117093647D01*
X167157056Y-117112128D01*
X167157061Y-117112128D01*
X167163513Y-117113500D01*
X167272034Y-117113500D01*
X167340155Y-117133502D01*
X167386648Y-117187158D01*
X167396752Y-117257432D01*
X167391867Y-117278436D01*
X167381458Y-117310472D01*
X167380768Y-117317033D01*
X167380768Y-117317035D01*
X167366433Y-117453427D01*
X167361496Y-117500400D01*
X167362186Y-117506965D01*
X167378099Y-117658365D01*
X167381458Y-117690328D01*
X167440473Y-117871956D01*
X167443776Y-117877678D01*
X167443777Y-117877679D01*
X167456474Y-117899670D01*
X167535960Y-118037344D01*
X167540378Y-118042251D01*
X167540379Y-118042252D01*
X167550858Y-118053890D01*
X167581576Y-118117897D01*
X167572811Y-118188351D01*
X167561904Y-118207452D01*
X167561360Y-118208056D01*
X167558062Y-118213768D01*
X167558060Y-118213771D01*
X167552692Y-118223069D01*
X167465873Y-118373444D01*
X167406858Y-118555072D01*
X167406168Y-118561633D01*
X167406168Y-118561635D01*
X167388801Y-118726872D01*
X167386896Y-118745000D01*
X167387586Y-118751565D01*
X167405997Y-118926732D01*
X167406858Y-118934928D01*
X167465873Y-119116556D01*
X167561360Y-119281944D01*
X167689147Y-119423866D01*
X167737850Y-119459251D01*
X167825220Y-119522729D01*
X167843648Y-119536118D01*
X167849676Y-119538802D01*
X167849678Y-119538803D01*
X167987462Y-119600148D01*
X168018112Y-119613794D01*
X168082288Y-119627435D01*
X168198456Y-119652128D01*
X168198461Y-119652128D01*
X168204913Y-119653500D01*
X168395887Y-119653500D01*
X168402339Y-119652128D01*
X168402344Y-119652128D01*
X168518512Y-119627435D01*
X168582688Y-119613794D01*
X168613338Y-119600148D01*
X168751122Y-119538803D01*
X168751124Y-119538802D01*
X168757152Y-119536118D01*
X168775581Y-119522729D01*
X168862950Y-119459251D01*
X168911653Y-119423866D01*
X169039440Y-119281944D01*
X169134927Y-119116556D01*
X169193942Y-118934928D01*
X169194804Y-118926732D01*
X169213214Y-118751565D01*
X169213904Y-118745000D01*
X169211999Y-118726872D01*
X169194632Y-118561635D01*
X169194632Y-118561633D01*
X169193942Y-118555072D01*
X169134927Y-118373444D01*
X169039440Y-118208056D01*
X169024542Y-118191510D01*
X168993824Y-118127503D01*
X169002589Y-118057049D01*
X169013496Y-118037948D01*
X169014040Y-118037344D01*
X169017342Y-118031626D01*
X169106223Y-117877679D01*
X169106224Y-117877678D01*
X169109527Y-117871956D01*
X169168542Y-117690328D01*
X169171902Y-117658365D01*
X169187814Y-117506965D01*
X169188504Y-117500400D01*
X169183567Y-117453427D01*
X169169232Y-117317035D01*
X169169232Y-117317033D01*
X169168542Y-117310472D01*
X169109527Y-117128844D01*
X169103981Y-117119237D01*
X169034926Y-116999632D01*
X169014040Y-116963456D01*
X168886253Y-116821534D01*
X168731752Y-116709282D01*
X168725724Y-116706598D01*
X168725722Y-116706597D01*
X168563319Y-116634291D01*
X168563318Y-116634291D01*
X168557288Y-116631606D01*
X168463888Y-116611753D01*
X168376944Y-116593272D01*
X168376939Y-116593272D01*
X168370487Y-116591900D01*
X168261966Y-116591900D01*
X168193845Y-116571898D01*
X168147352Y-116518242D01*
X168137248Y-116447968D01*
X168142133Y-116426964D01*
X168150502Y-116401206D01*
X168152542Y-116394928D01*
X168153404Y-116386732D01*
X168171814Y-116211565D01*
X168172504Y-116205000D01*
X168155598Y-116044148D01*
X168153232Y-116021635D01*
X168153232Y-116021633D01*
X168152542Y-116015072D01*
X168093527Y-115833444D01*
X167998040Y-115668056D01*
X167985662Y-115654309D01*
X167954946Y-115590303D01*
X167963710Y-115519850D01*
X167985661Y-115485693D01*
X167998040Y-115471944D01*
X168074665Y-115339226D01*
X168090223Y-115312279D01*
X168090224Y-115312278D01*
X168093527Y-115306556D01*
X168152542Y-115124928D01*
X168172504Y-114935000D01*
X168152542Y-114745072D01*
X168093527Y-114563444D01*
X167998040Y-114398056D01*
X167985662Y-114384309D01*
X167954946Y-114320303D01*
X167963710Y-114249850D01*
X167985661Y-114215693D01*
X167998040Y-114201944D01*
X168093527Y-114036556D01*
X168152542Y-113854928D01*
X168153404Y-113846732D01*
X168171814Y-113671565D01*
X168172504Y-113665000D01*
X168157770Y-113524814D01*
X168153232Y-113481635D01*
X168153232Y-113481633D01*
X168152542Y-113475072D01*
X168093527Y-113293444D01*
X167998040Y-113128056D01*
X167870253Y-112986134D01*
X167715752Y-112873882D01*
X167709724Y-112871198D01*
X167709722Y-112871197D01*
X167547319Y-112798891D01*
X167547318Y-112798891D01*
X167541288Y-112796206D01*
X167447888Y-112776353D01*
X167360944Y-112757872D01*
X167360939Y-112757872D01*
X167354487Y-112756500D01*
X167163513Y-112756500D01*
X167157061Y-112757872D01*
X167157056Y-112757872D01*
X167070112Y-112776353D01*
X166976712Y-112796206D01*
X166970682Y-112798891D01*
X166970681Y-112798891D01*
X166808278Y-112871197D01*
X166808276Y-112871198D01*
X166802248Y-112873882D01*
X166647747Y-112986134D01*
X166519960Y-113128056D01*
X166424473Y-113293444D01*
X166365458Y-113475072D01*
X166364768Y-113481633D01*
X166364768Y-113481635D01*
X166360230Y-113524814D01*
X166345496Y-113665000D01*
X166346186Y-113671565D01*
X166364597Y-113846732D01*
X166365458Y-113854928D01*
X166424473Y-114036556D01*
X166519960Y-114201944D01*
X166532338Y-114215691D01*
X166563054Y-114279697D01*
X166554290Y-114350150D01*
X166532339Y-114384307D01*
X166519960Y-114398056D01*
X166424473Y-114563444D01*
X166365458Y-114745072D01*
X166345496Y-114935000D01*
X166365458Y-115124928D01*
X166424473Y-115306556D01*
X166427776Y-115312278D01*
X166427777Y-115312279D01*
X166443335Y-115339226D01*
X166519960Y-115471944D01*
X166532338Y-115485691D01*
X166563054Y-115549697D01*
X166554290Y-115620150D01*
X166532339Y-115654307D01*
X166519960Y-115668056D01*
X166424473Y-115833444D01*
X166365458Y-116015072D01*
X166364768Y-116021633D01*
X166364768Y-116021635D01*
X166362402Y-116044148D01*
X166345496Y-116205000D01*
X163135075Y-116205000D01*
X163095118Y-116135794D01*
X163045040Y-116049056D01*
X162965254Y-115960444D01*
X162921675Y-115912045D01*
X162921674Y-115912044D01*
X162917253Y-115907134D01*
X162762752Y-115794882D01*
X162756724Y-115792198D01*
X162756722Y-115792197D01*
X162594319Y-115719891D01*
X162594318Y-115719891D01*
X162588288Y-115717206D01*
X162494887Y-115697353D01*
X162407944Y-115678872D01*
X162407939Y-115678872D01*
X162401487Y-115677500D01*
X162210513Y-115677500D01*
X162204061Y-115678872D01*
X162204056Y-115678872D01*
X162117113Y-115697353D01*
X162023712Y-115717206D01*
X162017682Y-115719891D01*
X162017681Y-115719891D01*
X161855278Y-115792197D01*
X161855276Y-115792198D01*
X161849248Y-115794882D01*
X161694747Y-115907134D01*
X161690326Y-115912044D01*
X161690325Y-115912045D01*
X161646747Y-115960444D01*
X161566960Y-116049056D01*
X161516882Y-116135794D01*
X161476926Y-116205000D01*
X161471473Y-116214444D01*
X161412458Y-116396072D01*
X161411768Y-116402633D01*
X161411768Y-116402635D01*
X161399230Y-116521928D01*
X161392496Y-116586000D01*
X154753075Y-116586000D01*
X154755223Y-116582279D01*
X154755224Y-116582278D01*
X154758527Y-116576556D01*
X154817542Y-116394928D01*
X154818404Y-116386732D01*
X154836814Y-116211565D01*
X154837504Y-116205000D01*
X154820598Y-116044148D01*
X154818232Y-116021635D01*
X154818232Y-116021633D01*
X154817542Y-116015072D01*
X154758527Y-115833444D01*
X154663040Y-115668056D01*
X154650662Y-115654309D01*
X154619946Y-115590303D01*
X154628710Y-115519850D01*
X154650661Y-115485693D01*
X154663040Y-115471944D01*
X154739665Y-115339226D01*
X154755223Y-115312279D01*
X154755224Y-115312278D01*
X154758527Y-115306556D01*
X154817542Y-115124928D01*
X154837504Y-114935000D01*
X154817542Y-114745072D01*
X154758527Y-114563444D01*
X154663040Y-114398056D01*
X154535253Y-114256134D01*
X154380752Y-114143882D01*
X154374724Y-114141198D01*
X154374722Y-114141197D01*
X154212319Y-114068891D01*
X154212318Y-114068891D01*
X154206288Y-114066206D01*
X154093721Y-114042279D01*
X154025944Y-114027872D01*
X154025939Y-114027872D01*
X154019487Y-114026500D01*
X153828513Y-114026500D01*
X153822061Y-114027872D01*
X153822056Y-114027872D01*
X153754279Y-114042279D01*
X153641712Y-114066206D01*
X153635682Y-114068891D01*
X153635681Y-114068891D01*
X153473278Y-114141197D01*
X153473276Y-114141198D01*
X153467248Y-114143882D01*
X153312747Y-114256134D01*
X153184960Y-114398056D01*
X153089473Y-114563444D01*
X153030458Y-114745072D01*
X153010496Y-114935000D01*
X153030458Y-115124928D01*
X153089473Y-115306556D01*
X153092776Y-115312278D01*
X153092777Y-115312279D01*
X153108335Y-115339226D01*
X153184960Y-115471944D01*
X153197338Y-115485691D01*
X153228054Y-115549697D01*
X153219290Y-115620150D01*
X153197339Y-115654307D01*
X153184960Y-115668056D01*
X153089473Y-115833444D01*
X153030458Y-116015072D01*
X153029768Y-116021633D01*
X153029768Y-116021635D01*
X153027402Y-116044148D01*
X153010496Y-116205000D01*
X153011186Y-116211565D01*
X153029597Y-116386732D01*
X153030458Y-116394928D01*
X153089473Y-116576556D01*
X153092776Y-116582278D01*
X153092777Y-116582279D01*
X153098332Y-116591900D01*
X153184960Y-116741944D01*
X153197338Y-116755691D01*
X153228054Y-116819697D01*
X153219290Y-116890150D01*
X153197339Y-116924307D01*
X153184960Y-116938056D01*
X153089473Y-117103444D01*
X153030458Y-117285072D01*
X153029768Y-117291633D01*
X153029768Y-117291635D01*
X153011186Y-117468435D01*
X153010496Y-117475000D01*
X153011186Y-117481565D01*
X153012546Y-117494500D01*
X153030458Y-117664928D01*
X153089473Y-117846556D01*
X153092776Y-117852278D01*
X153092777Y-117852279D01*
X153107442Y-117877679D01*
X153184960Y-118011944D01*
X153197338Y-118025691D01*
X153228054Y-118089697D01*
X153219290Y-118160150D01*
X153197339Y-118194307D01*
X153184960Y-118208056D01*
X153089473Y-118373444D01*
X153030458Y-118555072D01*
X153029768Y-118561633D01*
X153029768Y-118561635D01*
X153012401Y-118726872D01*
X153010496Y-118745000D01*
X145983227Y-118745000D01*
X145897944Y-118726872D01*
X145897939Y-118726872D01*
X145891487Y-118725500D01*
X145700513Y-118725500D01*
X145694061Y-118726872D01*
X145694056Y-118726872D01*
X145608773Y-118745000D01*
X145513712Y-118765206D01*
X145507682Y-118767891D01*
X145507681Y-118767891D01*
X145345278Y-118840197D01*
X145345276Y-118840198D01*
X145339248Y-118842882D01*
X145184747Y-118955134D01*
X145180326Y-118960044D01*
X145180325Y-118960045D01*
X145087946Y-119062643D01*
X145056960Y-119097056D01*
X144961473Y-119262444D01*
X144902458Y-119444072D01*
X144901768Y-119450633D01*
X144901768Y-119450635D01*
X144883186Y-119627435D01*
X144882496Y-119634000D01*
X128380724Y-119634000D01*
X128342527Y-119516444D01*
X128247040Y-119351056D01*
X128167254Y-119262444D01*
X128123675Y-119214045D01*
X128123674Y-119214044D01*
X128119253Y-119209134D01*
X127983968Y-119110843D01*
X127970094Y-119100763D01*
X127970093Y-119100762D01*
X127964752Y-119096882D01*
X127958724Y-119094198D01*
X127958722Y-119094197D01*
X127796319Y-119021891D01*
X127796318Y-119021891D01*
X127790288Y-119019206D01*
X127696888Y-118999353D01*
X127609944Y-118980872D01*
X127609939Y-118980872D01*
X127603487Y-118979500D01*
X127412513Y-118979500D01*
X127406061Y-118980872D01*
X127406056Y-118980872D01*
X127319112Y-118999353D01*
X127225712Y-119019206D01*
X127219682Y-119021891D01*
X127219681Y-119021891D01*
X127057278Y-119094197D01*
X127057276Y-119094198D01*
X127051248Y-119096882D01*
X127045907Y-119100762D01*
X127045906Y-119100763D01*
X127032032Y-119110843D01*
X126896747Y-119209134D01*
X126892326Y-119214044D01*
X126892325Y-119214045D01*
X126848747Y-119262444D01*
X126768960Y-119351056D01*
X126673473Y-119516444D01*
X126614458Y-119698072D01*
X126594496Y-119888000D01*
X124968500Y-119888000D01*
X124968500Y-116332000D01*
X135230496Y-116332000D01*
X135231186Y-116338565D01*
X135242685Y-116447968D01*
X135250458Y-116521928D01*
X135309473Y-116703556D01*
X135312776Y-116709278D01*
X135312777Y-116709279D01*
X135328335Y-116736226D01*
X135404960Y-116868944D01*
X135409378Y-116873851D01*
X135409379Y-116873852D01*
X135490059Y-116963456D01*
X135532747Y-117010866D01*
X135615664Y-117071109D01*
X135672122Y-117112128D01*
X135687248Y-117123118D01*
X135693276Y-117125802D01*
X135693278Y-117125803D01*
X135855681Y-117198109D01*
X135861712Y-117200794D01*
X135946475Y-117218811D01*
X136042056Y-117239128D01*
X136042061Y-117239128D01*
X136048513Y-117240500D01*
X136239487Y-117240500D01*
X136245939Y-117239128D01*
X136245944Y-117239128D01*
X136341525Y-117218811D01*
X136426288Y-117200794D01*
X136432319Y-117198109D01*
X136594722Y-117125803D01*
X136594724Y-117125802D01*
X136600752Y-117123118D01*
X136615879Y-117112128D01*
X136672336Y-117071109D01*
X136755253Y-117010866D01*
X136797941Y-116963456D01*
X136878621Y-116873852D01*
X136878622Y-116873851D01*
X136883040Y-116868944D01*
X136959665Y-116736226D01*
X136975223Y-116709279D01*
X136975224Y-116709278D01*
X136978527Y-116703556D01*
X137037542Y-116521928D01*
X137045316Y-116447968D01*
X137056814Y-116338565D01*
X137057504Y-116332000D01*
X137046251Y-116224931D01*
X137038232Y-116148635D01*
X137038232Y-116148633D01*
X137037542Y-116142072D01*
X136978527Y-115960444D01*
X136883040Y-115795056D01*
X136785662Y-115686906D01*
X136759675Y-115658045D01*
X136759674Y-115658044D01*
X136755253Y-115653134D01*
X136600752Y-115540882D01*
X136594724Y-115538198D01*
X136594722Y-115538197D01*
X136432319Y-115465891D01*
X136432318Y-115465891D01*
X136426288Y-115463206D01*
X136332887Y-115443353D01*
X136245944Y-115424872D01*
X136245939Y-115424872D01*
X136239487Y-115423500D01*
X136048513Y-115423500D01*
X136042061Y-115424872D01*
X136042056Y-115424872D01*
X135955113Y-115443353D01*
X135861712Y-115463206D01*
X135855682Y-115465891D01*
X135855681Y-115465891D01*
X135693278Y-115538197D01*
X135693276Y-115538198D01*
X135687248Y-115540882D01*
X135532747Y-115653134D01*
X135528326Y-115658044D01*
X135528325Y-115658045D01*
X135502339Y-115686906D01*
X135404960Y-115795056D01*
X135309473Y-115960444D01*
X135250458Y-116142072D01*
X135249768Y-116148633D01*
X135249768Y-116148635D01*
X135241749Y-116224931D01*
X135230496Y-116332000D01*
X124968500Y-116332000D01*
X124968500Y-114808000D01*
X139802496Y-114808000D01*
X139822458Y-114997928D01*
X139881473Y-115179556D01*
X139976960Y-115344944D01*
X140104747Y-115486866D01*
X140259248Y-115599118D01*
X140265276Y-115601802D01*
X140265278Y-115601803D01*
X140414086Y-115668056D01*
X140433712Y-115676794D01*
X140527113Y-115696647D01*
X140614056Y-115715128D01*
X140614061Y-115715128D01*
X140620513Y-115716500D01*
X140811487Y-115716500D01*
X140817939Y-115715128D01*
X140817944Y-115715128D01*
X140904887Y-115696647D01*
X140998288Y-115676794D01*
X141017914Y-115668056D01*
X141166722Y-115601803D01*
X141166724Y-115601802D01*
X141172752Y-115599118D01*
X141327253Y-115486866D01*
X141455040Y-115344944D01*
X141550527Y-115179556D01*
X141609542Y-114997928D01*
X141629504Y-114808000D01*
X141609542Y-114618072D01*
X141550527Y-114436444D01*
X141455040Y-114271056D01*
X141405188Y-114215689D01*
X141331675Y-114134045D01*
X141331674Y-114134044D01*
X141327253Y-114129134D01*
X141191968Y-114030843D01*
X141178094Y-114020763D01*
X141178093Y-114020762D01*
X141172752Y-114016882D01*
X141166724Y-114014198D01*
X141166722Y-114014197D01*
X141004319Y-113941891D01*
X141004318Y-113941891D01*
X140998288Y-113939206D01*
X140904888Y-113919353D01*
X140817944Y-113900872D01*
X140817939Y-113900872D01*
X140811487Y-113899500D01*
X140620513Y-113899500D01*
X140614061Y-113900872D01*
X140614056Y-113900872D01*
X140527112Y-113919353D01*
X140433712Y-113939206D01*
X140427682Y-113941891D01*
X140427681Y-113941891D01*
X140265278Y-114014197D01*
X140265276Y-114014198D01*
X140259248Y-114016882D01*
X140253907Y-114020762D01*
X140253906Y-114020763D01*
X140240032Y-114030843D01*
X140104747Y-114129134D01*
X140100326Y-114134044D01*
X140100325Y-114134045D01*
X140026813Y-114215689D01*
X139976960Y-114271056D01*
X139881473Y-114436444D01*
X139822458Y-114618072D01*
X139802496Y-114808000D01*
X124968500Y-114808000D01*
X124968500Y-111760000D01*
X137262496Y-111760000D01*
X137282458Y-111949928D01*
X137341473Y-112131556D01*
X137344776Y-112137278D01*
X137344777Y-112137279D01*
X137351653Y-112149189D01*
X137436960Y-112296944D01*
X137441378Y-112301851D01*
X137441379Y-112301852D01*
X137560325Y-112433955D01*
X137564747Y-112438866D01*
X137719248Y-112551118D01*
X137725276Y-112553802D01*
X137725278Y-112553803D01*
X137887681Y-112626109D01*
X137893712Y-112628794D01*
X137987112Y-112648647D01*
X138074056Y-112667128D01*
X138074061Y-112667128D01*
X138080513Y-112668500D01*
X138271487Y-112668500D01*
X138277939Y-112667128D01*
X138277944Y-112667128D01*
X138364888Y-112648647D01*
X138458288Y-112628794D01*
X138464319Y-112626109D01*
X138626722Y-112553803D01*
X138626724Y-112553802D01*
X138632752Y-112551118D01*
X138787253Y-112438866D01*
X138791675Y-112433955D01*
X138910621Y-112301852D01*
X138910622Y-112301851D01*
X138915040Y-112296944D01*
X139000347Y-112149189D01*
X139007223Y-112137279D01*
X139007224Y-112137278D01*
X139010527Y-112131556D01*
X139069542Y-111949928D01*
X139089504Y-111760000D01*
X139069542Y-111570072D01*
X139010527Y-111388444D01*
X138915040Y-111223056D01*
X138838355Y-111137888D01*
X138791675Y-111086045D01*
X138791674Y-111086044D01*
X138787253Y-111081134D01*
X138676039Y-111000332D01*
X138638094Y-110972763D01*
X138638093Y-110972762D01*
X138632752Y-110968882D01*
X138626724Y-110966198D01*
X138626722Y-110966197D01*
X138464319Y-110893891D01*
X138464318Y-110893891D01*
X138458288Y-110891206D01*
X138364887Y-110871353D01*
X138277944Y-110852872D01*
X138277939Y-110852872D01*
X138271487Y-110851500D01*
X138080513Y-110851500D01*
X138074061Y-110852872D01*
X138074056Y-110852872D01*
X137987113Y-110871353D01*
X137893712Y-110891206D01*
X137887682Y-110893891D01*
X137887681Y-110893891D01*
X137725278Y-110966197D01*
X137725276Y-110966198D01*
X137719248Y-110968882D01*
X137713907Y-110972762D01*
X137713906Y-110972763D01*
X137675961Y-111000332D01*
X137564747Y-111081134D01*
X137560326Y-111086044D01*
X137560325Y-111086045D01*
X137513646Y-111137888D01*
X137436960Y-111223056D01*
X137341473Y-111388444D01*
X137282458Y-111570072D01*
X137262496Y-111760000D01*
X124968500Y-111760000D01*
X124968500Y-108073157D01*
X124988502Y-108005036D01*
X125042158Y-107958543D01*
X125093935Y-107947158D01*
X153781025Y-107818516D01*
X153849235Y-107838213D01*
X153890709Y-107881515D01*
X153902114Y-107901268D01*
X153946960Y-107978944D01*
X154074747Y-108120866D01*
X154229248Y-108233118D01*
X154235276Y-108235802D01*
X154235278Y-108235803D01*
X154397681Y-108308109D01*
X154403712Y-108310794D01*
X154472823Y-108325484D01*
X154584056Y-108349128D01*
X154584061Y-108349128D01*
X154590513Y-108350500D01*
X154781487Y-108350500D01*
X154787939Y-108349128D01*
X154787944Y-108349128D01*
X154899177Y-108325484D01*
X154968288Y-108310794D01*
X154974319Y-108308109D01*
X155136722Y-108235803D01*
X155136724Y-108235802D01*
X155142752Y-108233118D01*
X155297253Y-108120866D01*
X155425040Y-107978944D01*
X155485987Y-107873381D01*
X155537368Y-107824389D01*
X155594539Y-107810383D01*
X174937479Y-107723644D01*
X175005687Y-107743340D01*
X175043524Y-107780726D01*
X175122278Y-107901268D01*
X175125803Y-107905097D01*
X175125806Y-107905101D01*
X175193784Y-107978944D01*
X175274760Y-108066906D01*
X175452424Y-108205189D01*
X175457005Y-108207668D01*
X175485680Y-108223186D01*
X175536071Y-108273199D01*
X175551423Y-108342516D01*
X175526863Y-108409129D01*
X175485681Y-108444813D01*
X175452424Y-108462811D01*
X175274760Y-108601094D01*
X175271228Y-108604931D01*
X175125806Y-108762899D01*
X175125803Y-108762903D01*
X175122278Y-108766732D01*
X175119427Y-108771096D01*
X175003372Y-108948732D01*
X174999140Y-108955209D01*
X174908704Y-109161384D01*
X174853436Y-109379632D01*
X174834844Y-109604000D01*
X174853436Y-109828368D01*
X174908704Y-110046616D01*
X174999140Y-110252791D01*
X175001990Y-110257153D01*
X175001992Y-110257157D01*
X175016701Y-110279670D01*
X175122278Y-110441268D01*
X175125803Y-110445097D01*
X175125806Y-110445101D01*
X175227360Y-110555417D01*
X175274760Y-110606906D01*
X175452424Y-110745189D01*
X175457005Y-110747668D01*
X175485680Y-110763186D01*
X175536071Y-110813199D01*
X175551423Y-110882516D01*
X175526863Y-110949129D01*
X175485681Y-110984813D01*
X175452424Y-111002811D01*
X175448313Y-111006010D01*
X175448311Y-111006012D01*
X175351796Y-111081134D01*
X175274760Y-111141094D01*
X175271228Y-111144931D01*
X175125806Y-111302899D01*
X175125803Y-111302903D01*
X175122278Y-111306732D01*
X175119427Y-111311096D01*
X175003372Y-111488732D01*
X174999140Y-111495209D01*
X174997048Y-111499978D01*
X174997046Y-111499982D01*
X174939491Y-111631196D01*
X174908704Y-111701384D01*
X174853436Y-111919632D01*
X174853006Y-111924823D01*
X174853005Y-111924828D01*
X174850405Y-111956206D01*
X174834844Y-112144000D01*
X174835274Y-112149189D01*
X174847518Y-112296944D01*
X174853436Y-112368368D01*
X174854717Y-112373426D01*
X174854717Y-112373427D01*
X174900395Y-112553803D01*
X174908704Y-112586616D01*
X174999140Y-112792791D01*
X175001990Y-112797153D01*
X175001992Y-112797157D01*
X175016701Y-112819670D01*
X175122278Y-112981268D01*
X175125803Y-112985097D01*
X175125806Y-112985101D01*
X175131278Y-112991045D01*
X175274760Y-113146906D01*
X175452424Y-113285189D01*
X175457005Y-113287668D01*
X175485680Y-113303186D01*
X175536071Y-113353199D01*
X175551423Y-113422516D01*
X175526863Y-113489129D01*
X175485681Y-113524813D01*
X175452424Y-113542811D01*
X175274760Y-113681094D01*
X175271228Y-113684931D01*
X175125806Y-113842899D01*
X175125803Y-113842903D01*
X175122278Y-113846732D01*
X175119427Y-113851096D01*
X175003372Y-114028732D01*
X174999140Y-114035209D01*
X174997048Y-114039978D01*
X174997046Y-114039982D01*
X174984366Y-114068891D01*
X174908704Y-114241384D01*
X174853436Y-114459632D01*
X174834844Y-114684000D01*
X174853436Y-114908368D01*
X174854717Y-114913426D01*
X174854717Y-114913427D01*
X174906615Y-115118365D01*
X174908704Y-115126616D01*
X174910800Y-115131394D01*
X174990143Y-115312279D01*
X174999140Y-115332791D01*
X175001990Y-115337153D01*
X175001992Y-115337157D01*
X175007080Y-115344944D01*
X175122278Y-115521268D01*
X175125803Y-115525097D01*
X175125806Y-115525101D01*
X175196416Y-115601803D01*
X175274760Y-115686906D01*
X175278879Y-115690112D01*
X175413710Y-115795056D01*
X175452424Y-115825189D01*
X175457005Y-115827668D01*
X175485680Y-115843186D01*
X175536071Y-115893199D01*
X175551423Y-115962516D01*
X175526863Y-116029129D01*
X175485681Y-116064813D01*
X175452424Y-116082811D01*
X175274760Y-116221094D01*
X175271228Y-116224931D01*
X175125806Y-116382899D01*
X175125803Y-116382903D01*
X175122278Y-116386732D01*
X175119427Y-116391096D01*
X175003372Y-116568732D01*
X174999140Y-116575209D01*
X174997048Y-116579978D01*
X174997046Y-116579982D01*
X174991527Y-116592565D01*
X174908704Y-116781384D01*
X174907422Y-116786445D01*
X174907422Y-116786446D01*
X174897293Y-116826445D01*
X174853436Y-116999632D01*
X174853006Y-117004823D01*
X174853005Y-117004828D01*
X174845308Y-117097721D01*
X174834844Y-117224000D01*
X174853436Y-117448368D01*
X174854717Y-117453426D01*
X174854717Y-117453427D01*
X174906615Y-117658365D01*
X174908704Y-117666616D01*
X174910800Y-117671394D01*
X174990143Y-117852279D01*
X174999140Y-117872791D01*
X175001990Y-117877153D01*
X175001992Y-117877157D01*
X175016701Y-117899670D01*
X175122278Y-118061268D01*
X175125803Y-118065097D01*
X175125806Y-118065101D01*
X175148449Y-118089697D01*
X175274760Y-118226906D01*
X175452424Y-118365189D01*
X175457005Y-118367668D01*
X175485680Y-118383186D01*
X175536071Y-118433199D01*
X175551423Y-118502516D01*
X175526863Y-118569129D01*
X175485681Y-118604813D01*
X175452424Y-118622811D01*
X175274760Y-118761094D01*
X175271228Y-118764931D01*
X175125806Y-118922899D01*
X175125803Y-118922903D01*
X175122278Y-118926732D01*
X175119427Y-118931096D01*
X175003372Y-119108732D01*
X174999140Y-119115209D01*
X174997048Y-119119978D01*
X174997046Y-119119982D01*
X174959644Y-119205251D01*
X174908704Y-119321384D01*
X174853436Y-119539632D01*
X174853006Y-119544823D01*
X174853005Y-119544828D01*
X174847177Y-119615166D01*
X174834844Y-119764000D01*
X174853436Y-119988368D01*
X174854717Y-119993426D01*
X174854717Y-119993427D01*
X174899671Y-120170944D01*
X174908704Y-120206616D01*
X174999140Y-120412791D01*
X175001990Y-120417153D01*
X175001992Y-120417157D01*
X175057942Y-120502794D01*
X175122278Y-120601268D01*
X175125803Y-120605097D01*
X175125806Y-120605101D01*
X175196416Y-120681803D01*
X175274760Y-120766906D01*
X175278879Y-120770112D01*
X175400848Y-120865045D01*
X175452424Y-120905189D01*
X175457005Y-120907668D01*
X175485680Y-120923186D01*
X175536071Y-120973199D01*
X175551423Y-121042516D01*
X175526863Y-121109129D01*
X175485681Y-121144813D01*
X175452424Y-121162811D01*
X175448313Y-121166010D01*
X175448311Y-121166012D01*
X175278879Y-121297888D01*
X175274760Y-121301094D01*
X175271228Y-121304931D01*
X175125806Y-121462899D01*
X175125803Y-121462903D01*
X175122278Y-121466732D01*
X175119427Y-121471096D01*
X175003372Y-121648732D01*
X174999140Y-121655209D01*
X174908704Y-121861384D01*
X174907422Y-121866445D01*
X174907422Y-121866446D01*
X174869753Y-122015197D01*
X174853436Y-122079632D01*
X174853006Y-122084823D01*
X174853005Y-122084828D01*
X174837898Y-122267148D01*
X174834844Y-122304000D01*
X174835274Y-122309189D01*
X174845902Y-122437444D01*
X174853436Y-122528368D01*
X174854717Y-122533426D01*
X174854717Y-122533427D01*
X174874816Y-122612794D01*
X174908704Y-122746616D01*
X174999140Y-122952791D01*
X175001990Y-122957153D01*
X175001992Y-122957157D01*
X175033384Y-123005206D01*
X175122278Y-123141268D01*
X175125803Y-123145097D01*
X175125806Y-123145101D01*
X175163714Y-123186279D01*
X175274760Y-123306906D01*
X175452424Y-123445189D01*
X175457005Y-123447668D01*
X175629553Y-123541046D01*
X175650426Y-123552342D01*
X175863365Y-123625444D01*
X175868499Y-123626301D01*
X175868504Y-123626302D01*
X176080294Y-123661643D01*
X176080296Y-123661643D01*
X176085431Y-123662500D01*
X176310569Y-123662500D01*
X176315704Y-123661643D01*
X176315706Y-123661643D01*
X176527496Y-123626302D01*
X176527501Y-123626301D01*
X176532635Y-123625444D01*
X176745574Y-123552342D01*
X176766448Y-123541046D01*
X176938995Y-123447668D01*
X176943576Y-123445189D01*
X177121240Y-123306906D01*
X177232286Y-123186279D01*
X177270194Y-123145101D01*
X177270197Y-123145097D01*
X177273722Y-123141268D01*
X177362517Y-123005357D01*
X177416521Y-122959268D01*
X177486868Y-122949693D01*
X177551226Y-122979670D01*
X177573483Y-123005357D01*
X177662278Y-123141268D01*
X177665803Y-123145097D01*
X177665806Y-123145101D01*
X177703714Y-123186279D01*
X177814760Y-123306906D01*
X177992424Y-123445189D01*
X177997005Y-123447668D01*
X178169553Y-123541046D01*
X178190426Y-123552342D01*
X178403365Y-123625444D01*
X178408499Y-123626301D01*
X178408504Y-123626302D01*
X178620294Y-123661643D01*
X178620296Y-123661643D01*
X178625431Y-123662500D01*
X178850569Y-123662500D01*
X178855704Y-123661643D01*
X178855706Y-123661643D01*
X179067496Y-123626302D01*
X179067501Y-123626301D01*
X179072635Y-123625444D01*
X179285574Y-123552342D01*
X179306448Y-123541046D01*
X179478995Y-123447668D01*
X179483576Y-123445189D01*
X179661240Y-123306906D01*
X179772286Y-123186279D01*
X179810194Y-123145101D01*
X179810197Y-123145097D01*
X179813722Y-123141268D01*
X179902616Y-123005206D01*
X179934008Y-122957157D01*
X179934010Y-122957153D01*
X179936860Y-122952791D01*
X180027296Y-122746616D01*
X180061185Y-122612794D01*
X180081283Y-122533427D01*
X180081283Y-122533426D01*
X180082564Y-122528368D01*
X180090099Y-122437444D01*
X180100726Y-122309189D01*
X180101156Y-122304000D01*
X180098102Y-122267148D01*
X180082995Y-122084828D01*
X180082994Y-122084823D01*
X180082564Y-122079632D01*
X180066247Y-122015197D01*
X180028578Y-121866446D01*
X180028578Y-121866445D01*
X180027296Y-121861384D01*
X179936860Y-121655209D01*
X179932629Y-121648732D01*
X179816573Y-121471096D01*
X179813722Y-121466732D01*
X179810197Y-121462903D01*
X179810194Y-121462899D01*
X179664772Y-121304931D01*
X179661240Y-121301094D01*
X179657121Y-121297888D01*
X179487689Y-121166012D01*
X179487687Y-121166010D01*
X179483576Y-121162811D01*
X179450320Y-121144814D01*
X179399929Y-121094801D01*
X179384577Y-121025484D01*
X179409137Y-120958871D01*
X179450320Y-120923186D01*
X179478995Y-120907668D01*
X179483576Y-120905189D01*
X179535153Y-120865045D01*
X179657121Y-120770112D01*
X179661240Y-120766906D01*
X179739584Y-120681803D01*
X179810194Y-120605101D01*
X179810197Y-120605097D01*
X179813722Y-120601268D01*
X179878058Y-120502794D01*
X179934008Y-120417157D01*
X179934010Y-120417153D01*
X179936860Y-120412791D01*
X180027296Y-120206616D01*
X180036330Y-120170944D01*
X180081283Y-119993427D01*
X180081283Y-119993426D01*
X180082564Y-119988368D01*
X180101156Y-119764000D01*
X180088823Y-119615166D01*
X180082995Y-119544828D01*
X180082994Y-119544823D01*
X180082564Y-119539632D01*
X180027296Y-119321384D01*
X179976356Y-119205251D01*
X179938954Y-119119982D01*
X179938952Y-119119978D01*
X179936860Y-119115209D01*
X179932629Y-119108732D01*
X179816573Y-118931096D01*
X179813722Y-118926732D01*
X179810197Y-118922903D01*
X179810194Y-118922899D01*
X179664772Y-118764931D01*
X179661240Y-118761094D01*
X179483576Y-118622811D01*
X179450320Y-118604814D01*
X179399929Y-118554801D01*
X179384577Y-118485484D01*
X179409137Y-118418871D01*
X179450320Y-118383186D01*
X179478995Y-118367668D01*
X179483576Y-118365189D01*
X179661240Y-118226906D01*
X179787551Y-118089697D01*
X179810194Y-118065101D01*
X179810197Y-118065097D01*
X179813722Y-118061268D01*
X179919299Y-117899670D01*
X179934008Y-117877157D01*
X179934010Y-117877153D01*
X179936860Y-117872791D01*
X179945858Y-117852279D01*
X180025200Y-117671394D01*
X180027296Y-117666616D01*
X180029386Y-117658365D01*
X180081283Y-117453427D01*
X180081283Y-117453426D01*
X180082564Y-117448368D01*
X180101156Y-117224000D01*
X180090692Y-117097721D01*
X180082995Y-117004828D01*
X180082994Y-117004823D01*
X180082564Y-116999632D01*
X180038707Y-116826445D01*
X180028578Y-116786446D01*
X180028578Y-116786445D01*
X180027296Y-116781384D01*
X179944473Y-116592565D01*
X179938954Y-116579982D01*
X179938952Y-116579978D01*
X179936860Y-116575209D01*
X179932629Y-116568732D01*
X179816573Y-116391096D01*
X179813722Y-116386732D01*
X179810197Y-116382903D01*
X179810194Y-116382899D01*
X179664772Y-116224931D01*
X179661240Y-116221094D01*
X179483576Y-116082811D01*
X179450320Y-116064814D01*
X179399929Y-116014801D01*
X179384577Y-115945484D01*
X179409137Y-115878871D01*
X179450320Y-115843186D01*
X179478995Y-115827668D01*
X179483576Y-115825189D01*
X179522291Y-115795056D01*
X179657121Y-115690112D01*
X179661240Y-115686906D01*
X179739584Y-115601803D01*
X179810194Y-115525101D01*
X179810197Y-115525097D01*
X179813722Y-115521268D01*
X179928920Y-115344944D01*
X179934008Y-115337157D01*
X179934010Y-115337153D01*
X179936860Y-115332791D01*
X179945858Y-115312279D01*
X180025200Y-115131394D01*
X180027296Y-115126616D01*
X180029386Y-115118365D01*
X180081283Y-114913427D01*
X180081283Y-114913426D01*
X180082564Y-114908368D01*
X180101156Y-114684000D01*
X180082564Y-114459632D01*
X180027296Y-114241384D01*
X179951634Y-114068891D01*
X179938954Y-114039982D01*
X179938952Y-114039978D01*
X179936860Y-114035209D01*
X179932629Y-114028732D01*
X179816573Y-113851096D01*
X179813722Y-113846732D01*
X179810197Y-113842903D01*
X179810194Y-113842899D01*
X179664772Y-113684931D01*
X179661240Y-113681094D01*
X179483576Y-113542811D01*
X179450320Y-113524814D01*
X179399929Y-113474801D01*
X179384577Y-113405484D01*
X179409137Y-113338871D01*
X179450320Y-113303186D01*
X179478995Y-113287668D01*
X179483576Y-113285189D01*
X179661240Y-113146906D01*
X179804722Y-112991045D01*
X179810194Y-112985101D01*
X179810197Y-112985097D01*
X179813722Y-112981268D01*
X179919299Y-112819670D01*
X179934008Y-112797157D01*
X179934010Y-112797153D01*
X179936860Y-112792791D01*
X180027296Y-112586616D01*
X180035606Y-112553803D01*
X180081283Y-112373427D01*
X180081283Y-112373426D01*
X180082564Y-112368368D01*
X180088483Y-112296944D01*
X180100726Y-112149189D01*
X180101156Y-112144000D01*
X180085595Y-111956206D01*
X180082995Y-111924828D01*
X180082994Y-111924823D01*
X180082564Y-111919632D01*
X180027296Y-111701384D01*
X179996509Y-111631196D01*
X179938954Y-111499982D01*
X179938952Y-111499978D01*
X179936860Y-111495209D01*
X179932629Y-111488732D01*
X179816573Y-111311096D01*
X179813722Y-111306732D01*
X179810197Y-111302903D01*
X179810194Y-111302899D01*
X179664772Y-111144931D01*
X179661240Y-111141094D01*
X179584204Y-111081134D01*
X179487689Y-111006012D01*
X179487687Y-111006010D01*
X179483576Y-111002811D01*
X179450320Y-110984814D01*
X179399929Y-110934801D01*
X179384577Y-110865484D01*
X179409137Y-110798871D01*
X179450320Y-110763186D01*
X179478995Y-110747668D01*
X179483576Y-110745189D01*
X179661240Y-110606906D01*
X179708640Y-110555417D01*
X179810194Y-110445101D01*
X179810197Y-110445097D01*
X179813722Y-110441268D01*
X179919299Y-110279670D01*
X179934008Y-110257157D01*
X179934010Y-110257153D01*
X179936860Y-110252791D01*
X180027296Y-110046616D01*
X180082564Y-109828368D01*
X180101156Y-109604000D01*
X180082564Y-109379632D01*
X180027296Y-109161384D01*
X179936860Y-108955209D01*
X179932629Y-108948732D01*
X179816573Y-108771096D01*
X179813722Y-108766732D01*
X179810197Y-108762903D01*
X179810194Y-108762899D01*
X179664772Y-108604931D01*
X179661240Y-108601094D01*
X179483576Y-108462811D01*
X179450320Y-108444814D01*
X179399929Y-108394801D01*
X179384577Y-108325484D01*
X179409137Y-108258871D01*
X179450320Y-108223186D01*
X179478995Y-108207668D01*
X179483576Y-108205189D01*
X179661240Y-108066906D01*
X179742216Y-107978944D01*
X179810194Y-107905101D01*
X179810197Y-107905097D01*
X179813722Y-107901268D01*
X179907343Y-107757970D01*
X179961347Y-107711882D01*
X180012261Y-107700887D01*
X180840935Y-107697171D01*
X180909145Y-107716868D01*
G37*
%TD.AperFunction*%
%TD*%
%TA.AperFunction,Conductor*%
%TO.N,VBUS*%
G36*
X143198121Y-66568002D02*
G01*
X143244614Y-66621658D01*
X143256000Y-66674000D01*
X143256000Y-75058000D01*
X143235998Y-75126121D01*
X143182342Y-75172614D01*
X143130000Y-75184000D01*
X140773399Y-75184000D01*
X140705278Y-75163998D01*
X140658785Y-75110342D01*
X140648681Y-75040068D01*
X140679762Y-74973691D01*
X140688621Y-74963852D01*
X140688622Y-74963851D01*
X140693040Y-74958944D01*
X140788527Y-74793556D01*
X140847542Y-74611928D01*
X140867504Y-74422000D01*
X140847542Y-74232072D01*
X140788527Y-74050444D01*
X140693040Y-73885056D01*
X140565253Y-73743134D01*
X140410752Y-73630882D01*
X140404724Y-73628198D01*
X140404722Y-73628197D01*
X140242319Y-73555891D01*
X140242318Y-73555891D01*
X140236288Y-73553206D01*
X140142887Y-73533353D01*
X140055944Y-73514872D01*
X140055939Y-73514872D01*
X140049487Y-73513500D01*
X139858513Y-73513500D01*
X139852061Y-73514872D01*
X139852056Y-73514872D01*
X139765113Y-73533353D01*
X139671712Y-73553206D01*
X139665682Y-73555891D01*
X139665681Y-73555891D01*
X139503278Y-73628197D01*
X139503276Y-73628198D01*
X139497248Y-73630882D01*
X139342747Y-73743134D01*
X139214960Y-73885056D01*
X139119473Y-74050444D01*
X139060458Y-74232072D01*
X139040496Y-74422000D01*
X139060458Y-74611928D01*
X139119473Y-74793556D01*
X139214960Y-74958944D01*
X139219378Y-74963851D01*
X139219379Y-74963852D01*
X139228238Y-74973691D01*
X139258955Y-75037699D01*
X139250190Y-75108152D01*
X139204726Y-75162683D01*
X139134601Y-75184000D01*
X132080000Y-75184000D01*
X132080000Y-90932000D01*
X132087339Y-90938880D01*
X132087339Y-90938881D01*
X135937695Y-94548589D01*
X136144000Y-94742000D01*
X136155662Y-94742172D01*
X136155663Y-94742172D01*
X148710853Y-94926807D01*
X148778672Y-94947808D01*
X148824371Y-95002142D01*
X148833440Y-95072557D01*
X148803001Y-95136697D01*
X148760248Y-95167900D01*
X148647281Y-95218195D01*
X148647274Y-95218199D01*
X148641248Y-95220882D01*
X148635907Y-95224762D01*
X148635906Y-95224763D01*
X148620134Y-95236222D01*
X148486747Y-95333134D01*
X148482326Y-95338044D01*
X148482325Y-95338045D01*
X148448881Y-95375189D01*
X148358960Y-95475056D01*
X148312548Y-95555444D01*
X148291154Y-95592500D01*
X148263473Y-95640444D01*
X148204458Y-95822072D01*
X148184496Y-96012000D01*
X148185186Y-96018565D01*
X148197319Y-96134000D01*
X148204458Y-96201928D01*
X148263473Y-96383556D01*
X148358960Y-96548944D01*
X148486747Y-96690866D01*
X148641248Y-96803118D01*
X148647276Y-96805802D01*
X148647278Y-96805803D01*
X148809681Y-96878109D01*
X148815712Y-96880794D01*
X148909112Y-96900647D01*
X148996056Y-96919128D01*
X148996061Y-96919128D01*
X149002513Y-96920500D01*
X149193487Y-96920500D01*
X149199939Y-96919128D01*
X149199944Y-96919128D01*
X149286888Y-96900647D01*
X149380288Y-96880794D01*
X149386319Y-96878109D01*
X149548722Y-96805803D01*
X149548724Y-96805802D01*
X149554752Y-96803118D01*
X149709253Y-96690866D01*
X149837040Y-96548944D01*
X149932527Y-96383556D01*
X149991542Y-96201928D01*
X149998682Y-96134000D01*
X150010814Y-96018565D01*
X150011504Y-96012000D01*
X149991542Y-95822072D01*
X149932527Y-95640444D01*
X149904847Y-95592500D01*
X149883452Y-95555444D01*
X149837040Y-95475056D01*
X149747120Y-95375189D01*
X149713675Y-95338045D01*
X149713674Y-95338044D01*
X149709253Y-95333134D01*
X149575866Y-95236222D01*
X149560094Y-95224763D01*
X149560093Y-95224762D01*
X149554752Y-95220882D01*
X149548726Y-95218199D01*
X149548719Y-95218195D01*
X149462327Y-95179732D01*
X149408231Y-95133752D01*
X149387581Y-95065825D01*
X149406933Y-94997517D01*
X149460143Y-94950515D01*
X149515428Y-94938639D01*
X151529521Y-94968258D01*
X153291854Y-94994174D01*
X153359672Y-95015175D01*
X153405371Y-95069509D01*
X153416000Y-95120160D01*
X153416000Y-102108000D01*
X155505163Y-102141696D01*
X160250616Y-102218236D01*
X160274781Y-102220973D01*
X160426056Y-102253128D01*
X160426061Y-102253128D01*
X160432513Y-102254500D01*
X160623487Y-102254500D01*
X160629940Y-102253128D01*
X160629953Y-102253127D01*
X160741806Y-102229351D01*
X160770031Y-102226613D01*
X167162133Y-102329712D01*
X169145887Y-102361708D01*
X169164000Y-102362000D01*
X169282770Y-102253128D01*
X172198644Y-99580243D01*
X172212000Y-99568000D01*
X172212000Y-73278000D01*
X172232002Y-73209879D01*
X172285658Y-73163386D01*
X172338000Y-73152000D01*
X174626000Y-73152000D01*
X174694121Y-73172002D01*
X174740614Y-73225658D01*
X174752000Y-73278000D01*
X174752000Y-100023810D01*
X174731998Y-100091931D01*
X174715095Y-100112905D01*
X167676905Y-107151095D01*
X167614593Y-107185121D01*
X167587810Y-107188000D01*
X155650268Y-107188000D01*
X155582147Y-107167998D01*
X155535654Y-107114342D01*
X155530435Y-107100937D01*
X155522568Y-107076725D01*
X155522567Y-107076724D01*
X155520527Y-107070444D01*
X155425040Y-106905056D01*
X155379744Y-106854749D01*
X155301675Y-106768045D01*
X155301674Y-106768044D01*
X155297253Y-106763134D01*
X155142752Y-106650882D01*
X155136724Y-106648198D01*
X155136722Y-106648197D01*
X154974319Y-106575891D01*
X154974318Y-106575891D01*
X154968288Y-106573206D01*
X154855721Y-106549279D01*
X154787944Y-106534872D01*
X154787939Y-106534872D01*
X154781487Y-106533500D01*
X154590513Y-106533500D01*
X154584061Y-106534872D01*
X154584056Y-106534872D01*
X154516279Y-106549279D01*
X154403712Y-106573206D01*
X154397682Y-106575891D01*
X154397681Y-106575891D01*
X154235278Y-106648197D01*
X154235276Y-106648198D01*
X154229248Y-106650882D01*
X154074747Y-106763134D01*
X154070326Y-106768044D01*
X154070325Y-106768045D01*
X153992257Y-106854749D01*
X153946960Y-106905056D01*
X153851473Y-107070444D01*
X153849433Y-107076724D01*
X153849432Y-107076725D01*
X153841565Y-107100937D01*
X153801491Y-107159542D01*
X153736094Y-107187179D01*
X153721732Y-107188000D01*
X144299016Y-107188000D01*
X144230895Y-107167998D01*
X144184402Y-107114342D01*
X144174298Y-107044068D01*
X144203792Y-106979488D01*
X144224955Y-106960064D01*
X144254446Y-106938638D01*
X144375253Y-106850866D01*
X144454247Y-106763134D01*
X144498621Y-106713852D01*
X144498622Y-106713851D01*
X144503040Y-106708944D01*
X144598527Y-106543556D01*
X144657542Y-106361928D01*
X144662107Y-106318500D01*
X144676814Y-106178565D01*
X144677504Y-106172000D01*
X144676814Y-106165435D01*
X144658232Y-105988635D01*
X144658232Y-105988633D01*
X144657542Y-105982072D01*
X144598527Y-105800444D01*
X144503040Y-105635056D01*
X144477064Y-105606206D01*
X144379675Y-105498045D01*
X144379674Y-105498044D01*
X144375253Y-105493134D01*
X144260829Y-105410000D01*
X144226094Y-105384763D01*
X144226093Y-105384762D01*
X144220752Y-105380882D01*
X144214724Y-105378198D01*
X144214722Y-105378197D01*
X144052319Y-105305891D01*
X144052318Y-105305891D01*
X144046288Y-105303206D01*
X143933721Y-105279279D01*
X143865944Y-105264872D01*
X143865939Y-105264872D01*
X143859487Y-105263500D01*
X143668513Y-105263500D01*
X143662061Y-105264872D01*
X143662056Y-105264872D01*
X143594279Y-105279279D01*
X143481712Y-105303206D01*
X143475682Y-105305891D01*
X143475681Y-105305891D01*
X143313278Y-105378197D01*
X143313276Y-105378198D01*
X143307248Y-105380882D01*
X143301907Y-105384762D01*
X143301906Y-105384763D01*
X143267171Y-105410000D01*
X143152747Y-105493134D01*
X143148326Y-105498044D01*
X143148325Y-105498045D01*
X143050937Y-105606206D01*
X143024960Y-105635056D01*
X142929473Y-105800444D01*
X142870458Y-105982072D01*
X142869768Y-105988633D01*
X142869768Y-105988635D01*
X142851186Y-106165435D01*
X142850496Y-106172000D01*
X142851186Y-106178565D01*
X142865894Y-106318500D01*
X142870458Y-106361928D01*
X142929473Y-106543556D01*
X143024960Y-106708944D01*
X143029378Y-106713851D01*
X143029379Y-106713852D01*
X143073753Y-106763134D01*
X143152747Y-106850866D01*
X143273555Y-106938638D01*
X143303045Y-106960064D01*
X143346399Y-107016286D01*
X143352474Y-107087022D01*
X143319343Y-107149814D01*
X143257523Y-107184726D01*
X143228984Y-107188000D01*
X129733046Y-107188000D01*
X129664925Y-107167998D01*
X129618432Y-107114342D01*
X129608328Y-107044068D01*
X129614990Y-107017969D01*
X129619235Y-107006587D01*
X129619236Y-107006581D01*
X129621989Y-106999201D01*
X129628500Y-106938638D01*
X129628500Y-105141362D01*
X129621989Y-105080799D01*
X129570889Y-104943796D01*
X129544516Y-104908565D01*
X129539601Y-104902000D01*
X153772496Y-104902000D01*
X153773186Y-104908565D01*
X153790513Y-105073419D01*
X153792458Y-105091928D01*
X153851473Y-105273556D01*
X153946960Y-105438944D01*
X153951378Y-105443851D01*
X153951379Y-105443852D01*
X153995753Y-105493134D01*
X154074747Y-105580866D01*
X154229248Y-105693118D01*
X154235276Y-105695802D01*
X154235278Y-105695803D01*
X154397681Y-105768109D01*
X154403712Y-105770794D01*
X154497112Y-105790647D01*
X154584056Y-105809128D01*
X154584061Y-105809128D01*
X154590513Y-105810500D01*
X154781487Y-105810500D01*
X154787939Y-105809128D01*
X154787944Y-105809128D01*
X154874887Y-105790647D01*
X154968288Y-105770794D01*
X154974319Y-105768109D01*
X155136722Y-105695803D01*
X155136724Y-105695802D01*
X155142752Y-105693118D01*
X155297253Y-105580866D01*
X155376247Y-105493134D01*
X155420621Y-105443852D01*
X155420622Y-105443851D01*
X155425040Y-105438944D01*
X155441751Y-105410000D01*
X159614496Y-105410000D01*
X159615186Y-105416565D01*
X159632863Y-105584749D01*
X159634458Y-105599928D01*
X159693473Y-105781556D01*
X159788960Y-105946944D01*
X159793378Y-105951851D01*
X159793379Y-105951852D01*
X159820589Y-105982072D01*
X159916747Y-106088866D01*
X160015843Y-106160864D01*
X160040207Y-106178565D01*
X160071248Y-106201118D01*
X160077276Y-106203802D01*
X160077278Y-106203803D01*
X160239681Y-106276109D01*
X160245712Y-106278794D01*
X160339112Y-106298647D01*
X160426056Y-106317128D01*
X160426061Y-106317128D01*
X160432513Y-106318500D01*
X160623487Y-106318500D01*
X160629939Y-106317128D01*
X160629944Y-106317128D01*
X160716887Y-106298647D01*
X160810288Y-106278794D01*
X160816319Y-106276109D01*
X160978722Y-106203803D01*
X160978724Y-106203802D01*
X160984752Y-106201118D01*
X161015794Y-106178565D01*
X161040157Y-106160864D01*
X161139253Y-106088866D01*
X161235411Y-105982072D01*
X161262621Y-105951852D01*
X161262622Y-105951851D01*
X161267040Y-105946944D01*
X161362527Y-105781556D01*
X161421542Y-105599928D01*
X161423138Y-105584749D01*
X161440814Y-105416565D01*
X161441504Y-105410000D01*
X161430280Y-105303206D01*
X161422232Y-105226635D01*
X161422232Y-105226633D01*
X161421542Y-105220072D01*
X161362527Y-105038444D01*
X161267040Y-104873056D01*
X161139253Y-104731134D01*
X160984752Y-104618882D01*
X160978724Y-104616198D01*
X160978722Y-104616197D01*
X160816319Y-104543891D01*
X160816318Y-104543891D01*
X160810288Y-104541206D01*
X160700045Y-104517773D01*
X160629944Y-104502872D01*
X160629939Y-104502872D01*
X160623487Y-104501500D01*
X160432513Y-104501500D01*
X160426061Y-104502872D01*
X160426056Y-104502872D01*
X160355955Y-104517773D01*
X160245712Y-104541206D01*
X160239682Y-104543891D01*
X160239681Y-104543891D01*
X160077278Y-104616197D01*
X160077276Y-104616198D01*
X160071248Y-104618882D01*
X159916747Y-104731134D01*
X159788960Y-104873056D01*
X159693473Y-105038444D01*
X159634458Y-105220072D01*
X159633768Y-105226633D01*
X159633768Y-105226635D01*
X159625720Y-105303206D01*
X159614496Y-105410000D01*
X155441751Y-105410000D01*
X155520527Y-105273556D01*
X155579542Y-105091928D01*
X155581488Y-105073419D01*
X155598814Y-104908565D01*
X155599504Y-104902000D01*
X155591594Y-104826739D01*
X155580232Y-104718635D01*
X155580232Y-104718633D01*
X155579542Y-104712072D01*
X155520527Y-104530444D01*
X155513212Y-104517773D01*
X155428341Y-104370774D01*
X155425040Y-104365056D01*
X155297253Y-104223134D01*
X155142752Y-104110882D01*
X155136724Y-104108198D01*
X155136722Y-104108197D01*
X154974319Y-104035891D01*
X154974318Y-104035891D01*
X154968288Y-104033206D01*
X154874887Y-104013353D01*
X154787944Y-103994872D01*
X154787939Y-103994872D01*
X154781487Y-103993500D01*
X154590513Y-103993500D01*
X154584061Y-103994872D01*
X154584056Y-103994872D01*
X154497112Y-104013353D01*
X154403712Y-104033206D01*
X154397682Y-104035891D01*
X154397681Y-104035891D01*
X154235278Y-104108197D01*
X154235276Y-104108198D01*
X154229248Y-104110882D01*
X154074747Y-104223134D01*
X153946960Y-104365056D01*
X153943659Y-104370774D01*
X153858789Y-104517773D01*
X153851473Y-104530444D01*
X153792458Y-104712072D01*
X153791768Y-104718633D01*
X153791768Y-104718635D01*
X153780406Y-104826739D01*
X153772496Y-104902000D01*
X129539601Y-104902000D01*
X129488659Y-104833950D01*
X129483261Y-104826739D01*
X129387154Y-104754794D01*
X129373418Y-104744511D01*
X129373416Y-104744510D01*
X129366204Y-104739111D01*
X129251192Y-104696213D01*
X129194358Y-104653667D01*
X129169547Y-104587147D01*
X129184639Y-104517773D01*
X129202525Y-104492820D01*
X129342194Y-104341101D01*
X129342197Y-104341097D01*
X129345722Y-104337268D01*
X129417081Y-104228045D01*
X129466008Y-104153157D01*
X129466010Y-104153153D01*
X129468860Y-104148791D01*
X129485489Y-104110882D01*
X129557200Y-103947394D01*
X129559296Y-103942616D01*
X129573633Y-103886000D01*
X166726496Y-103886000D01*
X166727186Y-103892565D01*
X166741824Y-104031834D01*
X166746458Y-104075928D01*
X166805473Y-104257556D01*
X166900960Y-104422944D01*
X166905378Y-104427851D01*
X166905379Y-104427852D01*
X166971692Y-104501500D01*
X167028747Y-104564866D01*
X167127843Y-104636864D01*
X167150971Y-104653667D01*
X167183248Y-104677118D01*
X167189276Y-104679802D01*
X167189278Y-104679803D01*
X167322487Y-104739111D01*
X167357712Y-104754794D01*
X167451112Y-104774647D01*
X167538056Y-104793128D01*
X167538061Y-104793128D01*
X167544513Y-104794500D01*
X167735487Y-104794500D01*
X167741939Y-104793128D01*
X167741944Y-104793128D01*
X167828888Y-104774647D01*
X167922288Y-104754794D01*
X167957513Y-104739111D01*
X168090722Y-104679803D01*
X168090724Y-104679802D01*
X168096752Y-104677118D01*
X168129030Y-104653667D01*
X168152157Y-104636864D01*
X168251253Y-104564866D01*
X168308308Y-104501500D01*
X168374621Y-104427852D01*
X168374622Y-104427851D01*
X168379040Y-104422944D01*
X168474527Y-104257556D01*
X168533542Y-104075928D01*
X168538177Y-104031834D01*
X168552814Y-103892565D01*
X168553504Y-103886000D01*
X168533542Y-103696072D01*
X168474527Y-103514444D01*
X168379040Y-103349056D01*
X168251253Y-103207134D01*
X168096752Y-103094882D01*
X168090724Y-103092198D01*
X168090722Y-103092197D01*
X167928319Y-103019891D01*
X167928318Y-103019891D01*
X167922288Y-103017206D01*
X167828887Y-102997353D01*
X167741944Y-102978872D01*
X167741939Y-102978872D01*
X167735487Y-102977500D01*
X167544513Y-102977500D01*
X167538061Y-102978872D01*
X167538056Y-102978872D01*
X167451113Y-102997353D01*
X167357712Y-103017206D01*
X167351682Y-103019891D01*
X167351681Y-103019891D01*
X167189278Y-103092197D01*
X167189276Y-103092198D01*
X167183248Y-103094882D01*
X167028747Y-103207134D01*
X166900960Y-103349056D01*
X166805473Y-103514444D01*
X166746458Y-103696072D01*
X166726496Y-103886000D01*
X129573633Y-103886000D01*
X129614564Y-103724368D01*
X129633156Y-103500000D01*
X129614564Y-103275632D01*
X129559296Y-103057384D01*
X129468860Y-102851209D01*
X129345722Y-102662732D01*
X129342197Y-102658903D01*
X129342194Y-102658899D01*
X129196772Y-102500931D01*
X129193240Y-102497094D01*
X129015576Y-102358811D01*
X128982320Y-102340814D01*
X128931929Y-102290801D01*
X128916577Y-102221484D01*
X128941137Y-102154871D01*
X128982320Y-102119186D01*
X129010995Y-102103668D01*
X129015576Y-102101189D01*
X129193240Y-101962906D01*
X129266851Y-101882944D01*
X129342194Y-101801101D01*
X129342197Y-101801097D01*
X129345722Y-101797268D01*
X129455580Y-101629118D01*
X129466008Y-101613157D01*
X129466010Y-101613153D01*
X129468860Y-101608791D01*
X129500821Y-101535928D01*
X129557200Y-101407394D01*
X129559296Y-101402616D01*
X129614564Y-101184368D01*
X129633156Y-100960000D01*
X129623047Y-100838000D01*
X146660496Y-100838000D01*
X146661186Y-100844565D01*
X146678455Y-101008866D01*
X146680458Y-101027928D01*
X146739473Y-101209556D01*
X146834960Y-101374944D01*
X146962747Y-101516866D01*
X147061843Y-101588864D01*
X147095280Y-101613157D01*
X147117248Y-101629118D01*
X147123276Y-101631802D01*
X147123278Y-101631803D01*
X147285681Y-101704109D01*
X147291712Y-101706794D01*
X147385112Y-101726647D01*
X147472056Y-101745128D01*
X147472061Y-101745128D01*
X147478513Y-101746500D01*
X147669487Y-101746500D01*
X147675939Y-101745128D01*
X147675944Y-101745128D01*
X147762887Y-101726647D01*
X147856288Y-101706794D01*
X147862319Y-101704109D01*
X148024722Y-101631803D01*
X148024724Y-101631802D01*
X148030752Y-101629118D01*
X148052721Y-101613157D01*
X148086157Y-101588864D01*
X148185253Y-101516866D01*
X148313040Y-101374944D01*
X148408527Y-101209556D01*
X148467542Y-101027928D01*
X148469546Y-101008866D01*
X148486814Y-100844565D01*
X148487504Y-100838000D01*
X148473163Y-100701556D01*
X148468232Y-100654635D01*
X148468232Y-100654633D01*
X148467542Y-100648072D01*
X148408527Y-100466444D01*
X148313040Y-100301056D01*
X148267744Y-100250749D01*
X148189675Y-100164045D01*
X148189674Y-100164044D01*
X148185253Y-100159134D01*
X148086157Y-100087136D01*
X148036094Y-100050763D01*
X148036093Y-100050762D01*
X148030752Y-100046882D01*
X148024724Y-100044198D01*
X148024722Y-100044197D01*
X147862319Y-99971891D01*
X147862318Y-99971891D01*
X147856288Y-99969206D01*
X147743721Y-99945279D01*
X147675944Y-99930872D01*
X147675939Y-99930872D01*
X147669487Y-99929500D01*
X147478513Y-99929500D01*
X147472061Y-99930872D01*
X147472056Y-99930872D01*
X147404279Y-99945279D01*
X147291712Y-99969206D01*
X147285682Y-99971891D01*
X147285681Y-99971891D01*
X147123278Y-100044197D01*
X147123276Y-100044198D01*
X147117248Y-100046882D01*
X147111907Y-100050762D01*
X147111906Y-100050763D01*
X147061843Y-100087136D01*
X146962747Y-100159134D01*
X146958326Y-100164044D01*
X146958325Y-100164045D01*
X146880257Y-100250749D01*
X146834960Y-100301056D01*
X146739473Y-100466444D01*
X146680458Y-100648072D01*
X146679768Y-100654633D01*
X146679768Y-100654635D01*
X146674837Y-100701556D01*
X146660496Y-100838000D01*
X129623047Y-100838000D01*
X129614564Y-100735632D01*
X129559296Y-100517384D01*
X129523946Y-100436794D01*
X129470954Y-100315982D01*
X129470952Y-100315978D01*
X129468860Y-100311209D01*
X129465963Y-100306774D01*
X129348573Y-100127096D01*
X129345722Y-100122732D01*
X129342197Y-100118903D01*
X129342194Y-100118899D01*
X129196772Y-99960931D01*
X129193240Y-99957094D01*
X129015576Y-99818811D01*
X128982320Y-99800814D01*
X128931929Y-99750801D01*
X128916577Y-99681484D01*
X128941137Y-99614871D01*
X128982320Y-99579186D01*
X129002990Y-99568000D01*
X140691496Y-99568000D01*
X140692186Y-99574565D01*
X140705214Y-99698516D01*
X140711458Y-99757928D01*
X140770473Y-99939556D01*
X140773776Y-99945278D01*
X140773777Y-99945279D01*
X140781378Y-99958444D01*
X140865960Y-100104944D01*
X140870378Y-100109851D01*
X140870379Y-100109852D01*
X140914753Y-100159134D01*
X140993747Y-100246866D01*
X141148248Y-100359118D01*
X141154276Y-100361802D01*
X141154278Y-100361803D01*
X141316681Y-100434109D01*
X141322712Y-100436794D01*
X141416112Y-100456647D01*
X141503056Y-100475128D01*
X141503061Y-100475128D01*
X141509513Y-100476500D01*
X141700487Y-100476500D01*
X141706939Y-100475128D01*
X141706944Y-100475128D01*
X141793888Y-100456647D01*
X141887288Y-100436794D01*
X141893319Y-100434109D01*
X142055722Y-100361803D01*
X142055724Y-100361802D01*
X142061752Y-100359118D01*
X142216253Y-100246866D01*
X142295247Y-100159134D01*
X142336864Y-100112914D01*
X142397310Y-100075674D01*
X142468294Y-100077026D01*
X142524136Y-100112914D01*
X142565753Y-100159134D01*
X142644747Y-100246866D01*
X142799248Y-100359118D01*
X142805276Y-100361802D01*
X142805278Y-100361803D01*
X142967681Y-100434109D01*
X142973712Y-100436794D01*
X143067112Y-100456647D01*
X143154056Y-100475128D01*
X143154061Y-100475128D01*
X143160513Y-100476500D01*
X143351487Y-100476500D01*
X143357939Y-100475128D01*
X143357944Y-100475128D01*
X143444888Y-100456647D01*
X143538288Y-100436794D01*
X143544319Y-100434109D01*
X143706722Y-100361803D01*
X143706724Y-100361802D01*
X143712752Y-100359118D01*
X143867253Y-100246866D01*
X143946247Y-100159134D01*
X143990621Y-100109852D01*
X143990622Y-100109851D01*
X143995040Y-100104944D01*
X144079622Y-99958444D01*
X144087223Y-99945279D01*
X144087224Y-99945278D01*
X144090527Y-99939556D01*
X144149542Y-99757928D01*
X144155787Y-99698516D01*
X144168814Y-99574565D01*
X144169504Y-99568000D01*
X144154254Y-99422906D01*
X144150232Y-99384635D01*
X144150232Y-99384633D01*
X144149542Y-99378072D01*
X144090527Y-99196444D01*
X143995040Y-99031056D01*
X143867253Y-98889134D01*
X143712752Y-98776882D01*
X143706724Y-98774198D01*
X143706722Y-98774197D01*
X143544319Y-98701891D01*
X143544318Y-98701891D01*
X143538288Y-98699206D01*
X143444888Y-98679353D01*
X143357944Y-98660872D01*
X143357939Y-98660872D01*
X143351487Y-98659500D01*
X143160513Y-98659500D01*
X143154061Y-98660872D01*
X143154056Y-98660872D01*
X143067112Y-98679353D01*
X142973712Y-98699206D01*
X142967682Y-98701891D01*
X142967681Y-98701891D01*
X142805278Y-98774197D01*
X142805276Y-98774198D01*
X142799248Y-98776882D01*
X142644747Y-98889134D01*
X142640326Y-98894044D01*
X142640325Y-98894045D01*
X142524136Y-99023086D01*
X142463690Y-99060326D01*
X142392706Y-99058974D01*
X142336864Y-99023086D01*
X142220675Y-98894045D01*
X142220674Y-98894044D01*
X142216253Y-98889134D01*
X142061752Y-98776882D01*
X142055724Y-98774198D01*
X142055722Y-98774197D01*
X141893319Y-98701891D01*
X141893318Y-98701891D01*
X141887288Y-98699206D01*
X141793888Y-98679353D01*
X141706944Y-98660872D01*
X141706939Y-98660872D01*
X141700487Y-98659500D01*
X141509513Y-98659500D01*
X141503061Y-98660872D01*
X141503056Y-98660872D01*
X141416112Y-98679353D01*
X141322712Y-98699206D01*
X141316682Y-98701891D01*
X141316681Y-98701891D01*
X141154278Y-98774197D01*
X141154276Y-98774198D01*
X141148248Y-98776882D01*
X140993747Y-98889134D01*
X140865960Y-99031056D01*
X140770473Y-99196444D01*
X140711458Y-99378072D01*
X140710768Y-99384633D01*
X140710768Y-99384635D01*
X140706746Y-99422906D01*
X140691496Y-99568000D01*
X129002990Y-99568000D01*
X129010995Y-99563668D01*
X129015576Y-99561189D01*
X129193240Y-99422906D01*
X129240640Y-99371417D01*
X129342194Y-99261101D01*
X129342197Y-99261097D01*
X129345722Y-99257268D01*
X129395675Y-99180809D01*
X129466008Y-99073157D01*
X129466010Y-99073153D01*
X129468860Y-99068791D01*
X129559296Y-98862616D01*
X129566260Y-98835118D01*
X129613283Y-98649427D01*
X129613283Y-98649426D01*
X129614564Y-98644368D01*
X129620294Y-98575226D01*
X129632726Y-98425189D01*
X129633156Y-98420000D01*
X129618258Y-98240206D01*
X129614995Y-98200828D01*
X129614994Y-98200823D01*
X129614564Y-98195632D01*
X129613283Y-98190573D01*
X129576166Y-98044000D01*
X147422496Y-98044000D01*
X147442458Y-98233928D01*
X147501473Y-98415556D01*
X147504776Y-98421278D01*
X147504777Y-98421279D01*
X147538686Y-98480010D01*
X147596960Y-98580944D01*
X147601378Y-98585851D01*
X147601379Y-98585852D01*
X147668927Y-98660872D01*
X147724747Y-98722866D01*
X147879248Y-98835118D01*
X147885276Y-98837802D01*
X147885278Y-98837803D01*
X148047681Y-98910109D01*
X148053712Y-98912794D01*
X148147112Y-98932647D01*
X148234056Y-98951128D01*
X148234061Y-98951128D01*
X148240513Y-98952500D01*
X148431487Y-98952500D01*
X148437939Y-98951128D01*
X148437944Y-98951128D01*
X148524888Y-98932647D01*
X148618288Y-98912794D01*
X148624319Y-98910109D01*
X148786722Y-98837803D01*
X148786724Y-98837802D01*
X148792752Y-98835118D01*
X148947253Y-98722866D01*
X149003073Y-98660872D01*
X149070621Y-98585852D01*
X149070622Y-98585851D01*
X149075040Y-98580944D01*
X149133314Y-98480010D01*
X149167223Y-98421279D01*
X149167224Y-98421278D01*
X149170527Y-98415556D01*
X149229542Y-98233928D01*
X149249504Y-98044000D01*
X149248814Y-98037435D01*
X149230232Y-97860635D01*
X149230232Y-97860633D01*
X149229542Y-97854072D01*
X149170527Y-97672444D01*
X149075040Y-97507056D01*
X148947253Y-97365134D01*
X148792752Y-97252882D01*
X148786724Y-97250198D01*
X148786722Y-97250197D01*
X148624319Y-97177891D01*
X148624318Y-97177891D01*
X148618288Y-97175206D01*
X148504865Y-97151097D01*
X148437944Y-97136872D01*
X148437939Y-97136872D01*
X148431487Y-97135500D01*
X148240513Y-97135500D01*
X148234061Y-97136872D01*
X148234056Y-97136872D01*
X148167135Y-97151097D01*
X148053712Y-97175206D01*
X148047682Y-97177891D01*
X148047681Y-97177891D01*
X147885278Y-97250197D01*
X147885276Y-97250198D01*
X147879248Y-97252882D01*
X147724747Y-97365134D01*
X147596960Y-97507056D01*
X147501473Y-97672444D01*
X147442458Y-97854072D01*
X147441768Y-97860633D01*
X147441768Y-97860635D01*
X147423186Y-98037435D01*
X147422496Y-98044000D01*
X129576166Y-98044000D01*
X129560578Y-97982446D01*
X129560578Y-97982445D01*
X129559296Y-97977384D01*
X129468860Y-97771209D01*
X129453156Y-97747171D01*
X129348573Y-97587096D01*
X129345722Y-97582732D01*
X129342197Y-97578903D01*
X129342194Y-97578899D01*
X129196772Y-97420931D01*
X129193240Y-97417094D01*
X129015576Y-97278811D01*
X128981792Y-97260528D01*
X128931403Y-97210515D01*
X128916051Y-97141198D01*
X128940612Y-97074585D01*
X128981794Y-97038901D01*
X129010719Y-97023248D01*
X129019411Y-97017569D01*
X129188789Y-96885737D01*
X129196432Y-96878700D01*
X129341790Y-96720799D01*
X129348177Y-96712593D01*
X129465569Y-96532913D01*
X129470512Y-96523778D01*
X129556730Y-96327223D01*
X129560100Y-96317408D01*
X129602097Y-96151561D01*
X129601567Y-96137470D01*
X129593145Y-96134000D01*
X126951571Y-96134000D01*
X126938040Y-96137973D01*
X126936744Y-96146986D01*
X126979900Y-96317408D01*
X126983270Y-96327223D01*
X127069488Y-96523778D01*
X127074431Y-96532913D01*
X127191823Y-96712593D01*
X127198210Y-96720799D01*
X127343568Y-96878700D01*
X127351211Y-96885737D01*
X127520589Y-97017569D01*
X127529281Y-97023248D01*
X127558206Y-97038901D01*
X127608597Y-97088914D01*
X127623949Y-97158231D01*
X127599388Y-97224844D01*
X127558208Y-97260528D01*
X127524424Y-97278811D01*
X127346760Y-97417094D01*
X127343228Y-97420931D01*
X127197806Y-97578899D01*
X127197803Y-97578903D01*
X127194278Y-97582732D01*
X127191427Y-97587096D01*
X127086845Y-97747171D01*
X127071140Y-97771209D01*
X126980704Y-97977384D01*
X126979422Y-97982445D01*
X126979422Y-97982446D01*
X126926717Y-98190573D01*
X126925436Y-98195632D01*
X126925006Y-98200823D01*
X126925005Y-98200828D01*
X126921742Y-98240206D01*
X126906844Y-98420000D01*
X126907274Y-98425189D01*
X126919707Y-98575226D01*
X126925436Y-98644368D01*
X126926717Y-98649426D01*
X126926717Y-98649427D01*
X126973741Y-98835118D01*
X126980704Y-98862616D01*
X127071140Y-99068791D01*
X127073990Y-99073153D01*
X127073992Y-99073157D01*
X127144325Y-99180809D01*
X127194278Y-99257268D01*
X127197803Y-99261097D01*
X127197806Y-99261101D01*
X127299360Y-99371417D01*
X127346760Y-99422906D01*
X127524424Y-99561189D01*
X127529005Y-99563668D01*
X127557680Y-99579186D01*
X127608071Y-99629199D01*
X127623423Y-99698516D01*
X127598863Y-99765129D01*
X127557681Y-99800813D01*
X127524424Y-99818811D01*
X127346760Y-99957094D01*
X127343228Y-99960931D01*
X127197806Y-100118899D01*
X127197803Y-100118903D01*
X127194278Y-100122732D01*
X127191427Y-100127096D01*
X127074038Y-100306774D01*
X127071140Y-100311209D01*
X127069048Y-100315978D01*
X127069046Y-100315982D01*
X127016054Y-100436794D01*
X126980704Y-100517384D01*
X126925436Y-100735632D01*
X126906844Y-100960000D01*
X126925436Y-101184368D01*
X126980704Y-101402616D01*
X126982800Y-101407394D01*
X127039180Y-101535928D01*
X127071140Y-101608791D01*
X127073990Y-101613153D01*
X127073992Y-101613157D01*
X127084420Y-101629118D01*
X127194278Y-101797268D01*
X127197803Y-101801097D01*
X127197806Y-101801101D01*
X127273149Y-101882944D01*
X127346760Y-101962906D01*
X127524424Y-102101189D01*
X127529005Y-102103668D01*
X127557680Y-102119186D01*
X127608071Y-102169199D01*
X127623423Y-102238516D01*
X127598863Y-102305129D01*
X127557681Y-102340813D01*
X127524424Y-102358811D01*
X127346760Y-102497094D01*
X127343228Y-102500931D01*
X127197806Y-102658899D01*
X127197803Y-102658903D01*
X127194278Y-102662732D01*
X127071140Y-102851209D01*
X126980704Y-103057384D01*
X126925436Y-103275632D01*
X126906844Y-103500000D01*
X126925436Y-103724368D01*
X126980704Y-103942616D01*
X126982800Y-103947394D01*
X127054512Y-104110882D01*
X127071140Y-104148791D01*
X127073990Y-104153153D01*
X127073992Y-104153157D01*
X127122919Y-104228045D01*
X127194278Y-104337268D01*
X127197803Y-104341097D01*
X127197806Y-104341101D01*
X127337475Y-104492820D01*
X127368896Y-104556485D01*
X127360909Y-104627031D01*
X127316051Y-104682060D01*
X127288809Y-104696213D01*
X127173796Y-104739111D01*
X127166584Y-104744510D01*
X127166582Y-104744511D01*
X127152846Y-104754794D01*
X127056739Y-104826739D01*
X127051341Y-104833950D01*
X126995485Y-104908565D01*
X126969111Y-104943796D01*
X126918011Y-105080799D01*
X126911500Y-105141362D01*
X126911500Y-106938638D01*
X126918011Y-106999201D01*
X126920764Y-107006581D01*
X126920765Y-107006587D01*
X126925010Y-107017969D01*
X126930074Y-107088785D01*
X126896048Y-107151097D01*
X126833735Y-107185121D01*
X126806954Y-107188000D01*
X125602000Y-107188000D01*
X125533879Y-107167998D01*
X125487386Y-107114342D01*
X125476000Y-107062000D01*
X125476000Y-95608439D01*
X126937903Y-95608439D01*
X126938433Y-95622530D01*
X126946855Y-95626000D01*
X127997885Y-95626000D01*
X128013124Y-95621525D01*
X128014329Y-95620135D01*
X128016000Y-95612452D01*
X128016000Y-95607885D01*
X128524000Y-95607885D01*
X128528475Y-95623124D01*
X128529865Y-95624329D01*
X128537548Y-95626000D01*
X129588429Y-95626000D01*
X129601960Y-95622027D01*
X129603256Y-95613014D01*
X129560100Y-95442592D01*
X129556730Y-95432777D01*
X129470512Y-95236222D01*
X129465569Y-95227087D01*
X129348177Y-95047407D01*
X129341790Y-95039201D01*
X129196432Y-94881300D01*
X129188789Y-94874263D01*
X129019411Y-94742431D01*
X129010718Y-94736752D01*
X128821957Y-94634599D01*
X128812440Y-94630425D01*
X128609443Y-94560736D01*
X128599373Y-94558185D01*
X128541867Y-94548589D01*
X128528352Y-94550223D01*
X128524000Y-94564449D01*
X128524000Y-95607885D01*
X128016000Y-95607885D01*
X128016000Y-94563723D01*
X128012164Y-94550660D01*
X127997416Y-94548709D01*
X127940627Y-94558185D01*
X127930557Y-94560736D01*
X127727560Y-94630425D01*
X127718043Y-94634599D01*
X127529282Y-94736752D01*
X127520589Y-94742431D01*
X127351211Y-94874263D01*
X127343568Y-94881300D01*
X127198210Y-95039201D01*
X127191823Y-95047407D01*
X127074431Y-95227087D01*
X127069488Y-95236222D01*
X126983270Y-95432777D01*
X126979900Y-95442592D01*
X126937903Y-95608439D01*
X125476000Y-95608439D01*
X125476000Y-71727865D01*
X125496002Y-71659744D01*
X125549658Y-71613251D01*
X125619932Y-71603147D01*
X125684512Y-71632641D01*
X125699919Y-71648569D01*
X125706188Y-71656311D01*
X125706191Y-71656314D01*
X125708266Y-71658876D01*
X125983124Y-71933734D01*
X126285207Y-72178357D01*
X126287970Y-72180152D01*
X126287971Y-72180152D01*
X126569966Y-72363281D01*
X126611205Y-72390062D01*
X126614139Y-72391557D01*
X126614146Y-72391561D01*
X126954607Y-72565034D01*
X126957547Y-72566532D01*
X127320438Y-72705833D01*
X127695901Y-72806438D01*
X127899793Y-72838732D01*
X128076576Y-72866732D01*
X128076584Y-72866733D01*
X128079824Y-72867246D01*
X128468000Y-72887589D01*
X128856176Y-72867246D01*
X128859416Y-72866733D01*
X128859424Y-72866732D01*
X129036207Y-72838732D01*
X129240099Y-72806438D01*
X129615562Y-72705833D01*
X129978453Y-72566532D01*
X129981393Y-72565034D01*
X130321854Y-72391561D01*
X130321861Y-72391557D01*
X130324795Y-72390062D01*
X130366035Y-72363281D01*
X130648029Y-72180152D01*
X130648030Y-72180152D01*
X130650793Y-72178357D01*
X130952876Y-71933734D01*
X131227734Y-71658876D01*
X131236081Y-71648569D01*
X131470282Y-71359355D01*
X131472357Y-71356793D01*
X131684062Y-71030795D01*
X131860532Y-70684453D01*
X131999833Y-70321562D01*
X132100438Y-69946099D01*
X132161246Y-69562176D01*
X132181589Y-69174000D01*
X132161246Y-68785824D01*
X132100438Y-68401901D01*
X131999833Y-68026438D01*
X131860532Y-67663547D01*
X131684062Y-67317206D01*
X131472357Y-66991207D01*
X131279699Y-66753295D01*
X131252373Y-66687767D01*
X131264813Y-66617869D01*
X131313067Y-66565792D01*
X131377619Y-66548000D01*
X143130000Y-66548000D01*
X143198121Y-66568002D01*
G37*
%TD.AperFunction*%
%TD*%
%TA.AperFunction,Conductor*%
%TO.N,BATT_IN*%
G36*
X168852121Y-66695002D02*
G01*
X168898614Y-66748658D01*
X168910000Y-66801000D01*
X168910000Y-74478001D01*
X168889998Y-74546122D01*
X168836342Y-74592615D01*
X168766068Y-74602719D01*
X168701488Y-74573225D01*
X168691299Y-74563339D01*
X168634625Y-74501775D01*
X168573240Y-74435094D01*
X168437545Y-74329477D01*
X168399689Y-74300012D01*
X168399687Y-74300010D01*
X168395576Y-74296811D01*
X168295406Y-74242602D01*
X168202159Y-74192139D01*
X168202156Y-74192138D01*
X168197574Y-74189658D01*
X167984635Y-74116556D01*
X167979501Y-74115699D01*
X167979496Y-74115698D01*
X167767706Y-74080357D01*
X167767704Y-74080357D01*
X167762569Y-74079500D01*
X167537431Y-74079500D01*
X167532296Y-74080357D01*
X167532294Y-74080357D01*
X167320504Y-74115698D01*
X167320499Y-74115699D01*
X167315365Y-74116556D01*
X167102426Y-74189658D01*
X167097844Y-74192138D01*
X167097841Y-74192139D01*
X167004594Y-74242602D01*
X166904424Y-74296811D01*
X166900313Y-74300010D01*
X166900311Y-74300012D01*
X166862455Y-74329477D01*
X166726760Y-74435094D01*
X166693225Y-74471522D01*
X166577806Y-74596899D01*
X166577803Y-74596903D01*
X166574278Y-74600732D01*
X166571427Y-74605096D01*
X166485483Y-74736643D01*
X166431479Y-74782732D01*
X166361132Y-74792307D01*
X166296774Y-74762330D01*
X166274517Y-74736643D01*
X166188573Y-74605096D01*
X166185722Y-74600732D01*
X166182197Y-74596903D01*
X166182194Y-74596899D01*
X166066775Y-74471522D01*
X166033240Y-74435094D01*
X165897545Y-74329477D01*
X165859689Y-74300012D01*
X165859687Y-74300010D01*
X165855576Y-74296811D01*
X165755406Y-74242602D01*
X165662159Y-74192139D01*
X165662156Y-74192138D01*
X165657574Y-74189658D01*
X165444635Y-74116556D01*
X165439501Y-74115699D01*
X165439496Y-74115698D01*
X165227706Y-74080357D01*
X165227704Y-74080357D01*
X165222569Y-74079500D01*
X164997431Y-74079500D01*
X164992296Y-74080357D01*
X164992294Y-74080357D01*
X164780504Y-74115698D01*
X164780499Y-74115699D01*
X164775365Y-74116556D01*
X164562426Y-74189658D01*
X164557844Y-74192138D01*
X164557841Y-74192139D01*
X164464594Y-74242602D01*
X164364424Y-74296811D01*
X164360313Y-74300010D01*
X164360311Y-74300012D01*
X164322455Y-74329477D01*
X164186760Y-74435094D01*
X164153225Y-74471522D01*
X164037806Y-74596899D01*
X164037803Y-74596903D01*
X164034278Y-74600732D01*
X164031427Y-74605096D01*
X163945483Y-74736643D01*
X163891479Y-74782732D01*
X163821132Y-74792307D01*
X163756774Y-74762330D01*
X163734517Y-74736643D01*
X163648573Y-74605096D01*
X163645722Y-74600732D01*
X163642197Y-74596903D01*
X163642194Y-74596899D01*
X163526775Y-74471522D01*
X163493240Y-74435094D01*
X163357545Y-74329477D01*
X163319689Y-74300012D01*
X163319687Y-74300010D01*
X163315576Y-74296811D01*
X163215406Y-74242602D01*
X163122159Y-74192139D01*
X163122156Y-74192138D01*
X163117574Y-74189658D01*
X162904635Y-74116556D01*
X162899501Y-74115699D01*
X162899496Y-74115698D01*
X162687706Y-74080357D01*
X162687704Y-74080357D01*
X162682569Y-74079500D01*
X162457431Y-74079500D01*
X162452296Y-74080357D01*
X162452294Y-74080357D01*
X162240504Y-74115698D01*
X162240499Y-74115699D01*
X162235365Y-74116556D01*
X162022426Y-74189658D01*
X162017844Y-74192138D01*
X162017841Y-74192139D01*
X161924594Y-74242602D01*
X161824424Y-74296811D01*
X161820313Y-74300010D01*
X161820311Y-74300012D01*
X161782455Y-74329477D01*
X161646760Y-74435094D01*
X161613225Y-74471522D01*
X161585375Y-74501775D01*
X161524521Y-74538346D01*
X161453557Y-74536211D01*
X161395012Y-74496049D01*
X161374618Y-74460469D01*
X161333595Y-74350480D01*
X161325046Y-74334824D01*
X161248302Y-74232307D01*
X161235693Y-74219698D01*
X161133176Y-74142954D01*
X161117520Y-74134405D01*
X160996478Y-74089259D01*
X160981257Y-74085662D01*
X160931938Y-74080360D01*
X160925223Y-74080000D01*
X160302115Y-74080000D01*
X160286876Y-74084475D01*
X160285671Y-74085865D01*
X160284000Y-74093548D01*
X160284000Y-76777885D01*
X160288475Y-76793124D01*
X160289865Y-76794329D01*
X160297548Y-76796000D01*
X160925223Y-76796000D01*
X160931938Y-76795640D01*
X160981257Y-76790338D01*
X160996478Y-76786741D01*
X161117520Y-76741595D01*
X161133176Y-76733046D01*
X161235693Y-76656302D01*
X161248302Y-76643693D01*
X161325046Y-76541176D01*
X161333595Y-76525520D01*
X161374618Y-76415531D01*
X161417165Y-76358695D01*
X161483685Y-76333884D01*
X161553059Y-76348975D01*
X161585375Y-76374225D01*
X161646760Y-76440906D01*
X161650879Y-76444112D01*
X161741354Y-76514532D01*
X161824424Y-76579189D01*
X161829005Y-76581668D01*
X161966917Y-76656302D01*
X162022426Y-76686342D01*
X162235365Y-76759444D01*
X162240499Y-76760301D01*
X162240504Y-76760302D01*
X162452294Y-76795643D01*
X162452296Y-76795643D01*
X162457431Y-76796500D01*
X162682569Y-76796500D01*
X162687704Y-76795643D01*
X162687706Y-76795643D01*
X162899496Y-76760302D01*
X162899501Y-76760301D01*
X162904635Y-76759444D01*
X163117574Y-76686342D01*
X163173084Y-76656302D01*
X163310995Y-76581668D01*
X163315576Y-76579189D01*
X163398647Y-76514532D01*
X163489121Y-76444112D01*
X163493240Y-76440906D01*
X163577869Y-76348975D01*
X163642194Y-76279101D01*
X163642197Y-76279097D01*
X163645722Y-76275268D01*
X163734517Y-76139357D01*
X163788521Y-76093268D01*
X163858868Y-76083693D01*
X163923226Y-76113670D01*
X163945483Y-76139357D01*
X164034278Y-76275268D01*
X164037803Y-76279097D01*
X164037806Y-76279101D01*
X164102131Y-76348975D01*
X164186760Y-76440906D01*
X164190879Y-76444112D01*
X164281354Y-76514532D01*
X164364424Y-76579189D01*
X164369005Y-76581668D01*
X164506917Y-76656302D01*
X164562426Y-76686342D01*
X164775365Y-76759444D01*
X164780499Y-76760301D01*
X164780504Y-76760302D01*
X164992294Y-76795643D01*
X164992296Y-76795643D01*
X164997431Y-76796500D01*
X165222569Y-76796500D01*
X165227704Y-76795643D01*
X165227706Y-76795643D01*
X165439496Y-76760302D01*
X165439501Y-76760301D01*
X165444635Y-76759444D01*
X165657574Y-76686342D01*
X165713084Y-76656302D01*
X165850995Y-76581668D01*
X165855576Y-76579189D01*
X165938647Y-76514532D01*
X166029121Y-76444112D01*
X166033240Y-76440906D01*
X166117869Y-76348975D01*
X166182194Y-76279101D01*
X166182197Y-76279097D01*
X166185722Y-76275268D01*
X166274517Y-76139357D01*
X166328521Y-76093268D01*
X166398868Y-76083693D01*
X166463226Y-76113670D01*
X166485483Y-76139357D01*
X166574278Y-76275268D01*
X166577803Y-76279097D01*
X166577806Y-76279101D01*
X166642131Y-76348975D01*
X166726760Y-76440906D01*
X166730879Y-76444112D01*
X166821354Y-76514532D01*
X166904424Y-76579189D01*
X166909005Y-76581668D01*
X167046917Y-76656302D01*
X167102426Y-76686342D01*
X167315365Y-76759444D01*
X167320499Y-76760301D01*
X167320504Y-76760302D01*
X167532294Y-76795643D01*
X167532296Y-76795643D01*
X167537431Y-76796500D01*
X167762569Y-76796500D01*
X167767704Y-76795643D01*
X167767706Y-76795643D01*
X167979496Y-76760302D01*
X167979501Y-76760301D01*
X167984635Y-76759444D01*
X168197574Y-76686342D01*
X168253084Y-76656302D01*
X168390995Y-76581668D01*
X168395576Y-76579189D01*
X168478647Y-76514532D01*
X168569121Y-76444112D01*
X168573240Y-76440906D01*
X168691299Y-76312661D01*
X168752152Y-76276090D01*
X168823117Y-76278225D01*
X168881662Y-76318387D01*
X168909200Y-76383825D01*
X168910000Y-76397999D01*
X168910000Y-79322810D01*
X168889998Y-79390931D01*
X168873095Y-79411905D01*
X167640000Y-80645000D01*
X167640000Y-86169363D01*
X167619998Y-86237484D01*
X167566342Y-86283977D01*
X167496068Y-86294081D01*
X167431488Y-86264587D01*
X167420364Y-86253673D01*
X167366675Y-86194045D01*
X167366674Y-86194044D01*
X167362253Y-86189134D01*
X167207752Y-86076882D01*
X167201724Y-86074198D01*
X167201722Y-86074197D01*
X167039319Y-86001891D01*
X167039318Y-86001891D01*
X167033288Y-85999206D01*
X166939888Y-85979353D01*
X166852944Y-85960872D01*
X166852939Y-85960872D01*
X166846487Y-85959500D01*
X166655513Y-85959500D01*
X166649061Y-85960872D01*
X166649056Y-85960872D01*
X166562112Y-85979353D01*
X166468712Y-85999206D01*
X166462682Y-86001891D01*
X166462681Y-86001891D01*
X166300278Y-86074197D01*
X166300276Y-86074198D01*
X166294248Y-86076882D01*
X166139747Y-86189134D01*
X166135326Y-86194044D01*
X166135325Y-86194045D01*
X166096213Y-86237484D01*
X166011960Y-86331056D01*
X165916473Y-86496444D01*
X165857458Y-86678072D01*
X165857318Y-86679401D01*
X165824518Y-86740156D01*
X165762368Y-86774477D01*
X165691529Y-86769748D01*
X165634492Y-86727472D01*
X165612724Y-86679808D01*
X165612542Y-86678072D01*
X165553527Y-86496444D01*
X165458040Y-86331056D01*
X165373788Y-86237484D01*
X165334675Y-86194045D01*
X165334674Y-86194044D01*
X165330253Y-86189134D01*
X165175752Y-86076882D01*
X165169724Y-86074198D01*
X165169722Y-86074197D01*
X165007319Y-86001891D01*
X165007318Y-86001891D01*
X165001288Y-85999206D01*
X164907888Y-85979353D01*
X164820944Y-85960872D01*
X164820939Y-85960872D01*
X164814487Y-85959500D01*
X164623513Y-85959500D01*
X164617061Y-85960872D01*
X164617056Y-85960872D01*
X164530112Y-85979353D01*
X164436712Y-85999206D01*
X164430682Y-86001891D01*
X164430681Y-86001891D01*
X164268278Y-86074197D01*
X164268276Y-86074198D01*
X164262248Y-86076882D01*
X164107747Y-86189134D01*
X164103326Y-86194044D01*
X164103325Y-86194045D01*
X164064213Y-86237484D01*
X163979960Y-86331056D01*
X163884473Y-86496444D01*
X163825458Y-86678072D01*
X163824768Y-86684633D01*
X163824768Y-86684635D01*
X163808610Y-86838368D01*
X163805496Y-86868000D01*
X163806186Y-86874565D01*
X163818978Y-86996270D01*
X163825458Y-87057928D01*
X163884473Y-87239556D01*
X163979960Y-87404944D01*
X164107747Y-87546866D01*
X164262248Y-87659118D01*
X164268276Y-87661802D01*
X164268278Y-87661803D01*
X164430681Y-87734109D01*
X164436712Y-87736794D01*
X164549430Y-87760753D01*
X164611903Y-87794482D01*
X164646225Y-87856631D01*
X164641497Y-87927470D01*
X164599221Y-87984508D01*
X164549430Y-88007247D01*
X164436712Y-88031206D01*
X164430682Y-88033891D01*
X164430681Y-88033891D01*
X164268278Y-88106197D01*
X164268276Y-88106198D01*
X164262248Y-88108882D01*
X164107747Y-88221134D01*
X164103326Y-88226044D01*
X164103325Y-88226045D01*
X164064213Y-88269484D01*
X163979960Y-88363056D01*
X163884473Y-88528444D01*
X163825458Y-88710072D01*
X163824768Y-88716633D01*
X163824768Y-88716635D01*
X163811399Y-88843837D01*
X163805496Y-88900000D01*
X163806186Y-88906565D01*
X163817531Y-89014502D01*
X163825458Y-89089928D01*
X163884473Y-89271556D01*
X163979960Y-89436944D01*
X163984378Y-89441851D01*
X163984379Y-89441852D01*
X164028753Y-89491134D01*
X164107747Y-89578866D01*
X164262248Y-89691118D01*
X164268276Y-89693802D01*
X164268278Y-89693803D01*
X164408299Y-89756144D01*
X164436712Y-89768794D01*
X164530112Y-89788647D01*
X164617056Y-89807128D01*
X164617061Y-89807128D01*
X164623513Y-89808500D01*
X164814487Y-89808500D01*
X164820939Y-89807128D01*
X164820944Y-89807128D01*
X164907887Y-89788647D01*
X165001288Y-89768794D01*
X165029701Y-89756144D01*
X165169722Y-89693803D01*
X165169724Y-89693802D01*
X165175752Y-89691118D01*
X165330253Y-89578866D01*
X165409247Y-89491134D01*
X165453621Y-89441852D01*
X165453622Y-89441851D01*
X165458040Y-89436944D01*
X165553527Y-89271556D01*
X165612542Y-89089928D01*
X165612682Y-89088599D01*
X165645482Y-89027844D01*
X165707632Y-88993523D01*
X165778471Y-88998252D01*
X165835508Y-89040528D01*
X165857276Y-89088192D01*
X165857458Y-89089928D01*
X165916473Y-89271556D01*
X166011960Y-89436944D01*
X166016378Y-89441851D01*
X166016379Y-89441852D01*
X166060753Y-89491134D01*
X166139747Y-89578866D01*
X166294248Y-89691118D01*
X166300276Y-89693802D01*
X166300278Y-89693803D01*
X166440299Y-89756144D01*
X166468712Y-89768794D01*
X166562112Y-89788647D01*
X166649056Y-89807128D01*
X166649061Y-89807128D01*
X166655513Y-89808500D01*
X166846487Y-89808500D01*
X166852939Y-89807128D01*
X166852944Y-89807128D01*
X166939887Y-89788647D01*
X167033288Y-89768794D01*
X167061701Y-89756144D01*
X167201722Y-89693803D01*
X167201724Y-89693802D01*
X167207752Y-89691118D01*
X167362253Y-89578866D01*
X167420364Y-89514327D01*
X167480810Y-89477087D01*
X167551793Y-89478439D01*
X167610778Y-89517952D01*
X167639036Y-89583083D01*
X167640000Y-89598637D01*
X167640000Y-92584000D01*
X167619998Y-92652121D01*
X167566342Y-92698614D01*
X167514000Y-92710000D01*
X165100000Y-92710000D01*
X165100000Y-93854000D01*
X165079998Y-93922121D01*
X165026342Y-93968614D01*
X164974000Y-93980000D01*
X136954712Y-93980000D01*
X136886591Y-93959998D01*
X136869955Y-93947232D01*
X134403320Y-91704836D01*
X134366370Y-91644213D01*
X134368061Y-91573237D01*
X134407856Y-91514442D01*
X134473121Y-91486495D01*
X134509371Y-91487416D01*
X134624148Y-91507097D01*
X134625554Y-91507216D01*
X134638124Y-91503525D01*
X134639329Y-91502135D01*
X134641000Y-91494452D01*
X134641000Y-91485943D01*
X135149000Y-91485943D01*
X135153309Y-91500617D01*
X135165198Y-91502679D01*
X135270003Y-91493760D01*
X135280511Y-91491958D01*
X135493860Y-91436406D01*
X135503914Y-91432854D01*
X135704814Y-91342042D01*
X135714115Y-91336845D01*
X135896768Y-91213393D01*
X135905077Y-91206684D01*
X136064230Y-91054148D01*
X136071285Y-91046132D01*
X136202369Y-90868896D01*
X136207972Y-90859797D01*
X136307220Y-90662949D01*
X136311196Y-90653053D01*
X136375752Y-90442257D01*
X136378000Y-90431827D01*
X136379262Y-90421967D01*
X136376989Y-90407721D01*
X136363943Y-90404000D01*
X135167115Y-90404000D01*
X135151876Y-90408475D01*
X135150671Y-90409865D01*
X135149000Y-90417548D01*
X135149000Y-91485943D01*
X134641000Y-91485943D01*
X134641000Y-90422115D01*
X134636525Y-90406876D01*
X134635135Y-90405671D01*
X134627452Y-90404000D01*
X133428676Y-90404000D01*
X133415145Y-90407973D01*
X133413653Y-90418349D01*
X133434557Y-90515338D01*
X133429356Y-90586143D01*
X133386700Y-90642897D01*
X133320132Y-90667580D01*
X133250787Y-90652355D01*
X133226631Y-90635119D01*
X132756241Y-90207492D01*
X132733390Y-90170000D01*
X144501496Y-90170000D01*
X144502186Y-90176565D01*
X144505437Y-90207492D01*
X144521458Y-90359928D01*
X144580473Y-90541556D01*
X144675960Y-90706944D01*
X144803747Y-90848866D01*
X144958248Y-90961118D01*
X144964276Y-90963802D01*
X144964278Y-90963803D01*
X145126681Y-91036109D01*
X145132712Y-91038794D01*
X145226113Y-91058647D01*
X145313056Y-91077128D01*
X145313061Y-91077128D01*
X145319513Y-91078500D01*
X145510487Y-91078500D01*
X145516939Y-91077128D01*
X145516944Y-91077128D01*
X145603888Y-91058647D01*
X145697288Y-91038794D01*
X145703319Y-91036109D01*
X145865722Y-90963803D01*
X145865724Y-90963802D01*
X145871752Y-90961118D01*
X146026253Y-90848866D01*
X146154040Y-90706944D01*
X146249527Y-90541556D01*
X146308542Y-90359928D01*
X146324564Y-90207492D01*
X146327814Y-90176565D01*
X146328504Y-90170000D01*
X146308542Y-89980072D01*
X146249527Y-89798444D01*
X146154040Y-89633056D01*
X146108744Y-89582749D01*
X146030675Y-89496045D01*
X146030674Y-89496044D01*
X146026253Y-89491134D01*
X145871752Y-89378882D01*
X145865724Y-89376198D01*
X145865722Y-89376197D01*
X145703319Y-89303891D01*
X145703318Y-89303891D01*
X145697288Y-89301206D01*
X145584721Y-89277279D01*
X145516944Y-89262872D01*
X145516939Y-89262872D01*
X145510487Y-89261500D01*
X145319513Y-89261500D01*
X145313061Y-89262872D01*
X145313056Y-89262872D01*
X145245279Y-89277279D01*
X145132712Y-89301206D01*
X145126682Y-89303891D01*
X145126681Y-89303891D01*
X144964278Y-89376197D01*
X144964276Y-89376198D01*
X144958248Y-89378882D01*
X144803747Y-89491134D01*
X144799326Y-89496044D01*
X144799325Y-89496045D01*
X144721257Y-89582749D01*
X144675960Y-89633056D01*
X144580473Y-89798444D01*
X144521458Y-89980072D01*
X144501496Y-90170000D01*
X132733390Y-90170000D01*
X132719293Y-90146871D01*
X132715000Y-90114262D01*
X132715000Y-86999455D01*
X133386500Y-86999455D01*
X133386501Y-88300544D01*
X133386826Y-88303721D01*
X133386826Y-88303730D01*
X133391805Y-88352467D01*
X133397113Y-88404426D01*
X133452885Y-88572738D01*
X133545970Y-88723652D01*
X133671348Y-88849030D01*
X133677595Y-88852883D01*
X133677596Y-88852884D01*
X133817747Y-88939330D01*
X133865225Y-88992116D01*
X133876628Y-89062191D01*
X133848336Y-89127307D01*
X133838784Y-89137538D01*
X133725765Y-89245858D01*
X133718715Y-89253868D01*
X133587631Y-89431104D01*
X133582028Y-89440203D01*
X133482780Y-89637051D01*
X133478804Y-89646947D01*
X133414248Y-89857743D01*
X133412000Y-89868173D01*
X133410738Y-89878033D01*
X133413011Y-89892279D01*
X133426057Y-89896000D01*
X136361324Y-89896000D01*
X136374855Y-89892027D01*
X136376347Y-89881651D01*
X136349297Y-89756144D01*
X136346172Y-89745939D01*
X136263975Y-89541383D01*
X136259171Y-89531854D01*
X136143582Y-89344126D01*
X136137236Y-89335546D01*
X135991591Y-89170062D01*
X135983882Y-89162673D01*
X135960524Y-89143813D01*
X135920089Y-89085456D01*
X135917624Y-89014502D01*
X135953911Y-88953479D01*
X135973529Y-88938543D01*
X136118652Y-88849030D01*
X136244030Y-88723652D01*
X136337115Y-88572738D01*
X136392887Y-88404426D01*
X136396530Y-88368774D01*
X136403175Y-88303729D01*
X136403175Y-88303723D01*
X136403500Y-88300545D01*
X136403499Y-86999456D01*
X136401459Y-86979480D01*
X136398195Y-86947533D01*
X136392887Y-86895574D01*
X136337115Y-86727262D01*
X136244030Y-86576348D01*
X136118652Y-86450970D01*
X135967738Y-86357885D01*
X135886772Y-86331056D01*
X135805952Y-86304275D01*
X135805948Y-86304274D01*
X135799426Y-86302113D01*
X135792592Y-86301415D01*
X135792588Y-86301414D01*
X135698729Y-86291825D01*
X135698723Y-86291825D01*
X135695545Y-86291500D01*
X134895125Y-86291500D01*
X134094456Y-86291501D01*
X134091279Y-86291826D01*
X134091270Y-86291826D01*
X134042533Y-86296805D01*
X133990574Y-86302113D01*
X133822262Y-86357885D01*
X133671348Y-86450970D01*
X133545970Y-86576348D01*
X133452885Y-86727262D01*
X133438807Y-86769748D01*
X133404075Y-86874565D01*
X133397113Y-86895574D01*
X133396415Y-86902408D01*
X133396414Y-86902412D01*
X133386825Y-86996270D01*
X133386500Y-86999455D01*
X132715000Y-86999455D01*
X132715000Y-84963000D01*
X151171341Y-84963000D01*
X151191937Y-85198408D01*
X151193361Y-85203722D01*
X151193361Y-85203723D01*
X151225145Y-85322342D01*
X151253097Y-85426663D01*
X151352965Y-85640829D01*
X151488505Y-85834401D01*
X151655599Y-86001495D01*
X151849171Y-86137035D01*
X151854149Y-86139356D01*
X151854152Y-86139358D01*
X151971428Y-86194045D01*
X152063337Y-86236903D01*
X152068645Y-86238325D01*
X152068647Y-86238326D01*
X152286277Y-86296639D01*
X152291592Y-86298063D01*
X152394682Y-86307082D01*
X152465310Y-86313262D01*
X152465317Y-86313262D01*
X152468034Y-86313500D01*
X152585966Y-86313500D01*
X152588683Y-86313262D01*
X152588690Y-86313262D01*
X152659318Y-86307082D01*
X152762408Y-86298063D01*
X152767723Y-86296639D01*
X152985353Y-86238326D01*
X152985355Y-86238325D01*
X152990663Y-86236903D01*
X153082572Y-86194045D01*
X153199848Y-86139358D01*
X153199851Y-86139356D01*
X153204829Y-86137035D01*
X153398401Y-86001495D01*
X153565495Y-85834401D01*
X153568655Y-85829889D01*
X153697878Y-85645339D01*
X153697881Y-85645334D01*
X153701035Y-85640830D01*
X153703358Y-85635848D01*
X153703361Y-85635843D01*
X153798580Y-85431645D01*
X153798581Y-85431644D01*
X153800903Y-85426663D01*
X153828856Y-85322342D01*
X153860639Y-85203723D01*
X153860639Y-85203722D01*
X153862063Y-85198408D01*
X153882659Y-84963000D01*
X153862063Y-84727592D01*
X153800903Y-84499337D01*
X153701035Y-84285171D01*
X153565495Y-84091599D01*
X153398401Y-83924505D01*
X153204829Y-83788965D01*
X153199851Y-83786644D01*
X153199848Y-83786642D01*
X152995645Y-83691420D01*
X152995643Y-83691419D01*
X152990663Y-83689097D01*
X152985355Y-83687675D01*
X152985353Y-83687674D01*
X152767723Y-83629361D01*
X152767722Y-83629361D01*
X152762408Y-83627937D01*
X152659318Y-83618918D01*
X152588690Y-83612738D01*
X152588683Y-83612738D01*
X152585966Y-83612500D01*
X152468034Y-83612500D01*
X152465317Y-83612738D01*
X152465310Y-83612738D01*
X152394682Y-83618918D01*
X152291592Y-83627937D01*
X152286278Y-83629361D01*
X152286277Y-83629361D01*
X152068647Y-83687674D01*
X152068645Y-83687675D01*
X152063337Y-83689097D01*
X152058357Y-83691419D01*
X152058355Y-83691420D01*
X151854152Y-83786642D01*
X151854149Y-83786644D01*
X151849171Y-83788965D01*
X151655599Y-83924505D01*
X151488505Y-84091599D01*
X151485348Y-84096107D01*
X151485346Y-84096110D01*
X151356122Y-84280661D01*
X151352965Y-84285170D01*
X151350642Y-84290152D01*
X151350639Y-84290157D01*
X151255420Y-84494355D01*
X151253097Y-84499337D01*
X151191937Y-84727592D01*
X151171341Y-84963000D01*
X132715000Y-84963000D01*
X132715000Y-80258349D01*
X133413653Y-80258349D01*
X133440703Y-80383856D01*
X133443828Y-80394061D01*
X133526025Y-80598617D01*
X133530829Y-80608146D01*
X133646418Y-80795874D01*
X133652764Y-80804454D01*
X133798409Y-80969938D01*
X133806118Y-80977326D01*
X133977639Y-81115820D01*
X133986479Y-81121795D01*
X134178937Y-81229308D01*
X134188671Y-81233708D01*
X134396529Y-81307149D01*
X134406849Y-81309837D01*
X134624148Y-81347097D01*
X134625554Y-81347216D01*
X134638124Y-81343525D01*
X134639329Y-81342135D01*
X134641000Y-81334452D01*
X134641000Y-81325943D01*
X135149000Y-81325943D01*
X135153309Y-81340617D01*
X135165198Y-81342679D01*
X135270003Y-81333760D01*
X135280511Y-81331958D01*
X135493860Y-81276406D01*
X135503914Y-81272854D01*
X135704814Y-81182042D01*
X135714115Y-81176845D01*
X135896768Y-81053393D01*
X135905077Y-81046684D01*
X136064230Y-80894148D01*
X136071285Y-80886132D01*
X136202369Y-80708896D01*
X136207972Y-80699797D01*
X136307220Y-80502949D01*
X136311196Y-80493053D01*
X136375752Y-80282257D01*
X136378000Y-80271827D01*
X136379262Y-80261967D01*
X136376989Y-80247721D01*
X136363943Y-80244000D01*
X135167115Y-80244000D01*
X135151876Y-80248475D01*
X135150671Y-80249865D01*
X135149000Y-80257548D01*
X135149000Y-81325943D01*
X134641000Y-81325943D01*
X134641000Y-80262115D01*
X134636525Y-80246876D01*
X134635135Y-80245671D01*
X134627452Y-80244000D01*
X133428676Y-80244000D01*
X133415145Y-80247973D01*
X133413653Y-80258349D01*
X132715000Y-80258349D01*
X132715000Y-76839455D01*
X133386500Y-76839455D01*
X133386501Y-78140544D01*
X133397113Y-78244426D01*
X133452885Y-78412738D01*
X133545970Y-78563652D01*
X133671348Y-78689030D01*
X133677595Y-78692883D01*
X133677596Y-78692884D01*
X133817747Y-78779330D01*
X133865225Y-78832116D01*
X133876628Y-78902191D01*
X133848336Y-78967307D01*
X133838784Y-78977538D01*
X133725765Y-79085858D01*
X133718715Y-79093868D01*
X133587631Y-79271104D01*
X133582028Y-79280203D01*
X133482780Y-79477051D01*
X133478804Y-79486947D01*
X133414248Y-79697743D01*
X133412000Y-79708173D01*
X133410738Y-79718033D01*
X133413011Y-79732279D01*
X133426057Y-79736000D01*
X136361324Y-79736000D01*
X136374855Y-79732027D01*
X136376347Y-79721651D01*
X136349297Y-79596144D01*
X136346172Y-79585939D01*
X136263975Y-79381383D01*
X136259171Y-79371854D01*
X136143582Y-79184126D01*
X136137236Y-79175546D01*
X135991591Y-79010062D01*
X135983882Y-79002673D01*
X135960524Y-78983813D01*
X135920089Y-78925456D01*
X135917624Y-78854502D01*
X135953911Y-78793479D01*
X135973529Y-78778543D01*
X136118652Y-78689030D01*
X136244030Y-78563652D01*
X136337115Y-78412738D01*
X136392887Y-78244426D01*
X136403500Y-78140545D01*
X136403499Y-76839456D01*
X136399214Y-76797504D01*
X136395152Y-76757751D01*
X136392887Y-76735574D01*
X136337115Y-76567262D01*
X136244030Y-76416348D01*
X136118652Y-76290970D01*
X136099410Y-76279101D01*
X136056171Y-76252431D01*
X135967738Y-76197885D01*
X135881056Y-76169162D01*
X135805952Y-76144275D01*
X135805948Y-76144274D01*
X135799426Y-76142113D01*
X135792592Y-76141415D01*
X135792588Y-76141414D01*
X135698729Y-76131825D01*
X135698723Y-76131825D01*
X135695545Y-76131500D01*
X134895125Y-76131500D01*
X134094456Y-76131501D01*
X134091279Y-76131826D01*
X134091270Y-76131826D01*
X134042533Y-76136805D01*
X133990574Y-76142113D01*
X133822262Y-76197885D01*
X133733829Y-76252431D01*
X133690591Y-76279101D01*
X133671348Y-76290970D01*
X133545970Y-76416348D01*
X133452885Y-76567262D01*
X133432281Y-76629442D01*
X133401012Y-76723808D01*
X133397113Y-76735574D01*
X133396415Y-76742408D01*
X133396414Y-76742412D01*
X133390716Y-76798184D01*
X133386500Y-76839455D01*
X132715000Y-76839455D01*
X132715000Y-75945000D01*
X132735002Y-75876879D01*
X132788658Y-75830386D01*
X132841000Y-75819000D01*
X144145000Y-75819000D01*
X144145000Y-75493713D01*
X146001500Y-75493713D01*
X146016199Y-75666418D01*
X146017548Y-75671600D01*
X146017549Y-75671604D01*
X146071973Y-75880616D01*
X146074470Y-75890207D01*
X146169722Y-76100929D01*
X146233694Y-76195578D01*
X146295563Y-76287116D01*
X146299217Y-76292523D01*
X146302918Y-76296385D01*
X146302920Y-76296387D01*
X146455525Y-76455613D01*
X146455529Y-76455617D01*
X146459228Y-76459476D01*
X146645153Y-76596985D01*
X146649928Y-76599392D01*
X146649932Y-76599395D01*
X146757097Y-76653426D01*
X146851643Y-76701095D01*
X146955973Y-76733046D01*
X147067636Y-76767243D01*
X147067639Y-76767244D01*
X147072757Y-76768811D01*
X147078070Y-76769491D01*
X147078073Y-76769492D01*
X147212775Y-76786741D01*
X147302135Y-76798184D01*
X147307480Y-76797957D01*
X147307482Y-76797957D01*
X147366558Y-76795447D01*
X147533178Y-76788369D01*
X147759238Y-76739649D01*
X147973813Y-76653426D01*
X148170730Y-76532179D01*
X148344324Y-76379398D01*
X148489600Y-76199476D01*
X148501447Y-76178269D01*
X148552132Y-76128554D01*
X148621648Y-76114133D01*
X148687926Y-76139584D01*
X148715839Y-76169162D01*
X148796219Y-76288088D01*
X148799217Y-76292523D01*
X148802918Y-76296385D01*
X148802920Y-76296387D01*
X148955525Y-76455613D01*
X148955529Y-76455617D01*
X148959228Y-76459476D01*
X149145153Y-76596985D01*
X149149928Y-76599392D01*
X149149932Y-76599395D01*
X149257097Y-76653426D01*
X149351643Y-76701095D01*
X149455973Y-76733046D01*
X149567636Y-76767243D01*
X149567639Y-76767244D01*
X149572757Y-76768811D01*
X149578070Y-76769491D01*
X149578073Y-76769492D01*
X149712775Y-76786741D01*
X149802135Y-76798184D01*
X149807480Y-76797957D01*
X149807482Y-76797957D01*
X149866558Y-76795447D01*
X150033178Y-76788369D01*
X150259238Y-76739649D01*
X150473813Y-76653426D01*
X150670730Y-76532179D01*
X150844324Y-76379398D01*
X150866799Y-76351564D01*
X150925155Y-76311129D01*
X150996108Y-76308663D01*
X151057132Y-76344949D01*
X151072072Y-76364572D01*
X151157512Y-76503092D01*
X151166558Y-76514532D01*
X151281468Y-76629442D01*
X151292908Y-76638488D01*
X151431233Y-76723808D01*
X151444435Y-76729964D01*
X151599154Y-76781233D01*
X151612512Y-76784092D01*
X151706307Y-76793675D01*
X151712697Y-76794000D01*
X152087885Y-76794000D01*
X152103124Y-76789525D01*
X152104329Y-76788135D01*
X152106000Y-76780452D01*
X152106000Y-76775885D01*
X152614000Y-76775885D01*
X152618475Y-76791124D01*
X152619865Y-76792329D01*
X152627548Y-76794000D01*
X153007303Y-76794000D01*
X153013693Y-76793675D01*
X153107488Y-76784092D01*
X153120846Y-76781233D01*
X153275565Y-76729964D01*
X153288767Y-76723808D01*
X153427092Y-76638488D01*
X153438532Y-76629442D01*
X153553442Y-76514532D01*
X153562488Y-76503092D01*
X153647808Y-76364767D01*
X153653965Y-76351564D01*
X153660043Y-76333223D01*
X158672000Y-76333223D01*
X158672360Y-76339938D01*
X158677662Y-76389257D01*
X158681259Y-76404478D01*
X158726405Y-76525520D01*
X158734954Y-76541176D01*
X158811698Y-76643693D01*
X158824307Y-76656302D01*
X158926824Y-76733046D01*
X158942480Y-76741595D01*
X159063522Y-76786741D01*
X159078743Y-76790338D01*
X159128062Y-76795640D01*
X159134777Y-76796000D01*
X159757885Y-76796000D01*
X159773124Y-76791525D01*
X159774329Y-76790135D01*
X159776000Y-76782452D01*
X159776000Y-75710115D01*
X159771525Y-75694876D01*
X159770135Y-75693671D01*
X159762452Y-75692000D01*
X158690115Y-75692000D01*
X158674876Y-75696475D01*
X158673671Y-75697865D01*
X158672000Y-75705548D01*
X158672000Y-76333223D01*
X153660043Y-76333223D01*
X153705233Y-76196846D01*
X153708092Y-76183488D01*
X153717675Y-76089693D01*
X153718000Y-76083303D01*
X153718000Y-75583115D01*
X153713525Y-75567876D01*
X153712135Y-75566671D01*
X153704452Y-75565000D01*
X152632115Y-75565000D01*
X152616876Y-75569475D01*
X152615671Y-75570865D01*
X152614000Y-75578548D01*
X152614000Y-76775885D01*
X152106000Y-76775885D01*
X152106000Y-75165885D01*
X158672000Y-75165885D01*
X158676475Y-75181124D01*
X158677865Y-75182329D01*
X158685548Y-75184000D01*
X159757885Y-75184000D01*
X159773124Y-75179525D01*
X159774329Y-75178135D01*
X159776000Y-75170452D01*
X159776000Y-74098115D01*
X159771525Y-74082876D01*
X159770135Y-74081671D01*
X159762452Y-74080000D01*
X159134777Y-74080000D01*
X159128062Y-74080360D01*
X159078743Y-74085662D01*
X159063522Y-74089259D01*
X158942480Y-74134405D01*
X158926824Y-74142954D01*
X158824307Y-74219698D01*
X158811698Y-74232307D01*
X158734954Y-74334824D01*
X158726405Y-74350480D01*
X158681259Y-74471522D01*
X158677662Y-74486743D01*
X158672360Y-74536062D01*
X158672000Y-74542777D01*
X158672000Y-75165885D01*
X152106000Y-75165885D01*
X152106000Y-75038885D01*
X152614000Y-75038885D01*
X152618475Y-75054124D01*
X152619865Y-75055329D01*
X152627548Y-75057000D01*
X153699885Y-75057000D01*
X153715124Y-75052525D01*
X153716329Y-75051135D01*
X153718000Y-75043452D01*
X153718000Y-74538698D01*
X153717675Y-74532307D01*
X153708092Y-74438512D01*
X153705233Y-74425154D01*
X153653964Y-74270435D01*
X153647808Y-74257233D01*
X153562488Y-74118908D01*
X153553442Y-74107468D01*
X153438532Y-73992558D01*
X153427092Y-73983512D01*
X153288767Y-73898192D01*
X153275565Y-73892036D01*
X153120846Y-73840767D01*
X153107488Y-73837908D01*
X153013693Y-73828325D01*
X153007302Y-73828000D01*
X152632115Y-73828000D01*
X152616876Y-73832475D01*
X152615671Y-73833865D01*
X152614000Y-73841548D01*
X152614000Y-75038885D01*
X152106000Y-75038885D01*
X152106000Y-73846115D01*
X152101525Y-73830876D01*
X152100135Y-73829671D01*
X152092452Y-73828000D01*
X151712698Y-73828000D01*
X151706307Y-73828325D01*
X151612512Y-73837908D01*
X151599154Y-73840767D01*
X151444435Y-73892036D01*
X151431233Y-73898192D01*
X151292908Y-73983512D01*
X151281468Y-73992558D01*
X151166558Y-74107468D01*
X151157512Y-74118908D01*
X151071300Y-74258680D01*
X151018514Y-74306158D01*
X150948439Y-74317561D01*
X150883324Y-74289269D01*
X150873092Y-74279717D01*
X150764475Y-74166387D01*
X150764471Y-74166383D01*
X150760772Y-74162524D01*
X150574847Y-74025015D01*
X150570072Y-74022608D01*
X150570068Y-74022605D01*
X150373135Y-73923314D01*
X150368357Y-73920905D01*
X150238783Y-73881223D01*
X150152364Y-73854757D01*
X150152361Y-73854756D01*
X150147243Y-73853189D01*
X150141930Y-73852509D01*
X150141927Y-73852508D01*
X149985484Y-73832475D01*
X149917865Y-73823816D01*
X149912520Y-73824043D01*
X149912518Y-73824043D01*
X149853442Y-73826553D01*
X149686822Y-73833631D01*
X149460762Y-73882351D01*
X149246187Y-73968574D01*
X149049270Y-74089821D01*
X148875676Y-74242602D01*
X148730400Y-74422524D01*
X148727790Y-74427196D01*
X148718553Y-74443731D01*
X148667868Y-74493446D01*
X148598352Y-74507867D01*
X148532074Y-74482416D01*
X148504161Y-74452838D01*
X148423781Y-74333912D01*
X148423778Y-74333908D01*
X148420783Y-74329477D01*
X148417080Y-74325613D01*
X148264475Y-74166387D01*
X148264471Y-74166383D01*
X148260772Y-74162524D01*
X148074847Y-74025015D01*
X148070072Y-74022608D01*
X148070068Y-74022605D01*
X147873135Y-73923314D01*
X147868357Y-73920905D01*
X147738783Y-73881223D01*
X147652364Y-73854757D01*
X147652361Y-73854756D01*
X147647243Y-73853189D01*
X147641930Y-73852509D01*
X147641927Y-73852508D01*
X147485484Y-73832475D01*
X147417865Y-73823816D01*
X147412520Y-73824043D01*
X147412518Y-73824043D01*
X147353442Y-73826553D01*
X147186822Y-73833631D01*
X146960762Y-73882351D01*
X146746187Y-73968574D01*
X146549270Y-74089821D01*
X146375676Y-74242602D01*
X146230400Y-74422524D01*
X146227790Y-74427196D01*
X146213466Y-74452838D01*
X146117620Y-74624409D01*
X146115840Y-74629446D01*
X146115839Y-74629449D01*
X146042363Y-74837405D01*
X146042362Y-74837411D01*
X146040581Y-74842450D01*
X146039677Y-74847724D01*
X146004080Y-75055329D01*
X146001500Y-75070375D01*
X146001500Y-75493713D01*
X144145000Y-75493713D01*
X144145000Y-66801000D01*
X144165002Y-66732879D01*
X144218658Y-66686386D01*
X144271000Y-66675000D01*
X168784000Y-66675000D01*
X168852121Y-66695002D01*
G37*
%TD.AperFunction*%
%TD*%
M02*
