%TF.GenerationSoftware,KiCad,Pcbnew,(6.99.0-2504-g6a9c6e8599)*%
%TF.CreationDate,2023-09-14T00:09:01-07:00*%
%TF.ProjectId,BuoyPower,42756f79-506f-4776-9572-2e6b69636164,rev?*%
%TF.SameCoordinates,Original*%
%TF.FileFunction,Copper,L1,Top*%
%TF.FilePolarity,Positive*%
%FSLAX46Y46*%
G04 Gerber Fmt 4.6, Leading zero omitted, Abs format (unit mm)*
G04 Created by KiCad (PCBNEW (6.99.0-2504-g6a9c6e8599)) date 2023-09-14 00:09:01*
%MOMM*%
%LPD*%
G01*
G04 APERTURE LIST*
G04 Aperture macros list*
%AMRoundRect*
0 Rectangle with rounded corners*
0 $1 Rounding radius*
0 $2 $3 $4 $5 $6 $7 $8 $9 X,Y pos of 4 corners*
0 Add a 4 corners polygon primitive as box body*
4,1,4,$2,$3,$4,$5,$6,$7,$8,$9,$2,$3,0*
0 Add four circle primitives for the rounded corners*
1,1,$1+$1,$2,$3*
1,1,$1+$1,$4,$5*
1,1,$1+$1,$6,$7*
1,1,$1+$1,$8,$9*
0 Add four rect primitives between the rounded corners*
20,1,$1+$1,$2,$3,$4,$5,0*
20,1,$1+$1,$4,$5,$6,$7,0*
20,1,$1+$1,$6,$7,$8,$9,0*
20,1,$1+$1,$8,$9,$2,$3,0*%
G04 Aperture macros list end*
%TA.AperFunction,ComponentPad*%
%ADD10C,0.800000*%
%TD*%
%TA.AperFunction,ComponentPad*%
%ADD11C,6.400000*%
%TD*%
%TA.AperFunction,ComponentPad*%
%ADD12R,1.700000X1.700000*%
%TD*%
%TA.AperFunction,ComponentPad*%
%ADD13O,1.700000X1.700000*%
%TD*%
%TA.AperFunction,SMDPad,CuDef*%
%ADD14RoundRect,0.150000X-0.875000X-0.150000X0.875000X-0.150000X0.875000X0.150000X-0.875000X0.150000X0*%
%TD*%
%TA.AperFunction,ComponentPad*%
%ADD15C,1.308000*%
%TD*%
%TA.AperFunction,ComponentPad*%
%ADD16C,2.250000*%
%TD*%
%TA.AperFunction,SMDPad,CuDef*%
%ADD17RoundRect,0.249999X-0.450001X-1.425001X0.450001X-1.425001X0.450001X1.425001X-0.450001X1.425001X0*%
%TD*%
%TA.AperFunction,SMDPad,CuDef*%
%ADD18RoundRect,0.250000X0.475000X-0.337500X0.475000X0.337500X-0.475000X0.337500X-0.475000X-0.337500X0*%
%TD*%
%TA.AperFunction,SMDPad,CuDef*%
%ADD19RoundRect,0.250000X-0.450000X0.350000X-0.450000X-0.350000X0.450000X-0.350000X0.450000X0.350000X0*%
%TD*%
%TA.AperFunction,SMDPad,CuDef*%
%ADD20RoundRect,0.250000X0.450000X-0.350000X0.450000X0.350000X-0.450000X0.350000X-0.450000X-0.350000X0*%
%TD*%
%TA.AperFunction,SMDPad,CuDef*%
%ADD21R,1.000000X1.000000*%
%TD*%
%TA.AperFunction,SMDPad,CuDef*%
%ADD22R,0.650000X1.560000*%
%TD*%
%TA.AperFunction,ComponentPad*%
%ADD23RoundRect,0.250000X0.600000X0.725000X-0.600000X0.725000X-0.600000X-0.725000X0.600000X-0.725000X0*%
%TD*%
%TA.AperFunction,ComponentPad*%
%ADD24O,1.700000X1.950000*%
%TD*%
%TA.AperFunction,ComponentPad*%
%ADD25RoundRect,0.250000X-0.750000X0.600000X-0.750000X-0.600000X0.750000X-0.600000X0.750000X0.600000X0*%
%TD*%
%TA.AperFunction,ComponentPad*%
%ADD26O,2.000000X1.700000*%
%TD*%
%TA.AperFunction,SMDPad,CuDef*%
%ADD27R,1.000000X1.500000*%
%TD*%
%TA.AperFunction,SMDPad,CuDef*%
%ADD28RoundRect,0.150000X0.150000X0.625000X-0.150000X0.625000X-0.150000X-0.625000X0.150000X-0.625000X0*%
%TD*%
%TA.AperFunction,SMDPad,CuDef*%
%ADD29RoundRect,0.250000X0.350000X0.650000X-0.350000X0.650000X-0.350000X-0.650000X0.350000X-0.650000X0*%
%TD*%
%TA.AperFunction,SMDPad,CuDef*%
%ADD30RoundRect,0.250000X0.337500X0.475000X-0.337500X0.475000X-0.337500X-0.475000X0.337500X-0.475000X0*%
%TD*%
%TA.AperFunction,SMDPad,CuDef*%
%ADD31RoundRect,0.150000X0.150000X-0.825000X0.150000X0.825000X-0.150000X0.825000X-0.150000X-0.825000X0*%
%TD*%
%TA.AperFunction,ComponentPad*%
%ADD32C,1.524000*%
%TD*%
%TA.AperFunction,SMDPad,CuDef*%
%ADD33R,1.500000X1.000000*%
%TD*%
%TA.AperFunction,SMDPad,CuDef*%
%ADD34RoundRect,0.250000X-0.475000X0.337500X-0.475000X-0.337500X0.475000X-0.337500X0.475000X0.337500X0*%
%TD*%
%TA.AperFunction,SMDPad,CuDef*%
%ADD35R,1.560000X0.650000*%
%TD*%
%TA.AperFunction,ViaPad*%
%ADD36C,0.800000*%
%TD*%
%TA.AperFunction,Conductor*%
%ADD37C,0.406400*%
%TD*%
%TA.AperFunction,Conductor*%
%ADD38C,1.500000*%
%TD*%
%TA.AperFunction,Conductor*%
%ADD39C,0.812800*%
%TD*%
%TA.AperFunction,Conductor*%
%ADD40C,0.250000*%
%TD*%
G04 APERTURE END LIST*
%TO.C,JP42*%
G36*
X151100600Y-114854000D02*
G01*
X150600600Y-114854000D01*
X150600600Y-114254000D01*
X151100600Y-114254000D01*
X151100600Y-114854000D01*
G37*
%TO.C,JP1*%
G36*
X136952000Y-107946000D02*
G01*
X136352000Y-107946000D01*
X136352000Y-107446000D01*
X136952000Y-107446000D01*
X136952000Y-107946000D01*
G37*
%TD*%
D10*
%TO.P,H3,1*%
%TO.N,N/C*%
X128468000Y-129574000D03*
X126770944Y-125476944D03*
X126770944Y-128871056D03*
X126068000Y-127174000D03*
D11*
X128468000Y-127174000D03*
D10*
X128468000Y-124774000D03*
X130165056Y-128871056D03*
X130165056Y-125476944D03*
X130868000Y-127174000D03*
%TD*%
%TO.P,H2,1*%
%TO.N,N/C*%
X128468000Y-71574000D03*
X126770944Y-67476944D03*
X126770944Y-70871056D03*
X126068000Y-69174000D03*
D11*
X128468000Y-69174000D03*
D10*
X128468000Y-66774000D03*
X130165056Y-70871056D03*
X130165056Y-67476944D03*
X130868000Y-69174000D03*
%TD*%
D12*
%TO.P,J9,1,Pin_1*%
%TO.N,GND*%
X164332999Y-128523999D03*
D13*
%TO.P,J9,2,Pin_2*%
%TO.N,Net-(J9-Pin_2)*%
X166872999Y-128523999D03*
%TD*%
D14*
%TO.P,U8,1,32KHZ*%
%TO.N,unconnected-(U8-32KHZ)*%
X156005000Y-109855000D03*
%TO.P,U8,2,VCC*%
%TO.N,VBUS*%
X156005000Y-111125000D03*
%TO.P,U8,3,~{INT}/SQW*%
%TO.N,Net-(JP42-A)*%
X156005000Y-112395000D03*
%TO.P,U8,4,~{RST}*%
%TO.N,unconnected-(U8-~{RST})*%
X156005000Y-113665000D03*
%TO.P,U8,5,GND*%
%TO.N,GND*%
X156005000Y-114935000D03*
%TO.P,U8,6,GND*%
X156005000Y-116205000D03*
%TO.P,U8,7,GND*%
X156005000Y-117475000D03*
%TO.P,U8,8,GND*%
X156005000Y-118745000D03*
%TO.P,U8,9,GND*%
X165305000Y-118745000D03*
%TO.P,U8,10,GND*%
X165305000Y-117475000D03*
%TO.P,U8,11,GND*%
X165305000Y-116205000D03*
%TO.P,U8,12,GND*%
X165305000Y-114935000D03*
%TO.P,U8,13,GND*%
X165305000Y-113665000D03*
%TO.P,U8,14,VBAT*%
%TO.N,Net-(J9-Pin_2)*%
X165305000Y-112395000D03*
%TO.P,U8,15,SDA*%
%TO.N,/SDA*%
X165305000Y-111125000D03*
%TO.P,U8,16,SCL*%
%TO.N,/SCL*%
X165305000Y-109855000D03*
%TD*%
D15*
%TO.P,S1,1*%
%TO.N,VCC*%
X132588000Y-112554000D03*
%TO.P,S1,2*%
%TO.N,/REG_EN*%
X132588000Y-114554000D03*
%TO.P,S1,3*%
%TO.N,Net-(JP2-B)*%
X132588000Y-116554000D03*
D16*
%TO.P,S1,P$4*%
%TO.N,N/C*%
X132588000Y-109704000D03*
%TO.P,S1,P$5*%
X132588000Y-119404000D03*
%TD*%
D17*
%TO.P,R10,1*%
%TO.N,BATT_IN*%
X139825000Y-91821000D03*
%TO.P,R10,2*%
%TO.N,/PowerMonitor/VOUT*%
X145925000Y-91821000D03*
%TD*%
D18*
%TO.P,C2,1*%
%TO.N,Net-(JP2-B)*%
X141351000Y-115337500D03*
%TO.P,C2,2*%
%TO.N,GND*%
X141351000Y-113262500D03*
%TD*%
D19*
%TO.P,R15,1*%
%TO.N,VCC*%
X145161000Y-112157000D03*
%TO.P,R15,2*%
%TO.N,/PowerTimer/INT*%
X145161000Y-114157000D03*
%TD*%
D20*
%TO.P,R14,1*%
%TO.N,/SDA*%
X165862000Y-107045000D03*
%TO.P,R14,2*%
%TO.N,VBUS*%
X165862000Y-105045000D03*
%TD*%
D21*
%TO.P,D1,1,K*%
%TO.N,Net-(D1-K)*%
X134721599Y-104881999D03*
%TO.P,D1,2,A*%
%TO.N,Net-(J9-Pin_2)*%
X134721599Y-102381999D03*
%TD*%
D22*
%TO.P,U9,5,VCC*%
%TO.N,VCC*%
X146110999Y-118951999D03*
%TO.P,U9,4*%
%TO.N,/PowerTimer/NINT*%
X144210999Y-118951999D03*
%TO.P,U9,3,GND*%
%TO.N,GND*%
X144210999Y-116251999D03*
%TO.P,U9,2*%
%TO.N,/PowerTimer/INT*%
X145160999Y-116251999D03*
%TO.P,U9,1,NC*%
%TO.N,unconnected-(U9-NC)*%
X146110999Y-116251999D03*
%TD*%
D18*
%TO.P,C1,1*%
%TO.N,GND*%
X148971000Y-103272500D03*
%TO.P,C1,2*%
%TO.N,VBUS*%
X148971000Y-101197500D03*
%TD*%
D23*
%TO.P,J5,1,Pin_1*%
%TO.N,BATT_IN*%
X152360000Y-75311000D03*
D24*
%TO.P,J5,2,Pin_2*%
%TO.N,unconnected-(J5-Pin_2)*%
X149859999Y-75310999D03*
%TO.P,J5,3,Pin_3*%
%TO.N,GND*%
X147359999Y-75310999D03*
%TD*%
D25*
%TO.P,J4,1,Pin_1*%
%TO.N,GND*%
X134895000Y-87650000D03*
D26*
%TO.P,J4,2,Pin_2*%
%TO.N,BATT_IN*%
X134894999Y-90149999D03*
%TD*%
D27*
%TO.P,JP42,1,A*%
%TO.N,Net-(JP42-A)*%
X151500599Y-114553999D03*
%TO.P,JP42,2,B*%
%TO.N,/PowerTimer/INT*%
X150200599Y-114553999D03*
%TD*%
%TO.P,JP4,1,A*%
%TO.N,/PowerTimer/NINT*%
X148985999Y-122300999D03*
%TO.P,JP4,2,B*%
%TO.N,Net-(JP4-B)*%
X147685999Y-122300999D03*
%TD*%
D28*
%TO.P,J6,1,Pin_1*%
%TO.N,GND*%
X139676000Y-70580000D03*
%TO.P,J6,2,Pin_2*%
%TO.N,VBUS*%
X138676000Y-70580000D03*
%TO.P,J6,3,Pin_3*%
%TO.N,/SDA*%
X137676000Y-70580000D03*
%TO.P,J6,4,Pin_4*%
%TO.N,/SCL*%
X136676000Y-70580000D03*
D29*
%TO.P,J6,MP*%
%TO.N,N/C*%
X140976000Y-66705000D03*
X135376000Y-66705000D03*
%TD*%
D30*
%TO.P,C15,1*%
%TO.N,GND*%
X144039500Y-125730000D03*
%TO.P,C15,2*%
%TO.N,VCC*%
X141964500Y-125730000D03*
%TD*%
D31*
%TO.P,U3,1,A1*%
%TO.N,GND*%
X142240000Y-106361000D03*
%TO.P,U3,2,A0*%
X143510000Y-106361000D03*
%TO.P,U3,3,SDA*%
%TO.N,/SDA*%
X144780000Y-106361000D03*
%TO.P,U3,4,SCL*%
%TO.N,/SCL*%
X146050000Y-106361000D03*
%TO.P,U3,5,VS*%
%TO.N,VBUS*%
X146050000Y-101411000D03*
%TO.P,U3,6,GND*%
%TO.N,GND*%
X144780000Y-101411000D03*
%TO.P,U3,7,IN-*%
%TO.N,Net-(U3-IN-)*%
X143510000Y-101411000D03*
%TO.P,U3,8,IN+*%
%TO.N,Net-(U3-IN+)*%
X142240000Y-101411000D03*
%TD*%
D27*
%TO.P,JP3,1,A*%
%TO.N,/HOLD*%
X148985999Y-124840999D03*
%TO.P,JP3,2,B*%
%TO.N,Net-(JP3-B)*%
X147685999Y-124840999D03*
%TD*%
D12*
%TO.P,J2,1,Pin_1*%
%TO.N,/HOLD*%
X127507999Y-106039999D03*
D13*
%TO.P,J2,2,Pin_2*%
%TO.N,/SCL*%
X127507999Y-103499999D03*
%TO.P,J2,3,Pin_3*%
%TO.N,/SDA*%
X127507999Y-100959999D03*
%TO.P,J2,4,Pin_4*%
%TO.N,GND*%
X127507999Y-98419999D03*
%TO.P,J2,5,Pin_5*%
%TO.N,VBUS*%
X127507999Y-95879999D03*
%TD*%
D32*
%TO.P,J1,1,Pin_1*%
%TO.N,+5V*%
X169418000Y-84074000D03*
%TO.P,J1,2,Pin_2*%
%TO.N,GND*%
X169418000Y-86614000D03*
%TO.P,J1,3,Pin_3*%
X169418000Y-89154000D03*
%TO.P,J1,4,Pin_4*%
%TO.N,/PowerMonitor/VOUT*%
X169418000Y-91694000D03*
%TO.P,J1,5,Pin_5*%
%TO.N,/REG_EN*%
X169418000Y-94234000D03*
%TO.P,J1,6*%
%TO.N,N/C*%
X166878000Y-94234000D03*
%TD*%
D33*
%TO.P,JP2,1,A*%
%TO.N,Net-(JP2-A)*%
X138175999Y-117235999D03*
%TO.P,JP2,2,B*%
%TO.N,Net-(JP2-B)*%
X138175999Y-115935999D03*
%TD*%
D19*
%TO.P,R11,1*%
%TO.N,BATT_IN*%
X139827000Y-94885000D03*
%TO.P,R11,2*%
%TO.N,Net-(U3-IN+)*%
X139827000Y-96885000D03*
%TD*%
D34*
%TO.P,C13,1*%
%TO.N,GND*%
X148209000Y-116564500D03*
%TO.P,C13,2*%
%TO.N,VCC*%
X148209000Y-118639500D03*
%TD*%
D20*
%TO.P,R13,1*%
%TO.N,/SCL*%
X162941000Y-107045000D03*
%TO.P,R13,2*%
%TO.N,VBUS*%
X162941000Y-105045000D03*
%TD*%
D25*
%TO.P,J7,1,Pin_1*%
%TO.N,GND*%
X134895000Y-77490000D03*
D26*
%TO.P,J7,2,Pin_2*%
%TO.N,BATT_IN*%
X134894999Y-79989999D03*
%TD*%
D21*
%TO.P,D2,1,K*%
%TO.N,Net-(D1-K)*%
X138353799Y-104881999D03*
%TO.P,D2,2,A*%
%TO.N,VBUS*%
X138353799Y-102381999D03*
%TD*%
D33*
%TO.P,JP1,1,A*%
%TO.N,Net-(D1-K)*%
X136651999Y-107045999D03*
%TO.P,JP1,2,B*%
%TO.N,VCC*%
X136651999Y-108345999D03*
%TD*%
D20*
%TO.P,R1,1*%
%TO.N,Net-(JP2-A)*%
X141351000Y-119364000D03*
%TO.P,R1,2*%
%TO.N,Net-(JP2-B)*%
X141351000Y-117364000D03*
%TD*%
D19*
%TO.P,R12,1*%
%TO.N,/PowerMonitor/VOUT*%
X145923000Y-94885000D03*
%TO.P,R12,2*%
%TO.N,Net-(U3-IN-)*%
X145923000Y-96885000D03*
%TD*%
D30*
%TO.P,C3,1*%
%TO.N,Net-(U3-IN-)*%
X143912500Y-98171000D03*
%TO.P,C3,2*%
%TO.N,Net-(U3-IN+)*%
X141837500Y-98171000D03*
%TD*%
D23*
%TO.P,J8,1,Pin_1*%
%TO.N,BATT_IN*%
X167346000Y-75311000D03*
D24*
%TO.P,J8,2,Pin_2*%
%TO.N,unconnected-(J8-Pin_2)*%
X164845999Y-75310999D03*
%TO.P,J8,3,Pin_3*%
%TO.N,unconnected-(J8-Pin_3)*%
X162345999Y-75310999D03*
%TO.P,J8,4,Pin_4*%
%TO.N,GND*%
X159845999Y-75310999D03*
%TD*%
D30*
%TO.P,C12,1*%
%TO.N,VBUS*%
X158390500Y-107315000D03*
%TO.P,C12,2*%
%TO.N,GND*%
X156315500Y-107315000D03*
%TD*%
D35*
%TO.P,U11,5,VCC*%
%TO.N,VCC*%
X141905999Y-123631999D03*
%TO.P,U11,4*%
%TO.N,Net-(JP2-A)*%
X141905999Y-121731999D03*
%TO.P,U11,3,GND*%
%TO.N,GND*%
X144605999Y-121731999D03*
%TO.P,U11,2*%
%TO.N,Net-(JP4-B)*%
X144605999Y-122681999D03*
%TO.P,U11,1*%
%TO.N,Net-(JP3-B)*%
X144605999Y-123631999D03*
%TD*%
D30*
%TO.P,C11,1*%
%TO.N,VBUS*%
X158390500Y-104902000D03*
%TO.P,C11,2*%
%TO.N,GND*%
X156315500Y-104902000D03*
%TD*%
D12*
%TO.P,J10,1,Pin_1*%
%TO.N,VBUS*%
X176197999Y-74043999D03*
D13*
%TO.P,J10,2,Pin_2*%
%TO.N,+5V*%
X178737999Y-74043999D03*
%TO.P,J10,3,Pin_3*%
%TO.N,/SDA*%
X176197999Y-76583999D03*
%TO.P,J10,4,Pin_4*%
%TO.N,+5V*%
X178737999Y-76583999D03*
%TO.P,J10,5,Pin_5*%
%TO.N,/SCL*%
X176197999Y-79123999D03*
%TO.P,J10,6,Pin_6*%
%TO.N,GND*%
X178737999Y-79123999D03*
%TO.P,J10,7,Pin_7*%
%TO.N,unconnected-(J10-Pin_7)*%
X176197999Y-81663999D03*
%TO.P,J10,8,Pin_8*%
%TO.N,unconnected-(J10-Pin_8)*%
X178737999Y-81663999D03*
%TO.P,J10,9,Pin_9*%
%TO.N,unconnected-(J10-Pin_9)*%
X176197999Y-84203999D03*
%TO.P,J10,10,Pin_10*%
%TO.N,unconnected-(J10-Pin_10)*%
X178737999Y-84203999D03*
%TO.P,J10,11,Pin_11*%
%TO.N,/HOLD*%
X176197999Y-86743999D03*
%TO.P,J10,12,Pin_12*%
%TO.N,unconnected-(J10-Pin_12)*%
X178737999Y-86743999D03*
%TO.P,J10,13,Pin_13*%
%TO.N,unconnected-(J10-Pin_13)*%
X176197999Y-89283999D03*
%TO.P,J10,14,Pin_14*%
%TO.N,unconnected-(J10-Pin_14)*%
X178737999Y-89283999D03*
%TO.P,J10,15,Pin_15*%
%TO.N,unconnected-(J10-Pin_15)*%
X176197999Y-91823999D03*
%TO.P,J10,16,Pin_16*%
%TO.N,unconnected-(J10-Pin_16)*%
X178737999Y-91823999D03*
%TO.P,J10,17,Pin_17*%
%TO.N,unconnected-(J10-Pin_17)*%
X176197999Y-94363999D03*
%TO.P,J10,18,Pin_18*%
%TO.N,unconnected-(J10-Pin_18)*%
X178737999Y-94363999D03*
%TO.P,J10,19,Pin_19*%
%TO.N,unconnected-(J10-Pin_19)*%
X176197999Y-96903999D03*
%TO.P,J10,20,Pin_20*%
%TO.N,unconnected-(J10-Pin_20)*%
X178737999Y-96903999D03*
%TO.P,J10,21,Pin_21*%
%TO.N,unconnected-(J10-Pin_21)*%
X176197999Y-99443999D03*
%TO.P,J10,22,Pin_22*%
%TO.N,unconnected-(J10-Pin_22)*%
X178737999Y-99443999D03*
%TO.P,J10,23,Pin_23*%
%TO.N,unconnected-(J10-Pin_23)*%
X176197999Y-101983999D03*
%TO.P,J10,24,Pin_24*%
%TO.N,unconnected-(J10-Pin_24)*%
X178737999Y-101983999D03*
%TO.P,J10,25,Pin_25*%
%TO.N,unconnected-(J10-Pin_25)*%
X176197999Y-104523999D03*
%TO.P,J10,26,Pin_26*%
%TO.N,unconnected-(J10-Pin_26)*%
X178737999Y-104523999D03*
%TO.P,J10,27,Pin_27*%
%TO.N,unconnected-(J10-Pin_27)*%
X176197999Y-107063999D03*
%TO.P,J10,28,Pin_28*%
%TO.N,unconnected-(J10-Pin_28)*%
X178737999Y-107063999D03*
%TO.P,J10,29,Pin_29*%
%TO.N,unconnected-(J10-Pin_29)*%
X176197999Y-109603999D03*
%TO.P,J10,30,Pin_30*%
%TO.N,unconnected-(J10-Pin_30)*%
X178737999Y-109603999D03*
%TO.P,J10,31,Pin_31*%
%TO.N,unconnected-(J10-Pin_31)*%
X176197999Y-112143999D03*
%TO.P,J10,32,Pin_32*%
%TO.N,unconnected-(J10-Pin_32)*%
X178737999Y-112143999D03*
%TO.P,J10,33,Pin_33*%
%TO.N,unconnected-(J10-Pin_33)*%
X176197999Y-114683999D03*
%TO.P,J10,34,Pin_34*%
%TO.N,unconnected-(J10-Pin_34)*%
X178737999Y-114683999D03*
%TO.P,J10,35,Pin_35*%
%TO.N,unconnected-(J10-Pin_35)*%
X176197999Y-117223999D03*
%TO.P,J10,36,Pin_36*%
%TO.N,unconnected-(J10-Pin_36)*%
X178737999Y-117223999D03*
%TO.P,J10,37,Pin_37*%
%TO.N,unconnected-(J10-Pin_37)*%
X176197999Y-119763999D03*
%TO.P,J10,38,Pin_38*%
%TO.N,unconnected-(J10-Pin_38)*%
X178737999Y-119763999D03*
%TO.P,J10,39,Pin_39*%
%TO.N,GND*%
X176197999Y-122303999D03*
%TO.P,J10,40,Pin_40*%
%TO.N,unconnected-(J10-Pin_40)*%
X178737999Y-122303999D03*
%TD*%
D36*
%TO.N,GND*%
X146050000Y-121539000D03*
X148336000Y-78359000D03*
X167259000Y-116205000D03*
X165735000Y-87884000D03*
X158750000Y-78359000D03*
X145542000Y-125730000D03*
X154686000Y-104902000D03*
X166751000Y-88900000D03*
X153924000Y-118745000D03*
X160782000Y-80391000D03*
X168300400Y-118745000D03*
X140081000Y-84582000D03*
X160782000Y-78359000D03*
X167259000Y-113665000D03*
X143129000Y-108839000D03*
X140081000Y-76474000D03*
X153924000Y-116205000D03*
X164719000Y-88900000D03*
X148971000Y-105283000D03*
X138049000Y-76474000D03*
X143002000Y-116205000D03*
X168275000Y-117500400D03*
X147574000Y-115189000D03*
X140081000Y-78506000D03*
X158750000Y-80391000D03*
X153924000Y-114935000D03*
X139086500Y-113262500D03*
X148336000Y-80391000D03*
X166751000Y-86868000D03*
X138049000Y-84582000D03*
X139065000Y-85598000D03*
X140081000Y-86614000D03*
X164719000Y-86868000D03*
X146304000Y-78359000D03*
X147320000Y-79375000D03*
X138049000Y-86614000D03*
X139954000Y-74422000D03*
X154686000Y-107442000D03*
X167259000Y-114935000D03*
X139065000Y-77490000D03*
X146304000Y-80391000D03*
X141478000Y-108839000D03*
X138049000Y-78506000D03*
X153924000Y-117475000D03*
X159766000Y-79375000D03*
%TO.N,VBUS*%
X130810000Y-92456000D03*
X137414000Y-99060000D03*
X145288000Y-99060000D03*
X135636000Y-94996000D03*
%TO.N,/REG_EN*%
X153670000Y-104140000D03*
X137668000Y-112776000D03*
X158496000Y-99314000D03*
X140208000Y-110236000D03*
%TO.N,/SDA*%
X132334000Y-96012000D03*
X171450000Y-81534000D03*
X167640000Y-103886000D03*
X155448000Y-100330000D03*
X152146000Y-103632000D03*
X164084000Y-100330000D03*
X132334000Y-98552000D03*
X137414000Y-96012000D03*
X149098000Y-96012000D03*
%TO.N,/SCL*%
X160528000Y-101346000D03*
X160528000Y-105410000D03*
X150876000Y-102616000D03*
X148844000Y-97282000D03*
X137922000Y-97282000D03*
X168148000Y-101346000D03*
X152908000Y-100584000D03*
%TO.N,/HOLD*%
X173482000Y-102362000D03*
%TO.N,Net-(J9-Pin_2)*%
X162306000Y-116586000D03*
X134620000Y-108712000D03*
%TO.N,VCC*%
X138684000Y-125476000D03*
X141732000Y-129032000D03*
%TD*%
D37*
%TO.N,/HOLD*%
X136652000Y-127508000D02*
X139192000Y-130048000D01*
X139192000Y-130048000D02*
X149860000Y-130048000D01*
X149860000Y-130048000D02*
X157480000Y-122428000D01*
X157480000Y-122428000D02*
X167132000Y-122428000D01*
X170180000Y-105664000D02*
X173482000Y-102362000D01*
X167132000Y-122428000D02*
X170180000Y-119380000D01*
X170180000Y-119380000D02*
X170180000Y-105664000D01*
%TO.N,Net-(JP2-A)*%
X141351000Y-119364000D02*
X139938000Y-119364000D01*
X139938000Y-119364000D02*
X138176000Y-117602000D01*
X138176000Y-117602000D02*
X138176000Y-117236000D01*
D38*
%TO.N,GND*%
X134895000Y-87650000D02*
X137013000Y-87650000D01*
X169418000Y-86614000D02*
X167005000Y-86614000D01*
D37*
X143510000Y-108458000D02*
X143129000Y-108839000D01*
X168249600Y-117475000D02*
X168275000Y-117500400D01*
X145161000Y-103378000D02*
X148865500Y-103378000D01*
X156315500Y-104902000D02*
X154686000Y-104902000D01*
X156315500Y-104902000D02*
X156315500Y-107315000D01*
X144780000Y-102997000D02*
X145161000Y-103378000D01*
D38*
X159846000Y-75311000D02*
X159846000Y-79295000D01*
D37*
X165305000Y-117475000D02*
X167259000Y-117475000D01*
X156005000Y-117475000D02*
X153924000Y-117475000D01*
D38*
X137013000Y-87650000D02*
X139065000Y-85598000D01*
D37*
X165305000Y-114935000D02*
X167259000Y-114935000D01*
X144780000Y-101411000D02*
X144780000Y-102997000D01*
D38*
X159846000Y-79295000D02*
X159766000Y-79375000D01*
D37*
X144039500Y-125730000D02*
X145542000Y-125730000D01*
X143049000Y-116252000D02*
X143002000Y-116205000D01*
X143510000Y-106361000D02*
X143510000Y-108458000D01*
X139700000Y-74168000D02*
X139954000Y-74422000D01*
X144211000Y-116252000D02*
X143049000Y-116252000D01*
X148971000Y-103272500D02*
X148971000Y-105283000D01*
X156005000Y-116205000D02*
X153924000Y-116205000D01*
X148865500Y-103378000D02*
X148971000Y-103272500D01*
X165305000Y-118745000D02*
X167259000Y-118745000D01*
X142240000Y-106361000D02*
X142240000Y-108077000D01*
D38*
X167005000Y-89154000D02*
X166751000Y-88900000D01*
D37*
X165305000Y-116205000D02*
X167259000Y-116205000D01*
X148209000Y-115824000D02*
X147574000Y-115189000D01*
X156005000Y-118745000D02*
X153924000Y-118745000D01*
X145857000Y-121732000D02*
X146050000Y-121539000D01*
D38*
X167005000Y-86614000D02*
X166751000Y-86868000D01*
D37*
X167259000Y-118745000D02*
X168300400Y-118745000D01*
D38*
X147360000Y-79335000D02*
X147320000Y-79375000D01*
D37*
X167259000Y-117475000D02*
X168249600Y-117475000D01*
X142240000Y-108077000D02*
X141478000Y-108839000D01*
D38*
X169418000Y-89154000D02*
X167005000Y-89154000D01*
X134895000Y-77490000D02*
X139065000Y-77490000D01*
D37*
X156005000Y-114935000D02*
X153924000Y-114935000D01*
X154813000Y-107315000D02*
X154686000Y-107442000D01*
D38*
X147360000Y-75311000D02*
X147360000Y-79335000D01*
D37*
X148209000Y-116564500D02*
X148209000Y-115824000D01*
X141351000Y-113262500D02*
X139086500Y-113262500D01*
X144606000Y-121732000D02*
X145857000Y-121732000D01*
X139700000Y-71469000D02*
X139700000Y-74168000D01*
X165305000Y-113665000D02*
X167259000Y-113665000D01*
X156315500Y-107315000D02*
X154813000Y-107315000D01*
D38*
%TO.N,+5V*%
X173355000Y-69850000D02*
X170815000Y-72390000D01*
X170815000Y-77470000D02*
X169418000Y-78867000D01*
X177800000Y-69850000D02*
X173355000Y-69850000D01*
X178738000Y-76584000D02*
X178738000Y-74044000D01*
X178738000Y-70788000D02*
X177800000Y-69850000D01*
X178738000Y-74044000D02*
X178738000Y-70788000D01*
X169418000Y-78867000D02*
X169418000Y-84074000D01*
X170815000Y-72390000D02*
X170815000Y-77470000D01*
D37*
%TO.N,VBUS*%
X147955000Y-99060000D02*
X145288000Y-99060000D01*
X158390500Y-107315000D02*
X158390500Y-110341500D01*
D39*
X151489500Y-101197500D02*
X148971000Y-101197500D01*
X163068000Y-102362000D02*
X158242000Y-102362000D01*
X174876000Y-74044000D02*
X173482000Y-75438000D01*
D37*
X148336000Y-99441000D02*
X147955000Y-99060000D01*
D39*
X172466000Y-80010000D02*
X172466000Y-99455851D01*
D37*
X133350000Y-94996000D02*
X130810000Y-92456000D01*
X135636000Y-94996000D02*
X133350000Y-94996000D01*
X162941000Y-105045000D02*
X162941000Y-102489000D01*
X138700000Y-71469000D02*
X138700000Y-73644000D01*
X137668000Y-74676000D02*
X134874000Y-74676000D01*
X162941000Y-102489000D02*
X163068000Y-102362000D01*
D39*
X173482000Y-75438000D02*
X173482000Y-78994000D01*
D37*
X128524000Y-81026000D02*
X128524000Y-88392000D01*
X158390500Y-104902000D02*
X158390500Y-102510500D01*
D39*
X152654000Y-102362000D02*
X151489500Y-101197500D01*
D37*
X158390500Y-102510500D02*
X158242000Y-102362000D01*
X138700000Y-73644000D02*
X137668000Y-74676000D01*
X138353800Y-102458200D02*
X138353800Y-99999800D01*
X128524000Y-90170000D02*
X130810000Y-92456000D01*
D39*
X165862000Y-102362000D02*
X163068000Y-102362000D01*
X173482000Y-78994000D02*
X172466000Y-80010000D01*
X169559851Y-102362000D02*
X165862000Y-102362000D01*
X176198000Y-74044000D02*
X174876000Y-74044000D01*
D37*
X134874000Y-74676000D02*
X128524000Y-81026000D01*
X165862000Y-105045000D02*
X165862000Y-102362000D01*
X148971000Y-101197500D02*
X148971000Y-100076000D01*
D39*
X172466000Y-99455851D02*
X169559851Y-102362000D01*
D37*
X148971000Y-101197500D02*
X146263500Y-101197500D01*
X157607000Y-111125000D02*
X156005000Y-111125000D01*
X158390500Y-110341500D02*
X157607000Y-111125000D01*
X128524000Y-88392000D02*
X128524000Y-90170000D01*
X158390500Y-104902000D02*
X158390500Y-107315000D01*
X146263500Y-101197500D02*
X146050000Y-101411000D01*
X148971000Y-100076000D02*
X148336000Y-99441000D01*
X138353800Y-99999800D02*
X137414000Y-99060000D01*
D39*
X158242000Y-102362000D02*
X152654000Y-102362000D01*
D37*
%TO.N,Net-(U3-IN-)*%
X143912500Y-98171000D02*
X144637000Y-98171000D01*
X143510000Y-98573500D02*
X143912500Y-98171000D01*
X143510000Y-101411000D02*
X143510000Y-98573500D01*
X144637000Y-98171000D02*
X145923000Y-96885000D01*
%TO.N,Net-(U3-IN+)*%
X141113000Y-98171000D02*
X139827000Y-96885000D01*
X141837500Y-98171000D02*
X141113000Y-98171000D01*
X142240000Y-101411000D02*
X142240000Y-98573500D01*
X142240000Y-98573500D02*
X141837500Y-98171000D01*
%TO.N,Net-(JP42-A)*%
X156005000Y-112395000D02*
X154355800Y-112395000D01*
X152196800Y-114554000D02*
X151500600Y-114554000D01*
X154355800Y-112395000D02*
X152196800Y-114554000D01*
%TO.N,/PowerTimer/INT*%
X145161000Y-114157000D02*
X145161000Y-116252000D01*
X148971000Y-114554000D02*
X148564600Y-114147600D01*
X145170400Y-114147600D02*
X145161000Y-114157000D01*
X150200600Y-114554000D02*
X148971000Y-114554000D01*
X148564600Y-114147600D02*
X145170400Y-114147600D01*
D38*
%TO.N,/PowerMonitor/VOUT*%
X146052000Y-91694000D02*
X145925000Y-91821000D01*
D37*
X145923000Y-94885000D02*
X145923000Y-91823000D01*
D38*
X169418000Y-91694000D02*
X146052000Y-91694000D01*
D37*
%TO.N,Net-(JP2-B)*%
X138811000Y-115682000D02*
X139207000Y-115682000D01*
X139207000Y-115682000D02*
X139551500Y-115337500D01*
X135414000Y-116554000D02*
X132588000Y-116554000D01*
X139551500Y-115337500D02*
X141351000Y-115337500D01*
X138684000Y-115936000D02*
X136032000Y-115936000D01*
X141351000Y-117364000D02*
X141351000Y-115337500D01*
X136032000Y-115936000D02*
X135414000Y-116554000D01*
%TO.N,Net-(JP2-A)*%
X141798000Y-121732000D02*
X141351000Y-121285000D01*
X141351000Y-121285000D02*
X141351000Y-119364000D01*
X141906000Y-121732000D02*
X141798000Y-121732000D01*
%TO.N,/PowerTimer/NINT*%
X148986000Y-121144600D02*
X148986000Y-122301000D01*
X144653000Y-120523000D02*
X148364400Y-120523000D01*
X144211000Y-120081000D02*
X144653000Y-120523000D01*
X148364400Y-120523000D02*
X148986000Y-121144600D01*
X144211000Y-118952000D02*
X144211000Y-120081000D01*
%TO.N,/REG_EN*%
X160782000Y-97028000D02*
X166116000Y-97028000D01*
X166116000Y-97028000D02*
X166878000Y-96266000D01*
X158496000Y-99314000D02*
X160782000Y-97028000D01*
X135890000Y-114554000D02*
X137668000Y-112776000D01*
X150368000Y-110236000D02*
X152908000Y-107696000D01*
X140208000Y-110236000D02*
X150368000Y-110236000D01*
X169418000Y-95504000D02*
X169418000Y-94234000D01*
X152908000Y-104902000D02*
X153670000Y-104140000D01*
X168656000Y-96266000D02*
X169418000Y-95504000D01*
X166878000Y-96266000D02*
X168656000Y-96266000D01*
X132588000Y-114554000D02*
X135890000Y-114554000D01*
X152908000Y-107696000D02*
X152908000Y-104902000D01*
%TO.N,Net-(JP3-B)*%
X147686000Y-124841000D02*
X147193000Y-124841000D01*
X145984000Y-123632000D02*
X144606000Y-123632000D01*
X147193000Y-124841000D02*
X145984000Y-123632000D01*
%TO.N,Net-(JP4-B)*%
X147305000Y-122682000D02*
X147686000Y-122301000D01*
X144606000Y-122682000D02*
X147305000Y-122682000D01*
%TO.N,/SDA*%
X167640000Y-108823000D02*
X165862000Y-107045000D01*
X165305000Y-111125000D02*
X167259000Y-111125000D01*
X150622000Y-96012000D02*
X154940000Y-100330000D01*
X134366000Y-73914000D02*
X127762000Y-80518000D01*
X130810000Y-94488000D02*
X132334000Y-96012000D01*
X127508000Y-100960000D02*
X129926000Y-100960000D01*
X150368000Y-107442000D02*
X151130000Y-106680000D01*
X166878000Y-100330000D02*
X164084000Y-100330000D01*
X166513000Y-107045000D02*
X167640000Y-105918000D01*
X164084000Y-100330000D02*
X155448000Y-100330000D01*
X149098000Y-96012000D02*
X150622000Y-96012000D01*
X144780000Y-106361000D02*
X144780000Y-108712000D01*
X169418000Y-100330000D02*
X166878000Y-100330000D01*
X165862000Y-107045000D02*
X166513000Y-107045000D01*
X132334000Y-96012000D02*
X137414000Y-96012000D01*
X137700000Y-73374000D02*
X137160000Y-73914000D01*
X127762000Y-88392000D02*
X127762000Y-91440000D01*
X144780000Y-108712000D02*
X145542000Y-109474000D01*
X137160000Y-73914000D02*
X134366000Y-73914000D01*
X151130000Y-106680000D02*
X151130000Y-104648000D01*
X171450000Y-81534000D02*
X171450000Y-98298000D01*
X167640000Y-105918000D02*
X167640000Y-103886000D01*
X171450000Y-98298000D02*
X169418000Y-100330000D01*
X129926000Y-100960000D02*
X132334000Y-98552000D01*
X127762000Y-91440000D02*
X130810000Y-94488000D01*
X165846000Y-107061000D02*
X165862000Y-107045000D01*
X148336000Y-109474000D02*
X150368000Y-107442000D01*
X145542000Y-109474000D02*
X147574000Y-109474000D01*
X147574000Y-109474000D02*
X148336000Y-109474000D01*
X151130000Y-104648000D02*
X152146000Y-103632000D01*
X154940000Y-100330000D02*
X155448000Y-100330000D01*
X167259000Y-111125000D02*
X167640000Y-110744000D01*
X137700000Y-71469000D02*
X137700000Y-73374000D01*
X127762000Y-80518000D02*
X127762000Y-88392000D01*
X167640000Y-110744000D02*
X167640000Y-108823000D01*
%TO.N,/SCL*%
X146558000Y-108458000D02*
X147574000Y-108458000D01*
X153670000Y-101346000D02*
X152908000Y-100584000D01*
X150114000Y-106172000D02*
X150114000Y-105156000D01*
X162941000Y-107491000D02*
X165305000Y-109855000D01*
X127762000Y-93218000D02*
X131826000Y-97282000D01*
X130688000Y-103500000D02*
X134620000Y-99568000D01*
X146115000Y-106426000D02*
X146050000Y-106361000D01*
X136700000Y-72596000D02*
X136144000Y-73152000D01*
X133858000Y-73152000D02*
X127000000Y-80010000D01*
X127508000Y-103500000D02*
X130688000Y-103500000D01*
X162941000Y-107045000D02*
X162941000Y-107491000D01*
X160528000Y-101346000D02*
X153670000Y-101346000D01*
X131826000Y-97282000D02*
X134620000Y-97282000D01*
X146304000Y-108204000D02*
X146558000Y-108458000D01*
X168148000Y-101346000D02*
X160528000Y-101346000D01*
X149098000Y-107188000D02*
X150114000Y-106172000D01*
X136700000Y-71469000D02*
X136700000Y-72596000D01*
X134620000Y-97282000D02*
X137922000Y-97282000D01*
X127000000Y-80010000D02*
X127000000Y-88392000D01*
X162941000Y-107045000D02*
X162163000Y-107045000D01*
X146050000Y-107696000D02*
X146050000Y-107950000D01*
X136144000Y-73152000D02*
X133858000Y-73152000D01*
X162163000Y-107045000D02*
X160528000Y-105410000D01*
X127000000Y-88392000D02*
X127000000Y-92456000D01*
X127000000Y-92456000D02*
X127762000Y-93218000D01*
X134620000Y-99568000D02*
X134620000Y-97282000D01*
X150114000Y-105156000D02*
X150114000Y-103378000D01*
X147828000Y-108458000D02*
X149098000Y-107188000D01*
X149606000Y-97282000D02*
X152908000Y-100584000D01*
X147574000Y-108458000D02*
X147828000Y-108458000D01*
X146050000Y-106361000D02*
X146050000Y-107696000D01*
X148844000Y-97282000D02*
X149606000Y-97282000D01*
X146050000Y-107950000D02*
X146304000Y-108204000D01*
X150114000Y-103378000D02*
X150876000Y-102616000D01*
%TO.N,/HOLD*%
X147828000Y-127508000D02*
X136652000Y-127508000D01*
X130810000Y-107950000D02*
X128900000Y-106040000D01*
X130810000Y-121666000D02*
X130810000Y-107950000D01*
X148986000Y-124841000D02*
X148986000Y-126350000D01*
X136652000Y-127508000D02*
X130810000Y-121666000D01*
X128900000Y-106040000D02*
X127508000Y-106040000D01*
X148986000Y-126350000D02*
X147828000Y-127508000D01*
D38*
%TO.N,BATT_IN*%
X134895000Y-90150000D02*
X138154000Y-90150000D01*
X167346000Y-75311000D02*
X167346000Y-73366000D01*
X167346000Y-73366000D02*
X166370000Y-72390000D01*
X138154000Y-90150000D02*
X139825000Y-91821000D01*
X149860000Y-83312000D02*
X144018000Y-83312000D01*
D37*
X139827000Y-94885000D02*
X139827000Y-91823000D01*
D38*
X152360000Y-80812000D02*
X149860000Y-83312000D01*
X131826000Y-88900000D02*
X133096000Y-90170000D01*
X135362000Y-79990000D02*
X134895000Y-79990000D01*
X152360000Y-75311000D02*
X152360000Y-80812000D01*
X152360000Y-73446000D02*
X152360000Y-75311000D01*
X133096000Y-90170000D02*
X134875000Y-90170000D01*
X153416000Y-72390000D02*
X152360000Y-73446000D01*
X141986000Y-81280000D02*
X136652000Y-81280000D01*
X134875000Y-90170000D02*
X134895000Y-90150000D01*
X134895000Y-79990000D02*
X133116000Y-79990000D01*
X166370000Y-72390000D02*
X153416000Y-72390000D01*
X136652000Y-81280000D02*
X135362000Y-79990000D01*
X144018000Y-83312000D02*
X141986000Y-81280000D01*
X131826000Y-81280000D02*
X131826000Y-88900000D01*
X133116000Y-79990000D02*
X131826000Y-81280000D01*
D40*
%TO.N,Net-(J9-Pin_2)*%
X163982400Y-112395000D02*
X162306000Y-114071400D01*
D37*
X134620000Y-108712000D02*
X133096000Y-107188000D01*
D40*
X165305000Y-112395000D02*
X163982400Y-112395000D01*
D37*
X133096000Y-104007600D02*
X134721600Y-102382000D01*
X133096000Y-107188000D02*
X133096000Y-104007600D01*
D40*
X162306000Y-114071400D02*
X162306000Y-116586000D01*
D37*
%TO.N,VCC*%
X148209000Y-118639500D02*
X148611500Y-118639500D01*
X150876000Y-126492000D02*
X148844000Y-128524000D01*
X146423500Y-118639500D02*
X146111000Y-118952000D01*
X150876000Y-120904000D02*
X150876000Y-126492000D01*
X148611500Y-118639500D02*
X150876000Y-120904000D01*
X141964500Y-123690500D02*
X141906000Y-123632000D01*
X138176000Y-111252000D02*
X136652000Y-109728000D01*
X148336000Y-129032000D02*
X141732000Y-129032000D01*
X141964500Y-125730000D02*
X141964500Y-123690500D01*
X148844000Y-128524000D02*
X148336000Y-129032000D01*
X144272000Y-111252000D02*
X138176000Y-111252000D01*
X136652000Y-109728000D02*
X133826000Y-112554000D01*
X136652000Y-108346000D02*
X136652000Y-109728000D01*
X141964500Y-126216500D02*
X141964500Y-125730000D01*
X148209000Y-118639500D02*
X146423500Y-118639500D01*
X145161000Y-112141000D02*
X144272000Y-111252000D01*
X133826000Y-112554000D02*
X132588000Y-112554000D01*
X145161800Y-112156200D02*
X145161000Y-112157000D01*
X145161000Y-112157000D02*
X145161000Y-112141000D01*
X141710500Y-125476000D02*
X138684000Y-125476000D01*
X141964500Y-125730000D02*
X141710500Y-125476000D01*
%TO.N,Net-(D1-K)*%
X136926000Y-104882000D02*
X138353800Y-104882000D01*
X136652000Y-107046000D02*
X136652000Y-105156000D01*
X134721600Y-104882000D02*
X136926000Y-104882000D01*
X136652000Y-105156000D02*
X136926000Y-104882000D01*
%TD*%
%TA.AperFunction,Conductor*%
%TO.N,GND*%
G36*
X141039121Y-75712002D02*
G01*
X141085614Y-75765658D01*
X141097000Y-75818000D01*
X141097000Y-79376000D01*
X141076998Y-79444121D01*
X141023342Y-79490614D01*
X140971000Y-79502000D01*
X137286000Y-79502000D01*
X137217879Y-79481998D01*
X137171386Y-79428342D01*
X137160000Y-79376000D01*
X137160000Y-75818000D01*
X137180002Y-75749879D01*
X137233658Y-75703386D01*
X137286000Y-75692000D01*
X140971000Y-75692000D01*
X141039121Y-75712002D01*
G37*
%TD.AperFunction*%
%TD*%
%TA.AperFunction,Conductor*%
%TO.N,GND*%
G36*
X141039121Y-83586002D02*
G01*
X141085614Y-83639658D01*
X141097000Y-83692000D01*
X141097000Y-87250000D01*
X141076998Y-87318121D01*
X141023342Y-87364614D01*
X140971000Y-87376000D01*
X137286000Y-87376000D01*
X137217879Y-87355998D01*
X137171386Y-87302342D01*
X137160000Y-87250000D01*
X137160000Y-83692000D01*
X137180002Y-83623879D01*
X137233658Y-83577386D01*
X137286000Y-83566000D01*
X140971000Y-83566000D01*
X141039121Y-83586002D01*
G37*
%TD.AperFunction*%
%TD*%
%TA.AperFunction,Conductor*%
%TO.N,GND*%
G36*
X167582121Y-85999002D02*
G01*
X167628614Y-86052658D01*
X167640000Y-86105000D01*
X167640000Y-89663000D01*
X167619998Y-89731121D01*
X167566342Y-89777614D01*
X167514000Y-89789000D01*
X163829000Y-89789000D01*
X163760879Y-89768998D01*
X163714386Y-89715342D01*
X163703000Y-89663000D01*
X163703000Y-86105000D01*
X163723002Y-86036879D01*
X163776658Y-85990386D01*
X163829000Y-85979000D01*
X167514000Y-85979000D01*
X167582121Y-85999002D01*
G37*
%TD.AperFunction*%
%TD*%
%TA.AperFunction,Conductor*%
%TO.N,GND*%
G36*
X149167121Y-77490002D02*
G01*
X149213614Y-77543658D01*
X149225000Y-77596000D01*
X149225000Y-81154000D01*
X149204998Y-81222121D01*
X149151342Y-81268614D01*
X149099000Y-81280000D01*
X145541000Y-81280000D01*
X145472879Y-81259998D01*
X145426386Y-81206342D01*
X145415000Y-81154000D01*
X145415000Y-77596000D01*
X145435002Y-77527879D01*
X145488658Y-77481386D01*
X145541000Y-77470000D01*
X149099000Y-77470000D01*
X149167121Y-77490002D01*
G37*
%TD.AperFunction*%
%TD*%
%TA.AperFunction,Conductor*%
%TO.N,GND*%
G36*
X161613121Y-77490002D02*
G01*
X161659614Y-77543658D01*
X161671000Y-77596000D01*
X161671000Y-81154000D01*
X161650998Y-81222121D01*
X161597342Y-81268614D01*
X161545000Y-81280000D01*
X157860000Y-81280000D01*
X157791879Y-81259998D01*
X157745386Y-81206342D01*
X157734000Y-81154000D01*
X157734000Y-77596000D01*
X157754002Y-77527879D01*
X157807658Y-77481386D01*
X157860000Y-77470000D01*
X161545000Y-77470000D01*
X161613121Y-77490002D01*
G37*
%TD.AperFunction*%
%TD*%
M02*
