%TF.GenerationSoftware,KiCad,Pcbnew,(6.99.0-2504-g6a9c6e8599)*%
%TF.CreationDate,2023-09-25T00:56:31-07:00*%
%TF.ProjectId,BuoyPower,42756f79-506f-4776-9572-2e6b69636164,rev?*%
%TF.SameCoordinates,Original*%
%TF.FileFunction,Legend,Top*%
%TF.FilePolarity,Positive*%
%FSLAX46Y46*%
G04 Gerber Fmt 4.6, Leading zero omitted, Abs format (unit mm)*
G04 Created by KiCad (PCBNEW (6.99.0-2504-g6a9c6e8599)) date 2023-09-25 00:56:31*
%MOMM*%
%LPD*%
G01*
G04 APERTURE LIST*
%ADD10C,0.150000*%
%ADD11C,0.200000*%
%ADD12C,0.127000*%
%ADD13C,0.120000*%
G04 APERTURE END LIST*
D10*
X159786571Y-72072571D02*
X159834190Y-71929714D01*
X159834190Y-71929714D02*
X159881809Y-71882095D01*
X159881809Y-71882095D02*
X159977047Y-71834476D01*
X159977047Y-71834476D02*
X160119904Y-71834476D01*
X160119904Y-71834476D02*
X160215142Y-71882095D01*
X160215142Y-71882095D02*
X160262761Y-71929714D01*
X160262761Y-71929714D02*
X160310380Y-72024952D01*
X160310380Y-72024952D02*
X160310380Y-72405904D01*
X160310380Y-72405904D02*
X159310380Y-72405904D01*
X159310380Y-72405904D02*
X159310380Y-72072571D01*
X159310380Y-72072571D02*
X159358000Y-71977333D01*
X159358000Y-71977333D02*
X159405619Y-71929714D01*
X159405619Y-71929714D02*
X159500857Y-71882095D01*
X159500857Y-71882095D02*
X159596095Y-71882095D01*
X159596095Y-71882095D02*
X159691333Y-71929714D01*
X159691333Y-71929714D02*
X159738952Y-71977333D01*
X159738952Y-71977333D02*
X159786571Y-72072571D01*
X159786571Y-72072571D02*
X159786571Y-72405904D01*
X160024666Y-71453523D02*
X160024666Y-70977333D01*
X160310380Y-71548761D02*
X159310380Y-71215428D01*
X159310380Y-71215428D02*
X160310380Y-70882095D01*
X159310380Y-70691618D02*
X159310380Y-70120190D01*
X160310380Y-70405904D02*
X159310380Y-70405904D01*
X159929428Y-69786856D02*
X159929428Y-69024952D01*
X160310380Y-69405904D02*
X159548476Y-69405904D01*
X130746476Y-101334761D02*
X130889333Y-101382380D01*
X130889333Y-101382380D02*
X131127428Y-101382380D01*
X131127428Y-101382380D02*
X131222666Y-101334761D01*
X131222666Y-101334761D02*
X131270285Y-101287142D01*
X131270285Y-101287142D02*
X131317904Y-101191904D01*
X131317904Y-101191904D02*
X131317904Y-101096666D01*
X131317904Y-101096666D02*
X131270285Y-101001428D01*
X131270285Y-101001428D02*
X131222666Y-100953809D01*
X131222666Y-100953809D02*
X131127428Y-100906190D01*
X131127428Y-100906190D02*
X130936952Y-100858571D01*
X130936952Y-100858571D02*
X130841714Y-100810952D01*
X130841714Y-100810952D02*
X130794095Y-100763333D01*
X130794095Y-100763333D02*
X130746476Y-100668095D01*
X130746476Y-100668095D02*
X130746476Y-100572857D01*
X130746476Y-100572857D02*
X130794095Y-100477619D01*
X130794095Y-100477619D02*
X130841714Y-100430000D01*
X130841714Y-100430000D02*
X130936952Y-100382380D01*
X130936952Y-100382380D02*
X131175047Y-100382380D01*
X131175047Y-100382380D02*
X131317904Y-100430000D01*
X131746476Y-101382380D02*
X131746476Y-100382380D01*
X131746476Y-100382380D02*
X131984571Y-100382380D01*
X131984571Y-100382380D02*
X132127428Y-100430000D01*
X132127428Y-100430000D02*
X132222666Y-100525238D01*
X132222666Y-100525238D02*
X132270285Y-100620476D01*
X132270285Y-100620476D02*
X132317904Y-100810952D01*
X132317904Y-100810952D02*
X132317904Y-100953809D01*
X132317904Y-100953809D02*
X132270285Y-101144285D01*
X132270285Y-101144285D02*
X132222666Y-101239523D01*
X132222666Y-101239523D02*
X132127428Y-101334761D01*
X132127428Y-101334761D02*
X131984571Y-101382380D01*
X131984571Y-101382380D02*
X131746476Y-101382380D01*
X132698857Y-101096666D02*
X133175047Y-101096666D01*
X132603619Y-101382380D02*
X132936952Y-100382380D01*
X132936952Y-100382380D02*
X133270285Y-101382380D01*
X169465523Y-129227142D02*
X169417904Y-129274761D01*
X169417904Y-129274761D02*
X169275047Y-129322380D01*
X169275047Y-129322380D02*
X169179809Y-129322380D01*
X169179809Y-129322380D02*
X169036952Y-129274761D01*
X169036952Y-129274761D02*
X168941714Y-129179523D01*
X168941714Y-129179523D02*
X168894095Y-129084285D01*
X168894095Y-129084285D02*
X168846476Y-128893809D01*
X168846476Y-128893809D02*
X168846476Y-128750952D01*
X168846476Y-128750952D02*
X168894095Y-128560476D01*
X168894095Y-128560476D02*
X168941714Y-128465238D01*
X168941714Y-128465238D02*
X169036952Y-128370000D01*
X169036952Y-128370000D02*
X169179809Y-128322380D01*
X169179809Y-128322380D02*
X169275047Y-128322380D01*
X169275047Y-128322380D02*
X169417904Y-128370000D01*
X169417904Y-128370000D02*
X169465523Y-128417619D01*
X170465523Y-129322380D02*
X170132190Y-128846190D01*
X169894095Y-129322380D02*
X169894095Y-128322380D01*
X169894095Y-128322380D02*
X170275047Y-128322380D01*
X170275047Y-128322380D02*
X170370285Y-128370000D01*
X170370285Y-128370000D02*
X170417904Y-128417619D01*
X170417904Y-128417619D02*
X170465523Y-128512857D01*
X170465523Y-128512857D02*
X170465523Y-128655714D01*
X170465523Y-128655714D02*
X170417904Y-128750952D01*
X170417904Y-128750952D02*
X170370285Y-128798571D01*
X170370285Y-128798571D02*
X170275047Y-128846190D01*
X170275047Y-128846190D02*
X169894095Y-128846190D01*
X170846476Y-128417619D02*
X170894095Y-128370000D01*
X170894095Y-128370000D02*
X170989333Y-128322380D01*
X170989333Y-128322380D02*
X171227428Y-128322380D01*
X171227428Y-128322380D02*
X171322666Y-128370000D01*
X171322666Y-128370000D02*
X171370285Y-128417619D01*
X171370285Y-128417619D02*
X171417904Y-128512857D01*
X171417904Y-128512857D02*
X171417904Y-128608095D01*
X171417904Y-128608095D02*
X171370285Y-128750952D01*
X171370285Y-128750952D02*
X170798857Y-129322380D01*
X170798857Y-129322380D02*
X171417904Y-129322380D01*
X172036952Y-128322380D02*
X172132190Y-128322380D01*
X172132190Y-128322380D02*
X172227428Y-128370000D01*
X172227428Y-128370000D02*
X172275047Y-128417619D01*
X172275047Y-128417619D02*
X172322666Y-128512857D01*
X172322666Y-128512857D02*
X172370285Y-128703333D01*
X172370285Y-128703333D02*
X172370285Y-128941428D01*
X172370285Y-128941428D02*
X172322666Y-129131904D01*
X172322666Y-129131904D02*
X172275047Y-129227142D01*
X172275047Y-129227142D02*
X172227428Y-129274761D01*
X172227428Y-129274761D02*
X172132190Y-129322380D01*
X172132190Y-129322380D02*
X172036952Y-129322380D01*
X172036952Y-129322380D02*
X171941714Y-129274761D01*
X171941714Y-129274761D02*
X171894095Y-129227142D01*
X171894095Y-129227142D02*
X171846476Y-129131904D01*
X171846476Y-129131904D02*
X171798857Y-128941428D01*
X171798857Y-128941428D02*
X171798857Y-128703333D01*
X171798857Y-128703333D02*
X171846476Y-128512857D01*
X171846476Y-128512857D02*
X171894095Y-128417619D01*
X171894095Y-128417619D02*
X171941714Y-128370000D01*
X171941714Y-128370000D02*
X172036952Y-128322380D01*
X172703619Y-128322380D02*
X173322666Y-128322380D01*
X173322666Y-128322380D02*
X172989333Y-128703333D01*
X172989333Y-128703333D02*
X173132190Y-128703333D01*
X173132190Y-128703333D02*
X173227428Y-128750952D01*
X173227428Y-128750952D02*
X173275047Y-128798571D01*
X173275047Y-128798571D02*
X173322666Y-128893809D01*
X173322666Y-128893809D02*
X173322666Y-129131904D01*
X173322666Y-129131904D02*
X173275047Y-129227142D01*
X173275047Y-129227142D02*
X173227428Y-129274761D01*
X173227428Y-129274761D02*
X173132190Y-129322380D01*
X173132190Y-129322380D02*
X172846476Y-129322380D01*
X172846476Y-129322380D02*
X172751238Y-129274761D01*
X172751238Y-129274761D02*
X172703619Y-129227142D01*
X173703619Y-128417619D02*
X173751238Y-128370000D01*
X173751238Y-128370000D02*
X173846476Y-128322380D01*
X173846476Y-128322380D02*
X174084571Y-128322380D01*
X174084571Y-128322380D02*
X174179809Y-128370000D01*
X174179809Y-128370000D02*
X174227428Y-128417619D01*
X174227428Y-128417619D02*
X174275047Y-128512857D01*
X174275047Y-128512857D02*
X174275047Y-128608095D01*
X174275047Y-128608095D02*
X174227428Y-128750952D01*
X174227428Y-128750952D02*
X173656000Y-129322380D01*
X173656000Y-129322380D02*
X174275047Y-129322380D01*
X174703619Y-128941428D02*
X175465524Y-128941428D01*
X175084571Y-129322380D02*
X175084571Y-128560476D01*
X174026380Y-117109904D02*
X173026380Y-117109904D01*
X173026380Y-117109904D02*
X173026380Y-116728952D01*
X173026380Y-116728952D02*
X173074000Y-116633714D01*
X173074000Y-116633714D02*
X173121619Y-116586095D01*
X173121619Y-116586095D02*
X173216857Y-116538476D01*
X173216857Y-116538476D02*
X173359714Y-116538476D01*
X173359714Y-116538476D02*
X173454952Y-116586095D01*
X173454952Y-116586095D02*
X173502571Y-116633714D01*
X173502571Y-116633714D02*
X173550190Y-116728952D01*
X173550190Y-116728952D02*
X173550190Y-117109904D01*
X174026380Y-115967047D02*
X173978761Y-116062285D01*
X173978761Y-116062285D02*
X173931142Y-116109904D01*
X173931142Y-116109904D02*
X173835904Y-116157523D01*
X173835904Y-116157523D02*
X173550190Y-116157523D01*
X173550190Y-116157523D02*
X173454952Y-116109904D01*
X173454952Y-116109904D02*
X173407333Y-116062285D01*
X173407333Y-116062285D02*
X173359714Y-115967047D01*
X173359714Y-115967047D02*
X173359714Y-115824190D01*
X173359714Y-115824190D02*
X173407333Y-115728952D01*
X173407333Y-115728952D02*
X173454952Y-115681333D01*
X173454952Y-115681333D02*
X173550190Y-115633714D01*
X173550190Y-115633714D02*
X173835904Y-115633714D01*
X173835904Y-115633714D02*
X173931142Y-115681333D01*
X173931142Y-115681333D02*
X173978761Y-115728952D01*
X173978761Y-115728952D02*
X174026380Y-115824190D01*
X174026380Y-115824190D02*
X174026380Y-115967047D01*
X173359714Y-115300380D02*
X174026380Y-115109904D01*
X174026380Y-115109904D02*
X173550190Y-114919428D01*
X173550190Y-114919428D02*
X174026380Y-114728952D01*
X174026380Y-114728952D02*
X173359714Y-114538476D01*
X173978761Y-113776571D02*
X174026380Y-113871809D01*
X174026380Y-113871809D02*
X174026380Y-114062285D01*
X174026380Y-114062285D02*
X173978761Y-114157523D01*
X173978761Y-114157523D02*
X173883523Y-114205142D01*
X173883523Y-114205142D02*
X173502571Y-114205142D01*
X173502571Y-114205142D02*
X173407333Y-114157523D01*
X173407333Y-114157523D02*
X173359714Y-114062285D01*
X173359714Y-114062285D02*
X173359714Y-113871809D01*
X173359714Y-113871809D02*
X173407333Y-113776571D01*
X173407333Y-113776571D02*
X173502571Y-113728952D01*
X173502571Y-113728952D02*
X173597809Y-113728952D01*
X173597809Y-113728952D02*
X173693047Y-114205142D01*
X174026380Y-113300380D02*
X173359714Y-113300380D01*
X173550190Y-113300380D02*
X173454952Y-113252761D01*
X173454952Y-113252761D02*
X173407333Y-113205142D01*
X173407333Y-113205142D02*
X173359714Y-113109904D01*
X173359714Y-113109904D02*
X173359714Y-113014666D01*
X173931142Y-111509904D02*
X173978761Y-111557523D01*
X173978761Y-111557523D02*
X174026380Y-111700380D01*
X174026380Y-111700380D02*
X174026380Y-111795618D01*
X174026380Y-111795618D02*
X173978761Y-111938475D01*
X173978761Y-111938475D02*
X173883523Y-112033713D01*
X173883523Y-112033713D02*
X173788285Y-112081332D01*
X173788285Y-112081332D02*
X173597809Y-112128951D01*
X173597809Y-112128951D02*
X173454952Y-112128951D01*
X173454952Y-112128951D02*
X173264476Y-112081332D01*
X173264476Y-112081332D02*
X173169238Y-112033713D01*
X173169238Y-112033713D02*
X173074000Y-111938475D01*
X173074000Y-111938475D02*
X173026380Y-111795618D01*
X173026380Y-111795618D02*
X173026380Y-111700380D01*
X173026380Y-111700380D02*
X173074000Y-111557523D01*
X173074000Y-111557523D02*
X173121619Y-111509904D01*
X174026380Y-110938475D02*
X173978761Y-111033713D01*
X173978761Y-111033713D02*
X173931142Y-111081332D01*
X173931142Y-111081332D02*
X173835904Y-111128951D01*
X173835904Y-111128951D02*
X173550190Y-111128951D01*
X173550190Y-111128951D02*
X173454952Y-111081332D01*
X173454952Y-111081332D02*
X173407333Y-111033713D01*
X173407333Y-111033713D02*
X173359714Y-110938475D01*
X173359714Y-110938475D02*
X173359714Y-110795618D01*
X173359714Y-110795618D02*
X173407333Y-110700380D01*
X173407333Y-110700380D02*
X173454952Y-110652761D01*
X173454952Y-110652761D02*
X173550190Y-110605142D01*
X173550190Y-110605142D02*
X173835904Y-110605142D01*
X173835904Y-110605142D02*
X173931142Y-110652761D01*
X173931142Y-110652761D02*
X173978761Y-110700380D01*
X173978761Y-110700380D02*
X174026380Y-110795618D01*
X174026380Y-110795618D02*
X174026380Y-110938475D01*
X173359714Y-110176570D02*
X174026380Y-110176570D01*
X173454952Y-110176570D02*
X173407333Y-110128951D01*
X173407333Y-110128951D02*
X173359714Y-110033713D01*
X173359714Y-110033713D02*
X173359714Y-109890856D01*
X173359714Y-109890856D02*
X173407333Y-109795618D01*
X173407333Y-109795618D02*
X173502571Y-109747999D01*
X173502571Y-109747999D02*
X174026380Y-109747999D01*
X173359714Y-109414665D02*
X173359714Y-109033713D01*
X173026380Y-109271808D02*
X173883523Y-109271808D01*
X173883523Y-109271808D02*
X173978761Y-109224189D01*
X173978761Y-109224189D02*
X174026380Y-109128951D01*
X174026380Y-109128951D02*
X174026380Y-109033713D01*
X174026380Y-108700379D02*
X173359714Y-108700379D01*
X173550190Y-108700379D02*
X173454952Y-108652760D01*
X173454952Y-108652760D02*
X173407333Y-108605141D01*
X173407333Y-108605141D02*
X173359714Y-108509903D01*
X173359714Y-108509903D02*
X173359714Y-108414665D01*
X174026380Y-107938474D02*
X173978761Y-108033712D01*
X173978761Y-108033712D02*
X173931142Y-108081331D01*
X173931142Y-108081331D02*
X173835904Y-108128950D01*
X173835904Y-108128950D02*
X173550190Y-108128950D01*
X173550190Y-108128950D02*
X173454952Y-108081331D01*
X173454952Y-108081331D02*
X173407333Y-108033712D01*
X173407333Y-108033712D02*
X173359714Y-107938474D01*
X173359714Y-107938474D02*
X173359714Y-107795617D01*
X173359714Y-107795617D02*
X173407333Y-107700379D01*
X173407333Y-107700379D02*
X173454952Y-107652760D01*
X173454952Y-107652760D02*
X173550190Y-107605141D01*
X173550190Y-107605141D02*
X173835904Y-107605141D01*
X173835904Y-107605141D02*
X173931142Y-107652760D01*
X173931142Y-107652760D02*
X173978761Y-107700379D01*
X173978761Y-107700379D02*
X174026380Y-107795617D01*
X174026380Y-107795617D02*
X174026380Y-107938474D01*
X174026380Y-107033712D02*
X173978761Y-107128950D01*
X173978761Y-107128950D02*
X173883523Y-107176569D01*
X173883523Y-107176569D02*
X173026380Y-107176569D01*
X174026380Y-106509902D02*
X173978761Y-106605140D01*
X173978761Y-106605140D02*
X173883523Y-106652759D01*
X173883523Y-106652759D02*
X173026380Y-106652759D01*
X173978761Y-105747997D02*
X174026380Y-105843235D01*
X174026380Y-105843235D02*
X174026380Y-106033711D01*
X174026380Y-106033711D02*
X173978761Y-106128949D01*
X173978761Y-106128949D02*
X173883523Y-106176568D01*
X173883523Y-106176568D02*
X173502571Y-106176568D01*
X173502571Y-106176568D02*
X173407333Y-106128949D01*
X173407333Y-106128949D02*
X173359714Y-106033711D01*
X173359714Y-106033711D02*
X173359714Y-105843235D01*
X173359714Y-105843235D02*
X173407333Y-105747997D01*
X173407333Y-105747997D02*
X173502571Y-105700378D01*
X173502571Y-105700378D02*
X173597809Y-105700378D01*
X173597809Y-105700378D02*
X173693047Y-106176568D01*
X174026380Y-105271806D02*
X173359714Y-105271806D01*
X173550190Y-105271806D02*
X173454952Y-105224187D01*
X173454952Y-105224187D02*
X173407333Y-105176568D01*
X173407333Y-105176568D02*
X173359714Y-105081330D01*
X173359714Y-105081330D02*
X173359714Y-104986092D01*
X162152000Y-71882095D02*
X162104380Y-71977333D01*
X162104380Y-71977333D02*
X162104380Y-72120190D01*
X162104380Y-72120190D02*
X162152000Y-72263047D01*
X162152000Y-72263047D02*
X162247238Y-72358285D01*
X162247238Y-72358285D02*
X162342476Y-72405904D01*
X162342476Y-72405904D02*
X162532952Y-72453523D01*
X162532952Y-72453523D02*
X162675809Y-72453523D01*
X162675809Y-72453523D02*
X162866285Y-72405904D01*
X162866285Y-72405904D02*
X162961523Y-72358285D01*
X162961523Y-72358285D02*
X163056761Y-72263047D01*
X163056761Y-72263047D02*
X163104380Y-72120190D01*
X163104380Y-72120190D02*
X163104380Y-72024952D01*
X163104380Y-72024952D02*
X163056761Y-71882095D01*
X163056761Y-71882095D02*
X163009142Y-71834476D01*
X163009142Y-71834476D02*
X162675809Y-71834476D01*
X162675809Y-71834476D02*
X162675809Y-72024952D01*
X163104380Y-71405904D02*
X162104380Y-71405904D01*
X162104380Y-71405904D02*
X163104380Y-70834476D01*
X163104380Y-70834476D02*
X162104380Y-70834476D01*
X163104380Y-70358285D02*
X162104380Y-70358285D01*
X162104380Y-70358285D02*
X162104380Y-70120190D01*
X162104380Y-70120190D02*
X162152000Y-69977333D01*
X162152000Y-69977333D02*
X162247238Y-69882095D01*
X162247238Y-69882095D02*
X162342476Y-69834476D01*
X162342476Y-69834476D02*
X162532952Y-69786857D01*
X162532952Y-69786857D02*
X162675809Y-69786857D01*
X162675809Y-69786857D02*
X162866285Y-69834476D01*
X162866285Y-69834476D02*
X162961523Y-69882095D01*
X162961523Y-69882095D02*
X163056761Y-69977333D01*
X163056761Y-69977333D02*
X163104380Y-70120190D01*
X163104380Y-70120190D02*
X163104380Y-70358285D01*
X167232000Y-71882095D02*
X167184380Y-71977333D01*
X167184380Y-71977333D02*
X167184380Y-72120190D01*
X167184380Y-72120190D02*
X167232000Y-72263047D01*
X167232000Y-72263047D02*
X167327238Y-72358285D01*
X167327238Y-72358285D02*
X167422476Y-72405904D01*
X167422476Y-72405904D02*
X167612952Y-72453523D01*
X167612952Y-72453523D02*
X167755809Y-72453523D01*
X167755809Y-72453523D02*
X167946285Y-72405904D01*
X167946285Y-72405904D02*
X168041523Y-72358285D01*
X168041523Y-72358285D02*
X168136761Y-72263047D01*
X168136761Y-72263047D02*
X168184380Y-72120190D01*
X168184380Y-72120190D02*
X168184380Y-72024952D01*
X168184380Y-72024952D02*
X168136761Y-71882095D01*
X168136761Y-71882095D02*
X168089142Y-71834476D01*
X168089142Y-71834476D02*
X167755809Y-71834476D01*
X167755809Y-71834476D02*
X167755809Y-72024952D01*
X168184380Y-71405904D02*
X167184380Y-71405904D01*
X167184380Y-71405904D02*
X168184380Y-70834476D01*
X168184380Y-70834476D02*
X167184380Y-70834476D01*
X168184380Y-70358285D02*
X167184380Y-70358285D01*
X167184380Y-70358285D02*
X167184380Y-70120190D01*
X167184380Y-70120190D02*
X167232000Y-69977333D01*
X167232000Y-69977333D02*
X167327238Y-69882095D01*
X167327238Y-69882095D02*
X167422476Y-69834476D01*
X167422476Y-69834476D02*
X167612952Y-69786857D01*
X167612952Y-69786857D02*
X167755809Y-69786857D01*
X167755809Y-69786857D02*
X167946285Y-69834476D01*
X167946285Y-69834476D02*
X168041523Y-69882095D01*
X168041523Y-69882095D02*
X168136761Y-69977333D01*
X168136761Y-69977333D02*
X168184380Y-70120190D01*
X168184380Y-70120190D02*
X168184380Y-70358285D01*
X128968476Y-109478666D02*
X129444666Y-109478666D01*
X128873238Y-109764380D02*
X129206571Y-108764380D01*
X129206571Y-108764380D02*
X129539904Y-109764380D01*
X129873238Y-108764380D02*
X129873238Y-109573904D01*
X129873238Y-109573904D02*
X129920857Y-109669142D01*
X129920857Y-109669142D02*
X129968476Y-109716761D01*
X129968476Y-109716761D02*
X130063714Y-109764380D01*
X130063714Y-109764380D02*
X130254190Y-109764380D01*
X130254190Y-109764380D02*
X130349428Y-109716761D01*
X130349428Y-109716761D02*
X130397047Y-109669142D01*
X130397047Y-109669142D02*
X130444666Y-109573904D01*
X130444666Y-109573904D02*
X130444666Y-108764380D01*
X130778000Y-108764380D02*
X131349428Y-108764380D01*
X131063714Y-109764380D02*
X131063714Y-108764380D01*
X131873238Y-108764380D02*
X132063714Y-108764380D01*
X132063714Y-108764380D02*
X132158952Y-108812000D01*
X132158952Y-108812000D02*
X132254190Y-108907238D01*
X132254190Y-108907238D02*
X132301809Y-109097714D01*
X132301809Y-109097714D02*
X132301809Y-109431047D01*
X132301809Y-109431047D02*
X132254190Y-109621523D01*
X132254190Y-109621523D02*
X132158952Y-109716761D01*
X132158952Y-109716761D02*
X132063714Y-109764380D01*
X132063714Y-109764380D02*
X131873238Y-109764380D01*
X131873238Y-109764380D02*
X131778000Y-109716761D01*
X131778000Y-109716761D02*
X131682762Y-109621523D01*
X131682762Y-109621523D02*
X131635143Y-109431047D01*
X131635143Y-109431047D02*
X131635143Y-109097714D01*
X131635143Y-109097714D02*
X131682762Y-108907238D01*
X131682762Y-108907238D02*
X131778000Y-108812000D01*
X131778000Y-108812000D02*
X131873238Y-108764380D01*
X152379428Y-78803428D02*
X152331809Y-78946285D01*
X152331809Y-78946285D02*
X152284190Y-78993904D01*
X152284190Y-78993904D02*
X152188952Y-79041523D01*
X152188952Y-79041523D02*
X152046095Y-79041523D01*
X152046095Y-79041523D02*
X151950857Y-78993904D01*
X151950857Y-78993904D02*
X151903238Y-78946285D01*
X151903238Y-78946285D02*
X151855619Y-78851047D01*
X151855619Y-78851047D02*
X151855619Y-78470095D01*
X151855619Y-78470095D02*
X152855619Y-78470095D01*
X152855619Y-78470095D02*
X152855619Y-78803428D01*
X152855619Y-78803428D02*
X152808000Y-78898666D01*
X152808000Y-78898666D02*
X152760380Y-78946285D01*
X152760380Y-78946285D02*
X152665142Y-78993904D01*
X152665142Y-78993904D02*
X152569904Y-78993904D01*
X152569904Y-78993904D02*
X152474666Y-78946285D01*
X152474666Y-78946285D02*
X152427047Y-78898666D01*
X152427047Y-78898666D02*
X152379428Y-78803428D01*
X152379428Y-78803428D02*
X152379428Y-78470095D01*
X152141333Y-79422476D02*
X152141333Y-79898666D01*
X151855619Y-79327238D02*
X152855619Y-79660571D01*
X152855619Y-79660571D02*
X151855619Y-79993904D01*
X152855619Y-80184381D02*
X152855619Y-80755809D01*
X151855619Y-80470095D02*
X152855619Y-80470095D01*
X152236571Y-81089143D02*
X152236571Y-81851048D01*
X151855619Y-81470095D02*
X152617523Y-81470095D01*
X130746476Y-103874761D02*
X130889333Y-103922380D01*
X130889333Y-103922380D02*
X131127428Y-103922380D01*
X131127428Y-103922380D02*
X131222666Y-103874761D01*
X131222666Y-103874761D02*
X131270285Y-103827142D01*
X131270285Y-103827142D02*
X131317904Y-103731904D01*
X131317904Y-103731904D02*
X131317904Y-103636666D01*
X131317904Y-103636666D02*
X131270285Y-103541428D01*
X131270285Y-103541428D02*
X131222666Y-103493809D01*
X131222666Y-103493809D02*
X131127428Y-103446190D01*
X131127428Y-103446190D02*
X130936952Y-103398571D01*
X130936952Y-103398571D02*
X130841714Y-103350952D01*
X130841714Y-103350952D02*
X130794095Y-103303333D01*
X130794095Y-103303333D02*
X130746476Y-103208095D01*
X130746476Y-103208095D02*
X130746476Y-103112857D01*
X130746476Y-103112857D02*
X130794095Y-103017619D01*
X130794095Y-103017619D02*
X130841714Y-102970000D01*
X130841714Y-102970000D02*
X130936952Y-102922380D01*
X130936952Y-102922380D02*
X131175047Y-102922380D01*
X131175047Y-102922380D02*
X131317904Y-102970000D01*
X132317904Y-103827142D02*
X132270285Y-103874761D01*
X132270285Y-103874761D02*
X132127428Y-103922380D01*
X132127428Y-103922380D02*
X132032190Y-103922380D01*
X132032190Y-103922380D02*
X131889333Y-103874761D01*
X131889333Y-103874761D02*
X131794095Y-103779523D01*
X131794095Y-103779523D02*
X131746476Y-103684285D01*
X131746476Y-103684285D02*
X131698857Y-103493809D01*
X131698857Y-103493809D02*
X131698857Y-103350952D01*
X131698857Y-103350952D02*
X131746476Y-103160476D01*
X131746476Y-103160476D02*
X131794095Y-103065238D01*
X131794095Y-103065238D02*
X131889333Y-102970000D01*
X131889333Y-102970000D02*
X132032190Y-102922380D01*
X132032190Y-102922380D02*
X132127428Y-102922380D01*
X132127428Y-102922380D02*
X132270285Y-102970000D01*
X132270285Y-102970000D02*
X132317904Y-103017619D01*
X133222666Y-103922380D02*
X132746476Y-103922380D01*
X132746476Y-103922380D02*
X132746476Y-102922380D01*
X147728000Y-78739904D02*
X147775619Y-78644666D01*
X147775619Y-78644666D02*
X147775619Y-78501809D01*
X147775619Y-78501809D02*
X147728000Y-78358952D01*
X147728000Y-78358952D02*
X147632761Y-78263714D01*
X147632761Y-78263714D02*
X147537523Y-78216095D01*
X147537523Y-78216095D02*
X147347047Y-78168476D01*
X147347047Y-78168476D02*
X147204190Y-78168476D01*
X147204190Y-78168476D02*
X147013714Y-78216095D01*
X147013714Y-78216095D02*
X146918476Y-78263714D01*
X146918476Y-78263714D02*
X146823238Y-78358952D01*
X146823238Y-78358952D02*
X146775619Y-78501809D01*
X146775619Y-78501809D02*
X146775619Y-78597047D01*
X146775619Y-78597047D02*
X146823238Y-78739904D01*
X146823238Y-78739904D02*
X146870857Y-78787523D01*
X146870857Y-78787523D02*
X147204190Y-78787523D01*
X147204190Y-78787523D02*
X147204190Y-78597047D01*
X146775619Y-79216095D02*
X147775619Y-79216095D01*
X147775619Y-79216095D02*
X146775619Y-79787523D01*
X146775619Y-79787523D02*
X147775619Y-79787523D01*
X146775619Y-80263714D02*
X147775619Y-80263714D01*
X147775619Y-80263714D02*
X147775619Y-80501809D01*
X147775619Y-80501809D02*
X147728000Y-80644666D01*
X147728000Y-80644666D02*
X147632761Y-80739904D01*
X147632761Y-80739904D02*
X147537523Y-80787523D01*
X147537523Y-80787523D02*
X147347047Y-80835142D01*
X147347047Y-80835142D02*
X147204190Y-80835142D01*
X147204190Y-80835142D02*
X147013714Y-80787523D01*
X147013714Y-80787523D02*
X146918476Y-80739904D01*
X146918476Y-80739904D02*
X146823238Y-80644666D01*
X146823238Y-80644666D02*
X146775619Y-80501809D01*
X146775619Y-80501809D02*
X146775619Y-80263714D01*
X165263428Y-72405904D02*
X165263428Y-71644000D01*
X165644380Y-72024952D02*
X164882476Y-72024952D01*
X164644380Y-70691619D02*
X164644380Y-71167809D01*
X164644380Y-71167809D02*
X165120571Y-71215428D01*
X165120571Y-71215428D02*
X165072952Y-71167809D01*
X165072952Y-71167809D02*
X165025333Y-71072571D01*
X165025333Y-71072571D02*
X165025333Y-70834476D01*
X165025333Y-70834476D02*
X165072952Y-70739238D01*
X165072952Y-70739238D02*
X165120571Y-70691619D01*
X165120571Y-70691619D02*
X165215809Y-70644000D01*
X165215809Y-70644000D02*
X165453904Y-70644000D01*
X165453904Y-70644000D02*
X165549142Y-70691619D01*
X165549142Y-70691619D02*
X165596761Y-70739238D01*
X165596761Y-70739238D02*
X165644380Y-70834476D01*
X165644380Y-70834476D02*
X165644380Y-71072571D01*
X165644380Y-71072571D02*
X165596761Y-71167809D01*
X165596761Y-71167809D02*
X165549142Y-71215428D01*
X164644380Y-70358285D02*
X165644380Y-70024952D01*
X165644380Y-70024952D02*
X164644380Y-69691619D01*
X129841571Y-120829380D02*
X130032047Y-120829380D01*
X130032047Y-120829380D02*
X130127285Y-120877000D01*
X130127285Y-120877000D02*
X130222523Y-120972238D01*
X130222523Y-120972238D02*
X130270142Y-121162714D01*
X130270142Y-121162714D02*
X130270142Y-121496047D01*
X130270142Y-121496047D02*
X130222523Y-121686523D01*
X130222523Y-121686523D02*
X130127285Y-121781761D01*
X130127285Y-121781761D02*
X130032047Y-121829380D01*
X130032047Y-121829380D02*
X129841571Y-121829380D01*
X129841571Y-121829380D02*
X129746333Y-121781761D01*
X129746333Y-121781761D02*
X129651095Y-121686523D01*
X129651095Y-121686523D02*
X129603476Y-121496047D01*
X129603476Y-121496047D02*
X129603476Y-121162714D01*
X129603476Y-121162714D02*
X129651095Y-120972238D01*
X129651095Y-120972238D02*
X129746333Y-120877000D01*
X129746333Y-120877000D02*
X129841571Y-120829380D01*
X130698714Y-121829380D02*
X130698714Y-120829380D01*
X130698714Y-120829380D02*
X131270142Y-121829380D01*
X131270142Y-121829380D02*
X131270142Y-120829380D01*
X130698857Y-95302380D02*
X131317904Y-95302380D01*
X131317904Y-95302380D02*
X130984571Y-95683333D01*
X130984571Y-95683333D02*
X131127428Y-95683333D01*
X131127428Y-95683333D02*
X131222666Y-95730952D01*
X131222666Y-95730952D02*
X131270285Y-95778571D01*
X131270285Y-95778571D02*
X131317904Y-95873809D01*
X131317904Y-95873809D02*
X131317904Y-96111904D01*
X131317904Y-96111904D02*
X131270285Y-96207142D01*
X131270285Y-96207142D02*
X131222666Y-96254761D01*
X131222666Y-96254761D02*
X131127428Y-96302380D01*
X131127428Y-96302380D02*
X130841714Y-96302380D01*
X130841714Y-96302380D02*
X130746476Y-96254761D01*
X130746476Y-96254761D02*
X130698857Y-96207142D01*
X131746476Y-96207142D02*
X131794095Y-96254761D01*
X131794095Y-96254761D02*
X131746476Y-96302380D01*
X131746476Y-96302380D02*
X131698857Y-96254761D01*
X131698857Y-96254761D02*
X131746476Y-96207142D01*
X131746476Y-96207142D02*
X131746476Y-96302380D01*
X132127428Y-95302380D02*
X132746475Y-95302380D01*
X132746475Y-95302380D02*
X132413142Y-95683333D01*
X132413142Y-95683333D02*
X132555999Y-95683333D01*
X132555999Y-95683333D02*
X132651237Y-95730952D01*
X132651237Y-95730952D02*
X132698856Y-95778571D01*
X132698856Y-95778571D02*
X132746475Y-95873809D01*
X132746475Y-95873809D02*
X132746475Y-96111904D01*
X132746475Y-96111904D02*
X132698856Y-96207142D01*
X132698856Y-96207142D02*
X132651237Y-96254761D01*
X132651237Y-96254761D02*
X132555999Y-96302380D01*
X132555999Y-96302380D02*
X132270285Y-96302380D01*
X132270285Y-96302380D02*
X132175047Y-96254761D01*
X132175047Y-96254761D02*
X132127428Y-96207142D01*
X133032190Y-95302380D02*
X133365523Y-96302380D01*
X133365523Y-96302380D02*
X133698856Y-95302380D01*
X131317904Y-97890000D02*
X131222666Y-97842380D01*
X131222666Y-97842380D02*
X131079809Y-97842380D01*
X131079809Y-97842380D02*
X130936952Y-97890000D01*
X130936952Y-97890000D02*
X130841714Y-97985238D01*
X130841714Y-97985238D02*
X130794095Y-98080476D01*
X130794095Y-98080476D02*
X130746476Y-98270952D01*
X130746476Y-98270952D02*
X130746476Y-98413809D01*
X130746476Y-98413809D02*
X130794095Y-98604285D01*
X130794095Y-98604285D02*
X130841714Y-98699523D01*
X130841714Y-98699523D02*
X130936952Y-98794761D01*
X130936952Y-98794761D02*
X131079809Y-98842380D01*
X131079809Y-98842380D02*
X131175047Y-98842380D01*
X131175047Y-98842380D02*
X131317904Y-98794761D01*
X131317904Y-98794761D02*
X131365523Y-98747142D01*
X131365523Y-98747142D02*
X131365523Y-98413809D01*
X131365523Y-98413809D02*
X131175047Y-98413809D01*
X131794095Y-98842380D02*
X131794095Y-97842380D01*
X131794095Y-97842380D02*
X132365523Y-98842380D01*
X132365523Y-98842380D02*
X132365523Y-97842380D01*
X132841714Y-98842380D02*
X132841714Y-97842380D01*
X132841714Y-97842380D02*
X133079809Y-97842380D01*
X133079809Y-97842380D02*
X133222666Y-97890000D01*
X133222666Y-97890000D02*
X133317904Y-97985238D01*
X133317904Y-97985238D02*
X133365523Y-98080476D01*
X133365523Y-98080476D02*
X133413142Y-98270952D01*
X133413142Y-98270952D02*
X133413142Y-98413809D01*
X133413142Y-98413809D02*
X133365523Y-98604285D01*
X133365523Y-98604285D02*
X133317904Y-98699523D01*
X133317904Y-98699523D02*
X133222666Y-98794761D01*
X133222666Y-98794761D02*
X133079809Y-98842380D01*
X133079809Y-98842380D02*
X132841714Y-98842380D01*
X171776761Y-122459809D02*
X169776761Y-122459809D01*
X169776761Y-122459809D02*
X169776761Y-121983619D01*
X169776761Y-121983619D02*
X169872000Y-121697904D01*
X169872000Y-121697904D02*
X170062476Y-121507428D01*
X170062476Y-121507428D02*
X170252952Y-121412190D01*
X170252952Y-121412190D02*
X170633904Y-121316952D01*
X170633904Y-121316952D02*
X170919619Y-121316952D01*
X170919619Y-121316952D02*
X171300571Y-121412190D01*
X171300571Y-121412190D02*
X171491047Y-121507428D01*
X171491047Y-121507428D02*
X171681523Y-121697904D01*
X171681523Y-121697904D02*
X171776761Y-121983619D01*
X171776761Y-121983619D02*
X171776761Y-122459809D01*
X171776761Y-120459809D02*
X169776761Y-120459809D01*
X170824380Y-119126476D02*
X171776761Y-119126476D01*
X169776761Y-119793142D02*
X170824380Y-119126476D01*
X170824380Y-119126476D02*
X169776761Y-118459809D01*
X171205333Y-116688380D02*
X171205333Y-115735999D01*
X171776761Y-116878856D02*
X169776761Y-116212190D01*
X169776761Y-116212190D02*
X171776761Y-115545523D01*
X170443428Y-114021713D02*
X172443428Y-114021713D01*
X171681523Y-114021713D02*
X171776761Y-114212189D01*
X171776761Y-114212189D02*
X171776761Y-114593142D01*
X171776761Y-114593142D02*
X171681523Y-114783618D01*
X171681523Y-114783618D02*
X171586285Y-114878856D01*
X171586285Y-114878856D02*
X171395809Y-114974094D01*
X171395809Y-114974094D02*
X170824380Y-114974094D01*
X170824380Y-114974094D02*
X170633904Y-114878856D01*
X170633904Y-114878856D02*
X170538666Y-114783618D01*
X170538666Y-114783618D02*
X170443428Y-114593142D01*
X170443428Y-114593142D02*
X170443428Y-114212189D01*
X170443428Y-114212189D02*
X170538666Y-114021713D01*
X170443428Y-112212189D02*
X171776761Y-112212189D01*
X170443428Y-113069332D02*
X171491047Y-113069332D01*
X171491047Y-113069332D02*
X171681523Y-112974094D01*
X171681523Y-112974094D02*
X171776761Y-112783618D01*
X171776761Y-112783618D02*
X171776761Y-112497903D01*
X171776761Y-112497903D02*
X171681523Y-112307427D01*
X171681523Y-112307427D02*
X171586285Y-112212189D01*
X171776761Y-110402665D02*
X170729142Y-110402665D01*
X170729142Y-110402665D02*
X170538666Y-110497903D01*
X170538666Y-110497903D02*
X170443428Y-110688379D01*
X170443428Y-110688379D02*
X170443428Y-111069332D01*
X170443428Y-111069332D02*
X170538666Y-111259808D01*
X171681523Y-110402665D02*
X171776761Y-110593141D01*
X171776761Y-110593141D02*
X171776761Y-111069332D01*
X171776761Y-111069332D02*
X171681523Y-111259808D01*
X171681523Y-111259808D02*
X171491047Y-111355046D01*
X171491047Y-111355046D02*
X171300571Y-111355046D01*
X171300571Y-111355046D02*
X171110095Y-111259808D01*
X171110095Y-111259808D02*
X171014857Y-111069332D01*
X171014857Y-111069332D02*
X171014857Y-110593141D01*
X171014857Y-110593141D02*
X170919619Y-110402665D01*
X170443428Y-109450284D02*
X171776761Y-109450284D01*
X170633904Y-109450284D02*
X170538666Y-109355046D01*
X170538666Y-109355046D02*
X170443428Y-109164570D01*
X170443428Y-109164570D02*
X170443428Y-108878855D01*
X170443428Y-108878855D02*
X170538666Y-108688379D01*
X170538666Y-108688379D02*
X170729142Y-108593141D01*
X170729142Y-108593141D02*
X171776761Y-108593141D01*
X171776761Y-106783617D02*
X170729142Y-106783617D01*
X170729142Y-106783617D02*
X170538666Y-106878855D01*
X170538666Y-106878855D02*
X170443428Y-107069331D01*
X170443428Y-107069331D02*
X170443428Y-107450284D01*
X170443428Y-107450284D02*
X170538666Y-107640760D01*
X171681523Y-106783617D02*
X171776761Y-106974093D01*
X171776761Y-106974093D02*
X171776761Y-107450284D01*
X171776761Y-107450284D02*
X171681523Y-107640760D01*
X171681523Y-107640760D02*
X171491047Y-107735998D01*
X171491047Y-107735998D02*
X171300571Y-107735998D01*
X171300571Y-107735998D02*
X171110095Y-107640760D01*
X171110095Y-107640760D02*
X171014857Y-107450284D01*
X171014857Y-107450284D02*
X171014857Y-106974093D01*
X171014857Y-106974093D02*
X170919619Y-106783617D01*
X170443428Y-104974093D02*
X171776761Y-104974093D01*
X170443428Y-105831236D02*
X171491047Y-105831236D01*
X171491047Y-105831236D02*
X171681523Y-105735998D01*
X171681523Y-105735998D02*
X171776761Y-105545522D01*
X171776761Y-105545522D02*
X171776761Y-105259807D01*
X171776761Y-105259807D02*
X171681523Y-105069331D01*
X171681523Y-105069331D02*
X171586285Y-104974093D01*
X170443428Y-104307426D02*
X170443428Y-103545522D01*
X169776761Y-104021712D02*
X171491047Y-104021712D01*
X171491047Y-104021712D02*
X171681523Y-103926474D01*
X171681523Y-103926474D02*
X171776761Y-103735998D01*
X171776761Y-103735998D02*
X171776761Y-103545522D01*
X171681523Y-102974093D02*
X171776761Y-102783617D01*
X171776761Y-102783617D02*
X171776761Y-102402665D01*
X171776761Y-102402665D02*
X171681523Y-102212188D01*
X171681523Y-102212188D02*
X171491047Y-102116950D01*
X171491047Y-102116950D02*
X171395809Y-102116950D01*
X171395809Y-102116950D02*
X171205333Y-102212188D01*
X171205333Y-102212188D02*
X171110095Y-102402665D01*
X171110095Y-102402665D02*
X171110095Y-102688379D01*
X171110095Y-102688379D02*
X171014857Y-102878855D01*
X171014857Y-102878855D02*
X170824380Y-102974093D01*
X170824380Y-102974093D02*
X170729142Y-102974093D01*
X170729142Y-102974093D02*
X170538666Y-102878855D01*
X170538666Y-102878855D02*
X170443428Y-102688379D01*
X170443428Y-102688379D02*
X170443428Y-102402665D01*
X170443428Y-102402665D02*
X170538666Y-102212188D01*
X130794095Y-106462380D02*
X130794095Y-105462380D01*
X130794095Y-105938571D02*
X131365523Y-105938571D01*
X131365523Y-106462380D02*
X131365523Y-105462380D01*
X132032190Y-105462380D02*
X132222666Y-105462380D01*
X132222666Y-105462380D02*
X132317904Y-105510000D01*
X132317904Y-105510000D02*
X132413142Y-105605238D01*
X132413142Y-105605238D02*
X132460761Y-105795714D01*
X132460761Y-105795714D02*
X132460761Y-106129047D01*
X132460761Y-106129047D02*
X132413142Y-106319523D01*
X132413142Y-106319523D02*
X132317904Y-106414761D01*
X132317904Y-106414761D02*
X132222666Y-106462380D01*
X132222666Y-106462380D02*
X132032190Y-106462380D01*
X132032190Y-106462380D02*
X131936952Y-106414761D01*
X131936952Y-106414761D02*
X131841714Y-106319523D01*
X131841714Y-106319523D02*
X131794095Y-106129047D01*
X131794095Y-106129047D02*
X131794095Y-105795714D01*
X131794095Y-105795714D02*
X131841714Y-105605238D01*
X131841714Y-105605238D02*
X131936952Y-105510000D01*
X131936952Y-105510000D02*
X132032190Y-105462380D01*
X133365523Y-106462380D02*
X132889333Y-106462380D01*
X132889333Y-106462380D02*
X132889333Y-105462380D01*
X133698857Y-106462380D02*
X133698857Y-105462380D01*
X133698857Y-105462380D02*
X133936952Y-105462380D01*
X133936952Y-105462380D02*
X134079809Y-105510000D01*
X134079809Y-105510000D02*
X134175047Y-105605238D01*
X134175047Y-105605238D02*
X134222666Y-105700476D01*
X134222666Y-105700476D02*
X134270285Y-105890952D01*
X134270285Y-105890952D02*
X134270285Y-106033809D01*
X134270285Y-106033809D02*
X134222666Y-106224285D01*
X134222666Y-106224285D02*
X134175047Y-106319523D01*
X134175047Y-106319523D02*
X134079809Y-106414761D01*
X134079809Y-106414761D02*
X133936952Y-106462380D01*
X133936952Y-106462380D02*
X133698857Y-106462380D01*
X160273904Y-128370000D02*
X160178666Y-128322380D01*
X160178666Y-128322380D02*
X160035809Y-128322380D01*
X160035809Y-128322380D02*
X159892952Y-128370000D01*
X159892952Y-128370000D02*
X159797714Y-128465238D01*
X159797714Y-128465238D02*
X159750095Y-128560476D01*
X159750095Y-128560476D02*
X159702476Y-128750952D01*
X159702476Y-128750952D02*
X159702476Y-128893809D01*
X159702476Y-128893809D02*
X159750095Y-129084285D01*
X159750095Y-129084285D02*
X159797714Y-129179523D01*
X159797714Y-129179523D02*
X159892952Y-129274761D01*
X159892952Y-129274761D02*
X160035809Y-129322380D01*
X160035809Y-129322380D02*
X160131047Y-129322380D01*
X160131047Y-129322380D02*
X160273904Y-129274761D01*
X160273904Y-129274761D02*
X160321523Y-129227142D01*
X160321523Y-129227142D02*
X160321523Y-128893809D01*
X160321523Y-128893809D02*
X160131047Y-128893809D01*
X160750095Y-129322380D02*
X160750095Y-128322380D01*
X160750095Y-128322380D02*
X161321523Y-129322380D01*
X161321523Y-129322380D02*
X161321523Y-128322380D01*
X161797714Y-129322380D02*
X161797714Y-128322380D01*
X161797714Y-128322380D02*
X162035809Y-128322380D01*
X162035809Y-128322380D02*
X162178666Y-128370000D01*
X162178666Y-128370000D02*
X162273904Y-128465238D01*
X162273904Y-128465238D02*
X162321523Y-128560476D01*
X162321523Y-128560476D02*
X162369142Y-128750952D01*
X162369142Y-128750952D02*
X162369142Y-128893809D01*
X162369142Y-128893809D02*
X162321523Y-129084285D01*
X162321523Y-129084285D02*
X162273904Y-129179523D01*
X162273904Y-129179523D02*
X162178666Y-129274761D01*
X162178666Y-129274761D02*
X162035809Y-129322380D01*
X162035809Y-129322380D02*
X161797714Y-129322380D01*
X132873714Y-129830380D02*
X133064190Y-129830380D01*
X133064190Y-129830380D02*
X133159428Y-129782761D01*
X133159428Y-129782761D02*
X133207047Y-129735142D01*
X133207047Y-129735142D02*
X133302285Y-129592285D01*
X133302285Y-129592285D02*
X133349904Y-129401809D01*
X133349904Y-129401809D02*
X133349904Y-129020857D01*
X133349904Y-129020857D02*
X133302285Y-128925619D01*
X133302285Y-128925619D02*
X133254666Y-128878000D01*
X133254666Y-128878000D02*
X133159428Y-128830380D01*
X133159428Y-128830380D02*
X132968952Y-128830380D01*
X132968952Y-128830380D02*
X132873714Y-128878000D01*
X132873714Y-128878000D02*
X132826095Y-128925619D01*
X132826095Y-128925619D02*
X132778476Y-129020857D01*
X132778476Y-129020857D02*
X132778476Y-129258952D01*
X132778476Y-129258952D02*
X132826095Y-129354190D01*
X132826095Y-129354190D02*
X132873714Y-129401809D01*
X132873714Y-129401809D02*
X132968952Y-129449428D01*
X132968952Y-129449428D02*
X133159428Y-129449428D01*
X133159428Y-129449428D02*
X133254666Y-129401809D01*
X133254666Y-129401809D02*
X133302285Y-129354190D01*
X133302285Y-129354190D02*
X133349904Y-129258952D01*
X134492761Y-128782761D02*
X133635619Y-130068476D01*
X134778476Y-128925619D02*
X134826095Y-128878000D01*
X134826095Y-128878000D02*
X134921333Y-128830380D01*
X134921333Y-128830380D02*
X135159428Y-128830380D01*
X135159428Y-128830380D02*
X135254666Y-128878000D01*
X135254666Y-128878000D02*
X135302285Y-128925619D01*
X135302285Y-128925619D02*
X135349904Y-129020857D01*
X135349904Y-129020857D02*
X135349904Y-129116095D01*
X135349904Y-129116095D02*
X135302285Y-129258952D01*
X135302285Y-129258952D02*
X134730857Y-129830380D01*
X134730857Y-129830380D02*
X135349904Y-129830380D01*
X136207047Y-129163714D02*
X136207047Y-129830380D01*
X135968952Y-128782761D02*
X135730857Y-129497047D01*
X135730857Y-129497047D02*
X136349904Y-129497047D01*
X137445142Y-128782761D02*
X136588000Y-130068476D01*
X137730857Y-128925619D02*
X137778476Y-128878000D01*
X137778476Y-128878000D02*
X137873714Y-128830380D01*
X137873714Y-128830380D02*
X138111809Y-128830380D01*
X138111809Y-128830380D02*
X138207047Y-128878000D01*
X138207047Y-128878000D02*
X138254666Y-128925619D01*
X138254666Y-128925619D02*
X138302285Y-129020857D01*
X138302285Y-129020857D02*
X138302285Y-129116095D01*
X138302285Y-129116095D02*
X138254666Y-129258952D01*
X138254666Y-129258952D02*
X137683238Y-129830380D01*
X137683238Y-129830380D02*
X138302285Y-129830380D01*
X138635619Y-128830380D02*
X139254666Y-128830380D01*
X139254666Y-128830380D02*
X138921333Y-129211333D01*
X138921333Y-129211333D02*
X139064190Y-129211333D01*
X139064190Y-129211333D02*
X139159428Y-129258952D01*
X139159428Y-129258952D02*
X139207047Y-129306571D01*
X139207047Y-129306571D02*
X139254666Y-129401809D01*
X139254666Y-129401809D02*
X139254666Y-129639904D01*
X139254666Y-129639904D02*
X139207047Y-129735142D01*
X139207047Y-129735142D02*
X139159428Y-129782761D01*
X139159428Y-129782761D02*
X139064190Y-129830380D01*
X139064190Y-129830380D02*
X138778476Y-129830380D01*
X138778476Y-129830380D02*
X138683238Y-129782761D01*
X138683238Y-129782761D02*
X138635619Y-129735142D01*
%TO.C,U2*%
X146094380Y-103606723D02*
X146094380Y-104124819D01*
X146094380Y-104124819D02*
X146124857Y-104185771D01*
X146124857Y-104185771D02*
X146155333Y-104216247D01*
X146155333Y-104216247D02*
X146216285Y-104246723D01*
X146216285Y-104246723D02*
X146338190Y-104246723D01*
X146338190Y-104246723D02*
X146399142Y-104216247D01*
X146399142Y-104216247D02*
X146429619Y-104185771D01*
X146429619Y-104185771D02*
X146460095Y-104124819D01*
X146460095Y-104124819D02*
X146460095Y-103606723D01*
X146734380Y-103667676D02*
X146764856Y-103637200D01*
X146764856Y-103637200D02*
X146825809Y-103606723D01*
X146825809Y-103606723D02*
X146978190Y-103606723D01*
X146978190Y-103606723D02*
X147039142Y-103637200D01*
X147039142Y-103637200D02*
X147069618Y-103667676D01*
X147069618Y-103667676D02*
X147100095Y-103728628D01*
X147100095Y-103728628D02*
X147100095Y-103789580D01*
X147100095Y-103789580D02*
X147069618Y-103881009D01*
X147069618Y-103881009D02*
X146703904Y-104246723D01*
X146703904Y-104246723D02*
X147100095Y-104246723D01*
%TO.C,R2*%
X148382333Y-111111380D02*
X148049000Y-110635190D01*
X147810905Y-111111380D02*
X147810905Y-110111380D01*
X147810905Y-110111380D02*
X148191857Y-110111380D01*
X148191857Y-110111380D02*
X148287095Y-110159000D01*
X148287095Y-110159000D02*
X148334714Y-110206619D01*
X148334714Y-110206619D02*
X148382333Y-110301857D01*
X148382333Y-110301857D02*
X148382333Y-110444714D01*
X148382333Y-110444714D02*
X148334714Y-110539952D01*
X148334714Y-110539952D02*
X148287095Y-110587571D01*
X148287095Y-110587571D02*
X148191857Y-110635190D01*
X148191857Y-110635190D02*
X147810905Y-110635190D01*
X148763286Y-110206619D02*
X148810905Y-110159000D01*
X148810905Y-110159000D02*
X148906143Y-110111380D01*
X148906143Y-110111380D02*
X149144238Y-110111380D01*
X149144238Y-110111380D02*
X149239476Y-110159000D01*
X149239476Y-110159000D02*
X149287095Y-110206619D01*
X149287095Y-110206619D02*
X149334714Y-110301857D01*
X149334714Y-110301857D02*
X149334714Y-110397095D01*
X149334714Y-110397095D02*
X149287095Y-110539952D01*
X149287095Y-110539952D02*
X148715667Y-111111380D01*
X148715667Y-111111380D02*
X149334714Y-111111380D01*
%TO.C,C2*%
X149439333Y-102634142D02*
X149391714Y-102681761D01*
X149391714Y-102681761D02*
X149248857Y-102729380D01*
X149248857Y-102729380D02*
X149153619Y-102729380D01*
X149153619Y-102729380D02*
X149010762Y-102681761D01*
X149010762Y-102681761D02*
X148915524Y-102586523D01*
X148915524Y-102586523D02*
X148867905Y-102491285D01*
X148867905Y-102491285D02*
X148820286Y-102300809D01*
X148820286Y-102300809D02*
X148820286Y-102157952D01*
X148820286Y-102157952D02*
X148867905Y-101967476D01*
X148867905Y-101967476D02*
X148915524Y-101872238D01*
X148915524Y-101872238D02*
X149010762Y-101777000D01*
X149010762Y-101777000D02*
X149153619Y-101729380D01*
X149153619Y-101729380D02*
X149248857Y-101729380D01*
X149248857Y-101729380D02*
X149391714Y-101777000D01*
X149391714Y-101777000D02*
X149439333Y-101824619D01*
X149820286Y-101824619D02*
X149867905Y-101777000D01*
X149867905Y-101777000D02*
X149963143Y-101729380D01*
X149963143Y-101729380D02*
X150201238Y-101729380D01*
X150201238Y-101729380D02*
X150296476Y-101777000D01*
X150296476Y-101777000D02*
X150344095Y-101824619D01*
X150344095Y-101824619D02*
X150391714Y-101919857D01*
X150391714Y-101919857D02*
X150391714Y-102015095D01*
X150391714Y-102015095D02*
X150344095Y-102157952D01*
X150344095Y-102157952D02*
X149772667Y-102729380D01*
X149772667Y-102729380D02*
X150391714Y-102729380D01*
%TO.C,U8*%
X159893095Y-120271380D02*
X159893095Y-121080904D01*
X159893095Y-121080904D02*
X159940714Y-121176142D01*
X159940714Y-121176142D02*
X159988333Y-121223761D01*
X159988333Y-121223761D02*
X160083571Y-121271380D01*
X160083571Y-121271380D02*
X160274047Y-121271380D01*
X160274047Y-121271380D02*
X160369285Y-121223761D01*
X160369285Y-121223761D02*
X160416904Y-121176142D01*
X160416904Y-121176142D02*
X160464523Y-121080904D01*
X160464523Y-121080904D02*
X160464523Y-120271380D01*
X161083571Y-120699952D02*
X160988333Y-120652333D01*
X160988333Y-120652333D02*
X160940714Y-120604714D01*
X160940714Y-120604714D02*
X160893095Y-120509476D01*
X160893095Y-120509476D02*
X160893095Y-120461857D01*
X160893095Y-120461857D02*
X160940714Y-120366619D01*
X160940714Y-120366619D02*
X160988333Y-120319000D01*
X160988333Y-120319000D02*
X161083571Y-120271380D01*
X161083571Y-120271380D02*
X161274047Y-120271380D01*
X161274047Y-120271380D02*
X161369285Y-120319000D01*
X161369285Y-120319000D02*
X161416904Y-120366619D01*
X161416904Y-120366619D02*
X161464523Y-120461857D01*
X161464523Y-120461857D02*
X161464523Y-120509476D01*
X161464523Y-120509476D02*
X161416904Y-120604714D01*
X161416904Y-120604714D02*
X161369285Y-120652333D01*
X161369285Y-120652333D02*
X161274047Y-120699952D01*
X161274047Y-120699952D02*
X161083571Y-120699952D01*
X161083571Y-120699952D02*
X160988333Y-120747571D01*
X160988333Y-120747571D02*
X160940714Y-120795190D01*
X160940714Y-120795190D02*
X160893095Y-120890428D01*
X160893095Y-120890428D02*
X160893095Y-121080904D01*
X160893095Y-121080904D02*
X160940714Y-121176142D01*
X160940714Y-121176142D02*
X160988333Y-121223761D01*
X160988333Y-121223761D02*
X161083571Y-121271380D01*
X161083571Y-121271380D02*
X161274047Y-121271380D01*
X161274047Y-121271380D02*
X161369285Y-121223761D01*
X161369285Y-121223761D02*
X161416904Y-121176142D01*
X161416904Y-121176142D02*
X161464523Y-121080904D01*
X161464523Y-121080904D02*
X161464523Y-120890428D01*
X161464523Y-120890428D02*
X161416904Y-120795190D01*
X161416904Y-120795190D02*
X161369285Y-120747571D01*
X161369285Y-120747571D02*
X161274047Y-120699952D01*
%TO.C,Q1*%
X139604761Y-114267619D02*
X139509523Y-114220000D01*
X139509523Y-114220000D02*
X139414285Y-114124761D01*
X139414285Y-114124761D02*
X139271428Y-113981904D01*
X139271428Y-113981904D02*
X139176190Y-113934285D01*
X139176190Y-113934285D02*
X139080952Y-113934285D01*
X139128571Y-114172380D02*
X139033333Y-114124761D01*
X139033333Y-114124761D02*
X138938095Y-114029523D01*
X138938095Y-114029523D02*
X138890476Y-113839047D01*
X138890476Y-113839047D02*
X138890476Y-113505714D01*
X138890476Y-113505714D02*
X138938095Y-113315238D01*
X138938095Y-113315238D02*
X139033333Y-113220000D01*
X139033333Y-113220000D02*
X139128571Y-113172380D01*
X139128571Y-113172380D02*
X139319047Y-113172380D01*
X139319047Y-113172380D02*
X139414285Y-113220000D01*
X139414285Y-113220000D02*
X139509523Y-113315238D01*
X139509523Y-113315238D02*
X139557142Y-113505714D01*
X139557142Y-113505714D02*
X139557142Y-113839047D01*
X139557142Y-113839047D02*
X139509523Y-114029523D01*
X139509523Y-114029523D02*
X139414285Y-114124761D01*
X139414285Y-114124761D02*
X139319047Y-114172380D01*
X139319047Y-114172380D02*
X139128571Y-114172380D01*
X140509523Y-114172380D02*
X139938095Y-114172380D01*
X140223809Y-114172380D02*
X140223809Y-113172380D01*
X140223809Y-113172380D02*
X140128571Y-113315238D01*
X140128571Y-113315238D02*
X140033333Y-113410476D01*
X140033333Y-113410476D02*
X139938095Y-113458095D01*
%TO.C,R15*%
X158388078Y-126224380D02*
X158054745Y-125748190D01*
X157816650Y-126224380D02*
X157816650Y-125224380D01*
X157816650Y-125224380D02*
X158197602Y-125224380D01*
X158197602Y-125224380D02*
X158292840Y-125272000D01*
X158292840Y-125272000D02*
X158340459Y-125319619D01*
X158340459Y-125319619D02*
X158388078Y-125414857D01*
X158388078Y-125414857D02*
X158388078Y-125557714D01*
X158388078Y-125557714D02*
X158340459Y-125652952D01*
X158340459Y-125652952D02*
X158292840Y-125700571D01*
X158292840Y-125700571D02*
X158197602Y-125748190D01*
X158197602Y-125748190D02*
X157816650Y-125748190D01*
X159340459Y-126224380D02*
X158769031Y-126224380D01*
X159054745Y-126224380D02*
X159054745Y-125224380D01*
X159054745Y-125224380D02*
X158959507Y-125367238D01*
X158959507Y-125367238D02*
X158864269Y-125462476D01*
X158864269Y-125462476D02*
X158769031Y-125510095D01*
X160245221Y-125224380D02*
X159769031Y-125224380D01*
X159769031Y-125224380D02*
X159721412Y-125700571D01*
X159721412Y-125700571D02*
X159769031Y-125652952D01*
X159769031Y-125652952D02*
X159864269Y-125605333D01*
X159864269Y-125605333D02*
X160102364Y-125605333D01*
X160102364Y-125605333D02*
X160197602Y-125652952D01*
X160197602Y-125652952D02*
X160245221Y-125700571D01*
X160245221Y-125700571D02*
X160292840Y-125795809D01*
X160292840Y-125795809D02*
X160292840Y-126033904D01*
X160292840Y-126033904D02*
X160245221Y-126129142D01*
X160245221Y-126129142D02*
X160197602Y-126176761D01*
X160197602Y-126176761D02*
X160102364Y-126224380D01*
X160102364Y-126224380D02*
X159864269Y-126224380D01*
X159864269Y-126224380D02*
X159769031Y-126176761D01*
X159769031Y-126176761D02*
X159721412Y-126129142D01*
%TO.C,R14*%
X166483380Y-103258857D02*
X166007190Y-103592190D01*
X166483380Y-103830285D02*
X165483380Y-103830285D01*
X165483380Y-103830285D02*
X165483380Y-103449333D01*
X165483380Y-103449333D02*
X165531000Y-103354095D01*
X165531000Y-103354095D02*
X165578619Y-103306476D01*
X165578619Y-103306476D02*
X165673857Y-103258857D01*
X165673857Y-103258857D02*
X165816714Y-103258857D01*
X165816714Y-103258857D02*
X165911952Y-103306476D01*
X165911952Y-103306476D02*
X165959571Y-103354095D01*
X165959571Y-103354095D02*
X166007190Y-103449333D01*
X166007190Y-103449333D02*
X166007190Y-103830285D01*
X166483380Y-102306476D02*
X166483380Y-102877904D01*
X166483380Y-102592190D02*
X165483380Y-102592190D01*
X165483380Y-102592190D02*
X165626238Y-102687428D01*
X165626238Y-102687428D02*
X165721476Y-102782666D01*
X165721476Y-102782666D02*
X165769095Y-102877904D01*
X165816714Y-101449333D02*
X166483380Y-101449333D01*
X165435761Y-101687428D02*
X166150047Y-101925523D01*
X166150047Y-101925523D02*
X166150047Y-101306476D01*
%TO.C,U3*%
X139956380Y-95376904D02*
X140765904Y-95376904D01*
X140765904Y-95376904D02*
X140861142Y-95329285D01*
X140861142Y-95329285D02*
X140908761Y-95281666D01*
X140908761Y-95281666D02*
X140956380Y-95186428D01*
X140956380Y-95186428D02*
X140956380Y-94995952D01*
X140956380Y-94995952D02*
X140908761Y-94900714D01*
X140908761Y-94900714D02*
X140861142Y-94853095D01*
X140861142Y-94853095D02*
X140765904Y-94805476D01*
X140765904Y-94805476D02*
X139956380Y-94805476D01*
X139956380Y-94424523D02*
X139956380Y-93805476D01*
X139956380Y-93805476D02*
X140337333Y-94138809D01*
X140337333Y-94138809D02*
X140337333Y-93995952D01*
X140337333Y-93995952D02*
X140384952Y-93900714D01*
X140384952Y-93900714D02*
X140432571Y-93853095D01*
X140432571Y-93853095D02*
X140527809Y-93805476D01*
X140527809Y-93805476D02*
X140765904Y-93805476D01*
X140765904Y-93805476D02*
X140861142Y-93853095D01*
X140861142Y-93853095D02*
X140908761Y-93900714D01*
X140908761Y-93900714D02*
X140956380Y-93995952D01*
X140956380Y-93995952D02*
X140956380Y-94281666D01*
X140956380Y-94281666D02*
X140908761Y-94376904D01*
X140908761Y-94376904D02*
X140861142Y-94424523D01*
%TO.C,D1*%
X136794980Y-104512094D02*
X135794980Y-104512094D01*
X135794980Y-104512094D02*
X135794980Y-104273999D01*
X135794980Y-104273999D02*
X135842600Y-104131142D01*
X135842600Y-104131142D02*
X135937838Y-104035904D01*
X135937838Y-104035904D02*
X136033076Y-103988285D01*
X136033076Y-103988285D02*
X136223552Y-103940666D01*
X136223552Y-103940666D02*
X136366409Y-103940666D01*
X136366409Y-103940666D02*
X136556885Y-103988285D01*
X136556885Y-103988285D02*
X136652123Y-104035904D01*
X136652123Y-104035904D02*
X136747361Y-104131142D01*
X136747361Y-104131142D02*
X136794980Y-104273999D01*
X136794980Y-104273999D02*
X136794980Y-104512094D01*
X136794980Y-102988285D02*
X136794980Y-103559713D01*
X136794980Y-103273999D02*
X135794980Y-103273999D01*
X135794980Y-103273999D02*
X135937838Y-103369237D01*
X135937838Y-103369237D02*
X136033076Y-103464475D01*
X136033076Y-103464475D02*
X136080695Y-103559713D01*
%TO.C,JP4*%
X148465380Y-126436333D02*
X149179666Y-126436333D01*
X149179666Y-126436333D02*
X149322523Y-126483952D01*
X149322523Y-126483952D02*
X149417761Y-126579190D01*
X149417761Y-126579190D02*
X149465380Y-126722047D01*
X149465380Y-126722047D02*
X149465380Y-126817285D01*
X149465380Y-125960142D02*
X148465380Y-125960142D01*
X148465380Y-125960142D02*
X148465380Y-125579190D01*
X148465380Y-125579190D02*
X148513000Y-125483952D01*
X148513000Y-125483952D02*
X148560619Y-125436333D01*
X148560619Y-125436333D02*
X148655857Y-125388714D01*
X148655857Y-125388714D02*
X148798714Y-125388714D01*
X148798714Y-125388714D02*
X148893952Y-125436333D01*
X148893952Y-125436333D02*
X148941571Y-125483952D01*
X148941571Y-125483952D02*
X148989190Y-125579190D01*
X148989190Y-125579190D02*
X148989190Y-125960142D01*
X148798714Y-124531571D02*
X149465380Y-124531571D01*
X148417761Y-124769666D02*
X149132047Y-125007761D01*
X149132047Y-125007761D02*
X149132047Y-124388714D01*
%TO.C,U9*%
X157353095Y-121455380D02*
X157353095Y-122264904D01*
X157353095Y-122264904D02*
X157400714Y-122360142D01*
X157400714Y-122360142D02*
X157448333Y-122407761D01*
X157448333Y-122407761D02*
X157543571Y-122455380D01*
X157543571Y-122455380D02*
X157734047Y-122455380D01*
X157734047Y-122455380D02*
X157829285Y-122407761D01*
X157829285Y-122407761D02*
X157876904Y-122360142D01*
X157876904Y-122360142D02*
X157924523Y-122264904D01*
X157924523Y-122264904D02*
X157924523Y-121455380D01*
X158448333Y-122455380D02*
X158638809Y-122455380D01*
X158638809Y-122455380D02*
X158734047Y-122407761D01*
X158734047Y-122407761D02*
X158781666Y-122360142D01*
X158781666Y-122360142D02*
X158876904Y-122217285D01*
X158876904Y-122217285D02*
X158924523Y-122026809D01*
X158924523Y-122026809D02*
X158924523Y-121645857D01*
X158924523Y-121645857D02*
X158876904Y-121550619D01*
X158876904Y-121550619D02*
X158829285Y-121503000D01*
X158829285Y-121503000D02*
X158734047Y-121455380D01*
X158734047Y-121455380D02*
X158543571Y-121455380D01*
X158543571Y-121455380D02*
X158448333Y-121503000D01*
X158448333Y-121503000D02*
X158400714Y-121550619D01*
X158400714Y-121550619D02*
X158353095Y-121645857D01*
X158353095Y-121645857D02*
X158353095Y-121883952D01*
X158353095Y-121883952D02*
X158400714Y-121979190D01*
X158400714Y-121979190D02*
X158448333Y-122026809D01*
X158448333Y-122026809D02*
X158543571Y-122074428D01*
X158543571Y-122074428D02*
X158734047Y-122074428D01*
X158734047Y-122074428D02*
X158829285Y-122026809D01*
X158829285Y-122026809D02*
X158876904Y-121979190D01*
X158876904Y-121979190D02*
X158924523Y-121883952D01*
%TO.C,H5*%
X167767095Y-95592380D02*
X167767095Y-94592380D01*
X167767095Y-95068571D02*
X168338523Y-95068571D01*
X168338523Y-95592380D02*
X168338523Y-94592380D01*
X169290904Y-94592380D02*
X168814714Y-94592380D01*
X168814714Y-94592380D02*
X168767095Y-95068571D01*
X168767095Y-95068571D02*
X168814714Y-95020952D01*
X168814714Y-95020952D02*
X168909952Y-94973333D01*
X168909952Y-94973333D02*
X169148047Y-94973333D01*
X169148047Y-94973333D02*
X169243285Y-95020952D01*
X169243285Y-95020952D02*
X169290904Y-95068571D01*
X169290904Y-95068571D02*
X169338523Y-95163809D01*
X169338523Y-95163809D02*
X169338523Y-95401904D01*
X169338523Y-95401904D02*
X169290904Y-95497142D01*
X169290904Y-95497142D02*
X169243285Y-95544761D01*
X169243285Y-95544761D02*
X169148047Y-95592380D01*
X169148047Y-95592380D02*
X168909952Y-95592380D01*
X168909952Y-95592380D02*
X168814714Y-95544761D01*
X168814714Y-95544761D02*
X168767095Y-95497142D01*
%TO.C,JP3*%
X145798380Y-126690333D02*
X146512666Y-126690333D01*
X146512666Y-126690333D02*
X146655523Y-126737952D01*
X146655523Y-126737952D02*
X146750761Y-126833190D01*
X146750761Y-126833190D02*
X146798380Y-126976047D01*
X146798380Y-126976047D02*
X146798380Y-127071285D01*
X146798380Y-126214142D02*
X145798380Y-126214142D01*
X145798380Y-126214142D02*
X145798380Y-125833190D01*
X145798380Y-125833190D02*
X145846000Y-125737952D01*
X145846000Y-125737952D02*
X145893619Y-125690333D01*
X145893619Y-125690333D02*
X145988857Y-125642714D01*
X145988857Y-125642714D02*
X146131714Y-125642714D01*
X146131714Y-125642714D02*
X146226952Y-125690333D01*
X146226952Y-125690333D02*
X146274571Y-125737952D01*
X146274571Y-125737952D02*
X146322190Y-125833190D01*
X146322190Y-125833190D02*
X146322190Y-126214142D01*
X145798380Y-125309380D02*
X145798380Y-124690333D01*
X145798380Y-124690333D02*
X146179333Y-125023666D01*
X146179333Y-125023666D02*
X146179333Y-124880809D01*
X146179333Y-124880809D02*
X146226952Y-124785571D01*
X146226952Y-124785571D02*
X146274571Y-124737952D01*
X146274571Y-124737952D02*
X146369809Y-124690333D01*
X146369809Y-124690333D02*
X146607904Y-124690333D01*
X146607904Y-124690333D02*
X146703142Y-124737952D01*
X146703142Y-124737952D02*
X146750761Y-124785571D01*
X146750761Y-124785571D02*
X146798380Y-124880809D01*
X146798380Y-124880809D02*
X146798380Y-125166523D01*
X146798380Y-125166523D02*
X146750761Y-125261761D01*
X146750761Y-125261761D02*
X146703142Y-125309380D01*
%TO.C,J8*%
X157067380Y-75771333D02*
X157781666Y-75771333D01*
X157781666Y-75771333D02*
X157924523Y-75818952D01*
X157924523Y-75818952D02*
X158019761Y-75914190D01*
X158019761Y-75914190D02*
X158067380Y-76057047D01*
X158067380Y-76057047D02*
X158067380Y-76152285D01*
X157495952Y-75152285D02*
X157448333Y-75247523D01*
X157448333Y-75247523D02*
X157400714Y-75295142D01*
X157400714Y-75295142D02*
X157305476Y-75342761D01*
X157305476Y-75342761D02*
X157257857Y-75342761D01*
X157257857Y-75342761D02*
X157162619Y-75295142D01*
X157162619Y-75295142D02*
X157115000Y-75247523D01*
X157115000Y-75247523D02*
X157067380Y-75152285D01*
X157067380Y-75152285D02*
X157067380Y-74961809D01*
X157067380Y-74961809D02*
X157115000Y-74866571D01*
X157115000Y-74866571D02*
X157162619Y-74818952D01*
X157162619Y-74818952D02*
X157257857Y-74771333D01*
X157257857Y-74771333D02*
X157305476Y-74771333D01*
X157305476Y-74771333D02*
X157400714Y-74818952D01*
X157400714Y-74818952D02*
X157448333Y-74866571D01*
X157448333Y-74866571D02*
X157495952Y-74961809D01*
X157495952Y-74961809D02*
X157495952Y-75152285D01*
X157495952Y-75152285D02*
X157543571Y-75247523D01*
X157543571Y-75247523D02*
X157591190Y-75295142D01*
X157591190Y-75295142D02*
X157686428Y-75342761D01*
X157686428Y-75342761D02*
X157876904Y-75342761D01*
X157876904Y-75342761D02*
X157972142Y-75295142D01*
X157972142Y-75295142D02*
X158019761Y-75247523D01*
X158019761Y-75247523D02*
X158067380Y-75152285D01*
X158067380Y-75152285D02*
X158067380Y-74961809D01*
X158067380Y-74961809D02*
X158019761Y-74866571D01*
X158019761Y-74866571D02*
X157972142Y-74818952D01*
X157972142Y-74818952D02*
X157876904Y-74771333D01*
X157876904Y-74771333D02*
X157686428Y-74771333D01*
X157686428Y-74771333D02*
X157591190Y-74818952D01*
X157591190Y-74818952D02*
X157543571Y-74866571D01*
X157543571Y-74866571D02*
X157495952Y-74961809D01*
%TO.C,R11*%
X140321380Y-90939857D02*
X139845190Y-91273190D01*
X140321380Y-91511285D02*
X139321380Y-91511285D01*
X139321380Y-91511285D02*
X139321380Y-91130333D01*
X139321380Y-91130333D02*
X139369000Y-91035095D01*
X139369000Y-91035095D02*
X139416619Y-90987476D01*
X139416619Y-90987476D02*
X139511857Y-90939857D01*
X139511857Y-90939857D02*
X139654714Y-90939857D01*
X139654714Y-90939857D02*
X139749952Y-90987476D01*
X139749952Y-90987476D02*
X139797571Y-91035095D01*
X139797571Y-91035095D02*
X139845190Y-91130333D01*
X139845190Y-91130333D02*
X139845190Y-91511285D01*
X140321380Y-89987476D02*
X140321380Y-90558904D01*
X140321380Y-90273190D02*
X139321380Y-90273190D01*
X139321380Y-90273190D02*
X139464238Y-90368428D01*
X139464238Y-90368428D02*
X139559476Y-90463666D01*
X139559476Y-90463666D02*
X139607095Y-90558904D01*
X140321380Y-89035095D02*
X140321380Y-89606523D01*
X140321380Y-89320809D02*
X139321380Y-89320809D01*
X139321380Y-89320809D02*
X139464238Y-89416047D01*
X139464238Y-89416047D02*
X139559476Y-89511285D01*
X139559476Y-89511285D02*
X139607095Y-89606523D01*
%TO.C,R1*%
X133691333Y-125970380D02*
X133358000Y-125494190D01*
X133119905Y-125970380D02*
X133119905Y-124970380D01*
X133119905Y-124970380D02*
X133500857Y-124970380D01*
X133500857Y-124970380D02*
X133596095Y-125018000D01*
X133596095Y-125018000D02*
X133643714Y-125065619D01*
X133643714Y-125065619D02*
X133691333Y-125160857D01*
X133691333Y-125160857D02*
X133691333Y-125303714D01*
X133691333Y-125303714D02*
X133643714Y-125398952D01*
X133643714Y-125398952D02*
X133596095Y-125446571D01*
X133596095Y-125446571D02*
X133500857Y-125494190D01*
X133500857Y-125494190D02*
X133119905Y-125494190D01*
X134643714Y-125970380D02*
X134072286Y-125970380D01*
X134358000Y-125970380D02*
X134358000Y-124970380D01*
X134358000Y-124970380D02*
X134262762Y-125113238D01*
X134262762Y-125113238D02*
X134167524Y-125208476D01*
X134167524Y-125208476D02*
X134072286Y-125256095D01*
%TO.C,SW1*%
X130875761Y-116522332D02*
X130923380Y-116379475D01*
X130923380Y-116379475D02*
X130923380Y-116141380D01*
X130923380Y-116141380D02*
X130875761Y-116046142D01*
X130875761Y-116046142D02*
X130828142Y-115998523D01*
X130828142Y-115998523D02*
X130732904Y-115950904D01*
X130732904Y-115950904D02*
X130637666Y-115950904D01*
X130637666Y-115950904D02*
X130542428Y-115998523D01*
X130542428Y-115998523D02*
X130494809Y-116046142D01*
X130494809Y-116046142D02*
X130447190Y-116141380D01*
X130447190Y-116141380D02*
X130399571Y-116331856D01*
X130399571Y-116331856D02*
X130351952Y-116427094D01*
X130351952Y-116427094D02*
X130304333Y-116474713D01*
X130304333Y-116474713D02*
X130209095Y-116522332D01*
X130209095Y-116522332D02*
X130113857Y-116522332D01*
X130113857Y-116522332D02*
X130018619Y-116474713D01*
X130018619Y-116474713D02*
X129971000Y-116427094D01*
X129971000Y-116427094D02*
X129923380Y-116331856D01*
X129923380Y-116331856D02*
X129923380Y-116093761D01*
X129923380Y-116093761D02*
X129971000Y-115950904D01*
X129923380Y-115617570D02*
X130923380Y-115379475D01*
X130923380Y-115379475D02*
X130209095Y-115188999D01*
X130209095Y-115188999D02*
X130923380Y-114998523D01*
X130923380Y-114998523D02*
X129923380Y-114760428D01*
X130923380Y-113855666D02*
X130923380Y-114427094D01*
X130923380Y-114141380D02*
X129923380Y-114141380D01*
X129923380Y-114141380D02*
X130066238Y-114236618D01*
X130066238Y-114236618D02*
X130161476Y-114331856D01*
X130161476Y-114331856D02*
X130209095Y-114427094D01*
%TO.C,R10*%
X142359142Y-80297380D02*
X142025809Y-79821190D01*
X141787714Y-80297380D02*
X141787714Y-79297380D01*
X141787714Y-79297380D02*
X142168666Y-79297380D01*
X142168666Y-79297380D02*
X142263904Y-79345000D01*
X142263904Y-79345000D02*
X142311523Y-79392619D01*
X142311523Y-79392619D02*
X142359142Y-79487857D01*
X142359142Y-79487857D02*
X142359142Y-79630714D01*
X142359142Y-79630714D02*
X142311523Y-79725952D01*
X142311523Y-79725952D02*
X142263904Y-79773571D01*
X142263904Y-79773571D02*
X142168666Y-79821190D01*
X142168666Y-79821190D02*
X141787714Y-79821190D01*
X143311523Y-80297380D02*
X142740095Y-80297380D01*
X143025809Y-80297380D02*
X143025809Y-79297380D01*
X143025809Y-79297380D02*
X142930571Y-79440238D01*
X142930571Y-79440238D02*
X142835333Y-79535476D01*
X142835333Y-79535476D02*
X142740095Y-79583095D01*
X143930571Y-79297380D02*
X144025809Y-79297380D01*
X144025809Y-79297380D02*
X144121047Y-79345000D01*
X144121047Y-79345000D02*
X144168666Y-79392619D01*
X144168666Y-79392619D02*
X144216285Y-79487857D01*
X144216285Y-79487857D02*
X144263904Y-79678333D01*
X144263904Y-79678333D02*
X144263904Y-79916428D01*
X144263904Y-79916428D02*
X144216285Y-80106904D01*
X144216285Y-80106904D02*
X144168666Y-80202142D01*
X144168666Y-80202142D02*
X144121047Y-80249761D01*
X144121047Y-80249761D02*
X144025809Y-80297380D01*
X144025809Y-80297380D02*
X143930571Y-80297380D01*
X143930571Y-80297380D02*
X143835333Y-80249761D01*
X143835333Y-80249761D02*
X143787714Y-80202142D01*
X143787714Y-80202142D02*
X143740095Y-80106904D01*
X143740095Y-80106904D02*
X143692476Y-79916428D01*
X143692476Y-79916428D02*
X143692476Y-79678333D01*
X143692476Y-79678333D02*
X143740095Y-79487857D01*
X143740095Y-79487857D02*
X143787714Y-79392619D01*
X143787714Y-79392619D02*
X143835333Y-79345000D01*
X143835333Y-79345000D02*
X143930571Y-79297380D01*
%TO.C,C3*%
X142708333Y-87521142D02*
X142660714Y-87568761D01*
X142660714Y-87568761D02*
X142517857Y-87616380D01*
X142517857Y-87616380D02*
X142422619Y-87616380D01*
X142422619Y-87616380D02*
X142279762Y-87568761D01*
X142279762Y-87568761D02*
X142184524Y-87473523D01*
X142184524Y-87473523D02*
X142136905Y-87378285D01*
X142136905Y-87378285D02*
X142089286Y-87187809D01*
X142089286Y-87187809D02*
X142089286Y-87044952D01*
X142089286Y-87044952D02*
X142136905Y-86854476D01*
X142136905Y-86854476D02*
X142184524Y-86759238D01*
X142184524Y-86759238D02*
X142279762Y-86664000D01*
X142279762Y-86664000D02*
X142422619Y-86616380D01*
X142422619Y-86616380D02*
X142517857Y-86616380D01*
X142517857Y-86616380D02*
X142660714Y-86664000D01*
X142660714Y-86664000D02*
X142708333Y-86711619D01*
X143041667Y-86616380D02*
X143660714Y-86616380D01*
X143660714Y-86616380D02*
X143327381Y-86997333D01*
X143327381Y-86997333D02*
X143470238Y-86997333D01*
X143470238Y-86997333D02*
X143565476Y-87044952D01*
X143565476Y-87044952D02*
X143613095Y-87092571D01*
X143613095Y-87092571D02*
X143660714Y-87187809D01*
X143660714Y-87187809D02*
X143660714Y-87425904D01*
X143660714Y-87425904D02*
X143613095Y-87521142D01*
X143613095Y-87521142D02*
X143565476Y-87568761D01*
X143565476Y-87568761D02*
X143470238Y-87616380D01*
X143470238Y-87616380D02*
X143184524Y-87616380D01*
X143184524Y-87616380D02*
X143089286Y-87568761D01*
X143089286Y-87568761D02*
X143041667Y-87521142D01*
%TO.C,U1*%
X145311380Y-118109904D02*
X146120904Y-118109904D01*
X146120904Y-118109904D02*
X146216142Y-118062285D01*
X146216142Y-118062285D02*
X146263761Y-118014666D01*
X146263761Y-118014666D02*
X146311380Y-117919428D01*
X146311380Y-117919428D02*
X146311380Y-117728952D01*
X146311380Y-117728952D02*
X146263761Y-117633714D01*
X146263761Y-117633714D02*
X146216142Y-117586095D01*
X146216142Y-117586095D02*
X146120904Y-117538476D01*
X146120904Y-117538476D02*
X145311380Y-117538476D01*
X146311380Y-116538476D02*
X146311380Y-117109904D01*
X146311380Y-116824190D02*
X145311380Y-116824190D01*
X145311380Y-116824190D02*
X145454238Y-116919428D01*
X145454238Y-116919428D02*
X145549476Y-117014666D01*
X145549476Y-117014666D02*
X145597095Y-117109904D01*
%TO.C,C15*%
X143782142Y-117990857D02*
X143829761Y-118038476D01*
X143829761Y-118038476D02*
X143877380Y-118181333D01*
X143877380Y-118181333D02*
X143877380Y-118276571D01*
X143877380Y-118276571D02*
X143829761Y-118419428D01*
X143829761Y-118419428D02*
X143734523Y-118514666D01*
X143734523Y-118514666D02*
X143639285Y-118562285D01*
X143639285Y-118562285D02*
X143448809Y-118609904D01*
X143448809Y-118609904D02*
X143305952Y-118609904D01*
X143305952Y-118609904D02*
X143115476Y-118562285D01*
X143115476Y-118562285D02*
X143020238Y-118514666D01*
X143020238Y-118514666D02*
X142925000Y-118419428D01*
X142925000Y-118419428D02*
X142877380Y-118276571D01*
X142877380Y-118276571D02*
X142877380Y-118181333D01*
X142877380Y-118181333D02*
X142925000Y-118038476D01*
X142925000Y-118038476D02*
X142972619Y-117990857D01*
X143877380Y-117038476D02*
X143877380Y-117609904D01*
X143877380Y-117324190D02*
X142877380Y-117324190D01*
X142877380Y-117324190D02*
X143020238Y-117419428D01*
X143020238Y-117419428D02*
X143115476Y-117514666D01*
X143115476Y-117514666D02*
X143163095Y-117609904D01*
X142877380Y-116133714D02*
X142877380Y-116609904D01*
X142877380Y-116609904D02*
X143353571Y-116657523D01*
X143353571Y-116657523D02*
X143305952Y-116609904D01*
X143305952Y-116609904D02*
X143258333Y-116514666D01*
X143258333Y-116514666D02*
X143258333Y-116276571D01*
X143258333Y-116276571D02*
X143305952Y-116181333D01*
X143305952Y-116181333D02*
X143353571Y-116133714D01*
X143353571Y-116133714D02*
X143448809Y-116086095D01*
X143448809Y-116086095D02*
X143686904Y-116086095D01*
X143686904Y-116086095D02*
X143782142Y-116133714D01*
X143782142Y-116133714D02*
X143829761Y-116181333D01*
X143829761Y-116181333D02*
X143877380Y-116276571D01*
X143877380Y-116276571D02*
X143877380Y-116514666D01*
X143877380Y-116514666D02*
X143829761Y-116609904D01*
X143829761Y-116609904D02*
X143782142Y-116657523D01*
%TO.C,*%
%TO.C,C1*%
X149370142Y-90082666D02*
X149417761Y-90130285D01*
X149417761Y-90130285D02*
X149465380Y-90273142D01*
X149465380Y-90273142D02*
X149465380Y-90368380D01*
X149465380Y-90368380D02*
X149417761Y-90511237D01*
X149417761Y-90511237D02*
X149322523Y-90606475D01*
X149322523Y-90606475D02*
X149227285Y-90654094D01*
X149227285Y-90654094D02*
X149036809Y-90701713D01*
X149036809Y-90701713D02*
X148893952Y-90701713D01*
X148893952Y-90701713D02*
X148703476Y-90654094D01*
X148703476Y-90654094D02*
X148608238Y-90606475D01*
X148608238Y-90606475D02*
X148513000Y-90511237D01*
X148513000Y-90511237D02*
X148465380Y-90368380D01*
X148465380Y-90368380D02*
X148465380Y-90273142D01*
X148465380Y-90273142D02*
X148513000Y-90130285D01*
X148513000Y-90130285D02*
X148560619Y-90082666D01*
X149465380Y-89130285D02*
X149465380Y-89701713D01*
X149465380Y-89415999D02*
X148465380Y-89415999D01*
X148465380Y-89415999D02*
X148608238Y-89511237D01*
X148608238Y-89511237D02*
X148703476Y-89606475D01*
X148703476Y-89606475D02*
X148751095Y-89701713D01*
%TO.C,J1*%
X170550619Y-83740666D02*
X169836333Y-83740666D01*
X169836333Y-83740666D02*
X169693476Y-83693047D01*
X169693476Y-83693047D02*
X169598238Y-83597809D01*
X169598238Y-83597809D02*
X169550619Y-83454952D01*
X169550619Y-83454952D02*
X169550619Y-83359714D01*
X169550619Y-84740666D02*
X169550619Y-84169238D01*
X169550619Y-84454952D02*
X170550619Y-84454952D01*
X170550619Y-84454952D02*
X170407761Y-84359714D01*
X170407761Y-84359714D02*
X170312523Y-84264476D01*
X170312523Y-84264476D02*
X170264904Y-84169238D01*
%TO.C,C13*%
X154170142Y-129177142D02*
X154122523Y-129224761D01*
X154122523Y-129224761D02*
X153979666Y-129272380D01*
X153979666Y-129272380D02*
X153884428Y-129272380D01*
X153884428Y-129272380D02*
X153741571Y-129224761D01*
X153741571Y-129224761D02*
X153646333Y-129129523D01*
X153646333Y-129129523D02*
X153598714Y-129034285D01*
X153598714Y-129034285D02*
X153551095Y-128843809D01*
X153551095Y-128843809D02*
X153551095Y-128700952D01*
X153551095Y-128700952D02*
X153598714Y-128510476D01*
X153598714Y-128510476D02*
X153646333Y-128415238D01*
X153646333Y-128415238D02*
X153741571Y-128320000D01*
X153741571Y-128320000D02*
X153884428Y-128272380D01*
X153884428Y-128272380D02*
X153979666Y-128272380D01*
X153979666Y-128272380D02*
X154122523Y-128320000D01*
X154122523Y-128320000D02*
X154170142Y-128367619D01*
X155122523Y-129272380D02*
X154551095Y-129272380D01*
X154836809Y-129272380D02*
X154836809Y-128272380D01*
X154836809Y-128272380D02*
X154741571Y-128415238D01*
X154741571Y-128415238D02*
X154646333Y-128510476D01*
X154646333Y-128510476D02*
X154551095Y-128558095D01*
X155455857Y-128272380D02*
X156074904Y-128272380D01*
X156074904Y-128272380D02*
X155741571Y-128653333D01*
X155741571Y-128653333D02*
X155884428Y-128653333D01*
X155884428Y-128653333D02*
X155979666Y-128700952D01*
X155979666Y-128700952D02*
X156027285Y-128748571D01*
X156027285Y-128748571D02*
X156074904Y-128843809D01*
X156074904Y-128843809D02*
X156074904Y-129081904D01*
X156074904Y-129081904D02*
X156027285Y-129177142D01*
X156027285Y-129177142D02*
X155979666Y-129224761D01*
X155979666Y-129224761D02*
X155884428Y-129272380D01*
X155884428Y-129272380D02*
X155598714Y-129272380D01*
X155598714Y-129272380D02*
X155503476Y-129224761D01*
X155503476Y-129224761D02*
X155455857Y-129177142D01*
%TO.C,R13*%
X163435380Y-103258857D02*
X162959190Y-103592190D01*
X163435380Y-103830285D02*
X162435380Y-103830285D01*
X162435380Y-103830285D02*
X162435380Y-103449333D01*
X162435380Y-103449333D02*
X162483000Y-103354095D01*
X162483000Y-103354095D02*
X162530619Y-103306476D01*
X162530619Y-103306476D02*
X162625857Y-103258857D01*
X162625857Y-103258857D02*
X162768714Y-103258857D01*
X162768714Y-103258857D02*
X162863952Y-103306476D01*
X162863952Y-103306476D02*
X162911571Y-103354095D01*
X162911571Y-103354095D02*
X162959190Y-103449333D01*
X162959190Y-103449333D02*
X162959190Y-103830285D01*
X163435380Y-102306476D02*
X163435380Y-102877904D01*
X163435380Y-102592190D02*
X162435380Y-102592190D01*
X162435380Y-102592190D02*
X162578238Y-102687428D01*
X162578238Y-102687428D02*
X162673476Y-102782666D01*
X162673476Y-102782666D02*
X162721095Y-102877904D01*
X162435380Y-101973142D02*
X162435380Y-101354095D01*
X162435380Y-101354095D02*
X162816333Y-101687428D01*
X162816333Y-101687428D02*
X162816333Y-101544571D01*
X162816333Y-101544571D02*
X162863952Y-101449333D01*
X162863952Y-101449333D02*
X162911571Y-101401714D01*
X162911571Y-101401714D02*
X163006809Y-101354095D01*
X163006809Y-101354095D02*
X163244904Y-101354095D01*
X163244904Y-101354095D02*
X163340142Y-101401714D01*
X163340142Y-101401714D02*
X163387761Y-101449333D01*
X163387761Y-101449333D02*
X163435380Y-101544571D01*
X163435380Y-101544571D02*
X163435380Y-101830285D01*
X163435380Y-101830285D02*
X163387761Y-101925523D01*
X163387761Y-101925523D02*
X163340142Y-101973142D01*
%TO.C,D2*%
X140427180Y-104512094D02*
X139427180Y-104512094D01*
X139427180Y-104512094D02*
X139427180Y-104273999D01*
X139427180Y-104273999D02*
X139474800Y-104131142D01*
X139474800Y-104131142D02*
X139570038Y-104035904D01*
X139570038Y-104035904D02*
X139665276Y-103988285D01*
X139665276Y-103988285D02*
X139855752Y-103940666D01*
X139855752Y-103940666D02*
X139998609Y-103940666D01*
X139998609Y-103940666D02*
X140189085Y-103988285D01*
X140189085Y-103988285D02*
X140284323Y-104035904D01*
X140284323Y-104035904D02*
X140379561Y-104131142D01*
X140379561Y-104131142D02*
X140427180Y-104273999D01*
X140427180Y-104273999D02*
X140427180Y-104512094D01*
X139522419Y-103559713D02*
X139474800Y-103512094D01*
X139474800Y-103512094D02*
X139427180Y-103416856D01*
X139427180Y-103416856D02*
X139427180Y-103178761D01*
X139427180Y-103178761D02*
X139474800Y-103083523D01*
X139474800Y-103083523D02*
X139522419Y-103035904D01*
X139522419Y-103035904D02*
X139617657Y-102988285D01*
X139617657Y-102988285D02*
X139712895Y-102988285D01*
X139712895Y-102988285D02*
X139855752Y-103035904D01*
X139855752Y-103035904D02*
X140427180Y-103607332D01*
X140427180Y-103607332D02*
X140427180Y-102988285D01*
%TO.C,R12*%
X148322380Y-87383857D02*
X147846190Y-87717190D01*
X148322380Y-87955285D02*
X147322380Y-87955285D01*
X147322380Y-87955285D02*
X147322380Y-87574333D01*
X147322380Y-87574333D02*
X147370000Y-87479095D01*
X147370000Y-87479095D02*
X147417619Y-87431476D01*
X147417619Y-87431476D02*
X147512857Y-87383857D01*
X147512857Y-87383857D02*
X147655714Y-87383857D01*
X147655714Y-87383857D02*
X147750952Y-87431476D01*
X147750952Y-87431476D02*
X147798571Y-87479095D01*
X147798571Y-87479095D02*
X147846190Y-87574333D01*
X147846190Y-87574333D02*
X147846190Y-87955285D01*
X148322380Y-86431476D02*
X148322380Y-87002904D01*
X148322380Y-86717190D02*
X147322380Y-86717190D01*
X147322380Y-86717190D02*
X147465238Y-86812428D01*
X147465238Y-86812428D02*
X147560476Y-86907666D01*
X147560476Y-86907666D02*
X147608095Y-87002904D01*
X147417619Y-86050523D02*
X147370000Y-86002904D01*
X147370000Y-86002904D02*
X147322380Y-85907666D01*
X147322380Y-85907666D02*
X147322380Y-85669571D01*
X147322380Y-85669571D02*
X147370000Y-85574333D01*
X147370000Y-85574333D02*
X147417619Y-85526714D01*
X147417619Y-85526714D02*
X147512857Y-85479095D01*
X147512857Y-85479095D02*
X147608095Y-85479095D01*
X147608095Y-85479095D02*
X147750952Y-85526714D01*
X147750952Y-85526714D02*
X148322380Y-86098142D01*
X148322380Y-86098142D02*
X148322380Y-85479095D01*
%TO.C,C12*%
X151757142Y-107460142D02*
X151709523Y-107507761D01*
X151709523Y-107507761D02*
X151566666Y-107555380D01*
X151566666Y-107555380D02*
X151471428Y-107555380D01*
X151471428Y-107555380D02*
X151328571Y-107507761D01*
X151328571Y-107507761D02*
X151233333Y-107412523D01*
X151233333Y-107412523D02*
X151185714Y-107317285D01*
X151185714Y-107317285D02*
X151138095Y-107126809D01*
X151138095Y-107126809D02*
X151138095Y-106983952D01*
X151138095Y-106983952D02*
X151185714Y-106793476D01*
X151185714Y-106793476D02*
X151233333Y-106698238D01*
X151233333Y-106698238D02*
X151328571Y-106603000D01*
X151328571Y-106603000D02*
X151471428Y-106555380D01*
X151471428Y-106555380D02*
X151566666Y-106555380D01*
X151566666Y-106555380D02*
X151709523Y-106603000D01*
X151709523Y-106603000D02*
X151757142Y-106650619D01*
X152709523Y-107555380D02*
X152138095Y-107555380D01*
X152423809Y-107555380D02*
X152423809Y-106555380D01*
X152423809Y-106555380D02*
X152328571Y-106698238D01*
X152328571Y-106698238D02*
X152233333Y-106793476D01*
X152233333Y-106793476D02*
X152138095Y-106841095D01*
X153090476Y-106650619D02*
X153138095Y-106603000D01*
X153138095Y-106603000D02*
X153233333Y-106555380D01*
X153233333Y-106555380D02*
X153471428Y-106555380D01*
X153471428Y-106555380D02*
X153566666Y-106603000D01*
X153566666Y-106603000D02*
X153614285Y-106650619D01*
X153614285Y-106650619D02*
X153661904Y-106745857D01*
X153661904Y-106745857D02*
X153661904Y-106841095D01*
X153661904Y-106841095D02*
X153614285Y-106983952D01*
X153614285Y-106983952D02*
X153042857Y-107555380D01*
X153042857Y-107555380D02*
X153661904Y-107555380D01*
%TO.C,C11*%
X151757142Y-105428142D02*
X151709523Y-105475761D01*
X151709523Y-105475761D02*
X151566666Y-105523380D01*
X151566666Y-105523380D02*
X151471428Y-105523380D01*
X151471428Y-105523380D02*
X151328571Y-105475761D01*
X151328571Y-105475761D02*
X151233333Y-105380523D01*
X151233333Y-105380523D02*
X151185714Y-105285285D01*
X151185714Y-105285285D02*
X151138095Y-105094809D01*
X151138095Y-105094809D02*
X151138095Y-104951952D01*
X151138095Y-104951952D02*
X151185714Y-104761476D01*
X151185714Y-104761476D02*
X151233333Y-104666238D01*
X151233333Y-104666238D02*
X151328571Y-104571000D01*
X151328571Y-104571000D02*
X151471428Y-104523380D01*
X151471428Y-104523380D02*
X151566666Y-104523380D01*
X151566666Y-104523380D02*
X151709523Y-104571000D01*
X151709523Y-104571000D02*
X151757142Y-104618619D01*
X152709523Y-105523380D02*
X152138095Y-105523380D01*
X152423809Y-105523380D02*
X152423809Y-104523380D01*
X152423809Y-104523380D02*
X152328571Y-104666238D01*
X152328571Y-104666238D02*
X152233333Y-104761476D01*
X152233333Y-104761476D02*
X152138095Y-104809095D01*
X153661904Y-105523380D02*
X153090476Y-105523380D01*
X153376190Y-105523380D02*
X153376190Y-104523380D01*
X153376190Y-104523380D02*
X153280952Y-104666238D01*
X153280952Y-104666238D02*
X153185714Y-104761476D01*
X153185714Y-104761476D02*
X153090476Y-104809095D01*
D11*
%TO.C,U2*%
X144240000Y-105268000D02*
G75*
G03*
X144240000Y-105268000I-100000J0D01*
G01*
D12*
X145050000Y-104788000D02*
X147050000Y-104788000D01*
X145050000Y-107048000D02*
X147050000Y-107048000D01*
D13*
%TO.C,R2*%
X148776064Y-109531000D02*
X148321936Y-109531000D01*
X148776064Y-108061000D02*
X148321936Y-108061000D01*
%TO.C,C2*%
X150300000Y-105247252D02*
X150300000Y-104724748D01*
X148830000Y-105247252D02*
X148830000Y-104724748D01*
%TO.C,U8*%
X156795000Y-109040000D02*
X156795000Y-109295000D01*
X156795000Y-109295000D02*
X154980000Y-109295000D01*
X156795000Y-119560000D02*
X156795000Y-119305000D01*
X160655000Y-109040000D02*
X156795000Y-109040000D01*
X160655000Y-109040000D02*
X164515000Y-109040000D01*
X160655000Y-119560000D02*
X156795000Y-119560000D01*
X160655000Y-119560000D02*
X164515000Y-119560000D01*
X164515000Y-109040000D02*
X164515000Y-109295000D01*
X164515000Y-119560000D02*
X164515000Y-119305000D01*
%TO.C,Q1*%
X139700000Y-114645000D02*
X138025000Y-114645000D01*
X139700000Y-114645000D02*
X140350000Y-114645000D01*
X139700000Y-117765000D02*
X139050000Y-117765000D01*
X139700000Y-117765000D02*
X140350000Y-117765000D01*
%TO.C,J9*%
X163003000Y-129854000D02*
X163003000Y-128524000D01*
X164333000Y-129854000D02*
X163003000Y-129854000D01*
X165603000Y-129854000D02*
X168203000Y-129854000D01*
X165603000Y-129854000D02*
X165603000Y-127194000D01*
X168203000Y-129854000D02*
X168203000Y-127194000D01*
X165603000Y-127194000D02*
X168203000Y-127194000D01*
%TO.C,R15*%
X159485064Y-124433000D02*
X159030936Y-124433000D01*
X159485064Y-122963000D02*
X159030936Y-122963000D01*
%TO.C,R14*%
X165127000Y-106272064D02*
X165127000Y-105817936D01*
X166597000Y-106272064D02*
X166597000Y-105817936D01*
%TO.C,U3*%
X141712000Y-94615000D02*
X141712000Y-98065000D01*
X141712000Y-94615000D02*
X141712000Y-92665000D01*
X146832000Y-94615000D02*
X146832000Y-96565000D01*
X146832000Y-94615000D02*
X146832000Y-92665000D01*
%TO.C,D1*%
X137427600Y-105674000D02*
X139127600Y-105674000D01*
X137427600Y-105674000D02*
X137427600Y-102524000D01*
X139127600Y-105674000D02*
X139127600Y-102524000D01*
%TO.C,JP4*%
X148098000Y-123701000D02*
X148098000Y-120901000D01*
X150098000Y-123701000D02*
X148098000Y-123701000D01*
X148098000Y-120901000D02*
X150098000Y-120901000D01*
X150098000Y-120901000D02*
X150098000Y-123701000D01*
%TO.C,U9*%
X155713000Y-122088000D02*
X153913000Y-122088000D01*
X153913000Y-125308000D02*
X156363000Y-125308000D01*
%TO.C,JP3*%
X145558000Y-123701000D02*
X145558000Y-120901000D01*
X147558000Y-123701000D02*
X145558000Y-123701000D01*
X145558000Y-120901000D02*
X147558000Y-120901000D01*
X147558000Y-120901000D02*
X147558000Y-123701000D01*
%TO.C,J8*%
X158700000Y-76768000D02*
X158700000Y-75438000D01*
X160030000Y-76768000D02*
X158700000Y-76768000D01*
X161300000Y-76768000D02*
X168980000Y-76768000D01*
X161300000Y-76768000D02*
X161300000Y-74108000D01*
X168980000Y-76768000D02*
X168980000Y-74108000D01*
X161300000Y-74108000D02*
X168980000Y-74108000D01*
%TO.C,J5*%
X154920000Y-77721000D02*
X153500000Y-77721000D01*
X154920000Y-66001000D02*
X154920000Y-77721000D01*
X153500000Y-77721000D02*
X153500000Y-73221000D01*
X153500000Y-73221000D02*
X149860000Y-73221000D01*
X152660000Y-77411000D02*
X152060000Y-77411000D01*
X152610000Y-72111000D02*
X152610000Y-66611000D01*
X152610000Y-66611000D02*
X152110000Y-66611000D01*
X152360000Y-76811000D02*
X152660000Y-77411000D01*
X152110000Y-72111000D02*
X152610000Y-72111000D01*
X152110000Y-66611000D02*
X152110000Y-72111000D01*
X152060000Y-77411000D02*
X152360000Y-76811000D01*
X150110000Y-72111000D02*
X150110000Y-66611000D01*
X150110000Y-66611000D02*
X149610000Y-66611000D01*
X149860000Y-66001000D02*
X154920000Y-66001000D01*
X149860000Y-66001000D02*
X144800000Y-66001000D01*
X149610000Y-72111000D02*
X150110000Y-72111000D01*
X149610000Y-66611000D02*
X149610000Y-72111000D01*
X147610000Y-72111000D02*
X147610000Y-66611000D01*
X147610000Y-66611000D02*
X147110000Y-66611000D01*
X147110000Y-72111000D02*
X147610000Y-72111000D01*
X147110000Y-66611000D02*
X147110000Y-72111000D01*
X146220000Y-77721000D02*
X146220000Y-73221000D01*
X146220000Y-73221000D02*
X149860000Y-73221000D01*
X144800000Y-77721000D02*
X146220000Y-77721000D01*
X144800000Y-66001000D02*
X144800000Y-77721000D01*
%TO.C,R11*%
X140689000Y-86386936D02*
X140689000Y-86841064D01*
X139219000Y-86386936D02*
X139219000Y-86841064D01*
%TO.C,R1*%
X133630936Y-122836000D02*
X134085064Y-122836000D01*
X133630936Y-124306000D02*
X134085064Y-124306000D01*
%TO.C,J4*%
X137305000Y-85090000D02*
X137305000Y-86510000D01*
X125585000Y-85090000D02*
X137305000Y-85090000D01*
X137305000Y-86510000D02*
X132805000Y-86510000D01*
X132805000Y-86510000D02*
X132805000Y-88900000D01*
X136995000Y-87350000D02*
X136995000Y-87950000D01*
X131695000Y-87400000D02*
X126195000Y-87400000D01*
X126195000Y-87400000D02*
X126195000Y-87900000D01*
X136395000Y-87650000D02*
X136995000Y-87350000D01*
X131695000Y-87900000D02*
X131695000Y-87400000D01*
X126195000Y-87900000D02*
X131695000Y-87900000D01*
X136995000Y-87950000D02*
X136395000Y-87650000D01*
X125585000Y-88900000D02*
X125585000Y-85090000D01*
X125585000Y-88900000D02*
X125585000Y-92710000D01*
X131695000Y-89900000D02*
X126195000Y-89900000D01*
X126195000Y-89900000D02*
X126195000Y-90400000D01*
X131695000Y-90400000D02*
X131695000Y-89900000D01*
X126195000Y-90400000D02*
X131695000Y-90400000D01*
X137305000Y-91290000D02*
X132805000Y-91290000D01*
X132805000Y-91290000D02*
X132805000Y-88900000D01*
X137305000Y-92710000D02*
X137305000Y-91290000D01*
X125585000Y-92710000D02*
X137305000Y-92710000D01*
D12*
%TO.C,SW1*%
X132229000Y-110689000D02*
X128629000Y-110689000D01*
X128629000Y-110689000D02*
X128629000Y-111769000D01*
X132229000Y-111769000D02*
X132229000Y-110689000D01*
X128629000Y-118609000D02*
X128629000Y-119689000D01*
X132229000Y-119689000D02*
X132229000Y-118609000D01*
X128629000Y-119689000D02*
X132229000Y-119689000D01*
D11*
X127779000Y-111349000D02*
G75*
G03*
X127779000Y-111349000I-100000J0D01*
G01*
D13*
%TO.C,R10*%
X140824936Y-80840000D02*
X145179064Y-80840000D01*
X140824936Y-84260000D02*
X145179064Y-84260000D01*
%TO.C,C3*%
X143263252Y-89635000D02*
X142740748Y-89635000D01*
X143263252Y-88165000D02*
X142740748Y-88165000D01*
%TO.C,U1*%
X150454000Y-118248000D02*
X150454000Y-116448000D01*
X147234000Y-116448000D02*
X147234000Y-118898000D01*
%TO.C,J6*%
X141286000Y-70365000D02*
X140236000Y-70365000D01*
X141286000Y-67865000D02*
X141286000Y-70365000D01*
X140236000Y-70365000D02*
X140236000Y-71355000D01*
X140116000Y-65895000D02*
X136236000Y-65895000D01*
X135066000Y-70365000D02*
X136116000Y-70365000D01*
X135066000Y-67865000D02*
X135066000Y-70365000D01*
%TO.C,C15*%
X145061000Y-117355252D02*
X145061000Y-116832748D01*
X146531000Y-117355252D02*
X146531000Y-116832748D01*
%TO.C,C1*%
X148363000Y-93225252D02*
X148363000Y-92702748D01*
X149833000Y-93225252D02*
X149833000Y-92702748D01*
%TO.C,J2*%
X129600000Y-107370000D02*
X128270000Y-107370000D01*
X129600000Y-106040000D02*
X129600000Y-107370000D01*
X129600000Y-104770000D02*
X129600000Y-94550000D01*
X129600000Y-104770000D02*
X126940000Y-104770000D01*
X129600000Y-94550000D02*
X126940000Y-94550000D01*
X126940000Y-104770000D02*
X126940000Y-94550000D01*
%TO.C,D3*%
X135543000Y-122245000D02*
X135543000Y-120325000D01*
X135543000Y-120325000D02*
X132858000Y-120325000D01*
X132858000Y-122245000D02*
X135543000Y-122245000D01*
%TO.C,C13*%
X155074252Y-127481000D02*
X154551748Y-127481000D01*
X155074252Y-126011000D02*
X154551748Y-126011000D01*
%TO.C,R13*%
X162206000Y-106272064D02*
X162206000Y-105817936D01*
X163676000Y-106272064D02*
X163676000Y-105817936D01*
%TO.C,J7*%
X137305000Y-74930000D02*
X137305000Y-76350000D01*
X125585000Y-74930000D02*
X137305000Y-74930000D01*
X137305000Y-76350000D02*
X132805000Y-76350000D01*
X132805000Y-76350000D02*
X132805000Y-78740000D01*
X136995000Y-77190000D02*
X136995000Y-77790000D01*
X131695000Y-77240000D02*
X126195000Y-77240000D01*
X126195000Y-77240000D02*
X126195000Y-77740000D01*
X136395000Y-77490000D02*
X136995000Y-77190000D01*
X131695000Y-77740000D02*
X131695000Y-77240000D01*
X126195000Y-77740000D02*
X131695000Y-77740000D01*
X136995000Y-77790000D02*
X136395000Y-77490000D01*
X125585000Y-78740000D02*
X125585000Y-74930000D01*
X125585000Y-78740000D02*
X125585000Y-82550000D01*
X131695000Y-79740000D02*
X126195000Y-79740000D01*
X126195000Y-79740000D02*
X126195000Y-80240000D01*
X131695000Y-80240000D02*
X131695000Y-79740000D01*
X126195000Y-80240000D02*
X131695000Y-80240000D01*
X137305000Y-81130000D02*
X132805000Y-81130000D01*
X132805000Y-81130000D02*
X132805000Y-78740000D01*
X137305000Y-82550000D02*
X137305000Y-81130000D01*
X125585000Y-82550000D02*
X137305000Y-82550000D01*
%TO.C,D2*%
X141059800Y-105674000D02*
X142759800Y-105674000D01*
X141059800Y-105674000D02*
X141059800Y-102524000D01*
X142759800Y-105674000D02*
X142759800Y-102524000D01*
%TO.C,JP1*%
X141208000Y-106438000D02*
X141208000Y-109238000D01*
X139208000Y-106438000D02*
X141208000Y-106438000D01*
X141208000Y-109238000D02*
X139208000Y-109238000D01*
X139208000Y-109238000D02*
X139208000Y-106438000D01*
%TO.C,R12*%
X146785000Y-86386936D02*
X146785000Y-86841064D01*
X145315000Y-86386936D02*
X145315000Y-86841064D01*
%TO.C,C12*%
X157614252Y-108050000D02*
X157091748Y-108050000D01*
X157614252Y-106580000D02*
X157091748Y-106580000D01*
%TO.C,C11*%
X157614252Y-105637000D02*
X157091748Y-105637000D01*
X157614252Y-104167000D02*
X157091748Y-104167000D01*
%TD*%
M02*
